<?xml version="1.0" encoding="utf-8"?>
<!-- Generator: Adobe Illustrator 23.1.1, SVG Export Plug-In . SVG Version: 6.00 Build 0)  -->
<svg version="1.1" id="Dialog" xmlns="http://www.w3.org/2000/svg" xmlns:xlink="http://www.w3.org/1999/xlink" x="0px" y="0px"
	 viewBox="0 0 1000 644.9" style="enable-background:new 0 0 1000 644.9;" xml:space="preserve">
<style type="text/css">
	.st0{fill:#1C1F29;}
	.st1{fill:#009EE2;}
	.st2{fill:#FFFFFF;}
</style>
<title>kinoshka</title>
<rect x="-7" y="-0.5" class="st0" width="1010.9" height="646.8"/>
<g>
	<polygon class="st1" points="490.5,138.6 308.3,322.9 490,507.1 126.8,507.1 126.8,138.6 	"/>
	<g>
		<path class="st2" d="M445.2,350.9l-18.7-25.3v25.3h-13.6v-55.9h13.6v23.8l17.5-23.8h16.7l-20.1,27l21.6,28.9H445.2z"/>
		<path class="st2" d="M522.2,294.9v55.9h-13.6v-23.4l1.1-11.8l-21,35.2h-15.4v-55.9h13.6v23.4l-1,11.8l20.9-35.2H522.2z"/>
		<path class="st2" d="M585.7,294.9v55.9h-13.6v-22.1h-21.5v22.1H537v-55.9h13.6v20.9h21.5v-20.9H585.7z"/>
		<path class="st2" d="M657,322.9c0,16.5-12.7,29-29.3,29c-16.5,0-29.3-12.5-29.3-29s12.7-29,29.3-29
			C644.3,293.9,657,306.4,657,322.9z M612.2,322.9c0,9.4,6.6,16.1,15.5,16.1c9,0,15.5-6.7,15.5-16.1c0-9.4-6.6-16.1-15.5-16.1
			C618.8,306.8,612.2,313.5,612.2,322.9z"/>
		<path class="st2" d="M739.9,294.9v45.3v10.6h-70.2v-12.9v-43h13.6v43h14.7v-43h13.6v43h14.7v-43H739.9z"/>
		<path class="st2" d="M787.4,350.9l-18.7-25.3v25.3h-13.6v-55.9h13.6v23.8l17.5-23.8h16.7l-20.1,27l21.6,28.9H787.4z"/>
		<path class="st2" d="M851.7,339.3h-20.9l-4,11.6h-14.4l20.3-55.9h17.1l20.3,55.9h-14.4L851.7,339.3z M847.2,326.3l-6-17.4l-6,17.4
			H847.2z"/>
	</g>
</g>
</svg>
