<?xml version="1.0" encoding="utf-8"?>
<!-- Generator: Adobe Illustrator 23.1.1, SVG Export Plug-In . SVG Version: 6.00 Build 0)  -->
<svg version="1.1" id="Dialog" xmlns="http://www.w3.org/2000/svg" xmlns:xlink="http://www.w3.org/1999/xlink" x="0px" y="0px"
	 viewBox="0 0 623.6 623.6" style="enable-background:new 0 0 623.6 623.6;" xml:space="preserve">
<style type="text/css">
	.st0{fill:#1C1F29;}
	.st1{fill:#009EE2;}
	.st2{fill:#FFFFFF;}
</style>
<title>kinoshka</title>
<rect x="-4" y="-2.3" class="st0" width="630.2" height="629.1"/>
<polygon class="st1" points="626.1,-2.4 314.9,312.3 625.3,627 -4.1,627 -4.1,-2.4 "/>
<g>
	<path class="st2" d="M164.5,335.8l-15.7-21.3v21.3h-11.4v-47h11.4v20l14.7-20h14l-16.9,22.7l18.2,24.3H164.5z"/>
	<path class="st2" d="M229.2,288.7v47h-11.4V316l0.9-9.9l-17.7,29.6h-12.9v-47h11.4v19.7l-0.8,9.9l17.6-29.6H229.2z"/>
	<path class="st2" d="M282.6,288.7v47h-11.4v-18.6h-18.1v18.6h-11.4v-47h11.4v17.6h18.1v-17.6H282.6z"/>
	<path class="st2" d="M342.6,312.3c0,13.9-10.7,24.4-24.6,24.4c-13.9,0-24.6-10.5-24.6-24.4s10.7-24.4,24.6-24.4
		S342.6,298.4,342.6,312.3z M304.9,312.3c0,7.9,5.5,13.5,13,13.5c7.6,0,13-5.6,13-13.5c0-7.9-5.5-13.5-13-13.5
		S304.9,304.4,304.9,312.3z"/>
	<path class="st2" d="M412.3,288.7v38.1v8.9h-59v-10.8v-36.2h11.4v36.2H377v-36.2h11.4v36.2h12.4v-36.2H412.3z"/>
	<path class="st2" d="M452.2,335.8l-15.7-21.3v21.3H425v-47h11.4v20l14.7-20h14l-16.9,22.7l18.2,24.3H452.2z"/>
	<path class="st2" d="M506.3,326h-17.6l-3.4,9.8h-12.1l17.1-47h14.4l17.1,47h-12.1L506.3,326z M502.5,315.1l-5-14.6l-5,14.6H502.5z"
		/>
</g>
</svg>
