<?xml version="1.0" encoding="utf-8"?>
<!-- Generator: Adobe Illustrator 23.1.1, SVG Export Plug-In . SVG Version: 6.00 Build 0)  -->
<svg version="1.1" id="Слой_1" xmlns="http://www.w3.org/2000/svg" xmlns:xlink="http://www.w3.org/1999/xlink" x="0px" y="0px"
	 viewBox="0 0 1500 363.5" style="enable-background:new 0 0 1500 363.5;" xml:space="preserve">
<style type="text/css">
	.st0{fill:#EBEFF0;}
	.st1{fill:#009FE3;}
	.st2{fill-rule:evenodd;clip-rule:evenodd;fill:#FFFFFF;}
</style>
<title>img_large</title>
<g>
	<path class="st0" d="M354.9,41.7l-5.8,11.7c-3.1-3.1-8.2-4.7-15.2-4.7c-6.5-0.1-12.6,3-16.3,8.3c-4.2,5.6-6.4,12.6-6.4,21.1
		s2,15.3,5.9,20.3c3.7,4.9,9.6,7.7,15.8,7.5c7.5,0,13.4-2.7,17.6-8.1l6.6,11.4c-5.8,6.2-14.2,9.3-25.4,9.3s-19.8-3.7-25.9-11.1
		c-6.2-7.3-9.3-17.3-9.3-30c0-11.8,3.4-21.7,10.3-29.6c6.5-7.8,16.1-12.1,26.2-11.9C342.1,36.1,349.4,37.9,354.9,41.7z"/>
	<path class="st0" d="M363.8,87.9c0-8.9,2.6-16.1,7.7-21.7c5.1-5.6,11.9-8.4,20.3-8.4c8.9,0,15.7,2.7,20.6,8.1s7.3,12.7,7.3,22
		s-2.5,16.6-7.5,22.1s-11.8,8.2-20.5,8.2c-8.8,0-15.7-2.8-20.6-8.3C366.3,104.4,363.8,97,363.8,87.9z M378,87.9
		c0,12.8,4.6,19.3,13.9,19.3c4,0.1,7.8-1.8,10.1-5c2.5-3.3,3.7-8.1,3.7-14.3c0-12.7-4.6-19-13.9-19c-4-0.1-7.8,1.8-10.1,5
		C379.2,77.2,378,81.9,378,87.9z"/>
	<path class="st0" d="M468.2,117.1V83.5c0-5-1-8.6-2.9-10.8c-1.9-2.2-5-3.4-9.3-3.4c-2.2,0.1-4.4,0.6-6.4,1.7
		c-2.1,1-3.9,2.4-5.3,4.2v42h-13.6V58.9h9.8l2.5,5.4c3.7-4.4,9.2-6.5,16.4-6.5c6.9,0,12.4,2.1,16.4,6.2s6,9.9,6,17.4v35.8
		L468.2,117.1L468.2,117.1z"/>
	<path class="st0" d="M529,47.4c-2.2-0.8-4.5-1.3-6.9-1.5c-2.6,0-5,1.3-6.5,3.3c-1.9,2.3-2.9,5.2-2.8,8.2c0,0.5,0,0.9,0,1.4h12.1V70
		H513v47h-13.6V70.1h-8.5V58.9h8.5c0.3-7.1,2.4-12.9,6.3-17.3s9.5-6.8,15.3-6.6c4,0.1,8,0.8,11.8,2.1L529,47.4z"/>
	<path class="st0" d="M541.3,117.1V70h-7.5V58.9H555v58.3L541.3,117.1L541.3,117.1z M548.3,36.3c4.3,0,7.9,3.5,7.9,7.9
		c0,4.3-3.5,7.9-7.9,7.9c-4.3,0-7.9-3.5-7.9-7.9c0-2.1,0.8-4.1,2.3-5.5C544.2,37.1,546.2,36.2,548.3,36.3z"/>
	<path class="st0" d="M608.4,117.1v-3.5c-1.6,1.5-3.6,2.6-5.7,3.2c-2.7,0.9-5.5,1.4-8.3,1.4c-8.1,0-14.5-2.6-19.2-7.7
		c-4.6-5.1-7-12.3-7-21.6s2.7-16.7,8-22.5c5.1-5.7,12.4-8.8,20.1-8.7c4.2-0.1,8.3,0.9,12.1,2.7V37.2l13.6-3.3v83.2H608.4z
		 M608.4,72.8c-2.5-2.2-5.7-3.4-9.1-3.5c-5.4,0-9.6,1.7-12.6,5c-2.9,3.3-4.4,8.1-4.4,14.3c0,12.1,5.8,18.2,17.5,18.2
		c1.7-0.1,3.3-0.5,4.8-1.2c1.4-0.5,2.7-1.3,3.7-2.4L608.4,72.8z"/>
	<path class="st0" d="M687.6,92.2h-41.7c0,4.1,1.8,8,4.8,10.8c3.3,2.7,7.6,4.1,11.9,3.9c6.2,0,10.9-1.6,14.1-4.8l5.3,10.4
		c-4.8,3.9-11.9,5.9-21.3,5.9c-8.9,0-15.9-2.6-21.1-7.8c-5.2-5.2-7.7-12.5-7.7-21.8c0-9.2,2.8-16.6,8.5-22.3
		c5.3-5.5,12.6-8.6,20.3-8.5c8.5,0,15.2,2.5,20.4,7.6c5.1,5.1,7.9,12,7.7,19.3C688.6,87.1,688.2,89.7,687.6,92.2z M646.5,81.9h28.6
		c-0.9-8.5-5.7-12.8-14.1-12.8C653.2,69.1,648.4,73.4,646.5,81.9z"/>
	<path class="st0" d="M737.1,117.1V83.5c0-5-0.9-8.6-2.9-10.8c-1.9-2.2-5-3.4-9.3-3.4c-2.2,0.1-4.4,0.6-6.4,1.7
		c-2.1,1-3.9,2.4-5.3,4.2v42h-13.6V58.9h9.8l2.5,5.4c3.7-4.4,9.2-6.5,16.4-6.5c6.9,0,12.4,2.1,16.4,6.2s6,9.9,6,17.4v35.8
		L737.1,117.1L737.1,117.1z"/>
	<path class="st0" d="M767.5,69.8h-6.8v-11h6.8V47l13.6-4.9v16.8h16v11h-16v25.5c0,4.2,0.7,7.1,2,8.8c1.3,1.7,3.6,2.6,6.9,2.6
		c3.2,0,6.4-0.9,9.1-2.7v12.5c-4.4,1.2-8.9,1.8-13.5,1.6c-5.8,0-10.3-1.7-13.4-4.9c-3.1-3.3-4.6-8-4.6-14L767.5,69.8z"/>
	<path class="st0" d="M813.2,117.1V70h-7.5V58.9h21.2v58.3L813.2,117.1L813.2,117.1z M820.2,36.3c4.4,0,7.9,3.5,7.9,7.9
		s-3.5,7.9-7.9,7.9s-7.9-3.5-7.9-7.9c0-2.1,0.8-4.1,2.3-5.6C816.1,37.1,818.1,36.3,820.2,36.3L820.2,36.3z"/>
	<path class="st0" d="M875.3,111.3c-1.6,2.3-3.8,4-6.5,5c-3,1.3-6.3,1.9-9.6,1.9c-6.3,0-11.2-1.5-14.8-4.6s-5.4-7.5-5.4-13.4
		c-0.3-6.2,2.6-12.1,7.6-15.8c5.1-3.8,12.3-5.7,21.6-5.7c1.9,0,3.8,0.3,5.7,0.8c0-6.9-4.3-10.3-13-10.3c-4.4-0.1-8.8,0.7-12.8,2.5
		l-2.9-10.6c5.2-2.4,10.9-3.5,16.7-3.4c8.9,0,15.4,2,19.5,6.1c4.1,4,6.2,11.7,6.2,22.9v12.5c0,7.8,1.5,12.6,4.6,14.6
		c-0.8,1.6-2.1,2.9-3.7,3.6c-1.5,0.5-3.1,0.7-4.7,0.7c-2,0-3.9-0.8-5.3-2.2C876.9,114.8,875.9,113.1,875.3,111.3z M873.9,89.7
		c-1.7-0.4-3.5-0.6-5.2-0.7c-10.8,0-16.1,3.5-16.1,10.6c0,5.2,3,7.8,9.1,7.8c8.2,0,12.2-4.1,12.2-12.2V89.7z"/>
	<path class="st0" d="M904.5,37.2l13.6-3.3v65.5c0,7.2,2.1,11.5,6.4,12.8c-2.1,4-5.7,6-10.8,6c-6.2,0-9.3-4.3-9.3-12.8L904.5,37.2z"
		/>
	<path class="st0" d="M938.7,117.1V70h-7.5V58.9h21.2v58.3L938.7,117.1L938.7,117.1z M945.7,36.3c4.4,0,7.9,3.5,7.9,7.9
		s-3.5,7.9-7.9,7.9s-7.9-3.5-7.9-7.9c0-2.1,0.8-4.1,2.3-5.6C941.6,37.1,943.6,36.3,945.7,36.3z"/>
	<path class="st0" d="M970.3,69.8h-6.7v-11h6.7V47l13.6-4.9v16.8h16v11h-16v25.5c0,4.2,0.6,7.1,1.9,8.8c1.3,1.7,3.6,2.6,6.9,2.6
		c3.2,0,6.4-0.9,9.1-2.7v12.5c-4.4,1.2-8.9,1.8-13.5,1.6c-5.8,0-10.3-1.7-13.4-4.9c-3.1-3.3-4.6-8-4.6-14V69.8z"/>
	<path class="st0" d="M1038.2,126.5c-1.5,3.9-4.5,7.1-9.3,9.6c-5.1,2.7-10.9,4-16.7,3.8v-12c10.5,0,15.7-2.6,15.7-7.9
		c0-3.5-1.5-8.8-4.4-16l-18.2-45.2h14.1l15.8,40.3l14.3-40.3h14.1L1038.2,126.5z"/>
	<path class="st0" d="M1173,117.1V80.6c0-7.7-3.4-11.5-10.3-11.5c-2.1,0-4.1,0.6-5.9,1.8c-1.7,1-3.1,2.4-4,4.1v42h-13.7V78.5
		c0.1-2.5-0.8-5-2.7-6.8c-2.1-1.8-4.8-2.7-7.5-2.5c-2,0.1-3.9,0.8-5.6,1.9c-1.8,1-3.3,2.5-4.4,4.2v41.8h-13.6V58.9h9.4l2.8,5.1
		c3.7-4.1,9.1-6.4,14.6-6.2c7.7,0,13.5,2.1,17.5,6.3c2-2.1,4.4-3.7,7.1-4.6c2.9-1.1,6-1.7,9.1-1.7c6.5,0,11.5,1.9,15.2,5.6
		c3.7,3.7,5.4,8.8,5.4,15.3v38.5L1173,117.1L1173,117.1z"/>
	<path class="st0" d="M1233.7,111.3c-1.6,2.3-3.8,4-6.5,5c-3,1.3-6.3,1.9-9.6,1.9c-6.3,0-11.2-1.5-14.8-4.6s-5.4-7.5-5.4-13.4
		c-0.3-6.2,2.6-12.1,7.6-15.8c5.1-3.8,12.3-5.7,21.6-5.7c1.9,0,3.8,0.3,5.7,0.8c0-6.9-4.3-10.3-13-10.3c-4.4-0.1-8.8,0.7-12.8,2.5
		l-2.9-10.6c5.2-2.4,10.9-3.5,16.7-3.4c8.9,0,15.4,2,19.5,6.1c4.1,4,6.2,11.7,6.2,23v12.5c0,7.8,1.5,12.6,4.6,14.6
		c-0.8,1.6-2.1,2.9-3.7,3.6c-1.5,0.5-3.1,0.7-4.7,0.7c-2,0-3.9-0.8-5.3-2.2C1235.3,114.8,1234.3,113.2,1233.7,111.3z M1232.4,89.7
		c-1.7-0.4-3.5-0.6-5.2-0.7c-10.8,0-16.1,3.5-16.1,10.6c0,5.2,3,7.8,9.1,7.8c8.2,0,12.2-4.1,12.2-12.2V89.7z"/>
	<path class="st0" d="M1262.7,69.8h-6.7v-11h6.7V47l13.6-4.9v16.8h16v11h-16v25.5c0,4.2,0.7,7.1,2,8.8c1.3,1.7,3.6,2.6,6.9,2.6
		c3.2,0,6.4-0.9,9.2-2.7v12.5c-4.4,1.2-8.9,1.8-13.5,1.6c-5.8,0-10.3-1.7-13.4-4.9c-3.1-3.3-4.6-8-4.6-14L1262.7,69.8z"/>
	<path class="st0" d="M1306.9,69.8h-6.8v-11h6.8V47l13.6-5v16.9h16v11h-16v25.5c0,4.2,0.7,7.1,2,8.8c1.3,1.7,3.6,2.6,6.9,2.6
		c3.2,0,6.4-0.9,9.1-2.7v12.5c-4.4,1.2-8.9,1.8-13.5,1.6c-5.8,0-10.3-1.7-13.4-4.9c-3.1-3.3-4.6-8-4.6-14L1306.9,69.8z"/>
	<path class="st0" d="M1401,92.2h-41.7c0,4.1,1.8,8,4.8,10.8c3.3,2.7,7.6,4.1,11.9,3.9c6.2,0,10.9-1.6,14.2-4.8l5.3,10.4
		c-4.8,3.9-11.9,5.8-21.4,5.8c-8.9,0-15.9-2.6-21.1-7.8c-5.2-5.2-7.7-12.5-7.7-21.8c0-9.2,2.8-16.6,8.5-22.3
		c5.3-5.6,12.7-8.6,20.4-8.5c8.5,0,15.2,2.5,20.4,7.6c5.1,5.1,7.9,12,7.7,19.3C1402,87.1,1401.6,89.7,1401,92.2z M1359.8,81.9h28.6
		c-0.9-8.5-5.7-12.8-14.2-12.8C1366.5,69.1,1361.7,73.4,1359.8,81.9L1359.8,81.9z"/>
	<path class="st0" d="M1446.7,71.5c-2.4-1.6-5.1-2.4-8-2.4c-3.3,0.1-6.4,1.7-8.4,4.3c-2.5,2.9-3.8,6.7-3.7,10.5v33.2H1413V58.9h13.6
		v5.3c3.9-4.3,9.4-6.7,15.2-6.4c3.7-0.2,7.3,0.5,10.7,2.1L1446.7,71.5z"/>
	<path class="st0" d="M1457,113.4l4.8-10.8c3.9,3.2,8.8,4.9,13.8,4.8c5.3,0,7.9-1.9,7.9-5.7c0.1-2.1-0.8-4.1-2.4-5.4
		c-2.8-2.1-5.9-3.8-9.3-5c-10-4.2-15.1-10-15.1-17.5c-0.2-4.6,2-9.1,5.8-11.8c4.3-3,9.5-4.4,14.8-4.2c5.9,0,11.8,1.4,17.1,4.1
		l-3.9,10.6c-3-2.5-7.1-3.8-12.3-3.8c-4.8,0-7.1,1.9-7.1,5.7c0.1,1.6,1,3.1,2.3,4c3.1,2,6.5,3.6,10,4.8c4.3,1.4,8.1,4,11,7.3
		c2.3,3,3.5,6.6,3.4,10.4c0.2,5-2,9.7-6,12.7c-4,3.1-9.4,4.6-16.3,4.6c-3.1,0.1-6.3-0.2-9.3-1C1462.9,116.3,1459.8,115,1457,113.4z"
		/>
</g>
<g>
	<g>
		<path class="st1" d="M1036,300.8V212h-14v-21h40v109.8H1036z M1049.2,148.5c8.2,0,14.9,6.6,14.9,14.9c0,8.2-6.6,14.9-14.9,14.9
			c-8.2,0-14.9-6.6-14.9-14.9c0-4,1.6-7.8,4.4-10.5C1041.4,150,1045.3,148.4,1049.2,148.5L1049.2,148.5z"/>
		<path class="st1" d="M1162.4,300.8v-63.5c0-9.3-1.8-16.2-5.4-20.5s-9.4-6.5-17.6-6.5c-4.2,0.1-8.3,1.2-12,3.2
			c-3.9,1.8-7.3,4.5-10,7.9v79.4h-25.6V191h18.5l4.7,10.3c7-8.2,17.3-12.3,30.9-12.3c13.1,0,23.4,3.9,30.9,11.7
			c7.6,7.8,11.3,18.7,11.3,32.8v67.4L1162.4,300.8z"/>
		<path class="st1" d="M1340.1,289.9c-2.3,3.8-6.4,7-12.2,9.4c-5.7,2.4-11.9,3.7-18.1,3.6c-11.8,0-21.1-3-27.9-8.9
			s-10.1-14.3-10.2-25.2c0-12.7,4.8-22.7,14.3-29.8c9.5-7.2,23.1-10.8,40.7-10.8c3.6,0.1,7.2,0.6,10.7,1.5
			c0-12.9-8.2-19.4-24.5-19.4c-9.6,0-17.7,1.6-24.2,4.8l-5.5-19.9c8.8-4.2,19.3-6.4,31.5-6.4c16.8,0,29,3.8,36.8,11.4
			c7.8,7.6,11.7,22.1,11.7,43.3V267c0,14.6,2.9,23.8,8.8,27.6c-2.1,3.7-4.5,6-7.1,6.8c-2.9,0.9-5.9,1.3-8.9,1.3
			c-3.7,0-7.3-1.5-9.9-4.1C1343.3,296.4,1341.3,293.3,1340.1,289.9z M1337.6,249.1c-3.2-0.7-6.5-1.2-9.8-1.3
			c-20.2,0-30.3,6.6-30.3,19.9c0,9.9,5.7,14.8,17.1,14.8c15.4,0,23.1-7.7,23.1-23.1L1337.6,249.1L1337.6,249.1z"/>
		<path class="st1" d="M1395.3,150.1l25.6-6.1v123.5c0,13.5,4,21.6,12.1,24.2c-4,7.5-10.8,11.3-20.3,11.3
			c-11.6,0-17.4-8.1-17.4-24.2L1395.3,150.1L1395.3,150.1z"/>
		<path class="st1" d="M1457.2,150.1l25.6-6.1v123.5c0,13.5,4,21.6,12.1,24.2c-4,7.5-10.7,11.3-20.3,11.3
			c-11.6,0-17.4-8.1-17.4-24.2L1457.2,150.1z"/>
	</g>
	<g>
		<path class="st1" d="M922.4,299.8h-59.9c-13.4,0-24.3-10.9-24.3-24.3v-59.9c0-13.4,10.9-24.3,24.3-24.3h59.9
			c13.4,0,24.3,10.9,24.3,24.3v59.9C946.7,288.9,935.8,299.8,922.4,299.8z"/>
		<path class="st2" d="M905.9,239.2c6.2-2.7,12.1-6,17.5-10.1c-0.2,1.1-0.4,2.1-0.8,3.1c-2.1,7.7-5.9,14.9-11,21.1
			c-7.4,8.9-18.8,16.7-35.1,26.5C888.6,272.3,902.1,246.7,905.9,239.2z M923,225.7c-3.7,2.8-12.3,9-20.9,11.8l0,0
			c-3.1,0.9-6.4,1.3-9.6,1.4c-4.2-0.1-8.4-0.9-12.4-2.2c-2.9-4.9-5.4-10-7.5-15.4c4.8,2.6,12,6.8,19.9,6.8c9.4,0,17.9-5.9,22.5-8
			c1.1-0.5,3,0.6,4.3,1.8C920.6,223.1,921.9,224.3,923,225.7L923,225.7z M865.5,222.2c1-1,2.2-1.7,3.5-2.1c0.7,1.9,2.4,6.1,4.5,10.5
			c0.7,1.6,1.4,3.1,2.3,4.6c3.5,6,7.6,11.7,12.2,16.9c3.9,4.5-1.8,12.7-8.1,7.5c-7.6-8.5-13.6-18.4-17.7-29.1c0,0-1-3.4-0.2-4.6
			C863,224.5,864.1,223.3,865.5,222.2L865.5,222.2z"/>
	</g>
</g>
</svg>
