<svg id="Layer_1" data-name="Layer 1" xmlns="http://www.w3.org/2000/svg" xmlns:xlink="http://www.w3.org/1999/xlink" viewBox="0 0 210 210">
  <defs>
    <style>
      .cls-1 {
        fill: none;
      }

      .cls-2 {
        fill: #13354c;
      }

      .cls-3 {
        fill: #f2f2f0;
      }

      .cls-4 {
        fill: #1e5e82;
      }

      .cls-5 {
        opacity: 0.37;
      }

      .cls-6 {
        clip-path: url(#clip-path);
      }

      .cls-7 {
        clip-path: url(#clip-path-2);
      }

      .cls-8 {
        fill: #fff;
      }

      .cls-9 {
        fill: #4092b5;
      }

      .cls-10 {
        fill: #57c4ea;
      }

      .cls-11 {
        fill: #a2aeb5;
      }

      .cls-12 {
        fill: #d7dbdc;
      }

      .cls-13 {
        fill: #347999;
      }

      .cls-14 {
        fill: #ced4d6;
      }

      .cls-15 {
        fill: #4b6577;
      }

      .cls-16 {
        fill: #68a9c5;
      }

      .cls-17 {
        fill: #456072;
      }
    </style>
    <clipPath id="clip-path">
      <rect class="cls-1" x="111.3" y="140.96" width="14.78" height="21.56"/>
    </clipPath>
    <clipPath id="clip-path-2">
      <rect class="cls-1" x="111.3" y="140.96" width="14.78" height="21.56"/>
    </clipPath>
  </defs>
  <title>1</title>
  <g>
    <path class="cls-2" d="M204.22,151,173.1,116.43c-.78-2.91-2.9-6.23-5.23-5.59-.27-.41-.55-.81-.78-1.14A40.17,40.17,0,0,1,168.7,102a11.45,11.45,0,0,0,8.75,9.12s-4.26-12.22,1.31-21.35c2.31-2,10.49-10.57,14.51-32.59,2.93-16.11-4.7-28.19-9.51-34-5.66-6.78-12.93-11.63-18.08-12.14-2.27-1.63-15.23-8.38-27-7.32-2.18.19-4.34.13-6.4.43-25.44,3.73-34.46,27.23-34.15,30.6C95.81,39.9,95.57,45.12,95.39,49c-.08,1.81-2.5,10.12-2.2,15.17.27,4.59-2,9.36-2.46,10.27l0,0c-4.57,12.15,1.14,39.57,2.51,40.28.38.19,16.26,2.7,17.63,6.93-1.12.81-21.7,13.32-21.7,13.32s-7.4,8.17-10.2,11.86A72.53,72.53,0,0,1,56.57,135l-1.83,1.77c-2.46-1.62-4.23-2.88-5.2-3.62,1.38-7.5.62-9.69-.4-11.23-2.71-4.1-.93-10.73-.93-10.73s-7.08-3.3-10.38-1a9.83,9.83,0,0,0-3.37,3.76,3.09,3.09,0,0,1-2.07,1.64c-3.36-1.41-8.93-3.77-14-6-7.84-3.46-12.71-.59-13,2.68-.14,2,2.42,3.37,4.54,4.23a3.36,3.36,0,0,0-.39,2.77c.8,3.89,3,6,6.37,8.12a16.47,16.47,0,0,0,.31,3.93c-2.05,2.52-1.46,10-.66,12s2.91,4.3,12.94,6.53c4.28,1,10.37,1.92,10.48,2l-4.22,4,44.09,27.31c-1.43.58-2.54,1.12-3,1.36-11.81,1.27-9.5,8.41-8.93,9.62-.55,2.59-.09,6.56,3.42,8.07a14.08,14.08,0,0,0,3.9.62c3,2.28,8.07.55,9.27.29,3.09,1.51,18.75,1.51,25.17.13a15.65,15.65,0,0,0,3.07,2.32c.34,0,60.24.5,62.56.5h0c7.59,0,5.81-7.26,5.52-8.77,21.57-34,21.57-36.36,21.57-37.28,0-1.32,2.73-9,2.73-9"/>
    <path class="cls-3" d="M104.25,60.24a.83.83,0,0,0,.08-.12l-.08.12"/>
    <path class="cls-3" d="M174.27,72.26c-2.9-7-9.29-2.05-9.29-2.05s-3.3,5.64-12.2,3.7c3.21-.77,6.92-8.35,6.92-8.35s-8.65,3-13-.61c19.89.25,10.85-29.51,1.09-37.18a65.16,65.16,0,0,1,12.29-9.52l-14.47,8.31s-34.65.1-43.64,9c-3.9,3.85-3.07,16.78-3.06,16.87l0,.1a24.7,24.7,0,0,0-1.42,3.88,5.06,5.06,0,0,1,1.76-1.66,2.42,2.42,0,0,1-.38-1.49s2.11.6,3,.14c-.26.13-1.53-3-1.1-4.68,1.07,3.25,5,4,5,4a7,7,0,0,1,1,5c-.16.71-1,2.31-3.57,5.94a66.62,66.62,0,0,0-4.43,6.7,3.51,3.51,0,0,0,.61,3.06l5.12,6.92c-1.26,1-5.63,3.05-10.46,9a8.08,8.08,0,0,1-3.08,2.34,8.61,8.61,0,0,0,0,1.29c.1.69,1.77,17.6,3.84,18.66.12,0,.51.17,1.09.34-1.93-1.06-3.66-5.33,4.61-6.61,9-1.39,11.25,2.93,18.91,5.38,7.48,2.38,10.6-7.55,6-11.09,4.85-2,23.65-.16,25.81-1,2.46-1,5.72-.5,6.8-11.13.52,2.35,1.24,3.72,2.35,4.39a8.2,8.2,0,0,1-2.06-4.29c5.4,12.53,19.67-6.54,16-15.38"/>
    <path class="cls-3" d="M31.57,119.21c.1,0,1.21,3,.51,4.68-.86,2.1-3.29,4-7.21,5.61a12.3,12.3,0,0,0-1.56-.33,4,4,0,0,0-3.61,1.47c-.36-1.85-.79-5.69,1.64-6.53,1.4-.48,9.37-5.18,10.23-4.9"/>
    <path class="cls-3" d="M13.23,118.09c3.22,1.34,6.78,2.69,10.14,3.92-1.12.57-2,1-2.36,1.14a3.42,3.42,0,0,0-2.05,1.9c-2.13-1.16-6.79-4.38-5.73-7"/>
    <path class="cls-4" d="M107.91,158.51c.19.92,1.23,6,2.26,9.12a105.79,105.79,0,0,0,10-5.93,21.78,21.78,0,0,0-1.73-9.14c-1.11-.13-4.53-.57-6.11-1.5a41.18,41.18,0,0,0-4.39,7.45"/>
    <path class="cls-4" d="M112.5,137.32c-.49,5.59-.59,11.94.08,12.59.82.79,4.16,1.38,6.16,1.58.58-.25,3.92-1.9,7.4-8.27l-4.8-13.43Z"/>
    <g class="cls-5">
      <g class="cls-6">
        <g class="cls-7">
          <path class="cls-8" d="M118.83,162.52l1.25-.82a21.78,21.78,0,0,0-1.73-9.14c-1.12-.13-4.54-.56-6.11-1.5-.23.32-.56.78-.94,1.34,1.7-.16,8.55.33,7.53,10.12"/>
          <path class="cls-8" d="M125.27,141c-5.13,11.53-11.68,8.53-13.19,6.37a5.59,5.59,0,0,0,.44,2.58c.82.79,4.15,1.38,6.15,1.58.58-.25,3.92-1.9,7.41-8.27Z"/>
        </g>
      </g>
    </g>
    <path class="cls-9" d="M95.25,152.13a46.7,46.7,0,0,0,13.26,17.63l.52-1.13a57,57,0,0,1-2.53-27.38A32.23,32.23,0,0,1,111,125.9a54.77,54.77,0,0,0-14.21,18.34l4.11,1.58Z"/>
    <path class="cls-2" d="M124.05,87.47c5.1,4.21,18.36,6.11,22.67-3.55C143,94.15,126.56,95.49,121.33,91a79.28,79.28,0,0,0-14.68-9.69c-1-.64,1.18-3,2.82-2.51,3.18,1,7.49,2.79,14.58,8.63"/>
    <path class="cls-2" d="M94.64,90.09A15.29,15.29,0,0,1,102,83.74a2.18,2.18,0,0,0,3.52-.36c1,.28,6.54,1.43,13.58,7.48-3.4-1.42-8-4.3-14.77-4.45s-9.68,3.68-9.68,3.68"/>
    <path class="cls-2" d="M107.27,78.15c1.64.09,6.63,1.12,8.87-1.87,2.2-3.49-2-6.41-3.65-6.38,1.64-.7,7.09,2.06,4.53,6.82-1.76,3.28-8.18,1.89-9.75,1.43"/>
    <path class="cls-2" d="M112,77s1.57-1.25-1.12-2.19-4.65-.09-4.45.53,3.1,2.31,5.57,1.66"/>
    <path class="cls-2" d="M148.56,51.09s-7.72-5-10.14-3.69-16.85,9.94-22.13,7.22A16.34,16.34,0,0,0,124,40.87s2.48,2.91,1,8.41a9.88,9.88,0,0,0,3.28-7.78,7.7,7.7,0,0,1,1.05,4.83c3.28-2,7-4,9.06-5.23A7.35,7.35,0,0,1,145.18,44a7.34,7.34,0,0,0-2.52-.39,29.91,29.91,0,0,1,5.9,7.52"/>
    <path class="cls-3" d="M45.86,134.15c0-.31,2-8.15.64-10.06a11.23,11.23,0,0,1-2.19-6,28.94,28.94,0,0,1-.05-4.9c-1.9-.76-3.49-.79-4.72-.08-1.84,1-2.49,3.45-2.68,4.42,3.14,1.31,5.25,2.21,5.25,2.21S46,122,42.74,126c-1.88,2.34-6,.61-6,.61s-1.65-.53-4.23-1.4c-1.08,1.75-3.12,3.33-6.09,4.71h0c1,.28,2.08.53,2.6.64,1.47.33,3.95,2.72,3.06,4.77s-4.12,2.36-5.41,2.3l-.29,1.73c-.05.25-1.05.11-1-.16l.28-1.68a6.74,6.74,0,0,1-1.93-.64c-.25-.12.21-1,.46-.9,1.83.94,6.56.56,6.92-1,.93-3.81-7.29-4.78-8-4.86-1.26-.16-4,1.62-4.69,4.24,0,0-.29,5.93.35,7.51,1.75,4.35,21.17,6.23,21.24,6.24s2.16,1.83,3.27,2.88l10.93-10.5c-8.37-5.39-8.4-6.12-8.42-6.4m-8.78,1.64c-3.44-3.89-2.11-7.68-2-7.84s1,.08.95.34-1.17,3.41,1.86,6.83c.19.21-.66.79-.76.67"/>
    <path class="cls-2" d="M122.06,59.12c6.05-5.6,15.53-1.31,16.14-.26-9.11-4.56-16.14.26-16.14.26"/>
    <path class="cls-2" d="M138.4,60.37a4.21,4.21,0,0,1-1.8-.74,9.66,9.66,0,0,0-5.91-1.54c-8.08.08-10.88,3.51-10.88,3.51A17.74,17.74,0,0,0,127,62.84a37.84,37.84,0,0,0,8.15-.94c2.34-.52,8.13-1.09,8.13-1.09Z"/>
    <path class="cls-8" d="M132.25,59.91c0,.43-.77.79-1.72.79s-1.72-.36-1.72-.79.77-.79,1.72-.79,1.72.35,1.72.79"/>
    <path class="cls-2" d="M99.33,73.43a3.51,3.51,0,0,1-.61-3.06,66.62,66.62,0,0,1,4.43-6.7c2.57-3.63,3.41-5.23,3.57-5.94a7,7,0,0,0-1-5s-3.92-.76-5-4c-.43,1.66.84,4.81,1.1,4.68-.86.46-3-.14-3-.14a2.42,2.42,0,0,0,.38,1.49,5.08,5.08,0,0,0-2.5,5.15c1.14-2.16,7.07-4.74,9.56-3-.32.59-.86,1.48-1.49,2.47-3-1.28-6.63,1.05-8.52,2.56a.64.64,0,0,0-.09.24c1.92-1.32,5.15-2.83,8-1.93l-.06.1c-1.76.43-5.87,1.66-8.38,4.16a14.12,14.12,0,0,0,5.27.36c-1.64,2.35-2.91,4.41-3.31,5.15-1.38,2.57,3.55,7.37,4.22,8.18h-.07c-2.43.37-5.2,2.15-9.86,7.86-3.32,4.07-8.61,7.85-11.68-1.16C83,94.44,90.69,93.47,94,89.38c4.83-6,9.2-8,10.46-9Zm5-13.31a.83.83,0,0,1-.08.12l.08-.12"/>
    <path class="cls-8" d="M102.52,62.43c0,.34-.47.62-1,.62s-1-.28-1-.62.47-.63,1-.63,1,.28,1,.63"/>
    <path class="cls-2" d="M100,91.14c-.3.12,1.72-1.89,5.16-1.52s3.4,2.61,3.4,2.61-2.25-1.76-3.58-1.82a15.38,15.38,0,0,0-5,.73"/>
    <path class="cls-2" d="M164.73,75.09s3.54-4.64,7.16-2,1,8.6,1,8.6,1.53-6-1.8-7.48-6.38.9-6.38.9"/>
    <path class="cls-3" d="M107.39,157.25a54.62,54.62,0,0,1,.08-15.76l3.75-3.19c-.24,3.5-.47,10.08.41,12a50.34,50.34,0,0,0-4.24,7"/>
    <path class="cls-3" d="M114.61,197.83a6.35,6.35,0,0,0-1.43.19,5.18,5.18,0,0,0,1.13-2.64.51.51,0,0,0-1-.06c0,.2-.47,4.92-9.2,4.92H86.48c-.12,0-2.79,0-2.79-2.19s7.87-6.17,14.67-6.81a.51.51,0,0,0-.1-1,31,31,0,0,0-6.55,1.44c-.21-1-1-4.16-3.12-4.81l-.08-.53c-5.09.8-11.68,4.45-13.84,7.64a4.64,4.64,0,0,0-.28,5.43c-5.48-.26-4.1-4.6-3.41-6.08,1.25-2.68,7.86-7.58,14.39-8.6,5.53-.87,18.87.36,20.49.52H121a38.72,38.72,0,0,1-6.36,12.58"/>
    <path class="cls-3" d="M121.15,161.51a24.82,24.82,0,0,0-1.5-9.29c1.36-.83,4.16-3,7-7.73.77,1.92,1.36,3.19,1.53,3.14a78.4,78.4,0,0,0,18.19-7,167.63,167.63,0,0,1-25.2,20.9"/>
    <path class="cls-3" d="M75.51,194.54c1.37-2,4.8-4.3,8.35-5.78,2.19,1,2.7,3.86,2.82,5.09-2.38,1.33-4,2.83-4,4.2a3,3,0,0,0,.44,1.61c-2.79.65-6.77,1-7.59-.43l-.08-.11s-1.79-1.84.06-4.58"/>
    <path class="cls-3" d="M69.44,190a.88.88,0,0,1,.51-.69,9.57,9.57,0,0,1,2.74-.58c.46-.06,1-.12,1.47-.21a14.8,14.8,0,0,0-4,4.23,5,5,0,0,1-.7-2.75"/>
    <path class="cls-3" d="M122.24,129.57c2.52,7.8,5.46,15.84,6.42,16.83a71.38,71.38,0,0,0,19.09-7.78c.08-.07,13.91-11.92,18.19-24.66l-1.67-2.29c-7.51,14.61-34,19.34-42,17.9"/>
    <path class="cls-3" d="M113.22,124.33a32.76,32.76,0,0,0-5.72,15.81L120.56,129c-1.22-.69-4-2.34-7.34-4.68"/>
    <path class="cls-9" d="M167.19,114.43c-9.66,24.79-46.62,49.06-54.48,53.6l33.13-1.41.64-10.7c0-.25,16.07-1.64,16.07-1.64,1-3.08,9-27.64,7.44-36-.85-4.37-2.65-3.9-2.8-3.82"/>
    <path class="cls-9" d="M199.81,152.1l-28.22-32.27c.63,10.34-8.16,35.49-8.16,35.49l-15.85,1.56-.74,10.68-36.7,1.29-6.36,14.77L121,184a4.93,4.93,0,0,0,.17-2.12c3.94.64,27.81-2.36,36.13-7.4,0,0,1.1-.15,1.67-.15,3.84-8.47,8.17-15.94,15.13-22.19-1.75,1.56-9.46,12.45-13.23,22.16.38,0,9.51.39,13.79,5.15a21.55,21.55,0,0,0-13.37-4.1c.37.14,8,3,10,9.71-2.59-5-9.59-8.9-14-9.29a92.41,92.41,0,0,1-34.62,7.07c-2,8.19-7.71,16.59-9.82,18.89l56.89.31c2.09.45,5.6,1.2,6.34.11s-.09-5.37-.09-5.37,22-34.66,22.07-36.48a34.51,34.51,0,0,1,1.77-8.23"/>
    <path class="cls-2" d="M114,178.54a3.37,3.37,0,1,1,3.37-3.37,3.37,3.37,0,0,1-3.37,3.37"/>
    <path class="cls-3" d="M114,172.81a2.36,2.36,0,1,0,2.36,2.36,2.36,2.36,0,0,0-2.36-2.36"/>
    <path class="cls-9" d="M94,152l5.51-5.76-4.13-1.4a50.28,50.28,0,0,1,9.89-15l-13.92,7.85c-.76.84-9.63,11.2-11,13.62l3.1,13.38L79.36,151a73.12,73.12,0,0,1-22.58-11.4A128,128,0,0,1,40.6,155.28c4.81,2.84,40.29,24,40.29,24l3.4-4.58h2.88c-.09-16.23,2.15-23.17,2.62-25.29a208.71,208.71,0,0,0-1.62,25.29h2.55l3.4,4.58-1.77,4,10.18.43,5.07-13.1C97.09,161.81,94.07,152.09,94,152"/>
    <path class="cls-2" d="M87.66,189.75a4,4,0,0,1-2.42-1l-4.35-9.5,3.4-4.58h6.43l3.4,4.58s-4,9-4.25,9.38a2.84,2.84,0,0,1-2.21,1.11"/>
    <path class="cls-10" d="M85.94,188.07a2.93,2.93,0,0,0,1.72.7,2,2,0,0,0,1.41-.68c.19-.33,2.41-5.29,3.93-8.71l-2.77-3.72H84.78L82,179.38Z"/>
    <path class="cls-8" d="M127.37,59.34a3.85,3.85,0,0,0-.68,2.17,3.29,3.29,0,0,0,0,.54,14.11,14.11,0,0,1-4.68-.81,11,11,0,0,1,5.31-1.9"/>
    <path class="cls-8" d="M134.38,61.15a3.82,3.82,0,0,0-.5-1.56,11,11,0,0,1,2.47,1.07c-.12,0-.86.23-2,.49"/>
    <path class="cls-8" d="M97.8,64a6.62,6.62,0,0,1,.62-.46q.09.27.21.54c-.27,0-.55,0-.83-.08"/>
    <path class="cls-11" d="M160.21,91.83c-1-.69-1.75-2-2.26-4.26-1.07,10.63-4.29,10.12-6.75,11.1-2.16.87-21-1-25.81,1,4.64,3.54,1.52,13.47-6,11.09-7.66-2.44-9.93-6.77-18.91-5.38C92.25,106.68,94,111,95.91,112l2.35.68c2.43.65,4.48,1.31,6.22,2,3.92,1.36,7.84,3,9.13,4.76s.26,3.25.09,4c.4.33,1.12.91,2.12,1.61,3.83,2.59,7.69,3.44,14.36,3,15.62-1,27.66-9,30.46-12.63,1-1.42,2.89-3.25,3.16-6.65.56-7.19,4.6-15,5-15.61-.22-1.23-.3-1.78-.39-2.51-1.9,2-5.67,3.71-8.17,1.2"/>
    <path class="cls-11" d="M156.91,120c-8.59,6.39-21.2,9.39-29.26,9.85a28.26,28.26,0,0,0,9.94,2c11,.37,16.36-5.59,19.32-11.86"/>
    <path class="cls-12" d="M117,72.11c1.74,3.37-.08,7.31-6,6.72,4.84,1.5,10.1,5.78,10.1,5.78s4.82,6,11.22,6c-4.77-1-9.95-13.28-15.29-18.47"/>
    <path class="cls-12" d="M104.81,59.37c.63-1,1.18-1.88,1.49-2.47-2.48-1.76-8.35.78-9.54,2.94-.08.6-.14,1.22-.17,1.86,2-1.51,5.34-3.55,8.22-2.33"/>
    <path class="cls-12" d="M104.25,60.24a.83.83,0,0,1,.08-.12.44.44,0,0,0-.08.12"/>
    <path class="cls-12" d="M101.91,78.2H102c-.68-.81-5.6-5.61-4.23-8.17.4-.75,1.67-2.81,3.31-5.16a15.65,15.65,0,0,1-4.39-.14,18.29,18.29,0,0,1-2.49,10.51c-.09.18-1.67,6.23-2.61,11.39.16-.18,7.91-8.05,10.33-8.42"/>
    <path class="cls-12" d="M104.25,60.24c-2.71-.84-5.72.43-7.66,1.68,0,.61,0,1.23,0,1.85a20.87,20.87,0,0,1,7.56-3.43l.07-.1"/>
    <path class="cls-12" d="M95.72,97.12c-.27.26,2.37-7,8.56-6.52s9.26,8.55,9.26,8.55-5.92-5.82-9.26-5.91-5.65,1.17-8.56,3.88"/>
    <path class="cls-11" d="M163.5,71.87l.1-.09-.08.06,0,0"/>
    <path class="cls-11" d="M147.9,27.88c-.53.49-1.06,1-1.59,1.52,7.45,5.86,14.48,24.58,8.55,33,8.35-7.29,1-28.13-7-34.52"/>
    <path class="cls-11" d="M153.6,74.07a5.26,5.26,0,0,1-2.28,1.47c8.57,1.87,11.94-3.29,12.18-3.67-1.65,1.41-4.79,3.09-9.9,2.2"/>
    <path class="cls-11" d="M145.6,26.56s-34.65.1-43.64,9c14.83-7.65,42.17-7.34,42.17-7.34s14.86-9.31,15.94-9.94Z"/>
    <path class="cls-11" d="M159.71,65.56s-6.12,2.09-10.67.63a15.48,15.48,0,0,1-3.82.39c4.37,3.56,13,.61,13,.61a35.48,35.48,0,0,1-3.38,5.44c2.54-2.37,4.85-7.07,4.85-7.07"/>
    <path class="cls-11" d="M171.11,74.19c-3.14-1.44-6,.63-6.35.88,0,0,3.31-1.56,5.66-.11,3.11,1.93,2.49,6.71,2.49,6.71s1.53-6-1.8-7.48"/>
    <path class="cls-13" d="M84.13,171c-2.08,1.65-8.19,5.3-8.19,5.3l4.94,2.95,3.41-4.58h2.88c-.09-16.23,2.19-23.09,2.65-25.21A109.25,109.25,0,0,0,84.13,171"/>
    <path class="cls-14" d="M34.94,131.76A7.13,7.13,0,0,1,35,128c.06-.18.53-.07.79.1a8.14,8.14,0,0,0,2.28-.33,1.78,1.78,0,0,0,.91-.53,9,9,0,0,1-2.26-.57s-1.65-.53-4.23-1.4c-1.08,1.74-3.12,3.32-6.1,4.7h0c1,.29,2.07.53,2.6.65,1.46.32,4,2.72,3,4.77s-4.12,2.36-5.41,2.29l-.3,1.74a44.21,44.21,0,0,0,10.67-3.59,7.28,7.28,0,0,1-2.14-4"/>
    <path class="cls-14" d="M21.21,123.07c.43-.18,1.21-.57,2.16-1.06-3.36-1.23-6.92-2.58-10.14-3.92a2.3,2.3,0,0,0,0,1.78Z"/>
    <path class="cls-14" d="M121,185.25h-2.42c-2.28,3.64-7.34,11-13.27,15,7.6-.4,8-4.7,8-4.89a.51.51,0,0,1,1,.06,5.08,5.08,0,0,1-1.13,2.64,6.44,6.44,0,0,1,1.43-.19A38.72,38.72,0,0,0,121,185.25Z"/>
    <path class="cls-13" d="M94,152l5.51-5.76-4.12-1.4a49.92,49.92,0,0,1,8.5-13.52l.1-.06c.42-.48.87-1,1.33-1.45l-.1.05s0,0,0-.05l-13.88,7.85c-.08.1-8,9.39-10.22,12.49L92.08,138.4l8.56-5.13a46.72,46.72,0,0,0-6.88,12.06l3.66,1.4-5,5.27a47.3,47.3,0,0,0,14.75,19.8l.44-1.23C97.05,161.81,94,152.09,94,152"/>
    <polygon class="cls-13" points="171.28 119.69 171.28 119.69 172.22 120.74 171.28 119.69"/>
    <path class="cls-13" d="M158.09,173a15,15,0,0,0-1.66.17c-8.29,5.09-32.13,8.27-36.08,7.65a4.87,4.87,0,0,1-.16,2.13l-13.75-.23,5.06-12,36.69-1.56.67-10.68,15.83-1.68s7.11-22,7.87-33.72l-1.25-1.43c-.31,11.24-7.92,33.56-7.92,33.56l-15.84,1.68-.66,10.68-36.69,1.56L104,184l17.88.29a5,5,0,0,0,.15-2.13c4,.62,27.79-2.56,36.08-7.66a15.86,15.86,0,0,1,1.66-.16c3.24-7.3,6.18-13.85,11.5-19.54A59.86,59.86,0,0,0,158.09,173"/>
    <path class="cls-14" d="M114.28,176.85a2.05,2.05,0,0,1-2-2,2,2,0,0,1,.24-1,2,2,0,0,0-.56,1.4,2,2,0,0,0,3.86.95,2,2,0,0,1-1.49.65"/>
    <path class="cls-11" d="M123.67,44.22A6.55,6.55,0,0,0,122.6,42a16.05,16.05,0,0,1-5.29,11.89,16.72,16.72,0,0,0,6.36-9.71"/>
    <path class="cls-11" d="M125.17,48.64c0,.21-.08.42-.14.64A10.27,10.27,0,0,0,127.82,45a7.12,7.12,0,0,0-.92-2.33,9.62,9.62,0,0,1-1.73,6"/>
    <path class="cls-11" d="M138.42,47.4c-2.36,1.24-16.59,9.78-22,7.28a14.49,14.49,0,0,1-1.55,1.11c5.28,2.72,19.75-6,22.13-7.22s10.14,3.68,10.14,3.68a28.28,28.28,0,0,0-2-3.11c-2.38-1.23-5.39-2.46-6.74-1.74"/>
    <path class="cls-15" d="M168.07,29.45a62.85,62.85,0,0,1,10,22.77c3.13,13.92,3,14.84,3,14.84s6-25-13-37.61"/>
    <path class="cls-15" d="M172.83,28.44a52.29,52.29,0,0,1,8.32,18.94c2.6,11.58,2.52,12,2.52,12s5-20.47-10.84-31"/>
    <path class="cls-15" d="M178.4,31a32.43,32.43,0,0,1,5.18,11.79c1.63,7.21,1.57,7.69,1.57,7.69s3.1-12.93-6.75-19.48"/>
    <path class="cls-15" d="M145.83,19.14s-18.75-1-33.87,3.59c16.59-5.33,25-6.14,33.87-3.59"/>
    <path class="cls-15" d="M146.79,16.78s-16.38-.89-29.59,3.14c14.5-4.66,21.87-5.36,29.59-3.14"/>
    <path class="cls-15" d="M149.57,14s-13.74-.75-24.81,2.63c12.16-3.91,18.33-4.5,24.81-2.63"/>
    <path class="cls-16" d="M171.31,121.67l27.88,31.89c.21-.8.41-1.45.55-1.81l-28.46-32.06a18.27,18.27,0,0,1,0,2"/>
    <path class="cls-16" d="M161,174.27c4.56-11.58,11.41-21.55,14.36-23.56-6.1,7.45-8.58,13.76-12.17,23.61Z"/>
    <path class="cls-16" d="M163.21,175.79s9.5-.5,13.44,6.41c-4.07-3-7.5-5.23-13.44-6.41"/>
    <path class="cls-16" d="M123,183.08c-1.92,8.21-7.59,16.65-9.68,19h3.43c4.23-6.94,6-15,6.59-18.95H123"/>
    <path class="cls-16" d="M168.23,114.61a1.16,1.16,0,0,0-1-.18c-9.66,24.79-46.62,49.06-54.48,53.6l3.23-.14c40.58-26.32,50.48-48.29,52.29-53.28"/>
    <path class="cls-16" d="M106.5,141.25A32.23,32.23,0,0,1,111,125.9c-4.13,4.79-5.35,14.63-5.36,15.35a46.24,46.24,0,0,0,1,26.89l1.83,1.62.52-1.12a57.09,57.09,0,0,1-2.53-27.39"/>
    <path class="cls-16" d="M79.36,151a73.12,73.12,0,0,1-22.58-11.4A128,128,0,0,1,40.6,155.28l1.08.64c2.9-2.2,10.89-8.48,15.51-14,0,0,13.86,8.47,21.19,10.43.33,1.31,5.13,12.32,5.13,12.32Z"/>
    <path class="cls-17" d="M34.43,119.89c-4.22-1.63-17.51-5.64-22.64-9-2.28-1.49.46-1.86,4.76-.78s19.46,7.69,21.63,8.5c2.54.94,1.3,3.21-3.75,1.25"/>
    <polygon class="cls-8" points="90.77 188.7 90.1 178.84 80.26 177.94 90.12 177.26 91.02 167.43 91.7 177.28 101.53 178.19 91.68 178.86 90.77 188.7"/>
    <path class="cls-14" d="M49,81.37a10.84,10.84,0,0,0-4.65-9c-9.6-6.12-20.85-8.88-26.06-15.64-7.18-9.31,7.36-17.61,7.36-17.61,4.67,13.54,26.27,6.76,29.57,7.11,1.64.2,5.37,1.08,9.59,6.53a15.3,15.3,0,0,0-10-8.47c-3.85-1-17.86-.57-22.07-2.88C30.22,39.92,27,31.81,27,31.81S13.05,34.49,9.64,48.09C7.91,55,13.3,61.45,22.71,67S41,76,41.3,77.75c1,6.16-6.16,12.36-13.32,12.32C27.87,89.68,22.65,73,22.65,73s-5.52.23-8.08,3c-1.43,1.56-1.76,4-2,6.14s-.1,10.47-.75,11.74a2.6,2.6,0,0,0-2.43,1.63c-.53,1.07-6.22,5.47-1.89,11.6-1-2.46,2.18-11,5.24-10.55.85.13,2,.55,2.55-2.86s.68-7.64,1-9.46,1.46-4.69,3.4-5.23c.43,1.64,3.16,14,3.49,15.66C33.7,99,48.74,92.34,49,81.37"/>
    <path class="cls-9" d="M43.34,73.82c-4.11-4.11-24.78-11.44-28.19-17.74-1-1.91-2.6-8,3.3-14.52a20.86,20.86,0,0,1,7.42-4.92c3.17,5.17,7,8.11,9,8.76s16.77-.32,20.23.14c3.22.43,4.05.31-.13-.62-3.67-.81-16.75.41-20.2-1-3.71-1.48-8.41-9.7-8.41-9.7s-7.11,3.07-9.56,5.43a14.77,14.77,0,0,0-3.54,16.66c4.24,8.09,25.27,16,28.71,19.74,6.29,6.72-5.53,18-15.35,15.74-.25-1.08-4.82-16.87-4.82-16.87s-4.16.28-5.91,2.36c-2.79,3.33-2.18,9.78-2.25,11.88s-.2,4.12-1.13,5.49A2.17,2.17,0,0,0,10,95.91c-.37,1-4.4,4.85-2.77,10.13-.51-3.78,2.92-8.9,3.29-9.72S13,95.37,13,95.37c1.2-1.47,1.38-3.66,1.57-5.71s.16-8.8,2.49-11.09a6.13,6.13,0,0,1,3.75-1.77c.7,2.45,3.91,14.91,4.17,16.51,11.82,4.48,28.08-9.77,18.35-19.49"/>
  </g>
</svg>
