<?xml version="1.0" encoding="utf-8"?>
<!-- Generator: Adobe Illustrator 23.1.1, SVG Export Plug-In . SVG Version: 6.00 Build 0)  -->
<svg version="1.1" id="Layer_1" xmlns="http://www.w3.org/2000/svg" xmlns:xlink="http://www.w3.org/1999/xlink" x="0px" y="0px"
	 viewBox="0 0 210 210" style="enable-background:new 0 0 210 210;" xml:space="preserve">
<style type="text/css">
	.st0{fill:#13354C;}
	.st1{fill:#F2F2F0;}
	.st2{fill:#4092B5;}
	.st3{fill:#FFFFFF;}
	.st4{fill:#1E5E82;}
	.st5{fill:#A2AEB5;}
	.st6{fill:#D7DBDC;}
	.st7{fill:#CED4D6;}
	.st8{fill:#347999;}
	.st9{fill:#4B6577;}
	.st10{fill:#68A9C5;}
	.st11{fill:#7199B0;}
</style>
<title>10</title>
<g>
	<path class="st0" d="M173.9,39c2.7-3.2,9.5-12.2,5.6-17c-0.6-0.7-1.4-1.1-2.3-1.3c1.5-4.1,1.4-6.9-0.3-8.5c-2-1.8-5.1-1.8-7.2-0.1
		c-0.8,0.7-1.5,1.6-2,2.5c0.7-2.7,1-5.5-1.5-6.8c-0.9-0.5-3.3-1.7-5.6-0.1c-4.8,3.5-5.5,11.5-5.8,16.1c-0.6,1.1-1.3,2.1-2,3.1
		c-1.6-7-8.6-11.3-12.4-8.7c-1.5,1.1-2.5,2.7-2.8,4.5c1,1.8,2.2,3.6,3.4,5.3c0.8,1,1.4,6.7,1.7,9.4c0.1,2.3,0.5,4.5,1.2,6.7
		c0.7,2,1.8,3.9,3.1,5.5c0,0.1-4.9-0.3-4.9-0.3l-3.7,30.3c-0.8-8-3.4-17.7-13.9-21.7c-6.4-5-16.4-9-31.8-3.7
		c-12.7,4.4-16.9,13.2-18.6,20.8l-4-23.5c-0.1-0.7-0.5-1.2-1-1.6c-0.5-0.4-1.2-0.5-1.9-0.4c0,0,1.6-3.8,2.3-5.6
		c0.5-1.3,2-15.1,2.8-16.1c0.3-0.3,3.3-3.4,3.5-4.4c0.1-2.3-1.1-4.4-3.2-5.5c-1.5-0.6-3.1-0.8-4.7-0.3c-4.2,1.1-6.5,5.8-7.4,9.2
		c-0.8-1-1.6-2.1-2.2-3.2c-0.1-1.2-0.2-2.6-0.3-3.2c0.9-5.7,0.5-9.4-1.2-11.6c-1.1-1.3-2.7-2.1-4.5-2.1c-2.8-0.3-4.1,4.1-4.8,6.6
		c-1.2-2-2.8-3.6-5.3-3c-1.7,0.5-3.1,1.7-3.7,3.4c-0.6,1.5-0.3,4.5,0.3,7.9c-1.7-1.8-4.6-0.5-5.3,0.4c-4,4.8,2.9,13.8,5.6,17
		c1.2,3.9,4,7.8,8.5,11.6c0.1,0.7,0.2,1.9,0.3,3.2l-4.4,0.9c-1.2,0.3-2,1.4-1.9,2.7c0.5,4.7,6.6,52.2,9.3,55.5
		c6.8,9.1,18.4,42.7,19.2,45c0.9,3.6,8.6,38.3,8.6,38.3c0.5,0.6,13,8.5,27.3,8.5s27.3-8.3,27.4-8.4c0.1-0.1,6.6-30.7,8-38
		s14.8-40.7,19.6-46c3.6-9.2,8.4-50.3,9-54.9c0.1-1.3-0.7-2.5-2-2.7l-3-0.6l0.2-3.4C169.8,46.9,172.8,42.9,173.9,39z"/>
	<path class="st1" d="M78.6,104.2c0.1-2.3,0.4-11.5,0.3-13.6c0.3-7.6,1.5-11.2,2.6-12.9c1.3,2,3.4,3.3,5.7,3.8
		c1.1,0.2,4.7,0.1,5.9-2.9c-2.6,1.8-5.2-0.8-5.4-2.3c-1-5.6,4.4-6,8.8-6.2c8.5-0.4,17.8,2.7,27-0.3c0.2-2.2,0.2-6.7,0.2-8.5l1.9,9.3
		c0,0,6.6,3.3,7.9,18.9l-0.3,7.5c0.4,3.7,0.6,7.5,0.7,11.2c-0.3,3.7-0.8,7.4-1.6,11c-2.3,5.9-5.7,11.3-10.2,15.8
		c-1.7,1.8-3.8,4.3-6.2,6.5c-1.9-0.3-3.9-0.5-5.8-0.6c-4.1-0.2-8.1-0.1-12.2,0.5c-0.9,0.2-1.9-0.3-2.3-1.1c-0.2-0.5-0.4-0.9-0.5-1.4
		c-0.1-0.5-0.3-0.5-0.2,0c0.1,0.5,0.2,1,0.3,1.4c-2.5-2.5-8.3-9.1-9-9.8c-1.6-1.7-2.9-3.6-4-5.7c-1-2.1-1.8-4.4-2.3-6.7
		C79.2,113.6,78.8,108.9,78.6,104.2z"/>
	<path class="st1" d="M106.5,148.4c4.5-0.4,10.9-7,15.1-11.7c1.1-0.9,2.2-1.9,3.1-3c-0.5,7-5,18.9-9.7,28.8
		C112.5,157.7,109.6,153,106.5,148.4z"/>
	<path class="st1" d="M105.3,148.4c-3.1,4.6-5.9,9.3-8.5,14.1c-4.9-10.1-9.7-22.2-9.9-29.5c1.1,1.6,2.5,3,4,4.2
		C95.1,141.7,101,147.7,105.3,148.4z"/>
	<path class="st1" d="M97.1,163.3c1-2.1,2.3-4.3,3.5-6.3c0.1,1.6,0.5,4.9,2.3,6.8c-1.4,1.3-2.5,3-3.1,4.9
		C99,167,98.1,165.2,97.1,163.3z"/>
	<path class="st1" d="M111.1,156.9c1.2,2.1,2.5,4.3,3.6,6.4c-0.9,1.9-1.8,3.8-2.7,5.5c-0.6-1.9-1.7-3.7-3.1-5
		C110.6,161.9,111,158.5,111.1,156.9z"/>
	<path class="st1" d="M50.2,49.2c-4.7-3.7-7.7-7.7-8.6-11.4c0-0.1-0.1-0.1-0.1-0.2c-1.2-1.2-8.6-10.5-5.8-13.8
		c0.1-0.2,0.4-0.3,0.6-0.2c1.6,0.1,4.8,4,6.9,6.9l0,0c0.4,0.5,0.7,1.1,1,1.5c0.1,0.2,0.3,0.2,0.5,0.1c0,0,0,0,0,0
		c0.2-0.1,0.2-0.3,0.1-0.5c-0.2-0.3-0.6-0.8-1-1.5c-2.9-10.1-3-14.4-2.7-15.3c0.3-0.8,0.9-1.4,1.7-1.7c0.7,0,1.3,0.3,1.7,0.8
		c1.2,1.4,1.6,2.9,2.3,5.5c0.3,1.1,1.2,3.9,1.4,4.8l0.1,0.3c0.1,0.4,0.2,0.9,0.4,1.3l0,0c0.2,0.7,0.5,1.3,1.1,1.7
		c0.2,0.1,0.4,0.1,0.5-0.1s0.1-0.4-0.1-0.5l0,0c-0.4-0.3-0.6-0.8-0.8-1.3c0-0.5,0-4.4-0.1-6.4c-0.1-2.8,2.1-9.2,2.9-9.6
		c0.9,0,1.8,0.4,2.4,1.1c1.2,1.5,1.4,4.7,0.6,9.7c0,0,0,0,0,0.1V21c0,1.2,0.2,2.4,0.3,3.7v0.1c0.4,0.8,3.8,7.4,6.8,6
		c0.2-0.1,0.2-0.3,0.4-1.1c0.5-2.2,1.7-8.1,5.7-9.1c0.9-0.3,1.9-0.3,2.8,0.1c0.8,0.6,1.4,1.6,1.5,2.6c-0.5,0.6-1.1,1.2-1.7,1.7
		L70,26c-1.5,1.5-2,6.6-2.5,11c-0.1,2-0.4,4-0.9,6c-0.8,2-1.9,4.3-3.4,5.5C63,48.7,63,48.7,64,52.4l-13.3,2.8l0,0
		C50.7,55.3,50.3,49.3,50.2,49.2z"/>
	<path class="st2" d="M167.2,57.4c-0.5,4.1-5.4,45.2-8.8,53.9c-7.6,10.3-19.5,45.6-19.6,45.8c-1.1,4-3.3,1.6-7.8,36
		c-0.1,0.7-0.2,1.3-0.2,1.5c-1.3,0.8-11.9,7.2-24.4,7.4v-22.6l11.4-3.9c-0.2,1.1-0.3,2.2-0.3,3.4c0,0.1,0,0.1,0,0.2
		c-1.6,0.2-2.8,0.3-3.4,0.3c-0.1,0-0.2,0.1-0.3,0.1c-0.1,0.1-0.1,0.2-0.1,0.3l0.7,3.4c0,0.2,0.5,0.3,0.5,0.3
		c4.1,0,17.1-1.6,17.1-2.6s-12.8,1.9-16.9,1.9l-0.6-2.7c3.5-0.2,17.3-1.9,18.2-2.3c1.9-0.8,2-5.6,1.4-8.7c-0.5-3.5-0.5-7.1,0.2-10.5
		c-2.1,0.8-4.2,1.7-6.2,2.7l-1.4-6.8c1.6-0.6,3.2-1.3,4.7-2l-5.6-20.1c1.9-2.4,3.7-5,5.3-7.6c0.9-1.7,1.7-3.5,2.3-5.3
		c1.4-4.9,2.6-13.3,1-19.1c2.7,0.9,5.7,0.5,8-1.2c-2-0.2-3.8-1.2-5-2.8l0.4-1c1.9-1.1,3.7-1.6,3.9-3.3c-0.9,0.1-1.7-0.3-2.3-0.9
		l0.9-2.8l4.2-35.9L167.2,57.4z"/>
	<path class="st1" d="M162.2,55.6l-13.3-2.9c0,0,0-0.1,0-0.1c1-3.9,1-3.9,0.8-4.1c-1.5-1.2-2.6-3.5-3.4-5.5c-0.5-2-0.8-4-0.9-6
		c-0.5-4.5-1-9.5-2.5-11c-0.3-0.3-2.5-2.5-2.7-2.8c0.1-1,0.7-2,1.5-2.6c0.9-0.4,1.9-0.5,2.8-0.1c4,1,5.2,6.9,5.7,9.1
		c0.2,0.8,0.2,1,0.4,1.1c2.9,1.5,6.8-6.1,6.8-6.1c0.2-1.6,0.6-11.5,4.7-14.5c0.9-0.7,2-0.1,2.8,0.3c1,0.5,0.3,3-0.3,5.2
		c-0.4,1.2-0.6,2.4-0.8,3.7c-0.1,2.1-0.1,5.3-0.1,5.7c-0.5,0.8-1,1.8-0.9,1.9c0.1,0.1,1.1-0.9,1.9-2.1c0,0,5.8-9.6,6.8-10.4
		c1-0.8,2.5-0.8,3.5,0c1.2,1,0.6,5.3-4.9,13.8c-1.1,1.4-2,2.8-2.5,3.6c-0.1,0.2,0,0.4,0.1,0.5c0.2,0.1,2.8-3.5,4.4-5.4
		c1.9-2.1,3.5-3.4,4.4-3.4c0.3,0,0.6,0.1,0.8,0.3c2.7,3.2-5.9,13.9-6,13.9c-0.9,3.7-4.1,7.6-8.8,11.3
		C162.5,49.2,162.2,55.6,162.2,55.6z"/>
	<path class="st2" d="M31.2,113l2.7,2.7c0.1,0.1,0.1,0.2,0.1,0.3l-0.7,3.8l3.4-1.8c0.1-0.1,0.2-0.1,0.3,0l3.4,1.8l-0.6-3.8
		c0-0.1,0-0.2,0.1-0.3l2.7-2.7l-3.8-0.5c-0.1,0-0.2-0.1-0.3-0.2l-1.7-3.5l-1.7,3.5c-0.1,0.1-0.2,0.2-0.3,0.2L31.2,113z"/>
	<path class="st2" d="M18.3,69.3l2.7,2.7c0.1,0.1,0.1,0.2,0.1,0.3l-0.6,3.8l3.4-1.8c0.1,0,0.2,0,0.3,0l3.4,1.8L27,72.3
		c0-0.1,0-0.2,0.1-0.3l2.7-2.7l-3.8-0.5c-0.1,0-0.2-0.1-0.3-0.2l-1.7-3.4l-1.7,3.4c-0.1,0.1-0.2,0.2-0.3,0.2L18.3,69.3z"/>
	<path class="st2" d="M5.8,167.7l16.1,6.1c0.5,0.2,0.9,0.6,1,1.2l4.1,16.7l10.8-13.4c0.3-0.4,0.8-0.6,1.4-0.6l17.1,1.3l-9.3-14.4
		c-0.3-0.4-0.4-1-0.2-1.5l6.5-15.9l-16.7,4.5c-0.5,0.1-1.1,0-1.5-0.3l-13.1-11.1l-0.9,17.2c0,0.5-0.3,1-0.8,1.3L5.8,167.7z"/>
	<path class="st2" d="M200.5,172l-14.7,5.6c-0.5,0.2-0.8,0.6-0.9,1l-3.7,15.2l-9.8-12.2c-0.3-0.4-0.8-0.6-1.3-0.5l-15.6,1.2
		l8.6-13.1c0.3-0.4,0.3-0.9,0.1-1.4l-5.9-14.5l15.1,4.1c0.5,0.1,1,0,1.3-0.3l12-10.2l0.8,15.7c0,0.5,0.3,0.9,0.7,1.2L200.5,172z"/>
	<path class="st2" d="M107.7,11.8l-1,8.9c0,0.1-0.1,0.2-0.2,0.2l-8,4.2l8.2,3.8c0.1,0,0.2,0.1,0.2,0.2l1.6,8.9l6.1-6.6
		c0.1-0.1,0.2-0.1,0.3-0.1l8.9,1.3l-4.4-7.9c0-0.1,0-0.2,0-0.3l4-8.1l-8.8,1.8c-0.1,0-0.2,0-0.3-0.1L107.7,11.8z"/>
	<path class="st2" d="M177.4,77.8l2.9,5.9c0.1,0.2,0.1,0.5,0,0.8l-3.2,5.8l6.5-0.9c0.3,0,0.5,0.1,0.7,0.3l4.5,4.9L190,88
		c0-0.3,0.2-0.5,0.5-0.6l6-2.8l-5.8-3.1c-0.2-0.1-0.4-0.4-0.4-0.6l-0.8-6.6l-4.7,4.6c-0.2,0.2-0.5,0.3-0.8,0.2L177.4,77.8z"/>
	<path class="st2" d="M71.4,43.1l2.7,1.9c0.1,0.1,0.2,0.2,0.2,0.3v3.3l2.7-2c0.1-0.1,0.2-0.1,0.3,0l3.2,1.1l-1.1-3.2
		c-0.1-0.1-0.1-0.2,0-0.3l2-2.7h-3.4c-0.1,0-0.2-0.1-0.3-0.2l-1.9-2.7l-1,3.2c0,0.1-0.1,0.2-0.2,0.2L71.4,43.1z"/>
	<path class="st2" d="M161.3,128l2.7,1.9c0.1,0.1,0.2,0.2,0.2,0.3v3.3l2.7-2c0.1-0.1,0.2-0.1,0.3,0l3.2,1.1l-1.1-3.2
		c-0.1-0.1-0.1-0.2,0-0.3l2-2.7h-3.3c-0.1,0-0.2-0.1-0.3-0.2l-1.9-2.7l-1,3.2c0,0.1-0.1,0.2-0.2,0.2L161.3,128z"/>
	<path class="st0" d="M102.9,134.4c0.8,0.7,1.9,1.1,3,1.2c1.1,0,2.2-0.5,3-1.2C107,135,104.9,135,102.9,134.4"/>
	<path class="st0" d="M114.7,117.2c-0.3,0-5.6,0.5-6.2,0.5c-0.5-0.1-1-0.2-1.4-0.4c0,0-0.4,0.9-1.1,0.9s-1.1-0.9-1.1-0.9
		c-0.4,0.2-0.9,0.3-1.4,0.4c-0.6,0-5.8-0.5-6.2-0.5c-2.5,0-8.6-0.4-8.6-0.4l2.4,3.5c1.4,2,3.2,8.8,5.4,9.7c3,1.3,6.2,2,9.5,2.2
		c3.3-0.2,6.5-0.9,9.5-2.2c2.2-1,4.2-7.8,5.6-9.7c0.7-0.9,2.2-3.5,2.2-3.5S117.2,117.2,114.7,117.2"/>
	<path class="st0" d="M122.8,112.1c5-0.5,9.5-3.3,9.5-7.9c0-2.8-3.9-6-6.9-2.5c1.7-4,8.7-1.5,8.8,3.1c0.1,6.5-5.4,9.2-10.8,9.6
		c-7.6,0.5-10.6-1-13.9,1c-0.8,0.5-1.2-2.4,0.1-3.1C112.8,110.6,116.1,112.4,122.8,112.1"/>
	<path class="st0" d="M113.7,107.6c0,0,3.4,1.3,4.4,3.9c0.5,1.4,3.1,1.2,4,1.1s4.4-0.8,5.4-0.5c2.1,0.7,1.5,3.2,0.4,5.6
		c-0.7,1.4-1.9,4.4-3.6,8.8c0.5-2.7,1.2-5.4,2.3-8c0.8-2.2,2.3-4.8,0.6-5.4c-1.1-0.4-3,0.1-5.1,0.5c-2.7,0.5-4.2-0.8-4.5-1.7
		C117,109.9,113.7,107.6,113.7,107.6z"/>
	<path class="st0" d="M102.4,111.5l0.3,0.2c0.2,0.1,0.5,0.3,0.9,0.4l0.6,0.3l0.7,0.3c0.2,0.1,0.5,0.2,0.7,0.2
		c0.2,0.1,0.5,0.1,0.7,0.1c0.1,0,0.2,0,0.3,0l0.3-0.1l0.7-0.3l0.7-0.3l0.6-0.3l0.9-0.4c0.2-0.1,0.6-0.2,0.6-0.2s-0.6,0.5-1.3,1
		c-0.4,0.3-0.8,0.5-1.2,0.8c-0.2,0.1-0.5,0.3-0.7,0.4c-0.1,0.1-0.3,0.1-0.4,0.1c-0.2,0-0.4,0-0.5,0c-0.3,0-0.6-0.1-0.9-0.2
		c-0.3-0.1-0.5-0.2-0.8-0.3c-0.2-0.1-0.5-0.2-0.7-0.4l-0.6-0.4c-0.3-0.2-0.5-0.4-0.8-0.7C102.5,111.6,102.4,111.5,102.4,111.5z"/>
	<path class="st0" d="M100,110c-1.6-1,0.1-4.9,1.1-6.3c-1.3,1.5-3.6,4.4-1.5,6.6c0.5,0.5,1.1,0.5,2.9,1.2L100,110"/>
	<path class="st0" d="M112.7,110c1.6-1-0.1-4.9-1.1-6.3c1.3,1.5,3.6,4.4,1.5,6.6c-0.5,0.5-1.1,0.5-2.9,1.2L112.7,110"/>
	<path class="st0" d="M98.9,108.2c-1.2,0.9-2,2.1-2.4,3.5c-0.6,1.4-3.4,1.2-4.3,1.1c-0.9-0.1-4.8-0.9-5.8-0.5
		c-2.3,0.8,0.8,8.5,2.7,13c-0.2-2.3-4.1-11.4-2.3-11.9c1.2-0.4,3.2,0.1,5.5,0.5c3,0.5,4.6-0.8,4.9-1.7
		C97.6,110.7,98.2,109.4,98.9,108.2z"/>
	<path class="st0" d="M101.2,92.6c-3.1-2-3.4-4.5-3-8c-1.5,0.9-2.6,2.4-2.9,4.1c-1.2-1.2-2.2-2.6-2.9-4.1c-0.7,0.8-1.1,1.8-1.1,2.8
		C86.8,84,78.5,86,81.3,92c-0.7-4.1,5.2-3.9,8.3-2.6C94.4,91.5,99.4,94.3,101.2,92.6"/>
	<path class="st0" d="M111.2,92.6c3.1-2,3.4-4.5,3-8c1.5,0.9,2.6,2.4,2.9,4.1c1.2-1.2,2.2-2.6,2.9-4.1c0.7,0.8,1.1,1.8,1.1,2.8
		c4.5-3.4,12.9-1.4,10.1,4.7c0.7-4.1-5.2-3.9-8.3-2.6C118,91.5,113,94.3,111.2,92.6"/>
	<path class="st0" d="M116.3,92.6c0.7,0.7,6.4-3.1,12.4-0.4C122.3,88,118.9,92.6,116.3,92.6"/>
	<path class="st0" d="M101.6,94.5c0.1,0.2,0.1,0.4,0.2,0.7c0.1,0.5,0.2,1,0.2,1.5c0,0.5,0,1,0,1.5c0,0.2,0,0.5-0.1,0.7
		c-0.1-0.2-0.1-0.4-0.2-0.7c-0.1-0.5-0.2-1-0.2-1.5c0-0.5,0-1,0-1.5C101.5,95,101.5,94.7,101.6,94.5"/>
	<path class="st0" d="M85.8,97h-1.7c3.5,0.9,7,1.5,10.5,1.8c1.8,0,3.5-0.2,5.2-0.5c-2-2.6-4.7-4.7-7.8-5.9
		C87.2,90.6,85.8,97,85.8,97z"/>
	<path class="st0" d="M96,92.6c-0.7,0.7-6.4-3.1-12.4-0.4C89.9,88,93.4,92.6,96,92.6"/>
	<path class="st3" d="M95.5,127.6c0.3,0.8,0.8,1.4,1.5,1.9c2.9,1.2,6,1.9,9.1,2.2c3.1-0.2,6.2-0.9,9.1-2.2c0.7-0.5,1.2-1.1,1.6-1.8
		L95.5,127.6z"/>
	<path class="st3" d="M106.3,124.8c4.6,0,9.1-1,13.2-3c0.5-1.2,1.1-2.3,1.8-3.4c-2.5,0-5.6,0.5-7.4,0.6c-2.7,0.2-5.3,0.5-7.9,1
		c-2.6-0.5-5.3-0.8-7.9-1c-1.7,0-4.8-0.6-7.3-0.6c0.9,0.9,1.7,2.1,2.1,3.3C97.1,123.7,101.7,124.8,106.3,124.8z"/>
	<path class="st0" d="M57,42.1c-0.2,0-0.3-0.1-0.4-0.3c-0.3-5,2.7-6.6,2.7-6.6c-1.1,2-1.8,4.3-1.9,6.5C57.5,42,57.3,42.1,57,42.1
		L57,42.1z"/>
	<path class="st0" d="M154.2,106.5L154.2,106.5c-0.2,0-6.2-0.4-8.9-4.7c-0.1-0.2-0.1-0.4,0.1-0.5c0,0,0,0,0,0
		c0.2-0.1,0.4-0.1,0.5,0.1c2.5,3.9,8.3,4.3,8.4,4.3c0.2,0,0.4,0.2,0.4,0.4C154.6,106.3,154.4,106.4,154.2,106.5L154.2,106.5z"/>
	<path class="st2" d="M126,154.4l1.5,7.4c-6.1,3.8-8.7,8.6-9.6,12.9l-10.8,3.7c5.2-7.1,17.5-32.6,18.3-44.6l5.2,18.6l-4.4,1.6
		C126.1,154.1,126,154.3,126,154.4z"/>
	<path class="st1" d="M133.4,169.3c0.6,3,1.1,5.3-1,7.9c-1.2,0.2-9.1,1.2-14.2,1.8c0,0,0-0.1,0-0.1c0-5.1,1.9-11.7,9.9-16.6l0,0
		c1.7-1,3.4-1.9,5.2-2.6C132.6,162.8,132.6,166.1,133.4,169.3z"/>
	<path class="st2" d="M85.6,154l-4.4-1.6l5-18c1.3,12.4,12,35.6,18.4,43.6l-21.3-11.4l2.5-12.2C85.9,154.2,85.8,154.1,85.6,154
		C85.6,154,85.6,154,85.6,154z"/>
	<path class="st4" d="M103.6,163.5c-2.3-2.2-2.3-7.3-2.3-7.3s3.9-6.5,4.6-7.4c0.7,1,4.5,7.2,4.5,7.2s0,5.3-2.3,7.5H103.6z"/>
	<path class="st2" d="M105.6,202c-12.6-0.1-23.1-6.6-24.4-7.4c0-0.3-0.1-0.9-0.2-1.7c-5-34.4-7.3-31.8-8.4-35.8
		c-0.1-0.4-12.4-36-19.6-45.8c-3.4-8.7-8.3-49.8-8.8-53.9l22.9-4.9l5.3,31.9C72.1,89.7,73,95,75,100c-0.1,4.1,0.5,8.2,2.4,9.4
		c0.3,3.1,0.8,6.1,1.5,9.1c0.6,2.3,1.4,4.6,2.5,6.8c1.1,2.2,2.4,4.2,4.1,5.9c0.3,0.3-5.1,21.3-5.1,21.3c0,0.2,0,0.4,0.2,0.4l4.4,1.6
		l-2.5,12.1c0,0.2,0,0.3,0.2,0.4l22.8,12.2L105.6,202z"/>
	<path class="st4" d="M100.4,169.6c0.5-2.1,1.7-3.9,3.2-5.4h4.5c1.6,1.5,2.8,3.4,3.3,5.5c-1.6,3.1-3.4,6.1-5.4,8.9
		C103.9,175.8,102,172.8,100.4,169.6z"/>
	<path class="st0" d="M158.5,42.6L158.5,42.6c-0.2,0-0.3-0.1-0.4-0.3c0,0,0,0,0,0v-0.1c0.4-6.3-2.9-8.2-4.4-8.7
		c6.3,0.2,5.2,7,5.1,8.8v0.1C158.8,42.4,158.7,42.6,158.5,42.6z"/>
	<path class="st0" d="M119.2,92.4c-3.1,1.2-5.8,3.3-7.9,5.9c1.7,0.3,3.5,0.5,5.2,0.5c3.5-0.3,7.1-0.9,10.5-1.8h-1.7
		C125.5,97,124.1,90.6,119.2,92.4z"/>
	<path class="st0" d="M125.9,174.6c-0.6-0.2-1.2-0.4-1.8-0.7l0.7-1.5c0.6,0.4,1.3,0.6,2,0.7c0.5,0.1,0.9-0.1,0.9-0.4
		c0.1-0.8-3.3-0.5-3-3.1c0.2-1,1.1-1.7,2.1-1.7l0.3-1.9l1.6,0.2l-0.3,1.9c0.6,0.2,1.1,0.4,1.6,0.7l-0.7,1.5
		c-0.5-0.3-1.1-0.6-1.8-0.7c-0.5-0.1-0.8,0.1-0.9,0.4c-0.1,0.8,3.3,0.5,3,3.1c-0.2,1-1.1,1.8-2.1,1.8l-0.3,2l-1.6-0.2L125.9,174.6z"
		/>
	<path class="st0" d="M102.1,184.4c-1.1,0-2.1-0.9-2.1-2.1c0-1.1,0.9-2.1,2.1-2.1c1.1,0,2.1,0.9,2.1,2.1c0,0,0,0,0,0
		C104.2,183.5,103.3,184.4,102.1,184.4z"/>
	<path class="st1" d="M102.1,181c-0.7,0-1.4,0.6-1.4,1.3c0,0.7,0.6,1.4,1.3,1.4c0.7,0,1.4-0.6,1.4-1.3c0,0,0,0,0,0
		C103.5,181.6,102.9,181,102.1,181z"/>
	<path class="st0" d="M102.1,196.3c-1.1,0-2.1-0.9-2.1-2.1c0-1.1,0.9-2.1,2.1-2.1c1.1,0,2.1,0.9,2.1,2.1c0,0,0,0,0,0
		C104.2,195.4,103.3,196.3,102.1,196.3C102.2,196.3,102.2,196.3,102.1,196.3z"/>
	<path class="st1" d="M102.1,192.9c-0.7,0.1-1.3,0.7-1.2,1.5c0.1,0.6,0.6,1.2,1.2,1.2c0.7-0.1,1.3-0.7,1.2-1.5
		C103.3,193.5,102.8,193,102.1,192.9z"/>
	<path class="st3" d="M90.8,92.8c1.4,0.2,2.7,0.7,3.8,1.6c-0.2-0.1-0.5-0.1-0.7-0.1c-1.5,0-2.8,1.2-2.9,2.7c0,0,0,0,0,0
		c0,0.3,0.1,0.6,0.2,0.9c-1.6-0.3-3.3-0.6-4.7-0.9c0.1-0.1,0.1-0.2,0.1-0.3C87.3,95.5,88.4,92.8,90.8,92.8z"/>
	<path class="st3" d="M98.8,97.9c-0.6,0.1-1.4,0.2-2.3,0.3c0.2-0.4,0.3-0.8,0.3-1.2c0-0.5-0.1-1-0.4-1.4C97.2,96.3,98,97,98.8,97.9z
		"/>
	<path class="st3" d="M93.9,95c1.1,0,2,0.8,2,1.9c0,0,0,0,0,0c0,0.4-0.1,0.7-0.3,1c0,0-2.2-0.1-3.6-0.3c-0.1-0.2-0.1-0.4-0.1-0.7
		C91.9,95.9,92.8,95,93.9,95C93.9,95,93.9,95,93.9,95z"/>
	<path class="st0" d="M93,96.9c-0.1,0.6,0.3,1.1,0.8,1.2c0.6,0.1,1.1-0.3,1.2-0.8c0.1-0.6-0.3-1.1-0.8-1.2c-0.1,0-0.1,0-0.2,0
		C93.5,96,93.1,96.4,93,96.9"/>
	<path class="st3" d="M124.6,96.7c0,0.1,0.1,0.2,0.1,0.3c-1.3,0.3-3.1,0.6-4.7,0.9c0.1-0.3,0.2-0.6,0.2-0.9c0-1.5-1.3-2.8-2.9-2.7
		c0,0,0,0,0,0c-0.2,0-0.5,0.1-0.7,0.1c1.1-0.8,2.4-1.3,3.8-1.5C122.9,92.8,124,95.5,124.6,96.7z"/>
	<path class="st3" d="M114.9,95.6c-0.3,0.4-0.4,0.9-0.4,1.4c0,0.4,0.1,0.8,0.3,1.2c-0.9-0.1-1.7-0.2-2.3-0.3
		C113.2,97,114.1,96.3,114.9,95.6z"/>
	<path class="st3" d="M119.4,96.9c0,0.2,0,0.5-0.1,0.7c-1.4,0.2-3.6,0.3-3.6,0.3c-0.2-0.3-0.3-0.6-0.3-1c0.1-1.1,1.1-2,2.2-1.9
		C118.6,95.1,119.4,95.9,119.4,96.9z"/>
	<path class="st0" d="M118.3,96.9c0.1,0.6-0.3,1.1-0.8,1.2c-0.6,0.1-1.1-0.3-1.2-0.8c-0.1-0.6,0.3-1.1,0.8-1.2c0.1,0,0.1,0,0.2,0
		C117.8,96,118.3,96.4,118.3,96.9"/>
	<path class="st0" d="M63.9,106c-0.1,0-0.2,0-0.2-0.1c-0.1-0.1-0.1-0.4,0-0.5c0,0,0,0,0,0c2-2.1,4.9-3,7.8-2.4
		c0.2,0,0.3,0.2,0.3,0.4c0,0.2-0.2,0.3-0.4,0.3c-2.6-0.5-5.2,0.3-7.1,2.2C64.1,106,64,106,63.9,106z"/>
	<path class="st0" d="M58.5,102.4c-0.1,0-0.1,0-0.2,0c-0.2-0.1-0.2-0.3-0.1-0.5c5.5-8,15.6-11.1,15.7-11.1c0.2-0.1,0.4,0,0.5,0.2
		c0.1,0.2,0,0.4-0.2,0.5c0,0,0,0-0.1,0c-0.1,0-10,3.1-15.3,10.7C58.7,102.4,58.6,102.4,58.5,102.4z"/>
	<path class="st1" d="M77.9,97.9c-0.2,2.1-0.3,4.1-0.4,6.2c0,1.4-0.1,2.7-0.1,4.1c-1-1.2-1.4-3.1-1.6-6.5S76.9,98.5,77.9,97.9z"/>
	<path class="st0" d="M88.9,112.1c-5-0.5-9.5-3.3-9.5-7.9c0-2.8,3.9-6,6.9-2.5c-1.7-4-8.7-1.4-8.8,3.1c-0.1,6.5,5.4,9.2,10.8,9.6
		c7.6,0.5,10.6-1,13.9,1c0.8,0.5,1.2-2.4-0.1-3.1C98.8,110.6,95.6,112.4,88.9,112.1"/>
	<g>
		<path class="st5" d="M125.6,70.6l-1.9-9.3c0,1.8,0,6.3-0.2,8.5c-9.2,3-18.5-0.1-27,0.3c-2.9,0.1-6.2,0.4-7.9,2
			c4.8-0.9,9.7-0.9,14.5,0.1c6.7,1.1,13.5,1.2,20.2,0.3c0.9-0.1,1.7,0.2,2.3,0.8c2.1,2,4,4.1,5.8,6.4
			C129.2,72.4,125.6,70.6,125.6,70.6z"/>
		<path class="st5" d="M87.1,81.5c-2.3-0.5-4.3-1.8-5.6-3.8c-0.7,1.1-1.2,2.3-1.4,3.5C82.4,81.9,84.8,82,87.1,81.5z"/>
	</g>
	<path class="st6" d="M127.8,113.5c-1.4,0.5-2.9,0.8-4.4,0.9c-7.6,0.5-10.6-1-13.9,1c-0.8,0.5-1.2-2.4,0.1-3.1
		c2.3-1.2,4.6-0.7,8.1-0.4l0,0c-0.6-1.8-3.1-3.7-3.8-4.2c0.2,0.9-0.1,1.9-0.8,2.5c-0.5,0.5-1,0.5-2.7,1.1c-0.1,0.1-2.9,2.2-3.6,2.2
		c-0.2,0-0.4,0-0.5,0c-1.4,0-3.5-1.7-3.6-1.9l-0.2-0.3c-1.8-0.7-2.3-0.6-2.8-1.2c-0.5-0.5-0.8-1.1-0.8-1.8c-0.6,1-1.1,2-1.5,3.1
		c1.7-0.3,3.4,0,4.9,0.7c1.2,0.6,0.9,3.5,0.1,3.1c-3.4-2-6.4-0.4-13.9-1c-0.7,0-1.4-0.1-2.1-0.3c0,0.4,0,0.7,0,1.1
		c1.3,0.2,2.6,0.3,4,0.2c5.2-0.1,10.3,0.1,15.4,0.8c1,0,11.5-0.8,14.1-0.8c2.8,0.1,5.6-0.3,8.3-1.1C128,114,127.9,113.7,127.8,113.5
		z"/>
	<path class="st6" d="M85.5,114c-2.6-0.5-5-1.9-6.6-4.1l0.2,2c1.9,1.6,4.1,2.7,6.5,3.1C85.5,114.7,85.5,114.3,85.5,114z"/>
	<path class="st6" d="M133.9,108.3c0-0.2,0-0.4,0-0.6c-0.8,2.5-2.7,4.4-5.1,5.4c0.1,0.3,0.2,0.6,0.2,0.8c1.6-0.6,3.2-1.4,4.6-2.5
		C133.8,109.9,133.9,108.6,133.9,108.3z"/>
	<path class="st6" d="M106,130.8c-3.5-0.2-6.8-1-10.1-2.3c0.2,0.4,0.5,0.7,0.9,0.9c2.9,1.2,6,1.9,9.1,2.2c3.1-0.2,6.2-0.9,9.1-2.2
		c0.4-0.2,0.8-0.6,1-1C113,129.8,109.5,130.6,106,130.8z"/>
	<path class="st6" d="M91.8,119.5c2.3,0.1,4.9,0.5,6.4,0.6c2.7,0.2,5.3,0.6,7.9,1.2c2.6-0.5,5.3-0.9,7.9-1.2c1.6,0,4.3-0.5,6.7-0.6
		c0.2-0.4,0.4-0.7,0.7-1.1c-2.5,0-5.6,0.5-7.4,0.6c-2.7,0.2-5.3,0.5-7.9,1c-2.6-0.5-5.3-0.8-7.9-1c-1.7,0-4.8-0.6-7.3-0.6
		C91.2,118.8,91.5,119.1,91.8,119.5z"/>
	<path class="st5" d="M106.1,147.7c-2.6,0-9.2-5.7-9-5.7c1.4,0.5,5.8-0.2,6.9-0.2c2-0.1,4-0.1,6.1-0.1h5.8
		C112.4,144.9,108.8,147.7,106.1,147.7z"/>
	<path class="st7" d="M121.6,136.7c-4.2,4.7-10.6,11.2-15.1,11.7c0.1,0.2,0.3,0.4,0.5,0.8c8.5-0.3,15.5-5.4,17.3-12.3
		c0.2-1.1,0.3-2.1,0.4-3.2C123.8,134.8,122.8,135.8,121.6,136.7z"/>
	<path class="st7" d="M90.9,137.2c-1.1-0.8-2-1.7-2.9-2.7c0.5,7.8,7.7,14,16.9,14.7l0.5-0.8C101,147.7,95.1,141.7,90.9,137.2z"/>
	<path class="st1" d="M97.1,163.3c1-2.1,2.3-4.3,3.5-6.3c0.1,1.6,0.5,4.9,2.3,6.8c-1.4,1.3-2.5,3-3.1,4.9
		C99,167,98.1,165.2,97.1,163.3z"/>
	<path class="st7" d="M100.6,157c-0.6,1-1.2,2-1.7,3c0.4,2.1,1.2,4.2,2.3,6c0.5-0.8,1.1-1.5,1.8-2.2
		C101.1,161.9,100.7,158.6,100.6,157z"/>
	<path class="st7" d="M112.8,160c-0.6-1-1.2-2-1.7-3c-0.1,1.6-0.5,5-2.3,6.9c0.7,0.7,1.3,1.4,1.8,2.2
		C111.8,164.2,112.5,162.1,112.8,160z"/>
	<g>
		<path class="st8" d="M134.4,100.4c1.6,5.8,0.4,14.2-1,19.1c-0.6,1.8-1.4,3.6-2.3,5.3c-1.6,2.7-3.4,5.2-5.3,7.6l2.2,7.9
			c9.3-8.4,9.5-31.9,10-35.1c0.1-0.8,0.2-2.4,0.4-4.5C137,100.9,135.7,100.8,134.4,100.4z"/>
		<path class="st8" d="M137.4,96.4c0.3,0.4,0.7,0.8,1.1,1.2c0-0.8,0.1-1.7,0.1-2.6c-0.3,0.2-0.6,0.3-0.9,0.5L137.4,96.4z"/>
	</g>
	<path class="st8" d="M125.4,133.8c-0.3,3.1-1,6.2-1.9,9.2l3.9-2.2L125.4,133.8z"/>
	<path class="st8" d="M86.3,134.5l-2.4,8.8l4.8,1.6C87.5,141.5,86.7,138,86.3,134.5z"/>
	<path class="st8" d="M82.6,166.7l2.5-12.1l-4.4-1.6c-0.4,0.7-0.7,1.5-1,2.3l3.4,1.4L80,169.3l25.6,10.6v-0.6l-22.9-12.2
		C82.6,167.1,82.6,166.9,82.6,166.7z"/>
	<path class="st8" d="M77.4,170.3c-0.6-11.9-6.6-23.9-7.6-28.9c-0.9-4.9-12.9-28.5-14.8-31.6c-0.9-1.6-4.4-14.9-7.5-27.1
		c1.7,11.8,3.8,24.2,5.4,28.5c7.3,9.8,19.5,45.5,19.6,45.8c1.1,4,3.4,1.5,8.4,35.8c0.1,0.8,0.2,1.4,0.2,1.7c2.3,1.4,4.8,2.7,7.4,3.7
		c-1.2-1.3-2.2-2.8-3.1-4.3C83.6,190.2,78,182.2,77.4,170.3z"/>
	<path class="st6" d="M177.3,23.9c-0.2-0.2-0.4-0.3-0.7-0.3c0.9,5-3.7,9.7-6.8,14.8c-2.2,5.5-10.4,11.2-10.4,11.2s-7,0.9-10,0.9
		c-0.1,0.5-0.3,1.2-0.5,2.1c0,0,0,0.1,0,0.1l13.4,2.9c0,0,0.3-6.4,0.4-6.5c4.7-3.7,7.8-7.6,8.8-11.3C171.3,37.7,180,27.1,177.3,23.9
		z"/>
	<path class="st6" d="M170.1,28.2c5.4-8.6,6-12.9,4.9-13.8c-0.3-0.3-0.7-0.5-1.2-0.6c0.1,1.2,0.1,2.4-0.3,3.6
		c-0.6,2-3.6,9.3-5.2,13.3C168.8,30,169.4,29.1,170.1,28.2z"/>
	<path class="st6" d="M163.5,14.4c-0.4,3.7-0.5,7.5-0.3,11.3c0.1-0.2,0.3-0.5,0.4-0.7c0-0.4,0-3.6,0.1-5.7c0.1-1.3,0.4-2.5,0.8-3.7
		c0.6-2.2,1.3-4.7,0.3-5.2c-0.5-0.3-1-0.5-1.5-0.6C163.7,11.3,163.8,12.9,163.5,14.4z"/>
	<path class="st6" d="M147.5,43.9c-1.2-2.2-1.2-9.7-2.5-14.8c-0.4-2-1.8-3.7-3.6-4.6l1.6,1.6c1.4,1.5,2,6.6,2.5,11
		c0.1,2,0.4,4,0.9,6c0.5,1.5,1.2,2.8,2.1,4.1C148.3,46,148,44.9,147.5,43.9z"/>
	<path class="st6" d="M41.6,37.8c0.9,3.7,4,7.7,8.6,11.4c0.1,0.1,0.5,6.1,0.5,6.1l0,0L64,52.4c-0.3-1-0.4-1.8-0.6-2.3
		c-3.5,0.1-10.2,0.3-10.2,0.3s-3.8-3.7-5.9-6.2c-2-2.2-3.7-4.6-5.3-7.1c-0.3-0.7-5-7.8-6.9-12.1c-0.8,3.9,5.4,11.6,6.4,12.7
		C41.5,37.7,41.5,37.7,41.6,37.8z"/>
	<path class="st7" d="M121.6,176.9c-1.6-1.6,1.6-10.9,8.5-15.7c-0.7,0.4-1.3,0.7-1.9,1.1l0,0c-8,5-9.9,11.6-9.9,16.6
		c0,0,0,0.1,0,0.1c5.1-0.6,13.1-1.7,14.2-1.8c0.4-0.5,0.8-1.1,1.1-1.7C130.4,175.8,123.1,178.5,121.6,176.9z"/>
	<path class="st7" d="M108.8,134.6c-0.8,0.6-1.8,1-2.8,1c-1,0-1.9-0.3-2.7-0.9c-1.8-0.1-3.6-0.4-5.3-1c2.2,2,5.1,3.1,8,3.1
		c2.9-0.1,5.8-1.2,8-3.1C112.2,134.1,110.5,134.4,108.8,134.6z"/>
	<path class="st8" d="M71.2,91.9c0.6-0.2,1.1-0.4,1.5-0.6c-0.3-2.3-0.4-4.6-0.3-6.9l-0.8-4.6c-0.7,3.5-0.9,7.1-0.6,10.6
		C71.1,90.9,71.2,91.4,71.2,91.9z"/>
	<path class="st8" d="M85.5,131.3c-1.7-1.8-3-3.8-4.1-5.9c-1.1-2.2-1.9-4.5-2.5-6.8c-0.7-3-1.3-6.1-1.5-9.1
		c-1.9-1.2-2.6-5.4-2.4-9.4c-1-2.6-1.8-5.2-2.2-8c-0.4,0.2-0.9,0.4-1.5,0.6c0.6,5.5,0.7,12,1.4,15.7c0.7,3.9,0.5,26.6,10.1,34.7
		C84.2,137.4,85.6,131.4,85.5,131.3z"/>
	<path class="st9" d="M119.8,63L119.8,63L119.8,63l-0.2-0.1c-4.7-3.1-20-9.6-32.6,0.6c0,0,5.4-3.8,16-3.6
		c-6.9,0.3-13.5,3.3-18.2,8.4c0,0,5.3-4.9,16.8-6.2c-6.7,1-12.8,4.6-16.9,10c0,0,9.9-10.9,34.3-8.6c-2.1-0.7-4.3-1.3-6.5-1.5
		c2.4,0.2,4.8,0.5,7.1,1L119.8,63"/>
	<path class="st9" d="M134.3,75.4c0.6,1.4,1.2,2.9,1.8,4.7c-1.2-12.7-8.4-15.3-8.4-15.3c1.1,1.3,2,2.5,2.8,3.7
		c-0.8-0.9-1.8-1.6-2.9-2.1c1.7,2,3.2,4.2,4.5,6.5c-0.9-1.6-2.3-2.9-4-3.6c2.9,3.5,5.1,7.5,6.5,11.8c-0.1-1.7-0.5-3.4-1.1-5
		c0.5,1.2,1,2.5,1.6,4C135,78.5,134.7,76.9,134.3,75.4"/>
	<path class="st10" d="M144,55.4c6.6,1.2,16.5,2.9,22.9,4c0.1-0.9,0.2-1.6,0.2-2l-22.8-4.9L144,55.4z"/>
	<path class="st10" d="M69.8,68.3l-2.6-15.8l-22.9,4.9c0,0.4,0.2,1.3,0.3,2.5c4.8-1.2,11-2.8,15.5-3.9c3.1-0.8,6.3,1,7.1,4.2
		c0,0.1,0,0.2,0.1,0.3L69.8,68.3z"/>
	<path class="st10" d="M123.4,143.3c-3.9,12.8-12.3,29.6-16.4,35.1l8.2-2.8c-2.2-1.3-4-1.2-2.9-3.4
		C117.5,161.9,124,144.4,123.4,143.3z"/>
	<path class="st10" d="M89.9,148.8c0.9,4.4,1.9,8.4,6.6,17.7c1,1.9,1.9,3.6,2.9,5.2c0.5,0.4,0.5,1.2,0,1.7c-0.4,0.5-1.2,0.5-1.7,0
		l0,0l-14.2-7.6l-0.2,0.9l21.3,11.4c-0.1-0.1-3.4-5.3-6.8-11.7C94.8,160.7,92.2,154.8,89.9,148.8z"/>
	<path class="st11" d="M109.3,159.7c-0.4,0.9-1.3,1.5-2.3,1.5h-1.9c-0.9,0-1.7-0.5-2.2-1.3c-0.6-1.2-1.1-2.4-1.5-3.7
		c0,0,0,5.1,2.3,7.3h4.4c2.3-2.2,2.3-7.4,2.3-7.5C110.2,157.3,109.8,158.5,109.3,159.7z"/>
	<path class="st11" d="M104.5,166.3h2.8c0.6,0,1.1,0.2,1.5,0.7c0.6,0.7,2.5,3.1,2.6,2.8c-0.5-2.1-1.7-4.1-3.3-5.5h-4.5
		c-1.6,1.4-2.7,3.3-3.2,5.4c0.1,0.3,2-2,2.6-2.6C103.4,166.6,103.9,166.3,104.5,166.3z"/>
	<g>
		<path class="st8" d="M106.3,179.4V202l2-0.1l-0.2-21.1c0,0,5.8-1.5,6-1.5c0.6,0,1.8-0.1,3.4-0.3c0-0.1,0-0.1,0-0.2
			c0-1.1,0.1-2.3,0.3-3.4L106.3,179.4z"/>
		<path class="st8" d="M156.4,109.8c0,0.1,0,0.1-0.1,0.2c-10,14.1-16.9,40.5-17.6,43.4c0,0.2-0.2,0.3-0.3,0.4l-3.1,1.4
			c-1.3,0.6-2.7,0-3.3-1.2c0,0,0-0.1,0-0.1l-0.3-0.7c-0.1-0.3-0.5-0.4-0.7-0.3c0,0,0,0,0,0c-0.9,0.4-2.8,1.2-3.7,1.6
			c-0.3,0.1-0.4,0.4-0.4,0.6l1.2,5.6c0.1,0.3,0.4,0.5,0.7,0.4c0.1,0,0.1,0,0.2-0.1c1.5-0.7,3-1.4,4.5-2c0.3-0.1,0.6,0,0.7,0.3
			c0,0.1,0,0.2,0,0.3c-0.5,3.1-0.5,6.3,0,9.5c1.9,5.7-4.4,19.2-11.4,29.4c2.8-1.1,5.5-2.4,8-4c1.7-9.7,6.7-28.9,8-37.5
			c0.3-1,12-35.5,19.6-45.8c0,0,0.1-0.1,0.1-0.1c3.4-8.8,8.3-49.7,8.7-53.8C167.2,57.4,161.1,94.4,156.4,109.8z"/>
	</g>
</g>
</svg>
