<svg id="Layer_1" data-name="Layer 1" xmlns="http://www.w3.org/2000/svg" viewBox="0 0 210 210">
  <defs>
    <style>
      .cls-1 {
        fill: #13354c;
      }

      .cls-2 {
        fill: #f2f2f0;
      }

      .cls-3 {
        fill: #a2aeb5;
      }

      .cls-4 {
        fill: #fff;
      }

      .cls-5 {
        fill: #4092b5;
      }

      .cls-6 {
        fill: #1e5e82;
      }

      .cls-7 {
        fill: #ced4d6;
      }

      .cls-8 {
        fill: #57c4ea;
      }

      .cls-9 {
        fill: #d7dbdc;
      }

      .cls-10 {
        fill: #a1aeb4;
      }

      .cls-11 {
        fill: #347999;
      }

      .cls-12 {
        fill: #4b6577;
      }

      .cls-13 {
        fill: #68a9c5;
      }

      .cls-14 {
        fill: #7199b0;
      }
    </style>
  </defs>
  <title>11</title>
  <g>
    <path class="cls-1" d="M177.59,131.8c-2.8-4.53-7.31-9.63-12.21-11.26s-12.11-14.29-6.68-28c3.4,3.13,13.36,7.93,13.36,7.93s-2.3-14.84-3.86-19.19c1.55-2.94,5.93-13.42,2.87-34.24a50.85,50.85,0,0,0-20.72-33.76c-5.59-3.91-11.29-5.9-15.5-5.46-6.18-3.65-22.69-3.31-34.94,2.53A43.75,43.75,0,0,0,82.4,25.61c-10.12,14.76-5.56,28.23-5.56,28.23A75.1,75.1,0,0,0,79.38,70,12.44,12.44,0,0,1,80,75.88a17.92,17.92,0,0,0,.15,9.3c-1.34,4.58-2.27,10.22.22,12.63s12.18,15.1,13.15,18.29c1.21,4,6.18,4.34,11,4.68a42.24,42.24,0,0,1,9.61,2.07L107.18,130a2.66,2.66,0,0,0-.17,3.49s.41.53.9,1.27A46,46,0,0,0,103,144.88c-2.26-.94-7.35-2.91-8-2.73a12,12,0,0,1-1.26-3.77c-.56-3.51-4.7-11-4.83-11.31a30.67,30.67,0,0,1,.07-4.39,2.66,2.66,0,0,0-2-2.77c-.71-.18-4.36-1-6.93,1.29A5.38,5.38,0,0,0,79,122.49l-.79-.49c.11-.27.23-.53.33-.78a3.35,3.35,0,0,0-.54-3.48l-1.75-2.08a3.4,3.4,0,0,0-2.44-1.2l-3.7-.15a3.37,3.37,0,0,0-2.34.8L65.6,117a3.39,3.39,0,0,0-.93,1.3,6.18,6.18,0,0,0-1.88,1,13.92,13.92,0,0,0-4.29-.77,4.26,4.26,0,0,0-3.61,1.83c-1.15,1.72-.89,4.09-.31,6.08-2.49,4.9,6.8,13.34,7.26,13.73h-.05c-2.46-.15-7.53-.45-8.78-1-1.95-1.91-9.24-2.27-9.4-2.31a8.53,8.53,0,0,0-6.31-3.3c-3.23-.32-7.44,1.5-5.1,7.22.33.61,2.14,4.48,3.92,8.39a10.12,10.12,0,0,0,4.29,4.31c.33,2.1,5.07,4.1,6.49,4.77,4.17,5.06,13.44,3.54,15.76,3.27a47.27,47.27,0,0,0,2,5.27c-2.37,4.26-1.75,6.93-1.58,7.45.06.22,26.26,24.87,27.09,25,1.56.34,3.5-.34,5.79-2.08,8.42,5.54,19.25,7,28.48,7a193,193,0,0,0,33.47-3.48,2.65,2.65,0,0,0,2.11-2.86c0-.1-.88-10.44,5.37-24.27,2.63-3.16,13.33-16.23,14.59-21C182,144.94,180.28,136.16,177.59,131.8Z"/>
    <path class="cls-2" d="M104.57,117.64c-3.93-.28-7.63-.54-8.23-2.49-1.17-3.84-11.34-17.07-14-19.61-.52-.5-1.38-3.34.85-10.36a.44.44,0,0,0,0-.3l-.07-.17c-1.22-3-.66-6.08-.25-8.3a15.35,15.35,0,0,0-.75-7.47c-.94-2.8-2.53-11.37-2.52-19.76,12.54-8.45,29-20.94,42.4-19.26,3.44-6,9.66-14.89,9.66-14.89s-2.38,8.32-5,16c11.32,4,12.29,25.12,6.15,28.42,1.58,1.28,6.39,2.3,8.8-.32.15,1.68-1,3.61-3.5,5.62,5.75,2.76,9.78-3,9.78-3s4.34-6.54,9.16-1c4.33,5,1.63,18.3-3.15,20.92-1.29.65-4.4,1.31-7-2.72,1.42,5.33,5.64,4.32,7.33,3.55.44.57,1.32,2.6,2.77,4.79-2.29,6.21-5.51,17-2.91,22.79C142.4,117,129,121.56,123.66,123.21h0l-2,.61a7.86,7.86,0,0,0-2.83-2.3.33.33,0,0,0-.13-.07C114.46,119.2,107.58,117.85,104.57,117.64Z"/>
    <path class="cls-1" d="M79.43,91.21c-4.56.42-9.15-1.27-10-5.27a4.68,4.68,0,0,1,5.44-5.54c-3.4-2.52-7.87,2.35-7,6.4,1.22,5.75,6.65,7.21,11.54,6.58,6.84-.87,13.25-3.63,16.62-2.46.85.29.55-2.35-.68-2.7C92.07,87.28,85.49,90.31,79.43,91.21Z"/>
    <path class="cls-1" d="M119.51,84.79c5.29-.92,10-4.24,9.74-9-.14-3-4.45-6.12-7.41-2.18,1.6-4.41,9.18-2.16,9.45,2.68.38,6.87-5.32,10.18-11,11-8,1.1-16.11-.07-19.57,2.28-.87.6-1.33-2.49-.05-3.26C104,84.2,112.38,85.62,119.51,84.79Z"/>
    <path class="cls-1" d="M89,63.64s-5.48-.93-4.38-6c-3.39,3.17.23,7.8.47,7.6a1.67,1.67,0,0,1-2.57-1.08A2,2,0,0,0,83.86,67c-3.12.33-4.43-1.32-4.43-1.32a6.45,6.45,0,0,0,.95,2.46c4,3.75,10.13-.21,10.13-.21s.75-1.77-1.52-4.26"/>
    <path class="cls-3" d="M158.21,71.1a7.91,7.91,0,0,0,.16-1.26,9.32,9.32,0,0,1-.16,1.26"/>
    <path class="cls-1" d="M104.87,79c-.06-4-7.66-3.21-6.89-1.79-1.14-2.12,6.9-3.68,7.79,1.48.58,3.39-4.61,4.47-6.55,6.82-.08.08-.29.12-.35.21-.23-3.4,6.06-2.71,6-6.72"/>
    <path class="cls-1" d="M88.53,85.33c-.78-2.79,3.21-14.21,3.23-14.92a6.84,6.84,0,0,0-2-4.57s1.38,3.28,1.07,4.74c-.19.61-3.42,11.89-3.32,14.6s7.86,2.89,11.61.29c-3.94,1.27-10.24,1.29-10.64-.14"/>
    <path class="cls-1" d="M96.92,97c1.31,1.36,2.6,1,3.3-.58,3.81,1.29,7,0,13-6.17,2.49-2.55,2.07-2.53,7.77-5.12-4.47,3.53-4.41,3-7.47,6.44a26.82,26.82,0,0,1-13.83,8c-7,1.1-11.33-6.58-15-7.7,5.27.71,8.42,7.62,12.26,5.18"/>
    <path class="cls-1" d="M88.7,100.3c-2-4.27-6.85-5.81-6-9.3.57-2.3,5-2,6.74-1.75-1.29.24-5.25.21-5.91,2.17C83,93.7,87.1,95.17,88.7,100.3Z"/>
    <path class="cls-1" d="M105.39,77.88a8.48,8.48,0,0,1,4.8,3.52c1.07,1.58,4.37.54,5.41.23s5.55-2.25,6.93-2.09c2.89.34,2.81,3.57,1.9,6.82-.53,1.9-1.28,5.92-2.4,11.76-.29-2.79.22-6.21,1-10.42.51-2.87,1.68-6.54-.59-6.77-1.5-.14-3.84.95-6.47,2-3.44,1.31-5.72.16-6.33-.84a15.91,15.91,0,0,0-4.22-4.17"/>
    <path class="cls-1" d="M82.59,85.31a3.18,3.18,0,0,1,2.24-1.72,4,4,0,0,1,1.9.21s-3-.31-3.71,1.71a2.64,2.64,0,0,1-.43-.2"/>
    <path class="cls-1" d="M97,102.16s3.42,1.85,7.82-1.65c0,0-1.28,2.46-3.47,2.89A4.72,4.72,0,0,1,97,102.16"/>
    <path class="cls-1" d="M106.7,64.7A5.77,5.77,0,0,1,111,61.08c2.92-.68,9,.4,9.19.41-1.62.28-6-.71-9.11-.07a6.05,6.05,0,0,0-4.36,3.28"/>
    <path class="cls-1" d="M91.18,70.14a11.55,11.55,0,0,0-3.55.29c-3,.62-4.57,1.85-5,3.84l-.06.26h.27a9.57,9.57,0,0,1,1,.11,17.92,17.92,0,0,0,2.43.19,9.81,9.81,0,0,0,4.2-.89l.1,0,0-.1c.31-1.08.49-1.89.8-3.4l0-.24Z"/>
    <path class="cls-4" d="M83.87,74.21l-.77-.09a3.82,3.82,0,0,1,1.76-2.22,3.44,3.44,0,0,0,2.39,2.45A14.76,14.76,0,0,1,83.87,74.21Z"/>
    <path class="cls-1" d="M148.41,66.49s2.43-5.1,6.38-3.34,2.68,7.95,2.68,7.95.26-5.95-3.19-6.73-5.87,2.12-5.87,2.12"/>
    <path class="cls-1" d="M89,63.64s-5.48-.93-4.38-6c-3.39,3.17.23,7.8.47,7.6a1.67,1.67,0,0,1-2.57-1.08A2,2,0,0,0,83.86,67c-3.12.33-4.43-1.32-4.43-1.32a6.45,6.45,0,0,0,.95,2.46c4,3.75,10.13-.21,10.13-.21s.75-1.77-1.52-4.26"/>
    <path class="cls-1" d="M114.82,68.24l.12,0a32.25,32.25,0,0,0,4.23-1.78,67,67,0,0,1,7.49-2.65l-4.71.55a5.77,5.77,0,0,1-2.2-.38,11.76,11.76,0,0,0-3-.53h0l-.68,0h0c-.24,0-.48,0-.72,0h0a10.1,10.1,0,0,0-1.12.12,3.43,3.43,0,0,0-.34.06l-.61.1-.11,0-.51.13-.54.14-.45.15-.54.18-.06,0h0a14.1,14.1,0,0,0-6.43,4.84,16,16,0,0,0,7.31-.15c.6-.12,1.23-.28,1.88-.47l.11,0Z"/>
    <path class="cls-4" d="M119.55,64.52a8.17,8.17,0,0,0,1.62.4c-.88.33-1.7.66-2.28,1s-.92.45-1.39.66a3.33,3.33,0,0,0,0-1.54,3.25,3.25,0,0,0-.35-.93A10.43,10.43,0,0,1,119.55,64.52Z"/>
    <path class="cls-4" d="M111.77,68.44a17.83,17.83,0,0,1-6.08.33,14.38,14.38,0,0,1,5.11-3.67A3.36,3.36,0,0,0,112,68.38Z"/>
    <path class="cls-4" d="M115.34,65.94c.08.41-.37.86-1,1s-1.25-.09-1.33-.51.36-.87,1-1,1.25.09,1.34.51"/>
    <path class="cls-4" d="M89.5,72c.09.42-.36.86-1,1s-1.22-.1-1.31-.52.36-.86,1-1,1.22.1,1.31.52"/>
    <path class="cls-1" d="M125.62,50.21c-3.34-.83-8.2-1-11.06,1-2.06,1.46-9.85,11.22-14.6,13.84,1.09-3.39,3.05-9.42-.13-14.81,0,0,3.39,1.21,4.76,6.38,1.44-4.61,0-6.75,0-6.75s1.07-.16,2.17,2.31c1.75-3.13,7.61-8,8.87-9.6a21.19,21.19,0,0,1,1.68,4.25s5.09.31,8.32,3.37"/>
    <path class="cls-5" d="M63,104.92a45.32,45.32,0,0,0-6.87,1.6l-1.18-8.41a0,0,0,0,0,0,0,.05.05,0,0,0,0,.05l.08,8.79c-1.57.51-9.72,3.49-15.38,8.25-5.27,4.43-9.68,11.56-9.72,11.64l0,0c-.83-.72-1.76-1.3-2.65-1.94l-2.05-1.46c1-1.77,6.9-9.6,7.2-9.92A18.86,18.86,0,0,0,35,115.67s-1.83-2.59-2.11-2.84c7.22-7.49,17.36-11,19-11.49-3.27.57-10.52,2.55-19.61,10.91-.09-.08-3.19-2.88-3.8-3.39l3.28,3.94a77.79,77.79,0,0,0-6.94,10.37s-2.13-1.49-3-2.1l2.83,2.55c-.46,1-.88,2.08-1.25,3.14.47-1,1-2,1.5-2.92l1.86,1.56c.84.7,2.64,2.15,2.69,2.18a54.87,54.87,0,0,0-3.23,9.71c1.92-5,3.73-9.37,3.73-9.37a21.93,21.93,0,0,0,2.25,1.19,17.31,17.31,0,0,0-1.85-1.88S35.38,120,39.89,116c4.16-3.64,13.78-7.68,15.25-8.25a73.72,73.72,0,0,0,.88,7.87s0,0,0,0a0,0,0,0,0,0,0,79.34,79.34,0,0,0,.08-8.29A71.8,71.8,0,0,1,63,104.92Z"/>
    <path class="cls-5" d="M158.26,117.09c-1.33,4.35-5.64,8.84-8.79,12.13a26,26,0,0,0-3.61,4.2c-3.49-1.73-6.48-2-8.9-.74a.42.42,0,0,0-.24.39c0,2.07,1.33,7.37,1.7,8.84-2.35,1-15.19,6.62-20.07,11.45l-1.49-.53c1.06-1.57,13.11-19.05,23.81-27.78,6.46-5.27,12.05-10.9,14-13.8a21.55,21.55,0,0,0,1.42,2C157.1,114.54,158.49,116.34,158.26,117.09Z"/>
    <path class="cls-2" d="M124.3,123.94a159.13,159.13,0,0,0,29-12.29c-2.39,3-7.87,7.92-13.19,12.74-4.78,4.32-9.67,8.75-12.61,12Z"/>
    <path class="cls-2" d="M126.76,137.16c-.44.52-.83,1-1.14,1.43-1.44,2-2.94,4.18-4.31,6.17.42-3.4.5-6.2.52-7.13,1.36-.51,3.13-2.74,4-4Z"/>
    <path class="cls-6" d="M125.58,132.52c-1.15,1.68-3.22,4.22-4.24,4.33-1.18.13-4.38-1.4-5.75-2.11-.14-1.06.38-6.18,6.84-10C122.62,124.7,125.58,132.52,125.58,132.52Z"/>
    <path class="cls-6" d="M120.94,137.72a67.14,67.14,0,0,1-.76,8.67c-2.1,3.05-3.73,5.47-4.17,6.12-2.55-.95-5.6-2.16-8.66-3.41,1.54-4.29,4.62-8.7,7.36-12.61.21-.31.41-.6.62-.89C116.37,136.14,119.27,137.57,120.94,137.72Z"/>
    <path class="cls-7" d="M111.3,135.35a.44.44,0,0,0,.08-.53,25.38,25.38,0,0,0-1.87-2.95l9.12-9.44a7.15,7.15,0,0,1,2.19,1.77c-6.62,4.09-6.25,9.61-6.1,10.72-.24.35-6.61,9.46-8.2,13.85l-1.55-.64C105.59,146.27,108.44,138.08,111.3,135.35Z"/>
    <path class="cls-2" d="M38.77,147.84c-.15-.34-3.78-8.31-4.17-8.84a2.11,2.11,0,0,1-.12-1.79c.38-.67,1.48-.71,2.34-.62a5.41,5.41,0,0,1,4.25,2.25,2.35,2.35,0,0,0-1.93.77c-.51.73-.11,1.72.31,2.76.19.46,1.79,7,2.15,8.26A7.12,7.12,0,0,1,38.77,147.84Z"/>
    <path class="cls-2" d="M43.48,152.82c-.86-1-1.77-5.33-2.12-6.93-.21-.95-1.73-5.44-1.49-5.78.11-.16.51-.44,1.91-.4a4.6,4.6,0,0,1,1.82.41h0a7.11,7.11,0,0,1,2.73,3.15,1.8,1.8,0,0,0-1.48,1.59,41.63,41.63,0,0,0,1.91,9.9A14.12,14.12,0,0,1,43.48,152.82Z"/>
    <path class="cls-2" d="M65,158.94l1.62-.22a.45.45,0,0,0,.38-.5.46.46,0,0,0-.51-.38c-.07,0-7.16,1-10.91,1.1H55.4c-2.8,0-5.46-1.93-6.83-3.28l0,0a7.77,7.77,0,0,1-.75-.84c-.72-1-2.13-8.28-2-9.87a.93.93,0,0,1,.81-.79c1-.25,2.66.46,3.9,2.59a15.61,15.61,0,0,1,1.77,4,1.66,1.66,0,0,0,.7,1.17c.48.29,1-.07,2.08-.73,1.48-.94,3.72-2.35,6.25-2.11a.44.44,0,0,0,.49-.39.46.46,0,0,0-.4-.49c-2.84-.28-5.32,1.3-6.81,2.24a6.47,6.47,0,0,1-1.21.68c-.08-.07-.13-.18-.24-.6a12.77,12.77,0,0,0-.7-1.95c.36-2,3.69-3.63,3.72-3.65a.44.44,0,0,0-.38-.8c-.14.06-2.86,1.39-3.87,3.34-.19-.35-.39-.73-.63-1.15-1.2-2.08-2.69-2.91-3.88-3.06A7.72,7.72,0,0,0,45,139.91c1.92-.19,4.85.48,5.76,1.47,1.08,1.17,5.12,1.5,10.72,1.83l2,.12c4.38.29,5.86,5.21,6.34,6.83.6,2,5.2,6.64,5.8,7.24a61.88,61.88,0,0,1-3.11,7.86A26.08,26.08,0,0,1,69.67,170,45,45,0,0,1,65,158.94Z"/>
    <path class="cls-1" d="M67.45,167.8c.48,1,1,1.95,1.63,2.95-1.56,1.8-2.75,2.15-3.26,2.21C65.75,172.29,65.8,170.54,67.45,167.8Z"/>
    <path class="cls-5" d="M96.63,192.26c-1.62,1.67-4.68,4.22-6,3.94s-15.35-13.7-24.24-22.46a7.44,7.44,0,0,0,3.52-2.65L70,171a25.11,25.11,0,0,0,3.22-5.39,59.24,59.24,0,0,0,3.26-8.33c3,1.82,9.36,5.84,10.59,6.62v7.45a.45.45,0,0,0,.25.4c.53.24,5.79,2.69,12.21,5.64-.84,2.32-2.06,10.45-2.67,14.73A.43.43,0,0,0,96.63,192.26Z"/>
    <path class="cls-5" d="M156.73,197.72c-2.82.56-20.79,3.91-36.68,3.26-12.91-.53-21.2-5.54-22.63-6.47.8-5.88,2.15-14.59,2.91-16.73,9.43,4.32,21,9.55,23.91,10.56l.44.15c4.82,1.65,9,3.08,11.24,5.13A4.59,4.59,0,0,0,139,195a2.74,2.74,0,0,0,.5,0c1.43-.2,2.76-1.27,4-3.17,3-.79,10.58-8.54,17.88-17.08C156.46,186.7,156.62,195.75,156.73,197.72Z"/>
    <path class="cls-2" d="M65.82,124.09c-2.61-1.46-5.27-2.51-7.49-2.51a1.15,1.15,0,0,0-1,.45c-.65,1,0,3.26.4,4.42,1.56-.2,4.32,1.25,8.41,4.4.26-.36.79-1.06,1.46-1.82Z"/>
    <path class="cls-8" d="M69.3,129.9A2.45,2.45,0,0,0,71.53,131a2,2,0,0,0,1.86-1c.53-1.12,2.46-5.72,3.57-8.35a2.11,2.11,0,0,0-.34-2.19l-1.56-1.85a2.11,2.11,0,0,0-1.53-.75l-3.3-.14a2.15,2.15,0,0,0-1.46.5l-1.94,1.65a2.15,2.15,0,0,0-.62,2.33Z"/>
    <path class="cls-5" d="M174.78,133.39a29.33,29.33,0,0,0-10.95-10.12,11.24,11.24,0,0,1-5.11-4.84c-1.69,4.19-5.65,8.32-8.61,11.4-1.79,1.87-3.34,3.48-3.62,4.33a.44.44,0,0,1-.25.27.44.44,0,0,1-.37,0c-3.28-1.71-6.05-2.06-8.25-1.06a66.79,66.79,0,0,0,1.76,8.7.45.45,0,0,1-.26.52c-.15.07-14.42,6.08-19.83,11.11,1.07.36,10.49,2,12.11,4.93a5.74,5.74,0,0,1,3.36-2.11A61.26,61.26,0,0,1,151.1,134a.44.44,0,0,1,.63.05.43.43,0,0,1,0,.62,60.33,60.33,0,0,0-16.1,22.15s8.07,5.22,11.33,8.77a23.8,23.8,0,0,1,2.24,2.87.14.14,0,0,1-.21.19c-3.35-3-14-11.07-14.08-11.09-.85-.26-1.55-.16-2.36,1a2.54,2.54,0,0,0-.33,2.31c.39,1.1,1.45,2.05,1.81,3.17q.89,2.78,1.67,5.58t1.43,5.65c.45,1.89-.38,2.09-.9.22s-1.05-3.73-1.64-5.58-1.21-3.68-1.88-5.5c-.54-1.49-1.11-3-1.71-4.45a3,3,0,0,0-1.32-1.48c-1.61-.9-4.95-2.68-7-3l-1.1-.19c-3.24-.58-18.44-6.83-25.88-10.1a6.32,6.32,0,0,0-1.17.9h0c-3.39,3.18-6.22,10.63-6.52,11.44v13.58c3,1.41,31.81,14.78,36.57,16.41l.44.15c4.91,1.68,9.16,3.14,11.55,5.31a3.53,3.53,0,0,0,2.86,1.13c1.17-.17,2.36-1.18,3.43-2.93a.42.42,0,0,1,.3-.2c4.74-.73,31.85-32.24,33.7-39.16C178.57,145.19,177.16,137.25,174.78,133.39Z"/>
    <g>
      <path class="cls-2" d="M90.56,138.82c-.48-3-2.33-6.32-3.55-8.53a13.22,13.22,0,0,1-1.24-2.52,25.83,25.83,0,0,1,0-5c-.78-.13-2.65-.3-3.79.69a3.81,3.81,0,0,0-1,3.36,15.79,15.79,0,0,1,3.57,4.33.44.44,0,0,1-.2.59.48.48,0,0,1-.2,0,.46.46,0,0,1-.4-.24S82.05,128.18,77,125c-.7,1.68-1.42,3.36-1.92,4.51,1.83,1.52,3,2.67,3.2,2.81a.45.45,0,0,1,0,.63.45.45,0,0,1-.32.14.47.47,0,0,1-.31-.12s-.83-.79-2.12-1.9a19,19,0,0,0-4.14,4.2c.92.81,1.5,1.35,1.51,1.36a.44.44,0,0,1,0,.63.45.45,0,0,1-.63,0c-3.08-2.88-11.68-10.27-14.46-9.91a.67.67,0,0,0-.54.31c-1.5,2.42,3.1,7.27,5,8.94.21.17,5.56,4.51,6.75,6.29.21.31.48.78.83,1.37,1.51,2.59,4.34,7.41,7.47,8.64,3.87,1.52,7.4,2.62,7.44,2.63a.59.59,0,0,1,.17.1l2.15,2v-.23a.4.4,0,0,1,0-.15c.13-.37,2.88-7.9,6.47-11.55A14.34,14.34,0,0,1,90.56,138.82Z"/>
      <path class="cls-2" d="M64.88,121.43a2.89,2.89,0,0,0-.86.74l1.36.66Z"/>
    </g>
    <path class="cls-3" d="M123.46,32.54a20.43,20.43,0,0,1,9.73,4.09,12.85,12.85,0,0,0-6.53-5.56c2.65-7.72,5-16,5-16S125.47,24,122,29.92c-13.4-1.68-29.86,10.81-42.4,19.26,0,.4,0,.8,0,1.2C88.23,45.17,112.77,31,123.46,32.54Z"/>
    <path class="cls-3" d="M132.81,63.13a8.17,8.17,0,0,0,5.85,1.19c2.1-1.84,3.09-3.6,3-5.15C140,61,137.2,61.05,135.1,60.52A5.77,5.77,0,0,1,132.81,63.13Z"/>
    <g>
      <path class="cls-3" d="M114.56,51.22c-2,1.39-9.11,10.3-13.9,13.41-.23.86-.49,1.63-.7,2.31,4.75-2.62,12.54-12.38,14.6-13.84,2.86-2,7.72-1.84,11.06-1a11.88,11.88,0,0,0-4.17-2.45A11.5,11.5,0,0,0,114.56,51.22Z"/>
      <path class="cls-3" d="M101,52.76a5.29,5.29,0,0,0-1.13-.64,12.65,12.65,0,0,1,1.71,5.73A14.27,14.27,0,0,0,101,52.76Z"/>
    </g>
    <path class="cls-9" d="M87.63,70.43a12.7,12.7,0,0,1,3.29-.31,8.42,8.42,0,0,0-.4-2.25v0s-4.44,2.88-8.24,1.4A18,18,0,0,1,83,73.15C83.76,71.81,85.26,70.93,87.63,70.43Z"/>
    <path class="cls-9" d="M122.41,80.93c-1.5-.14-3.84.95-6.47,2-3.44,1.31-5.72.16-6.33-.84a15.34,15.34,0,0,0-4-4,5.08,5.08,0,0,1,.15.59c.58,3.39-4.61,4.47-6.55,6.82A15.44,15.44,0,0,1,95.35,87c-3.66.8-7.71.2-7.79-1.83-.07-1.78,1.31-7.26,2.31-11a10,10,0,0,1-3.62.65,17.92,17.92,0,0,1-2.43-.19l-.75-.09a10.72,10.72,0,0,1-.17,1.85c-.4,2.18-1,5.15.2,8.15a3.39,3.39,0,0,1,1.73-1,4,4,0,0,1,1.9.21s-2.48-.26-3.48,1.26a.49.49,0,0,1,0,.12,32.54,32.54,0,0,0-1.31,5.56l1-.23c.81-1.38,3.36-1.53,5.21-1.4a22.13,22.13,0,0,1,6.45-1c2.15,0,2.21,3.11,1.41,2.84-2.26-.79-5.9.2-10.12,1.2a9.2,9.2,0,0,1,1.09.44c2.84-.44,8.39-1.19,11.24-.83,2.07-.94,10.93-2.63,16.66-3.14a8.43,8.43,0,0,1,1.21-1c-6.52.4-12.53-.06-15.39,1.88-.87.6-1.33-2.49-.05-3.26,3.38-2,11.75-.62,18.88-1.45a16.25,16.25,0,0,0,4.22-1.33C123.83,82.09,123.58,81.05,122.41,80.93Z"/>
    <path class="cls-9" d="M123.31,71.76a3.88,3.88,0,0,1,1.1-.43c-2-.4-4,.22-4.71,2.25A3.92,3.92,0,0,1,123.31,71.76Z"/>
    <path class="cls-9" d="M129.15,76.26A5.32,5.32,0,0,0,126,71.87a3.38,3.38,0,0,0-2,0,4.59,4.59,0,0,1,3.11,3.85,7.11,7.11,0,0,1-2.35,5.55,5.15,5.15,0,0,1,.23,1.47,8.35,8.35,0,0,0,4.17-5.57C129.17,76.9,129.17,76.59,129.15,76.26Z"/>
    <path class="cls-10" d="M154.28,82.55c-1.15.52-3.45,1.15-5.26-.15-1,9.22-4.6,18.09-6.89,19-1.92.76-10.53,2.09-18.29,1.88-.63.06-1.64,1.22-2.8,2.57-1.74,2-3.9,4.52-6.74,5.82A31.17,31.17,0,0,1,102,114.41a16.26,16.26,0,0,1-6.49-1.18,10.86,10.86,0,0,1,.87,1.92c.6,1.95,4.3,2.21,8.23,2.49,3,.21,9.89,1.56,14.1,3.82a.33.33,0,0,1,.13.07,7.86,7.86,0,0,1,2.83,2.3l2-.61h0c5.32-1.65,18.74-6.2,30.48-13.08-2.6-5.84.62-16.58,2.91-22.79C155.6,85.15,154.72,83.12,154.28,82.55Z"/>
    <path class="cls-11" d="M153.48,133.65c-.52-1.09.2-6.05,1.58-9.32-1.62,2-3.42,3.9-4.95,5.5-1.79,1.87-3.34,3.48-3.62,4.33a.44.44,0,0,1-.25.27.44.44,0,0,1-.37,0c-3.28-1.71-6.05-2.06-8.25-1.06a66.79,66.79,0,0,0,1.76,8.7.45.45,0,0,1-.26.52c-.15.07-14.42,6.08-19.83,11.11,1.07.36,10.49,2,12.11,4.93a5.74,5.74,0,0,1,3.36-2.11A61.26,61.26,0,0,1,151.1,134a.44.44,0,0,1,.63.05.43.43,0,0,1,0,.62,60.33,60.33,0,0,0-16.1,22.15s8.07,5.22,11.33,8.77a23.8,23.8,0,0,1,2.24,2.87.14.14,0,0,1-.2.19c-3.36-3-14-11.07-14.09-11.09-.85-.26-1.55-.16-2.36,1a2.54,2.54,0,0,0-.33,2.31c.39,1.1,1.45,2.05,1.81,3.17q.89,2.78,1.67,5.58t1.43,5.65c.45,1.89-.38,2.09-.9.22s-1.05-3.73-1.64-5.58-1.21-3.68-1.88-5.5c-.54-1.49-1.11-3-1.71-4.45a3,3,0,0,0-1.32-1.48l-.09-.05c.8,3.9,5.17,22.3,8,20.42,3.22-2.12-1.89-11.89-2-14s-3.13-5.25-1.8-5.95,9.47,7.57,15.28,11.27c.63.4,1.61-.66,1.29-1.34-1.69-3.62-5.79-7.11-9.17-9.62a6.36,6.36,0,0,1-1.79-8.13C145.15,140.43,154.36,135.48,153.48,133.65Z"/>
    <path class="cls-11" d="M175.1,134a28.09,28.09,0,0,1,.24,14.08c-1.84,6.91-29,38.43-33.7,39.15a.46.46,0,0,0-.3.21c-1.06,1.74-2.25,2.75-3.43,2.92a3.54,3.54,0,0,1-2.86-1.12c-2.39-2.17-6.63-3.63-11.54-5.31l-.44-.15C118.75,182.26,94.65,171.11,88,168v3.08c3,1.41,31.81,14.78,36.57,16.41l.44.15c4.91,1.68,9.16,3.14,11.55,5.31a3.53,3.53,0,0,0,2.86,1.13c1.17-.17,2.36-1.18,3.43-2.93a.42.42,0,0,1,.3-.2c4.74-.73,31.85-32.24,33.7-39.16C178.49,145.5,177.28,138,175.1,134Z"/>
    <path class="cls-11" d="M136.82,200.48c3.42-.3,6.63-.68,9.46-1.06a126.89,126.89,0,0,0,11.05-10.53,64.23,64.23,0,0,1,4-14.18c-7.3,8.54-14.91,16.29-17.88,17.08-1.21,1.9-2.54,3-4,3.17a2.74,2.74,0,0,1-.5,0,4.59,4.59,0,0,1-3.08-1.38c-2.26-2.05-6.42-3.48-11.24-5.13l-.44-.15c-2.93-1-14.48-6.24-23.91-10.56a56.85,56.85,0,0,0-1.41,6.8C106.07,187.71,127.06,196.84,136.82,200.48Z"/>
    <path class="cls-11" d="M87.32,171.77a.45.45,0,0,1-.25-.4v-7.45L83,161.34l-.45,7.88A5.43,5.43,0,0,1,75.09,174l-5.67-2.27a6.76,6.76,0,0,1-3,2.06c8.89,8.76,22.81,22.1,24.24,22.46,1.75.59,5.71-3.59,6.2-4.06.61-4.28,1.83-12.41,2.67-14.73C93.11,174.46,87.85,172,87.32,171.77Z"/>
    <path class="cls-7" d="M38.77,144.45c-.12-.27-4.15-7.49-4.29-7.24A2.11,2.11,0,0,0,34.6,139c.39.53,4,8.5,4.17,8.84a7.12,7.12,0,0,0,2.83,2.79c-.17-.59-.62-2.36-1.06-4.11A5.82,5.82,0,0,1,38.77,144.45Z"/>
    <path class="cls-7" d="M44.87,151.8c-.85-1-1.76-5.33-2.12-6.93a25.19,25.19,0,0,0-2.88-4.76c-.24.34,1.28,4.83,1.49,5.78.35,1.6,1.26,6,2.12,6.93a14.12,14.12,0,0,0,3.3,2,17.24,17.24,0,0,1-.63-2.07A5.46,5.46,0,0,1,44.87,151.8Z"/>
    <path class="cls-7" d="M125.63,129.15l18.7-8.62a99.42,99.42,0,0,0,8.94-8.88,159.13,159.13,0,0,1-29,12.29Z"/>
    <path class="cls-9" d="M104.3,101.26a5.21,5.21,0,0,1-3,2.14,4.64,4.64,0,0,1-3.7-.72,7.86,7.86,0,0,1-1.44-.49.75.75,0,0,0-.86,1.18c1.86,2.09,4.28,3.74,7.15,3.22,2.54-.46,4.18-3.7,5.13-6.38a.75.75,0,0,0-1.26-.76A13.16,13.16,0,0,1,104.3,101.26Z"/>
    <path class="cls-7" d="M62.26,136.58c.21.17,5.56,4.51,6.75,6.29.21.31.48.78.83,1.37,1.51,2.59,4.34,7.41,7.47,8.64,3.87,1.52,7.4,2.62,7.44,2.63a.59.59,0,0,1,.17.1l2.15,2v-.23a.4.4,0,0,1,0-.15c.13-.37,2.88-7.9,6.47-11.55a9.18,9.18,0,0,1-.78-1.06,65.87,65.87,0,0,0-7.67,8.69s-7.32-2.52-9.22-3.6-5.86-9.57-11.55-13.4A27.42,27.42,0,0,1,57,128.58C56.8,131.15,60.58,135.11,62.26,136.58Z"/>
    <path class="cls-7" d="M66.91,129.82a32.71,32.71,0,0,0-5.81-4.44c-1.19-.49-2.69-2.16-3.72-3.44l-.08.09c-.65,1,0,3.26.4,4.42,1.56-.2,4.32,1.25,8.41,4.4C66.28,130.62,66.55,130.25,66.91,129.82Z"/>
    <path class="cls-7" d="M72.66,154.34c.63,1.61,1.15,3.55.39,4.15-1.12.86-4.7.18-6.08-.13a.46.46,0,0,1-.37.36l-1.62.22A45,45,0,0,0,69.67,170a26.08,26.08,0,0,0,2.75-4.75,61.88,61.88,0,0,0,3.11-7.86C75.23,157.1,74,155.81,72.66,154.34Z"/>
    <path class="cls-7" d="M48.58,151.56c-1.82-3.54-2.8-7-2.83-6.63-.1,1.59,1.31,8.88,2,9.87.16.22.78.86.79.87,1.37,1.35,4,3.28,6.83,3.28l1.42-.06A15.85,15.85,0,0,1,48.58,151.56Z"/>
    <path class="cls-7" d="M47.35,143.23c1.18.14,2.65,1,3.85,3l2.21-.62a11.63,11.63,0,0,1,2.32-1.52.44.44,0,0,1,.38.8L56,145a48,48,0,0,1,9.25-1.2,5.58,5.58,0,0,0-1.84-.44l-2-.12c-5.6-.33-9.64-.66-10.72-1.83-.91-1-3.84-1.66-5.76-1.47A7.72,7.72,0,0,1,47.35,143.23Z"/>
    <path class="cls-10" d="M154.28,64.37c-3.46-.78-5.87,2.12-5.87,2.12s1.6-1.72,5.06-.94,4,5.55,4,5.55S157.73,65.15,154.28,64.37Z"/>
    <g>
      <path class="cls-12" d="M121.55,20.91s-19.87.9-35.31,7.35c16.92-7.37,25.73-9.1,35.31-7.35"/>
      <path class="cls-12" d="M122.31,18.33s-17.35.79-30.84,6.42c14.78-6.43,22.47-7.95,30.84-6.42"/>
      <path class="cls-12" d="M125,15.12s-14.55.66-25.86,5.39c12.4-5.4,18.84-6.67,25.86-5.39"/>
    </g>
    <g>
      <path class="cls-12" d="M136.57,23.26a47,47,0,0,1,14.12,12.05c6.63,8.33,6.86,9,6.86,9s-4.1-18.71-21-21"/>
      <path class="cls-12" d="M139.43,21a38.94,38.94,0,0,1,11.75,10c5.51,6.93,5.61,7.28,5.61,7.28S153.48,23,139.43,21"/>
      <path class="cls-12" d="M144,20.92a24.18,24.18,0,0,1,7.31,6.24,54.33,54.33,0,0,1,3.56,4.65S152.75,22.12,144,20.92"/>
    </g>
    <path class="cls-13" d="M156.09,113.23a21.55,21.55,0,0,1-1.42-2c-1.95,2.9-7.54,8.53-14,13.8-10.7,8.73-22.75,26.21-23.81,27.78.53.19,15.88-17.58,23.41-23.73a114.89,114.89,0,0,0,11-10.19,3.77,3.77,0,0,1,5.95.53v0a13.41,13.41,0,0,0,1-2.38C158.49,116.34,157.1,114.54,156.09,113.23Z"/>
    <path class="cls-13" d="M120.08,156.64c.35.06,10.14,2.15,9.55,1.82-1.61-.9-4.95-2.68-7-3l-1.1-.19c-3.24-.58-18.44-6.83-25.88-10.1a6.32,6.32,0,0,0-1.17.9S116.85,156.05,120.08,156.64Z"/>
    <path class="cls-13" d="M174.78,133.39a29.33,29.33,0,0,0-10.95-10.12,11.24,11.24,0,0,1-5.11-4.84,18.13,18.13,0,0,1-1.05,2.12,11.58,11.58,0,0,0,4.69,4.11,29.38,29.38,0,0,1,10.95,10.11C175.69,138.63,177.16,137.25,174.78,133.39Z"/>
    <path class="cls-14" d="M120.93,133.79c-1,.11-5.39.55-5.34,1,1.37.71,4.57,2.24,5.75,2.11,1-.11,3.09-2.65,4.24-4.33C125.58,132.52,121.81,133.7,120.93,133.79Z"/>
    <path class="cls-14" d="M115.33,135.6c-.21.29.23,2.74,1.14,3.09a3.46,3.46,0,0,1,2.25,3.34c-.09,2.82,0,6.47,1.46,4.36a67.14,67.14,0,0,0,.76-8.67C119.27,137.57,116.37,136.14,115.33,135.6Z"/>
    <polygon class="cls-4" points="69.39 129.98 72.07 121.49 64.12 117.49 72.61 120.17 76.61 112.22 73.93 120.71 81.88 124.71 73.39 122.03 69.39 129.98"/>
  </g>
</svg>
