<svg id="Layer_1" data-name="Layer 1" xmlns="http://www.w3.org/2000/svg" viewBox="0 0 210 210">
  <defs>
    <style>
      .cls-1 {
        fill: #13354c;
      }

      .cls-2 {
        fill: #4092b5;
      }

      .cls-3 {
        fill: #f2f2f0;
      }

      .cls-4 {
        fill: #1e5e82;
      }

      .cls-5 {
        fill: #fff;
      }

      .cls-6 {
        fill: #d7dbdc;
      }

      .cls-7 {
        fill: #a2aeb5;
      }

      .cls-8 {
        fill: #ced4d6;
      }

      .cls-9 {
        fill: #347999;
      }

      .cls-10 {
        fill: #4b6577;
      }

      .cls-11 {
        fill: #68a9c5;
      }
    </style>
  </defs>
  <title>2</title>
  <g>
    <path class="cls-1" d="M178.26,189.5c1.08-5.05-.14-19.56-.16-19.72-.34-3.47-7.77-16.52-14-23.65-5.79-6.65-7.94-19.63-7.94-19.63L136.51,122s-4-1.68-4.66-4.46.64-10.29,1.92-12.12c0,0,8.15-9.8,9.54-27,.24-.51,3.05-6.23,3.33-8.3,6-.28,10.2-5.24,10.2-5.24s-8.65-2-9.37-2.46c4.42-2.57,3.34-9,3.34-9l-2.41.83A52.13,52.13,0,0,1,148,48.9c-.48-10.07-1.39-28.75-18.75-35.51-11.3-8.68-25.37-11-41-4.64C59.94,20.27,59,54.21,66.27,69.61a24,24,0,0,0,2,8.35c.83,11.29,3.95,18.64,5.22,21.16a32,32,0,0,0,5.31,7.56c1.45,2.61,1.16,9.8,1,11.1a6.72,6.72,0,0,1-4.49,4.2l-19.83,4.8s-1.92,12.73-7.69,19.35c-6.21,7.13-13.63,20.18-14,23.65,0,.16-1.23,14.67-.16,19.72-.51,1.61.08,6.78,2.5,7.65a7.52,7.52,0,0,0,6.45-1c3.37-.06,12.76-1.17,27.94-3.3.59,2.17,1.65,5.54,1.65,5.54,5.25,6.13,27.09,6.6,33.65,6.6s28.41-.47,33.66-6.6c0,0,.74-2,.92-2.74a259.25,259.25,0,0,0,28.84.5,7.46,7.46,0,0,0,4.32,1.32,7,7,0,0,0,2.14-.32,4.25,4.25,0,0,0,2.52-2.27,7.55,7.55,0,0,0,0-5.38"/>
    <path class="cls-2" d="M41.74,193l-.3-.14-.17.28c-.62,1-2.83,1.45-4.1,1a1.09,1.09,0,0,1-.69-.64,5.47,5.47,0,0,1,.44-3.88l.07-.18-.12-.16c-1-1.43-.28-15.75.07-19.26.21-2.13,6.69-14.41,13.23-21.93,5.91-6.77,7.86-17.36,8.15-19.1l17.4-4L69,137.33l8.22,4.2-2.76,11,18,5.67a5.68,5.68,0,0,0,.59.8c-.27.34-.52.66-.73,1a7,7,0,0,1-4.41,3.18l-.1.06a120.07,120.07,0,0,1-22,3c.16-.4.38-.94.62-1.6.51-1.36,1.12-3.2,1.61-5.07.26-.93.84-3.63.91-4s.4-2.67.42-2.88c0-.42-5.24,13.7-5.55,13.72-9.39.59-16.81,1.06-21.74,4.86l.43.56c4.76-3.66,12.09-4.12,21.35-4.71,7.13-.45,15.2-1,23.79-3.1a71.12,71.12,0,0,0,2.55,17,.5.5,0,0,0,0,.21.38.38,0,0,0,.09.13,36.73,36.73,0,0,0,1.94,5.26c-19.63,3-48.93,7.09-50.5,6.47"/>
    <path class="cls-2" d="M175.49,193.57a1.11,1.11,0,0,1-.7.64c-1.26.42-3.48,0-4.1-1l-.11-.18h-.21c-24.91,1.26-51.6-2.6-55.26-3.15.33-1,1.2-3.53,2.25-7.17a.36.36,0,0,0,.13-.19.43.43,0,0,0,0-.25c1-3.39,2.07-7.65,3-12.36,10.47,1.93,20.44,1.42,29.25,1,8.07-.41,15-.77,19.77,1l.26-.66c-4.89-1.84-11.92-1.48-20.06-1.06-.36,0-5.57-15.62-5.57-15.17s.06.93.1,1.43,1.53,7.88,1.69,8.42,1.7,5,1.87,5.42c-8.33.41-27.42-1.16-27.49-1.18-1.55-.36-2-2.45-2.5-5.35a45.27,45.27,0,0,0-1.17-5l15.78-4.66a15.07,15.07,0,0,0-4.1,10.53c-1.14-.07-2.19-.17-3.1-.31a.37.37,0,0,0-.27.07.31.31,0,0,0-.14.23l-.5,3.32a.36.36,0,0,0,.3.41,73.36,73.36,0,0,0,9.55.49c4.87,0,9.28-.24,9.36-.24a.36.36,0,1,0,0-.71c-.12,0-12.2.64-18.41-.2l.39-2.61c6.28.84,18.43.21,18.56.2a.36.36,0,0,0,0-.71l-1.11,0c1.86-2.4,1.27-4.77.58-7.49-.64-2.54-1.37-5.42-.25-9a.36.36,0,0,0-.1-.37.36.36,0,0,0-.37-.07,34.35,34.35,0,0,0-5.86,2.83l-2.22-8.91,8.22-4.2-6.77-12.26,17.33,4c.31,1.72,2.42,12.33,8.33,19.11,6.54,7.52,13,19.8,13.23,21.93.36,3.51,1.09,17.83.07,19.26l-.11.16.07.18a5.53,5.53,0,0,1,.44,3.88"/>
    <path class="cls-1" d="M83.46,60.25c-.22.13-.44.27-.66.43l.66-.43"/>
    <path class="cls-1" d="M127.75,60.26l.66.42-.66-.42"/>
    <path class="cls-2" d="M141.92,137l-8.07,4.13,2.42,9.69a21.91,21.91,0,0,0-2.76,2.14l-17.06,5a22.46,22.46,0,0,0-1-2.38,90.43,90.43,0,0,0,9.88-14c3.84-6.76,6-13,6.56-18.41l3.22,1.49Z"/>
    <path class="cls-3" d="M116.86,181.84a40.92,40.92,0,0,1-8-3.65c-5.75-3.2-6.49-7.93-7.35-13.41-.11-.69-.22-1.39-.34-2.1a.45.45,0,0,0-.31-.34A21.54,21.54,0,0,1,94.2,159a4.24,4.24,0,0,1-1.59-3.53A2.64,2.64,0,0,1,94,153.43c1,0,8.8.49,13.21,6.19a.42.42,0,0,0,.6.08.43.43,0,0,0,.08-.6,15.13,15.13,0,0,0-1.66-1.8,11.38,11.38,0,0,0,3.2-2c.39.47.76.95,1.09,1.44a.44.44,0,0,0,.36.18.38.38,0,0,0,.24-.08.43.43,0,0,0,.11-.59l-.44-.6a6.93,6.93,0,0,0,3.11-1.15,27.5,27.5,0,0,1,3.12,9.37c.56,2.92,1,5.26,2.81,5.92-.93,4.57-2,8.72-3,12.05"/>
    <path class="cls-3" d="M88.36,163.83a7.63,7.63,0,0,0,4.55-3.37l.65-.86.09.09a21.48,21.48,0,0,0,6.76,3.4c.1.61.19,1.22.29,1.82.53,3.4,1,6.67,2.82,9.48l0,.07c-.36.92-1.47,3.71-10,5.09l-.07,0-2.63,1a70.83,70.83,0,0,1-2.46-16.71"/>
    <path class="cls-3" d="M114.53,153.91l0,0a3.18,3.18,0,0,0,.73-2.43,2.18,2.18,0,0,0-1-1.52,7.61,7.61,0,0,0-2.31-1,23,23,0,0,0-2.79-4.52c2.32-2.33,2.83-7.06,2.94-9.24.93,1.5,1.88,3.14,2.78,4.86l.43.17c9-3,13.7-10.89,15.6-14.92-1.77,10.41-9.32,22.17-15.8,29.69q-.28-.53-.6-1.05"/>
    <path class="cls-3" d="M113.75,153.47a.43.43,0,0,0-.14.16,6.22,6.22,0,0,1-3.45,1.23l-.15-.18a4.37,4.37,0,0,0,.93-1.53,1.89,1.89,0,0,0-.23-1.67c-.62-.86-2.53-1.4-4.95-1.32-.19-.14-.65-.46-1.26-.84,3.31-.45,7.6.11,9.28,1.31a1.35,1.35,0,0,1,.65.9,2.34,2.34,0,0,1-.53,1.8l-.13.13h0"/>
    <path class="cls-3" d="M105.51,156.69a18.59,18.59,0,0,0-7.2-3.48c5-3,10.82-2.47,11.7-1.24a1,1,0,0,1,.1.93c-.37,1.26-2.34,2.89-4.48,3.71a.36.36,0,0,0-.12.08"/>
    <path class="cls-3" d="M95.46,149.67a4,4,0,0,1,3.47-1.84c1.09,0,5.11,2.21,5.45,2.43a16.79,16.79,0,0,0-7.25,2.68l-.79-.13S94.7,150.91,95.46,149.67Z"/>
    <path class="cls-3" d="M101.76,145.38c1.25-.66,4.3,1.23,6.49,3a19.06,19.06,0,0,0-4.88.29,15.54,15.54,0,0,0-3.24-1.46c0-.35.24-1.08,1.63-1.8"/>
    <path class="cls-4" d="M108.53,144.73a22.49,22.49,0,0,1,2.54,4c-.42-.09-.86-.16-1.31-.22a22.26,22.26,0,0,0-5.78-3.76Z"/>
    <path class="cls-4" d="M108.55,144h-5.41c-2.59-2.41-2.86-8.34-2.89-9.7a85.15,85.15,0,0,1,5.67-7.9,83.64,83.64,0,0,1,5.52,7.67c0,.62-.09,7.32-2.89,9.93"/>
    <path class="cls-3" d="M131.22,122.74c-.5,1.42-4.84,12.79-15.83,16.68a86.57,86.57,0,0,0-8.77-13.28c7.27-.29,19.46-4.58,22.56-7Z"/>
    <path class="cls-3" d="M81.75,106.24a41.28,41.28,0,0,0,5.92,4.64,94.67,94.67,0,0,0,15.71,8c-2.67-1.22-5.32-2.5-7.9-3.89A72.35,72.35,0,0,1,88,110.45a39.5,39.5,0,0,1-6.63-5.67,29.21,29.21,0,0,1-4.84-7.16,43.31,43.31,0,0,1-2.87-8.2c-.36-1.41-.68-2.84-1-4.27L72.23,83c-.08-.37-.1-.7-.15-1s-.06-.7-.09-1.06c0-.89,0-1.79,0-2.69,1.7,3.19,5,5.07,8.64,5.92,0,3.35,2.52,9.69,4.25,13.8-.25-2.36-3.67-10.68-3.42-13.62a22.64,22.64,0,0,0,2.59.33c9.28.64,13-1.27,17.08,1.17,1,.61,1.4-3-.11-3.76a10.27,10.27,0,0,0-6-.82C95.85,78.86,96.7,77,96.7,77s-1.27,1-2.61,4.25a.35.35,0,0,1,0,.08,56,56,0,0,1-9.31.46c-6.13-.65-11.69-4.1-11.67-9.64,0-3.41,4.81-7.39,8.42-3.08-1.5-3.6-6.46-2.91-9.08-.11.13-1.85.29-3.69.47-5.52v-.11c-.11-2.53-.24-5.06-.36-7.59a74.37,74.37,0,0,1,1.76-14.13c14.35-20.65,33.93-5.3,53-11.53.19-2.65.23-8.24.24-10.44h.17L129.73,31s8.12,4,9.66,23.18L139,63.32v.09q.32,3.32.56,6.64c-2.21-3.68-8.25-5-9.93-1,3.61-4.31,8.41-.33,8.42,3.08,0,5.54-5.54,9-11.68,9.64a46.8,46.8,0,0,1-6.6-.18,1.62,1.62,0,0,1-.21-.36,8.45,8.45,0,0,0-4-4.45,16.38,16.38,0,0,1,3.2,4.71c-3.59-.38-6.11-.77-8.64.55-1.51.79-1.14,4.37-.1,3.76,4.11-2.44,7.8-.53,17.08-1.17a20.79,20.79,0,0,0,5.15-1c1.17,1.11-.44,4-1.4,6.43-1.61,4-2.82,7.24-3.11,10,2.31-5.51,3.88-9.3,4.79-11.06,1.15-2.22,1.86-4.5,1-5.93a10.77,10.77,0,0,0,6.31-6.66l0,.7c0,1.14,0,2.29,0,3.42a19.2,19.2,0,0,1-.43,3.35c-.43,2.26-.9,4.5-1.5,6.72a42.27,42.27,0,0,1-2.26,6.46,28.93,28.93,0,0,1-2.9,5,13.75,13.75,0,0,0-1.71,2.19,42.8,42.8,0,0,1-9.21,7.68,44.4,44.4,0,0,0,8.46-6.36,12.73,12.73,0,0,0-1.22,3.61,36,36,0,0,0,0,8.76c-2.49,2.24-15.54,7.26-23.21,7.26s-20.75-5-23.24-7.26a35.18,35.18,0,0,0,0-8.76,14,14,0,0,0-.88-3"/>
    <path class="cls-3" d="M82.63,119.15c3.24,2.49,15.39,6.74,22.59,7-.88,1.08-7.39,10.49-8.77,13.28-11-3.89-15.33-15.26-15.83-16.68Z"/>
    <path class="cls-2" d="M79.92,123.27c.91,10.39,5.6,20,14.29,29.31h-.34a.58.58,0,0,0-.2.05,3.5,3.5,0,0,0-1.91,2.8,4.39,4.39,0,0,0,.26,2l-16.75-5.28L78,141.16,69.93,137l6.78-12.27Z"/>
    <path class="cls-2" d="M73,190.1c9.41-1.33,17.76-2.59,19.79-2.9l.5-.07-.24-.45a31.68,31.68,0,0,1-2-5.39l2.64-1c7.4-1.21,9.53-3.45,10.35-5.18a12.1,12.1,0,0,0,1.57,1.74v25c-15.64,0-28-2.2-30.95-5.44-.18-1.06-.66-2.94-1.61-6.36"/>
    <path class="cls-2" d="M137.13,196.46c-2.92,3.23-15.24,5.4-30.82,5.44V177.5a16.22,16.22,0,0,0,2.14,1.42,40.77,40.77,0,0,0,8.18,3.74c-1.3,4.5-2.32,7.31-2.34,7.36l-.14.41.42.07c.17,0,10,1.56,23.37,2.58-.43,1.6-.69,2.71-.81,3.38"/>
    <path class="cls-1" d="M109.57,193.61A2.42,2.42,0,1,0,112,196a2.42,2.42,0,0,0-2.42-2.42"/>
    <path class="cls-1" d="M86.85,61.57a18.1,18.1,0,0,0-6.42,1.17h-.08a10.71,10.71,0,0,1-2.08-.26,21,21,0,0,0,5.41,1.36,49.11,49.11,0,0,0,7.76.93h.18A22.59,22.59,0,0,0,98,64.12s-1.5-1.86-9.89-2.5c-.43,0-.85,0-1.26,0"/>
    <path class="cls-5" d="M86,62.19a3.33,3.33,0,0,0,.92,1.59l-1.33-.22-1.83-.3c-.82-.12-1.47-.23-2-.34A18,18,0,0,1,86,62.19"/>
    <path class="cls-5" d="M92.72,62.8a17.34,17.34,0,0,1,3.71,1.05,29.51,29.51,0,0,1-4.81.34h-.1a3.43,3.43,0,0,0,1.2-1.39"/>
    <path class="cls-5" d="M88.24,62.64c0,.34.45.62,1,.62s1-.28,1-.62-.45-.62-1-.62-1,.27-1,.62"/>
    <path class="cls-1" d="M98,61.16c-3.07,0-7.34-5.29-14.54-.91C89.8,56.53,97.12,62,98,61.16"/>
    <path class="cls-1" d="M113.21,61.16c.89.81,8.2-4.63,14.54-.9-7.2-4.38-11.46.92-14.54.9"/>
    <path class="cls-1" d="M124.37,61.57c-.42,0-.84,0-1.27,0-8.39.64-9.89,2.5-9.89,2.5a22.67,22.67,0,0,0,6.38.66h.18a49,49,0,0,0,7.76-.93,21,21,0,0,0,5.41-1.36,10.63,10.63,0,0,1-2.08.26h-.08a18.08,18.08,0,0,0-6.41-1.17"/>
    <path class="cls-5" d="M125.2,62.19a3.39,3.39,0,0,1-.91,1.59l1.33-.22,1.82-.3c.82-.12,1.47-.23,2-.34a18,18,0,0,0-4.25-.73"/>
    <path class="cls-5" d="M118.49,62.8a17.53,17.53,0,0,0-3.71,1.05,29.71,29.71,0,0,0,4.81.34h.1a3.43,3.43,0,0,1-1.2-1.39"/>
    <path class="cls-5" d="M123,62.64c0,.34-.45.62-1,.62s-1-.28-1-.62.46-.62,1-.62,1,.27,1,.62"/>
    <path class="cls-1" d="M106,94.78c3.91,0,9.93-1.34,14.08-4.43,3.32-2.48,4.92-2.83,9.49-5.1-5.48,1.22-6.86,2.11-9.51,3.88-6.45,4.3-9.45,4.86-12.55,3a1.84,1.84,0,0,1-1.52,1,1.81,1.81,0,0,1-1.5-1c-3.1,1.84-6.11,1.28-12.55-3-2.66-1.77-4-2.66-9.51-3.88,4.57,2.27,6.16,2.62,9.49,5.1C96,93.44,102.05,94.78,106,94.78"/>
    <path class="cls-1" d="M101.94,97.41a4.74,4.74,0,0,0,4,2.12c2.24,0,4-2.12,4-2.12-5,2.53-8,0-8,0"/>
    <path class="cls-1" d="M118.14,112.25a71.25,71.25,0,0,0-7.44-.74,74.83,74.83,0,0,0-7.49-.06c-.62,0-6.19.64-7.4.63s-2.43-.22-2.92-1.31a10,10,0,0,1-.57-1.73,13.22,13.22,0,0,0-.58-1.78c.14.61.24,1.21.33,1.83s.16,2.5,1.34,3.07a6,6,0,0,0,2.37.66,23.79,23.79,0,0,0,3.79-.16c1.22-.13,2.45-.21,3.69-.26,2.46-.13,4.94-.14,7.42-.16Z"/>
    <path class="cls-1" d="M99.89,57.89c-3.79-2.51-4.18-5.56-3.68-9.85-2.61,1.84-3.28,3.62-3.51,5.09A20.64,20.64,0,0,1,89.11,48a5,5,0,0,0-1.3,3.43c-5.57-4.12-15.69-1.67-12.38,5.7-.92-5,6.33-4.73,10.14-3.15,6,2.48,12.12,5.93,14.32,3.87"/>
    <path class="cls-1" d="M126.44,54c3.81-1.58,11.06-1.88,10.14,3.15,3.31-7.37-6.81-9.81-12.38-5.7A5,5,0,0,0,122.9,48a20.64,20.64,0,0,1-3.59,5.09c-.23-1.47-.9-3.25-3.51-5.09.51,4.3.11,7.34-3.68,9.85,2.21,2.06,8.34-1.39,14.32-3.87"/>
    <path class="cls-1" d="M100.45,64.79a7.79,7.79,0,0,0,.21.82,7.16,7.16,0,0,0,.13-.84,15.33,15.33,0,0,0,0-1.83,13.75,13.75,0,0,0-.22-1.82,7,7,0,0,0-.21-.82,5.87,5.87,0,0,0-.12.83,12.16,12.16,0,0,0,0,1.84,12.7,12.7,0,0,0,.21,1.82"/>
    <path class="cls-1" d="M103.25,82.62c.25.16.53.31.82.46a6.26,6.26,0,0,0,1,.37,5,5,0,0,0,1,.24,2.31,2.31,0,0,0,.65,0,3.42,3.42,0,0,0,.54-.18,7,7,0,0,0,.91-.44,12.54,12.54,0,0,0,1.47-.94,10.28,10.28,0,0,0,1.3-1.11s-.17,0-.46.14-.68.24-1.15.42l-.75.32-.81.36c-.28.12-.58.26-.86.37a3.24,3.24,0,0,1-.4.14,1.36,1.36,0,0,1-.36,0,5.7,5.7,0,0,1-.91-.13l-.88-.26c-.29-.09-.57-.21-.83-.31s-.51-.21-.73-.32c-.46-.2-.83-.39-1.1-.52l-.41-.21s.11.13.32.34.54.49,1,.8c.21.15.44.3.69.46"/>
    <path class="cls-1" d="M99.6,71.51c-1.6,1.85-4.39,5.42-1.82,8.07.62.63,1.3.57,3.51,1.44l-3-1.82c-2-1.18.18-6,1.34-7.69"/>
    <path class="cls-1" d="M112.62,71.51c1.16,1.69,3.32,6.51,1.34,7.69l-3,1.82c2.21-.87,2.89-.81,3.51-1.44,2.57-2.65-.22-6.22-1.83-8.07"/>
    <path class="cls-6" d="M141.57,75.48c-.21.43-.42.87-.64,1.31,0-3.12-.18-6.23-.39-9.34a11.6,11.6,0,0,0,3.17.59c0,.23.08.47.11.73.22,1.71-1,4.14-2.25,6.71"/>
    <path class="cls-6" d="M69.16,68.77a7.78,7.78,0,0,1,1.17-3.58,4.67,4.67,0,0,1,1-.72c-.2,2.54-.37,5.07-.48,7.62a4.92,4.92,0,0,0-.07.78c0,.25,0,.51,0,.75,0,.86,0,1.73-.07,2.59-.94-2.49-1.76-5.39-1.51-7.44"/>
    <path class="cls-5" d="M109.57,197.74a1.71,1.71,0,1,1,1.71-1.71,1.71,1.71,0,0,1-1.71,1.71"/>
    <path class="cls-3" d="M142.47,148.73c-10.26,3.88-13.5,9.81-13.5,15.88a88.51,88.51,0,0,0,13,0c3.69-4.34-1.8-8.54.46-15.88m-6.8,12.41a8.54,8.54,0,0,1-2-1.18l1.06-1.6a7.07,7.07,0,0,0,2.2,1.26c.64.19,1,.08,1.14-.31.29-.95-3.77-1.26-2.9-4.14a2.47,2.47,0,0,1,2.77-1.62l.68-2.22,1.88.57-.65,2.18a9.91,9.91,0,0,1,1.73,1.07l-1.06,1.6a5.92,5.92,0,0,0-1.95-1.15c-.6-.18-1-.07-1.07.27-.27.91,3.79,1.17,2.9,4.15a2.52,2.52,0,0,1-2.85,1.65l-.66,2.23-1.9-.57Z"/>
    <path class="cls-7" d="M128.06,33.77c1.16-.38,6.5,2.43,9.93,11.39C135.16,33.69,129.73,31,129.73,31l-2.1-11.38h-.17c0,2.2,0,7.79-.24,10.44-19,6.23-38.6-9.12-52.95,11.53-.21.87-.41,1.81-.59,2.82,14.86-19.32,34.9-4.51,54.38-10.64"/>
    <path class="cls-3" d="M102.51,144.4a2.2,2.2,0,0,0-1.15.22c-1.67.87-2,1.81-2.08,2.39L99,147a4.48,4.48,0,0,0-4.29,2.35,3.21,3.21,0,0,0,.22,2.94c-8.13-8.65-12.74-17.55-14-27.1,1.86,4,6.59,12,15.65,15l.43-.17c.86-1.64,1.75-3.19,2.64-4.63.14,2.27.69,6.76,2.93,9"/>
    <path class="cls-6" d="M102,97.53c-.14-.13,1.12,3.8,4.17,3.73S110,97.41,110,97.41s-1.81,2.12-3.82,2.12a4.77,4.77,0,0,1-4.12-2"/>
    <path class="cls-7" d="M129.1,109.25a12.73,12.73,0,0,1,1.22-3.61,46.44,46.44,0,0,1-8.46,6.36c-2.53.78-3.72.25-3.72.25h-7.46c-2.48,0-5,0-7.42.16-1.24,0-2.47.13-3.69.26s-5.82.48-6.65-.93a5.77,5.77,0,0,1-.85-2.64c-.09-.62-.19-1.22-.33-1.83-1.42-1.39-9-5.33-14.45-8.1a28.36,28.36,0,0,0,4,5.62A39,39,0,0,0,88,110.45,72.35,72.35,0,0,0,95.48,115c2.58,1.39-2.88-.85-7.81-4.09a40.74,40.74,0,0,1-5.92-4.64,14,14,0,0,1,.88,3,35.2,35.2,0,0,1,0,8.76c2.5,2.24,15.57,7.26,23.24,7.26s20.72-5,23.21-7.26a36,36,0,0,1,0-8.76"/>
    <path class="cls-7" d="M92.71,53.13a1,1,0,0,1,0-.17,17.05,17.05,0,0,1-2.81-4.2l-.29.34a25.44,25.44,0,0,0,3.08,4"/>
    <path class="cls-7" d="M96.08,49.48c-.22,3.24.35,5.71,3,7.8-2.26-2.25-2.47-5-2-8.52a11,11,0,0,0-.94.72"/>
    <path class="cls-7" d="M99.81,58c-2.27,1.92-8.33-1.47-14.24-3.93-3.18-1.32-8.76-1.74-10,1.09a3.6,3.6,0,0,0-.16,2.06c.79-3.68,7.13-4,10.94-2.43,6,2.48,12.12,5.93,14.32,3.86a10.57,10.57,0,0,1-.88-.65"/>
    <path class="cls-7" d="M119.31,53.13l0-.17a17.38,17.38,0,0,0,2.82-4.2l.28.34a26,26,0,0,1-3.07,4"/>
    <path class="cls-7" d="M115.93,49.48c.22,3.24-.35,5.71-3,7.8,2.26-2.25,2.47-5,2-8.52q.51.36.93.72"/>
    <path class="cls-7" d="M112.2,58c2.27,1.92,8.33-1.47,14.24-3.93,3.19-1.32,8.77-1.74,10,1.09a3.58,3.58,0,0,1,.17,2.06c-.8-3.68-7.14-4-11-2.43-6,2.48-12.12,5.93-14.32,3.86a10.57,10.57,0,0,0,.88-.65"/>
    <path class="cls-6" d="M109.11,84.54a2.68,2.68,0,0,1,1-2.5c2.53-1.32,5-.93,8.63-.55a16,16,0,0,0-3-4.5l-.26-.07a3.52,3.52,0,0,1-1,2.66c-.62.63-1.3.57-3.51,1.44a10.28,10.28,0,0,1-1.3,1.11,12.54,12.54,0,0,1-1.47.94,7,7,0,0,1-.91.44,3.42,3.42,0,0,1-.54.18,2.31,2.31,0,0,1-.65,0,5.74,5.74,0,0,1-1-.23,6.29,6.29,0,0,1-1-.39,7.93,7.93,0,0,1-.82-.45c-.25-.16-.48-.31-.69-.46s-.63-.51-.83-.7h0L101,80.9c-2-.74-2.6-.72-3.19-1.32a3.49,3.49,0,0,1-1.05-2.41l-.14.07c-.26.59-.93,2.13-1.61,4a10.27,10.27,0,0,1,6,.82,2.4,2.4,0,0,1,1,2.06c1.16.76,2.83,1.63,4.22,1.44a8.7,8.7,0,0,0,2.9-1"/>
    <path class="cls-6" d="M132.2,83.62a20.35,20.35,0,0,1-5.15,1c-9.28.64-13-1.27-17.08,1.17,0,0,1.53-.06,3,0s9.75.25,12,0,6.12-1.23,5.94-.23c-.08.45-4.07,10.86-3.23,14.53.3-2.8,1.51-6,3.11-10,1-2.4,2.58-5.33,1.4-6.44"/>
    <path class="cls-6" d="M83.44,86.27a1.58,1.58,0,0,1,.5-.27c-.48-.22-1-.47-1.55-.75.89.2,1.66.39,2.36.58a36,36,0,0,1,4,0c2.38,0,7.43-.74,9.63-.15a2.53,2.53,0,0,0,2.15-.16c-3.91-2-7.67-.27-16.57-.89a22.47,22.47,0,0,1-2.58-.33c-.26,2.94,3.16,11.26,3.41,13.62,1-1.74-2.22-10.93-1.39-11.65"/>
    <path class="cls-6" d="M130.21,68a3.69,3.69,0,0,1,.63-.62,3.93,3.93,0,0,0-3.58,2.45,4.88,4.88,0,0,1,3-1.83"/>
    <path class="cls-6" d="M138,73.11c-.37-3.13-3.43-5.39-6.25-5.67a4.9,4.9,0,0,0-1,.55,5.26,5.26,0,0,1,5,5c0,3.81-2.62,6.64-6.28,8.24,4.46-1.22,8.08-4,8.57-8.09"/>
    <path class="cls-6" d="M80.9,68a3.69,3.69,0,0,0-.63-.62,3.91,3.91,0,0,1,3.57,2.45A4.84,4.84,0,0,0,80.9,68"/>
    <path class="cls-6" d="M73.14,73.11c.37-3.13,3.42-5.39,6.24-5.67a4.71,4.71,0,0,1,1,.55,5.28,5.28,0,0,0-5,5c0,3.81,2.63,6.64,6.28,8.24-4.46-1.22-8.08-4-8.56-8.09"/>
    <path class="cls-8" d="M115.33,140.19l-.43-.17c-.9-1.73-1.85-3.36-2.78-4.86,0,.56-.08,1.3-.19,2.12l2.52,5.15a38.61,38.61,0,0,0,13-8.92c-4.4,9.87-9.65,15-12.12,18a3.17,3.17,0,0,1-.73,2.4l0,0q.31.53.6,1.05c6.48-7.51,14-19.29,15.8-29.69-1.9,4-6.62,11.89-15.6,14.92"/>
    <path class="cls-8" d="M100.62,145.07a4.26,4.26,0,0,1,.74-.45,2.2,2.2,0,0,1,1.15-.22c-2.24-2.25-2.79-6.74-2.93-9-.52.85-1,1.75-1.57,2.67a11.64,11.64,0,0,0,2.61,7"/>
    <path class="cls-8" d="M95.86,141.8c.28-.61.65-1.61.65-1.61a26.19,26.19,0,0,1-13.34-10.87c-.25-.38-2.25-4-2.31-4.16.07.5.47,2.73.55,3.1,1.79,8.39,6.24,16.29,13.48,24a3.21,3.21,0,0,1-.22-2.94.26.26,0,0,0,0-.09,43.38,43.38,0,0,1-10.17-15.64c2.57,3.33,6.42,7.06,11.31,8.21"/>
    <path class="cls-9" d="M152.83,170c6.81-.33,12.67-.41,16.82,1.15l.25-.66c-4.81-2.09-14.75-.94-17.07-.49"/>
    <path class="cls-9" d="M175.49,192.37a1.11,1.11,0,0,1-.7.64c-1.26.42-3.48,0-4.1-1l-.11-.19h-.21c-24.17,1.23-50-2.36-54.87-3.08l-.39,1.14c3.66.55,30.35,4.41,55.26,3.15h.21l.11.18c.62,1,2.84,1.46,4.1,1a1.11,1.11,0,0,0,.7-.64,3.32,3.32,0,0,0,.15-1.73,2,2,0,0,1-.15.53"/>
    <path class="cls-9" d="M92.44,158.24l-18-5.67,2.76-11L69,137.33l6.78-12.27-1.27.29-6.93,12.3,8.13,4.22-2.42,11.36,18.55,5.59s-1.18,2.62-5.41,3.87c-2.68.79-9.72,1.63-14.49,2.14A3,3,0,0,1,68.73,161c.92-2.93,1.79-6.59,1.2-8.49,0,0-.5-.21-.55.21,0,.21-.17,1.37-.22,1.73s-.35,2-.45,2.43c-.18.89-1.76,6.47-2.27,7.83-.24.66-.46,1.21-.62,1.6a120,120,0,0,0,22-3l.1-.06A7.06,7.06,0,0,0,92.3,160c.21-.29.45-.61.72-1a4.93,4.93,0,0,1-.58-.8"/>
    <path class="cls-9" d="M114.15,190.43l.14-.41c0-.05,1-2.86,2.34-7.35a41.5,41.5,0,0,1-8.18-3.75,15.45,15.45,0,0,1-2.13-1.42V181c1.21.57,5.37,2.65,5.67,4.48.36,2.14-.92,6.9-.92,6.9l26.28,3c.14-.61.34-1.38.58-2.32-13.41-1-23.19-2.56-23.36-2.58Z"/>
    <path class="cls-9" d="M104,175.14c-.82,1.73-3,4-10.35,5.18l-2.64,1a31.68,31.68,0,0,0,2,5.39l.24.45-.5.07c-2,.31-10.38,1.57-19.79,2.9.13.46.25.89.36,1.3,4.29-.44,22.77-2.88,22.77-2.88s-2.61-4.82-2.38-5.46c7.62-1.82,9.73-3.25,11.81-2.52v-3.66a12.1,12.1,0,0,1-1.57-1.74"/>
    <path class="cls-8" d="M103.52,161.35c-6-.09-9.36-4.55-10.66-6.74a2.73,2.73,0,0,0-.25.89A4.24,4.24,0,0,0,94.2,159a21.54,21.54,0,0,0,6.7,3.31.45.45,0,0,1,.31.34c.12.71.23,1.41.34,2.1.86,5.48,1.6,10.21,7.35,13.41a40.92,40.92,0,0,0,8,3.65c.18-.61.35-1.25.53-1.91-14.37-6.27-12.52-13.05-13.87-18.58"/>
    <path class="cls-8" d="M113.88,154.5a7.05,7.05,0,0,1-3.11,1.15l.44.6a.43.43,0,0,1-.11.59.39.39,0,0,1-.25.08.44.44,0,0,1-.35-.18c-.33-.49-.7-1-1.09-1.44a11.38,11.38,0,0,1-3.2,2,15.13,15.13,0,0,1,1.66,1.8.43.43,0,0,1-.08.6h0c.34.3.74.53,1.06.27.65-.53.89-1.78,1.48-2s3.49.23,5.07-.33a19.91,19.91,0,0,0-1.51-3.13"/>
    <path class="cls-8" d="M103.52,174.39c-2-4.49-2.37-6.75-3.11-11.3a22.44,22.44,0,0,1-6.85-3.49s-1.29,1.72-1.62,2.09c2,1.35,4.75,2.86,6.79,2.93a22.88,22.88,0,0,0,2.49,8.5c-2.29,2.92-6.66,5.59-8.3,5.45-1.35-.12-3.28-7.56-4.46-12.7a69.3,69.3,0,0,0,2.36,14.67l2.7-1c5.89-1,9.19-2.65,10-5.16"/>
    <path class="cls-8" d="M130.52,163.65c0-4.6,1.87-9.13,7.25-12.74-6.58,3.75-8.8,8.68-8.8,13.7a88.51,88.51,0,0,0,13,0,6.78,6.78,0,0,0,.64-.89,84.81,84.81,0,0,1-12.13-.07"/>
    <path class="cls-9" d="M146.42,166.35c-.16-.48-1.91-7.8-2-8.35s-.25-2.59-.27-3-1.06-5.92.55-7.89a16.42,16.42,0,0,0-4.89.85,2,2,0,0,1-2.61-1.31l-1.45-4.8,8.62-4-6.22-11.23-1.41-.35-.62-1.11h0l6.77,12.26-8.22,4.2,2.23,8.91a33.64,33.64,0,0,1,5.86-2.83.35.35,0,0,1,.46.43c-1.11,3.62-.39,6.5.25,9,.69,2.72,1.28,5.09-.57,7.49l1.1,0a.36.36,0,1,1,0,.71,9.85,9.85,0,0,0-.53,2.61.35.35,0,0,1,.37.34.36.36,0,0,1-.34.37c-.07,0-4.48.24-9.35.24a71.65,71.65,0,0,1-9.56-.5.34.34,0,0,1-.29-.4l.49-3.32a.39.39,0,0,1,.14-.23.38.38,0,0,1,.27-.07c.91.14,2,.24,3.1.31a15.08,15.08,0,0,1,4.11-10.53l-2.69.79c-1.19,2.22-2.78,5.78-2.67,8.74-2.26-.18-3.21-.35-3.21-.35l-.66,4.57s-1.9,1.25-2.79,0c-.75-1.05-.74-6.73-1.84-9.66l-1.93.57a43.76,43.76,0,0,1,1.18,5c.55,2.9.84,4.72,2.68,5.45s19,1.49,27.3,1.08c-.17-.43-1.24-3.4-1.39-3.89"/>
    <path class="cls-9" d="M91.39,184.55c-9.22,1.71-40.6,7.39-48.9,7-1.79.55-3.44,1.2-4.77,1.12a7.42,7.42,0,0,1,.63-3l.07-.18-.11-.16c-1-1.43-.29-15.75.06-19.26.22-2.13,6.69-14.41,13.24-21.92,5.9-6.78,7.85-17.37,8.14-19.11l15.77-3.62.21-.37-17.41,4c-.28,1.74-2.24,12.33-8.14,19.11-6.54,7.51-13,19.79-13.24,21.92-.35,3.51-1.08,17.83-.06,19.26l.11.16-.07.18a8.23,8.23,0,0,0-.62,2.52h0s0,0,0,.06c-.25,2.86,2.71,2.06,2.74,2.06h0a3.13,3.13,0,0,0,2.24-1.13l.17-.28.3.14c1.57.62,30.87-3.5,50.5-6.47C92.05,186.17,91.74,185.49,91.39,184.55Z"/>
    <path class="cls-8" d="M129.18,119.09c-3.1,2.47-15.29,6.75-22.56,7,.33.4.85,1.06,1.51,1.94a40.27,40.27,0,0,0,21.75-7.73Z"/>
    <path class="cls-8" d="M82,120.24a42.34,42.34,0,0,0,21.7,7.82c.65-.86,1.17-1.52,1.5-1.92-7.2-.25-19.35-4.5-22.59-7Z"/>
    <path class="cls-10" d="M104.94,18.68a41.8,41.8,0,0,1,9,1.61c-8.61-4.76-21.69-6.08-34.37,3.62a43.26,43.26,0,0,1,8.17-3.26,40.79,40.79,0,0,0-10,5.69s17.74-10,38-4a32.32,32.32,0,0,0-10.81-3.66"/>
    <path class="cls-10" d="M109.71,17.54C103.21,14,93.33,13,83.76,20.27c0,0,12.1-6.82,25.95-2.73"/>
    <path class="cls-10" d="M143.54,41.78C142,25.06,132.46,21.69,132.46,21.69c1.39,1.7,2.6,3.26,3.7,4.85a11.43,11.43,0,0,0-3.83-2.73,50,50,0,0,1,5.91,8.6A11.68,11.68,0,0,0,133,27.63c3.83,4.66,5.84,8,8.52,15.46-.25-2.6,0-3.29.69-1.31-.22-2.32.46-2.32,1.3,0"/>
    <path class="cls-11" d="M175.05,189.69l-.08-.18.12-.16c1-1.43.29-15.75-.07-19.26-.21-2.13-6.69-14.41-13.23-21.93-5.91-6.78-8-17.39-8.33-19.11l-1.14-.26h0l-16.19-3.72.62,1.12c3.23.8,11.22,2.81,15.86,4,.86,3.75,3.17,11.92,8,17.52,6.61,7.59,13.15,20,13.36,22.15.36,3.55,1.1,18,.07,19.46l-.11.16.07.18a5.55,5.55,0,0,1,.44,3.93,1.13,1.13,0,0,1-.7.64,3.25,3.25,0,0,1-.65.14,4,4,0,0,0,1.65-.14,1.11,1.11,0,0,0,.7-.64,5.53,5.53,0,0,0-.44-3.88"/>
    <path class="cls-11" d="M168.74,171.6c-4.71-1.48-11.35-1.14-19-.75-8.81.46-18.79,1-29.25-1-1,4.71-2.07,9-3,12.36a.39.39,0,0,1,0,.26.59.59,0,0,1-.13.18c-1,3.64-1.92,6.21-2.25,7.17l.56.08a93.36,93.36,0,0,0,5.71-18.81c10.17,1.19,17.07,1.43,30,.36,12.13-1,16.87,0,17.4.11"/>
    <path class="cls-11" d="M141.92,137l-6.78-12.27-3.22-1.49c0,.23,0,.46-.07.69-.63,5.29-2.81,11.24-6.49,17.72a91,91,0,0,1-9.88,14c.31.66.57,1.31.81,2l.16.42.64-.19L133.51,153a21.91,21.91,0,0,1,2.76-2.14l-2.42-9.69Zm-7.22,13.82a21.91,21.91,0,0,0-2.76,2.14l-15,4.43c-.22-.58-.45-1.18-.74-1.77a89.55,89.55,0,0,0,9.88-14A60.28,60.28,0,0,0,131,130.86a2.93,2.93,0,0,1,5.29-.62c2,3.32,4.06,6.79,4.06,6.79l-8.07,4.13Z"/>
    <path class="cls-11" d="M80,124h0c0-.23-.06-.46-.08-.68l-3.22,1.49L69.93,137,78,141.16l-2.73,10.93L92,157.37c0-.12-.19-.7-.19-.7a3.32,3.32,0,0,1,2.38-4.09C85.71,143.47,81.05,134.08,80,124m11.13,32.5L77,152l2.73-10.93-8.07-4.13a92.94,92.94,0,0,1,4.75-8.56A2,2,0,0,1,80,129c1.69,7.26,6.73,16.29,13.56,23.61-1.19-.12-3,2.15-2.41,3.87"/>
    <path class="cls-11" d="M90.3,181.31a.38.38,0,0,1-.09-.13.5.5,0,0,1,0-.21,71.12,71.12,0,0,1-2.55-17c-8.59,2.13-16.66,2.64-23.79,3.1-8.85.56-15.92,1-20.69,4.25,2.66-1.19,11.34-3,16-3a247.51,247.51,0,0,0,27.76-2.68c.09,9.59,2.66,15.58,4.36,18.51-.3-.79-.62-1.74-1-2.86"/>
  </g>
</svg>
