<svg id="Layer_1" data-name="Layer 1" xmlns="http://www.w3.org/2000/svg" viewBox="0 0 210 210">
  <defs>
    <style>
      .cls-1 {
        fill: #13354c;
      }

      .cls-2 {
        fill: #347999;
      }

      .cls-3 {
        fill: #4092b5;
      }

      .cls-4 {
        fill: #f2f2f0;
      }

      .cls-5 {
        fill: #1e5e82;
      }

      .cls-6 {
        fill: #7199b0;
      }

      .cls-7 {
        fill: #a2aeb5;
      }

      .cls-8 {
        fill: #57c4ea;
      }

      .cls-9 {
        fill: #fff;
      }

      .cls-10 {
        fill: #ced4d6;
      }

      .cls-11 {
        fill: #d7dbdc;
      }

      .cls-12 {
        fill: #4b6577;
      }

      .cls-13 {
        fill: #68a9c5;
      }
    </style>
  </defs>
  <title>4</title>
  <g>
    <path class="cls-1" d="M198.38,91.8h0c-5.1-3.34-18.61-4.84-25.92-5-3.87-.06-7.3,1.91-9.91,5.75a21.61,21.61,0,0,0-2.64,5.38c-.58,1.85-1.68,2.81-3.2,4.14a14,14,0,0,0-4.49,5.74,27.4,27.4,0,0,0-1.59,11.32l-33.83,3.62L93.56,122a41.88,41.88,0,0,0-4.14-5.22c.26-1.8,1.4-7.77,1.69-9.6a10.46,10.46,0,0,1,.86-2.5c3.41,7.46,13.68,8.55,13.68,8.55s-4-14.7-.19-21.27A34.61,34.61,0,0,0,112,83.11c3.44-6.27,6-14.07,7.68-23.17,2-11.06-2.08-26.54-9.54-36-5-6.32-11.18-10-18-10.71C86.38,7.9,77,5.91,65.66,7.63,53.6,9.46,44.53,13.1,37.93,18.77S27.24,32.13,25.62,42.13c-1.43,4.73-3,16.7-2.85,19.46a17,17,0,0,1-1.48,8,60.69,60.69,0,0,0-3.55,22.59c.05.77.49,5,1.14,9.07,1.32,8.38,2.44,9.68,3.56,10.35,0,0,13.51,4,14.52,7.24l-1.61,2.54c-1.64.83-3.33,1.5-5,2.16-4,1.59-8.1,3.23-10.8,6.84-15.68,21-14.66,47-14.66,47s3.61,2.5,4.23,2.9c3.25,4.58,9.9,22,15.27,22l56-2.56a2.78,2.78,0,0,0,2.06-1c.55-.7,13.4-27,18.93-35.06,7.34-4.61,16.35-3.92,18-3.83l30.76,6.71c-4.63,10.85-.42,16.32,4.16,19a11.28,11.28,0,0,0,9.38,1.37c4.74-1.47,9-6.3,12.76-14.35,4.18-9,9-13.52,13.31-17.48,3.37-3.13,6.55-6.07,8.45-10.52,3.32-7.78,2.46-11.76,1.66-14.91a10.48,10.48,0,0,0,2.87-3.7c2.49-5.27,3.41-8.08,1.64-12.4C208.87,104.81,206.82,97.33,198.38,91.8Z"/>
    <path class="cls-2" d="M68.92,155.58l.33-2.83c.61.11,1.83.34,3.78.74A41.48,41.48,0,0,0,68.92,155.58Z"/>
    <path class="cls-3" d="M76.25,152.46a.47.47,0,0,0-.48-.1l-1.25.49c-4-.82-5.57-1.1-5.6-1.1a.45.45,0,0,0-.35.09.44.44,0,0,0-.18.31l-.47,4A26.6,26.6,0,0,0,61.24,162c-6.9,1.8-19.41,5.32-28.51,9.37A85.66,85.66,0,0,1,49,153.5c4.35-3.67,9-7.26,13.44-10.73,11.93-9.27,22.31-17.33,24.31-24.09,3.48,3.82,4.36,5.47,4.58,6a.45.45,0,0,0-.11.19,55.25,55.25,0,0,0-9.64,29.53l-5.27-1.15c0-.1,0-.2.08-.3A.44.44,0,0,0,76.25,152.46Z"/>
    <path class="cls-3" d="M29.46,142.9l-2.38-8.79L36.44,125c-2,10,.42,38,.53,39.22a77,77,0,0,0-4.9,6.51c-.79-4.3-3.37-16.53-7.82-21.66a20.17,20.17,0,0,0,5.18-5.78A.49.49,0,0,0,29.46,142.9Z"/>
    <path class="cls-4" d="M39.91,120.2c1.07,1.08,3.77,2.59,8.4,3.57-2.25,1.75-8.16,6.62-11.7,12.15,0-5.25.33-9.84,1.11-12.26Z"/>
    <path class="cls-5" d="M37.82,163.18c-.19-2.34-.68-8.82-1-16,1.81-2.82,3.36-4.88,4.29-6a1.8,1.8,0,0,1,1.88-.61l4,1.08a1.83,1.83,0,0,1,1.33,1.57c.18,2,.49,5.54.64,9.09C48.8,152.45,40.68,159.86,37.82,163.18Z"/>
    <path class="cls-6" d="M41.61,142.1l4,1.08A1.8,1.8,0,0,1,47,144.75c.18,1.92.48,5.36.63,8.82L49,152.28c-.15-3.55-.46-7.12-.64-9.09A1.83,1.83,0,0,0,47,141.62l-4-1.08a1.8,1.8,0,0,0-1.88.61l-.87,1.12A1.81,1.81,0,0,1,41.61,142.1Z"/>
    <path class="cls-5" d="M47.12,140.69l-3.68-1a2.05,2.05,0,0,1-1.5-1.76,39.73,39.73,0,0,1,0-7.19,68,68,0,0,1,7.27-6.52c.36,1.16,1.19,4.15,2.53,10.26a20.78,20.78,0,0,1-2.41,5.36A2,2,0,0,1,47.12,140.69Z"/>
    <path class="cls-6" d="M49.35,138a2,2,0,0,1-2.23.84l-3.68-1a2.05,2.05,0,0,1-1.5-1.76c-.08-.8-.15.37,0,1.86a2.05,2.05,0,0,0,1.5,1.76l3.68,1a2,2,0,0,0,2.23-.84,20.78,20.78,0,0,0,2.41-5.36q-.12-.56-.24-1.08A20.64,20.64,0,0,1,49.35,138Z"/>
    <path class="cls-4" d="M41.23,139.58a63.46,63.46,0,0,0-4.45,6c-.1-2.62-.16-5.3-.17-7.87a33.51,33.51,0,0,1,4.33-5.89A35.46,35.46,0,0,0,41.23,139.58Z"/>
    <path class="cls-4" d="M49.9,151.54c-.22-4.51-.66-8.88-.76-9.82a19.76,19.76,0,0,0,3-5.43c.38,1.8.8,3.82,1.25,6.11a.45.45,0,0,0,.45.37H54c.07,0,5.57-1.34,11.32-3.39-1.13.89-2.28,1.78-3.43,2.67C57.89,145.12,53.81,148.3,49.9,151.54Z"/>
    <path class="cls-4" d="M67.69,137.48a117.76,117.76,0,0,1-13.48,4.26c-2.2-11-3.52-15.89-4-17.62a53.79,53.79,0,0,0,8.57.63c1.72,0,3.57-.06,5.55-.21,12-.89,18.76-3.94,21.39-5.62C83.77,124.18,76.38,130.61,67.69,137.48Z"/>
    <path class="cls-4" d="M24.08,108.74h0c-1-1-2.78-12.18-3.08-16.81a56.45,56.45,0,0,1,3.33-21.17A20.3,20.3,0,0,0,26,61.43c-.12-2.38,1.43-14,2.68-18.25C53,40.29,75.36,28,83.13,23.36c-2,2.18-5.27,5.46-8.78,8.52l-.42.37.44.35c6,4.69,11.29,16.58,9.17,24.85-1.26,4.94-4.83,7.93-10.61,8.9l-1,.17.8.64c3.36,2.74,9.08,1.65,11.55,1-1.13,1.78-3.58,5.36-5.75,6.71l-1,.6,1.12.24c8,1.76,11.48-2.91,12-3.61.41-.3,2.8-1.93,5-1.35a4.81,4.81,0,0,1,3,3.13c2.22,5.39-3.13,15.25-8.17,17.37-2.61,1.1-6.94-2.84-6.94-2.84,2.15,5,5.5,4.46,7.3,3.7a8.33,8.33,0,0,0,1.45-.8,28,28,0,0,0-.12,5c0,.39,0,.77,0,1.11-2.4,4.18-4,7.21-4.28,9.3-.27,1.78-.55,3.23-.82,4.64-.37,1.93-.72,3.75-1,6.17-1.26,1.14-8.1,5.09-21.82,6.11-15.8,1.17-23.07-3-23.9-4.35C39.86,112.08,27.78,109.39,24.08,108.74Z"/>
    <path class="cls-3" d="M24,199c-3.38-.39-11.9-20.44-11.9-20.46s.79-5.77,1.26-8.65,1-5.74,1.61-8.59,1.3-5.68,2.12-8.48,3.32-8,2.75-8.61-2.67,5.21-3.62,8-1.75,5.58-2.46,8.42-1.37,5.69-2,8.56c-.54,2.65-1,5.29-1.49,8-.93-.5-1.84-1.06-2.23-1.31C8,173.3,8,151.31,22.17,132.28c2.15-2.88,5.68-4.28,9.41-5.77,1.11-.44,2.24-.9,3.37-1.4l-8.71,8.53a.46.46,0,0,0-.12.46l2.4,8.86a20.44,20.44,0,0,1-5.23,5.63.48.48,0,0,0-.18.33.44.44,0,0,0,.12.36c4.83,5.05,7.59,19.58,8.1,22.52a64.34,64.34,0,0,0-3.57,6.32C25,183.7,24.22,197.73,24,199Z"/>
    <path class="cls-3" d="M119.82,156.54h-.06c-.75-.05-12.07-1.2-20.6,4.65a.49.49,0,0,0-.12.13c-5.09,7.48-17.56,33.37-19,35.16L25,199c.25-1.36,1.1-15.28,3.67-20.52a57.4,57.4,0,0,1,3.23-5.75H32l.07,0h.06c8.64-4,21-7.55,28.28-9.49a19.55,19.55,0,0,0-3.43,10.92l-3.28,0h0a.44.44,0,0,0-.45.39l-.65,4.32a.48.48,0,0,0,.1.37.53.53,0,0,0,.35.17l24.54.33h0a.47.47,0,0,0,.47-.46.46.46,0,0,0-.46-.47l-24-.32L54,175l20.92.28h0l3.21,0a.47.47,0,0,0,.47-.45.45.45,0,0,0-.45-.47l-2.3,0c2.09-3,1.42-6.09.64-9.59-.69-3.07-1.45-6.51-.47-10.65,1.63.34,3.57.77,5.85,1.28a.49.49,0,0,0,.39-.09.46.46,0,0,0,.17-.36,54.74,54.74,0,0,1,8-27.33s-.46,2.26-.63,3.27a33.79,33.79,0,0,0-.39,6.11,23.61,23.61,0,0,0,.92,6c.59,1.94.81,1.85.34-.09a22.89,22.89,0,0,1-.56-5.94,33.59,33.59,0,0,1,.71-5.92c.23-1,.48-1.94.72-2.9,0,0,.94-2.91.94-2.92l23.11.68a18.89,18.89,0,0,0-1.57,4.19,34.16,34.16,0,0,0-.91,10.43c.16,1.73.91-7,1.9-10.12a27.34,27.34,0,0,1,2.09-4.49l34.46-3.68a21.08,21.08,0,0,0-2.27,9.13,9.35,9.35,0,0,0,2.14,5.52,98.79,98.79,0,0,0-.07,26.48Z"/>
    <path class="cls-7" d="M151.49,152.74a95.82,95.82,0,0,1,.78-14.83,21.13,21.13,0,0,0,1.54,1.58,24.56,24.56,0,0,0,7.59,4.84,62.2,62.2,0,0,1,4.68,6.26,25.18,25.18,0,0,1-3,2.69c-.12.09-.24.18-.35.28Z"/>
    <path class="cls-1" d="M119.5,134.32a32.61,32.61,0,0,0-1.16,8.94,33.86,33.86,0,0,0,1.16,8.94c0-1.51-.14-3-.17-4.48s-.08-3-.07-4.46S119.5,134.32,119.5,134.32Z"/>
    <path class="cls-1" d="M35.46,78.92C37,79,41.72,80,43.83,77.17c1.38-2.2.1-4.15-1.38-5.2a3.93,3.93,0,0,0-2.07-.83,3,3,0,0,1,2.2.31c1.85.87,3.73,3.06,2.08,6.13s-7.72,1.79-9.2,1.34"/>
    <path class="cls-1" d="M40,77.82s1.49-1.19-1.05-2.08-4.4-.08-4.21.51,2.93,2.18,5.26,1.57"/>
    <path class="cls-1" d="M89.56,75.71s3-3.95,6.1-1.72.86,7.31.86,7.31,1.3-5.06-1.53-6.36a5.62,5.62,0,0,0-5.43.77"/>
    <g>
      <path class="cls-4" d="M196.36,129a9.4,9.4,0,0,1-3.38.64c.66,2,2,7.83-3.43,13.48s-12.18,2.76-18.05.1c-4.38-2-8.52-3.86-11.5-1.81a.46.46,0,0,1-.52-.77c3.41-2.34,7.78-.36,12.4,1.74,5.87,2.66,11.94,5.41,17,.1,5.6-5.87,3.58-11.74,3.08-12.92-14.32-3.65-25.6-6-26-6.11a.48.48,0,0,1-.38-.54.46.46,0,0,1,.53-.38l2.94.63a30.88,30.88,0,0,1,2.82-9.87,16.09,16.09,0,0,1,5-6.57c-.55,0-.86,0-.88,0a.48.48,0,0,1-.5-.43.47.47,0,0,1,.43-.5c.12,0,12.13-.73,25.19,7,4.22-7.52,2.76-13.48-4.48-18.23-4.3-2.81-16.75-4.31-24.22-4.47-6.62-.16-9.36,8.75-9.38,8.84a11.8,11.8,0,0,1-4.18,5.62,11.19,11.19,0,0,0-3.58,4.46c-1.95,5-1.48,7.46-1.2,8.91a6.2,6.2,0,0,1,.14.93,5.48,5.48,0,0,1-.9,2.23,21.55,21.55,0,0,0-3,10.39c0,2.25,1.46,4.88,4.18,7.39a23.72,23.72,0,0,0,7.38,4.69l.12,0,.08.09a61.12,61.12,0,0,1,4.67,6.21,11,11,0,0,0,1.43-2.54.47.47,0,0,1,.61-.25.46.46,0,0,1,.25.6c-1.26,3.09-3.16,4.6-5.36,6.35a31,31,0,0,0-9.34,11.3c-4.32,8.33-3.76,14.19,1.67,17.4a8.07,8.07,0,0,0,6.77,1.06c3.82-1.19,7.45-5.43,10.77-12.61,4.45-9.61,9.78-14.54,14-18.5,3.25-3,6.05-5.6,7.68-9.41,3-7,2.16-10.25,1.43-13.11C196.54,129.73,196.45,129.35,196.36,129Z"/>
      <path class="cls-4" d="M190.39,109c-4.48,6.9-6.7,12.6-7.38,17.39,2.85.69,6,1.46,9.25,2.3h.09a8,8,0,0,0,4.05-.69.41.41,0,0,1,.21-.1h0a7,7,0,0,0,3.18-3.36c2.49-5.27,2.93-7.07,1.11-10.8A50.23,50.23,0,0,0,190.39,109Z"/>
    </g>
    <path class="cls-1" d="M176.27,124.59a.46.46,0,0,1-.33-.13l-7.58-7.53a.47.47,0,0,1-.12-.45L171,106.15a.45.45,0,0,1,.32-.33l10.32-2.8a.45.45,0,0,1,.44.12l7.58,7.53a.45.45,0,0,1,.12.45L187,121.45a.46.46,0,0,1-.33.33l-10.31,2.8Z"/>
    <polygon class="cls-8" points="169.21 116.46 176.41 123.61 186.2 120.96 188.8 111.14 181.6 103.99 171.8 106.64 169.21 116.46"/>
    <path class="cls-1" d="M64.77,110.36c-14-6.89-20.3-28.11-29.17-28.75-1.18-.08,1.38-2.5,3-2.15,13.26,2.79,17.32,22.47,26.15,30.9"/>
    <path class="cls-1" d="M25,92.43a10.71,10.71,0,0,1,6-8,2.15,2.15,0,0,0,3.46-.35A21.28,21.28,0,0,1,45.62,95.29c-4.56-4.69-8.09-8.47-12.33-8.21-4.06.24-5.6,1.93-8.3,5.35"/>
    <path class="cls-1" d="M76.05,55.69c-2.6-2.48-6.9-5.18-10.56-4.82-2.62.26-14.76,5.06-20.44,5,2.75-2.51,7.67-7,7.59-13.5,0,0,2.44,2.85,1,8.26A9.72,9.72,0,0,0,56.87,43a7.63,7.63,0,0,1,1,4.75c3.21-1.94,10.66-3.58,15.56-4.58l-3.2,5.2s4.45,2.92,5.79,7.37"/>
    <path class="cls-1" d="M50.73,60.27C56.67,54.77,66,59,66.58,60c-8.95-4.49-15.85.26-15.85.26"/>
    <path class="cls-1" d="M66.77,61.49A4,4,0,0,1,65,60.76a9.63,9.63,0,0,0-5.81-1.51c-7.94.08-10.69,3.45-10.69,3.45a17.45,17.45,0,0,0,7.06,1.22,37.72,37.72,0,0,0,8-.92c2.31-.52,8-1.08,8-1.08Z"/>
    <path class="cls-9" d="M60.73,61c0,.43-.75.77-1.68.77s-1.69-.34-1.69-.77.75-.77,1.69-.77,1.68.34,1.68.77"/>
    <path class="cls-1" d="M29,91.73a6.32,6.32,0,0,1,3.87-1.68,5.72,5.72,0,0,1,4.89,2.79c-3.36-2.24-5.38-1.91-8.76-1.11"/>
    <path class="cls-9" d="M55.94,60.48a3.74,3.74,0,0,0-.67,2.13,3.29,3.29,0,0,0,0,.54,13.83,13.83,0,0,1-4.59-.81,10.88,10.88,0,0,1,5.21-1.86"/>
    <path class="cls-9" d="M62.83,62.26a3.77,3.77,0,0,0-.49-1.54,12.41,12.41,0,0,1,2.43,1.05c-.13,0-.85.24-1.94.49"/>
    <path class="cls-1" d="M30.94,79c-12.72,3.24-13.57,20.17-19.3,28.44,9.75-8.23,10.16-24.27,21.78-26.33l-5-6.8a3.44,3.44,0,0,1-.6-3,65.51,65.51,0,0,1,4.36-6.58c2.52-3.58,3.34-5.14,3.51-5.85a6.91,6.91,0,0,0-1-4.93s-3.85-.75-4.9-3.94c-.42,1.63.82,4.73,1.08,4.59-.84.46-2.92-.14-2.92-.14A2.43,2.43,0,0,0,28.31,56a5,5,0,0,0-2.46,5c1.13-2.12,6.95-4.65,9.4-2.91-.31.57-.85,1.45-1.47,2.42-3-1.26-6.51,1-8.36,2.51-.09.18-.09.18-.09.24,1.88-1.3,5.06-2.78,7.9-1.89a16.35,16.35,0,0,0-8.3,4.18,13.82,13.82,0,0,0,5.18.35c-1.61,2.31-2.86,4.34-3.25,5.07-1.35,2.52,3,6.47,4.08,8"/>
    <path class="cls-9" d="M31.52,63.51c0,.34-.46.61-1,.61s-1-.27-1-.61.46-.61,1-.61,1,.27,1,.61"/>
    <path class="cls-9" d="M26.89,65.06l.61-.46a3.05,3.05,0,0,0,.2.53,7.38,7.38,0,0,1-.81-.07"/>
    <path class="cls-9" d="M58.35,173.77c0-7.49,4-14.85,16.72-19.64-2.79,9.06,3.68,14.51-.87,19.85Z"/>
    <path class="cls-1" d="M67.07,170.52a10.36,10.36,0,0,1-2.5-1l.92-2a8.09,8.09,0,0,0,2.75,1c.76.1,1.19-.09,1.25-.56.15-1.15-4.55-.74-4.09-4.2a2.88,2.88,0,0,1,2.88-2.37l.35-2.67,2.27.3-.35,2.63a11,11,0,0,1,2.18.9l-.91,2a6.93,6.93,0,0,0-2.45-1c-.71-.1-1.12.1-1.17.51-.15,1.08,4.55.63,4.08,4.2a2.91,2.91,0,0,1-2.94,2.42L69,173.44l-2.26-.3Z"/>
    <g>
      <path class="cls-1" d="M35,181.27a2.85,2.85,0,1,1,2.85-2.85A2.85,2.85,0,0,1,35,181.27"/>
      <path class="cls-4" d="M35,176.43a2,2,0,1,0,2,2,2,2,0,0,0-2-2"/>
      <path class="cls-10" d="M35.17,179.84a1.74,1.74,0,0,1-1.74-1.74,1.7,1.7,0,0,1,.21-.8,1.77,1.77,0,0,0-.48,1.19,1.73,1.73,0,0,0,3.27.8,1.73,1.73,0,0,1-1.26.55"/>
    </g>
    <path class="cls-7" d="M83.92,55.27c.83-8.06-4.08-18.37-9.55-22.67l-.44-.35.42-.37c3.51-3.06,6.73-6.34,8.78-8.52C75.36,28,53,40.29,28.69,43.18c0,.09,28.12-1.46,43.67-10C80.73,39.74,82.77,47.57,83.92,55.27Z"/>
    <path class="cls-7" d="M70.87,48.76l2.59-4.2-1,.21-2.18,3.55S70.5,48.47,70.87,48.76Z"/>
    <path class="cls-7" d="M65.49,50.87c-2.39.24-12.71,4.26-18.81,4.89-.58.57-1.14,1.08-1.63,1.52,5.68.09,17.82-4.71,20.44-5,3.66-.36,8,2.34,10.56,4.82A10.65,10.65,0,0,0,75,54.75C72.37,52.58,68.69,50.56,65.49,50.87Z"/>
    <path class="cls-11" d="M35.25,58.09c-2.35-1.67-7.81.59-9.24,2.65q0,.42,0,.69,0,.55,0,1.11c2-1.43,5.07-3.16,7.74-2C34.4,59.54,34.94,58.66,35.25,58.09Z"/>
    <path class="cls-11" d="M26,62.8a17,17,0,0,1-.1,1.86,16.12,16.12,0,0,1,7.29-3.29C30.72,60.58,28,61.65,26,62.8Z"/>
    <path class="cls-11" d="M30.94,79c-1.11-1.57-5.43-5.52-4.08-8,.39-.73,1.64-2.76,3.25-5.07a15.54,15.54,0,0,1-4.33-.13,24.9,24.9,0,0,1-1.47,5A57.13,57.13,0,0,0,21,86.85C23.29,83.15,26.33,80.18,30.94,79Z"/>
    <path class="cls-11" d="M44.22,72.65a4,4,0,0,1,.44,4.93c-1,1.84-3.52,2.12-5.73,2,9.77,2.27,14.49,13.79,20,22.93-1.24-5-7.39-21-9.52-24.52A18.73,18.73,0,0,0,44.22,72.65Z"/>
    <path class="cls-7" d="M74.77,68.31c-.59.16-1.2.29-1.84.4l-1,.17.8.65c2.66,2.16,6.79,1.93,9.63,1.42.78-1,1.46-2.07,1.92-2.79C82.26,68.69,78.07,69.51,74.77,68.31Z"/>
    <path class="cls-7" d="M92.26,91.31a8.33,8.33,0,0,1-1.45.8,4.79,4.79,0,0,1-5.93-1.38c-1.33,4.6-9.77,5.68-13.45,5.59-5.18-.12-12-.28-15.82.4,2.88,5.15,5.64,10.29,9.16,13.64a31,31,0,0,1-9-7.06,7.85,7.85,0,0,1-.69,2c-1.15,2.2-13.34,2.74-23.56-.22-2.6-.76-7.19-.89-8.61.11a10.72,10.72,0,0,0,1.15,3.59h0c3.7.65,15.78,3.34,16.25,10.53.83,1.39,8.1,5.52,23.9,4.35,13.72-1,20.56-5,21.82-6.11.31-2.42.66-4.24,1-6.17.27-1.41.55-2.86.82-4.64.33-2.09,1.88-5.12,4.28-9.3A51.81,51.81,0,0,1,92.26,91.31Z"/>
    <path class="cls-11" d="M32.81,82.69c8.31-1.12,16.88,18.89,22.2,19.78-7.8-8.84-12.9-20.39-19.41-20.86-.44,0-.36-.39,0-.81,1.49-1.37,2.1-1.3,2.41-1.36A20.82,20.82,0,0,1,30.39,77l3,4.09C27.1,82.24,24.09,87.5,21.1,93.39c0,.39.08.81.13,1.24C23.71,90.94,25.92,83.61,32.81,82.69Z"/>
    <path class="cls-11" d="M37.17,92a4.21,4.21,0,0,1,.63.88c-3.36-2.24-5.38-1.91-8.76-1.11A12.35,12.35,0,0,0,26,94.46c4.55-1.89,9-2.42,14.74.93A8.69,8.69,0,0,0,37.17,92Z"/>
    <path class="cls-11" d="M39.33,133.74a40.74,40.74,0,0,0,.31,7.82c.78-1,1.34-1.69,1.59-2a35.46,35.46,0,0,1-.29-7.74C40.39,132.46,39.85,133.09,39.33,133.74Z"/>
    <path class="cls-11" d="M50.83,143.93a1.07,1.07,0,0,1,2,.31c.19.92.39,1.9.59,2.92a.43.43,0,0,0,.2.3.49.49,0,0,0,.25.08l.11,0,1.32-.33c2.19-1.74,4.4-3.46,6.57-5.15,1.15-.89,2.3-1.78,3.43-2.67-5.75,2-11.25,3.37-11.32,3.39h-.11a.45.45,0,0,1-.45-.37c-.45-2.29-.87-4.31-1.25-6.11a19.76,19.76,0,0,1-3,5.43c.06.53.22,2.14.39,4.25A18.72,18.72,0,0,0,50.83,143.93Z"/>
    <path class="cls-11" d="M85,119.35c-3,1.72-9.65,4.37-20.67,5.19-2,.15-3.83.21-5.55.21a53.79,53.79,0,0,1-8.57-.63c.14.47.35,1.18.61,2.18a65.53,65.53,0,0,0,8.1.49C71,126.79,81.28,123.67,85,119.35Z"/>
    <path class="cls-11" d="M38.12,123a38.21,38.21,0,0,0,8,2.51c.88-.74,1.64-1.35,2.18-1.77-4.63-1-7.33-2.49-8.4-3.57Z"/>
    <path class="cls-2" d="M23.11,148.92a.48.48,0,0,1,.18-.33A20.44,20.44,0,0,0,28.52,143l-2.4-8.86a.46.46,0,0,1,.12-.46L35,125.11c-1.13.5-2.26,1-3.37,1.4-3.73,1.49-7.26,2.89-9.41,5.77C8,151.31,8,173.3,8.09,175.81c.39.25,1.3.81,2.23,1.31.45-2.67.95-5.31,1.49-8q.88-4.31,2-8.56t2.46-8.42c.95-2.77,3-8.55,3.62-8s-1.92,5.83-2.75,8.61-1.52,5.63-2.12,8.48-1.13,5.72-1.61,8.59-1.26,8.65-1.26,8.65.23.58.51,1.2c1.47-7.87,4.8-24.71,6.21-28.19,1.85-4.59,6.33-14.86,6.8-11.7a9.6,9.6,0,0,1-3,8c-1.63,1.22-.11,3.14.29,3.73s5.57,11.78,5.73,20.81c-.14,1.27-8.38,12.36-7.55,23.89,1.07,1.46,2.16,2.66,2.92,2.75.21-1.26,1-15.29,3.75-20.87a64.34,64.34,0,0,1,3.57-6.32c-.51-2.94-3.27-17.47-8.1-22.52A.44.44,0,0,1,23.11,148.92Z"/>
    <path class="cls-2" d="M54.1,167.66c1.74-.29,1.2,4.81,1,6.43l1.85,0a19.55,19.55,0,0,1,3.43-10.92c-7.33,1.94-19.64,5.48-28.28,9.49H32l-.07,0h-.1c-.59.93-1.13,1.83-1.61,2.69C34,173.55,44.28,168.82,54.1,167.66Z"/>
    <g>
      <path class="cls-2" d="M84.33,157s3.31-21,5.83-27.82l.31-1.55a54.74,54.74,0,0,0-8,27.33.46.46,0,0,1-.17.36.49.49,0,0,1-.39.09c-2.28-.51-4.22-.94-5.85-1.28a14.34,14.34,0,0,0-.29,1.54Z"/>
      <path class="cls-2" d="M78.25,175.31,54,175l-.51,3.4,24.13.35C77.45,177.63,78.44,176.46,78.25,175.31Z"/>
      <path class="cls-2" d="M149.33,131.41a21.08,21.08,0,0,1,2.27-9.13l-4.08.39c-1,3.82-2,9.67-.35,13.25,1.47,2.52.84,21.23-.1,22.82s-15.65-5.41-24.66-6-27.81-8.94-27.18-1.84-15.4,45.57-15.4,45.57h.23c1.42-1.79,13.89-27.68,19-35.16a.49.49,0,0,1,.12-.13c8.53-5.85,19.85-4.7,20.6-4.65h.06l31.58,6.87a98.79,98.79,0,0,1,.07-26.48A9.35,9.35,0,0,1,149.33,131.41Z"/>
    </g>
    <path class="cls-11" d="M69.11,172.5l-.13.94-2.26-.3.09-.67-2.61,0a2.75,2.75,0,0,1-2.68-3.2c.89-5.34,4.24-10.44,11.74-14.37C62,159.65,58.35,166.65,58.35,173.77L74.2,174a7.87,7.87,0,0,0,1-1.4Z"/>
    <path class="cls-11" d="M196.36,129a9.4,9.4,0,0,1-3.38.64c.66,2,2,7.83-3.43,13.48s-12.18,2.76-18.05.1c-3.38-1.53-6.62-3-9.29-2.64h0a10,10,0,0,0-2.85.71c-.15-.21,3.26-1.72,4-1.69-.51-.1-1-.18-1.46-.23a4.63,4.63,0,0,1-2.6-1.15c-.8-.71-1.69-1.55-2.68-2.55-5-5-.32-12.71-.65-14.58s.25-9.29,1-12.06,6-6.27,6.35-8.47c.17-1.11.58-3,.95-4.55a17.44,17.44,0,0,0-1.25,2.9,11.8,11.8,0,0,1-4.18,5.62,11.19,11.19,0,0,0-3.58,4.46c-1.95,5-1.48,7.46-1.2,8.91a6.2,6.2,0,0,1,.14.93,5.48,5.48,0,0,1-.9,2.23,21.55,21.55,0,0,0-3,10.39c0,2.25,1.46,4.88,4.18,7.39a26.09,26.09,0,0,0,3.13,2.46,18.59,18.59,0,0,0,4.25,2.23s4.15,5.24,4.87,6.34a11,11,0,0,0,1.43-2.54.47.47,0,0,1,.61-.25.46.46,0,0,1,.25.6,11.85,11.85,0,0,1-1.34,2.46c5.42,0,13.75-.16,14.67,1.51,1.16,2.11-6.34,10-9.63,17.09s-7,11.43-10.77,12.62a8.1,8.1,0,0,1-6.77-1.06,9.13,9.13,0,0,1-3.58-3.62,8.55,8.55,0,0,0,4.39,6,8.07,8.07,0,0,0,6.77,1.06c3.82-1.19,7.48-5.42,10.77-12.61a59.71,59.71,0,0,1,13-17.56s6.88-5.6,8.69-10.35C197.93,136.12,197.7,134.28,196.36,129Z"/>
    <g>
      <path class="cls-12" d="M94,33a65.56,65.56,0,0,1,10.44,23.78c3.27,14.53,3.17,15.49,3.17,15.49S113.86,46.21,94,33"/>
      <path class="cls-12" d="M99,31.94a54.52,54.52,0,0,1,8.69,19.78c2.72,12.09,2.64,12.59,2.64,12.59S115.48,42.93,99,31.94"/>
      <path class="cls-12" d="M104.8,34.57a34.1,34.1,0,0,1,5.41,12.32c1.69,7.53,1.64,8,1.64,8s3.23-13.51-7-20.35"/>
      <path class="cls-12" d="M70.78,22.22S51.19,21.16,35.4,26c17.34-5.57,26.15-6.41,35.38-3.76"/>
      <path class="cls-12" d="M71.78,19.77s-17.11-.94-30.9,3.28c15.14-4.87,22.83-5.61,30.9-3.28"/>
      <path class="cls-12" d="M74.68,16.88s-14.34-.78-25.9,2.75c12.69-4.08,19.14-4.7,25.9-2.75"/>
    </g>
    <path class="cls-13" d="M86.73,118.68c-2,6.76-12.38,14.82-24.31,24.09C58,146.24,53.33,149.83,49,153.5c5.05-.94,31.2-19.66,35.11-25.6a3,3,0,0,1,4.82-.15c.08.1,2.35-3,2.4-3.09C91.09,124.15,90.21,122.5,86.73,118.68Z"/>
    <path class="cls-13" d="M34.76,126.59c-1.71,9.67,1.61,38.3,2.21,37.58-.11-1.27-2.49-29.21-.53-39.22Z"/>
    <g>
      <path class="cls-13" d="M132.59,125.53a.47.47,0,0,0-.13-.92c-5.53.53-10.74,1-13.92,1.22l-1.4.13c-.36.64-.7,1.29-1,2C120.27,127.54,126.86,126.51,132.59,125.53Z"/>
      <path class="cls-13" d="M113.27,128.06c.41,0,.91,0,1.48,0,.26-.7.56-1.38.88-2.07l-23.11-.7v.1l-.92,2.84S107.23,127.94,113.27,128.06Z"/>
    </g>
    <polygon class="cls-9" points="180.64 131.48 179.37 112.93 160.86 111.22 179.41 109.96 181.11 91.44 182.38 109.99 200.89 111.7 182.34 112.97 180.64 131.48"/>
  </g>
</svg>
