<svg id="Layer_1" data-name="Layer 1" xmlns="http://www.w3.org/2000/svg" viewBox="0 0 210 210">
  <defs>
    <style>
      .cls-1 {
        fill: #13354c;
      }

      .cls-2 {
        fill: #4092b5;
      }

      .cls-3 {
        fill: #f2f2f0;
      }

      .cls-4 {
        fill: #a2aeb5;
      }

      .cls-5 {
        fill: #1e5e82;
      }

      .cls-6 {
        fill: #fff;
      }

      .cls-7 {
        fill: #d7dbdc;
      }

      .cls-8 {
        fill: #a1aeb4;
      }

      .cls-9 {
        fill: #347999;
      }

      .cls-10 {
        fill: #ced4d6;
      }

      .cls-11 {
        fill: #4b6577;
      }

      .cls-12 {
        fill: #68a9c5;
      }

      .cls-13 {
        fill: #7199b0;
      }

      .cls-14 {
        fill: #57c4ea;
      }

      .cls-15 {
        fill: #c4eaf8;
      }
    </style>
  </defs>
  <title>15</title>
  <g>
    <path class="cls-1" d="M77.37,194.49C76,191.78,74.56,183.93,70,174.25l-6.07,2.87c-2.34,2.59-4.79,1.9-6.42.51-1.4-.93-24.11-15.16-25.63-16.06,0,0-.66-2.61,1.11-4.1-3-.25-8.59-1.08-12.31-3.73C5.48,151,9.25,144.26,10.52,143.41c-3.8-3-3.86-10.25,3.74-8.66-.54-1.52.05-9.5,11-2.23A42.48,42.48,0,0,0,30,135.23c.52-5.73,5.93-8.4,9.42-6.65a21.87,21.87,0,0,0,1.78,8.2c.28.38,1.1,1.51.81,6.6a31.7,31.7,0,0,0,3.13,2.32,2.11,2.11,0,0,1,1.43-.6h.59l.5.36a56.73,56.73,0,0,0,9.72,6.12c10-11.44,10-11.46,10.37-11.65L81.36,133c.7-.77,3.93-3.62-4.48-5.09-4-.71-8-2.29-8.35-6C68.31,119.46,62.85,107.7,61,105c-2.08-3.07.4-8.11,1.9-10.63a15.31,15.31,0,0,1,1.51-7.55c2.13-4.27-.08-12.12,1.29-16.46-.52-2.52.18-7.66,2.67-13.26A34.71,34.71,0,0,1,92.2,37a33.84,33.84,0,0,1,8.06-.91c8.46,0,16.84,2.68,20.52,4.73,3.23,0,7.55,2.64,11.6,7,3,3.19,12.7,14.88,11.68,31.45-1.05,17-6.16,24.68-8.18,27.08.66,3.64,3.14,4.44,5.18,4.44a5.35,5.35,0,0,0,.6,0l6.14-.85-4.76,4c-.18.15-4.23,3.46-8.31,3.5h-.11a10.23,10.23,0,0,1-6.29-2.12,51.54,51.54,0,0,0-5,12.71c.28.36.63.8,1,1.28a5,5,0,0,1,3.11,2.73L141.57,140c.42.24.42.24,2,2.9l3.09,5.15c1.64,2.73,3.57,6,4.65,7.78a82.52,82.52,0,0,0,10.86-4.41l2.06-.95,1.34-.59.52.77a37.72,37.72,0,0,0,3.46-2c0-2.32.24-4.77,1.49-6.14.77-.85,1.79-5.67,1.78-6a2.18,2.18,0,0,1,1.57-2.08c2-.58,8.36.53,7.77,7.82a56.77,56.77,0,0,0,6.54-3.09c5.09-2.56,7.51-1.07,8.64.76a6.66,6.66,0,0,1,1,3.07c.52-.15,4-1.36,5.23,1.9,1.81,4.66-2.33,6.81-3.05,7.15A5.48,5.48,0,0,1,202,154.8c-.34,5.37-10.07,6.5-12.32,6.69-3.54,2-12.28,1.92-12.28,1.93l2.46,3.33s-25.58,12.13-32.56,14.69c-.61,1.51-7.28,3.37-6.85-3.32a58.66,58.66,0,0,0-8.05-7c-1.23,4.55-5.7,20.17-6,20.54-7.89,10.28-44.63,11.66-49,2.79"/>
    <path class="cls-1" d="M92.92,178a2.29,2.29,0,1,1,2.28-2.28A2.29,2.29,0,0,1,92.92,178"/>
    <path class="cls-1" d="M92.92,192.06a2.29,2.29,0,1,1,2.28-2.28,2.29,2.29,0,0,1-2.28,2.28"/>
    <path class="cls-2" d="M87.29,170.92C80,164.76,73.46,157,72.92,155.63L77.21,149,74,147.87a67.64,67.64,0,0,1,7.16-11.93l-12.25,6.22c-.86,1-9.14,10.36-10.8,12.09a60.66,60.66,0,0,0-.31,10.25c-1.62-4-.92-8.46-.55-10.17-1.29-.48-4.76-2.05-10.72-6.48a103.14,103.14,0,0,1-12.37,12c1.5.92,24.6,15.54,24.92,15.8.51.43,1,.87,1.45.87.68,0,1.72-1.41,1.79-1.44l8.48-4a37.78,37.78,0,0,1-2-14.53.4.4,0,0,1,.43-.36.39.39,0,0,1,.35.43c-.81,8.49,2.91,17.6,6.2,25.64,1.86,4.54,3.47,8.48,4,11.71A13.14,13.14,0,0,0,89,197.69Z"/>
    <path class="cls-2" d="M164.51,152.84a48.69,48.69,0,0,1-13.6,5.78,29.4,29.4,0,0,1,.89,5.5c-.52-2-1-3.65-1.35-4.65a30.43,30.43,0,0,1-4.75,8.66c2.21-4.65,3.84-8.62,4.25-9.62-3.13-5.31-9-15.3-9.72-16.34l-13.87-7.92c1.84,6.78.69,19.15-.19,21.76,0,0-11.57,1-13,1.26l-.52,11-24.68,2a.3.3,0,0,1,0,.1L89.8,197.7c3,.31,26.13,2.3,34.58-7.56.67-4,8.73-29.79,9-34a.39.39,0,0,1,.41-.37.4.4,0,0,1,.37.41,94.53,94.53,0,0,1-2.57,11.31,60.33,60.33,0,0,1,11.39,9.57c.07.08-.47,3.38.76,3.56s1.79-1.24,2.63-1.55c6.86-2.5,28.64-12.77,29.25-13a102.92,102.92,0,0,1-11.07-13.18"/>
    <path class="cls-3" d="M199.54,155c.18,2.93-10.69,4-10.75,4-4.62,3-13.57,2.28-13.64,2.32l-1.91,1a113.29,113.29,0,0,1-7.24-8.77c6-3.06,6.07-3.65,6.11-4.05,0-.06-.15-4.2.84-5.29a10.18,10.18,0,0,0,2.44-7.39c5.28-.48,4.23,6.65,4,8.32,1.81.19,3.77.07,10.59-3.74,3-1.69,4.67-1.74,5.29-1.17,3.17,2.88-4.75,6.4-7.55,7.59a7.28,7.28,0,0,0-1.59-1.75c-.17-.12-.68-.07-.54.1a22.27,22.27,0,0,1,4.13,8.79c2.08-.69,9.67-2.5,9.83,0"/>
    <path class="cls-1" d="M180.48,148.13a.41.41,0,0,0-.29.48,5.22,5.22,0,0,1-1.88,4.93.4.4,0,0,0,0,.56.4.4,0,0,0,.29.12.37.37,0,0,0,.26-.1,6,6,0,0,0,2.11-5.7.39.39,0,0,0-.47-.29"/>
    <path class="cls-3" d="M200.65,149.09c-1.79,1.35-9.23,3.88-10.82,4.41a14.55,14.55,0,0,0-1.33-4.31c1.63-.54,6.93-2.32,10-3.55,1.29-.51,2.31-.31,2.79.54a2.33,2.33,0,0,1-.67,2.91"/>
    <path class="cls-3" d="M10.66,137.3c1.38-1.78,10.88,3.61,12.44,4.32a14.59,14.59,0,0,0-1.76,4.14c-1.54-.7-13.41-4.91-10.68-8.46"/>
    <path class="cls-3" d="M35.14,155.09a29.47,29.47,0,0,1-13.52-3.79c-2.86-.23-10.71-2.18-10.08-5,.58-2.66,8.6.49,10.12,1a14.83,14.83,0,0,1,4.67-8.3.4.4,0,0,0-.54-.15A7.52,7.52,0,0,0,24,140.36c-.84-.47-10.06-5.31-6.73-8.32,2.05-1.85,12.06,7.24,15.23,6.45-.77-3.93,1.31-9.22,4.89-7.8a13.13,13.13,0,0,0,1.67,7.6c.34.47.28,5.7.28,5.76,0,.4,0,1,5.49,4.55A96.86,96.86,0,0,1,37,156.34Z"/>
    <path class="cls-1" d="M31.43,141.89c.08-.2-.66-.47-.73-.27a6,6,0,0,0,1.51,5.89c.08.09.73-.36.59-.52a5.3,5.3,0,0,1-1.37-5.1"/>
    <path class="cls-3" d="M141.51,79.06c-1.21,19.58-8.27,26.33-8.27,26.33s-.3,7,6.07,8c-5.14,3.18-10.25-.44-10.83-2.15,0,0-.64-.2-.74,0-4.57,6.84-7.13,13-7,17.14-1.57.87-12.08,6.47-23.81,6.47A31.73,31.73,0,0,1,85.79,133a4.32,4.32,0,0,0-.23-3.27c-1.21-2.3-4.65-3.29-8-4.23s-6.35-1.81-6.52-3.75c-.29-3.27-6.24-15.62-7.91-18.1-1.33-2,2.44-8.65,2.44-8.65l0-.15a12.24,12.24,0,0,1,1.23-7,12.42,12.42,0,0,0,.64-6c-.37-3.2-.11-15.61,3.3-23.67,2.37-5.62,8.83-14.63,22.06-18.68,9.39-2.86,24.89,2.39,27.22,3.87a20,20,0,0,1,10.51,6.18c2.62,3.17,11.94,14,11,29.54"/>
    <path class="cls-1" d="M65.22,99.37c-3.77-.44-7.2-2.59-7.23-6,0-2.09,2.9-4.5,5.14-1.83-1.3-3.06-6.56-1.17-6.56,2.26,0,4.87,4.16,7,8.23,7.3,5.7.46,8-.69,10.48.84.64.38.85-1.81-.09-2.31-2.47-1.31-4.9,0-10-.28"/>
    <path class="cls-1" d="M74.25,78.64S70,77,71.74,73c-3.29,2-1.14,6.37-.92,6.24a1.39,1.39,0,0,1-1.9-1.32,1.68,1.68,0,0,0,.61,2.56,4.11,4.11,0,0,1-3.37-1.83,5.22,5.22,0,0,0,.35,2.16c2.62,3.73,8.25,1.55,8.25,1.55s.91-1.3-.51-3.71M73,85.19l-.07.1a.45.45,0,0,1,.07-.1"/>
    <path class="cls-4" d="M127.69,90.49a5.28,5.28,0,0,0-5.12.72,6.15,6.15,0,0,1,4.86.2c2.67,1.23,1.7,5.08,1.7,5.08s1.23-4.78-1.44-6"/>
    <path class="cls-4" d="M129.13,96.49a6.74,6.74,0,0,0,.34-1c-.18.6-.34,1-.34,1"/>
    <path class="cls-5" d="M92.46,135.73a35.46,35.46,0,0,1,4.47,8.94c-1.34,4.89-2.87,7.58-3.29,7.87-1.74.43-4,0-4.54-.49s-1.9-5.6-2-9.9c2.6-3.3,4.62-5.6,5.36-6.42"/>
    <path class="cls-3" d="M88.35,152.31c-.17.22-.41.5-.66.81a27.61,27.61,0,0,0-2.79,3.76,61.46,61.46,0,0,1-1.22-10.24c.93-1.26,1.83-2.45,2.68-3.54a30,30,0,0,0,2,9.21"/>
    <path class="cls-3" d="M86.32,141.88h0c-.83,1.07-1.72,2.22-2.64,3.46a38,38,0,0,1,1.73-11.71,30,30,0,0,0,6.41,1.64c-.81.91-2.87,3.27-5.49,6.61"/>
    <path class="cls-2" d="M73.74,155.52l4.68-6.85-3.36-1.3c2-4.21,6-11,9.63-14.1-5.62,13.61,2.82,36.81,2.82,36.81-7-6-12.9-13-13.77-14.56"/>
    <path class="cls-5" d="M88.39,169.54a98.69,98.69,0,0,1-3.24-11.43,37.93,37.93,0,0,1,3.76-5.24,6.71,6.71,0,0,0,4.63.5c.22.51,2.24,4.84,3.44,7.79,0,0-6.79,7.21-8.59,8.38"/>
    <path class="cls-3" d="M97.6,160.6c-1.15-2.81-3.13-7-3.35-7.56.86-.88,2.13-3.75,3.13-7.11.39,1.1,1.07,2.61,1.46,3.85a54.66,54.66,0,0,0,14-5.43c-4.22,4.28-14.19,15.13-15.23,16.25"/>
    <path class="cls-3" d="M114,142.75h0a55.54,55.54,0,0,1-14.81,6.12c-2-6.3-4-10.71-6-13.44A48.24,48.24,0,0,0,121,129.1a26.32,26.32,0,0,1,1.62,2.14c-1.73,5.49-7.46,10.54-8.6,11.51"/>
    <path class="cls-2" d="M123.78,131.49c-1.8,5.69-7.67,10.87-8.84,11.86-4.76,4.72-9.43,9.81-13.54,14.29-4.86,5.29-8.85,9.64-11.39,11.66L112,167.54l.49-10.6c0-.45,0-.47,6.82-1.11l6.18-.56c.87-3.09,2-15.66-.12-21.74-.65-1.9-1.31-2-1.49-2h0"/>
    <path class="cls-1" d="M92.92,178a2.29,2.29,0,1,1,2.28-2.28A2.29,2.29,0,0,1,92.92,178"/>
    <path class="cls-1" d="M92.92,192.06a2.29,2.29,0,1,1,2.28-2.28,2.29,2.29,0,0,1-2.28,2.28"/>
    <path class="cls-1" d="M84.52,93.77c.64-3.26-5.66-3.91-5.28-2.63-.56-1.91,6.23-1.81,6.07,2.53-.11,3-4.78,2.75-6.63,4.52.39-2.8,5.21-1.16,5.84-4.42"/>
    <path class="cls-1" d="M83.73,81.7c-1.55-3,.25-4.12,2-5.4,3.44-2.48,2.36-6,.09-5.85,1.37-.78,4.77.16,4.77,5,.22-2.85,3.78-3.2,1.83-5.69,1.21.26,3,1.69,1.44,4.34,3.07-5.35,11.64-1.33,10.86-5.94,2.85,4.12-2.51,8.2-8.2,8.38-11.47.35-12.8,5.16-12.8,5.16"/>
    <path class="cls-1" d="M70.19,96.15c-.17-2.4,5-11,5.16-11.55a5.65,5.65,0,0,0-.8-4s.55,2.89.06,4c-.26.47-4.81,9.06-5.19,11.28s5.77,3.78,9.26,2.32c-3.42.36-8.41-.81-8.49-2m3.24-9.63-.06.1a.29.29,0,0,1,.06-.1"/>
    <path class="cls-1" d="M91.85,99.07c4.93-.52,9.41-3.3,9.39-7.75,0-2.75-3.87-5.95-6.77-2.49,1.66-4,8.59-1.43,8.64,3.08.07,6.38-5.35,9.09-10.68,9.46-7.47.52-10.44-1-13.74.94-.83.49-1.13-2.39.08-3,3.22-1.68,6.43.11,13.08-.21"/>
    <path class="cls-1" d="M75,107.07c.83,1.32,1.93,1.27,2.78.09,2.86,1.7,5.64,1.19,11.59-2.79,2.46-1.64,3.73-3.34,8.79-4.47a46.29,46.29,0,0,0-8.77,5.59,22.27,22.27,0,0,1-12.57,4.1c-5.89-.31-7.8-6.67-10.62-8.22,4.15,1.48,5.27,7,8.8,5.7"/>
    <path class="cls-1" d="M66.94,107.85c-.86-3.8-3.64-5.86-2.34-8.55.85-1.76,4.37-.79,5.76-.26-1.09,0-4.3-.73-5.16.75-.81,1.76,1.32,3.62,1.74,8.06"/>
    <path class="cls-1" d="M85.44,93.06a7,7,0,0,1,3.29,3.67c.6,1.46,3.46,1.18,4.35,1.11s4.89-.88,6-.52c2.28.77,1.67,3.37.38,5.85-.76,1.46-2,4.59-4,9.13A34,34,0,0,1,98.05,104c.9-2.24,2.48-5,.67-5.59-1.18-.37-3.27.11-5.58.48-3,.48-4.66-.84-5-1.76a13.14,13.14,0,0,0-2.71-4.09"/>
    <path class="cls-1" d="M103.41,97.41a4,4,0,0,1,.7,2,2.42,2.42,0,0,1-.7,2c-.44-1.07,0-4,0-4"/>
    <path class="cls-1" d="M65.19,94.81a2.66,2.66,0,0,1,2.12-1,3.26,3.26,0,0,1,1.5.49s-2.33-.75-3.3.76a1.85,1.85,0,0,1-.32-.24"/>
    <path class="cls-1" d="M74.15,111.24s2.46,2.08,6.63,0A4.94,4.94,0,0,1,77.47,113a3.93,3.93,0,0,1-3.32-1.75"/>
    <path class="cls-1" d="M86.58,84.19a7,7,0,0,1,6-3.24c3.63-.07,10.58,2.73,10.8,2.79-2-.07-7-2.35-10.8-2.35a7.35,7.35,0,0,0-6,2.8"/>
    <path class="cls-1" d="M72,84.1c-2,0-4.27.54-5,2.22,1.07.25,3.85,1.41,6.76.73.43-.83.85-1.4,1.35-2.53A10.82,10.82,0,0,0,72,84.1"/>
    <path class="cls-6" d="M73.29,86.6A10.91,10.91,0,0,1,68,86H67.9a3,3,0,0,1,.84-.62,3.25,3.25,0,0,0,5-.52c.18,0,.35.06.51.09-.19.39-.81,1.45-.94,1.69"/>
    <path class="cls-1" d="M100.87,84.81a4.8,4.8,0,0,1-1.72-.68,10.53,10.53,0,0,0-3.52-1.19A12,12,0,0,0,86,85.8s4.32,2.37,12.31.24a57.37,57.37,0,0,1,6.52-.87Z"/>
    <path class="cls-6" d="M98.13,85.47a21,21,0,0,1-11,.11A9.62,9.62,0,0,1,90,84.23a3.24,3.24,0,0,0,5.83-.62,12.85,12.85,0,0,1,4.13,1.55,12.34,12.34,0,0,0-1.79.31"/>
    <path class="cls-6" d="M94.77,84.1c0,.38-.5.7-1.13.7s-1.13-.32-1.13-.7.51-.7,1.13-.7,1.13.31,1.13.7"/>
    <path class="cls-6" d="M72.94,85c0,.28-.36.5-.81.5s-.81-.22-.81-.5.36-.5.81-.5.81.23.81.5"/>
    <path class="cls-1" d="M122.56,91.21s2.84-3.72,5.75-1.62.82,6.9.82,6.9,1.23-4.78-1.45-6a5.29,5.29,0,0,0-5.12.72"/>
    <path class="cls-1" d="M141.69,79C143,58.51,126.47,42.18,120,43c-3.53-2.24-16.46-6.59-27.51-3.91-16.9,4.1-23.31,17.27-24.69,26.43,8.38-13.87,22.08-6.77,39.65-8.32,3.81-4.26,9.71-10.65,9.71-10.65s-3.76,5.56-7.86,11.4c8.5,5.19,13,24.05,1.19,24.84A4.23,4.23,0,0,0,117.7,84c.65,1.45-.2,4-3.8,4,2.88,4.08,8.44-.76,8.44-.76s4.63-4.56,7.6.75c2.67,4.76-1.8,15.12-6.12,16.43-1.16.31-3.8.32-5.18-3.39.25,4.57,3.84,4.47,5.34,4.13.76,1.54,2.68,5.25,3.91,6.24,1.06,3.13,7.27,5.77,12.51,1.58-7.25.79-7-7.42-7-7.42s7-6.47,8.28-26.48"/>
    <path class="cls-3" d="M92.92,174.19a1.5,1.5,0,1,0,1.5,1.5,1.5,1.5,0,0,0-1.5-1.5"/>
    <path class="cls-3" d="M92.92,188.28a1.5,1.5,0,1,0,1.5,1.5,1.5,1.5,0,0,0-1.5-1.5"/>
    <path class="cls-1" d="M122.32,175.43c-5.26,1.87-13.31,2.11-15.17,2.13v-2.47c1.89,0,9.52-.1,15-2,.21-.07.4-1-.61-.61l-.83.26c1.13-2.09.41-3.92-.42-6a12.81,12.81,0,0,1-1.16-7.37A.27.27,0,0,0,119,159a.29.29,0,0,0-.31,0c-7.37,3.93-10.74,9.05-10,15.24l-1.9.07a.4.4,0,0,0-.39.39V178a.39.39,0,0,0,.39.39c.4,0,9.76,0,15.83-2.18.15-.29,0-.5-.26-.74"/>
    <path class="cls-3" d="M118.44,159.8c-6.75,3.75-9.84,8.56-9.21,14.31A76.33,76.33,0,0,0,120,172.7c1.22-2,.56-3.67-.29-5.8a13.63,13.63,0,0,1-1.27-7.1"/>
    <path class="cls-1" d="M114.5,171a5.49,5.49,0,0,1-1.36-.36l.36-1.12a4.24,4.24,0,0,0,1.5.38c.4,0,.61-.11.62-.36,0-.61-2.42-.13-2.38-2a1.52,1.52,0,0,1,1.37-1.41l0-1.41,1.2,0,0,1.39a5.37,5.37,0,0,1,1.2.35l-.37,1.11a3.54,3.54,0,0,0-1.33-.36c-.38,0-.58.12-.59.33,0,.58,2.42.07,2.38,2a1.54,1.54,0,0,1-1.4,1.44l0,1.41-1.2,0Z"/>
    <path class="cls-7" d="M74.16,111.39c-.11-.11,1,2.82,3.47,2.64s3.74-3.46,3.74-3.46S79,112.92,77.63,113a4.59,4.59,0,0,1-3.47-1.57"/>
    <path class="cls-8" d="M127.74,111.23a29.2,29.2,0,0,1-3.82-6.11c-1.21.35-5.06.45-5.27-4-.86,8.52-1.17,12.52-3.14,13.31-1.73.69-13.53,2.53-20.2,2.35-1.54.14-.6,6.28-4.88,8.24-5.87,2.69-7.23.8-19.13-2.53.81,1.41,3.47,2.17,6.26,3,3.32,1,6.76,1.93,8,4.23a4.32,4.32,0,0,1,.23,3.27,31.73,31.73,0,0,0,11.09,1.9c11.73,0,22.24-5.6,23.81-6.48.12-6.36,3.56-11.27,7.08-17.14"/>
    <path class="cls-4" d="M92.29,72.51a2.74,2.74,0,0,0,.66-1,2.78,2.78,0,0,0-1.21-.61,1.92,1.92,0,0,1,.55,1.63"/>
    <path class="cls-4" d="M104.07,70.13a1.67,1.67,0,0,0,.31-.28,4,4,0,0,0-.34-.58,2.83,2.83,0,0,1,0,.86"/>
    <path class="cls-4" d="M90.82,74.49l-.24.32c0,.21,0,.42,0,.64a3.55,3.55,0,0,1,.22-1"/>
    <path class="cls-4" d="M83.27,78.85c-.85.9-1.21,2-.23,4a3.74,3.74,0,0,1,.68-1.15,3.62,3.62,0,0,1-.45-2.82"/>
    <path class="cls-4" d="M87,75.17a3.52,3.52,0,0,0,.83-3.38,2.71,2.71,0,0,0-2.65-.22c1.63-.11,2.64,1.67,1.82,3.6"/>
    <path class="cls-4" d="M96.53,76.54C85.92,76.87,84,81,83.76,81.62c1.2-1.45,4.31-3.73,12.08-4,3.86-.12,7.56-2,8.66-4.54-1.56,1.94-4.71,3.33-8,3.43"/>
    <path class="cls-1" d="M74.25,78.64S70,77,71.74,73c-3.29,2-1.14,6.37-.92,6.24a1.39,1.39,0,0,1-1.9-1.32,1.68,1.68,0,0,0,.61,2.56,4.11,4.11,0,0,1-3.37-1.83,5.22,5.22,0,0,0,.35,2.16c2.62,3.73,8.25,1.55,8.25,1.55s.91-1.3-.51-3.71M73,85.19l-.07.1a.45.45,0,0,1,.07-.1"/>
    <path class="cls-4" d="M70.82,79.23c-.21.12-2-3.59.24-5.73a.08.08,0,0,0,0,0c-2.61,1.58-1.8,4.65-1.24,5.8a1.19,1.19,0,0,0,1,0"/>
    <path class="cls-4" d="M69.53,80.47c-.33,0-.78-.56-.94-1.18a1.31,1.31,0,0,1-.33-.91,1.52,1.52,0,0,0-.19,1.75,6,6,0,0,0,1.46.34"/>
    <path class="cls-4" d="M72.37,85.66a.45.45,0,0,0-.07.1.61.61,0,0,1,.07-.1"/>
    <path class="cls-7" d="M67.44,81.79v0a14.15,14.15,0,0,1-.06,3.85c1-1.17,2.86-1.57,4.62-1.57a11.52,11.52,0,0,1,2.67.31,6.3,6.3,0,0,0,.11-2.08l0,0s-4.49,1.74-7.32-.56"/>
    <path class="cls-7" d="M64.61,99.28c.87-1.73,4.37-.77,5.75-.24-1,0-3.62-.58-4.8.35,3.46.16,5.66-.43,7.52-.31a2.74,2.74,0,0,0,.4-.46c-2.35-.38-4.28-1.43-4.06-2.75.26-1.5,2.41-5.88,3.86-8.73a13.21,13.21,0,0,1-6-.75,9.3,9.3,0,0,1-.43,1.43,12.56,12.56,0,0,0-1.29,6.64,2.73,2.73,0,0,1,1.79-.66,3.26,3.26,0,0,1,1.5.49s-2.21-.71-3.22.65h0a34.67,34.67,0,0,0-1.94,4.13c.31.08.63.15,1,.2"/>
    <path class="cls-1" d="M141.69,79C143,58.51,126.47,42.18,120,43c-3.53-2.24-16.46-6.59-27.51-3.91-16.9,4.1-23.31,17.27-24.69,26.43,8.38-13.87,22.08-6.77,39.65-8.32,3.81-4.26,9.71-10.65,9.71-10.65s-3.76,5.56-7.86,11.4c8.5,5.19,13,24.05,1.19,24.84A4.23,4.23,0,0,0,117.7,84c.65,1.45-.2,4-3.8,4,2.88,4.08,8.44-.76,8.44-.76s4.63-4.56,7.6.75c2.67,4.76-1.8,15.12-6.12,16.43-1.16.31-3.8.32-5.18-3.39.25,4.57,3.84,4.47,5.34,4.13.76,1.54,2.68,5.25,3.91,6.24,1.06,3.13,7.27,5.77,12.51,1.58-7.25.79-7-7.42-7-7.42s7-6.47,8.28-26.48"/>
    <path class="cls-4" d="M117.17,46.5s-5.9,6.39-9.71,10.65c-17.57,1.55-30.25-7.09-38.64,6.78-.13.24-.36,2.41-.56,3.75,8.38-13.88,21.06-6.77,38.63-8.33,1.83-2,4.13-4.57,6-6.65,2.45-3.56,4.24-6.2,4.24-6.2"/>
    <path class="cls-4" d="M117,78.25c2.31-5.88-1.35-15.88-7-19.9l-1.24,1.76c5.36,3.27,9.14,12,8.24,18.14"/>
    <path class="cls-4" d="M117.27,86.65A2.6,2.6,0,0,0,117.7,84a4.35,4.35,0,0,1-5.85.65,9.86,9.86,0,0,1-1.92.32c1,3,5.25,4,7.34,1.7"/>
    <path class="cls-7" d="M98.57,99.69c.65,1-.56,3.25-1.31,5.11a24.13,24.13,0,0,0-1.78,7.5A34,34,0,0,1,98.05,104c.69-1.73,1.79-3.78,1.42-4.89-.29.2-.59.38-.9.56"/>
    <path class="cls-7" d="M88.35,99.06c1.05,0,2.21.07,3.5,0l.62-.08c-2.58.19-4-1-4.32-1.84a13.29,13.29,0,0,0-2.71-4.09s1.16,2.73,1.93,4.88a2.47,2.47,0,0,0,1,1.12"/>
    <path class="cls-9" d="M125.13,157.7a13.55,13.55,0,0,0,.38-1.63c-2.48.22-11.11,1-12.29,1.2l-.08,1.57c3.16-.35,12-1.14,12-1.14"/>
    <path class="cls-9" d="M122.15,192.24c.31-.3,1.95-1.77,2.23-2.1.6-3.63,7.28-25.13,8.7-32.28,0-.21-9.64,28.63-10.93,34.38"/>
    <path class="cls-9" d="M36.89,161.53c4.65,2.94,14.09,8.9,18.52,11.72h0c2.15,1.37,3.59,2.3,3.67,2.36.51.43,1,.87,1.46.87h0c.73,0,1.71-1.42,1.75-1.44l8.48-4a37.78,37.78,0,0,1-2-14.53c-1.28,1.73-2.15,9.84-3.82,12.49-1,1.67-5.07,3-7.89,3.81-4.5-2.87-20.22-11.29-20.22-11.29"/>
    <path class="cls-3" d="M92.92,174.19a1.5,1.5,0,1,0,1.5,1.5,1.5,1.5,0,0,0-1.5-1.5"/>
    <path class="cls-3" d="M92.92,188.28a1.5,1.5,0,1,0,1.5,1.5,1.5,1.5,0,0,0-1.5-1.5"/>
    <path class="cls-10" d="M93,176.53a1.17,1.17,0,0,1-1.17-1.17s0-.07,0-.11a1.19,1.19,0,0,0-.13.53,1.17,1.17,0,0,0,2.33.1,1.19,1.19,0,0,1-1,.65"/>
    <path class="cls-10" d="M93,190.62a1.18,1.18,0,0,1-1.17-1.17s0-.07,0-.1a1.11,1.11,0,0,0-.13.52,1.16,1.16,0,0,0,2.32.1,1.16,1.16,0,0,1-1,.65"/>
    <path class="cls-3" d="M97.6,160.6c-1.15-2.81-3.13-7-3.35-7.56.86-.88,2.13-3.75,3.13-7.11.39,1.1,1.07,2.61,1.46,3.85a54.66,54.66,0,0,0,14-5.43c-4.22,4.28-14.19,15.13-15.23,16.25"/>
    <path class="cls-10" d="M98.18,150.77a54.13,54.13,0,0,0,13.37-5.1l1.28-1.32a54.66,54.66,0,0,1-14,5.43c-.39-1.24-1.07-2.75-1.46-3.85-.15.51-.31,1-.47,1.5.39,1,.94,2.28,1.27,3.34"/>
    <path class="cls-10" d="M94.35,152.92l-.1.12s0,0,0,0l.09-.15"/>
    <path class="cls-3" d="M88.35,152.31c-.17.22-.41.5-.66.81a27.61,27.61,0,0,0-2.79,3.76,61.46,61.46,0,0,1-1.22-10.24c.93-1.26,1.83-2.45,2.68-3.54a30,30,0,0,0,2,9.21"/>
    <path class="cls-10" d="M85.75,144.79a33.47,33.47,0,0,0,1.72,8.59l.22-.26c.25-.31.49-.59.66-.81a30,30,0,0,1-2-9.21c-.85,1.09-1.75,2.28-2.68,3.54l0,.82c.71-.94,1.39-1.84,2-2.67"/>
    <path class="cls-9" d="M87.27,170.92C80,164.76,73.44,157,72.9,155.63L77.19,149,74,147.87a70.16,70.16,0,0,1,6-10.31L81.15,136l-12.22,6.21c-1,1.07-10.77,12.11-10.79,12.09s9.84-10,10.79-11.08c0,0,9.85-5.85,2.88,5,5.38.83-.8,7.56-.8,7.56s7.36,10.1,15.31,16.19c.52,7.3,2.22,22.39,2.6,25.73H89Z"/>
    <path class="cls-9" d="M134.12,156.18a94.53,94.53,0,0,1-2.57,11.31,60.33,60.33,0,0,1,11.39,9.57c-4.45-7-7.75-11.06-8.82-20.88"/>
    <path class="cls-8" d="M24,140.36a7.24,7.24,0,0,1,1.76-1.57.45.45,0,0,1,.3,0l.53-.51a.39.39,0,0,0-.53-.15,7.18,7.18,0,0,0-1.77,1.57c-.74-.42-7.94-4.2-7.42-7.16-2,3,6.33,7.41,7.13,7.86"/>
    <path class="cls-8" d="M33.05,138.35a12,12,0,0,1,.16-5.5,9.41,9.41,0,0,0-.68,5.64,2.83,2.83,0,0,0,.52-.14"/>
    <path class="cls-8" d="M36.57,155.2l-1.14-.81a29.5,29.5,0,0,1-13.52-3.79c-2.79-.23-10.36-2.1-10.11-4.86a1.16,1.16,0,0,0-.26.52c-.63,2.86,7.22,4.81,10.08,5a29.47,29.47,0,0,0,13.52,3.79l1.9,1.25a96.86,96.86,0,0,0,7.82-7.74l-1-.59a100.65,100.65,0,0,1-7.31,7.19"/>
    <path class="cls-8" d="M22.72,143.86a16.09,16.09,0,0,0-.89,2.64l.12,0a18.86,18.86,0,0,1,.77-2.68"/>
    <path class="cls-8" d="M10.58,137.43c-2.36,3.52,9.24,7.64,10.76,8.33.07-.26.14-.5.21-.74-1.66-.72-11.55-4.3-11-7.59"/>
    <path class="cls-8" d="M200.65,148.3c-1.79,1.35-10.82,4.41-10.82,4.41v.79s9-3.06,10.82-4.41a2.37,2.37,0,0,0,.89-2.28,2.31,2.31,0,0,1-.89,1.49"/>
    <path class="cls-8" d="M188.79,158.26c-4.62,3-13.57,2.28-13.64,2.31l-1.91,1c-2.06-2.28-4.64-5.28-6.82-8.21l-.42.22a113.29,113.29,0,0,0,7.24,8.77l1.91-1c.07,0,9,.64,13.64-2.32.06,0,10.93-1.11,10.75-4a1.09,1.09,0,0,0-.08-.31c-.92,2.57-10.61,3.53-10.67,3.57"/>
    <path class="cls-8" d="M187.71,147.06a6.87,6.87,0,0,0-1.59-1.74c-.17-.12-.68-.08-.54.09l.5.67,0,0a6.87,6.87,0,0,1,1.59,1.74c2.47-1,8.91-3.91,8.23-6.54-.56,2.39-6,4.81-8.23,5.75"/>
    <path class="cls-1" d="M65.22,99.37c-3.77-.44-7.2-2.59-7.23-6,0-2.09,2.9-4.5,5.14-1.83-1.3-3.06-6.56-1.17-6.56,2.26,0,4.87,4.16,7,8.23,7.3,5.7.46,8-.69,10.48.84.64.38.85-1.81-.09-2.31-2.47-1.31-4.9,0-10-.28"/>
    <path class="cls-1" d="M91.85,99.07c4.93-.52,9.41-3.3,9.39-7.75,0-2.75-3.87-5.95-6.77-2.49,1.66-4,8.59-1.43,8.64,3.08.07,6.38-5.35,9.09-10.68,9.46-7.47.52-10.44-1-13.74.94-.83.49-1.13-2.39.08-3,3.22-1.68,6.43.11,13.08-.21"/>
    <path class="cls-7" d="M94.75,88.29a3.31,3.31,0,0,1,.41-.5,3.08,3.08,0,0,0-2.57,1.94,4,4,0,0,1,2.16-1.44"/>
    <path class="cls-7" d="M99.36,92.21a6.51,6.51,0,0,1-2.54,5.11l.7-.06a7.09,7.09,0,0,0,3.66-5.06,5.67,5.67,0,0,0-5.44-4.45,3.87,3.87,0,0,0-.7.49c2.25-.29,4.32,2,4.32,4"/>
    <path class="cls-1" d="M65.22,99.37c-3.77-.44-7.2-2.59-7.23-6,0-2.09,2.9-4.5,5.14-1.83-1.3-3.06-6.56-1.17-6.56,2.26,0,4.87,4.16,7,8.23,7.3,5.7.46,8-.69,10.48.84.64.38.85-1.81-.09-2.31-2.47-1.31-4.9,0-10-.28"/>
    <path class="cls-1" d="M91.85,99.07c4.93-.52,9.41-3.3,9.39-7.75,0-2.75-3.87-5.95-6.77-2.49,1.66-4,8.59-1.43,8.64,3.08.07,6.38-5.35,9.09-10.68,9.46-7.47.52-10.44-1-13.74.94-.83.49-1.13-2.39.08-3,3.22-1.68,6.43.11,13.08-.21"/>
    <path class="cls-7" d="M75.28,102c-2.53-1.52-4.78-.38-10.48-.84,3.84.8,7.78,0,10.31,1.56.38.22.77-.71.71-1.39,0,.49-.25.84-.54.67"/>
    <path class="cls-7" d="M92.43,101.37c-7.47.52-10.44-1-13.74.94-.4.24-.67-.3-.72-1-.06.88.23,2,.71,1.75,3-1.86,11.58-.39,13.75-1.7"/>
    <path class="cls-9" d="M109.25,168.54,88,170.25a.17.17,0,0,1,0,.1l.1,1.5,20.65-1.67a11.71,11.71,0,0,1,.45-1.64"/>
    <path class="cls-10" d="M119.71,166.9a13.62,13.62,0,0,1-1.27-7.09c-.25.13-.49.28-.73.42a14.8,14.8,0,0,0,1.36,5.87c.84,2.14,1.51,3.84.28,5.81a79.12,79.12,0,0,1-10.18,1.37c0,.28,0,.55.06.83A76.33,76.33,0,0,0,120,172.7c1.22-2,.56-3.67-.29-5.8"/>
    <path class="cls-11" d="M123.29,56.39a50.55,50.55,0,0,1,8,18.28c2.51,11.16,2.43,11.9,2.43,11.9s4.79-20-10.46-30.18"/>
    <path class="cls-11" d="M127.11,55.58a42,42,0,0,1,6.67,15.2c2.09,9.29,2,9.67,2,9.67s4-16.42-8.7-24.87"/>
    <path class="cls-11" d="M131.58,57.6a26,26,0,0,1,4.16,9.47A56.71,56.71,0,0,1,137,73.24s2.48-10.38-5.42-15.64"/>
    <path class="cls-11" d="M105.44,48.12s-15-.82-27.18,2.88c13.32-4.28,20.09-4.93,27.18-2.88"/>
    <path class="cls-11" d="M106.21,46.23s-13.15-.72-23.74,2.52C94.1,45,100,44.44,106.21,46.23"/>
    <path class="cls-11" d="M108.44,44s-11-.6-19.9,2.11c9.75-3.13,14.71-3.61,19.9-2.11"/>
    <path class="cls-12" d="M86.12,168.86c.46.41.92.82,1.4,1.22,0,0-8.45-23.19-2.84-36.81a19.4,19.4,0,0,0-1.53,1.5c-3.83,11.8,1.4,29.35,3,34.09"/>
    <path class="cls-13" d="M96.35,143.16c-2,10.15-8,6.85-8.1,6.48a9.38,9.38,0,0,0,.85,2.41c.52.5,2.8.92,4.54.49.42-.29,2-3,3.29-7.87-.2-.52-.39-1-.58-1.51"/>
    <path class="cls-13" d="M95.89,162.3,97,161.16c-1.2-2.95-3.22-7.28-3.44-7.79a6.71,6.71,0,0,1-4.63-.5c-.06.07-.47.57-1,1.25,3.58.47,5.65,1,8,8.18"/>
    <path class="cls-12" d="M57.29,154.37a54,54,0,0,1-10.74-6.52,103.14,103.14,0,0,1-12.37,12,33.85,33.85,0,0,0,12.37-11c7.55,5.84,10.74,5.52,10.74,5.52"/>
    <path class="cls-12" d="M164.51,152.84a48.69,48.69,0,0,1-13.6,5.78c.07.3.19.77.31,1.35a52.5,52.5,0,0,0,12.25-5.44,100.93,100.93,0,0,0,10.26,12.35l1.85-.86a102.92,102.92,0,0,1-11.07-13.18"/>
    <path class="cls-12" d="M140.23,142.17l-13.87-7.92a22.18,22.18,0,0,1,.52,2.58l12.31,7c.64,1,5.85,9.77,9.08,15.25L145.75,168l3.41-7.61h0c.05-.1.09-.2.13-.3h0l.66-1.6c-3.13-5.31-9-15.3-9.72-16.34"/>
    <path class="cls-12" d="M122.12,174.2v-1.15c-5.44,1.81-13.19,2-15,2v1.12c2.55-.06,9.69-.36,15-2"/>
    <path class="cls-12" d="M125.33,133.53a4.5,4.5,0,0,0-.86-1.66.93.93,0,0,0-.63-.38h0c-1.8,5.69-7.67,10.87-8.84,11.86-4.76,4.72-24.81,25.86-24.93,26l19.55-1.57.24-.5L92,168.66c2.54-2.25,19.21-20.41,24-25.14,1.08-.9,6.08-5.32,8.3-10.43,0,0,0,0,0,0,2.1,6.08,1.05,18.37.19,21.46-.83.07-12.77.63-13.07,1.95L111,165.2a16.84,16.84,0,0,1,1.1-1.33l.32-6.93c0-.45,12.17-1.6,13-1.67.86-3.09,1.89-15.63-.12-21.74"/>
    <path class="cls-1" d="M145,25.05a2,2,0,0,0-2.09.54A6.91,6.91,0,0,0,141.13,28a6.62,6.62,0,0,0-.68,3.19,1.86,1.86,0,0,1-.58,1.47l-2.59,2.53-.5-5.49a1.82,1.82,0,0,1,1.1-1.85,4.55,4.55,0,0,0,2.31-2.32,3.89,3.89,0,1,0-7-3.22,4.54,4.54,0,0,0-.24,3.27,1.83,1.83,0,0,1-.69,2l-4.24,3-.28-3.06a1.82,1.82,0,0,1,1.1-1.85,4.56,4.56,0,0,0,2.31-2.31,4.11,4.11,0,0,0-1.71-5.54,3.61,3.61,0,0,0-3,0,4.68,4.68,0,0,0-2.52,5.56,1.83,1.83,0,0,1-.69,2L120.7,27.3l-.47-5.16a1.82,1.82,0,0,1,1.1-1.85A4.56,4.56,0,0,0,123.64,18a4.11,4.11,0,0,0-1.71-5.54,4.11,4.11,0,0,0-5.31,2.31,4.54,4.54,0,0,0-.24,3.27,1.83,1.83,0,0,1-.69,2l-4.44,3.18.21-3.56a1.87,1.87,0,0,1,.75-1.4,6.87,6.87,0,0,0,2-2.6,7,7,0,0,0,.69-2.93,2,2,0,0,0-1-1.94c-.42-.19-1.09-.23-1.94.66A9.58,9.58,0,0,0,110.42,14a7,7,0,0,0-.82,3.8L101.19,35.9a3.84,3.84,0,0,1-1.76,1.82l-1,.48.21.34c.14.22,3.61,5.51,16.4,11.37,9.8,4.5,15.78,5.06,18.15,5.06a8.6,8.6,0,0,0,1.17-.06l.39-.06-.36-1.34a3.12,3.12,0,0,1,.15-2l8-18.66a7,7,0,0,0,2.35-3.1c1.14-2.5,1.18-4.21.1-4.7"/>
    <path class="cls-5" d="M132.65,28.22a2.54,2.54,0,0,0,1-2.83,3.87,3.87,0,0,1,.2-2.75,3.18,3.18,0,1,1,5.73,2.63,3.86,3.86,0,0,1-1.95,1.95,2.55,2.55,0,0,0-1.52,2.57l.55,6.07-4.51,4.39A2,2,0,0,1,128.75,39l-.67-7.51Z"/>
    <path class="cls-2" d="M144.24,29.45A11.39,11.39,0,0,1,142,32.4l-8,18.83a3.88,3.88,0,0,0-.18,2.47l.15.54c-1.58.07-7.74,0-18.52-5s-14.89-9.56-15.85-10.8l.23-.11a4.61,4.61,0,0,0,2.09-2.16L110.29,18a12.37,12.37,0,0,1,.78-3.72A8.57,8.57,0,0,1,112.5,12c.31-.32.75-.67,1.12-.5s.53.62.54,1.3a6.37,6.37,0,0,1-.63,2.63,6.05,6.05,0,0,1-1.74,2.31,2.59,2.59,0,0,0-1,1.93l-.66,10.73a2.69,2.69,0,0,0,1.39,2.53,2.66,2.66,0,0,0,2.88-.17l9.23-6.61a2.54,2.54,0,0,0,1-2.83,4,4,0,0,1,2.13-4.69,2.93,2.93,0,0,1,2.44,0,3.4,3.4,0,0,1,1.36,4.59,3.82,3.82,0,0,1-1.95,2A2.56,2.56,0,0,0,127,27.67l1,11.4a2.7,2.7,0,0,0,4.57,1.69l7.76-7.56a2.56,2.56,0,0,0,.79-2,5.9,5.9,0,0,1,.62-2.83,6.16,6.16,0,0,1,1.58-2.19c.52-.44,1-.6,1.33-.45.63.29.45,1.8-.45,3.76"/>
    <path class="cls-1" d="M117.63,46.8a2.45,2.45,0,0,1-1-.22A3.1,3.1,0,0,1,115,44a8,8,0,0,1,3.22-7,3.11,3.11,0,0,1,3-.47c1.81.83,2.22,3.7.92,6.53h0a7.4,7.4,0,0,1-2.51,3.1,3.69,3.69,0,0,1-2,.68"/>
    <path class="cls-14" d="M120.2,37a3,3,0,0,0-1.61.57,6.68,6.68,0,0,0-2.26,2.8,6.78,6.78,0,0,0-.65,3.54,2.1,2.1,0,0,0,3.57,1.63,6.73,6.73,0,0,0,2.25-2.8c1.1-2.38.84-4.94-.57-5.58a1.63,1.63,0,0,0-.73-.16"/>
    <path class="cls-15" d="M120.49,37.3a1.42,1.42,0,0,0-.76.26,3.42,3.42,0,0,0-1.35,2.95,1.13,1.13,0,0,0,.57,1,1.09,1.09,0,0,0,1.09-.19,3.15,3.15,0,0,0,1-1.3c.51-1.11.39-2.3-.26-2.6a.8.8,0,0,0-.34-.07"/>
    <path class="cls-1" d="M109,39.68a2.82,2.82,0,0,1-1.12-.24,2.69,2.69,0,1,1,3.57-1.33h0A2.69,2.69,0,0,1,109,39.68"/>
    <path class="cls-14" d="M109,35a2,2,0,0,0-.69.12,1.94,1.94,0,0,0-1.11,1,2,2,0,0,0-.06,1.51,2,2,0,0,0,3.65.14,2,2,0,0,0-1-2.62A2,2,0,0,0,109,35"/>
    <path class="cls-1" d="M128.82,48.77a2.6,2.6,0,0,1-1.11-.25A2.67,2.67,0,0,1,126.39,45a2.65,2.65,0,0,1,1.5-1.4,2.69,2.69,0,1,1,.93,5.21"/>
    <path class="cls-14" d="M128.83,44.11a2.09,2.09,0,0,0-.69.12,2,2,0,0,0-1.11,1,1.93,1.93,0,0,0,0,1.51,2,2,0,1,0,1.85-2.66"/>
    <path class="cls-15" d="M129,44.43a.87.87,0,0,0-.32.06.94.94,0,0,0-.53.49,1,1,0,0,0,0,.71.94.94,0,0,0,1.73.07.9.9,0,0,0,0-.72.93.93,0,0,0-.49-.52.89.89,0,0,0-.39-.09"/>
    <path class="cls-15" d="M109.2,35.33a.87.87,0,0,0-.32.06.93.93,0,0,0-.55,1.21.91.91,0,0,0,.48.52.93.93,0,0,0,1.24-.46.9.9,0,0,0,0-.72.93.93,0,0,0-.49-.52.86.86,0,0,0-.39-.09"/>
    <path class="cls-5" d="M116.1,20.63a2.54,2.54,0,0,0,1-2.83,3.87,3.87,0,0,1,.2-2.75,3.4,3.4,0,0,1,4.37-2A3.4,3.4,0,0,1,123,17.68,3.82,3.82,0,0,1,121,19.63a2.56,2.56,0,0,0-1.52,2.57l.51,5.58-6.09,4.35a2,2,0,0,1-3.13-1.73l.38-6.25Z"/>
    <path class="cls-12" d="M128.08,39.07l-1-11.43c-.38.49.51,13.17.51,13.17a2.7,2.7,0,0,0,4.57,1.7s8.37-9.4,8.27-9.31l-7.76,7.56a2.7,2.7,0,0,1-4.57-1.69"/>
    <path class="cls-12" d="M126.2,20.32a3,3,0,0,1,2.45,0,3.17,3.17,0,0,1,1.72,3.15c.06-.1.11-.2.16-.3a3.4,3.4,0,0,0-1.36-4.59,3,3,0,0,0-2.45,0,3.86,3.86,0,0,0-1.92,1.94,3.77,3.77,0,0,0-.36,1.44,3.87,3.87,0,0,1,1.76-1.64"/>
    <path class="cls-12" d="M141.3,30.07a6.25,6.25,0,0,1,1.58-2.19c.52-.43,1-.59,1.34-.44s.44.67.32,1.41c.67-1.66.75-2.9.19-3.16-.32-.15-.81,0-1.33.45a6.16,6.16,0,0,0-1.58,2.19,7.16,7.16,0,0,0-.58,1.87l.06-.13"/>
    <path class="cls-12" d="M111.52,32.88a2.67,2.67,0,0,1-1.38-2.53L110.77,20c-.29.4-1.15,12.12-1.15,12.12a2.7,2.7,0,0,0,4.26,2.36s10-8.51,9.75-8.36l-9.23,6.61a2.68,2.68,0,0,1-2.88.17"/>
    <path class="cls-12" d="M110.6,16a8.48,8.48,0,0,1,1.43-2.3c.3-.32.75-.67,1.12-.5s.52.63.53,1.3a4,4,0,0,1-.05.76,6.15,6.15,0,0,0,.57-2.5c0-.68-.21-1.15-.54-1.3s-.81.18-1.12.5a8.82,8.82,0,0,0-1.43,2.3,7.71,7.71,0,0,0-.53,1.79l0,0"/>
    <path class="cls-9" d="M133.69,52c-2.71-.14-8.4-1-17.07-5C107.35,42.81,103,38.8,101.37,37a4.5,4.5,0,0,1-1.62,1.38l-.23.11c1,1.24,5.06,5.85,15.85,10.8s16.94,5,18.52,5l-.15-.54a3.82,3.82,0,0,1-.05-1.68"/>
    <path class="cls-2" d="M121.65,42.42A6.08,6.08,0,0,1,120,44.14a2.1,2.1,0,0,1-3.56-1.63,6.57,6.57,0,0,1,.52-3.24,8.07,8.07,0,0,0-.6,1.08,6.58,6.58,0,0,0-.65,3.54,2.1,2.1,0,0,0,3.56,1.63,6.68,6.68,0,0,0,2.26-2.8c0-.1.08-.2.13-.3"/>
    <path class="cls-2" d="M108.64,37.85a2,2,0,0,1-1.11-2.14,1.74,1.74,0,0,0-.3.46,2,2,0,1,0,3.59,1.65,2.18,2.18,0,0,0,.14-.48,2,2,0,0,1-2.32.51"/>
    <path class="cls-2" d="M128.47,46.94a1.94,1.94,0,0,1-1-1.11,1.91,1.91,0,0,1-.09-1,2,2,0,0,0-.3.46,2,2,0,0,0-.06,1.51,2,2,0,0,0,3.65.13,1.88,1.88,0,0,0,.14-.46,2,2,0,0,1-2.31.5"/>
  </g>
</svg>
