<svg id="Layer_1" data-name="Layer 1" xmlns="http://www.w3.org/2000/svg" viewBox="0 0 210 210">
  <defs>
    <style>
      .cls-1 {
        fill: #347999;
      }

      .cls-2 {
        fill: #68a9c5;
      }

      .cls-3 {
        fill: #13354c;
      }

      .cls-4 {
        fill: #1e5e82;
      }

      .cls-5 {
        fill: #f2f2f0;
      }

      .cls-6 {
        fill: #a2aeb5;
      }

      .cls-7 {
        fill: #d7dbdc;
      }

      .cls-8 {
        fill: #fff;
      }

      .cls-9 {
        fill: #4092b5;
      }

      .cls-10 {
        fill: #57c4ea;
      }

      .cls-11 {
        fill: #ced4d6;
      }

      .cls-12 {
        fill: #4b6577;
      }

      .cls-13 {
        fill: #456072;
      }

      .cls-14 {
        fill: #7199b0;
      }
    </style>
  </defs>
  <title>13</title>
  <g>
    <path class="cls-1" d="M178.47,198.41a1.27,1.27,0,0,1-.49.7,8.06,8.06,0,0,1-3.73-.78l-.13-.08H174c-10.94.75-46.15,1.25-56.34,1.38-.65.73-1.22,1.33-1.64,1.76,7.23-.09,46.34-.6,58-1.4h.15l.13.08a8.06,8.06,0,0,0,3.73.78,1.27,1.27,0,0,0,.49-.7,3.23,3.23,0,0,0,.1-2.07,2.58,2.58,0,0,1-.1.33"/>
    <path class="cls-2" d="M117.22,200.05c-.5.55-.93,1-1.27,1.35H116c.36-.39.77-.85,1.2-1.35"/>
    <path class="cls-3" d="M181.41,177.71c-.49-8.27-19.72-33.19-19.74-33.22-1.1-1.65-2.11-9.41-2.11-9.41l-26.32-6s-5.63-2.08-7.78-6.45c-1.28-10.54,8.89-33.57,8.7-39.49a28,28,0,0,0,2.42-8.31,19.87,19.87,0,0,0,11.15-5.46s-7.52-1.58-8.13-1.84c2.85-1.24,5.28-3.49,5.54-6l.29-2.92a32.34,32.34,0,0,1-4,.26c-1-.88-1.19-5-1.33-8.62-.42-10.75-1.05-26.9-20-33.15-6.26-9.25-26.28-12.72-44.93-3.52C65.6,18.38,57.85,27.85,54,39.61c-3.68,11.27-3.16,23,1.39,32.34C54.35,76.55,57.57,83,60.6,86.69c1.11,3.71,2.53,7.88,4,11.79.33.88,1.17,1.93,3,4.23s5.81,7.32,7.26,10.12l-24.75,9.92-21,25.54,2.86,3.11-3.67,29.2,6.69.74L44.49,205l34.14-14.46c5.1,2.69,12.14,3.9,14.37,4.24a32.28,32.28,0,0,0,13.82,3.28h.06a19.33,19.33,0,0,0,5.21-.78c-.54,2.52-1.1,7.44-1.1,7.44s48.73-.58,62.41-1.42a11.42,11.42,0,0,0,5.42.69c4.66-.88,3.31-5.38,2.82-6.91.63-4-.29-18.9-.23-19.37"/>
    <path class="cls-4" d="M53.68,181.31l-1.49-.19h0c.16.39.74.32,1.49.19"/>
    <path class="cls-5" d="M75.15,184.07s0,0,0-.07l-37.32-4.69,8.79,21.05,31.24-13a6.91,6.91,0,0,1-2.69-3.25"/>
    <path class="cls-4" d="M75.15,184.07s0,0,0-.07l-17.45-2.19a3.07,3.07,0,0,1-.74,4.85l1.14,2.71-2.31,1-1.11-2.67a12.66,12.66,0,0,1-2.56.35l-.24-2.41a7.22,7.22,0,0,0,2.83-.45c.71-.29,1-.69.82-1.12-.45-1.09-4.64,1.91-6.16-1.72a2.85,2.85,0,0,1-.18-1.57l-7.36-.92a8.08,8.08,0,0,1-1.06.55l5.39,12.91a5.57,5.57,0,0,1,7.22,2.47l23.08-9.63a5.79,5.79,0,0,1-1.29-2.05"/>
    <path class="cls-5" d="M74.83,181.41,35.41,151.05l-3.34,26.6L74.88,183a4.41,4.41,0,0,1,0-1.62"/>
    <path class="cls-4" d="M58.49,168.83a1.36,1.36,0,0,1,0,.17,1,1,0,0,0,.86.79.91.91,0,0,0,.33,0Z"/>
    <path class="cls-4" d="M74.76,181.36l-13.37-10.3a3,3,0,0,1-2.22.5,2.89,2.89,0,0,1-2.31-1.45,4.88,4.88,0,0,1-.51-2.92l-5.08-3.92-.42,1a8.29,8.29,0,0,0-3-1.1c-.83-.11-1.28.09-1.35.62-.16,1.25,5,.78,4.49,4.55a3.1,3.1,0,0,1-3.11,2.61l-.37,2.91L45,173.51l.36-2.86a14.12,14.12,0,0,1-2.39-1l1-2.22a7.42,7.42,0,0,0,2.67,1c.77.09,1.22-.11,1.28-.57.15-1.17-5-.66-4.49-4.56a3.19,3.19,0,0,1,3.19-2.66l.12-.92-5.05-3.89a5.32,5.32,0,0,1-4.76,1.51c-.45,3.63-1.28,10.25-1.74,13.89a5.56,5.56,0,0,1,5,5.73Z"/>
    <path class="cls-5" d="M130,67.83v-.07l.39-7.21c-1.12-21.31-10-25.68-10-25.68L119,22.93l-1.16,11s-50.91-3.61-56,20.3c-.29,2.86-.48,6.11-.51,9.78a18.22,18.22,0,0,1,.28,6.75c-.11,1.19-.23,2.43-.24,4,0,4,3.27,14.49,6.34,22.62.48,1.28,5.63,7.4,7.57,9.66a19.58,19.58,0,0,1,2.66,5.44l1.35-.53,5.45,13.9.7.31,3-12.34,28.4,6.64-1.52,6.64c3.57-1.38,6.2-2.67,7-3.07v-.45c-.09-5.3-.24-14.16,4.25-22.31.21-.59,2.81-8.15,4.07-13.74,1-4.42-.53-19.49-.55-19.65"/>
    <path class="cls-6" d="M75.23,107a19.42,19.42,0,0,1,2.65,5.44l1.36-.53,5.45,13.9.7.31,2.71-11.36-.84.24c-5,1.6-4.61-4.65-4-7.42-8.2-.7-9-11-17-14.15.47,1.34,1,2.65,1.42,3.91s5.64,7.4,7.58,9.66"/>
    <path class="cls-6" d="M129.42,91.81c-3.51,6.07-10.59,12.33-13.08,13.37,1.2,2.89,1,9-4,7.42-3.82-1.21-15.64.26-22.06,1.63l26.44,6.18-1.52,6.64c3.57-1.38,6.2-2.67,7-3.07v-.45c-.09-5.3-.24-14.16,4.25-22.31.16-.45,1.68-4.87,3-9.41"/>
    <path class="cls-7" d="M59.79,69.53c-.87.55-1.46,1.85-1.69,3.77-.27,2.11,1.68,7.9,4.55,11.49a57.46,57.46,0,0,1-2.08-10.07c.24-3.42.42-5,.49-5.47a3.05,3.05,0,0,0-1.27.28"/>
    <path class="cls-4" d="M105,151.87H97.65c-2.37-1.22-3.48-6.51-3.74-8.82a64.9,64.9,0,0,1,7.51-10.61,67.23,67.23,0,0,1,7.11,10.64c-.21,2.29-1.18,7.57-3.54,8.79"/>
    <path class="cls-3" d="M101.26,63c4.95-1.52,6-5.89,3.74-10.57,2.63,1.85,3.7,3.62,3.57,5.73,1.06-1.17,3.71-4.68,3.42-6.11a7.88,7.88,0,0,1,1.57,4.42c5.67-4.19,11.17-2.08,12.16-1.08,1.41,1.41,3,3.53.43,6.88.94-5.12-6.44-4.81-10.32-3.2-6.08,2.52-12.32,6-14.57,3.93"/>
    <path class="cls-3" d="M116,84.84c6.24-.66,11.9-4.17,11.88-9.8,0-3.47-4.89-7.53-8.57-3.14,2.1-5.05,10.87-1.81,10.94,3.89.09,8.08-6.77,11.5-13.51,12-9.45.66-13.2-1.29-17.38,1.19-1,.63-1.43-3,.11-3.83,4.07-2.12,8.13.14,16.53-.27"/>
    <path class="cls-3" d="M105,81.45A8.58,8.58,0,0,1,109.06,86c.73,1.8,4.26,1.45,5.36,1.36s6-1.08,7.37-.63c2.82,1,2.06,4.15.47,7.21-.94,1.8-2.53,5.66-4.88,11.26.3-2.85,1.53-6.16,3.16-10.21,1.11-2.76,3.06-6.19.83-6.9-1.46-.46-4,.14-6.88.6-3.71.59-5.75-1-6.15-2.17a16.26,16.26,0,0,0-3.35-5"/>
    <path class="cls-3" d="M97.62,97.8a44,44,0,0,0,10-3.4A4.38,4.38,0,0,1,104.86,97c-2.18.76-6.64,1.72-7.24.83"/>
    <path class="cls-3" d="M65.26,58.89s3.5-5.91,5.62-4.61,12.81,9,17.74,10.47c-2-2.88-2.52-10.56.62-15.52,0,0-5.2,3.57-5.14,9.56A16.73,16.73,0,0,1,81.19,51a8.4,8.4,0,0,0-1.14,5.38c-2.85-2-5.81-7.8-9.54-8.35-2.46-.2-3.38,1.13-3.38,1.13s2,0,2.42,1.37c-5.17,2.5-4.29,8.37-4.29,8.37"/>
    <path class="cls-3" d="M91.49,96.43c8.5-1.7,10-6.63,17.05-5.84,2.16.24,3.31,1.3,2.85,1.23-4.66-.73-9.3,3.23-19.9,4.61"/>
    <path class="cls-3" d="M86.75,65.56c-1.56,1.36-8.88-5.11-15.47-.49,7.74-5.22,12.25.5,15.47.49"/>
    <path class="cls-3" d="M90.91,65.56a13.82,13.82,0,0,1-.84,5.5,11.27,11.27,0,0,1,.14-2.79,12.28,12.28,0,0,1,.7-2.71"/>
    <path class="cls-3" d="M77.76,65.64a21.7,21.7,0,0,0-7.2,1.56h-.08a9.21,9.21,0,0,1-2-.25c1.15.37,1.67,1.23,5.13,1.74a46.76,46.76,0,0,0,7.38.89h.1c4.21,0,6.12-1.08,6.12-1.08s-1.37-2.78-9.37-2.86h-.11"/>
    <path class="cls-7" d="M130.84,69.28l.34,5,.42,7.81c1.18-2.8,2.47-6.39,2.18-8.77-.25-1.93-.83-3.23-1.69-3.76a1.81,1.81,0,0,0-1.25-.26"/>
    <path class="cls-3" d="M100.17,77.36c3.75-.18,5.32,4.92,2.67,6.3-1.6.83-3.3,1.5-3.3,1.5-.81.43-3.66,2.36-3.78,2.4a19,19,0,0,1-2.89-.67c-.8-.32-4.47-2.39-5.46-3-2-1.2.27-5.39,1.76-6.68-2.07,1.37-4.34,3.8-2.9,6.23-.72.59-1.16,1-1.88,1.71S82.8,86.68,82,87.48a11.86,11.86,0,0,0,2.69-2,10.49,10.49,0,0,0,1.62-2,4.2,4.2,0,0,0,.59.73c.61.64,1.52.75,3.64,1.58C92,88,95.39,88.51,95.9,88.4a12,12,0,0,0,3.5-3c2.53-.8,3.31-.6,4.09-1.3a3.82,3.82,0,0,0-3.32-6.73"/>
    <path class="cls-3" d="M56.91,91.77c-1.39,18,16.56,13.79,21.73,9.38a77.73,77.73,0,0,1,14.53-9.58c1-.64-1.17-3-2.79-2.49-3.15.94-6.65,3-14.43,8.54-19.47,13.79-19-5.85-19-5.85"/>
    <path class="cls-3" d="M104.67,66.21c6-5.54,15.37-1.31,16-.27-9-4.51-16,.27-16,.27"/>
    <path class="cls-3" d="M105.22,95.68c-3.83-3.32,2.37-8.08,8.81-2.67,4.58,3.84,23.38,17.75,26.71,20.88,6,5.7-2.37,12.71-8.89,7.37-7.07-5.79-22.8-22.26-26.63-25.58"/>
    <path class="cls-3" d="M112.1,112.6a17.69,17.69,0,0,0-4.48-.21c-1.49,0-3,.19-4.47.33q-4.47.48-8.91,1.2c-1.48.24-2.95.5-4.41.81-.37.07-.73.15-1.1.24s-.72.16-1.08.26l-.53.15c-.19,0-.38.11-.58.14a4.58,4.58,0,0,1-1.23.08,2.84,2.84,0,0,1-1.22-.37,2.61,2.61,0,0,1-.89-.89,4.92,4.92,0,0,1-.69-2.26,11.65,11.65,0,0,1,.06-2.29,12.85,12.85,0,0,1,.45-2.22A14.46,14.46,0,0,0,83,112a4.69,4.69,0,0,0,.74,2,2,2,0,0,0,1.66.88,4.42,4.42,0,0,0,1-.12l.51-.15.55-.16c.37-.12.73-.21,1.1-.31s.74-.19,1.11-.27c1.47-.34,3-.61,4.45-.86a87.54,87.54,0,0,1,9-1c1.51-.08,3-.13,4.53-.07a15.73,15.73,0,0,1,4.48.67"/>
    <path class="cls-8" d="M76,66.31a22.82,22.82,0,0,0-4.85,1.25,14.3,14.3,0,0,0,2.59.59l1.74.29c.76.12,1.54.26,2.34.36A3.25,3.25,0,0,1,76,66.31"/>
    <path class="cls-8" d="M82.64,66.67A3.32,3.32,0,0,1,80.33,69h.79a15.91,15.91,0,0,0,5.23-.74,8.1,8.1,0,0,0-3.71-1.62"/>
    <path class="cls-8" d="M80.05,66.92a1,1,0,1,1-1-.9,1,1,0,0,1,1,.9"/>
    <path class="cls-3" d="M114,65.83a24.39,24.39,0,0,0-11.35,2.6,32.66,32.66,0,0,0,14.57-.28,21.33,21.33,0,0,0,5.5-1.38,10.19,10.19,0,0,1-2.11.26h-.08a18.3,18.3,0,0,0-6.53-1.2"/>
    <path class="cls-8" d="M108,67.06a12,12,0,0,0-3.39,1.1,24.28,24.28,0,0,0,4.53.36h.11A3.47,3.47,0,0,1,108,67.06"/>
    <path class="cls-8" d="M114.83,66.44a3.42,3.42,0,0,1-1,1.67l1.37-.23,1.85-.3c.88-.13,1.57-.25,2.14-.37a18.57,18.57,0,0,0-4.41-.77"/>
    <path class="cls-8" d="M112.55,66.94c0,.35-.46.63-1,.63s-1-.28-1-.63.46-.63,1-.63,1,.28,1,.63"/>
    <path class="cls-9" d="M178.25,197.48l0-.18c.76-3.5.38-9.85.11-14.48a40.16,40.16,0,0,1-.15-5.89c.25-1.52-5.61-10.92-17.42-27.92-.92-1.32-1.58-2.27-1.87-2.71-1.73-2.59-2.33-7.28-2.47-8.59l-23.4-5.28,8.5,16.3-10.8,4.9,3.45,13.53-.2.19-10.71,9.84,3.17,1.13c9.95.89,22.74-2.07,23.34-2.19-.62-1.33-3.9-10.71-3.46-18.47,1.28,10.12,3.67,17,4.39,18.28.87-.18,13.24-4.84,18.62-3.4-.9-.09-6.51.36-8.46,1.42a15.39,15.39,0,0,1,8.46,2.4c-3.18-1.8-11-1.56-15.81-.2C146,178.34,135.29,180,127,179.22c-.15,5.65-3.12,12-5.69,15.74A51.63,51.63,0,0,1,116,201.4c7.23-.09,46.34-.6,58-1.4h.15l.13.08a8.06,8.06,0,0,0,3.73.78,1.27,1.27,0,0,0,.49-.7,3,3,0,0,0-.09-2.51Z"/>
    <polygon class="cls-10" points="80.87 178.85 85.25 182.02 90.17 179.81 90.73 174.44 86.35 171.27 81.42 173.48 80.87 178.85"/>
    <path class="cls-9" d="M140.31,148.29l-8.45-16.19-4.9-2.85c-.23,12.51-5.61,28.79-10.84,41.75.95.77,1.88,1.58,2.79,2.38,1.3,1.13,2.55,2.22,3.8,3.11l10.49-9.63-3.51-13.76Z"/>
    <path class="cls-4" d="M106.32,166c1.35.43,2.57.85,3.57,1.25a75.17,75.17,0,0,0-2.1-7.67Z"/>
    <path class="cls-5" d="M110.65,147.06l-2.45,10.71a77,77,0,0,1,2.71,9.88l.59.27a24.13,24.13,0,0,1,3.86,2.48c5-12.34,10-27.61,10.61-39.7-3.46,6.36-12.54,15.22-15.32,16.36"/>
    <path class="cls-5" d="M122.74,125a2.11,2.11,0,0,0-.15-.15c-.92.46-3.79,1.85-7.62,3.3l-4,17.55c2.81-1.6,12.61-10.83,15-17.16-.73-.92-2.46-2.73-3.23-3.54"/>
    <polygon class="cls-5" points="55.34 130.78 49.55 126.31 32.89 147.94 74.43 179.93 55.34 130.78"/>
    <path class="cls-4" d="M61,152.19a4.23,4.23,0,0,0-.89,1.7,1,1,0,0,0,1.51,1.16A4.39,4.39,0,0,0,63,153.76a6,6,0,0,0,.76-1.27l-.68-1.73a1.24,1.24,0,0,0-.7.13,4.36,4.36,0,0,0-1.42,1.3"/>
    <path class="cls-4" d="M66.52,159.56l-.63-1.62a2.46,2.46,0,0,0-.09.34,1,1,0,0,0,.34,1.11.76.76,0,0,0,.38.17"/>
    <path class="cls-4" d="M65.05,160.81a2.92,2.92,0,0,1-1.26-2.42,5,5,0,0,1,1.14-2.91l-.21-.56-.06.09A5.27,5.27,0,0,1,62,157a3,3,0,0,1-2.68-.61A2.92,2.92,0,0,1,58.09,154,6.28,6.28,0,0,1,62,148.92l.36-.08-6-15.31L55,132.41a5.56,5.56,0,0,1-7.61.53L38.81,144a5.56,5.56,0,0,1,1.43,7.49l33,25.45-6-15.47a3,3,0,0,1-2.22-.69m-9.16-14.93a8.74,8.74,0,0,0-2-2.48c-.67-.51-1.16-.57-1.48-.15-.78,1,3.88,3.19,1.56,6.21a3.12,3.12,0,0,1-4,.66l-1.79,2.33-2-1.52,1.76-2.29a13.73,13.73,0,0,1-1.57-2l2-1.41a7.31,7.31,0,0,0,1.79,2.24c.6.47,1.1.53,1.38.16.72-.93-4-3.09-1.56-6.2a3.17,3.17,0,0,1,4.1-.68l1.79-2.33,2,1.52L56,142.18a10.86,10.86,0,0,1,1.82,2.28Z"/>
    <path class="cls-4" d="M87.14,181.26h0l0,0Z"/>
    <path class="cls-5" d="M73.21,172.27a5.12,5.12,0,0,1,2.3-2.48l9.29-41.14-6-15.56L53.31,123l19.58,50.42a3.76,3.76,0,0,1,.32-1.12"/>
    <path class="cls-4" d="M75.51,169.79l2.59-11.46L77,157.4l-.66-1.71,2.64-1,.57-2.51-.06,0a5.25,5.25,0,0,1-3.31.36,3,3,0,0,1-2-1.9,2.89,2.89,0,0,1,.18-2.72,6.28,6.28,0,0,1,6-2.32,2.52,2.52,0,0,1,.61.25l3.28-14.51-4-10.22a5.57,5.57,0,0,1-6.79-3.49l-13,5.07a5.56,5.56,0,0,1-2.65,7.15l16.08,41.41a4.6,4.6,0,0,1,1.68-1.46m-8.76-36.14L64,134.72l-.9-2.33,2.69-1a13.13,13.13,0,0,1-.28-2.57l2.42-.19a7.33,7.33,0,0,0,.37,2.85c.28.71.67,1,1.1.85,1.1-.43-1.79-4.69,1.88-6.11a3.18,3.18,0,0,1,3.86,1.54l2.73-1.07.91,2.33-2.69,1a11.31,11.31,0,0,1,.37,2.9l-2.42.19a8.76,8.76,0,0,0-.46-3.18c-.31-.78-.7-1.08-1.19-.89-1.18.46,1.67,4.74-1.88,6.12a3.11,3.11,0,0,1-3.77-1.51m4.8,10.27a2.92,2.92,0,0,1,.18-2.72,6.31,6.31,0,0,1,6-2.32,3.27,3.27,0,0,1,1.79,4.62,6.39,6.39,0,0,1-6,2.32,3,3,0,0,1-2-1.9"/>
    <path class="cls-5" d="M81.22,169.44a3.81,3.81,0,0,1-.53-1.4,5,5,0,0,1,.74-3.36c2.06-3.42,12.7-1.53,12.7-1.53a79.74,79.74,0,0,1,11.25,2.52l10.11-44.45-26.63-6L76.55,169.4a11.44,11.44,0,0,1,4.67,0"/>
    <path class="cls-4" d="M81.22,169.44a5.34,5.34,0,0,1,.21-4.76c1.6-2.13,6.39-2.33,11.76-1.66l.94.13a78.72,78.72,0,0,1,9.78,2.09l8.32-36.85a5.56,5.56,0,0,1-3.68-6.68L94.9,118.63a5.57,5.57,0,0,1-6.2,4.45l-10.41,46.1a16.17,16.17,0,0,1,2.93.26m19.56-25.05a3,3,0,0,1-1.66,2.17,5.17,5.17,0,0,1-3.31.14,5.25,5.25,0,0,1-2.94-1.55,3,3,0,0,1-.58-2.68A2.92,2.92,0,0,1,94,140.31a5.16,5.16,0,0,1,3.33-.14,5.07,5.07,0,0,1,2.92,1.55,2.9,2.9,0,0,1,.57,2.67m-9-16.2,2.81.64a14.12,14.12,0,0,1,1.2-2.29l2.11,1.2a7.43,7.43,0,0,0-1.28,2.56c-.17.75,0,1.23.44,1.33,1.15.26,1.14-4.89,5-4a3.19,3.19,0,0,1,2.34,3.44l2.87.65-.55,2.43-2.82-.64a10.79,10.79,0,0,1-1.3,2.61l-2.12-1.19a8.57,8.57,0,0,0,1.39-2.89c.19-.82,0-1.29-.49-1.41-1.23-.28-1.25,4.87-5,4A3.12,3.12,0,0,1,94,131.27l-2.86-.64Zm-1,21.3a2.92,2.92,0,0,1,1.67-2.16,6.35,6.35,0,0,1,6.25,1.41,3.28,3.28,0,0,1-1.09,4.84,6.39,6.39,0,0,1-6.26-1.41,3,3,0,0,1-.57-2.68m-1.06,5.38,8.19,1.86-.49,2.14-6.13-1.38.56,1.85-1.6.39-.94-3.06Z"/>
    <path class="cls-4" d="M95.23,149.19a4.24,4.24,0,0,0-1.91-.08A1,1,0,0,0,92.9,151a4.13,4.13,0,0,0,1.77.74,4.49,4.49,0,0,0,1.92.1,1,1,0,0,0,.42-1.86,4.3,4.3,0,0,0-1.78-.75"/>
    <path class="cls-4" d="M96.82,142a4.1,4.1,0,0,0-1.91-.08,1,1,0,0,0-.42,1.85,4.28,4.28,0,0,0,1.76.74,4.35,4.35,0,0,0,1.93.09,1,1,0,0,0,.42-1.85,4.36,4.36,0,0,0-1.78-.75"/>
    <path class="cls-4" d="M77,140.77a4.38,4.38,0,0,0-1.89.38,4.27,4.27,0,0,0-1.63,1,1,1,0,0,0-.29,1.13,1,1,0,0,0,1,.64,4.13,4.13,0,0,0,1.88-.36,4.46,4.46,0,0,0,1.65-1,1,1,0,0,0-.69-1.77"/>
    <path class="cls-4" d="M79.64,147.48a5.46,5.46,0,0,0-3.53,1.37,1,1,0,0,0-.28,1.13,1,1,0,0,0,1,.64,4.19,4.19,0,0,0,1.88-.37,4.78,4.78,0,0,0,1.42-.79l.36-1.58a1.13,1.13,0,0,0-.82-.4"/>
    <path class="cls-5" d="M77.39,179c.29.11,1.92.73,4.18,1.5l-1.68-1.22.66-6.44L84.66,171c-4.94-1-9.7-1.12-10.64,1.67-.79,2.34,1.31,5,3.37,6.33"/>
    <path class="cls-5" d="M125.82,179.18c-4.79-.86-12.09-9.1-14.74-10.42-6.25-3.14-25.86-7.62-28.93-3.52-.51.68-1.51,3.66.64,4.52l3.09.7.58-.26.83.6c2.72.67,6.15,1.58,9.2,2.59a.47.47,0,0,1-.14.91l-.15,0-2-.65c-2.93,3.52-2.78,8.15-2.53,9.82.48.1,1,.2,1.4.28a.47.47,0,0,1-.08.93H93a69.51,69.51,0,0,1-7.22-1.83l-.59.27-1.09-.79c-3.37-1.07-6.15-2.1-6.86-2.37-1.54.69-1.87,1.78-1.18,3.84,1.88,5.64,17.77,7.83,17.93,7.85H94l.08,0c4.57,2.5,12.89,4.16,16.75,2.55a54.16,54.16,0,0,1,11-2.63c.77-1.28,5.26-8.94,4-12.41"/>
    <path class="cls-6" d="M127.46,58.25a4.62,4.62,0,0,1-.93,3.53,4,4,0,0,1,0,1.59c1.69-2.18,1.59-3.83.93-5.12"/>
    <path class="cls-6" d="M115.83,59.1c-5,2.08-10.14,4.83-13,4.55a9.16,9.16,0,0,1-1.15.44c2.24,2.1,8.49-1.4,14.57-3.93,3.11-1.29,8.47-1.74,10,.78-.54-3.68-6.88-3.29-10.37-1.84"/>
    <path class="cls-6" d="M88.06,51.66A18,18,0,0,0,88,63.6C87,60,87.09,54.28,89.62,50.3a11.52,11.52,0,0,0-1.56,1.36"/>
    <path class="cls-6" d="M82.27,55.39a18.49,18.49,0,0,1-.7-3.34c-.06.1-.11.21-.16.31a18.14,18.14,0,0,0,.86,3"/>
    <path class="cls-6" d="M67.5,50.22a3.63,3.63,0,0,1,1.72.47l.33-.17a1.76,1.76,0,0,0-1-1.07,2.58,2.58,0,0,0-1,.77"/>
    <path class="cls-6" d="M70.88,54.28c-1.72-1.06-4.35,2.64-5.28,4.07a8.91,8.91,0,0,0,0,1.61s3.5-5.92,5.62-4.61,12.81,9,17.75,10.46a6.28,6.28,0,0,1-.6-1.13c-5-1.61-15.49-9.14-17.52-10.4"/>
    <path class="cls-7" d="M121,83.63c4-1.58,6.9-4.54,6.88-8.59a4.81,4.81,0,0,0-.77-2.48A7.66,7.66,0,0,0,122,70.1a4.49,4.49,0,0,0-1.48.69c3-.71,5.86,2.29,5.87,4.95,0,3.52-2.19,6.21-5.37,7.89"/>
    <path class="cls-7" d="M107.33,84.46a18.21,18.21,0,0,0-2.34-3l1.14,2.89,1.2.12"/>
    <path class="cls-7" d="M122.77,86.44l-.88.31.12.06.76-.37"/>
    <path class="cls-7" d="M121.37,88.07c-1.46-.46-4,.23-6.88.6a7.6,7.6,0,0,1-5-.85l-2-.09c-3.34-.17-5.63-.24-8,1.16,2.32-.81,4.76-.53,8.36-.38l.06.15c.73,1.8,4.26,1.45,5.36,1.37s4.62-1,5.94-.5c2.21.87,1.16,3.17-.38,6.4-.1.2-.19.41-.29.62.35.28.71.56,1.09.84.3-.78.61-1.58,1-2.42,1.11-2.76,3.06-6.19.83-6.9"/>
    <path class="cls-7" d="M103.43,96.15l1.63-.62a2.76,2.76,0,0,1-1-2.33l-1.5.52a2.63,2.63,0,0,0,.87,2.43"/>
    <path class="cls-7" d="M116.85,107.08c-4.5-4.47-8.64-8.65-10.84-10.68a4.57,4.57,0,0,1-1.15.57l-.39.13c2.45,2.28,7.35,7.23,12.44,12.27a9.23,9.23,0,0,0-.06-2.29"/>
    <path class="cls-7" d="M102.31,87.83a8.85,8.85,0,0,0-3,1.11c-.76.45-1.16-1.29-.77-2.61A11.2,11.2,0,0,1,95.9,88.4c-.52.11-3.87-.41-5.34-2.53-2.13-.83-3-.94-3.65-1.57a5.3,5.3,0,0,1-.59-.74,9.76,9.76,0,0,1-1.62,2,12.35,12.35,0,0,1-2.57,1.91c.1.22,6.16-1.51,8.36.62s5.82,1.21,7.33-.07a1.7,1.7,0,0,0,1.51,2.21,4.56,4.56,0,0,0,.82-.58,4.75,4.75,0,0,1,2.64-1.26c1.25-.31-.48-.51-.48-.51"/>
    <path class="cls-7" d="M93,93.11a2.63,2.63,0,0,0,.28-1.66h0a.87.87,0,0,1-.14.12,78.42,78.42,0,0,0-14.53,9.58,13,13,0,0,1-2.81,1.76l.51.62C79,103.18,88.79,94.4,93,93.11h0"/>
    <path class="cls-6" d="M61.79,56.56c5.14-23.91,56.05-20.31,56.05-20.31l2.55,1s8.55,4.23,9.91,24.63l.07-1.29c-1.12-21.31-10-25.68-10-25.68L119,22.93l-1.16,11s-50.91-3.6-56,20.31c-.29,2.86-.48,6.11-.51,9.78a1.62,1.62,0,0,0,0,.19c.08-2.8.24-5.35.47-7.63"/>
    <path class="cls-11" d="M110.63,147l-.42,2.1a44.64,44.64,0,0,0,13.67-13C121,151.87,116,165,113.82,169.3c.52.35,1,.72,1.54,1.1,5-12.34,10-27.61,10.62-39.7-3.62,6.64-13.06,15.84-15.35,16.29"/>
    <path class="cls-11" d="M80,178.39c-1.42-.5-2.38-.87-2.6-.95A7.83,7.83,0,0,1,73.94,173c-.53,2.26,1.47,4.78,3.44,6,.29.11,1.92.73,4.18,1.5l-1.68-1.22Z"/>
    <path class="cls-11" d="M82.78,169.76l3.09.7.59-.26.83.6c1.95.48,4.27,1.09,6.55,1.77,1,.28,2.6.82,2.65.82a55.14,55.14,0,0,0-9.2-4.16l-4.51-1a2,2,0,0,1-1.23-1.42c-.22,1.11-.1,2.46,1.23,3"/>
    <path class="cls-11" d="M120.92,190.15a47,47,0,0,0-10.08,2.5c-3.86,1.61-12.17-.05-16.75-2.55l-.07,0-.09,0c-.16,0-16.05-2.21-17.93-7.84-.1-.32-.18-.61-.24-.88a4.08,4.08,0,0,0,.24,2.45c1.88,5.64,17.77,7.83,17.93,7.85H94l.07,0c4.58,2.5,12.89,4.16,16.75,2.55a54.16,54.16,0,0,1,11-2.63c.73-1.2,4.72-8,4.17-11.72-.43,3.8-4.43,9.23-5.06,10.28"/>
    <path class="cls-1" d="M146.28,174.18c-4.41,1.5-9.94,1.87-18.69,1.9l8.67-8-3.46-13.53,10.81-4.9-8.14-15.45-1.63-.37-.75-1.44,8.5,16.3-10.8,4.9,3.46,13.53-10.92,10,3.17,1.13c9.94.89,22.73-2.07,23.34-2.19a52.12,52.12,0,0,1-3.5-16.52c-.37,2.64-1.18,9.73-.06,14.57"/>
    <path class="cls-12" d="M115.3,22.33l-.09,0,.09,0-.22-.11c-6-3.92-25.78-12.33-42,.8,0,0,7-4.84,20.66-4.63A34.26,34.26,0,0,0,70.3,29.18s6.84-6.26,21.59-8a34.13,34.13,0,0,0-21.81,12.9S82.77,20,114.23,23a39.83,39.83,0,0,0-8.34-2A89.6,89.6,0,0,1,115,22.25l.27.08"/>
    <path class="cls-12" d="M134,38.34c.76,1.77,1.53,3.74,2.35,6C134.78,28,125.48,24.68,125.48,24.68c1.37,1.66,2.55,3.2,3.62,4.75a11.21,11.21,0,0,0-3.74-2.67,49.18,49.18,0,0,1,5.78,8.42A11.44,11.44,0,0,0,126,30.5c3.74,4.56,5.72,7.86,8.34,15.13A28,28,0,0,0,133,39.17c.65,1.53,1.31,3.23,2,5.18a34.3,34.3,0,0,0-1.09-6"/>
    <path class="cls-13" d="M112.48,96.47c-1.4-1.21.65-2.78,3-.8,1.68,1.41,11.54,8.59,12.77,9.74,2.21,2.09-.87,4.65-3.26,2.7-2.59-2.13-11.11-10.42-12.52-11.64"/>
    <polygon class="cls-8" points="88.03 188.18 87.36 178.43 77.62 177.53 87.38 176.86 88.28 167.13 88.94 176.88 98.68 177.78 88.92 178.44 88.03 188.18"/>
    <path class="cls-2" d="M140.31,148.29l-8.45-16.19-4.9-2.85,0,.68,3.62,2.09L139,148.21,128.37,153l3.51,13.76-9.94,9.13c.25.2.51.4.77.58l10.49-9.63-3.51-13.76Z"/>
    <path class="cls-2" d="M146.4,157.78A67.39,67.39,0,0,0,150.77,176c.37-.08.65-.23.86-.27a168.16,168.16,0,0,1-5.23-17.9"/>
    <path class="cls-2" d="M127,179.23c0,.29,0,.82-.07,1.12,8.19.59,18.4-1,25.75-3.13,4.75-1.37,14-.71,17.56-.29-2-1.85-6.91-1.85-8.69-1.85a32.48,32.48,0,0,0-7.94,1.08,89.11,89.11,0,0,1-18.74,3.16,59,59,0,0,1-7.87-.09"/>
    <path class="cls-2" d="M163.19,174.1a30.87,30.87,0,0,1,8,.43c-1.62-1.76-9-1.34-10.08-.68l-.22.11a14.15,14.15,0,0,1,2.26.14"/>
    <path class="cls-2" d="M178.25,197.48l0-.18c.76-3.5.38-9.85.11-14.48a40.16,40.16,0,0,1-.15-5.89c.25-1.52-5.61-10.92-17.42-27.92-.92-1.32-1.58-2.27-1.87-2.71-1.73-2.59-2.33-7.28-2.47-8.59l-23.4-5.28.75,1.44,21.72,4.89c.14,1.32.74,6,2.47,8.59.29.45.95,1.4,1.86,2.71,11.82,17,17.68,26.4,17.43,27.92a41.31,41.31,0,0,0,.14,5.9c.28,4.63.65,11-.11,14.48l0,.18.09.16c.38.63,1.38-.32.93-1.06Z"/>
    <path class="cls-11" d="M140.16,107.24a22.83,22.83,0,0,0,2.71-1.08,7.94,7.94,0,0,0,2.28-1.51,2.57,2.57,0,0,0,.37-.46.89.89,0,0,0,.18-.39,0,0,0,0,0,0,0,.22.22,0,0,0,0,.08.46.46,0,0,0,.11.27c.11.13.13.1.07.11a3.52,3.52,0,0,0-.55,0,14.47,14.47,0,0,1-3.1,0,3.21,3.21,0,0,1-.43-.07l-.22,0-.31-.1a2.07,2.07,0,0,1-1.16-1.09,2.32,2.32,0,0,1-.07-1.57,3.45,3.45,0,0,1,.54-1,6.39,6.39,0,0,1,3-2.09,13.88,13.88,0,0,1,6.55-.5,25,25,0,0,1,3.06.67c.46.12.92.25,1.32.33l.22,0h-.36l-.25.07L154,99l-.27.13a1.82,1.82,0,0,0-.72.83,1.78,1.78,0,0,0-.14.43,1.6,1.6,0,0,0,0,.44,1.93,1.93,0,0,0,.08.43,1.31,1.31,0,0,0,.11.26,1.38,1.38,0,0,0,.2.33l.09.1.06,0h0l0,0-.22-.14-2.49-1.44c-.85-.5-1.71-1-2.56-1.56a37.53,37.53,0,0,1-4.94-3.69,17,17,0,0,1-2.24-2.44,8,8,0,0,1-1.58-3.53l-.39-2.44,2.46.13c2.19.11,4.4.21,6.52.15a18.8,18.8,0,0,0,3-.28,6.56,6.56,0,0,0,1.19-.35,2.87,2.87,0,0,0,.93-.66l.25,2.46-2.87-2.23c-.47-.38-.95-.75-1.41-1.15s-.92-.78-1.43-1.24l-1.17-1.07,1.2-.85A20.31,20.31,0,0,0,150,79.54a21.09,21.09,0,0,0,2.18-2.45,17.36,17.36,0,0,0,1.7-2.81,12.76,12.76,0,0,0,1-3.22,10.71,10.71,0,0,1-.19,3.47,16,16,0,0,1-1.22,3.33,23,23,0,0,1-1.89,3,22.44,22.44,0,0,1-2.42,2.69l0-1.92c.43.3.95.64,1.44,1l1.5,1,3,1.92,1.5,1-1.25,1.5a6.54,6.54,0,0,1-1.68,1.43,8.76,8.76,0,0,1-2,.78,20.25,20.25,0,0,1-3.63.58c-1.18.1-2.33.13-3.49.16s-2.29,0-3.43,0l2.07-2.32a4.67,4.67,0,0,0,.88,1.72,12.93,12.93,0,0,0,1.74,1.84,37.56,37.56,0,0,0,4.39,3.35c.78.53,1.58,1,2.4,1.56s1.62,1,2.52,1.6l.37.26.26.21.07.06.13.12a2.11,2.11,0,0,1,.51.85,1.7,1.7,0,0,1,.08.46,2.3,2.3,0,0,1,0,.46,1.77,1.77,0,0,1-.14.45,2,2,0,0,1-.76.86,1.9,1.9,0,0,1-.28.14l-.15,0-.29.07a1.4,1.4,0,0,1-.22,0h-.2a1.47,1.47,0,0,1-.27,0l-.18,0a4,4,0,0,1-.49-.11c-.55-.15-1-.3-1.5-.47a22.09,22.09,0,0,0-2.6-.76,10.79,10.79,0,0,0-5-.12,4.5,4.5,0,0,0-1.9.92c-.23.19-.17.35-.26.08-.07-.12-.17-.15-.14-.12s0,0,0,0l.14,0,.28.09a17.84,17.84,0,0,0,2.74.37,5.38,5.38,0,0,1,.9.16,1.56,1.56,0,0,1,.71.44,1.11,1.11,0,0,1,.25.59,1.16,1.16,0,0,1,0,.48,2.46,2.46,0,0,1-.54.87,4.43,4.43,0,0,1-.66.58,9.09,9.09,0,0,1-2.88,1.18,16.53,16.53,0,0,1-2.94.42"/>
    <path class="cls-9" d="M140.16,107.24a19.11,19.11,0,0,0,2.78-.88,8.56,8.56,0,0,0,2.47-1.4,4.25,4.25,0,0,0,.46-.5,1.65,1.65,0,0,0,.28-.54c0-.08,0-.07,0-.06a.32.32,0,0,0-.17-.06,3.34,3.34,0,0,0-.66,0,15.83,15.83,0,0,1-3-.09,4,4,0,0,1-.81-.2,1.39,1.39,0,0,1-.77-.74,1.53,1.53,0,0,1,0-1,2.78,2.78,0,0,1,.43-.8,5.76,5.76,0,0,1,2.69-1.74,12.89,12.89,0,0,1,6.1-.32,27.05,27.05,0,0,1,2.92.71c.46.14.93.27,1.37.37l.31.06h.06a.58.58,0,0,0-.14,0l-.05,0-.1,0a.68.68,0,0,0-.27.31.83.83,0,0,0-.07.34.87.87,0,0,0,.07.26.41.41,0,0,0,.07.11s0,0,0,0h0L154,101l-.28-.18c-1.62-1-3.36-2-5-3A37.29,37.29,0,0,1,144,94.21,16.09,16.09,0,0,1,141.87,92a7.23,7.23,0,0,1-1.37-3l-.16-1,1,0c2.23.08,4.45.16,6.65.06a16.77,16.77,0,0,0,3.2-.37,6.08,6.08,0,0,0,1.42-.48,4,4,0,0,0,1.16-.89l.1,1-2.92-2.13-1.44-1.1c-.48-.37-1-.74-1.43-1.15l-.46-.4.47-.37a21.48,21.48,0,0,0,2.43-2.26,22.84,22.84,0,0,0,2.1-2.61,15.91,15.91,0,0,0,1.55-3,11.8,11.8,0,0,0,.72-3.29,11.16,11.16,0,0,1-.43,3.39,16.46,16.46,0,0,1-1.36,3.17,22.23,22.23,0,0,1-2,2.85A22,22,0,0,1,148.69,83v-.77c.45.35,1,.7,1.44,1l1.47,1,3,2,.61.42-.51.57a6,6,0,0,1-1.45,1.2,7.52,7.52,0,0,1-1.74.65,19.74,19.74,0,0,1-3.45.48c-1.14.08-2.27.1-3.41.11s-2.26,0-3.38-.07l.82-.92A5.38,5.38,0,0,0,143.17,91a14.34,14.34,0,0,0,1.89,2,37.07,37.07,0,0,0,4.55,3.46c1.62,1.07,3.27,2,5,3.1l.33.23.19.15.12.11.08.09a1.74,1.74,0,0,1,.11.18.62.62,0,0,1,.08.31.68.68,0,0,1-.06.37.81.81,0,0,1-.31.35.35.35,0,0,1-.12.06l-.07,0a.55.55,0,0,1-.23,0h-.1a1.72,1.72,0,0,1-.29,0l-.41-.09c-.5-.13-1-.28-1.44-.43a26,26,0,0,0-2.75-.73,11.7,11.7,0,0,0-5.49.07,4.78,4.78,0,0,0-2.24,1.27,1,1,0,0,0-.32.84.43.43,0,0,0,.25.25,3.32,3.32,0,0,0,.6.18,18.4,18.4,0,0,0,2.85.26,3.94,3.94,0,0,1,.79.11,1,1,0,0,1,.48.27.68.68,0,0,1,.11.63,2.1,2.1,0,0,1-.44.72,3.23,3.23,0,0,1-.57.54,12.65,12.65,0,0,1-5.56,1.91"/>
    <path class="cls-14" d="M140.34,120.52c-1.5,1.69-3.59,2.27-4.66,1.32s-.71-3.1.79-4.78,3.6-2.27,4.67-1.32.71,3.1-.8,4.78"/>
    <path class="cls-10" d="M139.67,119.92c-1,1.1-2.35,1.49-3,.86s-.46-2,.52-3.12,2.35-1.49,3.05-.86.47,2-.52,3.12"/>
  </g>
</svg>
