<svg id="Layer_1" data-name="Layer 1" xmlns="http://www.w3.org/2000/svg" viewBox="0 0 320 320">
  <defs>
    <style>
      .cls-1 {
        fill: #4092b5;
      }

      .cls-2 {
        fill: #13354c;
      }

      .cls-3 {
        fill: #f2f2f0;
      }

      .cls-4 {
        fill: #4b6577;
      }

      .cls-5 {
        fill: #fff;
      }

      .cls-6 {
        fill: #a2aeb5;
      }

      .cls-7 {
        fill: #d7dbdc;
      }

      .cls-8 {
        fill: #1e5e82;
      }

      .cls-9 {
        fill: #ced4d6;
      }

      .cls-10 {
        fill: #347999;
      }

      .cls-11 {
        fill: #7199b0;
      }

      .cls-12 {
        fill: #68a9c5;
      }
    </style>
  </defs>
  <title>14</title>
  <g>
    <path class="cls-1" d="M104.52,195.63A44.6,44.6,0,0,1,93,198.48l-1.88-9.65a36.38,36.38,0,0,0,12.56-3.33c3-1.58,4-3.37,3-5.2-2.39-4.53-18.29,8.93-25.48-4.72-2.84-5.38-1-11.46,4.3-15.87l-5.54-10.53L89,144.47l5.45,10.35a50.29,50.29,0,0,1,10.19-2.33l1.88,9.64A30.22,30.22,0,0,0,95.23,165c-2.81,1.48-3.76,3.23-2.92,4.82,2.25,4.29,18-9.35,25.47,4.72,2.93,5.57,1,11.74-4.42,16.25l5.55,10.53L110,206Z"/>
    <path class="cls-1" d="M217.51,181.2a13,13,0,0,1-3.36.91l-.61-2.82a10.76,10.76,0,0,0,3.67-1.06c.87-.48,1.16-1,.86-1.55-.73-1.32-5.32,2.74-7.52-1.23-.87-1.56-.35-3.36,1.17-4.69L210,167.7l2.6-1.44,1.67,3a14.11,14.11,0,0,1,3-.75l.61,2.82a9,9,0,0,0-3.3.9c-.81.45-1.08,1-.83,1.44.7,1.24,5.26-2.87,7.53,1.22.89,1.62.37,3.45-1.2,4.81l1.7,3.06-2.6,1.44Z"/>
    <path class="cls-1" d="M85.16,132.53a13.8,13.8,0,0,1-3.36.91l-.61-2.83a10.76,10.76,0,0,0,3.67-1.06c.87-.48,1.16-1,.86-1.55-.73-1.31-5.32,2.75-7.52-1.22-.87-1.57-.35-3.37,1.17-4.7L77.67,119l2.6-1.44,1.67,3a14.75,14.75,0,0,1,3-.75l.61,2.82a8.9,8.9,0,0,0-3.29.9c-.82.46-1.09,1-.84,1.44.7,1.25,5.26-2.87,7.53,1.23.89,1.61.37,3.44-1.2,4.8l1.7,3.06-2.6,1.44Z"/>
    <path class="cls-1" d="M95.57,113.63A32.91,32.91,0,0,1,88,109.89l3.43-6.16a25.93,25.93,0,0,0,8.42,4c2.37.52,3.75,0,4.07-1.44.78-3.59-14.15-3.55-11.79-14.35.93-4.26,4.76-6.72,9.68-6.71l1.83-8.33,7.06,1.54-1.78,8.19A35.41,35.41,0,0,1,115.53,90l-3.42,6.15a21.71,21.71,0,0,0-7.47-3.66c-2.23-.49-3.56,0-3.83,1.3-.74,3.39,14.21,3.2,11.78,14.34-1,4.4-4.86,6.91-9.92,6.87l-1.82,8.32-7.07-1.54Z"/>
    <path class="cls-1" d="M232.26,192.89a45.78,45.78,0,0,1-9-7.92l6.95-7.11a36.92,36.92,0,0,0,10,8.54c3,1.59,5.11,1.4,6.08-.45,2.4-4.59-17.93-10.09-10.7-23.92,2.85-5.45,9-7.38,15.68-5.54l5.58-10.65,9.05,4.72-5.48,10.49a50.15,50.15,0,0,1,7.79,7.14l-7,7.1a30.54,30.54,0,0,0-8.82-7.76c-2.84-1.49-4.85-1.28-5.69.34-2.27,4.34,18.16,9.65,10.7,23.91-3,5.64-9.18,7.6-16.06,5.66l-5.57,10.66-9.06-4.73Z"/>
    <path class="cls-1" d="M297.09,189.55a26.22,26.22,0,0,1-6.56,1.75l-1.18-5.52a20.76,20.76,0,0,0,7.17-2c1.71-.93,2.27-2,1.7-3-1.42-2.57-10.4,5.31-14.66-2.45-1.68-3.06-.67-6.56,2.3-9.15l-3.28-6,5.08-2.79,3.23,5.88a28.65,28.65,0,0,1,5.82-1.44l1.17,5.51a17.63,17.63,0,0,0-6.43,1.73c-1.6.88-2.13,1.9-1.63,2.8,1.34,2.43,10.26-5.55,14.66,2.45,1.74,3.16.7,6.72-2.37,9.36l3.28,6-5.08,2.8Z"/>
    <path class="cls-1" d="M235.43,141.25a25.58,25.58,0,0,1-3.23-5.81l5-2.43a20.28,20.28,0,0,0,3.64,6.33c1.29,1.39,2.41,1.68,3.26.89,2.11-2-7.51-8.62-1.16-14.52,2.51-2.32,6.08-2.19,9.24,0l4.91-4.55,3.86,4.16-4.82,4.47a28.8,28.8,0,0,1,2.75,5.19l-5,2.43a17,17,0,0,0-3.17-5.7c-1.22-1.31-2.31-1.57-3.05-.89-2,1.86,7.72,8.44,1.16,14.52-2.59,2.4-6.22,2.27-9.46,0l-4.9,4.55-3.86-4.16Z"/>
    <path class="cls-1" d="M40.34,154.76a26.48,26.48,0,0,1-4.66-5.16L40.16,146a21.48,21.48,0,0,0,5.2,5.59c1.65,1.11,2.86,1.14,3.54.13,1.68-2.49-9.69-7-4.62-14.5,2-3,5.67-3.67,9.41-2.17l3.92-5.79,4.91,3.32-3.84,5.69a29.5,29.5,0,0,1,4,4.63l-4.48,3.65a17.72,17.72,0,0,0-4.58-5.06c-1.54-1-2.72-1.05-3.31-.17-1.59,2.35,9.85,6.75,4.62,14.5-2.07,3.06-5.79,3.78-9.64,2.21l-3.91,5.79-4.92-3.32Z"/>
    <path class="cls-1" d="M24,199.82a25.64,25.64,0,0,1-6.53,1.69L16.31,196a20.7,20.7,0,0,0,7.14-2c1.71-.92,2.28-2,1.72-3-1.39-2.57-10.39,5.19-14.57-2.56C9,185.44,10,182,13,179.42l-3.22-6,5.07-2.73L18,176.58a28.5,28.5,0,0,1,5.8-1.38l1.12,5.5a17.22,17.22,0,0,0-6.41,1.66c-1.6.86-2.14,1.87-1.65,2.77,1.31,2.43,10.26-5.43,14.56,2.56,1.7,3.16.65,6.7-2.44,9.3l3.22,6-5.07,2.73Z"/>
    <path class="cls-1" d="M240.5,109.9a18,18,0,0,1-4.66.44l-.17-3.9a14.25,14.25,0,0,0,5.11-.56c1.27-.44,1.78-1.08,1.51-1.85-.67-1.92-7.69,2.41-9.7-3.36-.8-2.27.3-4.54,2.62-6l-1.55-4.45L237.44,89,239,93.32a20.09,20.09,0,0,1,4.13-.31l.16,3.89a12.12,12.12,0,0,0-4.58.43c-1.18.42-1.66,1-1.43,1.72.63,1.81,7.63-2.6,9.7,3.35.82,2.36-.29,4.66-2.69,6.11L245.8,113,242,114.27Z"/>
    <path class="cls-2" d="M299.35,191.76c-3.55-3.65-8.79-1-10.72.12.82-3.53-7-9.65-7.24-10-1.35-2.13-2.75-4.33-5.06-4.89a4.43,4.43,0,0,0-2.74.23,6.85,6.85,0,0,0-3.4-2,6.35,6.35,0,0,0-1.53-.17,9.19,9.19,0,0,0-4.88,1.49c-1.19.78-1,6.91-1,7.13-.22,1.46-9.44,13.46-10,14.87A22.84,22.84,0,0,0,251,205a27.52,27.52,0,0,1-2.26-2S236.1,209,231,210.6c-.41-.53-10.73-15.73-10.51-17.6s-1.17-2.46-2.5-3.1c-.71-.35-25.66-11.59-25.66-11.59s-.24-9.69.11-12.81a39.45,39.45,0,0,0,10.37-23.31s.41-4.1.51-5.51c.34-.75,3.33-6.83,3.64-9l.07,0a33.24,33.24,0,0,0,4.85-2.19l5.51-3.32-6.31-1.25a11,11,0,0,1-2.29-.7c2.16-1,8.7-8.38,8.7-8.38l-3.71-.93c-3.67-.92-4.89-7.45-6.18-14.36-2.08-11.09-4.66-24.85-18.91-27.55-7.54-5.75-26-12.1-42.14-4.57C133.21,70.65,125,79.75,122.69,92.89c-1.22,7,4,26.65,4,26.8a9.53,9.53,0,0,0-2.83,6.08c-.33,2.62.47,6.24,2.37,10.78.3,3.41,1,13,5.21,20.74a37.65,37.65,0,0,0,6.37,9c.3,3,.19,10.46-.69,12-1.86.86-27.1,12.27-27.1,12.27s-.63,6-11,20c-3.89-1.32-16.88-7.4-16.88-7.4l-2.32,2.49s-.52-4.72-2.42-7.14c-.4-.51-9.35-13.37-10-15a.92.92,0,0,1,0-.16c1.47-6.51-5.14-8.26-6.33-8.26a4.63,4.63,0,0,0-1,.12,7.3,7.3,0,0,0-3.28,2.06,4.36,4.36,0,0,0-2.89-.3c-2.31.56-3.71,2.76-5.06,4.89-.25.39-8.06,6.51-7.24,10-1.93-1.1-7.57-3.79-10.72-.12-1.56,1.8-1.19,4.39-.55,5.94s2.54,3.37,5.8,5.76a4.34,4.34,0,0,0-3.5,4.42c.38,7,11.78,8.75,16.12,9.15,4.62,2.58,10.82,3.13,15.3,3.13.81,0,1.51,0,2.09,0l-3.83,6.22s32.15,14.62,41.41,18.1c.82.76,4.71,4.64,8.46,1.07,1.49-1.42,1.6-3.82,1.58-5.43,2.09-1.77,7.3-5.89,12.66-9.61.45,1.83,4.05,16.43,4.47,16.92.61.72,15.86,10.54,34.07,10.54s33.39-9.86,33.54-10c.82-.54,4.41-14.73,5.1-17.5,5.31,3.68,10.45,7.73,12.59,9.54-.2,1.77,0,5.75,2.25,6.71,2.92,1.28,6.12-1.18,7.68-2.21h0c9-3.35,40.48-18.17,40.48-18.17l-3.2-5.85c.58,0,13.47-.88,18.09-3.46,4.34-.4,15.82-2.11,16.12-9.15.13-3.11-2.67-4.2-3.53-4.43,4.94-3.59,5.58-5.13,5.83-5.75C300.54,196.15,301,193.46,299.35,191.76Zm-25.49,1.66a.32.32,0,0,1-.1,0,2,2,0,0,1-1-.4c.32-.57.67-1.21,1-1.87.25.22.5.43.77.63C274.28,192.4,274,193.12,273.86,193.42Zm-217.41-.06h-.07c-.14-.3-.43-1-.66-1.64.27-.2.52-.41.77-.62.34.66.69,1.29,1,1.86A2.09,2.09,0,0,1,56.45,193.36Z"/>
    <path class="cls-1" d="M247.94,207.29c-.53.24-13.94,6.14-17.44,7.51-.14.93-.48,3-.85,5.16-.25,1.4-.52,2.8-.74,3.85s-.4,1.74-.4,1.74.12-.7.25-1.76.27-2.48.39-3.9c.11-1.19.2-2.38.28-3.36-.44.79-1,1.7-1.56,2.57a14.39,14.39,0,0,1-2.43,2.86,4.3,4.3,0,0,1-1,.66,1.52,1.52,0,0,1-.33.12l-.11,0,.11-.05a3.2,3.2,0,0,0,.31-.14,4.13,4.13,0,0,0,1-.75,13.27,13.27,0,0,0,2.11-3,33,33,0,0,0,1.58-3.33c.14-.33.25-.62.35-.86-2-2.67-12.69-16.75-12.54-21L197,184.2l6.92,12.43-3.14,1.42c-1.53,5.1-.75,9-.06,12.42.78,3.88,1.45,7.24-1.62,10.86h0l0,0s0,0,0,0l-.09.07a.38.38,0,0,1-.1,0l-.07,0c-.79.1-18.43,2.45-22.91,2.78l.7,3.3c5.29-.06,21.28-2.36,21.45-2.39a.5.5,0,0,1,.14,1c-.68.1-16.64,2.39-21.79,2.39h-.21a.48.48,0,0,1-.47-.39l-.91-4.26a.47.47,0,0,1,.09-.41.54.54,0,0,1,.37-.19c.71,0,4.22-.51,4.22-.57a25.81,25.81,0,0,1,.34-4.2l-14.37,4.89v31c16-.16,29.38-8.27,31-9.28.09-.39,5.61-23,8.19-32.76a.51.51,0,0,1,.61-.35.5.5,0,0,1,.36.61c-1,3.81-2.17,8.32-3.29,12.77l.11,0a166.89,166.89,0,0,1,17.28,13c.09.1-.57,4.16.78,4.64s3.83-1.65,4.21-1.79c7.93-2.89,33.5-14.94,37.7-16.93Z"/>
    <path class="cls-3" d="M135,155.67c-1.24-2.71-5.16-12.18-4.82-26,.08-3,.48-14.49.35-17.18.36-9.59,1.89-14.09,3.3-16.2a11.44,11.44,0,0,0,7.22,4.78c1.39.3,5.94.11,7.46-3.63-3.3,2.22-6.5-1-6.86-3-1.28-7,5.51-7.54,11.16-7.8,10.72-.49,22.47,3.47,34-.32.2-2.72.24-8.48.24-10.73h.18l2.16,11.7s8.36,4.13,9.95,23.85l-.43,9.4v.09c.45,4.7.82,9.43.94,14.14a133.92,133.92,0,0,1-2,13.88c-2.28,8.21-8.2,15.07-13.61,19.65a.24.24,0,0,0,.29.39,37.21,37.21,0,0,0,4.42-3.32c-.45,4.29-.46,10.59-.46,11.87-1.33,1.14-5.27,2.92-9.78,4.4-5.41,1.78-10.47,2.81-13.87,2.81-7.59,0-20.94-4.93-23.63-7.2a81.2,81.2,0,0,0,.14-10.77,20.47,20.47,0,0,0,5.29,4A.3.3,0,0,0,147,170C142.51,166.28,137.51,161.29,135,155.67Z"/>
    <path class="cls-3" d="M67,216.59c-1.15.08-11.33.68-17.07-2.9-.07-.05-13.55-1-13.84-6a.6.6,0,0,1,.24-.53c1.19-1,5.94-.61,10.53.28h.07q1.07.21,2.1.45a.49.49,0,0,0,.59-.38.51.51,0,0,0-.38-.6l-2.09-.45c-9.87-5.79-15-9.9-13.65-12.21s5.45.12,8,1.66a50.17,50.17,0,0,0,6,3.39,19,19,0,0,0,4.9.75.5.5,0,1,0-.12-1,9.3,9.3,0,0,1-4.22-.6c-.41-.9-2.32-5.12-3-7.14-.51-1.47,1.73-3.22,3.71-4.77a13.9,13.9,0,0,0,3-2.82c1.1-1.72,2.07-3.16,3-3.37.62-.15,1.31.47,1.69,1.49.69,1.83.08,5.77-5,8.41a42.55,42.55,0,0,0,1.88,4.62,3.4,3.4,0,0,0,3.4,2A6.05,6.05,0,0,0,61.58,193c.11-.28-5.38-8.64-3-12.45a3.83,3.83,0,0,1,2.25-1.95,4.25,4.25,0,0,1,3.13.87c.06.43,0,3.81,0,4.25,0,2.33,3.44,6.77,6.45,10.68a37.12,37.12,0,0,1,3.81,5.44c.87,2.13,1.82,4.84,1.48,6.86-.07.37,3,1.93,3.65,2.3L70.74,219.2S67.12,216.58,67,216.59Z"/>
    <path class="cls-3" d="M296.68,196.38c-.38.92-3.74,4.22-13.73,10.08a.5.5,0,1,0,.22,1h.08c4.62-.9,10.58-1.44,10.88.23.76,4.31-13.77,6-13.84,6-5.74,3.58-15.93,3-17.07,2.9-.12,0-3.86,2.7-3.86,2.7l-8.61-10.22c.59-.35,3.86-2,3.79-2.37-.34-2,.61-4.74,1.48-6.87a37.12,37.12,0,0,1,3.81-5.44c3-3.91,6.43-8.35,6.45-10.68,0-.44,0-1,0-1.62,0-.89-.05-2.2,0-2.63a4.23,4.23,0,0,1,3.12-.87,3.81,3.81,0,0,1,2.26,1.95c2.37,3.81-1.09,9.36-2.39,11.46-.52.82-.62,1-.52,1.28a5.62,5.62,0,0,0,4.84,3.55,3.4,3.4,0,0,0,3.4-2c.4-.83,1.25-3.23,1.7-4.08a.5.5,0,0,0,0-.38.48.48,0,0,0-.25-.29c-5.11-2.65-5.33-6.45-4.64-8.28.38-1,1.07-1.64,1.69-1.49.88.21,1.85,1.65,2.95,3.37a13.9,13.9,0,0,0,3,2.82c2,1.55,4.22,3.3,3.71,4.77-.7,2-2.61,6.24-3,7.14a9.3,9.3,0,0,1-4.22.6.5.5,0,0,0-.56.43.5.5,0,0,0,.44.56,9.6,9.6,0,0,0,5.74-1.2l.37-.21c1-.57,3.69-2.1,4.77-2.74,2.57-1.53,4-2.37,6-2.58a2,2,0,0,1,1.89.55A2.86,2.86,0,0,1,296.68,196.38Z"/>
    <path class="cls-2" d="M160.78,166a6,6,0,0,0,3.83,1.49,6.41,6.41,0,0,0,3.82-1.49c-4.81,1.15-7.65,0-7.65,0"/>
    <path class="cls-2" d="M197.22,143.89c6.91,0,15.8-4.85,16.34-10.52.33-3.5-4.18-8.06-8.31-4,2.62-4.87,11.12-.74,10.62,5-.71,8.13-11.37,12.73-18.2,12.53-9.57-.27-21-4.44-25.47-2.35-1.12.52-1.14-3.19.49-3.84,4.31-1.74,17.61,3.19,24.53,3.19"/>
    <path class="cls-2" d="M133.47,143.89c-6.91,0-15.81-4.85-16.34-10.52-.33-3.5,4.18-8.06,8.31-4-2.62-4.87-11.12-.74-10.62,5,.71,8.13,11.36,12.73,18.2,12.53,9.56-.27,21-4.44,25.47-2.35,1.12.52,1.14-3.19-.49-3.84-4.31-1.74-17.61,3.19-24.53,3.19"/>
    <path class="cls-2" d="M174.48,134.39a8.77,8.77,0,0,1,4.4,4.6c.74,1.82,4.3,1.47,5.42,1.38s6.09-1.1,7.45-.64c2.85,1,2.09,4.2.48,7.29-.95,1.82-2.55,5.72-4.93,11.38.3-2.87,1.54-6.22,3.19-10.32,1.12-2.79,3.09-6.26.84-7-1.47-.47-4.08.14-7,.6-3.75.59-5.81-1.06-6.22-2.19a15.26,15.26,0,0,0-3.67-5.13"/>
    <path class="cls-2" d="M160.1,138.77l.43.22c.27.13,3.32,1.58,4.58,1.58s4.16-1.56,4.45-1.66a4.8,4.8,0,0,1,.47-.14s-2.62,2.74-4.78,2.74-4.59-2.18-4.81-2.39l-.34-.35"/>
    <path class="cls-2" d="M157,136.9c-2-1.22.18-6.17,1.38-7.91-1.65,1.9-4.52,5.57-1.88,8.3.64.65,1.34.59,3.61,1.48L157,136.9"/>
    <path class="cls-2" d="M173.14,136.9c2-1.22-.18-6.17-1.38-7.91,1.65,1.9,4.53,5.57,1.88,8.3-.64.65-1.34.59-3.61,1.48l3.11-1.87"/>
    <path class="cls-2" d="M155.6,134.62s-1.53,1-2.9,4.37c-.75,1.82-4.31,1.47-5.42,1.38s-6.1-1.1-7.45-.64c-2.86,1,1,10.76,3.34,16.43-.29-2.88-5.18-14.34-2.93-15,1.48-.47,4.08.14,7,.6,3.75.59,5.81-1.06,6.22-2.19a38.1,38.1,0,0,1,2.18-4.9"/>
    <path class="cls-2" d="M158.66,115c-3.89-2.58-4.3-5.71-3.78-10.12-2.68,1.88-3.38,3.72-3.61,5.23a20.8,20.8,0,0,1-3.69-5.23,5.12,5.12,0,0,0-1.35,3.52c-5.73-4.23-16.14-1.72-12.73,5.87-.95-5.18,6.51-4.87,10.43-3.24,6.15,2.55,12.47,6.1,14.73,4"/>
    <path class="cls-2" d="M171.25,115c3.9-2.58,4.3-5.71,3.78-10.12,2.68,1.88,3.38,3.72,3.61,5.23a20.8,20.8,0,0,0,3.69-5.23,5.07,5.07,0,0,1,1.35,3.52c5.73-4.23,16.14-1.72,12.73,5.87,1-5.18-6.51-4.87-10.43-3.24-6.15,2.55-12.46,6.1-14.73,4"/>
    <path class="cls-2" d="M185.77,111.22c-4.38-.1-17.49,1.34-17.49,1.34l-3.53.15-3.52-.15s-13.11-1.44-17.49-1.34c-11,.26-17.39,2.78-17.39,2.78v6.59a6.05,6.05,0,0,1,1.9.51,3.17,3.17,0,0,1,1.09,2c.46,2.4,1.35,6.18,2.41,8,2.47,4.17,7.61,5.38,10.6,5.55,8.44.5,12.61-3.23,15.23-6.43,1.88-2.29,2.86-8,4.42-10.28,1.08-1.63,1.86-1.8,2.75-1.8s1.67.17,2.76,1.8c1.56,2.33,2.54,8,4.42,10.28,2.62,3.2,6.79,6.93,15.23,6.43,3-.17,8.13-1.38,10.6-5.55,1.06-1.79,2-5.57,2.41-8a3.2,3.2,0,0,1,1.08-2,6.1,6.1,0,0,1,1.91-.51V114s-6.38-2.52-17.39-2.78"/>
    <path class="cls-4" d="M197,125.78c-1.59,5.53-4.24,7.11-6.74,7.62-9.87,2-14.14-2-16.15-4.69-3.29-4.46-2.62-10.39-2.62-10.39s4.26-5.68,17.39-4.63c7,.57,8.54,3.7,8.54,3.7s.25,6.08-.42,8.39"/>
    <path class="cls-4" d="M155.42,128.71c-2,2.73-6.28,6.69-16.16,4.69-2.49-.51-5.14-2.09-6.74-7.62-.67-2.31-.41-8.39-.41-8.39s1.49-3.13,8.54-3.7c13.12-1,17.39,4.63,17.39,4.63s.66,5.93-2.62,10.39"/>
    <path class="cls-2" d="M176.35,145.39c-.36,0-7.55.81-8.3.81a5.69,5.69,0,0,1-1.9-.67s-.59,1.5-1.44,1.5-1.44-1.5-1.44-1.5a5.78,5.78,0,0,1-1.9.67c-.76,0-7.94-.81-8.31-.81-3.41,0-11.61,1.25-11.61,1.25a28.32,28.32,0,0,1,3.26,4.07C146.53,154,149,158.44,152,160c4.24,2.29,9.92,3.71,12.74,3.71s8.49-1.42,12.73-3.71c2.95-1.59,5.45-6.06,7.27-9.32a27.79,27.79,0,0,1,3.25-4.07s-8.2-1.25-11.61-1.25"/>
    <path class="cls-5" d="M164.75,150.06c-.65,0-17.18-2.64-20.55-2.63.43.68,2.73,4.79,3.47,6,1.63.4,5.1,1.22,7.11,1.58a68.57,68.57,0,0,0,10,1.32,68.21,68.21,0,0,0,10-1.32c2-.36,5.48-1.18,7.11-1.58.74-1.19,3-5.3,3.47-6-3.37,0-19.9,2.62-20.55,2.63"/>
    <path class="cls-5" d="M174.8,155.52c-2.81.3-7.23,1-10.05.79-2.82.19-7.23-.49-10.05-.79-1.79-.21-5-.73-6.28-1a25.81,25.81,0,0,0,5,4.72l.23-.52.27.56a.82.82,0,0,0,.39.37,35,35,0,0,0,3.7,1.38.56.56,0,0,0,.68-.31l.14-.32.39.79a.59.59,0,0,0,.36.3,27.28,27.28,0,0,0,4.11.79.64.64,0,0,0,.64-.37l.36-.8.41.83a.6.6,0,0,0,.61.34,25.46,25.46,0,0,0,4-.75.6.6,0,0,0,.4-.34l.35-.79.17.34a.62.62,0,0,0,.73.32,34.63,34.63,0,0,0,3.64-1.35.67.67,0,0,0,.35-.35l.29-.64.28.57a25.52,25.52,0,0,0,5.14-4.77c-1.31.22-4.48.74-6.28,1"/>
    <path class="cls-6" d="M142.83,129.27a12.2,12.2,0,0,1-3.11-.77l.78-2.55a9.76,9.76,0,0,0,3.42.8c.92,0,1.39-.3,1.39-.86,0-1.39-5.5-.18-5.49-4.36a3.42,3.42,0,0,1,3-3.25v-3.22h2.73v3.16a13.12,13.12,0,0,1,2.73.74l-.77,2.54a8.08,8.08,0,0,0-3.05-.75c-.86,0-1.31.29-1.31.78,0,1.31,5.5,0,5.49,4.36,0,1.7-1.24,2.94-3.12,3.32v3.22h-2.74Z"/>
    <path class="cls-6" d="M183.06,129.27a12.2,12.2,0,0,1-3.11-.77l.77-2.55a9.86,9.86,0,0,0,3.43.8c.92,0,1.39-.3,1.39-.86,0-1.39-5.51-.18-5.5-4.36a3.44,3.44,0,0,1,3-3.25v-3.22h2.74v3.16a13.28,13.28,0,0,1,2.73.74l-.77,2.54a8.17,8.17,0,0,0-3.06-.75c-.86,0-1.31.29-1.31.78,0,1.31,5.51,0,5.5,4.36a3.48,3.48,0,0,1-3.12,3.32v3.22h-2.73Z"/>
    <path class="cls-2" d="M67,205.1c-2.92-1-3.21-6.34-3.21-6.4a.51.51,0,0,0-.52-.47.5.5,0,0,0-.47.52c0,.25.32,6.05,3.88,7.29a.45.45,0,0,0,.16,0,.5.5,0,0,0,.16-1Z"/>
    <path class="cls-2" d="M266.94,198.23h0a.49.49,0,0,0-.49.47c0,.06-.29,5.38-3.21,6.4a.5.5,0,0,0,.16,1,.45.45,0,0,0,.16,0c3.56-1.24,3.87-7,3.88-7.29A.5.5,0,0,0,266.94,198.23Z"/>
    <path class="cls-7" d="M203.71,126.19c.22,1.72-2.65,7.54-2.83,7.9,0-3.1-.19-6.19-.39-9.28C201.56,125.16,203.68,125.92,203.71,126.19Z"/>
    <path class="cls-1" d="M192.28,182l3.2,1.52,7,12.64-2.68,1.34h0c-13.25,5.14-18.24,13-19.75,20L166.67,222C173.57,214.16,190.78,194.46,192.28,182Z"/>
    <path class="cls-3" d="M199.76,210.66c.75,3.74,1.34,6.7-1.3,9.91-1.52.2-18,2.23-18,2.21,0-7.6,3.35-17.89,19.16-24.2C198.32,203.51,199.08,207.3,199.76,210.66Z"/>
    <path class="cls-8" d="M159.09,193.44a75.59,75.59,0,0,1,5.8-7.79,76.81,76.81,0,0,1,5.64,7.55c0,1.09-.21,7.54-2.94,10.15H162C159.45,200.89,159.13,195,159.09,193.44Z"/>
    <path class="cls-3" d="M161.21,203.94a48.46,48.46,0,0,0-4.06,9.31c-6.6-8-14.6-18.68-17.46-27.26,2.46,4.45,7.26,10.88,15.32,13.6a.45.45,0,0,0,.16,0,.5.5,0,0,0,.44-.27c.83-1.58,1.7-3.08,2.56-4.46C158.35,197.37,159,201.68,161.21,203.94Z"/>
    <path class="cls-3" d="M171.46,194.66c.91,1.45,1.83,3,2.71,4.69a.49.49,0,0,0,.44.27.4.4,0,0,0,.15,0c8.76-3,13.66-10.28,15.91-14.7-2.53,8.85-11.11,20.28-18,28.63a48.22,48.22,0,0,0-4.17-9.65C170.7,201.52,171.3,197.07,171.46,194.66Z"/>
    <path class="cls-3" d="M191.19,181.25c-.59,1.67-5.1,13.23-16.34,17.26-2-4.49-6.78-10.47-8.85-13.09,7.85-.46,20.74-5.11,23.29-7.57Z"/>
    <path class="cls-7" d="M127.3,126.2c.33-2.66,1.16-3.79,1.74-4.12-.21,3.81-.44,7.41-.42,11C127.56,130.18,127.1,127.81,127.3,126.2Z"/>
    <path class="cls-3" d="M140.38,177.89c2.68,2.49,15.6,7.14,23.39,7.54-4.33,4.24-7.81,11.15-8.84,13.08-10.76-3.85-16.29-17.35-16.3-17.37Z"/>
    <path class="cls-1" d="M137.73,182c1.51,12.51,18.71,32.21,25.61,40.05l-29.2-9.94,1.73-11.3a.51.51,0,0,0-.27-.52l-8-4.12,7-12.65Z"/>
    <path class="cls-8" d="M157.92,214.18a47.13,47.13,0,0,1,4.2-9.84h5.47a46.76,46.76,0,0,1,4.27,10.08,0,0,0,0,0,0,0c-2.44,2.91-6.86,7.94-6.86,7.94S160.45,217.21,157.92,214.18Z"/>
    <path class="cls-2" d="M179,172.16h-8.1c-2.7,0-5.39,0-8.07.17-1.34.05-9.24,1.32-10.94-.43a6.88,6.88,0,0,1-1.22-3.17c-.09-.67-.2-1.33-.35-2a12.93,12.93,0,0,1,.63,1.94c.65,2.85,2.51,3.3,3.79,3.3s11.39-.92,16.18-.62c2.7.16,5.4.39,8.08.81"/>
    <path class="cls-2" d="M190.28,217.35a9.53,9.53,0,0,1-2.3-.9l.85-1.86a7.46,7.46,0,0,0,2.53.94c.7.1,1.09-.08,1.14-.51.14-1.06-4.18-.69-3.75-3.87a2.63,2.63,0,0,1,2.64-2.18l.33-2.46,2.08.28-.32,2.41a10.26,10.26,0,0,1,2,.84l-.84,1.86a6.29,6.29,0,0,0-2.25-.88c-.66-.09-1,.1-1.08.47-.14,1,4.19.59,3.75,3.87a2.67,2.67,0,0,1-2.7,2.23L192,220l-2.09-.27Z"/>
    <path class="cls-1" d="M133.43,212.87a.5.5,0,0,1-.33-.55L134.83,201s-8.7-4.15-8.64-4.27L133,184.2l-19.81,9.41c.16,4.31-10.33,17.77-12.23,20.29.17.46.48,1.28.91,2.32a59.54,59.54,0,0,0,2.76,5.82,24.18,24.18,0,0,0,3.7,5.26c.62.62.5.77-.19.2a24.93,24.93,0,0,1-4.25-5c-1-1.54-2-3.13-2.73-4.51.12,1.72.29,3.8.47,5.88.22,2.49.43,6.87.43,6.87s-.85-4.29-1.29-6.75c-.79-4.43-1.48-8.88-1.61-9.72a103.23,103.23,0,0,1-14.89-6l-2.19-1L67.65,224.4c4.19,2,29.76,14,37.69,16.93.39.14,2.63,2.21,3.7,2,1.43-.24,1.28-3,1.17-4.51a177.08,177.08,0,0,1,17.41-13.38s-2.17-9-3.18-12.81a.5.5,0,1,1,1-.26c2.59,9.72,8.1,32.37,8.2,32.76,1.59,1,14.9,9.12,30.85,9.28v-31Z"/>
    <path class="cls-2" d="M160.1,229.79a2.65,2.65,0,1,0-2.65-2.65A2.65,2.65,0,0,0,160.1,229.79Z"/>
    <path class="cls-3" d="M160.1,225.48a1.66,1.66,0,1,1-1.66,1.66A1.66,1.66,0,0,1,160.1,225.48Z"/>
    <path class="cls-2" d="M160.1,244.78a2.65,2.65,0,1,0-2.65-2.65A2.65,2.65,0,0,0,160.1,244.78Z"/>
    <path class="cls-3" d="M160.1,240.47a1.66,1.66,0,1,1-1.66,1.66A1.66,1.66,0,0,1,160.1,240.47Z"/>
    <g>
      <path class="cls-6" d="M189.36,87.31l-2.16-11.7H187c0,2.25,0,8-.24,10.73-11.54,3.79-23.29-.17-34,.32-4.8.22-10.42.61-11.22,5a9.58,9.58,0,0,1,4.2-1.48c2,0,17.59.34,24.28.67S188,89.23,188,89.23a62.26,62.26,0,0,1,10.78,17.12C196.32,90.75,189.36,87.31,189.36,87.31Z"/>
      <path class="cls-6" d="M147.21,99.31h0a7.68,7.68,0,0,1-6.19,1.76,11.44,11.44,0,0,1-7.22-4.78c-1.1,1.65-2.28,4.77-2.91,10.63,1.09-1.85,3.2-5,5.24-5.59C138.93,103.48,145.54,102.76,147.21,99.31Z"/>
    </g>
    <path class="cls-6" d="M184.5,168.71a.24.24,0,0,1-.29-.39,52.83,52.83,0,0,0,4.58-4.37c2.44-2.64-6.85,4.25-7.26,5.82a3.18,3.18,0,0,1-2.93,2.46l-.5-.07h-7.24c-2.7,0-5.39,0-8.07.17-1.34.05-9.24,1.32-10.94-.43a6.88,6.88,0,0,1-1.22-3.17c0-.38-.3-1.54-.35-1.76-3.49-.25-9.44-6.88-12.59-9.45a7.13,7.13,0,0,0-2.51-1.39c2.6,5.44,7.45,10.26,11.77,13.85a.3.3,0,0,1-.34.49,20.47,20.47,0,0,1-5.29-4,81.2,81.2,0,0,1-.14,10.77c2.69,2.27,16,7.2,23.63,7.2,3.4,0,8.46-1,13.87-2.81,4.51-1.48,8.45-3.26,9.78-4.4,0-1.28,0-7.58.46-11.87A37.21,37.21,0,0,1,184.5,168.71Z"/>
    <path class="cls-7" d="M173.06,131.44c-.41-.43-.78-.86-1.13-1.29-1.88-2.29-2.86-8-4.42-10.28-1.09-1.63-1.81-1.8-2.76-1.8s-1.67.17-2.75,1.8c-1.36,2-2.28,6.59-3.74,9.25l.11-.13a15.05,15.05,0,0,0-2.09,5c.47-.48.9-1,1.3-1.45,1.88-2.3,2.86-5.47,4.42-7.8,1.08-1.63,4.42-1.63,5.51,0,1.56,2.33,2.54,5.5,4.42,7.8a22.09,22.09,0,0,0,2,2.16A10.81,10.81,0,0,0,173.06,131.44Z"/>
    <path class="cls-7" d="M142.35,136.58c-3-.17-8.13-1.38-10.6-5.55a18.67,18.67,0,0,1-1.53-4.11c0,.83,0,1.55-.06,2.12a19.16,19.16,0,0,0,1.59,4.33c2.47,4.17,7.61,5.38,10.6,5.56,6.13.36,13-4.09,13.07-4.17a6.76,6.76,0,0,1,1.28-3.59C154,134.08,149.9,137,142.35,136.58Z"/>
    <path class="cls-7" d="M199.38,126.56a19.62,19.62,0,0,1-1.62,4.47c-2.47,4.17-7.61,5.38-10.6,5.55-6.36.38-10.3-1.65-13-4a5.69,5.69,0,0,1,.51,2,8.81,8.81,0,0,1,3.34,2.93,18.6,18.6,0,0,0,9.12,1.51c3-.18,8.13-1.39,10.6-5.56a21.14,21.14,0,0,0,1.75-5C199.47,127.78,199.43,127.17,199.38,126.56Z"/>
    <path class="cls-7" d="M175.94,158l-.28-.57-.29.64a.7.7,0,0,1-.35.35,37,37,0,0,1-3.64,1.34.61.61,0,0,1-.73-.31l-.17-.34-.35.78a.61.61,0,0,1-.4.35,28,28,0,0,1-4,.75.62.62,0,0,1-.61-.35l-.41-.83-.36.81a.63.63,0,0,1-.64.36,26.08,26.08,0,0,1-4.11-.79.61.61,0,0,1-.36-.29l-.39-.79-.14.32a.57.57,0,0,1-.68.31,35.06,35.06,0,0,1-3.7-1.39A.78.78,0,0,1,154,158l-.27-.55-.23.51a28.48,28.48,0,0,1-3.71-3.18l-1.32-.21a25.81,25.81,0,0,0,5,4.72l.23-.52.27.56a.82.82,0,0,0,.39.37,35,35,0,0,0,3.7,1.38.56.56,0,0,0,.68-.31l.14-.32.39.79a.59.59,0,0,0,.36.3,27.28,27.28,0,0,0,4.11.79.64.64,0,0,0,.64-.37l.36-.8.41.83a.6.6,0,0,0,.61.34,25.46,25.46,0,0,0,4-.75.6.6,0,0,0,.4-.34l.35-.79.17.34a.62.62,0,0,0,.73.32,34.63,34.63,0,0,0,3.64-1.35.67.67,0,0,0,.35-.35l.29-.64.28.57a25.52,25.52,0,0,0,5.14-4.77l-1.32.22A30.33,30.33,0,0,1,175.94,158Z"/>
    <path class="cls-7" d="M164.75,152.16c.59,0,14.26-2.18,19.3-2.57.57-1,1.07-1.88,1.25-2.16-3.37,0-19.9,2.62-20.55,2.63s-17.18-2.64-20.55-2.63c.18.28.68,1.15,1.25,2.16C150.49,150,164.16,152.15,164.75,152.16Z"/>
    <g>
      <path class="cls-3" d="M184.37,141.71h-.05c2.68.58,5.45,1.22,8,1.65.22-1.09,0-1.94-.95-2.25C189.86,140.64,187.25,141.25,184.37,141.71Z"/>
      <path class="cls-3" d="M139.69,143.13c2.28-.44,4.71-1,7.06-1.5-2.7-.44-5.11-1-6.51-.52C139.72,141.27,139.58,142,139.69,143.13Z"/>
    </g>
    <path class="cls-7" d="M158,140.7c1.63.65,1.61,4.36.49,3.84-2.71-1.27-8-.23-13.91.85h8.48c.37,0,7.55.81,8.31.81a5.78,5.78,0,0,0,1.9-.67s.6,1.5,1.44,1.5,1.44-1.5,1.44-1.5a5.69,5.69,0,0,0,1.9.67c.75,0,7.94-.81,8.3-.81h9.76c-5.89-1.08-11.2-2.12-13.91-.85-1.12.52-1.14-3.19.49-3.84,1.38-.56,3.68-.43,6.39,0a3,3,0,0,1-.93-1.18,14.72,14.72,0,0,0-3.44-4.92,3.57,3.57,0,0,1-1.07,2.69c-.59.61-1.24.59-3.17,1.31-.69.62-3.35,2.91-5.22,2.91-2.17,0-4.59-2.18-4.81-2.39a5.62,5.62,0,0,0-.66-.47c-2-.76-2.68-.74-3.29-1.36a3.53,3.53,0,0,1-1.06-2.34,38.08,38.08,0,0,0-2,4.57,2.68,2.68,0,0,1-.74,1A11.42,11.42,0,0,1,158,140.7Z"/>
    <path class="cls-7" d="M139.65,179.26c4.5,4.48,12.7,7.63,22.29,8.16a27,27,0,0,1,1.83-2c-7.79-.4-20.71-5.05-23.39-7.54Z"/>
    <path class="cls-7" d="M189.29,177.85c-2.55,2.46-15.44,7.11-23.29,7.57l1.58,2c9.68-.52,18-3.71,22.46-8.24Z"/>
    <path class="cls-7" d="M170.53,204.34c1-1.81,1.34-2.16,1.8-3.24,7.62-.66,13.84-6.3,14.3-7.1a43.17,43.17,0,0,0,4-9.11c-2.25,4.42-7.15,11.75-15.91,14.7,0,0-.51-.07-.59-.24-.88-1.67-1.8-3.24-2.71-4.69-.16,2.41-.76,6.86-3,9.21a48.22,48.22,0,0,1,4.17,9.65l.89-1.08C172.66,209.81,171.37,206.11,170.53,204.34Z"/>
    <path class="cls-7" d="M158.17,194.89c-.86,1.38-1.73,2.88-2.56,4.46-.09.17-.55.26-.6.24-8.06-2.72-12.86-9.15-15.32-13.6a47.44,47.44,0,0,0,3.94,8.45c3.26,2.49,10.06,6.82,13.58,7.54.45,1,.71,1.53,1.14,2.36-.74,1.55-1.82,4.61-2.67,7.11.49.62,1,1.21,1.47,1.8a48.46,48.46,0,0,1,4.06-9.31C159,201.68,158.35,197.37,158.17,194.89Z"/>
    <path class="cls-9" d="M61.58,191.5c.09-.22-3.16-5.25-3.56-9.28-.4,3.37,2.25,8.19,3.22,10A5,5,0,0,0,61.58,191.5Z"/>
    <path class="cls-9" d="M48.05,198.46a9.86,9.86,0,0,0,4.39.58,28.09,28.09,0,0,0-4.38-2.1c-.39-.86-2.14-4.73-2.91-6.84a1.56,1.56,0,0,0-.11,1.19C45.65,193,47.39,197,48.05,198.46Z"/>
    <path class="cls-9" d="M50.93,189a5.27,5.27,0,0,0,.43,1.25c4.9-2.57,5.52-5.82,5.21-7.76C56.29,184.45,54.48,187.17,50.93,189Z"/>
    <path class="cls-9" d="M67,215.09c-1.15.08-11.33.69-17.07-2.89-.07,0-11.81-.85-13.61-5.08a.61.61,0,0,0-.23.53c.29,5.08,13.77,6,13.84,6,5.74,3.58,15.92,3,17.07,2.9.12,0,3.74,2.61,3.74,2.61L79.33,209l-.86-.46S67.12,215.08,67,215.09Z"/>
    <path class="cls-9" d="M49.35,206.92c.27.06-1.54-1.84-2.2-2-7.91-4.64-12.77-8.2-13.7-10.62-1.11,2.23,4.38,6.85,13.7,12.11Z"/>
    <path class="cls-9" d="M61.59,203.69c-1.39-3.07,1.21-5.21,1.22-4.94s.32,6.05,3.88,7.29C66.74,206.06,63,206.76,61.59,203.69Z"/>
    <path class="cls-9" d="M268.75,191.6c-.09-.23,3.16-5.26,3.56-9.29.4,3.37-2.25,8.19-3.22,10A4.46,4.46,0,0,1,268.75,191.6Z"/>
    <path class="cls-9" d="M282,198.56a9.94,9.94,0,0,1-4.39.57A28.56,28.56,0,0,1,282,197c.39-.86,2.14-4.74,2.91-6.85a1.56,1.56,0,0,1,.11,1.19C284.43,193.13,282.69,197.08,282,198.56Z"/>
    <path class="cls-9" d="M279.23,189.1a5.27,5.27,0,0,1-.43,1.25c-4.9-2.57-5.53-5.82-5.22-7.75C273.87,184.54,275.68,187.27,279.23,189.1Z"/>
    <path class="cls-9" d="M263.08,215.19c1.15.08,11.33.68,17.07-2.9.07,0,11.81-.85,13.61-5.07a.6.6,0,0,1,.23.53c-.29,5.07-13.76,6-13.84,6-5.74,3.58-15.92,3-17.07,2.9-.12,0-3.73,2.61-3.73,2.61l-8.6-10.2c.16-.1.48-.27.86-.47C251.61,208.62,263,215.18,263.08,215.19Z"/>
    <path class="cls-9" d="M280.73,207c-.27.06,1.54-1.85,2.2-2,7.91-4.65,12.78-8.21,13.7-10.63,1.11,2.23-4.38,6.85-13.7,12.12C282.64,206.58,281.42,206.86,280.73,207Z"/>
    <path class="cls-9" d="M268.5,203.78c1.38-3.07-1.21-5.21-1.23-4.94s-.32,6.06-3.88,7.29C263.34,206.15,267.11,206.85,268.5,203.78Z"/>
    <path class="cls-10" d="M133.1,212.32,134.83,201s-8.7-4.15-8.64-4.27l1.95-3.58L123.93,199c-.06.12,8.64,4.28,8.64,4.28l-2.45,14,29.66,4.5-26.35-9A.5.5,0,0,1,133.1,212.32Z"/>
    <path class="cls-10" d="M200.8,198.05c-1.53,5.1-.75,9-.06,12.42.58,2.88,1.09,5.47.07,8.1,2.29-3.3,1.67-6.42.95-10a24.57,24.57,0,0,1-.35-10.79Z"/>
    <path class="cls-10" d="M261.52,223.4c-7.29,3.43-38.69,18.31-40,17.83s-.67-4.55-.78-4.64c-7.52-6.4-13.9-15.27-15.12-23.93-1,3.81-2.17,8.32-3.29,12.77,0,0,16.48,12,17.39,13,.09.1-.57,4.16.78,4.64s3.83-1.65,4.21-1.79c7.93-2.89,33.5-14.94,37.7-16.93Z"/>
    <path class="cls-10" d="M165.44,223.47l14.37-4.89a25.81,25.81,0,0,0-.34,4.2c0,.06-3.51.55-4.22.57a.54.54,0,0,0-.37.19.47.47,0,0,0-.09.41Z"/>
    <path class="cls-10" d="M203.33,217.34l-11.77,30.47c2.62-1.28,4.34-2.33,4.86-2.65C196.5,244.83,200.54,228.22,203.33,217.34Z"/>
    <path class="cls-10" d="M126.68,217.34l11.77,30.47a54.27,54.27,0,0,1-4.85-2.65C133.51,244.83,129.47,228.22,126.68,217.34Z"/>
    <path class="cls-10" d="M68.51,223.4c7.29,3.43,38.69,18.31,40,17.83s.68-4.55.79-4.64c7.51-6.4,13.9-15.27,15.12-23.93,1,3.81,2.17,8.32,3.28,12.77,0,0-16.48,12.42-17.39,13.42-.09.1.41,3.89-1.1,4.46-1.35.49-3.5-1.84-3.88-2-7.93-2.89-33.5-14.94-37.7-16.93Z"/>
    <path class="cls-7" d="M192.17,219.1,192,220l-2.09-.27.06-.41-5.29.65a1.69,1.69,0,0,1-1.87-2c.51-2.92,1.66-8,3.89-11.17a22.68,22.68,0,0,0-6.28,15.91s16.48-2,18-2.21a8.77,8.77,0,0,0,1.44-2.43Z"/>
    <path class="cls-4" d="M181.76,78.78l-.07-.06.07,0-.19-.12c-5.07-4.24-22.3-14.07-38.55-3.79,0,0,6.94-3.68,19.42-2a31.62,31.62,0,0,0-22.66,7.39s6.94-5,20.65-5a31.52,31.52,0,0,0-21.38,9.47s13.15-11.51,41.66-5.42a36.8,36.8,0,0,0-7.43-2.71,82.41,82.41,0,0,1,8.24,2.13l.24.11"/>
    <path class="cls-4" d="M202,93.66c.84,1.93,1.68,4.08,2.57,6.55-1.67-17.84-11.82-21.43-11.82-21.43,1.49,1.81,2.78,3.48,3.95,5.17A12.2,12.2,0,0,0,192.58,81a53.47,53.47,0,0,1,6.3,9.18c-2.58-4-5.56-5.11-5.56-5.11,4.08,5,6.23,8.57,9.09,16.5a30.27,30.27,0,0,0-1.46-7c.71,1.67,1.43,3.52,2.2,5.64A36.1,36.1,0,0,0,202,93.66"/>
    <path class="cls-4" d="M185.77,111.22c-4.38-.1-17.49,1.34-17.49,1.34l-3.53.15-3.52-.15s-13.11-1.44-17.49-1.34c-11,.26-17.39,2.78-17.39,2.78v.89s6.38-2.52,17.39-2.78c4.38-.1,17.49,1.34,17.49,1.34l3.52.15,3.53-.15s13.11-1.44,17.49-1.34c11,.26,17.39,2.78,17.39,2.78V114S196.78,111.48,185.77,111.22Z"/>
    <path class="cls-11" d="M166.12,202h-2.63a2.94,2.94,0,0,1-2.58-1.48c-1.21-2.18-1.46.41,1.11,2.87h5.57c2.73-2.61,2.37-5.16,1.12-2.89A3,3,0,0,1,166.12,202Z"/>
    <path class="cls-11" d="M164.23,206.51h1.25a3.5,3.5,0,0,1,3.13,1.92A45.49,45.49,0,0,1,171.4,215l.47-.56a0,0,0,0,1,0,0,46.76,46.76,0,0,0-4.27-10.08h-5.47a47.13,47.13,0,0,0-4.2,9.84l.48.57a47,47,0,0,1,2.69-6.3A3.51,3.51,0,0,1,164.23,206.51Z"/>
    <path class="cls-12" d="M229,215.52c.14-.33.25-.62.35-.86-2-2.67-12.69-16.75-12.54-21L197,184.2l1.12,2c3,1.52,7.78,3.93,14.75,7.3a6.73,6.73,0,0,1,3.23,3.34c2.81,6.37,10.62,16.34,12.76,19Z"/>
    <path class="cls-12" d="M247.94,207.29c-.53.24-13.94,6.14-17.44,7.51-.05.34-.13.83-.22,1.41L245,210.73a4.56,4.56,0,0,1,4.9,1.12c3.95,4.13,12.18,12.69,12.47,12.55Z"/>
    <path class="cls-12" d="M200.44,197.12l2-1-7-12.64-3.2-1.52c-1.26,10.47-13.49,26-21.51,35.33a57.83,57.83,0,0,0,9-8.47c5.66-6.39,9.92-14.92,12.13-19.87a2.15,2.15,0,0,1,3.84-.18Z"/>
    <path class="cls-12" d="M135.73,184.89a.89.89,0,0,1,.87.67c.5,1.83,2.39,7.43,8.84,16.42a54.52,54.52,0,0,0,10,10.75c-7.61-9.32-16.64-21.87-17.71-30.78l-3.2,1.52-7,12.65,1.43.73,5.94-11.47a.92.92,0,0,1,.81-.49Z"/>
    <path class="cls-12" d="M99.45,216.18c-.15-1-.26-1.63-.3-1.91a103.23,103.23,0,0,1-14.89-6l-2.19-1L67.65,224.4c.14.07,11.39-11.05,11.39-11.05a7.7,7.7,0,0,1,8.31-1.84Z"/>
    <path class="cls-12" d="M131.22,187.46,133,184.2l-19.81,9.41c.16,4.31-10.33,17.77-12.23,20.29.11.31.29.79.53,1.4a78.16,78.16,0,0,0,11.77-16.86,10.71,10.71,0,0,1,4.84-4.78C124.14,190.71,128.33,188.76,131.22,187.46Z"/>
  </g>
</svg>
