<svg id="Layer_1" data-name="Layer 1" xmlns="http://www.w3.org/2000/svg" viewBox="0 0 210 210">
  <defs>
    <style>
      .cls-1 {
        fill: #13354c;
      }

      .cls-2 {
        fill: #4092b5;
      }

      .cls-3 {
        fill: #f2f2f0;
      }

      .cls-4 {
        fill: #1e5e82;
      }

      .cls-5 {
        fill: #fff;
      }

      .cls-6 {
        fill: #a1aeb4;
      }

      .cls-7 {
        fill: #d7dbdc;
      }

      .cls-8 {
        fill: #347999;
      }

      .cls-9 {
        fill: #4b6577;
      }

      .cls-10 {
        fill: #68a9c5;
      }

      .cls-11 {
        fill: #7199b0;
      }
    </style>
  </defs>
  <title>6</title>
  <g>
    <path class="cls-1" d="M161,181.43c-.48-6.14-2.73-12.93-4.9-19.49-3.42-10.31-7-21-3-27.69l1.52-2.58-2.71-1.27c-9.29-4.41-20.92-9.76-24.06-11.2l-1.29-2.32c.24-1.64,2-11.09,2.34-11.82a13.38,13.38,0,0,0,3.22,4.14,15.14,15.14,0,0,0,9.43,3.15s-5.36-12.81,0-20.74c9.15-8.31,13-26,13.94-31.32,2-10.94-1.91-25.69-9.29-35.06-4.85-6.16-10.91-9.74-17.57-10.37C123.7,10.23,117.32,8,102.38,8,81.2,8,66.51,20.87,63,42.51a75.87,75.87,0,0,0-2.38,13.07v.07c-.1.85-.49,5-.5,6.19a18.25,18.25,0,0,1-1.42,7.81,60,60,0,0,0-3.53,22.42s.38,4.21,1.08,8.68c1.39,8.9,2.73,10.26,4,10.9.26.13,8.23,2.5,9.3,2.9l0,0a20.26,20.26,0,0,1,5.83,3.29l-.77,1.43L49,132.84l1.84,5.54c-.73,4-.81,12.59-.9,22.51,0,5.14-.1,10.46-.25,14.84-.35,9.62,1.14,14.22,3.56,17.7-.31,2.68.73,5.62,3.28,6.6a5.18,5.18,0,0,0,1.91.36,7.19,7.19,0,0,0,4.17-1.52c5,.13,14-.7,27.45-2.55,10.14-1.4,19.44-3.11,22.53-3.69a46.45,46.45,0,0,0,5.1,2.23c5.37,1.88,13.48,4.73,22.93,4.73a44.53,44.53,0,0,0,11.51-1.49,6.8,6.8,0,0,0,4.06,1.24,4.8,4.8,0,0,0,3.5-1.84,4.87,4.87,0,0,0,.51-5.19c.87-2.41,1.22-5.19.78-10.88"/>
    <path class="cls-2" d="M126.28,122l2.89,1.32L135.61,135l-7.71,3.95.88,3.5a15,15,0,0,0-6,9.89l-16.72,6.32c6.63-8,19-25.64,20.18-36.65"/>
    <path class="cls-3" d="M136.58,147.56c.67,2.47,1.21,4.44-.41,6.46a81.19,81.19,0,0,1-12.6.21c.17-6.56,4.35-11.54,12.45-14.82a15.37,15.37,0,0,0,.56,8.15"/>
    <path class="cls-3" d="M138.74,157.48l-.07-.21a39.7,39.7,0,0,0-8.88,4l.48.78a39.5,39.5,0,0,1,8.65-3.94,10.9,10.9,0,0,1,4.85,0,1.36,1.36,0,0,1,.86,1,3.34,3.34,0,0,1-.86,2.82,42.12,42.12,0,0,1-7.64,3.66,20.22,20.22,0,0,0-3.27,1.64l.49.77a20,20,0,0,1,3.11-1.56,42.74,42.74,0,0,0,7.73-3.7,2.32,2.32,0,0,1,1.13,1.07,2.65,2.65,0,0,1-.19,2.81c-3.45,4.17-6.71,5.42-7.57,5.69C132.64,171,126.11,170,120,169.08c.38-.56.85-1.19,1.34-1.84a19.31,19.31,0,0,0,2.36-3.66c.46-1.15,6.23-9.41,15-8.52a1.13,1.13,0,0,1,.89.42,1.36,1.36,0,0,1,0,1.1,1.53,1.53,0,0,1-.94.69Z"/>
    <path class="cls-4" d="M103.75,141.62h-5.1c-2.39-2.28-2.66-7.8-2.69-9.15a85,85,0,0,1,5.32-7.43,82.75,82.75,0,0,1,5.17,7.21c0,.76-.13,6.92-2.7,9.37"/>
    <path class="cls-3" d="M107.31,133.62c.83,1.35,2.65,4.68,2.65,4.68s10.9-4.11,14.86-13.41c-2.17,8.52-9.27,19.77-15.11,27.67a45.66,45.66,0,0,0-5.18-10.43c2.08-2.15,2.64-6.3,2.78-8.51"/>
    <path class="cls-3" d="M97.9,142.15a35.07,35.07,0,0,0-3.33,7.67c-7-7.31-14.41-16.7-16.74-24.75,2.14,4.07,7,10.68,14.78,13.31,0,0,1.72-3.26,2.5-4.55.17,2.27.75,6.24,2.79,8.32"/>
    <path class="cls-4" d="M98.73,142.53h5a45.27,45.27,0,0,1,5.35,10.9c-1.68,2.24-3.24,4.17-4.51,5.64a108.69,108.69,0,0,1-9.23-8.49,34.53,34.53,0,0,1,3.42-8.05"/>
    <path class="cls-2" d="M119.2,158.28a45.36,45.36,0,0,0,6.63.57h.49a15,15,0,0,0-3.44,4.4c-.38.95-3.42,5-3.84,5.7-.69-.11-12.56-2-13.33-2.2l-.62-6.73,14.25-5.39-.6,3.59Z"/>
    <path class="cls-2" d="M123.08,155.1c1.59.15,3.3.21,5,.21,1.35,0,2.66,0,3.83-.09a18.25,18.25,0,0,0-4.41,2.65,33.64,33.64,0,0,1-7.66-.43l.44-2.66c1.38.23,2.75.31,2.85.32"/>
    <path class="cls-2" d="M121.05,154l1.65-.63c0,.27,0,.53,0,.8-.39,0-1-.09-1.61-.17"/>
    <path class="cls-3" d="M125.4,121.36c-.55,1.53-4.68,12.13-15,15.83a83.23,83.23,0,0,0-8.13-12.35c13.55-.21,19.72-5.1,21.33-6.66Z"/>
    <path class="cls-3" d="M61.67,108.8C60.28,108,58.58,95,58.38,91.86a56.29,56.29,0,0,1,3.3-21,19.42,19.42,0,0,0,1.65-9c-.13-2.52,1.49-14.41,2.74-18.39a350.11,350.11,0,0,1,42.94-12l13.57-9.24a135.41,135.41,0,0,1-10.94,10.88c9.06,7.12,16.91,30.9-1.62,34,4.06,3.31,12.09.56,12.09.56s-3.45,7-6.42,7.76C124,77.24,127,72,127,72s5.94-4.61,8.63,1.9c3.38,8.2-9.86,25.92-14.88,14.28a7.69,7.69,0,0,0,1.86,3.92c2.32,2.28,5.8.7,7.55-1.15a24.28,24.28,0,0,0-.84,6.37c-2.16,3.78-3.88,7-4.21,9.11-.27,1.75-.55,3.18-.81,4.58-.38,1.93-.73,3.76-1,6.2-.79.82-6.94,6.72-21.87,6.72-16,0-22.17-6.75-22.2-6.79-3-5.72-17.39-8.3-17.54-8.35"/>
    <path class="cls-3" d="M78.9,118.12c1.56,1.48,7.83,6.45,21.38,6.71a83.27,83.27,0,0,0-5.2,7.33h0v.05c-1,1.52-2,3.2-2.9,5-10.31-3.7-14.45-14.32-15-15.83Z"/>
    <path class="cls-2" d="M76.29,122c1.43,12.27,17.19,28.9,26.26,36.58L72,149.39l2.53-10.1a.46.46,0,0,0-.24-.52L67,135l6.39-11.4Z"/>
    <path class="cls-2" d="M89.62,193.16c-14.3,2-23.42,2.78-27.88,2.48,0,0-2.68,2-4.06,1.42s-1.15-4.56-1.15-4.56c-2.06-2.61-4-6-3.66-16.65.16-4.42.21-9.77.26-14.94.09-9.58.18-19.49,1-22.57l0-.13-1.27-3.81,19-10L65.92,135a.47.47,0,0,0,.19.63l7.49,3.83-2.55,10.17a.46.46,0,0,0,.31.55l32.81,9.91.6,6.48a133.58,133.58,0,0,1-14.17-4.19A6.28,6.28,0,0,0,87,163.87c-3.86-.07-8.25,2.17-9.55,4-.45-2.45-2.31-12.72-2.31-12.72a82.86,82.86,0,0,0,.31,12.94,62.42,62.42,0,0,0-9.47-5.88s5.84,5.59,7,6.55c-5.07-.5-6.54,1.46-6.54,1.46,2.94.8,4.48-.42,9,1.25a79.57,79.57,0,0,0,8.07,1.78c1.47.92,17.39,10.82,28.1,16.32-3.44.64-12.33,2.25-22,3.58"/>
    <path class="cls-3" d="M86.08,166.49c.24,2.67-2,5.2-2.59,5.85-1-.18-5-.91-7.24-1.56a14.7,14.7,0,0,1,4.28-4.29l.2-.16c1.48-1.12,4.22-1.43,5.59-1.52a3.31,3.31,0,0,0-.24,1.68"/>
    <path class="cls-2" d="M157.22,195.49c-2.07,1.64-4.64-.84-4.64-.84-13.86,4.21-26.37-.18-33.84-2.8a52,52,0,0,1-5.66-2.54v0h0c-10-5-25.75-14.74-28.69-16.56.89-1,2.88-3.52,2.62-6.33a2.31,2.31,0,0,1,.53-1.79,5.07,5.07,0,0,1,3.06-1.36,120.5,120.5,0,0,0,17.3,4.85c2.26.43,5.37.89,9,1.42,6.63,1,14.88,2.21,20.68,3.72v0h0c2.92.77,5.22,1.61,6.36,2.53,4.28,3.45,4.34,5.77,4.34,5.77.12-.25,1.09-2.56-3.77-6.48a16.63,16.63,0,0,0-5.46-2.36,19.56,19.56,0,0,0,6.81-5.53l0-.05a3.54,3.54,0,0,0,.24-3.76,3.38,3.38,0,0,0-1.29-1.33,4,4,0,0,0,.68-3.16,2.24,2.24,0,0,0-1.43-1.61,8.88,8.88,0,0,0-3.65-.28.36.36,0,0,1,0-.09,2.29,2.29,0,0,0-.05-1.91,2,2,0,0,0-1.57-.85c-.55-.05-1.09-.07-1.62-.07,1.46-2.21.91-4.44.23-6.76a16.28,16.28,0,0,1-.05-9.42,36.67,36.67,0,0,0-7.84,3.95l-.61-2.43,7.9-4L130.57,124c4.93,2.27,12.79,5.91,19.53,9.1-4.32,7.94-.62,19.09,3,29.87,2.11,6.39,4.3,13,4.75,18.74.5,6.54-.08,8.45-1,10.63,0,0,1.36,2.46.46,3.18"/>
    <path class="cls-1" d="M109.43,159.85a2.43,2.43,0,1,0,2.43,2.43,2.43,2.43,0,0,0-2.43-2.43"/>
    <path class="cls-1" d="M82.89,92.85c-6.11-6.46-4.86-6.16-11.35-8.79a2,2,0,0,1-3.28.33c-3.88,2.53-4.33,6.9-5,7.85,2.32,1.07,3.93,0,8.25-.15,3-.11,7,.76,11.38.76"/>
    <path class="cls-1" d="M73.08,79c1.52.09,6.15,1,8.23-1.73,2-3.24-1.84-6-3.39-5.92,1.52-.66,6.59,1.91,4.21,6.33-1.63,3-7.59,1.76-9,1.32"/>
    <path class="cls-1" d="M77.5,78s1.46-1.17-1-2-4.32-.08-4.14.5S75.2,78.55,77.5,78"/>
    <path class="cls-1" d="M108.77,56.22a12.69,12.69,0,0,0-7.21-2.46c-11.7-.68-15.09,3.2-20.11,3.89,2.8-2.8,4.09-7.53,7.23-9.16.06.65-.31,2.61,1,3.46a15.4,15.4,0,0,0,2.86-4.65S94.1,49.35,94,50.84c3.58-1.24,6-1.42,8.23-1,3.25.57,5.47,2.68,6.52,6.4"/>
    <path class="cls-1" d="M126.43,76.2s3.29-4.3,6.66-1.88.93,8,.93,8,1.43-5.53-1.66-6.94-5.93.83-5.93.83"/>
    <path class="cls-1" d="M65.6,73.66a2.27,2.27,0,0,1-.12-2A62.56,62.56,0,0,1,69.6,65.4C72,62,72.8,59.3,72.53,59.11c-.32.53-7.56,11.49-7.93,12.18A3,3,0,0,0,64.7,74c1.66,2.32,4.34,6.16,5.65,7.06Z"/>
    <path class="cls-1" d="M71.87,56s-3.64-2-4.64-5c-.39,1.54-.17,2.69.07,2.56-.79.43-2.22-.55-2.22-.55s-.24,1.31.35,1.39a1.68,1.68,0,0,0-1.85.77,5.32,5.32,0,0,0-.26,3.08c1.06-2,6.77,0,9.09,1.69.29-1.07,1-1.38-.54-3.91m-1.3,6.89L70.5,63l.07-.11"/>
    <path class="cls-1" d="M102,62.51c-.51,0-4.35-2.12-6.74-3-.23-.08-.45-.15-.65-.2h0l-.22-.06h-.06l-.24,0c-.28,0-.55-.06-.81-.08l-.26,0h-1l-.52,0h-.06a7.53,7.53,0,0,0-6.6,4.49,16.38,16.38,0,0,0,6.55,1.16h.12A35.76,35.76,0,0,0,99,63.94c.65-.15,1.58-.29,2.56-.43,1.61,0,3.58.19,3.58.19Z"/>
    <path class="cls-5" d="M98.79,63.18a34.21,34.21,0,0,1-7.4.86h-.12a17.74,17.74,0,0,1-5.49-.81,6.69,6.69,0,0,1,3.87-3,3.39,3.39,0,0,0,5.14,0,44.85,44.85,0,0,1,4.61,2l1.31.61c-.8.12-1.45.24-1.92.34"/>
    <path class="cls-1" d="M66.36,60.38a4.41,4.41,0,0,0-3,2.44l.32.08c.22.05.5.15.83.26a11.34,11.34,0,0,0,3.91.81c.59,0,2-.2,2-.2.46-.87,1.09-2.31,1.48-3.17a11,11,0,0,0-5.48-.22"/>
    <path class="cls-5" d="M69.88,63.06c-.48.06-1.15.14-1.48.14a10.46,10.46,0,0,1-3.65-.77l-.23-.08a4,4,0,0,1,2-1.2,3.37,3.37,0,0,0,4-.07l.26.05c-.27.59-.63,1.38-.9,1.93"/>
    <path class="cls-1" d="M85.79,60.12a12.44,12.44,0,0,1,4.7-3.23,4.15,4.15,0,0,1,1.69-.11c.3,0,9.41,2.93,10.07,3.72-1.54-.26-9.87-3.43-10.94-3.25s-5.52,2.87-5.52,2.87"/>
    <path class="cls-1" d="M67.19,96.25A3.37,3.37,0,0,1,70,95.4c1.81.37,4.59.85,4.59.85S70.43,96,69.67,96s-2.48.24-2.48.24"/>
    <path class="cls-1" d="M84.37,66.46a19,19,0,0,0,4.18,3.21c1.65.84,4.06,1.17,5,1.62-.84.3-3-.2-5.18-1.23a7.7,7.7,0,0,1-4-3.6"/>
    <path class="cls-1" d="M62.07,68s.45,0,1.13-.2a21.45,21.45,0,0,0,2.44-.69,20.64,20.64,0,0,0,2.36-1,8.41,8.41,0,0,0,.75-.38L69,65.6l-.28.17c-.17.11-.42.26-.73.43a22.92,22.92,0,0,1-2.31,1.12,21.79,21.79,0,0,1-2.43.85,11.16,11.16,0,0,1-1.15.28Z"/>
    <path class="cls-5" d="M73.51,86.6c-1.93-1-2.68.23-3.9-.1a2.91,2.91,0,0,0-3,.83c-.49.5,5.67,1.55,7.3,1.53,1.13,0,2.34,0,3.23-.11-.69-.84-2.9-1.77-3.66-2.15"/>
    <path class="cls-1" d="M130.61,151.47a6.4,6.4,0,0,1-1.52-.6l.56-1.24a4.87,4.87,0,0,0,1.68.63c.47.07.72-.06.76-.34.09-.7-2.77-.45-2.49-2.57a1.74,1.74,0,0,1,1.75-1.44l.22-1.63,1.38.18-.21,1.6a7,7,0,0,1,1.33.56l-.56,1.23a4.19,4.19,0,0,0-1.49-.58c-.44-.06-.69.06-.72.31-.09.66,2.79.39,2.5,2.57a1.78,1.78,0,0,1-1.8,1.47l-.22,1.63-1.38-.18Z"/>
    <path class="cls-1" d="M57.32,116.55a17.58,17.58,0,0,1,.87-12.17c2.05-4.15,1.92-6.27,2.1-9C63,85.36,69,82.52,70.48,81.17a9.54,9.54,0,0,0-1.56-2.11C66,80.5,61.09,83.66,58.27,92.73c-1,3.31-.78,5.45-1.69,8.72-2.58,9.3.74,15.1.74,15.1"/>
    <path class="cls-1" d="M94.63,117.73s2.14-7.93-2.26-12.92c-3.42-3.89-4.62-8.94-5.65-11C81.7,84,74,83.29,72.49,81.93c-.87-.78,1.62-2.66,3.11-1.93,2.88,1.44,9.17,2.93,13.43,11,2.16,4.08,2.87,7.68,5.44,11.23,5.67,7.82.16,15.53.16,15.53"/>
    <path class="cls-3" d="M109.43,163.8a1.52,1.52,0,1,1,1.52-1.52,1.52,1.52,0,0,1-1.52,1.52"/>
    <path class="cls-6" d="M122.88,92.34c.07,2.84-7.5,6.86-14.34,4.9-5.82-1.67-9.32-1.18-12.58-.09,1.08,3.07.78,5.42-.2,7.19,3.42,7-1.13,13.39-1.13,13.39s1.64-6.11-.93-11a13.56,13.56,0,0,1-6.32,2.62c-2.71.31-7.26-2.39-9.15-3.39-3.68-1.94-6.86-3.62-13-2.66A12,12,0,0,0,60.29,105c.45,2.05.93,3.57,1.38,3.84.15,0,14.58,2.63,17.54,8.35,0,0,6.22,6.79,22.2,6.79,14.93,0,21.08-5.9,21.87-6.72.3-2.44.65-4.27,1-6.2.27-1.4.55-2.83.82-4.58.33-2.11,2-5.33,4.21-9.11a24.28,24.28,0,0,1,.84-6.37c-1.69,1.78-5,3.31-7.29,1.38"/>
    <path class="cls-7" d="M86.72,93.85C81.7,84,74,83.29,72.49,81.93a.54.54,0,0,1-.15-.23,3.42,3.42,0,0,0-1,.51,10,10,0,0,0-1-1.43c.08.13.16.26.23.39C69,82.52,63,85.36,60.29,95.35a23.06,23.06,0,0,1-.74,5.66c.16,1,1.61-2,1.77-4.25a20.37,20.37,0,0,1,2.42-5.67c.58-1.73,1.54-4.75,4.52-6.7a2,2,0,0,0,3.28-.33c4.49,1.82,5.28,2.24,7.35,4.46a19,19,0,0,1,6,7.08c1,2,2.22,7.07,5.65,11A9.41,9.41,0,0,1,91.66,108a11.64,11.64,0,0,0,2-1.29,10.29,10.29,0,0,0-1.33-1.94c-3.42-3.89-4.62-8.94-5.65-11"/>
    <path class="cls-7" d="M71.61,60.52c.2-.29.37-.56.51-.77-2.3-1.5-7.08-3.18-8.54-1.83a30.85,30.85,0,0,0-.25,3.93q0,.46,0,.93a6.6,6.6,0,0,1,5.15-2.66,21.45,21.45,0,0,1,3.1.4"/>
    <path class="cls-7" d="M63.2,67.8a21.7,21.7,0,0,0,4.7-1.62l1.5-2.29c-.37,0-.75.08-1,.08a11.39,11.39,0,0,1-3.91-.81c-.33-.11-.61-.21-.83-.26l-.3-.08a17.23,17.23,0,0,1-.68,5.08l.52-.1"/>
    <path class="cls-7" d="M58.41,92.3c2.72-8.39,7.3-11.57,10.17-13.06-1.29-1.57-2.8-3.72-3.88-5.23a3,3,0,0,1-.1-2.72c.16-.3,1.6-2.51,3.21-5a22.29,22.29,0,0,1-4.52,1.85c-.29.08-.54.15-.74.19-.23.76-.51,1.58-.87,2.48a56.26,56.26,0,0,0-3.3,21c0,.13,0,.28,0,.44"/>
    <path class="cls-7" d="M101.51,63.51c-1,.14-1.91.28-2.55.43a35.91,35.91,0,0,1-7.56.87h-.13A17.43,17.43,0,0,1,85,63.75a3.35,3.35,0,0,0-.63.41,7.9,7.9,0,0,0,.4,2.57,24.05,24.05,0,0,0,3.84,2.94c1.43.73,19.24.6,16.21-5.8l-1.41-.3c-.58,0-1.24-.06-1.85-.06"/>
    <path class="cls-7" d="M120.17,46.73c-1.68-5.59-5-10.86-8.52-13.62a136.18,136.18,0,0,0,10.93-10.88L109,31.47a350.23,350.23,0,0,0-42.93,12c-.15.46-.3,1-.45,1.68,5.69-1.51,41-10.89,43.35-11,2-.06,8.31,8.2,11.19,12.55"/>
    <path class="cls-7" d="M67.19,96.25c-.34.94,1.49,1.7,2.53,1.91,1.81.36,4.89-1.91,4.89-1.91S70.43,96,69.67,96s-2.48.24-2.48.24"/>
    <path class="cls-7" d="M118.69,75.81a6.49,6.49,0,0,1-3,2.35C124,80,127,72,127,72s-2.31,3.94-8.32,3.8"/>
    <path class="cls-7" d="M120.28,70.91a36.41,36.41,0,0,0,1.84-3.23,21.19,21.19,0,0,1-8,1A17.18,17.18,0,0,1,110,69.84c2.84,2.32,7.63,1.66,10.25,1.07"/>
    <path class="cls-7" d="M121.52,119.83c-3,2-9,4.85-19.24,5,.56.69,1.46,1.85,2.53,3.36,8.91-.78,15.8-4.17,16.71-8.37"/>
    <path class="cls-7" d="M97.7,128.26c1.1-1.54,2-2.72,2.58-3.43-11.14-.22-17.36-3.61-20.08-5.63.33,4.6,7.8,8.37,17.5,9.06"/>
    <path class="cls-7" d="M97.9,142.15c-2-2.08-2.62-6.05-2.79-8.32-.78,1.29-2.5,4.55-2.5,4.55-7.78-2.63-12.64-9.24-14.78-13.31a37.34,37.34,0,0,0,4.1,8.84,38.35,38.35,0,0,0,10.92,6.41c1.57,1.87,3,3.49,3.73,4.32.56-1.16,1.06-2,1.32-2.49"/>
    <path class="cls-7" d="M110,138.3s-1.83-3.33-2.66-4.68c-.14,2.21-.69,6.36-2.78,8.51.25.35.67,1,1.2,1.87l4.44-3.68a54.86,54.86,0,0,0,11.5-7.11,47.4,47.4,0,0,0,3.15-8.32c-4,9.3-14.85,13.41-14.85,13.41"/>
    <path class="cls-7" d="M144.19,162.75a42.35,42.35,0,0,1-7.73,3.7,20,20,0,0,0-3.11,1.56l-.49-.77c-2,.55-7.59-1.43-9.88-2.29-.47.74-1,1.52-1.62,2.29s-1,1.28-1.34,1.84c6.09.92,12.62,2,17.54,3.24.86-.27,4.12-1.52,7.57-5.69a2.65,2.65,0,0,0,.19-2.81,2.32,2.32,0,0,0-1.13-1.07"/>
    <path class="cls-8" d="M69.41,167.5a35.78,35.78,0,0,0-4.79,2.28l1.8.45s1.46-2,6.54-1.46c-1.19-1-7-6.55-7-6.55a62.42,62.42,0,0,1,9.47,5.88,82.65,82.65,0,0,1-.32-12.94s1.86,10.27,2.32,12.72c1.29-1.83,5.68-4.08,9.55-4a6.35,6.35,0,0,1,3.64-1.53,133.83,133.83,0,0,0,14.16,4.19l-.59-6.48-32.81-9.91a.45.45,0,0,1-.31-.55l2.54-10.17-7.48-3.83a.51.51,0,0,1-.23-.27.45.45,0,0,1,0-.36l5.93-10.59s-9.28,11.37-9.36,12.51,6.39,4,6.61,5.32-2.66,8.13-1.29,9.27,5.62,4.1,4.94,7.67a31.34,31.34,0,0,1-1,4.48s-4.33-1.67-6.53-2.2c.15,1.29,4.86,5.93,4.18,6.08"/>
    <path class="cls-8" d="M105.14,186.11h0s-32.46,7.75-36.71,7.29-7.83-1.51-10.71-3.64-3.12-13.15-3.88-16.34c-.26-1.12-.55-2.61-.81-4.07,0,2.29-.08,4.49-.16,6.5-.38,10.61,1.6,14,3.66,16.65,0,0-.16,4.05,1.15,4.56s4.06-1.42,4.06-1.42c4.46.3,13.58-.52,27.88-2.48,9.63-1.33,18.52-2.94,22-3.58-2-1-4.2-2.22-6.44-3.47"/>
    <path class="cls-8" d="M157.22,195.49c.9-.72-.46-3.18-.46-3.18,1-2.18,1.54-4.09,1-10.62-2.27,9.47-5,11.37-8.08,11.68-27.9,2.8-57.63-18.83-63.4-23.56a11.81,11.81,0,0,1-2,2.93c2.94,1.82,18.69,11.53,28.69,16.56h0v0a52,52,0,0,0,5.66,2.54c7.47,2.62,20,7,33.84,2.8,0,0,2.57,2.48,4.64.84"/>
    <path class="cls-8" d="M125.82,158.85a45.36,45.36,0,0,1-6.62-.57l-.46-.07.6-3.59L105.09,160l.62,6.73c.77.16,12.64,2.09,13.33,2.2.42-.68,3.46-4.75,3.84-5.7a15,15,0,0,1,3.44-4.4h-.5m-16.39,5.86a2.43,2.43,0,1,1,2.43-2.43,2.43,2.43,0,0,1-2.43,2.43"/>
    <path class="cls-8" d="M137.42,137.9a16.28,16.28,0,0,0,.05,9.42c.68,2.32,1.23,4.55-.22,6.77a14.71,14.71,0,0,1,1.61.06l.21,0a39.78,39.78,0,0,0,.38-6.29,47.78,47.78,0,0,0-2.57-12.53h0l-7.9,4,.6,2.43a36.67,36.67,0,0,1,7.84-3.95"/>
    <path class="cls-8" d="M147.61,165c.07-1.74-2.07-3-2.79-3a3.36,3.36,0,0,1,1.28,1.33,3.52,3.52,0,0,1-.24,3.76l0,.05a19.47,19.47,0,0,1-6.81,5.53,16.63,16.63,0,0,1,5.46,2.36c4.86,3.91,3.9,6.23,3.77,6.48,1.53-1.88-1.76-6.77-2.1-8.71s1.31-4.44,1.46-7.84"/>
    <path class="cls-9" d="M129.46,30.14a48.48,48.48,0,0,1,7.7,17.55c2.41,10.72,2.34,11.42,2.34,11.42s4.6-19.22-10-29"/>
    <path class="cls-9" d="M133.12,29.36A40.37,40.37,0,0,1,139.53,44c2,8.92,1.94,9.28,1.94,9.28s3.83-15.77-8.35-23.88"/>
    <path class="cls-9" d="M137.42,31.3a25.15,25.15,0,0,1,4,9.09,54.73,54.73,0,0,1,1.21,5.92s2.38-10-5.2-15"/>
    <path class="cls-9" d="M112.15,22.3c-5-4.28-20.67-6.77-28.43-2.2a97,97,0,0,1,15.9,0c-7.7.18-16.44,2.29-21.18,6.67a111.54,111.54,0,0,1,12.53-3c-7,1.85-13.78,5.13-17.5,9.64,0,0,20.29-9.64,37.87-10.1.61-.29.92-1,.81-1"/>
    <path class="cls-10" d="M131,130c2,2.71,3.88,5.37,3.88,5.37l.77-.4-6.44-11.67L126.28,122c-1.23,11-13.55,28.69-20.18,36.65l3.16-1.19c5.4-7.05,12.47-17.71,15.7-26.6a3.43,3.43,0,0,1,6-.84"/>
    <path class="cls-10" d="M77.15,129.26c3.56,9.7,13.37,20.81,21.08,28l4.32,1.31C93.48,150.93,77.72,134.3,76.29,122l-3,1.56L67,135l.66.34,5-6.7a2.61,2.61,0,0,1,4.53.63"/>
    <path class="cls-10" d="M141,175.34a33.54,33.54,0,0,1,7.32,6.22s-.05-2.32-4.34-5.77c-1.14-.92-3.43-1.76-6.35-2.53h0v0c-5.8-1.51-14-2.73-20.68-3.72-3.6-.53-6.71-1-9-1.42a120.07,120.07,0,0,1-17.3-4.85,5.12,5.12,0,0,0-3.07,1.36A2.27,2.27,0,0,0,87,166.3c1.46-.45,3.66-1.33,5.29-.78,11.88,4.07,44.46,7.26,48.67,9.82"/>
    <path class="cls-10" d="M150.09,133.07c-6.74-3.19-14.59-6.83-19.53-9.1L132,126.6c5.91,2.32,13.17,5,14.24,7.24,1.17,2.49-1.38,8.77,3.52,18.49-1.87-7.15-2.58-13.93.31-19.26"/>
    <path class="cls-10" d="M71.85,124.37l-19,10,1.23,3.94a43.68,43.68,0,0,0-.7,7.34c1.06-3.2,2-6.71,2.31-8.2a4,4,0,0,0,.08-1.29A2.52,2.52,0,0,1,57,133.87l14.28-8.52Z"/>
    <path class="cls-11" d="M101.46,139.41H101A4.18,4.18,0,0,1,97,136.64a18.79,18.79,0,0,1-.92-4.37l-.13.2c0,1.35.3,6.87,2.69,9.15h5.1c2.57-2.45,2.7-8.61,2.7-9.37l-.11-.18a19.4,19.4,0,0,1-1,4.68,4.12,4.12,0,0,1-3.9,2.66"/>
    <path class="cls-11" d="M100.75,145.08h1.11a3.37,3.37,0,0,1,2.9,1.64,48.74,48.74,0,0,1,3.66,7.55l.63-.84a45.27,45.27,0,0,0-5.35-10.9h-5a32.14,32.14,0,0,0-3.42,8.05c.27.28.36.39.63.64A39.36,39.36,0,0,1,97.72,147a3.38,3.38,0,0,1,3-1.88"/>
  </g>
</svg>
