<svg id="Layer_1" data-name="Layer 1" xmlns="http://www.w3.org/2000/svg" viewBox="0 0 210 210">
  <defs>
    <style>
      .cls-1 {
        fill: #13354c;
      }

      .cls-2 {
        fill: #f2f2f0;
      }

      .cls-3 {
        fill: #fff;
      }

      .cls-4 {
        fill: #4092b5;
      }

      .cls-5 {
        fill: #347999;
      }

      .cls-6 {
        fill: #d7dbdc;
      }

      .cls-7 {
        fill: #a2aeb5;
      }

      .cls-8 {
        fill: #a1aeb4;
      }

      .cls-9 {
        fill: #1e5e82;
      }

      .cls-10 {
        fill: #ced4d6;
      }

      .cls-11 {
        fill: #68a9c5;
      }

      .cls-12 {
        fill: #4b6577;
      }
    </style>
  </defs>
  <title>12</title>
  <g>
    <path class="cls-1" d="M150.13,113.89a2.5,2.5,0,0,0-1.89-2.62l-15.49-3.59-2.33-1.08-1.34-2.39a31.72,31.72,0,0,1,0-6.93c0-.31,5.35-8.39,5.74-9,1.93-2.86,3.42-9.65,3.84-17.37.28-.63.59-1.27.89-1.87a19.41,19.41,0,0,0,2.18-5.81,14.16,14.16,0,0,0,4-1.72l4.53-2.73-5.19-1a8.34,8.34,0,0,1-2.83-1.06c4.84-1,6.44-7.88,6.44-7.88l-4.39.66c-.61-.78-1-4.17-1.23-6.66-.91-8.55-2.42-22.81-16.53-28.3-10.33-7.95-22.21-9.28-35.31-3.95-9.86,4-16.63,10.64-20.15,19.71-4.58,11.84-2.28,24.57,1.17,32.12-.06,2.56,1.17,6.23,2,8.47,0,1.66.16,3.9.4,5.81a46.21,46.21,0,0,0,3.7,11.87A23.42,23.42,0,0,0,82.38,94a15.1,15.1,0,0,1,1.55,3.3,31.72,31.72,0,0,1,0,7c-.24.46-.64,1.71-1.14,2.63-1.31.62-18,4.34-18,4.34A2.45,2.45,0,0,0,63,113.44c0,.13-1.37,13.63-5.92,20-8.41,4-9.66,7-12.75,12.6C41,152,45,164.31,47.87,167.71c.56,4,6.45,4.36,9.21,2.21,4.85-.08,8.25-2.19,18-8.77.62,3.09,6,38.08,6.39,38.52,4.53,5.29,19.41,5.7,25.07,5.7,5.4,0,19.9-.37,25.27-5.1,1.79-8.46,3.19-16.8,4.13-21.61,6.27-4.83,11.78-13.79,14.44-21.67C155.4,142.14,149.28,130,150.13,113.89Z"/>
    <path class="cls-2" d="M86.76,96.87c-.06-.4,2.46.34,4.13,1.43A69.07,69.07,0,0,0,97.23,102c-.86,2.25-2,6.56-2.11,6.52-3.77-1.23-7.07-2.7-8.27-3.67A45.62,45.62,0,0,0,86.76,96.87Z"/>
    <path class="cls-2" d="M95.85,110.47c.74-3.68,1.66-8.25,4-11.91,0-.08-.71-13.29,2.53-16a2,2,0,0,1,1.73-.4c3.51.5,1.75,11.94,3.22,15.66a19.31,19.31,0,0,0-3.45,3.45.4.4,0,0,0,.09.57.4.4,0,0,0,.57-.09c.06-.08,5.94-8,12.7-5.26,3,1.22,4.72,2.65,5.1,4.16a3.06,3.06,0,0,1-.75,2.71,8.83,8.83,0,0,0-6.3-3.17c-2-.09-5,.57-7.78,4.2a.41.41,0,0,0,.64.5c2.06-2.65,4.51-4,7.11-3.88a8,8,0,0,1,6.06,3.36c1.16,1.8,1.61,3.5,1.26,4.8a3.1,3.1,0,0,1-1.72,2c-.67.34-1.18-.18-2.11-1.37s-2-2.58-3.73-1.81c-1,.46-1,1.35-1,2.48.07,2.07.21,5.92-5.48,12.86-2.23,2.73-7.19,2.29-7.24,2.29a.41.41,0,0,0-.32.11l-1.74,1.69,0,0a58.89,58.89,0,0,1-6.7-9.17C94.45,117.42,95.07,114.32,95.85,110.47Z"/>
    <path class="cls-2" d="M126.26,104.75c-.45.26-1.54.86-3.08,1.59-.24-.75-1-2.4-1-2.44a3.92,3.92,0,0,0,.93-3.48,4.35,4.35,0,0,0-1-1.84c1.33-.88,3-2,4.6-3.28a9.9,9.9,0,0,0-.4,1.57A34,34,0,0,0,126.26,104.75Z"/>
    <path class="cls-2" d="M111.86,120.17a35.93,35.93,0,0,1,2.36,3.25.42.42,0,0,0,.34.19.35.35,0,0,0,.14,0c6.88-2.32,10.86-7.93,12.82-11.59-2.12,6.89-8.36,15.89-13.8,22.88-1.3-3-3.85-10.11-4.29-11.35A37.68,37.68,0,0,0,111.86,120.17Z"/>
    <path class="cls-2" d="M128.2,108.5c-.49,1.38-4.2,10.9-13.47,14.21a39.3,39.3,0,0,0-2.42-3.28c2.7-4.52,2.61-7.34,2.55-9,0-1.14,0-1.48.49-1.71,1.05-.47,1.74.28,2.76,1.58.83,1.06,1.78,2.27,3.12,1.59a3.93,3.93,0,0,0,2.14-2.5,5,5,0,0,0,0-2.24.61.61,0,0,0,.13,0c1.45-.69,2.5-1.27,3-1.56Z"/>
    <path class="cls-2" d="M86.54,105.65c1.44,1,8.41,3.68,8.46,3.68s-1.3,7.62-2.89,8.19c-.19-.3-.37-.6-.55-.92a.74.74,0,0,0-.63-.09c-.91.84-1.87,1.64-2.87,2.43-1.19-2.89-2.94-8.19-3.14-10.39Z"/>
    <path class="cls-2" d="M135,57.43l.36-7.85C134,33.1,127,29.66,127,29.66l-1.8-9.77H125c-.33,1.89-1.13,6.71-1.3,9C107.05,34.32,93.92,32.13,79,40.51A66.58,66.58,0,0,0,77.87,50.9c.1,2.17.21,4.35.3,6.52,0,0-.45,5.11-.6,7.62A64.63,64.63,0,0,0,78,76.19a34.29,34.29,0,0,0,3.3,10.72,24.3,24.3,0,0,0,4.28,6A33.08,33.08,0,0,0,91.3,97.6a67.59,67.59,0,0,0,6.18,3.79,20,20,0,0,1,1.61-3.16C99,97,98.6,88,100.62,83.67a24.16,24.16,0,0,1-6.11-3c-2.86-2.14-4.23-2.43-8.16-4.38,4.71,1,5.89,1.81,8.18,3.33A30.82,30.82,0,0,0,101,83a4.36,4.36,0,0,1,.88-1.11,2.67,2.67,0,0,1,2.45-.56A3.86,3.86,0,0,1,106.81,83a3.69,3.69,0,0,0,1.66-1.16c2.67,1.58,4.68,1.44,10.22-2.26,2.28-1.52,3.47-2.28,8.17-3.33-3.93,2-5.3,2.24-8.15,4.38a21,21,0,0,1-11.33,3.78,10.41,10.41,0,0,1,.22,2.49c0,.39,0,.87,0,1.41a43.93,43.93,0,0,0,.48,8.93c2.48-1.73,5.85-3,9.49-1.56a15.6,15.6,0,0,1,3.34,1.81c2.27-1.64,9.82-4.36,13.2-16.62C136.36,72.68,135,57.43,135,57.43Z"/>
    <g>
      <path class="cls-1" d="M112.85,58.07a19.46,19.46,0,0,0,5.48.52h.15a43,43,0,0,0,6.67-.85,18.06,18.06,0,0,0,4.63-1.21,8.56,8.56,0,0,1-1.78.24h-.07a15.5,15.5,0,0,0-5.52-1c-.35,0-.71,0-1.08.05C114.12,56.46,112.85,58.07,112.85,58.07Z"/>
      <path class="cls-3" d="M123.5,57.5l-1.34.23a2.7,2.7,0,0,0,.82-1.41,16,16,0,0,1,3.82.6c-.47.1-1,.21-1.73.31Z"/>
      <path class="cls-3" d="M114.19,57.83a15,15,0,0,1,3.32-1,2.83,2.83,0,0,0,1.09,1.21h-.27A26.19,26.19,0,0,1,114.19,57.83Z"/>
      <path class="cls-3" d="M121.22,56.73c0,.29-.38.54-.86.54s-.87-.23-.87-.53.38-.54.86-.54.87.23.87.53"/>
    </g>
    <path class="cls-1" d="M106.9,87.67a8.7,8.7,0,0,0,3.16-1,4.22,4.22,0,0,1-3.16,1.83C107,88.26,106.9,88,106.9,87.67Z"/>
    <g>
      <path class="cls-1" d="M91.27,55.85c-.37,0-.73,0-1.08,0a15.49,15.49,0,0,0-5.52,1H84.6a8.83,8.83,0,0,1-1.78-.22,18,18,0,0,0,4.64,1.17,43.37,43.37,0,0,0,6.68.8h.15A19.31,19.31,0,0,0,99.77,58S98.48,56.4,91.27,55.85Z"/>
      <path class="cls-3" d="M87.54,57.26c-.7-.1-1.27-.2-1.73-.29a15.54,15.54,0,0,1,3.81-.64,2.79,2.79,0,0,0,.83,1.41l-1.34-.22Z"/>
      <path class="cls-3" d="M94.29,58.06H94a2.77,2.77,0,0,0,1.08-1.22,14.74,14.74,0,0,1,3.33.93A26.21,26.21,0,0,1,94.29,58.06Z"/>
      <path class="cls-3" d="M91.38,56.73c0,.29.39.53.87.53s.87-.24.87-.53-.39-.54-.87-.54-.87.24-.87.54"/>
    </g>
    <path class="cls-1" d="M99.77,55.58c-.73,1.21-6.35-3.53-13.06-.42,6.66-4.41,10.34.43,13.06.42"/>
    <path class="cls-1" d="M101.39,52.76c-3.25-2.15-3.59-4.77-3.16-8.45a6.26,6.26,0,0,0-3,4.37,17.78,17.78,0,0,1-3.09-4.37A4.26,4.26,0,0,0,91,47.25c-4.79-3.53-13.48-1.44-10.64,4.9-.79-4.32,5.44-4.06,8.72-2.71,5.13,2.14,10.41,5.1,12.3,3.32"/>
    <path class="cls-1" d="M111.9,52.76c3.26-2.15,3.6-4.77,3.16-8.45a6.32,6.32,0,0,1,3,4.37,17.76,17.76,0,0,0,3.08-4.37,4.32,4.32,0,0,1,1.13,2.94c4.78-3.53,13.48-1.44,10.63,4.9.79-4.32-5.44-4.06-8.71-2.71-5.14,2.14-10.41,5.1-12.31,3.32"/>
    <path class="cls-1" d="M112.84,55.58c1.43,1,7.2-3.67,13.06-.42-6.58-4.4-10.34.43-13.06.42"/>
    <path class="cls-1" d="M101.82,54.83a5.1,5.1,0,0,1,.18.71,10.71,10.71,0,0,1,.19,1.57,11.28,11.28,0,0,1,0,1.57,7.24,7.24,0,0,1-.1.72,5.17,5.17,0,0,1-.18-.7,10.89,10.89,0,0,1-.19-1.57,11.46,11.46,0,0,1,0-1.58,7.24,7.24,0,0,1,.1-.72"/>
    <path class="cls-4" d="M129,109.09l2.61,1.22h0l5.74,10.41-6.62,3.39a.4.4,0,0,0-.21.46l1.32,5.28a24.57,24.57,0,0,0-9.16,7.79l-.11,0-14.86,5.83c2.87-3.34,7.42-8.84,11.6-14.8C125.18,120.33,128.43,113.74,129,109.09Z"/>
    <path class="cls-2" d="M136.88,139.12c.82,3.23,1.46,5.79-.67,8.4a111.18,111.18,0,0,1-15.74,0c.16-8.39,5.5-14.73,15.9-18.86C135.3,132.84,136.14,136.17,136.88,139.12Z"/>
    <path class="cls-4" d="M81.54,110.31l2.62-1.22a58.67,58.67,0,0,0,3.21,10.32s0,0,0,0a69.73,69.73,0,0,1-6.64,4.44l-5-3.12Z"/>
    <path class="cls-4" d="M64.42,122.06A77.9,77.9,0,0,0,65.78,114l14.65-3.36L74.87,120.7a.42.42,0,0,0,.14.55l4.95,3.1c-5.33,3.12-11.07,5.79-16.4,8.27l-3.68,1.72C61.72,131.46,63.25,127.34,64.42,122.06Z"/>
    <path class="cls-4" d="M56.9,167.06h-.37a.34.34,0,0,0-.22,0c-2.06,1.12-3.83,1.46-4.85.93a2,2,0,0,1-1-1.64.41.41,0,0,0-.23-.32c-1.63-.81-5-13.34-3.43-18.75,2-4.3,4.16-7.82,12-11.57h0c1.63-.78,3.33-1.58,5.07-2.39,5.53-2.57,11.5-5.35,17-8.62l.09-.06a64.33,64.33,0,0,0,10.1-7.23c6.53,11.13,11.6,14.47,13.3,15.34C100,136.74,69.87,167.06,56.9,167.06Z"/>
    <path class="cls-5" d="M101.4,139.54s2.24,2.64,3.37,3.89L99,141.23Z"/>
    <path class="cls-4" d="M106.2,202.51c-13.33,0-20-1.88-22.48-4.62-.18-1.08-6.47-38.31-6.47-38.31s17.44-15,20.9-17.88l8,3.52Z"/>
    <path class="cls-4" d="M136.49,171.91c2.63-16.4,4.3-33,3.81-38.3,0-.23-.6-.4-.82-.37a.4.4,0,0,0-.37.44c.77,8.49-6.9,53.27-8.91,64.19-2.49,2.75-9.88,4.6-23.18,4.64V144.65l15-5.86a17.92,17.92,0,0,0-2.33,8.83l-.12,0a.42.42,0,0,0-.31.07.45.45,0,0,0-.16.27l-.43,2.85a.41.41,0,0,0,.35.47,61.52,61.52,0,0,0,8.22.43c4.09,0,7.78-.2,8-.21a.41.41,0,0,0,0-.82c-.1,0-10.34.55-15.7-.15l.31-2c5.46.71,16.29,0,16.76-.05A.41.41,0,0,0,137,148s0,0,0-.07c2.27-2.89,1.56-5.72.74-9-.77-3-1.64-6.47-.3-10.8a.41.41,0,0,0-.11-.41.43.43,0,0,0-.43-.09,43.91,43.91,0,0,0-4.24,1.85l-1.2-4.77,6.71-3.44a.45.45,0,0,0,.21-.24.4.4,0,0,0,0-.32l-5.55-10L147.25,114c-.18,2.17,1.15,15.57,2.32,23.06.77,5.06,1.05,12.59-1.5,19.52C143.82,168.11,135.52,178,136.49,171.91Z"/>
    <g>
      <path class="cls-1" d="M110.06,145.69a2.18,2.18,0,1,0,2.18,2.18A2.18,2.18,0,0,0,110.06,145.69Z"/>
      <path class="cls-2" d="M110.06,149.23a1.36,1.36,0,1,1,1.36-1.36A1.37,1.37,0,0,1,110.06,149.23Z"/>
    </g>
    <g>
      <path class="cls-1" d="M110.22,160.39a2.18,2.18,0,1,0,2.18,2.18A2.19,2.19,0,0,0,110.22,160.39Z"/>
      <path class="cls-2" d="M110.22,163.94a1.37,1.37,0,1,1,1.36-1.37A1.36,1.36,0,0,1,110.22,163.94Z"/>
    </g>
    <g>
      <path class="cls-1" d="M110.52,175.86A2.18,2.18,0,1,0,112.7,178,2.19,2.19,0,0,0,110.52,175.86Z"/>
      <path class="cls-2" d="M110.52,179.41a1.37,1.37,0,1,1,1.36-1.37A1.37,1.37,0,0,1,110.52,179.41Z"/>
    </g>
    <path class="cls-1" d="M128.86,144.17a9.66,9.66,0,0,1-2.38-.94l.87-1.94a7.8,7.8,0,0,0,2.64,1c.72.1,1.13-.09,1.19-.54.14-1.1-4.35-.71-3.91-4a2.73,2.73,0,0,1,2.75-2.26l.34-2.56,2.16.29-.33,2.51a10.69,10.69,0,0,1,2.09.87l-.88,1.93a6.52,6.52,0,0,0-2.34-.91c-.68-.09-1.07.1-1.12.48-.14,1,4.36.61,3.91,4a2.78,2.78,0,0,1-2.82,2.31l-.34,2.55-2.16-.28Z"/>
    <path class="cls-6" d="M76.34,68.06a14,14,0,0,1-1.15-5.92,5.46,5.46,0,0,1,1.2-3.25C76.43,61.81,76.34,66.85,76.34,68.06Z"/>
    <path class="cls-6" d="M137,67.79c-.1.19-.19.38-.28.57a66.31,66.31,0,0,0-.24-7.32,10,10,0,0,0,2.33.44c0,.2.07.42.1.66C139.12,63.55,138.1,65.61,137,67.79Z"/>
    <path class="cls-1" d="M131,67.76c4.1-2.56,6.95,2,6.05,4.77-1,3-3.61,4.54-6.79,5,.6-1.85.49-3.48-1.26-4.07-1.14-.38-5.29.46-6.23.53s-3.9.37-4.52-1.15A7.58,7.58,0,0,0,114.79,69c-.12-1.73-1.52-3.49-2.46-4.57,1,1.45,2.86,5.59,1.15,6.61-.74.45-2.87,1.64-3,1.68s-.59.21-1,.37a10.8,10.8,0,0,1-2.74,1c-.8,0-6-2.6-6.78-3.07-1.7-1,.16-5.16,1.16-6.61-1,1.14-2.48,3-2.46,4.83a9,9,0,0,0-2.28,3.52c-.62,1.53-3.6,1.23-4.53,1.15s-5.09-.91-6.22-.53-1,2-.53,4.2c-3.91,0-7.4-1.63-8.52-5.11-.9-2.79,2-7.33,6-4.77-3-3.5-9.2,1.4-7.76,6,1.69,5.34,6.3,6.94,11,6.56.76,2.37,1.78,4.9,2.6,6.85-.13-1.19-1.2-4.15-2-6.91a16.87,16.87,0,0,0,2.44-.44c7.75-2,10.25-4.5,14.26-3.6,1,.23.35-2.8-1.09-3-3.83-.64-6.49,2.25-13.34,4.12a16.73,16.73,0,0,1-3,.36c-.35-1.62-.4-2.85.24-3,1.23-.39,3.4.12,5.81.5,3.13.5,4.85-.88,5.19-1.83a30.42,30.42,0,0,1,1.68-3.76,3,3,0,0,0,.89,1.9,18.32,18.32,0,0,0,3.29,1.53c.19.18,2.48,2,3.83,2a10,10,0,0,0,3.07-1.33c.49-.36,3.64-1.69,4.13-2.2a2.92,2.92,0,0,0,.89-2.24,12.5,12.5,0,0,1,2.88,4.1c.34.95,2.06,2.33,5.2,1.83,2.4-.38,4.57-.89,5.81-.5s1,1.6.45,3a15.89,15.89,0,0,1-4.15-.35c-6.86-1.87-9.52-4.76-13.35-4.12-1.44.25-2.1,3.28-1.09,3,4-.9,6.51,1.65,14.27,3.6a17.23,17.23,0,0,0,3.2.52l0,.08c-1.38,3.43-2.42,6.22-2.67,8.63,1.68-4,2.89-6.94,3.71-8.67,4.24,0,8.23-1.73,9.77-6.62C140.23,69.16,134,64.26,131,67.76Z"/>
    <path class="cls-7" d="M86.76,96.87c-.06-.4,2.46.34,4.13,1.43A69.07,69.07,0,0,0,97.23,102c-.86,2.25-2,6.56-2.11,6.52-3.77-1.23-7.07-2.7-8.27-3.67A45.62,45.62,0,0,0,86.76,96.87Z"/>
    <path class="cls-7" d="M126.26,104.75c-.45.26-1.54.86-3.08,1.59-.24-.75-1-2.4-1-2.44a3.92,3.92,0,0,0,.93-3.48,4.35,4.35,0,0,0-1-1.84c1.33-.88,3-2,4.6-3.28a9.9,9.9,0,0,0-.4,1.57A34,34,0,0,0,126.26,104.75Z"/>
    <path class="cls-8" d="M97.62,95.8a1.67,1.67,0,0,1-2.53,1.36c-1.47-.89-3.51-2.15-5.93-3.67-1.87-1.18-3.8-2.59-5.5-3.89a.33.33,0,0,0-.46.45,31.32,31.32,0,0,0,2.37,2.82A33.08,33.08,0,0,0,91.3,97.6a67.59,67.59,0,0,0,6.18,3.79,20,20,0,0,1,1.61-3.16,51.47,51.47,0,0,1,.62-11.67C98.23,88.62,97.76,92.93,97.62,95.8Z"/>
    <path class="cls-8" d="M119.11,96.44a12.13,12.13,0,0,1,1.78,1.08c1.45-1,5-2.53,8.35-6.67a.36.36,0,0,0-.48-.53C125.29,92.59,121.34,95.06,119.11,96.44Z"/>
    <path class="cls-7" d="M132.75,37.47c-2.49-6.21-5.72-7.81-5.72-7.81l-1.8-9.77H125c-.33,1.89-1.13,6.71-1.3,9C107.05,34.32,93.92,32.13,79,40.51c-.31,1.56-.58,3.34-.78,5.35l1.42-3a4.19,4.19,0,0,1,2.54-2.19C87.81,39,106,33.6,121,31.23a9.79,9.79,0,0,1,8,2.36A32.32,32.32,0,0,1,132.75,37.47Z"/>
    <path class="cls-7" d="M89.09,49.44c-3.26-1.35-9.43-1.61-8.73,2.63.58-3,5.82-2.63,8.73-1.42,2.24.93,4.51,2,6.52,2.8,2.58,1,5.11,0,4.82-.21C98.05,53.74,93.52,51.28,89.09,49.44Z"/>
    <path class="cls-7" d="M124.21,49.44c-4.43,1.84-9,4.3-11.34,3.8-.29.25,2.61,1.13,5.48-.05,1.84-.76,3.86-1.71,5.86-2.54,2.9-1.21,8.14-1.54,8.72,1.42C133.63,47.83,127.46,48.09,124.21,49.44Z"/>
    <path class="cls-6" d="M128.68,74.59c-1.24-.39-3.41.12-5.81.5-3.14.5-4.86-.88-5.2-1.83a12.39,12.39,0,0,0-2.88-4.1,2.92,2.92,0,0,1-.89,2.24c-.49.51-3.64,1.84-4.13,2.2a10,10,0,0,1-3.07,1.33c-1.35,0-3.64-1.82-3.83-2a18.32,18.32,0,0,1-3.29-1.53,2.94,2.94,0,0,1-.89-1.89A29.33,29.33,0,0,0,97,73.26c-.34.95-2.06,2.33-5.19,1.83-2.41-.38-4.58-.89-5.81-.5-.64.2-.59,1.43-.25,3a15.38,15.38,0,0,0,2.77-.32c-.64-.3-1.35-.63-2.18-1,1.25.28,2.25.54,3.09.79,6.32-1.87,8.93-4.52,12.62-3.91,1.44.25,2.1,3.28,1.09,3C99.94,75.49,97.7,77,93,78.6l1.31.84c2-.84,7.22-2.65,12.22-1.72,4.31-1.27,9.9.69,12.42,1.74.54-.35,1-.67,1.52-1-4.53-1.58-6.75-3-9.89-2.29-1,.23-.35-2.8,1.09-3,3.64-.6,6.24,2,12.38,3.84.79-.23,1.72-.47,2.85-.72l-2,1,.13,0a15.89,15.89,0,0,0,4.15.35C129.65,76.19,129.83,75,128.68,74.59Z"/>
    <path class="cls-6" d="M124.81,81.17a18.31,18.31,0,0,0,2.68.47c.15-.4.32-.81.49-1.23l0-.08a17.23,17.23,0,0,1-3.2-.52c-1.23-.3-2.33-.63-3.32-1-.47.25-.94.53-1.45.86C121.39,80.2,123,80.7,124.81,81.17Z"/>
    <path class="cls-6" d="M134.15,80.67c.13-.49.25-1,.36-1.54a11.46,11.46,0,0,1-5.5,1.24c-.18.39-.38.84-.6,1.34A12,12,0,0,0,134.15,80.67Z"/>
    <path class="cls-6" d="M86.3,81.63c-.15-.44-.3-.88-.44-1.31a11.52,11.52,0,0,1-7.46-1.67c.12.55.25,1.09.39,1.61A12,12,0,0,0,86.3,81.63Z"/>
    <path class="cls-6" d="M91.9,79c-.91.29-1.91.58-3,.85a16.89,16.89,0,0,1-2.44.45c.13.43.26.87.4,1.31a19.87,19.87,0,0,0,2-.4c1.71-.43,3.17-.89,4.45-1.34C92.83,79.5,92.36,79.21,91.9,79Z"/>
    <path class="cls-7" d="M118.79,113.12c3.49.68,5.28-2.71,4.58-3.76a3.93,3.93,0,0,1-2.14,2.5c-1.34.68-2.29-.53-3.12-1.59-1-1.3-1.71-2-2.76-1.58-.52.23-.53.57-.49,1.71.06,1.69.15,4.51-2.55,9,.36.45,1,1.25,1.29,1.65a29.48,29.48,0,0,0,2.32-5.6A3.18,3.18,0,0,1,118.79,113.12Z"/>
    <path class="cls-7" d="M111.86,120.17a37.68,37.68,0,0,1-2.43,3.35l.9,2.49c.81-1,1.92-3.28,2.74-4.26C112.59,121.09,112.14,120.53,111.86,120.17Z"/>
    <path class="cls-9" d="M109.64,126.52c-2.55,2-6.34,1.88-7.27,1.82l-1.12,1.09a28.74,28.74,0,0,0,4.3,3.17c0,.14-.39.62-.82,1,1.08.73,2,1.61,1.88,1.71s-1.7,1.55-4.42,3.91c1.88,2.24,3.33,3.82,4.11,4.65,1.59-1.82,4.09-4.76,6.85-8.28C112.28,133.67,110.7,129.41,109.64,126.52Z"/>
    <path class="cls-10" d="M86.54,105.65l-1.62,2.9c3.37-.91,5.77,3.32,9.18,5a28.06,28.06,0,0,0,.9-4.19S88,106.69,86.54,105.65Z"/>
    <path class="cls-4" d="M81.54,110.31l2.62-1.22a58.67,58.67,0,0,0,3.21,10.32s0,0,0,0a69.73,69.73,0,0,1-6.64,4.44l-5-3.12Z"/>
    <path class="cls-5" d="M74.87,120.7l5.56-10.06-8.5,11.5a.49.49,0,0,0,.16.64l5,3.16q1.42-.78,2.82-1.59L75,121.25A.42.42,0,0,1,74.87,120.7Z"/>
    <path class="cls-5" d="M102.08,131.25c-8.07,7.11-34,32.88-45.95,32.88-.13,0-4.42,1.5-5.44,1a.53.53,0,1,0-.43,1,.41.41,0,0,1,.23.32,2,2,0,0,0,1,1.64c1,.53,2.79.19,4.85-.93a.34.34,0,0,1,.22,0h.37c13,0,43.11-30.32,47.51-34.27A14,14,0,0,1,102.08,131.25Z"/>
    <path class="cls-5" d="M118.65,151a.81.81,0,0,1,0-.16l.43-2.85a.45.45,0,0,1,.16-.27.63.63,0,0,1,.43,0,18.86,18.86,0,0,1,2.33-8.83l-15,5.86,7.62.66C117.48,145.31,118.65,151,118.65,151Z"/>
    <path class="cls-10" d="M130.81,146.05l-.12.91-2.16-.28.08-.65c-.93,0-1.87-.05-2.81-.1a2.22,2.22,0,0,1-2.09-2.54c.76-5.24,3.75-9.6,8.94-13-8,4.1-12,9.86-12.18,17.18a111.18,111.18,0,0,0,15.74,0,6.62,6.62,0,0,0,1-1.65C135.62,146,133.33,146,130.81,146.05Z"/>
    <path class="cls-6" d="M114.8,107c-2.65.2-2.7,6.06-4.91,10.5s-7.77,5.85-9,6.43c-1,.47-4.55-4.86-6.58-7.61a3.71,3.71,0,0,1-1.76,2,58.89,58.89,0,0,0,6.7,9.17l1.76-1.72a.41.41,0,0,1,.32-.11c.05,0,5,.44,7.24-2.29,5.69-6.94,5.55-10.79,5.48-12.86,0-1.13-.07-2,1-2.48a2.13,2.13,0,0,1,2.32.3A3.44,3.44,0,0,0,114.8,107Z"/>
    <path class="cls-6" d="M104,101a20.58,20.58,0,0,1,3.29-3.23c-1.38-3.51.1-13.89-2.68-15.47.36,3.57.94,11,.57,13C104.81,97.44,104,100.07,104,101Z"/>
    <path class="cls-6" d="M120.47,101.39c-3.64-3.79-8.32-1.93-10.77-.57a2.84,2.84,0,0,0-1.72,3c2.66-3.11,5.43-3.7,7.31-3.62a8.83,8.83,0,0,1,6.3,3.17,4.52,4.52,0,0,0,.51-.81A4.32,4.32,0,0,1,120.47,101.39Z"/>
    <path class="cls-5" d="M138.69,122.76l.65-.59a1.09,1.09,0,0,0,.13-1.46c-.85-1.16-2.52-3.36-4.05-5.19l2.86,5.18a.4.4,0,0,1,0,.32.45.45,0,0,1-.21.24l-6.71,3.44,1.2,4.77a43.91,43.91,0,0,1,4.24-1.85.43.43,0,0,1,.43.09.41.41,0,0,1,.11.41c-1.34,4.33-.47,7.76.3,10.8.82,3.27,1.53,6.1-.74,9,0,0-.36.5-.36.5-.47,0-11.3.76-16.76.05l-.31,2c5.36.7,15.6.16,15.7.15.87,0-3.36,42.41-14.11,45.48-7.63,2.18-11.73,3.52-14.08,3.61v2.76c13.3,0,20.69-1.89,23.18-4.64,2-15.07,10.28-52.5,8.91-64.19,0-.22,1.17-.3,1.19-.07.47,5.1-1.2,22-3.82,38.27,2.2.85,6.4-28.18,6.59-31.57.65-11.53-1.14-10.65-4.56-15.91A1.28,1.28,0,0,1,138.69,122.76Z"/>
    <path class="cls-10" d="M128.2,108.5l-1.66-3c-.52.29-3.11,1.58-3.15,1.59a5.21,5.21,0,0,1,0,1.88C124.15,108.81,126.31,106.73,128.2,108.5Z"/>
    <path class="cls-5" d="M106.17,145.22l-8-3.52c-3.46,2.92-20.9,17.88-20.9,17.88s6.32,37.4,6.47,38.31c2.53,2.74,9.15,4.59,22.48,4.62v-2.74ZM84.79,190.3c-1.63-2.09-5.15-31.21-3-32.79,1-.76,2.09-1.56,3.18-2.39,3-2.27,5.82-4.56,8.42-6.69a20,20,0,0,1,6-2.71,3.73,3.73,0,0,1,3.63.8c1,.86,1.94,2,1.94,2.77v50.43C102.14,199.57,87.08,193.23,84.79,190.3Z"/>
    <path class="cls-11" d="M119.47,131.89c3.92-5.59,8.09-11.92,10.43-15.5a2.07,2.07,0,0,1,3.54.13l3.92,4.21-5.74-10.41h0l-2.6-1.22c-.57,4.65-3.82,11.24-9.68,19.61-4.18,6-8.73,11.46-11.6,14.8C107.72,143.5,116.94,135.51,119.47,131.89Z"/>
    <path class="cls-11" d="M83,112.54a70.18,70.18,0,0,0,2.67,8.18c.59-.42,1.18-.84,1.75-1.28,0,0,0,0,0,0a58.67,58.67,0,0,1-3.21-10.32l-2.62,1.22-.81,1.47.34-.16A1.36,1.36,0,0,1,83,112.54Z"/>
    <path class="cls-11" d="M77.2,111.38,65.78,114c0,.34-.11,1-.23,1.79Z"/>
    <path class="cls-11" d="M46.83,150.43c2-4.31,4.16-7.83,12-11.58h0c1.63-.78,3.33-1.57,5.07-2.38,5.53-2.58,11.5-5.36,17-8.63l.09,0a72.4,72.4,0,0,0,7.74-5.25,2.83,2.83,0,0,1,4,.57c4.8,6.54,11.25,10,11.62,9.68-1.7-.87-6.77-4.21-13.3-15.34A64.33,64.33,0,0,1,81,124.68l-.09.06c-5.52,3.27-11.49,6-17,8.62-1.74.81-3.44,1.61-5.07,2.39h0c-7.84,3.75-10,7.27-12,11.57a15.91,15.91,0,0,0-.35,5.2A10.34,10.34,0,0,1,46.83,150.43Z"/>
    <path class="cls-11" d="M146,115.69c.71.16,1.27-1.32,1.3-1.71l-14.52-3.33L134,113Z"/>
    <path class="cls-12" d="M119,20.17l-.07,0H119l-.18-.09c-4.92-3.22-21.16-10.11-34.45.66,0,0,5.75-4,17-3.8a28.13,28.13,0,0,0-19.26,8.88s5.62-5.14,17.72-6.56a28,28,0,0,0-17.9,10.58s10.42-11.53,36.24-9.11a32.36,32.36,0,0,0-6.84-1.62,71.92,71.92,0,0,1,7.5,1l.22.07"/>
    <path class="cls-12" d="M136.5,33.56c.63,1.45,1.26,3.07,1.94,4.94-1.27-13.44-8.9-16.15-8.9-16.15,1.12,1.37,2.09,2.62,3,3.9a9,9,0,0,0-3.07-2.19A40.14,40.14,0,0,1,134.18,31,9.31,9.31,0,0,0,130,27.13c3.08,3.74,4.7,6.45,6.85,12.42a22.58,22.58,0,0,0-1.1-5.3c.54,1.25,1.08,2.65,1.66,4.25a27.51,27.51,0,0,0-.9-4.94"/>
  </g>
</svg>
