<svg id="Layer_1" data-name="Layer 1" xmlns="http://www.w3.org/2000/svg" viewBox="0 0 210 210">
  <defs>
    <style>
      .cls-1 {
        fill: #13354c;
      }

      .cls-2 {
        fill: #f2f2f0;
      }

      .cls-3 {
        fill: #a1aeb4;
      }

      .cls-4 {
        fill: #fff;
      }

      .cls-5 {
        fill: #4092b5;
      }

      .cls-6 {
        fill: #1e5e82;
      }

      .cls-7 {
        fill: #347999;
      }

      .cls-8 {
        fill: #57c4ea;
      }

      .cls-9 {
        fill: #a2aeb5;
      }

      .cls-10 {
        fill: #d7dbdc;
      }

      .cls-11 {
        fill: #ced4d6;
      }

      .cls-12 {
        fill: #4b6577;
      }

      .cls-13 {
        fill: #68a9c5;
      }

      .cls-14 {
        fill: #7199b0;
      }
    </style>
  </defs>
  <title>5</title>
  <g>
    <path class="cls-1" d="M187.53,143.73h0c-10.64-9.06-27-24.38-30.62-27.75a8.4,8.4,0,0,0-2.78-4.16c-.17-.88-.43-2.36-.64-3.77.29-.68,2.06-6.73,3.42-10.36a54.57,54.57,0,0,0,4.51,6.55,29.51,29.51,0,0,0,4.79-15.51c0-8.78,8.07-10.12,5.56-37.15C169.2,23.86,145.7,6.21,135.27,7.81c-4.79-4.23-23.4-5.4-37.64.48-9.22,3.82-15.39,9.22-19.42,15.12C75,28.1,69.37,31.4,64,30c-4-1-7.21-5.25-5.55-8.91s5.63-5,8.56-3.16c-2.21-3.33-7.27-2.11-10.1,1.41C53.16,24,54.28,30.06,55.29,32.15c3.15,6.58,12,7.23,16.63,7.22C69.57,44.13,70.23,65.71,70.43,67a20.93,20.93,0,0,1-.22,9,66.28,66.28,0,0,0-1.07,18.26c.15,2.15,2,4.83,5.07,9,.89,1.22,2.31,3.18,2.79,4.06-.52,9.5.83,15.23,2.75,18.07,1.33,2-18.59,13.33-20.82,16.49s-3.68,7.55-4.59,10.8a56.46,56.46,0,0,0-5.59-1.64l-2.81-3.78h-7L36.2,151c-6.26,1-11.88,3.39-13.78,7.39a6.05,6.05,0,0,0-.32,4.49c-4.19,4.14-2.87,7.62-2.08,9a8.45,8.45,0,0,0,6.9,3.75,6.72,6.72,0,0,0,0,3.42c1,3.74,4.8,5.22,8.47,3.82s8.64-3.43,13.18-2.34c.9.32,6.23,2.2,10.28,3.36a21.6,21.6,0,0,0,5.84.66c1,0,2.73-.1,4.37-.21-.54,1.33-1.05,2.53-1.47,3.54-1.42,3.39-1.56,3.74-.95,4.88s29.91,7.05,41.39,9.08c25.87,4.59,42.25,6.1,50,4.61,1.09.73,6.63,2.66,8.6-.62,1-1.67,3.14-7.82,3.06-11.07.53-1.32,14.09-36.64,18.74-47.4a3.07,3.07,0,0,0-.83-3.57"/>
    <path class="cls-2" d="M84.77,124.73a41.75,41.75,0,0,0,9.3,0c-3.33-.11-10.42-.76-11.47-1.81-.79-.78-1.95-16.09-2-16.27-.23-1-1.74-3.09-3.48-5.5-1.92-2.65-4.31-6-4.4-7.2a62.83,62.83,0,0,1,1-17.18A24.06,24.06,0,0,0,74,66.5a28.35,28.35,0,0,1-.4-4.06c0-.68-.68-18.69,2.13-22.47.59-.79,6.13-4.32,7.14-4.86,14.22-7.54,22-8.66,37.64-5.86,4.2-6.48,11.7-16.11,11.7-16.11s-3.87,8.22-8.14,16.9c12.45,5.17,22.44,29.47,6.75,33,2,3.87,7.59,3.84,9.89.17,1.18,1.79.56,5.34-4.25,6.09,4.7,4.87,11.14-2.77,11.14-2.77s5.24-7.06,10.32-.58c4.56,5.82.74,20.61-4.78,23.26-1.49.66-5,1.21-7.63-3.46,1.28,6.06,6.06,5.18,8,4.42a28.11,28.11,0,0,0,1.2,3.24c-.17.46-3.75,9.67-4.14,12-.52,3.14-4.27,5.66-7.15,5.74-3.15.08-12.43,4.07-12.43,4.07-.19.13-19.18,13.91-32,13.91-9.72,0-13.11-2.91-14.21-4.38"/>
    <path class="cls-3" d="M147.47,89.54a5.92,5.92,0,0,1-1.93-3.1c-1.09,8.44-7.7,11.06-9.53,11.11-5.69.15-14.23,4.37-20.68,11.28-.41,4-12.5,10.63-21.65,12A10.53,10.53,0,0,1,92,121c-3.87,0-7.66-1.94-10.42-3.9.34,3,.7,5.54,1,5.85,1.05,1,8.14,1.69,11.47,1.8a41.75,41.75,0,0,1-9.3,0c1.1,1.47,4.49,4.38,14.21,4.38,12.82,0,31.81-13.78,32-13.91,0,0,9.28-4,12.43-4.07,2.88-.08,6.63-2.6,7.15-5.74.39-2.32,4-11.53,4.14-12a29,29,0,0,1-1.2-3.25c-1.35.53-4.07,1.11-6-.62"/>
    <path class="cls-2" d="M70.54,180.57c-3.08.26-7.73.65-10.72-.2-4.31-1.23-10.13-3.31-10.23-3.34-6.66-1.7-14.94,2.14-15.73,2.51-.46.12-2.94.61-3.48-1.46a4.47,4.47,0,0,1,1.27-3.83c2.8-3.32,9.75-6.41,16.51-5.83a.51.51,0,0,0,.56-.46.52.52,0,0,0-.47-.56A23.22,23.22,0,0,0,37.89,169c-.73.2-5.4,1.52-8.84,2.76-2,.74-5-.12-5.93-1.73-.82-1.4-.09-3.21,2.07-5.1,3.61-3.17,14.53-5.59,20.85-4.63a.52.52,0,0,0,.59-.43.52.52,0,0,0-.43-.59c-5.88-.89-15.22.94-20,3.7h0a2.64,2.64,0,0,1-.51-3c1.39-3,8.27-6,18.29-5.9,6.16.07,19,6,23.28,7.92.62.29,11.92,3.91,11.92,3.91-2,4.69-4.07,10-5.83,14.58a21.76,21.76,0,0,0-2.8.16"/>
    <path class="cls-1" d="M103,52c-5.87-.7-7.71,2.44-7.71,2.44s-3.16-.63-1.17-5.09,2-5.13,1.38-6.59a3.57,3.57,0,0,1,3,3.86c1.71-1.3-1.74-8.8,7.4-9.7-6.2,3.76-.78,9.53-.78,9.53a21.94,21.94,0,0,1,12.7,5.36,4.86,4.86,0,0,0,5.46.58c2.59-1.78,1.43-5-2.54-4.11,3.59-1.73,6.07,0,6.46,1.85A4.81,4.81,0,0,1,124.9,55c-3.6,2.46-7.36,1.16-9.32.38A53.25,53.25,0,0,0,103,52"/>
    <path class="cls-1" d="M110.21,81.3c6.34-1.68,11.62-6.22,10.69-12-.57-3.58-6.26-7-9.35-1.87,1.36-5.55,10.94-3.61,11.92,2.26,1.39,8.33-5.14,13-12,14.53-9.65,2.19-13.84.78-17.76,4-1,.81-2-2.9-.5-4,3.86-2.86,8.41-1.17,17-2.94"/>
    <path class="cls-1" d="M70,87.55c-5.35.13-10.66,2-11.55-3.78-.55-3.58,2.9-8.41,6.69-4.36-2.58-4.94-9.42-.44-8.56,5.45,1.22,8.35,7.53,6.19,13.27,5.8,8-.56,10.87-3.06,14.78-1,1,.51.72-3.31-.7-3.94C80.16,84,77.11,86.88,70,87.55"/>
    <path class="cls-1" d="M96.55,76.41a35.54,35.54,0,0,1,4.68,5.93c1,1.71,16.19,1.67,17.3,4,1.52,3.2-3.2,12.25-6.51,17.87,1.55-4.89,6.46-15.58,5.84-17.38s-16.69-2.8-17.27-3.87c-1.38-2.53-4-6.58-4-6.58"/>
    <path class="cls-1" d="M88.79,111.49s3.46,2.12,8.24-1.29c0,0-1.48,2.5-3.78,2.82a4.91,4.91,0,0,1-4.46-1.53"/>
    <path class="cls-1" d="M87.83,84c1.71-.16,7,.1,8.87-3.35,1.72-4-3.08-6.31-4.8-6,1.58-1,7.67,1,5.79,6.32-1.3,3.68-8.16,3.27-9.86,3"/>
    <path class="cls-1" d="M92.56,82s1.43-1.55-1.51-2.09-4.82.66-4.52,1.27,3.58,1.89,6,.82"/>
    <path class="cls-1" d="M146.78,71.56s2.92-5.37,7.09-3.24,2.43,8.73,2.43,8.73.63-6.41-3.06-7.45-6.46,2-6.46,2"/>
    <path class="cls-1" d="M79.69,44.87c-3.34,1.77-2.24,7.94-1.8,8-1-.09-3.34-2.58-3.34-2.58A19.7,19.7,0,0,0,76,54.11c-1.76,1.18-2.58,4.25-2.84,4.92a6,6,0,0,0,.25,3.46c.83-2.42,6-6.46,10.6-4.94,1.48-5.91-5-8-4.27-12.68m2.55,21.58a.75.75,0,0,1-.06.13.87.87,0,0,0,.06-.13"/>
    <path class="cls-1" d="M121.38,60.42c-1.66.44-3.3.91-4.95,1.36,0,0-3-.61-3.12-.66-2-.59-8.45-2.39-11.06-3.11a4.46,4.46,0,0,0-5.46,2.76,1.47,1.47,0,0,0,0,.24s1.95-3.42,5.41-2.51l9.13,2.38a37.19,37.19,0,0,0-4.71-.36c-4.38,0-7.67,1.64-9.37,3.66l.09.12A39.67,39.67,0,0,1,106.73,62a65.67,65.67,0,0,1,9.74.44s3.37-1.23,5-1.87Z"/>
    <path class="cls-1" d="M78.93,100.35c-1.81-4.56-5.66-6.58-4.57-10.18.72-2.36,5.29-1.83,7.11-1.44-1.35.17-5.48-.08-6.27,1.93-.66,2.34,2.35,4.25,3.73,9.69"/>
    <path class="cls-1" d="M78.37,93.35c-.13,4.06,3.45,6.16,5.17,8.43,1.56,2,.3,6.84,8.77,5.53s18.63-15.71,21.93-18.2c-11.16-1.53-22.48.64-23.8-.2a3.23,3.23,0,0,1-2,1.4c-.77.12-1.6-1-1.9-.92-3.28,2.46-6.15,1.77-8.16,4"/>
    <path class="cls-4" d="M90.42,93.26c-2.14-.77-2.71.67-4,.51s-4.65.51-5.27,1.43c-.42.62,1.3,4.62,4.23,4.17,1.91-.3,24.17-7.43,24.84-9-.86-.84-18.95,3.23-19.79,2.93"/>
    <path class="cls-4" d="M85.87,102.59a5.38,5.38,0,0,0,4.86,2.53c3.26-.24,11.72-4.55,11.72-4.55s-12.15,2.85-16.58,2"/>
    <path class="cls-1" d="M121.4,99.4s-8,18.84-20.89,24c9.51-8.48,12.49-11.46,20.89-24"/>
    <path class="cls-1" d="M117.06,115.63s-7.76,9.6-18,11c8-3.63,10.53-4.95,18-11"/>
    <path class="cls-1" d="M141.37,94.71a67.1,67.1,0,0,1-7.72,11,90.14,90.14,0,0,1-10,9s5.92-5.64,9.21-9.62,8.5-10.32,8.5-10.32"/>
    <path class="cls-1" d="M40,168.79a26.62,26.62,0,0,0-2.79-8.74,35.23,35.23,0,0,1,7.92-.42c2.36,1.92,2.36,5,2.36,8.24a66.4,66.4,0,0,0-7.49.92"/>
    <path class="cls-5" d="M151.69,114.32c.71,0,1.53,1.15,2,3.65,1.39,7.2-4.53,22.08-11.23,32.81-.12-3.12,1.82-11.55,1.82-11.55-17.76,5.34-28.1,15.33-29.44,29a47.92,47.92,0,0,1-5.77-.66c-3.72-.7-8-1.4-12.16-2.08,5.8-4.35,20.64-15.66,33.45-27h0c10.62-9.39,19.83-18.78,21.3-24.19"/>
    <path class="cls-2" d="M142.27,157.54c.76,4.44,1.41,8.3-1.21,12.21a139.83,139.83,0,0,0-16.6-1.11c-3-.09-5.93-.17-8.58-.33,1.28-13,10.37-22.19,27-27.44-2.35,6.74-1.45,12-.65,16.67"/>
    <path class="cls-2" d="M84.89,153.3l-2.91,4c-1.72-6.47-2.23-10.09-2.22-10.89l5-5c-.22,3-.61,9.88.11,11.84"/>
    <path class="cls-6" d="M85.61,154.06c1.51.85,4.84,1.29,5.94,1.42a69.07,69.07,0,0,1,1.57,9.4c-3.72-.62-7.1-1.21-9.49-1.74-.49-1.62-.92-3.12-1.3-4.51l3.28-4.57"/>
    <path class="cls-6" d="M99.47,145.48c-3.27,5.91-6.69,8.52-7.6,9-2.44-.26-5.39-.9-6-1.49-.44-.63-.53-6,0-12.65L95.32,131Z"/>
    <path class="cls-2" d="M96.19,130.28c.9,0,1.85-.15,2.89-.15,15.91,0,31.44-12.5,32.67-13.31.67-.29,8.84-4.19,11.68-4.26a9.66,9.66,0,0,0,6.6-3.31l.72,4.58c-.87,3.73-7.06,11.54-20.86,23.82v0c-11.34,6.49-25.28,11.32-28.08,12.26Z"/>
    <path class="cls-2" d="M92.55,155.27c1.22-.75,4.28-3.24,7.31-8.4l1.24,4.32a195.34,195.34,0,0,0,25.39-10.56c-8,6.92-18.21,15.11-31,24.64l-1.34-.22a70.66,70.66,0,0,0-1.62-9.78"/>
    <path class="cls-2" d="M85.75,127.39c1.66,1.34,4.41,2.65,8.83,2.87L80,144.79c.57-3.3,2.34-11.46,5.77-17.4"/>
    <path class="cls-7" d="M83.82,128.81a62.14,62.14,0,0,0-5.07,17.37c-.15,1.06.79,6.89,3.73,16.68-.54-.13-1-.27-1.37-.39a.51.51,0,0,0-.64.28c-.3.69-.6,1.4-.9,2.12l-4.08-1.27c-4.76-4.4-7-6.87-7.6-7.84l6.26-6.57c.11-.13-4.54-2.08-4.54-2.08a76.78,76.78,0,0,1,14.21-18.3"/>
    <path class="cls-7" d="M61.87,144c2.19-3.11,12.33-9.23,17.6-12.29a80.93,80.93,0,0,0-11.36,15.79c-.06.12,4.22,1.78,4.22,1.78s-5.6,6.43-5.53,6.61c.47,1.21,3.73,4.47,6.43,7,0,0-11.73-4.74-16.14-6.45.42-1.78,2.17-8.77,4.78-12.47"/>
    <path class="cls-5" d="M166,194.07a.46.46,0,0,0,0,.48c.38.91-1.47,9.7-3.65,9.7-1.57,0-3.67-1.75-3.85-1.69-14.24,4.32-81.06-10.41-88-12,1.12-3,6.53-17.3,10.69-27,2.8.84,9,1.85,15.5,2.92,4.15.68,8.44,1.38,12.16,2.08s9.52.9,15.54,1.08c9.11.27,19.43.58,22.58,3.12,4.83,3.89,4,6,4,6.05-.13.25,2.15-2.44-3.33-6.85a9.43,9.43,0,0,0-3.29-1.53c.32-1.66,1.88-8.23,8.34-19.67a.51.51,0,1,0-.89-.5c-6.48,11.47-8.09,18-8.45,19.91-.38-.1-.79-.18-1.2-.26,2.57-4.1,1.9-8.05,1.12-12.58-.26-1.55-.54-3.17-.7-4.9a.38.38,0,0,0,.11-.11c8.76-13.57,12.66-26.84,12.18-33.36,4.16,3.91,19.71,18.42,30,27.23-4.68,10.87-18.61,47.16-18.92,47.85"/>
    <path class="cls-1" d="M128.17,165.07a12.22,12.22,0,0,1-3.09-1.21l1.13-2.51a10.37,10.37,0,0,0,3.42,1.28c.94.12,1.46-.12,1.54-.7.19-1.42-5.63-.92-5.06-5.21.22-1.69,1.64-2.78,3.56-2.93l.44-3.31,2.8.37-.43,3.25a14.55,14.55,0,0,1,2.71,1.12l-1.14,2.51a8.41,8.41,0,0,0-3-1.18c-.88-.12-1.39.13-1.45.63-.18,1.34,5.65.79,5.06,5.21-.23,1.75-1.67,2.85-3.65,3l-.44,3.31-2.81-.38Z"/>
    <path class="cls-1" d="M42.62,165.22a4,4,0,0,1-2.37-.94l-.12-.09L35.3,153.5l3.64-4.89h7l3.64,4.89-.14.31c0,.1-4.33,9.77-4.66,10.33l0,.05a2.8,2.8,0,0,1-2.12,1"/>
    <path class="cls-8" d="M41.06,163.45a2.76,2.76,0,0,0,1.56.62,1.66,1.66,0,0,0,1.18-.55c.29-.56,2.44-5.33,4.45-9.87l-2.89-3.89H39.52l-2.89,3.89Z"/>
    <path class="cls-9" d="M100.51,31.47c13.37-2.14,24.16,1.28,30.33,8.14,3.81,4.23,6.48,10.11,8,13.91.43-8.58-6.65-20.1-14.78-23.48,4.27-8.68,8.14-16.9,8.14-16.9s-7.49,9.63-11.7,16.11c-15.62-2.8-23.42-1.68-37.64,5.86-1,.54-6.55,4.07-7.14,4.86a10,10,0,0,0-1.3,3.75c5.67-4.41,17.15-10.82,26.09-12.25"/>
    <path class="cls-9" d="M134,65.69a11.8,11.8,0,0,1-3.23,1.2,5.51,5.51,0,0,0,6.05,2.79,5,5,0,0,1-.41-.39c4.81-.75,5.42-4.3,4.25-6.09A5.88,5.88,0,0,1,134,65.69"/>
    <path class="cls-9" d="M139,70.79a7.58,7.58,0,0,1-2.54.83c4.7,4.87,11.14-5.1,11.14-5.1s-4.42,5.23-8.6,4.27"/>
    <path class="cls-10" d="M87.83,90.2c0-1,.66-2.29,0-3a10.18,10.18,0,0,0-2.32-2.09,32.22,32.22,0,0,1-7.88-5.26,3.07,3.07,0,0,1-.59-3,72.66,72.66,0,0,0,4.88-12h0c.65-1.92,1.57-6.42,1.73-7.32-4.18-1.17-8.82,2.17-10.07,4.55,0,.82.21,3.17.41,4.49.07.48.62,6.42-.28,10.3a54.06,54.06,0,0,0-1.14,10.39c5.34-1,8.07-3,11.35-1.52,1.42.63,1.69,4.45.7,3.94-2.72-1.4-4.92-.62-8.71.18a1.94,1.94,0,0,0-.71.87c-.66,2.34,2.35,4.25,3.73,9.69-1.81-4.56-5.66-6.58-4.57-10.18l0-.09c-.58.11-1.19.21-1.84.29,0,1.22.08,2.43.17,3.61s2.48,4.55,4.4,7.2c1.74,2.41,8.08,7.65,10,6-2.78-1-2.46-3.9-3.58-5.36-1.72-2.27-5.3-4.37-5.17-8.43,2-2.19,4.88-1.5,8.16-4,.22,0,.74.56,1.3.81"/>
    <path class="cls-10" d="M124.52,50.89a1.88,1.88,0,0,0-.22-1.83,6,6,0,0,0-3.56.64c2.08-.48,3.38.19,3.78,1.19"/>
    <path class="cls-10" d="M103,42.16a5.47,5.47,0,0,1,2.91-3.82,12.17,12.17,0,0,0-2.05.37,4.5,4.5,0,0,0-.86,3.45"/>
    <path class="cls-10" d="M95.85,44.27l-.37-.09a6.34,6.34,0,0,1,.29.78,3.57,3.57,0,0,0,.08-.69"/>
    <path class="cls-10" d="M124.9,55c-3.6,2.46-7.36,1.16-9.32.38A53.25,53.25,0,0,0,103,52c-5.87-.7-7.71,2.44-7.71,2.44a2.39,2.39,0,0,1-1.76-1.83c-.48,2.82,1.76,3.26,1.76,3.26s1.84-3.14,7.71-2.44a53.32,53.32,0,0,1,12.6,3.35c2,.77,5.72,2.08,9.32-.39a4.81,4.81,0,0,0,2.31-4.78A5.27,5.27,0,0,1,124.9,55"/>
    <path class="cls-10" d="M120.9,71.61s0,.09,0,.14a8,8,0,0,0,0-2.48,4.49,4.49,0,0,0-.64-1.68c-3.23-1.91-7.8-1.55-8.71,2.16,3.09-5.12,8.78-1.72,9.35,1.86"/>
    <path class="cls-10" d="M109.23,84.65c-8.11,1.53-12,.58-15.55,3.56-.42.34-.83-.12-1.06-.85a3.51,3.51,0,0,0-.13,1.74c1.09,0,2.54-.13,4.27-.23,3.28-1.07,7.44-.69,14.68-2.33a23.91,23.91,0,0,0,3.19-1c-1.55-.34-3.47-.64-5.4-.92"/>
    <path class="cls-10" d="M123.59,73c-.62,6.24-6.25,9.84-12.15,11.18l-.35.08a45.53,45.53,0,0,1,4.73.79c4.72-2.18,8.33-6.11,7.77-12"/>
    <path class="cls-1" d="M78.56,79.26s-.83-.57-.48-2.25a40.81,40.81,0,0,1,3.51-7.64c3-5.26,2.53-12.36,2.19-12.52-.13.32-.35,2.41-1.27,5.86a3.71,3.71,0,0,0-3.16-.6c-2.9,1.13-3.78,5.23-3.93,6l-1.91-.3,2,.57a9.59,9.59,0,0,1,5.09-2,1.66,1.66,0,0,1,.74.16A76.23,76.23,0,0,1,77,76.79a3.05,3.05,0,0,0,.59,3,32.41,32.41,0,0,0,7.88,5.26Zm2.11-14a5,5,0,0,0-2.13.54,10.31,10.31,0,0,0-1.75,1.09,17.58,17.58,0,0,0-1.33,1.28c.34-.92,2-5.17,4.29-5.56a9.39,9.39,0,0,1,2.76.17c-.22.81-.47,1.69-.77,2.65A3.58,3.58,0,0,0,80.67,65.22Z"/>
    <path class="cls-10" d="M97,110.2s-1.48,2.5-3.78,2.82a4.9,4.9,0,0,1-4.46-1.53c-.25,1.7,1.18,3.8,4.57,3.36,3.8-.51,3.67-4.65,3.67-4.65"/>
    <path class="cls-10" d="M153.24,69.6c-3.69-1-6.46,2-6.46,2s2.07-.85,5.76.19,3.76,5.3,3.76,5.3.63-6.41-3.06-7.45"/>
    <path class="cls-11" d="M89.94,134.87l4.64-4.61c-4.42-.22-7.17-1.53-8.83-2.87A34.37,34.37,0,0,0,84,130.93a26.82,26.82,0,0,0,6,3.94"/>
    <path class="cls-11" d="M84.89,153.3l-2.91,4c-1.72-6.47-2.23-10.09-2.22-10.89l5-5c-.22,3-.61,9.88.11,11.84"/>
    <path class="cls-11" d="M99.66,151.76l1.24,3.4s6.85-2.24,15.06-5.74q5.81-4.69,10.53-8.79a195.34,195.34,0,0,1-25.39,10.56l-1.24-4.32c-3,5.16-6.09,7.65-7.31,8.4.2.8.46,1.95.71,3.32a28,28,0,0,0,6.4-6.83"/>
    <path class="cls-11" d="M142.27,157.54c-.8-4.67-1.7-9.93.65-16.67-16.67,5.25-25.76,14.48-27,27.44.35,0,5.29-22.41,24.89-25.12a27.14,27.14,0,0,0-.25,15.4c1,3.76-.11,11,.54,11.16,2.62-3.91,2-7.77,1.21-12.21"/>
    <path class="cls-11" d="M49.59,177s1.55.55,3.58,1.23c-2.17-1.84-4.59-4.11-7.5-4.17-4.67-.1-8.59,2.69-12.7,4a5.09,5.09,0,0,1-2.54.19c.63,1.88,3,1.41,3.43,1.3.79-.37,9.07-4.21,15.73-2.51"/>
    <path class="cls-11" d="M73.34,180.41c1.76-4.54,3.87-9.89,5.83-14.58L76.72,165c-1.31,3.24-5.67,13.84-6.66,14.49-.77.5-4.85,1-8.45,1.19a46.28,46.28,0,0,0,8.93-.15,21.76,21.76,0,0,1,2.8-.16"/>
    <path class="cls-11" d="M39.45,165.78c-4.86,1.12-10.83,3.38-13.29,3a2.5,2.5,0,0,1-2.44-2.34c-1,1.31-1.19,2.53-.6,3.54.95,1.61,3.89,2.47,5.93,1.73,3.44-1.24,8.11-2.56,8.84-2.76s1.37-.5,2.09-.7a9.37,9.37,0,0,0-.53-2.48"/>
    <path class="cls-11" d="M26.2,162.94A34.94,34.94,0,0,1,38,159.37s-11.76-.57-12.27.53a2.64,2.64,0,0,0,.51,3h0"/>
    <path class="cls-7" d="M142.69,152.35a.38.38,0,0,1-.11.11c.16,1.72.44,3.35.7,4.9.78,4.53,1.45,8.48-1.12,12.58.41.08.82.16,1.2.26.36-1.89,2-8.44,8.45-19.91a.51.51,0,0,1,.31-.25l1.25-3.91c1.21-2.54-1.92-7.35-10.68,6.22"/>
    <path class="cls-7" d="M114.22,160.39c-4.11,4.11-6.53,4.48-14.75,3.18l-2.55,1.93c4.15.68,8.44,1.38,12.16,2.08a47.92,47.92,0,0,0,5.77.66,27.6,27.6,0,0,1,4.8-13.17c-2.38,2.19-4.31,4.2-5.43,5.32"/>
    <path class="cls-7" d="M166,194.55a.46.46,0,0,1,0-.48c.24-.53,8.54-22.13,14.48-37-8,10.95-13.24,28.77-14.51,31.73-1.54,3.59-4.24,12.46-7.07,12.2s-12.59,0-20.17-.64-59.11-10.79-60.91-12.2c-1.39-1.1-.29-12.09.27-17-3.36,8.35-6.69,17.15-7.54,19.41,6.93,1.55,73.75,16.28,88,12,.18-.06,2.28,1.69,3.85,1.69,2.18,0,4-8.79,3.65-9.7"/>
    <path class="cls-11" d="M150.43,111.78h0l-.4-2.53a10.65,10.65,0,0,1-6.6,3.31c-2.84.07-11,4-11.68,4.26-1.23.81-16.76,13.31-32.67,13.31-1,0-2,.14-2.89.15L97.83,136c8.31-.62,23.26-4.4,33.82-14.89,2.48-2.46,10.67-5.35,16-7.89a6.61,6.61,0,0,1-.3,2.4c-.47,1.2-11.46,14.29-18.43,22.52.32-.17.63-.35.94-.53l0,0c13.79-12.28,20-20.09,20.85-23.82Z"/>
    <path class="cls-10" d="M86.41,95.31c1.3.16,1.87-1.28,4-.51C91.07,95,102,92.67,107.33,92c1.65-.71,2.74-1.29,2.88-1.63-.86-.84-18.95,3.23-19.79,2.93-2.14-.77-2.71.67-4,.51s-4.65.51-5.27,1.43c-.13.19,0,.71.2,1.33.93-.81,3.79-1.38,5.07-1.22"/>
    <path class="cls-12" d="M147.23,27.18a59.58,59.58,0,0,1,9.51,21.65c3,13.23,2.88,14.1,2.88,14.1s5.68-23.73-12.39-35.75"/>
    <path class="cls-12" d="M151.76,26.21a49.82,49.82,0,0,1,7.91,18c2.47,11,2.39,11.45,2.39,11.45s4.73-19.46-10.3-29.47"/>
    <path class="cls-12" d="M157.06,28.61A30.93,30.93,0,0,1,162,39.83a71.54,71.54,0,0,1,1.5,7.3s2.94-12.29-6.42-18.52"/>
    <path class="cls-12" d="M120.8,19.35s-22.24-1.21-40.16,4.26c19.67-6.32,29.68-7.28,40.16-4.26"/>
    <path class="cls-12" d="M121.93,16.56s-19.42-1.06-35.08,3.72c17.19-5.52,25.93-6.36,35.08-3.72"/>
    <path class="cls-12" d="M125.23,13.28S109,12.39,95.82,16.4c14.41-4.63,21.73-5.33,29.41-3.12"/>
    <path class="cls-13" d="M153.7,118c-.48-2.5-1.3-3.65-2-3.65a14.77,14.77,0,0,1-1.93,4,7.25,7.25,0,0,1,1.23,3.2c1.19,6.2-3,18.08-8.49,28.11,0,.45,0,.86,0,1.2,6.7-10.73,12.62-25.61,11.23-32.81"/>
    <path class="cls-6" d="M85.61,154.06c1.51.85,4.84,1.29,5.94,1.42a69.07,69.07,0,0,1,1.57,9.4c-3.72-.62-7.1-1.21-9.49-1.74-.49-1.62-.92-3.12-1.3-4.51l3.28-4.57"/>
    <path class="cls-6" d="M99.47,145.48c-3.27,5.91-6.69,8.52-7.6,9-2.44-.26-5.39-.9-6-1.49-.44-.63-.53-6,0-12.65L95.32,131Z"/>
    <path class="cls-13" d="M181.88,146.84c-.06,1.1-1.1,7.47-1.41,10.22,1.78-4.47,3.36-8.33,4.44-10.83-9.82-8.39-24.35-21.91-29.34-26.57,0,.89-.08,2.19-.15,3.72,6.62,6.05,26.6,21.13,26.46,23.46"/>
    <path class="cls-13" d="M146.47,122.64a164.17,164.17,0,0,1-16.08,15.87h0l0,0c-11.22,9.91-24,19.82-30.9,25l1.57.24c7.19-5.54,17.42-13.65,26.62-21.78h0c7.94-7,15.08-14,18.8-19.38"/>
    <path class="cls-13" d="M78.75,146.18a62.14,62.14,0,0,1,5.07-17.37c-.67.61-1.32,1.24-1.95,1.88a63.42,63.42,0,0,0-4.62,16.39c-.14,1,.72,6.42,3.37,15.48a.51.51,0,0,1,.49-.09c.37.12.83.26,1.37.39-2.94-9.79-3.88-15.62-3.73-16.68"/>
    <path class="cls-14" d="M91,152.34a34.44,34.44,0,0,1-5.4-.75,4,4,0,0,0,.26,1.41c.62.59,3.57,1.23,6,1.49.91-.49,4.33-3.1,7.6-9l-.11-.37c-2.27,2.29-7.24,7.16-8.36,7.23"/>
    <path class="cls-14" d="M91.55,155.48c-1.1-.13-4.43-.57-5.94-1.42-.14.21-.31.44-.49.68,1.69.55,5.86,1.73,5.86,1.73s.87,4.82,1.31,8.27l.83.14a69.07,69.07,0,0,0-1.57-9.4"/>
    <polygon class="cls-4" points="35.99 166.88 41.03 155.69 30.78 148.94 41.97 153.97 48.73 143.73 43.69 154.92 53.94 161.68 42.75 156.64 35.99 166.88"/>
    <path class="cls-1" d="M61.82,74.37A3.91,3.91,0,0,1,60,73.92a4.52,4.52,0,0,1-2.4-5.18c1.14-4.36,8-3.75,12.46-3.35l1,.09-.69.76s-3.7,4.1-5.92,6.84a3.39,3.39,0,0,1-2.67,1.29"/>
    <path class="cls-8" d="M65.25,66.15c-3.36,0-6.06.6-6.65,2.85a3.5,3.5,0,0,0,1.87,4,2.52,2.52,0,0,0,3.22-.56c1.65-2,4.09-4.8,5.26-6.12-1.27-.1-2.52-.17-3.7-.17"/>
    <path class="cls-1" d="M127.69,71.21A3.38,3.38,0,0,1,125,69.92c-2.23-2.74-5.88-6.8-5.92-6.84l-.69-.76,1-.1c4.51-.4,11.32-1,12.46,3.36a4.52,4.52,0,0,1-2.4,5.18,4.07,4.07,0,0,1-1.81.45"/>
    <path class="cls-8" d="M120.55,63.16c1.18,1.32,3.61,4.08,5.27,6.12a2.51,2.51,0,0,0,3.21.56,3.48,3.48,0,0,0,1.87-4c-.79-3-5.42-3.07-10.35-2.68"/>
    <path class="cls-2" d="M62.51,67.38c.21.49-.27,1.16-1.08,1.51s-1.63.22-1.84-.28.28-1.16,1.08-1.5,1.63-.23,1.84.27"/>
    <path class="cls-2" d="M128.94,66.62c-.35.41-1.17.28-1.84-.28s-.93-1.36-.58-1.77,1.16-.28,1.83.29.93,1.35.59,1.76"/>
  </g>
</svg>
