<svg id="Layer_1" data-name="Layer 1" xmlns="http://www.w3.org/2000/svg" viewBox="0 0 210 210">
  <defs>
    <style>
      .cls-1, .cls-5 {
        fill: #13354c;
      }

      .cls-2 {
        fill: #f2f2f0;
      }

      .cls-15, .cls-3 {
        fill: #4092b5;
      }

      .cls-4 {
        fill: #fff;
      }

      .cls-15, .cls-16, .cls-5, .cls-9 {
        fill-rule: evenodd;
      }

      .cls-6 {
        fill: #ced4d6;
      }

      .cls-7 {
        fill: #1e5e82;
      }

      .cls-8 {
        fill: #d7dbdc;
      }

      .cls-10, .cls-9 {
        fill: #57c4ea;
      }

      .cls-11 {
        fill: #347999;
      }

      .cls-12 {
        fill: #a2aeb5;
      }

      .cls-13 {
        fill: #4b6577;
      }

      .cls-14 {
        fill: #68a9c5;
      }

      .cls-16 {
        fill: #ade2f5;
      }
    </style>
  </defs>
  <title>3</title>
  <g>
    <path class="cls-1" d="M177.7,171.63c-.33-3.25-7.31-15.51-13.15-22.22-5.44-6.25-7.46-18.39-7.46-18.39l-21.32-5.82-1.12-2.34c-.11-1-1.44-8.76,1.33-11.23,4.84-4.3,6.94-13.35,7.06-13.66a46,46,0,0,0,2.23-12.11c.3-.64,2.85-6.07,3.17-8.25a15.08,15.08,0,0,0,4.69-2l1-.59L164,84.93,180.5,68.35,173,60.88h-6.71L164,63.25l-2.36-2.37h-6.74l-2.64,2.64.15-1.48-2.26.77a50.49,50.49,0,0,1-.41-5.21c-.46-9.5-1.31-27.12-17.68-33.49-3.35-2.57-10.56-5.28-18.25-6.2a11,11,0,0,0-.39-6.95,11,11,0,0,0-13-6.26c-1.27.32-5,2.31-4.69,6,1.82-3.16,5.78-1.78,6.85-.3,2.37,3.25,1.23,5.86-1.16,7.88l-.41.08c-3.72.88-11.17,2.79-12.33,3.41C77.17,27.63,71.31,38.15,69.36,49.1l-9.52-9.51H50.62L46.91,43.3,43.2,39.59H33.93L23.72,49.8,46.92,73,69.09,50.75c-1.34,9.45.15,19,3.43,26.1a22.59,22.59,0,0,0,2.09,8.66,72.13,72.13,0,0,0,1.8,11.17A41.53,41.53,0,0,0,79.48,105a30.13,30.13,0,0,0,4.6,6.66A10.56,10.56,0,0,1,85.29,115a34.66,34.66,0,0,1,0,7.76L84,125.18l-18.14,4.95,3.54-3.56L60.81,118H53.09l-2.9,2.9L47.28,118H39.53L31,126.58l19.23,19.23,11.88-11.9c-.65,3-2.64,10.55-7,15.5-5.84,6.71-12.82,19-13.14,22.22,0,.15-1.15,13.68-.17,18.48-1.33,3.51.33,5.4,1.15,6.08a5.4,5.4,0,0,0,6.29.23c.07,0,16.37-3.87,16.37-3.87a26.07,26.07,0,0,0,7.32-7.29,16.83,16.83,0,0,1,1.74,0c1.11,4.29,3.51,13.26,3.51,13.26,4.91,5.74,25.44,6.19,31.62,6.19s26.7-.45,31.62-6.19c0,0,2.36-9.25,3.3-13.24.43,0,1.78-.07,2,0a26.13,26.13,0,0,0,7.32,7.31s6.6,1.41,15.6,3.66c2.59,1.27,5,1.5,6,1.06,1.93-.81,3.44-3.08,2.16-7.08,1-4.72-.14-18.41-.15-18.56"/>
    <path class="cls-2" d="M87.62,112.45c1.17,1.49,6.76,6.2,8.13,5.9-7.84-6-12.76-13.16-13.51-14.73a40.9,40.9,0,0,1-2.71-7.75,47.16,47.16,0,0,1-1.31-6.06,54,54,0,0,1-.06-10.23c.16-2.76.44-13.18.32-15.58.14-3.56.38-11.07,2.17-14.3,3-5,10.61-9.61,18.28-9.61,9.86,0,20.63,3.18,31.23-.29.18-2.51.38-9.86.38-9.86l2,10.75s7.68,3.79,9.13,21.9l-.4,8.67s.86,8.7.87,13c0,3.3-.22,8.64-4.2,18.62a22.83,22.83,0,0,1-3.27,5.55,62.38,62.38,0,0,1-9.56,8.75,34.4,34.4,0,0,0,7.09-4.89c-1.59,3.06-.52,10.1-.42,11C129.35,125.41,117,130,110,130s-19.37-4.57-21.79-6.65a38.62,38.62,0,0,0,0-8.74,12.41,12.41,0,0,0-.56-2.14"/>
    <path class="cls-3" d="M77,183a29.07,29.07,0,0,0,6.27-1.68c3.44-1.27,17.18,0,19.44.82a16.68,16.68,0,0,1,2.84,1.46,7.44,7.44,0,0,0,3,1.34,2.17,2.17,0,0,0,.91-.54v17.45c-14.71,0-26.35-2.08-29.1-5.13C80.13,195.31,78,186.48,77,183"/>
    <path class="cls-3" d="M139.2,196.73c-2.75,3-14.33,5.09-29,5.13V184.34a2.17,2.17,0,0,0,1,.61,7.41,7.41,0,0,0,3-1.34,15.91,15.91,0,0,1,2.83-1.46c2.27-.79,16-2.09,19.45-.82a30.36,30.36,0,0,0,5.87,1.63c-.64,2.56-2.89,12.49-3.14,13.77"/>
    <path class="cls-1" d="M106.29,111.21a5.4,5.4,0,0,0,3.51,1.37,5.87,5.87,0,0,0,3.51-1.37c-4.42,1.06-7,0-7,0"/>
    <path class="cls-1" d="M120,96.06c-.31,0-6.49.56-7.15.56a5.73,5.73,0,0,1-1.63-.46s-.51,1-1.23,1-1.25-1-1.25-1a5.73,5.73,0,0,1-1.63.46c-.65,0-6.83-.56-7.14-.56-2.93,0-10,.52-10,.52a36.31,36.31,0,0,1,2.8,3.18c1.56,2.26,3.71,5.37,6.25,6.48a33.22,33.22,0,0,0,11,2.58,33.21,33.21,0,0,0,11-2.58c2.54-1.11,4.68-4.21,6.25-6.48a34.67,34.67,0,0,1,2.8-3.18s-7.06-.52-10-.52"/>
    <path class="cls-4" d="M126.36,99.22c-1.5,2.17-3.56,5.15-5.85,6.15a32.5,32.5,0,0,1-10.58,2.51,32.45,32.45,0,0,1-10.57-2.51c-2.3-1-4.35-4-5.85-6.15-.47-.68-.88-1.27-1.25-1.74,2.89,0,6.51.63,8.51.7a89,89,0,0,1,9.16,1.13,89.29,89.29,0,0,1,9.17-1.13c2-.07,5.61-.71,8.51-.7-.37.47-.78,1.06-1.25,1.74"/>
    <path class="cls-5" d="M186.64,106.05a10.49,10.49,0,0,1-1.64-.53c-.35-2.1-1-6.22.12-7.25-5.48-1.5-10.91-6-18.71-3.87a7.55,7.55,0,0,0-1.77.72c.34-3.16-1.93-6.39-4.7-6.5.06.78.71.6,1.12,1,2,2.12.94,7-.67,8A4.63,4.63,0,0,0,158.16,94c-1.26-.8-3.39-1.52-4.73-.46.66.47,1.37.22,1.94.46,2.51,1.07,3.16,5.44,1.7,7.6-.14.16-.27.32-.4.49a2.37,2.37,0,0,1-.63.46,3.4,3.4,0,0,1-2.61.39c-8-2.47-23.86-6.21-40.12-.64,19.53-1.3,33.89-.58,40.87,5.77a4.05,4.05,0,0,1-2.85,2.39c-.83.26-2.12.07-2.64.81.48.52,1.37.07,2.17,0,1.46-.12,4,0,4.67-.73l0,.22c-.07,2.35-1.87,3.83-1.61,6.55s-.19,4.87-2.17,6.08c-.73.45-1.74.53-2.54,1.31.51.39,1.73.21,2.39.07,4.24-.92,4.28-3.65,4.57-7a9.14,9.14,0,0,0,2.69,3.6,19.47,19.47,0,0,0,4.31,3c1.7.75,3.69.84,5.42,1.45s5.2,2.63,6.82,3.14c1.26-.71,0-2,.05-3s0-3.07,1.56-4.33a7.31,7.31,0,0,0,3.58.54c1-2.39,1-3.1,3.64-5.35,2.18-1.83,2.56-4.37.82-6.44-.35-2.16,1.59-4.31,1.55-4.4"/>
    <path class="cls-5" d="M75.7,108.46c.06-.23.64-.26.39-.62a2.5,2.5,0,0,0-.69-.8c.15-.22.53-.36.34-.71s-.86-.59-1.24-.92a286.77,286.77,0,0,1,31.79-3.09C100.09,100,94.56,100.64,88,101c-4,.24-7.48.91-11.86,1.52-.23,0-1.51.23-3.46.55A7.17,7.17,0,0,0,75,97.59c-.08-.22-.65,0-.71-.21a13.55,13.55,0,0,0-.08-2.74c-.3-.36-.76.33-.91.09a23.57,23.57,0,0,0-.39-2.33c-.47-.11-.34.4-.81.29-.28-.9-.51-1.85-.79-2.75-.37-.39-.56.39-.81.1-.36-.83-.69-1.68-1-2.55-.43-.12-.45.16-.71.2a9,9,0,0,1-.9-2.34c-.31-.36-.54.31-.81,0-.36-.68-.52-1.57-.89-2.24-.36-.09-.4.15-.72.09-.31-.83-.9-1.39-1.2-2.24-1.18.21-.87-1.61-2-1.74A9.11,9.11,0,0,0,63,81.75c0,.29-.48.12-.41.51.4.91,1.13,1.5,1.4,2.55a.37.37,0,0,0-.61.3c.08.62.58.83.59,1.52,0,.44-.56.25-.51.71a14.53,14.53,0,0,1,1.3,2.55c-.36-.06-.45.16-.61.3a20.56,20.56,0,0,0,1.2,2.65c-.08.23-.39.22-.42.51.48.7,1.32,1.05,1.51,2-.18.19-.67.07-.61.5a9.82,9.82,0,0,0,1.4,2c0,.29-.53.15-.41.61a15.63,15.63,0,0,0,1.51,2.15c.07.41-.49.18-.41.6.33.67,1.94,1.22,1.8,2.25a0,0,0,0,1,0,0c-9.69,1.59-27.4,4.68-32.37,6.64-2,1.76-1.18,3.37-1.18,3.37A252.08,252.08,0,0,1,70.47,106a9.34,9.34,0,0,0-1.21,1c-.12.32.22.45.33.74-.25.68-1.06,1.14-1,1.91.21.25.61,0,.85.18a5.62,5.62,0,0,0-.63,2.06c.16.31.57,0,.76.22-.18.59-.68,1.07-.67,1.74.1.36.41.15.53.43a5.74,5.74,0,0,1-1.09,2c1.14,1-.24,2.11-1.3,2.8a1.75,1.75,0,0,0,.43.7,10.81,10.81,0,0,1-2.38,2.4c.56.54,0,.79.27,1.1,1.07,0,2-1.3,2.94-1.87.12.36.32.51.62.39.36-.58.71-1.16,1.12-1.72.23,0,.33.34.63.16.44-.47.62-1.05,1.11-1.5.25.09.34.58.71.35.44-.68.29-1.58.78-2.24.43-.24.57.26,1.05-.13.26-.73.12-1.6.42-2.3.22,0,.5.12.6-.16.31-.78-.23-1.88.83-2.37a8.3,8.3,0,0,0-.34-1.75,2.36,2.36,0,0,0,.66-.51,4.9,4.9,0,0,0-.76-1.22"/>
    <path class="cls-1" d="M113.26,198.61a2.28,2.28,0,1,1,2.28-2.28,2.28,2.28,0,0,1-2.28,2.28"/>
    <path class="cls-1" d="M125.38,89.19c4.63-.49,8.82-3.09,8.81-7.26,0-2.58-3.63-5.58-6.36-2.33,1.56-3.74,8.06-1.34,8.11,2.88.07,6-5,8.52-10,8.87-7,.49-9.79-1-12.89.88-.78.47-1.06-2.24.08-2.84,3-1.57,6,.11,12.26-.2"/>
    <path class="cls-1" d="M94.71,89.19c-4.62-.49-8.82-3.09-8.8-7.26,0-2.58,3.62-5.58,6.35-2.33-1.56-3.74-8.06-1.34-8.11,2.88-.06,6,5,8.52,10,8.87,7,.49,9.78-1,12.88.88.78.47,1.06-2.24-.08-2.84-3-1.57-6,.11-12.26-.2"/>
    <path class="cls-1" d="M119.13,83.93a8,8,0,0,1,3.77,4.2c.69,1.68,4,1.35,5,1.27s5.6-1,6.84-.58c2.62.87,1.92,3.85.44,6.69-.87,1.67-2.34,5.25-4.53,10.45.28-2.64,1.42-5.71,2.94-9.48,1-2.56,2.83-5.75.77-6.4-1.36-.42-3.75.13-6.39.55-3.45.55-5.34-1-5.71-2a15.08,15.08,0,0,0-3.11-4.69"/>
    <path class="cls-1" d="M105.66,87.94a29.78,29.78,0,0,0,4.6,1.65c1.09,0,4.52-1.65,4.52-1.65a9.59,9.59,0,0,1-1.23,1c-.39.29-2.68,1.65-3.37,1.47a12.67,12.67,0,0,1-4.52-2.52"/>
    <path class="cls-1" d="M102.81,86.22c-1.87-1.12.16-5.67,1.26-7.26-1.51,1.74-4.15,5.11-1.72,7.61.58.61,1.23.55,3.31,1.37l-2.85-1.72"/>
    <path class="cls-1" d="M117.64,86.22c1.87-1.12-.17-5.67-1.27-7.26,1.52,1.74,4.15,5.11,1.72,7.61-.58.61-1.22.55-3.31,1.37l2.86-1.72"/>
    <path class="cls-1" d="M101.33,84.12s-1.2.9-2.47,4c-.68,1.68-4,1.35-5,1.27s-5.6-1-6.84-.58c-2.62.87.89,9.88,3.07,15.08-.27-2.64-4.76-13.17-2.69-13.82,1.36-.42,3.74.13,6.39.55,3.44.55,5.34-1,5.71-2,.88-2.46,1.8-4.5,1.8-4.5"/>
    <path class="cls-1" d="M104.34,66.09c-3.58-2.37-4-5.25-3.47-9.3-2.47,1.73-3.1,3.42-3.31,4.8a19.17,19.17,0,0,1-3.4-4.8A4.69,4.69,0,0,0,92.93,60c-5.26-3.89-14.82-1.58-11.7,5.38-.86-4.75,6-4.47,9.59-3,5.64,2.34,11.44,5.6,13.52,3.65"/>
    <path class="cls-1" d="M115.9,66.09c3.58-2.37,3.95-5.25,3.47-9.3,2.47,1.73,3.1,3.42,3.31,4.8a19.17,19.17,0,0,0,3.4-4.8A4.69,4.69,0,0,1,127.31,60c5.26-3.89,14.82-1.58,11.7,5.38.86-4.75-6-4.47-9.59-3C123.78,64.78,118,68,115.9,66.09"/>
    <path class="cls-1" d="M121.8,66.08c.86.78,7.42-3.56,14.35-.46-7.37-4.81-11.36.47-14.35.46"/>
    <path class="cls-1" d="M104.82,68.36a5.16,5.16,0,0,1,.19.78,12.44,12.44,0,0,1,.21,1.72,12,12,0,0,1,0,1.73,5.53,5.53,0,0,1-.12.79,6,6,0,0,1-.2-.77,13,13,0,0,1-.2-1.72,13.87,13.87,0,0,1,0-1.74,5.53,5.53,0,0,1,.12-.79"/>
    <path class="cls-2" d="M133.64,127.35c-.08.23-.28.77-.6,1.51a5.83,5.83,0,0,0-1.64-1.07,4.9,4.9,0,0,0-4.5.46c-.67.53-1.4,1.59-1.12,3.63a13.55,13.55,0,0,0,1.94,5.13,22.69,22.69,0,0,1-7,5.21,14.39,14.39,0,0,0-2.15.54,81.89,81.89,0,0,0-8-12c6.85-.25,18.42-4.31,21.46-6.67Z"/>
    <path class="cls-6" d="M86.72,145.65c1.39-2.41,2.58-4.27,3.56-5.8.51-.79,1-1.5,1.37-2.17a23.83,23.83,0,0,0,5.5,4.37,9.36,9.36,0,0,0-2.79.39,52.89,52.89,0,0,0-7.64,3.21"/>
    <path class="cls-7" d="M102.41,142.74a74.71,74.71,0,0,1,7.42-11.13,74.57,74.57,0,0,1,7.44,11.16,16.39,16.39,0,0,0-3.54,1.84c-2.11,1.43-3.53,3.13-3.85,4.55-.32-1.42-1.74-3.12-3.85-4.55a16.43,16.43,0,0,0-3.62-1.87"/>
    <path class="cls-6" d="M125.4,142.44a9,9,0,0,0-2.88-.39,23.93,23.93,0,0,0,5.55-4.44c.42.69.89,1.42,1.41,2.24,1,1.53,2.18,3.39,3.57,5.8a53.51,53.51,0,0,0-7.65-3.21"/>
    <path class="cls-8" d="M145.59,75.65c0,.23.08.47.12.74.19,1.57-.93,3.85-2.12,6.26q-.24.48-.48,1c0-2.86-.18-5.69-.37-8.53a11.16,11.16,0,0,0,2.85.54"/>
    <path class="cls-8" d="M76.87,79.51c-.05,1.17-.09,2.33-.12,3.5-1-2.82-1.49-5.09-1.3-6.63.33-2.62,1.19-3.74,1.86-3.93Q77,76,76.87,79.51"/>
    <path class="cls-2" d="M87.89,124c3,2.32,14.29,6.32,21.18,6.66a82.59,82.59,0,0,0-8,12,14.21,14.21,0,0,0-2.23-.54A22.84,22.84,0,0,1,92,137.08a13.49,13.49,0,0,0,2-5.2,3.67,3.67,0,0,0-1.11-3.63,4.9,4.9,0,0,0-4.5-.46,6.36,6.36,0,0,0-1.71,1.13c-.34-.75-.55-1.32-.63-1.56Z"/>
    <path class="cls-3" d="M70.83,132.65a2.52,2.52,0,0,0-2.1.37c-1.29,1-2,3.47-2.46,8.92a25.63,25.63,0,0,0,.4,5.79,32.28,32.28,0,0,1,.44,4.88c-.06,2.49-2.36,10.83-3,11.54a37.58,37.58,0,0,0-17,6.14s13.08-5,15.74-5.33c-1.62,1.65-2.72,5.28-3,8.7a20.57,20.57,0,0,0,0,3.68,28.07,28.07,0,0,0,3.7,12.89c-1.39.24-5.77,1.08-14.51,3.27a8.87,8.87,0,0,0-1.4.54c-.93.41-4.86.7-2.94-4-1.11-3-.27-14.82.06-18.13.2-2,6.29-13.56,12.45-20.63,5.58-6.4,7.56-16.41,7.84-18l20.35-5.56c.12.33.34.91.68,1.66-2.65,2.5-6.5,7.6-10.9,14.51-.46-4.35-1.2-10.61-4.4-11.25"/>
    <path class="cls-3" d="M174.64,194.62c-.75.33-3.62-1-4.07-1.12-8.74-2.19-13.12-3-14.5-3.27,4-7.18,3.68-15.59,3.6-16.54-.29-3.42-1.24-7.06-2.8-8.72,4.44-.12,15.65,5.32,15.65,5.32a37.66,37.66,0,0,0-16.83-6.13h0c-.65-.7-2.95-9.05-3-11.54a29.89,29.89,0,0,1,.44-4.88,26.84,26.84,0,0,0,.4-5.79C153,136.49,152.32,134,151,133a2.54,2.54,0,0,0-2.11-.37c-3.2.64-3.93,6.9-4.39,11.25-4.45-7-8.32-12.1-11-14.57.32-.72.54-1.28.65-1.6l20.35,5.56c.29,1.59,2.27,11.6,7.84,18,6.16,7.07,12.26,18.62,12.46,20.63.33,3.31,1,16.78.06,18.12,0,0,1.38,3.85-.28,4.58"/>
    <path class="cls-1" d="M121.58,117.44h-7c-2.34,0-4.69,0-7,.15-1.17,0-8,1.15-9.51-.37A6,6,0,0,1,97,114.46a14.75,14.75,0,0,0-.31-1.74,10.14,10.14,0,0,1,.56,1.69c.56,2.47,2.18,2.87,3.29,2.87s9.91-.8,14.07-.54c2.35.14,4.7.34,7,.7"/>
    <path class="cls-1" d="M132.41,71.17c-.4-.42-2-5.56-5.76-5.56a4.56,4.56,0,0,0-1.45.25c-5.19,1.69-9.13,6.88-9.13,6.88a41,41,0,0,0,6.07.61c2.69,0,11-1.72,12.2-2.12-.44,0-1.56,0-1.93-.06"/>
    <path class="cls-4" d="M120.31,69.41a3.09,3.09,0,0,0-.54,1.74,2.75,2.75,0,0,0,.38,1.45c-1.06-.08-2.09-.22-2.83-.33a25.84,25.84,0,0,1,3-2.86"/>
    <path class="cls-4" d="M126.18,72.23a3,3,0,0,0,.21-1.08A3.24,3.24,0,0,0,123.08,68a3.59,3.59,0,0,0-1,.17,14.88,14.88,0,0,1,3.37-1.66,3.94,3.94,0,0,1,1.24-.21c2.61,0,4.15,3.18,4.81,4.53.08.16.14.29.2.4-1.57.33-3.62.73-5.48,1"/>
    <path class="cls-1" d="M93.75,65.86a4.55,4.55,0,0,0-1.44-.25c-3.72,0-5.37,5.14-5.77,5.56-.37,0-1.48.06-1.92.06,1.15.4,9.5,2.12,12.2,2.12a41.19,41.19,0,0,0,6.07-.61S99,67.55,93.75,65.86"/>
    <path class="cls-4" d="M101.63,72.27c-.74.11-1.76.25-2.83.33a2.78,2.78,0,0,0,.39-1.45,3.09,3.09,0,0,0-.54-1.74,26.45,26.45,0,0,1,3,2.86"/>
    <path class="cls-4" d="M87.49,70.8c.66-1.35,2.2-4.53,4.82-4.53a4,4,0,0,1,1.24.21,14.81,14.81,0,0,1,3.36,1.66,3.53,3.53,0,0,0-1-.17,3.25,3.25,0,0,0-3.32,3.18,3,3,0,0,0,.21,1.08c-1.86-.3-3.9-.7-5.47-1,.06-.11.12-.24.19-.4"/>
    <path class="cls-1" d="M98.25,66.08c-.87.78-7.43-3.56-14.36-.46,7.37-4.81,11.37.47,14.36.46"/>
    <path class="cls-9" d="M156.56,108.68c.66,6.26,5,8.58,9.13,9.86,3.54,1.1,8.38.12,11.53,1.49.77.33,1.3,1.26,2.24,1.08-.19-2.22-1.81-3.72-3.25-4.75s-3.37-2.15-5.43-1.56c0,.36-.2.59,0,1.08.26.69,1.11-.24,1.36.39a1.29,1.29,0,0,1-2.36,0c-.74-1.87,1.44-2.77,3.07-2.51,2.37.39,6.5,3.52,10,2.32,2.5-.88,2.33-4.11.69-6a47.5,47.5,0,0,1-13.82-1.7c-1.53-.48-3.09-.76-4.2-1.24-1.59-.71-3.53-3.35-2.16-5.28,1.52-2.14,5.82-.14,3.42,1.72.56-1.07-.73-2.36-2.29-1.39-.72,1.46.27,2.69,1.28,3.4,1.3.91,3.74,1.49,6.05,2,3.89.82,9.27,1.24,13.33-.89.06,0,.12,0,.09-.12-3.68-.81-5.71-3.51-8.67-5.66-3.12-2.27-7.46-4.11-12.64-2.24a20.64,20.64,0,0,0-5.18,3.22c-1.85,1.53-2.43,4.15-2.15,6.83"/>
    <path class="cls-9" d="M183.21,103.37c-.24-1.61-.92-3.38.24-4.44-5.13-1.34-9.35-5.45-16.61-3.43a11.93,11.93,0,0,0-3.64,2.29c4.16-.74,7.45-.82,10.39,0,3.8,1,6.34,3.86,9.62,5.59"/>
    <path class="cls-2" d="M158.94,173.75c-.39-4.66-1.87-8.41-3.53-8.92-1.17-.37-3.44-10.44-3.48-12.2a31,31,0,0,1,.45-5,26.2,26.2,0,0,0,.4-5.62c-.46-5.09-1.11-7.6-2.18-8.41a1.8,1.8,0,0,0-1.53-.24c-2.75.55-3.44,7.07-3.85,11l-1.08,8.27a.37.37,0,0,1-.36.32h-.05a.35.35,0,0,1-.31-.4l1-7.44c-7.07-11.21-11.49-15.92-13.27-16.59a4.16,4.16,0,0,0-3.79.35,3,3,0,0,0-.85,3c.37,2.65,1.52,4.43,3.59,7.68,1,1.62,3.89,6.3,3.91,6.33a11.49,11.49,0,0,1,1.66,6.79.37.37,0,0,1-.37.33h0a.37.37,0,0,1-.33-.4,11.47,11.47,0,0,0-1.15-5.7,88.85,88.85,0,0,0-8.59-3.68c-3.59-1.12-7.89.53-10.71,2.45-2.3,1.58-3.86,3.49-4,4.87a2.33,2.33,0,0,0,2,2.65c2.19.21,9.61-1.77,10.69-2.68.24-.19.33-.13,1.29.47a34,34,0,0,0,5.52,3c.8.31,2.43,3.62,2.82,5.2,1,4-1,9.24-6.77,11.44-.41.15-1.21.32-2.32.57-3.09.68-8.27,1.81-11,3.87-3.25,2.49-4,6.11-1.82,9.24.4.27,1.75-.54,2.84-1.19a17.77,17.77,0,0,1,3-1.52c2.37-.83,16.28-2.17,19.94-.82,2.79,1,6.35,2.15,9,1.6,0,0,3.26.54,3.54.62,1.8.57,3.84,1.2,7.83-.81,1.44-.73,2.17-4.06,1.81-8.3m-14.06,6.38a.37.37,0,0,1-.28.14.34.34,0,0,1-.23-.08c-6.1-4.79-3-13.88-3-14a.35.35,0,0,1,.46-.22.36.36,0,0,1,.22.46c0,.09-3,8.69,2.74,13.16a.36.36,0,0,1,.06.51"/>
    <path class="cls-2" d="M62.64,182.05c4,2,6,1.37,7.83.81.28-.08,3.51-.62,3.54-.62,2.69.55,6.25-.57,9-1.6,3.65-1.35,17.56,0,19.93.82a17.77,17.77,0,0,1,3,1.52c1.09.65,2.44,1.46,2.84,1.19,2.15-3.13,1.43-6.75-1.82-9.24-2.7-2.06-7.88-3.19-11-3.87-1.11-.25-1.91-.42-2.31-.57-5.76-2.2-7.77-7.42-6.77-11.44.39-1.58,2-4.89,2.81-5.2a34.14,34.14,0,0,0,5.53-3c1-.6,1-.66,1.28-.47,1.09.91,8.5,2.89,10.69,2.68a2.33,2.33,0,0,0,2-2.65c-.1-1.38-1.66-3.29-4-4.87-2.82-1.92-7.11-3.57-10.7-2.45a89.41,89.41,0,0,0-8.6,3.68,11.47,11.47,0,0,0-1.15,5.7.37.37,0,0,1-.33.4h0a.35.35,0,0,1-.36-.33,11.45,11.45,0,0,1,1.65-6.79s2.87-4.71,3.91-6.33c2.08-3.25,3.22-5,3.59-7.68a3,3,0,0,0-.85-3,4.16,4.16,0,0,0-3.79-.35c-1.78.66-6.19,5.38-13.27,16.59l1,7.44a.36.36,0,0,1-.31.4h0a.36.36,0,0,1-.36-.32l-1.09-8.27c-.41-3.89-1.09-10.41-3.85-11a1.81,1.81,0,0,0-1.53.24c-1.07.81-1.72,3.32-2.17,8.41a25.57,25.57,0,0,0,.4,5.62,32.21,32.21,0,0,1,.44,5c0,1.76-2.31,11.83-3.48,12.2-1.66.51-3.14,4.26-3.53,8.92-.36,4.24.37,7.57,1.81,8.3M75,179.62c5.69-4.47,2.77-13.07,2.74-13.16a.36.36,0,0,1,.22-.46.37.37,0,0,1,.47.22c0,.09,3.12,9.18-3,14a.33.33,0,0,1-.22.08.37.37,0,0,1-.29-.14.36.36,0,0,1,.06-.51"/>
    <polygon class="cls-1" points="121.05 152.39 113.76 152.39 109.84 156.32 105.92 152.39 98.59 152.39 90.63 160.35 109.84 179.56 129 160.35 121.05 152.39"/>
    <polygon class="cls-10" points="127.61 159.99 120.49 159.99 114.55 153.12 120.74 153.12 127.61 159.99"/>
    <polygon class="cls-10" points="98.95 160.72 108.34 177.03 92.03 160.72 98.95 160.72"/>
    <polygon class="cls-10" points="109.44 177.45 99.81 160.72 109.44 160.72 109.44 177.45"/>
    <polygon class="cls-10" points="110.25 160.72 119.67 160.72 110.25 177.09 110.25 160.72"/>
    <polygon class="cls-10" points="120.53 160.72 127.61 160.72 110.86 177.51 120.53 160.72"/>
    <polygon class="cls-10" points="113.8 153.39 119.5 159.99 110.25 159.99 110.25 156.94 113.8 153.39"/>
    <polygon class="cls-10" points="109.44 156.94 109.44 159.99 99.97 159.99 105.75 153.26 109.44 156.94"/>
    <polygon class="cls-10" points="98.89 153.12 104.89 153.12 98.99 159.99 92.03 159.99 98.89 153.12"/>
    <path class="cls-2" d="M113.26,194.73a1.61,1.61,0,1,0,1.61,1.6,1.6,1.6,0,0,0-1.61-1.6"/>
    <path class="cls-4" d="M125.08,72.2a25.28,25.28,0,0,1-3.58.32h-.22a1.76,1.76,0,0,1-.41-1.19,2.21,2.21,0,0,1,4.42,0,1.9,1.9,0,0,1-.21.88"/>
    <path class="cls-1" d="M123.94,71.29a1,1,0,0,1-1.93,0,1,1,0,0,1,1.93,0"/>
    <path class="cls-4" d="M93.67,71.32a2.21,2.21,0,0,1,4.41,0,1.75,1.75,0,0,1-.4,1.19h-.23a25.08,25.08,0,0,1-3.58-.31,2,2,0,0,1-.2-.88"/>
    <path class="cls-1" d="M95,71.29a.9.9,0,0,0,1,.79.81.81,0,1,0,0-1.59.9.9,0,0,0-1,.8"/>
    <polygon class="cls-10" points="177.39 68.08 172.01 68.08 167.52 62.89 172.2 62.89 177.39 68.08"/>
    <polygon class="cls-10" points="155.73 68.63 162.83 80.96 150.5 68.63 155.73 68.63"/>
    <polygon class="cls-10" points="163.66 81.27 156.38 68.63 163.66 68.63 163.66 81.27"/>
    <polygon class="cls-10" points="164.27 68.63 171.39 68.63 164.27 81 164.27 68.63"/>
    <polygon class="cls-10" points="172.04 68.63 177.39 68.63 164.73 81.32 172.04 68.63"/>
    <polygon class="cls-10" points="166.95 63.09 171.26 68.08 164.27 68.08 164.27 65.78 166.95 63.09"/>
    <polygon class="cls-10" points="163.66 65.78 163.66 68.08 156.5 68.08 160.87 62.99 163.66 65.78"/>
    <polygon class="cls-10" points="155.69 62.89 160.22 62.89 155.76 68.08 150.5 68.08 155.69 62.89"/>
    <polygon class="cls-10" points="66.47 49.4 58.63 49.4 52.09 41.84 58.91 41.84 66.47 49.4"/>
    <polygon class="cls-10" points="34.93 50.2 45.26 68.15 27.31 50.2 34.93 50.2"/>
    <polygon class="cls-10" points="46.47 68.61 35.87 50.2 46.47 50.2 46.47 68.61"/>
    <polygon class="cls-10" points="47.36 50.2 57.73 50.2 47.36 68.21 47.36 50.2"/>
    <polygon class="cls-10" points="58.67 50.2 66.47 50.2 48.03 68.68 58.67 50.2"/>
    <polygon class="cls-10" points="51.26 42.13 57.54 49.4 47.36 49.4 47.36 46.05 51.26 42.13"/>
    <polygon class="cls-10" points="46.47 46.05 46.47 49.4 36.05 49.4 42.41 41.99 46.47 46.05"/>
    <polygon class="cls-10" points="34.87 41.84 41.46 41.84 34.97 49.4 27.31 49.4 34.87 41.84"/>
    <polygon class="cls-1" points="26.91 49.8 26.91 49.8 26.91 49.8 26.91 49.8"/>
    <polygon class="cls-10" points="66.09 126.25 59.71 126.25 54.4 120.11 59.94 120.11 66.09 126.25"/>
    <polygon class="cls-10" points="40.45 126.9 48.85 141.5 34.26 126.9 40.45 126.9"/>
    <polygon class="cls-10" points="49.83 141.87 41.22 126.9 49.83 126.9 49.83 141.87"/>
    <polygon class="cls-10" points="50.55 126.9 58.98 126.9 50.55 141.54 50.55 126.9"/>
    <polygon class="cls-10" points="59.75 126.9 66.09 126.9 51.1 141.93 59.75 126.9"/>
    <polygon class="cls-10" points="53.73 120.35 58.83 126.25 50.55 126.25 50.55 123.53 53.73 120.35"/>
    <polygon class="cls-10" points="49.83 123.53 49.83 126.25 41.36 126.25 46.53 120.23 49.83 123.53"/>
    <polygon class="cls-10" points="40.4 120.11 45.76 120.11 40.48 126.25 34.26 126.25 40.4 120.11"/>
    <path class="cls-11" d="M108.58,185a7.44,7.44,0,0,1-3-1.34,17,17,0,0,0-2.83-1.46c-2.27-.79-16-2.09-19.45-.82A29.07,29.07,0,0,1,77,183c.3,1.11.73,2.76,1.18,4.55a33.56,33.56,0,0,0,5.09-1.49c3.44-1.27,17.18,0,19.45.82a17,17,0,0,1,2.83,1.46,20.06,20.06,0,0,0,3.92,1.65v-5.59a2.11,2.11,0,0,1-.91.54"/>
    <path class="cls-11" d="M114.18,188.35a17,17,0,0,1,2.83-1.46c2.27-.79,16-2.09,19.45-.82a34,34,0,0,0,4.8,1.43c.45-1.94.86-3.67,1.07-4.54a30.36,30.36,0,0,1-5.87-1.63c-3.44-1.27-17.18,0-19.45.82a17,17,0,0,0-2.83,1.46,7.44,7.44,0,0,1-3,1.34,2.12,2.12,0,0,1-1-.61v5.59a17.26,17.26,0,0,0,4-1.58"/>
    <path class="cls-12" d="M114.54,117.43c-2.35,0-4.69,0-7,.15-1.16,0-8,1.15-9.51-.37a4.2,4.2,0,0,1-.8-1.61,15.21,15.21,0,0,0-3.79-4.27c-2.65-2.11-10.74-7-10.84-7.09a56.91,56.91,0,0,0,13.16,14.11c-1.36.3-6.95-4.41-8.12-5.9a11.33,11.33,0,0,1,.55,2.14,38.82,38.82,0,0,1,0,8.74C90.62,125.41,103,130,110,130s19.36-4.57,21.79-6.65c-.11-.92-1.17-8,.42-11a35.24,35.24,0,0,1-7.1,4.89c-.77,1.16-1.83,1.28-3.51.24h-7"/>
    <path class="cls-12" d="M139.08,50c-2.76-7.44-6.56-9.32-6.56-9.32l-2-10.75s-.2,7.35-.38,9.86c-10.6,3.47-21.38.3-31.23.29a23.48,23.48,0,0,0-16.65,7.43c4.39-2.66,12.52-6.55,21.07-5.38,12.4,1.7,20.37,1.85,26.87,1.33,1.39-.17,5.43,1.61,8.87,6.54"/>
    <path class="cls-11" d="M174.64,194.62c1.66-.73.28-4.58.28-4.58,1-1.34.27-14.81-.06-18.12-.19-1.85-5.38-11.81-11-18.89,1.51,7.63,7,12.34,8.68,17.26,1.87,5.55.69,15.6-1.57,16.88-1.75,1-9.21-1.31-12.5-2.41a30.38,30.38,0,0,1-2.38,5.47c1.38.24,5.76,1.08,14.5,3.27.45.11,3.32,1.45,4.07,1.12"/>
    <path class="cls-11" d="M45,194.62c-1.66-.73-.28-4.58-.28-4.58-1-1.34-.27-14.81.06-18.12.19-1.85,5.38-11.81,11-18.89-1.51,7.63-7,12.34-8.68,17.26-1.87,5.55-.69,15.6,1.57,16.88,1.75,1,9.21-1.31,12.5-2.41a29.68,29.68,0,0,0,2.38,5.47c-1.38.24-5.76,1.08-14.5,3.27-.45.11-3.32,1.45-4.07,1.12"/>
    <path class="cls-6" d="M132,124.12c-3.19,2.37-14.58,6.35-21.35,6.59.39.49,1,1.29,1.79,2.33a35.57,35.57,0,0,0,13.46-3.13,3,3,0,0,1,1-1.66,4.18,4.18,0,0,1,2.71-.79,8.08,8.08,0,0,0,2.35-3.34"/>
    <path class="cls-6" d="M90.45,127.46a4,4,0,0,1,2.42.79,3,3,0,0,1,1,1.48A34.63,34.63,0,0,0,107.29,133c.77-1,1.39-1.84,1.78-2.33-6.72-.33-17.66-4.14-20.94-6.49a8.05,8.05,0,0,0,2.32,3.26"/>
    <path class="cls-6" d="M144.37,180.19c-6.1-4.79-3.1-13.36-3-14-3.25,6-2.9,12.66-3.54,12.39-5.22-2.08-20.89.85-23.79,2-1.68.67-2.62-.77-3.13-2.15l-1.09,1.09a6.63,6.63,0,0,0,1.13,4.61c.4.27,1.75-.54,2.84-1.19a17.4,17.4,0,0,1,3-1.52c2.37-.83,16.28-2.17,19.93-.82,2.8,1,6.36,2.15,9,1.6l1.59.26c-.62-1.71-2.9-2.25-3-2.31"/>
    <path class="cls-6" d="M157.13,182.05c1.44-.73,2.17-4.06,1.81-8.3-.39-4.66-1.87-8.41-3.53-8.92-1.17-.37-3.44-10.44-3.48-12.2a31,31,0,0,1,.45-5,26.2,26.2,0,0,0,.4-5.62c-.11-1.2-.23-2.24-.36-3.16-.26,2.86-.85,7-1.32,9.42a27,27,0,0,0,2.48,16.42c3.33,6.6,1.7,14.36.79,16.11-.64,1.23-4.27,1.66-6.67,1.76l1.6.3c1.8.56,3.84,1.2,7.83-.81"/>
    <path class="cls-6" d="M143.44,152.61a.45.45,0,0,1,0-.11l1-7.44c-1.57-2.48-3-4.63-4.31-6.5-.5.63,2.78,12.88,3.32,14.05"/>
    <polyline class="cls-6" points="143.52 152.78 143.53 152.78 143.53 152.78 143.52 152.78"/>
    <path class="cls-6" d="M134.92,152.51a11.41,11.41,0,0,0-1.16-5.7s-2.13-1-4.45-2.05a64.57,64.57,0,0,1,5.06,7.53c.23.32.54.27.55.22"/>
    <path class="cls-6" d="M75.44,180.19c6.1-4.79,3.09-13.36,3-14,3.25,6,2.9,12.66,3.54,12.39,5.23-2.08,20.89.85,23.79,2,1.68.67,2.47-.81,3-2.18.5.5.87.75,1.24,1.12a6.67,6.67,0,0,1-1.12,4.61c-.4.27-1.75-.54-2.85-1.19a17.69,17.69,0,0,0-3-1.52c-2.37-.83-16.28-2.17-19.94-.82-2.8,1-6.35,2.15-9,1.6l-1.59.26c.62-1.71,2.91-2.25,3-2.31"/>
    <path class="cls-6" d="M62.67,182.05c-1.44-.73-2.16-4.06-1.81-8.3.39-4.66,1.88-8.41,3.53-8.92,1.18-.37,3.44-10.44,3.48-12.2a30.93,30.93,0,0,0-.44-5A26.2,26.2,0,0,1,67,142c.1-1.2.22-2.24.35-3.16.26,2.86.85,7,1.33,9.42a27.1,27.1,0,0,1-2.48,16.42c-3.34,6.6-1.7,14.36-.79,16.11.63,1.23,4.27,1.66,6.66,1.76l-1.59.3c-1.8.56-3.84,1.2-7.84-.81"/>
    <path class="cls-6" d="M76.37,152.5l-1-7.44c1.56-2.48,3-4.63,4.3-6.5-2.87,6.92-3.59,6.36-3.31,13.94"/>
    <polygon class="cls-6" points="76.28 152.78 76.28 152.78 76.28 152.78 76.28 152.78"/>
    <path class="cls-6" d="M84.84,152.51a11.47,11.47,0,0,1,1.15-5.7s2.14-1,4.46-2.05c-5.87,3.15-4.64,6.9-5.07,7.53-.22.32-.54.27-.54.22"/>
    <path class="cls-8" d="M134.14,82.65a5.68,5.68,0,0,0,.05-.72,3.79,3.79,0,0,0-.87-2.25c-2-1.13-4.58-1-5.49,1.14,2.56-3,5.9-.6,6.31,1.83"/>
    <path class="cls-8" d="M92.26,80.82c-.91-2.18-3.48-2.27-5.49-1.14a3.74,3.74,0,0,0-.86,2.25,5.69,5.69,0,0,0,0,.72c.42-2.43,3.76-4.88,6.31-1.83"/>
    <path class="cls-8" d="M84.19,83.35c0,.11,0,.23,0,.35a7.76,7.76,0,0,0,2.21,5.75,1.18,1.18,0,0,1,.66-.62,7.62,7.62,0,0,1-2.83-5.48"/>
    <path class="cls-8" d="M125.93,91.35a84.08,84.08,0,0,1-8.78-.08,8.16,8.16,0,0,0-4.11,1,1,1,0,0,1-.61-.53v0a2.2,2.2,0,0,1,.68-2.33c2.53-1.32,5.06-.36,9.46-.19a2.08,2.08,0,0,1-.34-.58,15.18,15.18,0,0,0-3.18-4.69,3.24,3.24,0,0,1-1,2.64c-.58.6-1.29.58-3.31,1.37a10.46,10.46,0,0,1-1.24,1c-.38.29-2.68,1.65-3.37,1.47a13,13,0,0,1-4.51-2.52c-2-.79-2.74-.77-3.32-1.37a3.26,3.26,0,0,1-1-2.37c-.24.51-1.09,2.34-1.84,4.42a1.71,1.71,0,0,1-.26.47c3.36-.28,5.53-.83,7.7.3,1,.52.91,2.65.35,2.87a12,12,0,0,0-2.77-.9h0c-2.38-.33-5.24.35-10.36,0a14,14,0,0,1-5.43-1.42,4.63,4.63,0,0,0-1.31.15.74.74,0,0,0-.21.13,13,13,0,0,0,7,2.36c7,.48,9.78-1,12.88.88.35.21,1.39-1.31,3-1.31s2.66,1.52,3,1.31c3.1-1.84,5.88-.4,12.89-.88a12.72,12.72,0,0,0,7.28-2.64,14,14,0,0,0-2.26.21,14.72,14.72,0,0,1-5,1.21"/>
    <path class="cls-8" d="M135.9,83.35a7.56,7.56,0,0,1-2.69,5.37,6.92,6.92,0,0,1,1.14,0,7.91,7.91,0,0,0,1.59-5c0-.12,0-.24,0-.35"/>
    <path class="cls-8" d="M120.51,104.69a32.51,32.51,0,0,1-10.58,2.5,32.4,32.4,0,0,1-10.57-2.5,8.3,8.3,0,0,1-2.5-1.85l-.59,0a9.27,9.27,0,0,0,3.09,2.48,32.45,32.45,0,0,0,10.57,2.51,32.55,32.55,0,0,0,10.58-2.51,11.49,11.49,0,0,0,4-3.56h-.56a10.17,10.17,0,0,1-3.42,2.87"/>
    <path class="cls-8" d="M119.1,98.18a89.29,89.29,0,0,0-9.17,1.13,88.55,88.55,0,0,0-9.16-1.13c-1.89-.06-5.2-.63-8-.69h-.51l.42.56.08.12c.15.2.3.42.46.65l.28.41,1,1.44H95c-.47-.62-.9-1.24-1.3-1.82,2.57.15,5.38.6,7.06.65,3.8.12,8.61,1.13,9.16,1.13s5.37-1,9.17-1.13c1.68,0,4.48-.5,7.06-.65l-.61.87.51,0,.3-.44c.1-.14.19-.28.29-.41l.45-.65.09-.12c.14-.2.29-.39.42-.56-2.9,0-6.51.64-8.51.7"/>
    <path class="cls-3" d="M123.27,160h4.34l-6.87-6.87H119c1.46,1.73,3.73,4.69,4.27,6.87"/>
    <path class="cls-3" d="M110.86,177.51l16.75-16.79h-4.23a2,2,0,0,1-.14.9c-.92,2.11-7.93,10.17-11.26,13.93l-1.12,2Z"/>
    <path class="cls-3" d="M174.11,68.08h3.28l-5.19-5.19h-1.31c1.09,1.3,2.81,3.54,3.22,5.19"/>
    <path class="cls-3" d="M164.73,81.32l12.66-12.69h-3.2a1.5,1.5,0,0,1-.1.68c-.7,1.6-6,7.69-8.51,10.53l-.85,1.48Z"/>
    <path class="cls-3" d="M153.78,68.08H150.5l5.19-5.19H157c-1.1,1.3-2.82,3.54-3.22,5.19"/>
    <path class="cls-3" d="M163.15,81.32,150.5,68.63h3.19a1.5,1.5,0,0,0,.11.68c.69,1.6,6,7.69,8.51,10.53l.84,1.48Z"/>
    <path class="cls-3" d="M61.69,49.4h4.77l-7.55-7.56H57c1.6,1.9,4.11,5.16,4.7,7.56"/>
    <path class="cls-3" d="M48,68.67,66.46,50.2H61.81a2.11,2.11,0,0,1-.16,1c-1,2.32-8.72,11.19-12.38,15.33L48,68.67Z"/>
    <path class="cls-3" d="M32.09,49.4H27.31l7.56-7.56h1.91c-1.6,1.9-4.11,5.16-4.69,7.56"/>
    <path class="cls-3" d="M45.74,68.67,27.31,50.2H32a2.11,2.11,0,0,0,.16,1c1,2.32,8.72,11.19,12.38,15.33l1.24,2.15Z"/>
    <path class="cls-3" d="M62.2,126.25h3.88l-6.14-6.14H58.39c1.29,1.54,3.33,4.19,3.81,6.14"/>
    <path class="cls-3" d="M51.1,141.92l15-15H62.3a1.65,1.65,0,0,1-.13.81c-.82,1.89-7.09,9.1-10.06,12.46l-1,1.75Z"/>
    <path class="cls-3" d="M38.14,126.25H34.26l6.14-6.14H42c-1.3,1.54-3.33,4.19-3.81,6.14"/>
    <path class="cls-3" d="M49.23,141.92l-15-15H38a1.77,1.77,0,0,0,.12.81c.83,1.89,7.1,9.1,10.07,12.46l1,1.75Z"/>
    <path class="cls-3" d="M96.37,160H92l6.86-6.87h1.74c-1.45,1.73-3.73,4.69-4.26,6.87"/>
    <path class="cls-3" d="M108.77,177.51,92,160.72h4.23a2,2,0,0,0,.15.9c.91,2.11,7.92,10.17,11.25,13.93l1.12,2Z"/>
    <path class="cls-8" d="M109.8,112.58a5.4,5.4,0,0,1-3.51-1.37c.51.36.68,2.53,3.64,2.53a3.2,3.2,0,0,0,3.38-2.53,5.87,5.87,0,0,1-3.51,1.37"/>
    <path class="cls-13" d="M126.12,28.66l-.07-.05h.07l-.19-.09c-5.33-3.49-22.93-11-37.33.71,0,0,6.23-4.31,18.36-4.12A30.45,30.45,0,0,0,86.1,34.74s6.09-5.57,19.2-7.11A30.34,30.34,0,0,0,85.91,39.1s11.29-12.49,39.26-9.87a34.5,34.5,0,0,0-7.41-1.76,79.28,79.28,0,0,1,8.12,1.11l.24.08"/>
    <path class="cls-13" d="M142.73,42.89c.68,1.57,1.36,3.32,2.09,5.35-1.37-14.56-9.64-17.5-9.64-17.5,1.21,1.48,2.27,2.84,3.22,4.22a10,10,0,0,0-3.33-2.37,43.67,43.67,0,0,1,5.14,7.49,10.24,10.24,0,0,0-4.54-4.17c3.34,4.06,5.09,7,7.42,13.46a24.38,24.38,0,0,0-1.19-5.74c.58,1.36,1.17,2.87,1.8,4.61a30.58,30.58,0,0,0-1-5.35"/>
    <path class="cls-13" d="M102.49,6.61s6-1,8,2.64,1,6.51.06,7.49c-.88-4.09-1.16-8.27-8.08-10.13"/>
    <polygon class="cls-10" points="155.6 47.42 163.31 46.64 163.76 38.9 164.55 46.61 172.29 47.07 164.58 47.85 164.12 55.59 163.34 47.88 155.6 47.42"/>
    <polygon class="cls-10" points="24.19 151.32 38.62 149.85 39.47 135.37 40.94 149.8 55.42 150.65 40.99 152.12 40.14 166.6 38.67 152.17 24.19 151.32"/>
    <polygon class="cls-4" points="122.43 178.15 121.3 162.99 106.15 161.68 121.31 160.55 122.61 145.41 123.75 160.57 138.89 161.87 123.73 163 122.43 178.15"/>
    <path class="cls-14" d="M154.56,133.29l-20.35-5.56c-.11.32-.33.88-.65,1.6a.12.12,0,0,1,.05,0l14.63,3.52a2.71,2.71,0,0,1,.69-.25A2.54,2.54,0,0,1,151,133a3,3,0,0,1,.66.71l3.1.75c-.12-.55-.2-1-.24-1.19"/>
    <path class="cls-14" d="M172.52,170.29s-9-4.37-14.08-5.18h0c-.28-.05-1.35-.14-1.57-.14h0a14.54,14.54,0,0,1,2.8,8.72c0,1,.41,9.36-3.6,16.54,0,0,3.76-3.79,4.76-11.17a24.54,24.54,0,0,0-.22-8.87,2.18,2.18,0,0,1,2.65-2.6,90.74,90.74,0,0,1,9.26,2.7"/>
    <path class="cls-14" d="M65.18,133.29l20.34-5.56c.12.32.33.88.66,1.6a.12.12,0,0,0-.05,0L71.5,132.9a2.85,2.85,0,0,0-.69-.25,2.54,2.54,0,0,0-2.11.37,3,3,0,0,0-.66.71l-3.1.75c.12-.55.2-1,.24-1.19"/>
    <path class="cls-14" d="M47.22,170.29s9-4.37,14.07-5.18h0c.27-.05,1.35-.14,1.56-.14h0a14.54,14.54,0,0,0-2.8,8.72c0,1-.41,9.36,3.6,16.54,0,0-3.76-3.79-4.77-11.17a24.73,24.73,0,0,1,.23-8.87,2.18,2.18,0,0,0-2.65-2.6,90.74,90.74,0,0,0-9.26,2.7"/>
    <path class="cls-13" d="M66.62,87.63s6.28,7.24,5.68,11.44-3.4-2-3.63-4.22a26.78,26.78,0,0,0-2-7.22"/>
    <path class="cls-13" d="M71,115.51s3.3-5.16,2.53-7.76-2,1.57-1.91,3a17.07,17.07,0,0,1-.62,4.75"/>
    <polygon class="cls-1" points="40.06 43.82 40.06 43.82 40.06 43.82 40.06 43.82"/>
    <path class="cls-15" d="M160.11,120.77a17.88,17.88,0,0,0,4,2.77c1.59.69,3.45.75,5.07,1.3s3.05,1.58,4.56,2c1.17-.68,0-1.82,0-2.79,0-1.29,1.38-1.64,2-2.62-1,0-1.72-.34-2.54-.38-1.67-.08-3.1.14-4.5,0a15.42,15.42,0,0,1-10-5.21c-.5-.58-.69-1.32-1.41-1.77-.78,2.81,1,5.23,2.75,6.67"/>
    <path class="cls-16" d="M166.84,95.5a6.7,6.7,0,0,0-1.43.66c3.66-.3,9.17.16,12,1.7,1.62.88,3.66,1.84,5.39,2.62a2.09,2.09,0,0,1,.65-1.55c-5.13-1.34-9.35-5.45-16.61-3.43"/>
    <path class="cls-16" d="M185.2,106.53c-3.68-.81-5.71-3.51-8.67-5.66-3.12-2.27-7.46-4.11-12.64-2.24a20.64,20.64,0,0,0-5.18,3.22,5.17,5.17,0,0,0-1,1.16c3-1.84,7.4-4.12,9.94-3.48,3.3.84,7.78,6.3,13,8.48a13.62,13.62,0,0,0,4.45-1.36c.06,0,.12,0,.09-.12"/>
    <path class="cls-16" d="M169.68,108.37c-1.53-.49-3.09-.77-4.2-1.25a5,5,0,0,1-2-1.86c1.53,6.26,12.53,5.78,16.29,6.49a7.51,7.51,0,0,1,4.67,2.9,4.57,4.57,0,0,0-.93-4.59,47.84,47.84,0,0,1-13.82-1.69"/>
    <path class="cls-16" d="M176.21,116.36c-1.38-1-3.37-2.15-5.43-1.56,0,.36-.2.59,0,1.08.26.69,1.11-.24,1.36.39a1.09,1.09,0,0,1-.49.61,12.9,12.9,0,0,1,3.15,2.52,9.12,9.12,0,0,1,2.43.63c.77.33,1.3,1.26,2.24,1.08-.19-2.22-1.81-3.72-3.25-4.75"/>
  </g>
</svg>
