<svg id="Layer_1" data-name="Layer 1" xmlns="http://www.w3.org/2000/svg" viewBox="0 0 210 210">
  <defs>
    <style>
      .cls-1 {
        fill: #13354c;
      }

      .cls-2 {
        fill: #f2f2f0;
      }

      .cls-3 {
        fill: #1e5e82;
      }

      .cls-4 {
        fill: #4092b5;
      }

      .cls-5 {
        fill: #ced4d6;
      }

      .cls-6 {
        fill: #347999;
      }

      .cls-7 {
        fill: #d7dbdc;
      }

      .cls-8 {
        fill: #fff;
      }

      .cls-9 {
        fill: #57c4ea;
      }

      .cls-10 {
        fill: #a2aeb5;
      }

      .cls-11 {
        fill: #4b6577;
      }

      .cls-12 {
        fill: #68a9c5;
      }

      .cls-13 {
        fill: #7199b0;
      }
    </style>
  </defs>
  <title>7</title>
  <g>
    <path class="cls-1" d="M157.75,150.1c-5.15-5.86-6.84-15.67-6.85-15.76a2.72,2.72,0,0,0-1.9-2.16l-9.37-2c20.33-8.72,24.31-20.74,21.65-33.06-2.48-11.52,11.78-28.48,11.78-28.48a173.26,173.26,0,0,0-15.77,8.28c-7.55,4.86-12.33,9.41-14.82,13.21-3.17,4.85-.46,8.16.85,12.06,1.65,4.93,1.85,8.11-2,10.84a166.07,166.07,0,0,1-14.41,8.6,29.33,29.33,0,0,1,.13-5.3c8.15-10.56,9.83-26.62,9.8-27.45,0-.06,1.23-2.57,2.17-5.07a75.89,75.89,0,0,0,8.52-4.15l-7.84,2.14a7.25,7.25,0,0,0,.4-2.29c4.3-1.42,17.62-8.31,17.62-8.31l-15.2.36c10.19-10.76,8.64-18.3,8.64-18.3s-6.56,3.86-9.26-5.05c-1.53-5-4.7-11.45-13.55-16.18,1.95-5.81,3.57-29.08,3.57-29.08S120.34,20.82,117.13,26c-4.37-1.61-23.24-4.08-31.44.73-3.43-5.44-14.61-22.9-14.61-22.9.64,11.66,1.9,25.18,3.59,29.63-7.74,5.61-10,14-11.84,20.76-1.78,6.61-2.79,9.3-5.63,9.32-.32,0-8-1.23-8-1.23s9.09,8.17,11,9.42l-10.29.39s13.49,8.69,18.1,9.93c0,0,0,0,0,0l-7.89-2.07a74.68,74.68,0,0,0,8.41,4c.56,2,1.23,4,1.57,5,.09,1.61.21,3.23.36,4.83.7,7.22,4,12.44,6.58,16.65,1.41,2.25,2.74,4.37,2.87,5.77.24,2.53-.86,9.72-1.06,10.37l-2.51,2.67c-1.29.3-16.65,3.95-16.89,5.45,0,.1-1.6,9.92-6.7,15.83-5.71,6.62-16.77,26.24-16.9,31,0,.28,2.89,16.68,3.46,18.14.51,7.54,9.35,4.61,10.15,2.83,6.72-2.09,14-4.5,21.77-7.19,1.29,4.24,5.54,7.15,12.69,8.66,6.39,1.34,35.37,1.18,42.75-.24,8.26-1.59,13.33-4.3,15.12-8.08,7.36,2.45,14.32,4.66,20.71,6.57,5.12,6.08,8.92-.8,9.13-2.85,1-1.73,3.39-18.21,3.37-18.53-.17-4.72-11.42-24.23-17.2-30.79"/>
    <path class="cls-2" d="M85.21,104.53a2.06,2.06,0,0,0,0-.21l0,.21"/>
    <path class="cls-3" d="M141.79,115.1c6.05-4.21,4.47-9,3-13.64-1.24-3.74-2.4-7.27-.07-10.79C149,84.13,162,76.62,167,73.85a70.28,70.28,0,0,0-4.4,7.2C159,88,157.73,93.57,158.9,97.68c3,10.47-1.49,20.47-12,26.76-6.25,3.74-22.35,8.75-30.57,11.18l-1.9-.91a.54.54,0,0,0-.43,0l-2.44,1-1-3.88c3-1.38,21.71-10.09,31.19-16.68"/>
    <path class="cls-2" d="M140.2,161.92c.66,2.26,1.15,3.93-.17,5.72a36.7,36.7,0,0,1-3.64-2,1.55,1.55,0,0,0,1-1.24c.28-2.07-2.45-1.81-2.37-2.44,0-.24.27-.35.68-.3a4,4,0,0,1,1.42.56l.53-1.18a6.6,6.6,0,0,0-1.26-.52l.2-1.52-1.32-.18-.2,1.55a1.67,1.67,0,0,0-1.67,1.37c-.27,2,2.46,1.78,2.37,2.44,0,.27-.28.39-.72.33a2.67,2.67,0,0,1-.51-.12,48.68,48.68,0,0,1-4.19-3.35c1.9-2.69,5-4.93,9.22-6.67a14.51,14.51,0,0,0,.64,7.56"/>
    <path class="cls-4" d="M142.85,168.82c-.59-.22-1.2-.46-1.82-.73a5.12,5.12,0,0,0,.78-1.76c.21.57.91,2.23,1,2.49"/>
    <path class="cls-5" d="M106,173l-4.94-8.37a5.53,5.53,0,0,0,.21-1.63l-.18-5.35a13.51,13.51,0,0,0,1.64-2.07,5,5,0,0,0,3.44-2.38s0,0,0,0a11.21,11.21,0,0,0,2.74,4.49l-.18,5.35a6.53,6.53,0,0,0,.56,2.66Z"/>
    <path class="cls-4" d="M81,128.85l4.8,8.88c-.41.27-.74.52-.94.68-1.27,1-5,4.77-5.21,4.94a6,6,0,0,0-.54,7.22c1.17,1.79,1.28,4.75,1.14,7.11l-5.85-3.58,2.46-9.86-7-3.6Z"/>
    <path class="cls-2" d="M80.92,161.05c.26-1.53.89-6.1-.18-9.41a5.32,5.32,0,0,0,1.74.75c0,.19,1.13,4.5,5.24,4.34-.16,0-4.26-1.11-4.31-4.93v0a.54.54,0,0,0-.5-.38A2.66,2.66,0,0,1,80,150a4.77,4.77,0,0,1,.41-5.88s3.88-3.9,5.09-4.83c.68-.53,2.74-2.11,4.8-2.11a3.55,3.55,0,0,1,1.65.39,4,4,0,0,1,2,3.49l-6.53,4.85c-.24.17.55.94.65.87s7-5.19,7.39-5.19a4,4,0,0,1,2.19.86c1.8,1.22,1.48,4.07,1.36,4.83-1.1.79-5.64,4.21-6.11,6.77-.06.29,1,.45,1.06.19.36-1.91,5.93-6.16,6.07-6.16a2.78,2.78,0,0,1,2.38,1.53c2.05,3.32-2.18,7.38-2.22,7.42a.49.49,0,0,0-.17.41l.19,5.59a4.91,4.91,0,0,1-.22,1.52v0a14,14,0,0,1-2.42,4.27l0,0v0a55.2,55.2,0,0,1-8,7.88c-3.2-4.55-7-10.62-8.6-15.73"/>
    <path class="cls-3" d="M103.86,131.83c.57-.24,3.58-1.38,5.63,0l1.06,4.26-.78.31a.51.51,0,0,0-.29.27l-1.27,2.66c-3.75,1.67-8,.39-9.48-.17a66.27,66.27,0,0,1,5.13-7.3"/>
    <path class="cls-2" d="M119.72,136.07a4.66,4.66,0,0,0-1.75.34l-.18-.08c1.61-.48,3.45-1,5.41-1.65l-1,1.93a6.63,6.63,0,0,0-2.47-.54"/>
    <path class="cls-5" d="M109.89,147a3.88,3.88,0,0,0-3.19,2,6.18,6.18,0,0,0-.35.67,9.77,9.77,0,0,0-.73-1.86,37,37,0,0,0-4.05-6.83,16.3,16.3,0,0,0,2.5.21,11.86,11.86,0,0,0,3.48-.5.54.54,0,0,0,.12.57l2.49,2.48a8,8,0,0,0-.27,3.22"/>
    <path class="cls-2" d="M111.05,144.65l.87.86c-.31.41-.62.86-1,1.36a7.47,7.47,0,0,1,.08-2.22"/>
    <path class="cls-2" d="M100.13,141.11c.49.32,1.74,1.67,4.53,7.21.91,1.8,1.09,3.27.54,4.35a3.45,3.45,0,0,1-1.75,1.52,5.38,5.38,0,0,0-.15-5.17,3.86,3.86,0,0,0-3.19-2c.14-1.3.17-4-1.88-5.44a7.4,7.4,0,0,0-.68-.42v0a5.19,5.19,0,0,1,2.57,0"/>
    <path class="cls-6" d="M100.58,165.92l3.9,6.62L98.73,169a17.17,17.17,0,0,0,1.85-3.09"/>
    <path class="cls-6" d="M109.91,166.9a21.46,21.46,0,0,0,1.9,2.82l-4.5,2.95Z"/>
    <path class="cls-2" d="M109.82,163l.19-5.59a.49.49,0,0,0-.17-.41s-4.27-4.1-2.22-7.42a2.78,2.78,0,0,1,2.39-1.53c.13,0,5.7,4.25,6.06,6.16.05.26,1.12.1,1.07-.19a7,7,0,0,0-1.76-2.95c.7-1.19,2.66-4.2,5.16-5.38l1.42,1.06c.1.07.89-.7.65-.87l-4.21-3.13c.08-1.85.15-4,.19-5.42a3.57,3.57,0,0,1,1.13-.19c2.06,0,4.13,1.6,4.8,2.12,1.21.93,5,4.79,5.08,4.82,1.06.88,2.52,6.48-2.5,7.3a.58.58,0,0,0-.5.39v0c.16,1.37-1.33,3.68-4.31,4.93,4.28-.36,5.41-4.38,5.5-4.39a3.66,3.66,0,0,0,1.47-.7c-1.07,3.31-.44,7.89-.18,9.41-1.59,5.11-5.39,11.18-8.6,15.73-2-1.67-10.82-9.11-10.66-13.77"/>
    <path class="cls-4" d="M130,159.7c-.3-2.38-.58-6.77,1-9.13a6,6,0,0,0-.55-7.23c-.16-.16-3.93-4-5.2-4.93a14.76,14.76,0,0,0-2-1.34l1.5-2.85c2.27-.72,4.67-1.5,7-2.32l8.48,8.75-7,3.59,2.68,10.7A19.53,19.53,0,0,0,130,159.7"/>
    <path class="cls-7" d="M135.13,85.6l-.51,1c0-.28,0-.57,0-.86l.56-.2v0"/>
    <path class="cls-7" d="M137.12,79.72a6.8,6.8,0,0,1-.73,3.19l-1.92.51c-.09-1.74-.18-3.51-.26-5a6.51,6.51,0,0,0,2.63-.11,9.58,9.58,0,0,1,.28,1.4"/>
    <path class="cls-2" d="M122.48,45.07a46.18,46.18,0,0,1,.82-6.88l1.43,7.72s4.9,2.42,7.42,12.78c-2.78,1.42-11.48,5.87-12.61,6.92a5.14,5.14,0,0,0-2.22-3.43,16.14,16.14,0,0,1-1.73,5.21,6.58,6.58,0,0,0-2.06-5.18c-2.11,6.4-3.73,9.51-6.4,10.89,3.16,3.44,21.05-10.88,25.07-14.18.38,1.6,1.2,20.49,1.41,24.73l-20.19,5.41s-.73-.75-.81-.8c1.24-2.32-1.16-4.27-4.09-3.61,3,.17,4.87,3.23,2.45,4.48-1.46.77-3,1.38-3,1.38-.16.08-3,2-3.76,2-1.17,0-3-1.66-3.77-2,0,0-1.55-.61-3-1.38C95,87.88,96.7,85,99.85,84.65c-2.93-.66-5.34,1.29-4.08,3.62-.08.07-.56.62-.73.85l-22-5.9c0-5,.52-19.55,1.13-23.55C79.42,64,95.32,76.32,98.29,73.1c-2.67-1.38-4.29-4.49-6.4-10.89a6.58,6.58,0,0,0-2.06,5.18,16.14,16.14,0,0,1-1.73-5.21,5.14,5.14,0,0,0-2.22,3.43c-1-1-8.25-4.69-11.67-6.44.09-.59.19-1.15.3-1.69,4.83-2,26.62-10.59,48-12.41"/>
    <path class="cls-7" d="M112.12,89s.35.26.44.33l-1,.28,0,0a5,5,0,0,0,.56-.57"/>
    <path class="cls-7" d="M96.26,89c.16.18.62.62.65.65l-1-.28c.08-.09.34-.34.38-.37"/>
    <path class="cls-7" d="M70.78,79.72c.31-2.48,1.12-3.43,1.62-3.63-.11,1.25-.26,3.64-.26,6.89l-1-.26a8.75,8.75,0,0,1-.35-3"/>
    <path class="cls-7" d="M71.89,85.12l.27.1c0,.22,0,.44,0,.66-.09-.25-.19-.5-.28-.76"/>
    <path class="cls-2" d="M79.54,108.78c-2.43-3.94-5.46-8.85-6.06-15.36-.26-2.91-.4-5.55-.45-7.87a151.49,151.49,0,0,0,20.55,5.88c-.3.51-3.52,6.67-3.52,6.67s3.75-6,4.12-6.55c4,.79,6.68,1.08,7.15.78a.94.94,0,0,0,.27-.25,5.27,5.27,0,0,0,2.59,1.38,5.14,5.14,0,0,0,2.51-1.32.84.84,0,0,0,.22.19c.49.31,3.36,0,7.5-.85.39.53,4.27,6.62,4.27,6.62s-3.35-6.24-3.66-6.75a151.48,151.48,0,0,0,18.7-5.26c.09,2.1.15,3.89.13,4.68-.05,2.44-2.11,10.68-4.38,14.47-2.1,3.51-5.37,9.54-5.53,10.63a17.73,17.73,0,0,0,.91,7.74c-7.08,3.65-13.49,6.62-14.85,7.25-2.54-1.61-5.94-.3-6.6,0-1.2,0-13.27-.18-20.56-6.86a56.27,56.27,0,0,0,0-8.09c-.19-2.1-1.62-4.42-3.28-7.11"/>
    <path class="cls-2" d="M82.6,125.22c6.7,5.74,16.49,6.57,19.8,6.69a74.92,74.92,0,0,0-5.53,8.2c-.58.11-1.05.23-1.25.28a.54.54,0,0,0-.2.1,2.19,2.19,0,0,0-.46,0,4.93,4.93,0,0,0-2.53-3.94,4.64,4.64,0,0,0-2.15-.52,7.54,7.54,0,0,0-3.6,1.09l-5-9.28c.13-.43.47-1.47.93-2.66"/>
    <path class="cls-4" d="M46.85,199.52a2.83,2.83,0,0,0-1.71,1.42c-1.26,2.53-3.58-.18-3.32-2.66-.84-.64-1.82-8-2.29-11.56-.34-2.58-.61-4.64-.85-5.47.27-3.58,10.37-22,16.24-28.76,5.25-6,7.12-15.09,7.48-17.06L76,132.55,68,141l7.55,3.86-2.45,9.79,7,4.29c-.08.85-.19,1.54-.26,2a39.24,39.24,0,0,1-11.77,7.6c3-4.37,3.18-11.28,3.18-11.28s-1.18,7-4.73,11.86a48.16,48.16,0,0,1-7.07,1.69c-3.79.68-7.08,1.27-10,4.17a.54.54,0,0,0,0,.76.53.53,0,0,0,.76,0c2.7-2.66,5.68-3.2,9.45-3.88,5.24-.94,11.74-2.12,20.32-9.6a52,52,0,0,0,8.75,15.37c2,2.86,3.8,5.11,4.62,6.13-4.09,1.53-25.28,9.38-46.5,15.83"/>
    <path class="cls-4" d="M73.52,192c12.08-4.17,20.78-7.46,20.92-7.51a.53.53,0,0,0,.23-.85c0-.06-2-2.45-4.52-5.92a55.84,55.84,0,0,0,7.92-7.79l7.44,4.57v27.7c-15.14,0-27.1-2.13-30-5.24-.11-.49-1.52-3.35-2-5"/>
    <path class="cls-4" d="M136.45,196.9c-2.85,3.11-14.76,5.2-29.86,5.25V174.44l5.91-3.87a57.82,57.82,0,0,0,7.35,7.1c-2.49,3.47-4.47,5.86-4.52,5.92a.52.52,0,0,0-.1.48c0,.17,10.31,4.14,23.59,8.68-.29.91-2.25,3.76-2.37,4.15"/>
    <path class="cls-4" d="M170.47,186.72c-.47,3.54-1.45,10.92-2.28,11.56-.16.09-.32.27-.27.44.73,2.31-1.19,4.52-3,2.22a3.87,3.87,0,0,0-1.71-1.42c-21.23-6.45-42.42-14.3-46.51-15.83.83-1,2.6-3.27,4.63-6.13A52,52,0,0,0,130,162.19c8.59,7.48,15.08,8.66,20.33,9.6,3.77.68,6.74,1.22,9.44,3.88a.53.53,0,0,0,.76,0,.54.54,0,0,0,0-.76c-2.93-2.9-6.21-3.49-10-4.17-1.93-.35-6.27-1.52-6.27-1.52a15.57,15.57,0,0,1-2.36-4.63,15.35,15.35,0,0,0-.67-3c-.64-2.22-1.38-4.74-.37-8a.56.56,0,0,0-.15-.56.55.55,0,0,0-.56-.11,34.13,34.13,0,0,0-3.32,1.46l-2.4-9.61L142,141l-9.15-9.44.93-.33,13.82,4.22c.34,1.89,2.21,11,7.48,17.09,5.87,6.74,16,25.18,16.24,28.76-.24.83-.51,2.89-.85,5.47"/>
    <path class="cls-1" d="M109.6,194a2.56,2.56,0,1,0,2.56,2.56A2.57,2.57,0,0,0,109.6,194"/>
    <path class="cls-1" d="M109.6,179.1a2.57,2.57,0,1,0,2.56,2.57,2.57,2.57,0,0,0-2.56-2.57"/>
    <path class="cls-1" d="M88.71,73.75a6.41,6.41,0,0,0-6.8,1.33c-.35,0-1.41,0-1.82,0,.68.24,4,1,7,1.47v0a38.08,38.08,0,0,0,4.49.54,28.24,28.24,0,0,0,5.73-.6s-3.73-1.19-8.63-2.81"/>
    <path class="cls-8" d="M86.84,75.92c-1.43-.25-2.91-.54-4.11-.8A4.7,4.7,0,0,1,87.05,74a2.82,2.82,0,0,0-.29,1.23,3.27,3.27,0,0,0,.08.7"/>
    <path class="cls-8" d="M93,75.79l1.63.53c-.59.07-1.23.12-1.86.16a3.29,3.29,0,0,0,.23-.69"/>
    <path class="cls-1" d="M113.43,80.33c-.79-.88-3.47-3.17-3.47-3.17s2.28,2.49,3.07,3.37,3.23,3.58,3.07,3.37-1.87-2.69-2.67-3.57"/>
    <path class="cls-1" d="M93.87,80.33c.8-.88,3.47-3.17,3.47-3.17s-2.28,2.49-3.07,3.37S91,84.11,91.2,83.9s1.87-2.69,2.67-3.57"/>
    <path class="cls-1" d="M99.14,79.26a6.1,6.1,0,0,0,.14.74s.06-.3.11-.74a13.75,13.75,0,0,0,.06-1.64A14.57,14.57,0,0,0,99.33,76a6.1,6.1,0,0,0-.14-.74s-.06.3-.11.74A16.13,16.13,0,0,0,99,77.63a14.57,14.57,0,0,0,.12,1.63"/>
    <path class="cls-2" d="M80.84,38a8.35,8.35,0,0,0,1.83.21c2.72,0,4.26-1.34,4.58-4C86.31,32.73,77.82,19.67,74.08,12c1.28,19.07,6.1,25.21,6.76,26"/>
    <path class="cls-2" d="M116,34.19c.32,2.63,1.86,4,4.58,4a8.54,8.54,0,0,0,1.83-.21c.66-.76,5.48-7,6.76-26-3.74,7.68-12.23,20.75-13.17,22.21"/>
    <path class="cls-9" d="M114.61,146.92a2,2,0,0,0,1.53,0,2.53,2.53,0,0,0,1-1.26c.09-.4.33-8,.33-8L114.1,136l-3.74,1.48L108.67,141Z"/>
    <path class="cls-1" d="M90.69,112.74c2.59-1,8.51-1.63,15.09-1.63,5.63,0,10.33.49,12.27,1.28.28.12,1.46,0,1.65-.31,1.43-2.31-5.31-15.94-5.36-16-.52-.33-1.81-.26-3.3,0-2,.13-4.21.24-5.17-.33a1.48,1.48,0,0,1-2.7,0c-1.11.66-4,.41-6.07.27a5.32,5.32,0,0,0-2.9.08c-.06,0-6.24,14.2-4.85,16.33.18.28,1.15.39,1.34.31"/>
    <path class="cls-1" d="M89.15,123c.29,0,12.09-.57,15.35-.57,4.22,0,14.44.62,14.72.57,3.69-.59,3.19-10.6,3.37-12.54-1.43,10.84-3.17,12-4.46,12-.93,0-10.06-.72-13.71-.72-4,0-13.24.72-14.17.72-1.29,0-3.49-6.78-5-17.93.23,2.21.22,17.88,3.94,18.48"/>
    <path class="cls-1" d="M104.59,113a20.46,20.46,0,0,0-3.45.51h6.91a20.64,20.64,0,0,0-3.46-.51"/>
    <path class="cls-1" d="M109.69,76.56a28.24,28.24,0,0,0,5.73.6,38.08,38.08,0,0,0,4.49-.54v0c3-.51,6.34-1.23,7-1.47-.41,0-1.46,0-1.81,0a6.44,6.44,0,0,0-6.81-1.33c-4.9,1.62-8.63,2.81-8.63,2.81"/>
    <path class="cls-8" d="M120.27,75.22A2.82,2.82,0,0,0,120,74a4.7,4.7,0,0,1,4.32,1.13c-1.2.26-2.68.55-4.11.8a3.27,3.27,0,0,0,.08-.7"/>
    <path class="cls-8" d="M114.3,76.48c-.63,0-1.27-.09-1.86-.16l1.63-.53a3.29,3.29,0,0,0,.23.69"/>
    <path class="cls-8" d="M116.8,103.2c-.92-2-2-4-2.87-5.68-.56-.31-2.28-.08-4.13.27-.18.32-.3.64-.41.64s-.19-.23-.32-.49c-1.52.3-3,.64-4,.79-.23.35-.36.76-.49.76s-.23-.35-.42-.69c-.69,0-2.34-.41-4.08-.77-.11.22-.2.4-.29.4s-.19-.25-.33-.53c-2-.4-4.09-.72-4.7-.39-.82,1.67-1.76,3.73-2.59,5.75a.42.42,0,0,0,.5.55,89.58,89.58,0,0,1,23.62,0,.42.42,0,0,0,.49-.56"/>
    <path class="cls-8" d="M92.47,104.62a1.44,1.44,0,0,0-1.16.87,22.74,22.74,0,0,0-1.16,4.92.82.82,0,0,0,1,.85l1.44-.19c.23,0,.94-1.16,1.08-1.16s.82.91,1.18.86c.87-.11,1.81-.23,2.8-.34.24,0,1-1.15,1.1-1.15s.84,1,1.18.93c1.19-.11,2.4-.2,3.58-.26a.8.8,0,0,0,.67-.36c.21-.35.32-.74.45-.74s.24.34.43.67a.83.83,0,0,0,.73.37s2.41,0,3.59.13c.36,0,1-.91,1.13-.91s.83,1.06,1.1,1.08c1,.1,2,.21,3,.32.35,0,1-.6,1-.6s.65.8.93.84l1.57.2a.82.82,0,0,0,1-.87,19.86,19.86,0,0,0-1.24-4.64,1.44,1.44,0,0,0-1.14-.85,88.55,88.55,0,0,0-24.18,0"/>
    <path class="cls-8" d="M118.16,75.08c0,.3-.39.54-.88.54s-.89-.24-.89-.54.4-.55.89-.55.88.25.88.55"/>
    <path class="cls-8" d="M88.74,75.08c0,.3.39.54.88.54s.88-.24.88-.54-.39-.55-.88-.55-.88.25-.88.55"/>
    <path class="cls-1" d="M119.91,162c1.54-.95,1.22-3.1,1.22-3.1a8.82,8.82,0,0,1-1.87,2.23,12.87,12.87,0,0,1-2.66,1.23,4.35,4.35,0,0,0,3.31-.36"/>
    <path class="cls-1" d="M90.76,162c-1.53-.95-1.22-3.1-1.22-3.1a8.82,8.82,0,0,0,1.87,2.23,12.87,12.87,0,0,0,2.66,1.23,4.35,4.35,0,0,1-3.31-.36"/>
    <path class="cls-1" d="M126,72.91c-4.08-2.47-7.75-1.73-12.2,1,1.78.31,5.5-4.48,12.2-1"/>
    <path class="cls-1" d="M93.25,74c-4.45-2.78-8.12-3.52-12.2-1,6.7-3.43,10.43,1.36,12.2,1"/>
    <path class="cls-2" d="M109.6,183.15a1.48,1.48,0,1,1,1.48-1.48,1.48,1.48,0,0,1-1.48,1.48"/>
    <path class="cls-2" d="M109.6,198.07a1.48,1.48,0,1,1,1.48-1.48,1.48,1.48,0,0,1-1.48,1.48"/>
    <path class="cls-10" d="M122.59,110.46c-.18,1.94.33,12-3.36,12.55-.29,0-10.5-.57-14.72-.57-3.26,0-15.06.62-15.35.57-3.73-.6-3.72-16.27-4-18.49-4.93-1.15-7.74-6.78-11.26-8.14,1.09,5.07,3.55,9.08,5.6,12.41,1.66,2.68,3.09,5,3.28,7.1a57.82,57.82,0,0,1,0,8.09c7.29,6.68,19.36,6.86,20.56,6.86.65-.28,4-1.59,6.59,0,1.37-.63,7.77-3.6,14.86-7.25a17.43,17.43,0,0,1-.91-7.74c.15-1.09,3.43-7.12,5.53-10.63a72.54,72.54,0,0,1-6.9,5.22"/>
    <path class="cls-7" d="M133.73,87.71c.05,1.29.1,2.45.12,3.35,0-.1,0-.2,0-.29,0-.79-.05-2.58-.14-4.68A151.48,151.48,0,0,1,115,91.35c.08.14.4.71.8,1.46a152.07,152.07,0,0,0,17.9-5.1"/>
    <path class="cls-7" d="M101.33,94a28.34,28.34,0,0,0,3,.73,7.31,7.31,0,0,0,2.61-.73c.5-.29,8.33-1,8.44-1-.47-.73-.84-1.29-.94-1.43-4.14.84-7,1.16-7.5.85a.84.84,0,0,1-.22-.19,5.14,5.14,0,0,1-2.51,1.32,5.27,5.27,0,0,1-2.59-1.38.94.94,0,0,1-.27.25c-.47.3-3.19,0-7.14-.78-.11.15-.46.7-.92,1.44l8.06,1"/>
    <path class="cls-7" d="M92.8,92.89c.39-.75.7-1.32.78-1.46A151.49,151.49,0,0,1,73,85.55c0,.53,0,1.08,0,1.64a151.21,151.21,0,0,0,19.72,5.7"/>
    <path class="cls-10" d="M122.48,47.67c4.71-.8,9.09,9.35,9.66,11-2.51-10.36-7.41-12.78-7.41-12.78l-1.43-7.72a44.7,44.7,0,0,0-.82,6.88c-21.35,1.82-43.14,10.42-48,12.41-.11.54-.21,1.1-.31,1.69l1.13.58c6.12-2.48,26.83-10.35,47.15-12.08"/>
    <path class="cls-10" d="M80.23,64.37c-1.65-.89-2.85-1.48-4.42-2.3,5,4.1,16,12.68,20.88,11.56-3.18,0-10.71-4.95-16.46-9.26"/>
    <path class="cls-10" d="M108.48,73.61c4,2.71,19.85-10.46,23.38-13.35-1.15.59-2.63,1.53-4.55,2.54-6,4.65-15.11,11-18.83,10.81"/>
    <path class="cls-7" d="M92.32,103.69c.8-1.94,1.7-3.9,2.48-5.51.62-.34,2.65,0,4.7.39.14.28.23.53.34.53s.17-.18.29-.4c1.73.35,3.38.73,4.07.77.2.33.3.69.42.69s.27-.41.49-.76c1-.15,2.46-.49,4-.79.14.26.22.49.32.49s.23-.32.42-.64c1.84-.35,3.56-.58,4.12-.27.88,1.58,1.87,3.53,2.77,5.46a.37.37,0,0,0,.11-.45c-.93-2-2-4-2.88-5.68-.56-.31-2.28-.08-4.12.27-.19.32-.3.64-.42.64s-.18-.23-.32-.49c-1.52.3-3,.65-4,.79-.22.35-.35.76-.49.76s-.22-.36-.42-.69c-.69,0-2.34-.41-4.07-.77-.12.22-.21.4-.29.4s-.2-.25-.34-.53c-2-.4-4.08-.72-4.7-.39-.82,1.67-1.75,3.73-2.58,5.75a.37.37,0,0,0,.1.43"/>
    <path class="cls-7" d="M119,109.76a.88.88,0,0,1-.92.49l-1.57-.21c-.28,0-.84-.83-.93-.83s-.66.64-1,.59c-.92-.11-1.93-.21-3-.31-.27,0-1-1.08-1.1-1.08s-.78.93-1.13.91c-1.18-.08-3.55-.13-3.59-.13a.84.84,0,0,1-.73-.38c-.19-.32-.31-.66-.43-.66s-.24.39-.45.73a.81.81,0,0,1-.67.37c-1.18.06-2.39.15-3.58.25-.34,0-1.07-.92-1.18-.92s-.86,1.13-1.1,1.15c-1,.11-1.93.23-2.8.34-.36,0-1.08-.86-1.18-.86s-.85,1.13-1.08,1.16l-1.44.19a.87.87,0,0,1-.92-.5c0,.12,0,.24,0,.35a.82.82,0,0,0,1,.85l1.44-.19c.23,0,.94-1.16,1.08-1.16s.82.91,1.18.86c.87-.11,1.81-.23,2.8-.33.24,0,1-1.16,1.1-1.16s.84,1,1.18.93c1.19-.11,2.4-.2,3.58-.26a.8.8,0,0,0,.67-.36c.21-.35.32-.74.45-.74s.24.34.43.67a.81.81,0,0,0,.73.37s2.41,0,3.59.13c.35,0,1-.91,1.13-.91s.83,1.06,1.1,1.08c1,.1,2,.21,3,.32.35,0,1-.6,1-.6s.65.8.93.84l1.57.2a.82.82,0,0,0,1-.87c0-.1,0-.21,0-.32"/>
    <path class="cls-10" d="M81.7,38c-.63-.73-5.13-6.47-6.6-24-.37-.7-.72-1.38-1-2,1.28,19.07,6.1,25.21,6.76,26a8.45,8.45,0,0,0,1.83.21l.43,0A8,8,0,0,1,81.7,38"/>
    <path class="cls-10" d="M128.1,14c-1.47,17.43-6,23.23-6.6,24a8.15,8.15,0,0,1-1.39.19l.43,0a8.51,8.51,0,0,0,1.82-.21c.66-.76,5.48-7,6.77-26-.31.63-.66,1.31-1,2"/>
    <path class="cls-6" d="M152.51,170.73a41.74,41.74,0,0,1-6.27-1.52,15.57,15.57,0,0,1-2.36-4.63,15.35,15.35,0,0,0-.67-3c-.64-2.22.15-8.92.15-8.92l-2.47.93c-1,3.25-.27,5.77.37,8a15.35,15.35,0,0,1,.67,3,15.57,15.57,0,0,0,2.36,4.63s4.34,1.17,6.27,1.52c3.31.59,6.22,1.12,8.86,3.16-.88-1.68-4.2-3-6.91-3.16"/>
    <path class="cls-6" d="M166.84,200.94a3.87,3.87,0,0,0-1.71-1.42c-21.23-6.45-42.42-14.3-46.51-15.83.83-1,2.6-3.27,4.63-6.13a52.26,52.26,0,0,0,8.28-14.12c-.49-.4-1-.81-1.49-1.25a52,52,0,0,1-8.74,15.37c-2,2.86-3.8,5.11-4.63,6.13,4.09,1.53,25.28,9.38,46.51,15.83a3.87,3.87,0,0,1,1.71,1.42c1,1.17,1.92,1.17,2.54.58a3.21,3.21,0,0,1-.59-.58"/>
    <path class="cls-6" d="M134.46,144.81l2.4,9.61c.56-.29,1.14-.56,1.75-.82l-2.2-8.79L144,141l-9.15-9.44h0l-1-.32-.93.33L142,141Z"/>
    <path class="cls-6" d="M88.73,177.56A51.74,51.74,0,0,1,80,162.19c-.48.43-1,.82-1.43,1.21a51.78,51.78,0,0,0,8.3,14.16c2,2.86,3.8,5.11,4.63,6.13-4.1,1.53-25.29,9.38-46.51,15.83a2.83,2.83,0,0,0-1.71,1.42,2.66,2.66,0,0,1-.35.54c.7.68,1.6.72,2.23-.54a2.83,2.83,0,0,1,1.71-1.42c21.22-6.45,42.41-14.3,46.5-15.83-.82-1-2.6-3.27-4.62-6.13"/>
    <path class="cls-6" d="M73.11,154.6l2.45-9.79L68,141l8-8.4h0L62.4,135.43c-.36,2-2.23,11-7.48,17.06-5.87,6.74-16,25.18-16.24,28.76.24.83.51,2.89.85,5.47.47,3.54,1.45,10.92,2.29,11.56-.22,2.07,1.36,4.29,2.62,3.51A3.8,3.8,0,0,1,43,198.28c-.84-.64-1.82-8-2.29-11.56-.34-2.58-.61-4.64-.85-5.47.27-3.58,10.37-22,16.24-28.76,5.25-6,7.13-15.09,7.48-17.06l9.83-2.08L66,141.72,74,145.67s-2.55,9.38-2.69,11.51a24.2,24.2,0,0,1-3.18,11.28c5.76-2.16,10.83-6.78,11.77-7.6.08-.43.18-1.12.26-2Z"/>
    <path class="cls-5" d="M101.66,132.87l.74-1c-3.31-.12-13.1-.95-19.8-6.69l-.39,1c6.52,5.53,15.92,6.46,19.45,6.61"/>
    <path class="cls-6" d="M76,193c12.08-4.18,21.71-7.64,21.85-7.69s-2.73-3.13-5.22-6.6a55.93,55.93,0,0,0,7.67-7.48l-2.27-1.39a55.84,55.84,0,0,1-7.92,7.79c2.49,3.47,4.47,5.86,4.52,5.92a.53.53,0,0,1-.23.85c-.14.05-8.84,3.34-20.92,7.51.49,1.61,1.9,4.47,2,5a10.09,10.09,0,0,0,4.06,2.22c-.65-.36-3.06-4.48-3.55-6.09"/>
    <path class="cls-6" d="M115.23,184.07a.52.52,0,0,1,.1-.48c0-.06,2-2.45,4.52-5.92a57.82,57.82,0,0,1-7.35-7.1l-2,1.33a60.38,60.38,0,0,0,6.17,5.77c-2.48,3.47-4.88,6.5-4.93,6.56s10.62,4,23.9,8.52c-1,5.47-15.46,9-29,9.36v0c15.1-.05,27-2.14,29.86-5.25.12-.39,2.08-3.24,2.37-4.15-13.28-4.54-23.55-8.51-23.59-8.68"/>
    <path class="cls-6" d="M134.07,134.32l-2.35-2.42c-2.38.82-4.78,1.6-7,2.32l-1.5,2.85c.29.16.56.32.8.48Z"/>
    <path class="cls-11" d="M130.61,45.6a25.68,25.68,0,0,1,4.1,9.34A56.56,56.56,0,0,1,136,61s2.45-10.22-5.34-15.41"/>
    <path class="cls-11" d="M132.56,45.19A21.47,21.47,0,0,1,136,53c1.07,4.75,1,4.94,1,4.94s2-8.39-4.44-12.7"/>
    <path class="cls-11" d="M134.85,46.22A13.47,13.47,0,0,1,137,51.05a30,30,0,0,1,.64,3.15s1.27-5.29-2.76-8"/>
    <path class="cls-11" d="M114.53,38.63c-4.62-4-19.21-6.3-26.42-2.05a89.92,89.92,0,0,1,14.77,0c-7.15.16-15.27,2.13-19.68,6.2A104.37,104.37,0,0,1,94.85,40C88.36,41.73,82,44.78,78.59,49c0,0,18.85-9,35.19-9.39.56-.27.85-.9.75-.95"/>
    <path class="cls-12" d="M155.08,152.49c-5.27-6.05-7.14-15.2-7.48-17.09l-12.76-3.9h0l1.88,1.94,9.76,3c.34,1.89,2.21,11,7.48,17.09,5.87,6.74,16,25.17,16.24,28.76-.24.83-3.21,19-3.46,19.61,1-.2,1.68-1.66,1.2-3.17,0-.17.11-.35.27-.44.83-.64,1.81-8,2.28-11.56.34-2.58.61-4.64.85-5.47-.26-3.58-10.37-22-16.24-28.76"/>
    <path class="cls-12" d="M130.92,164.91a36.54,36.54,0,0,0,18.29,7.91c3.77.68,7.12,1.07,10.69,2.93-3.13-3.16-6.7-3.31-10.5-4-1.93-.34-6.27-1.51-6.27-1.51A2.43,2.43,0,0,1,143,170a37.18,37.18,0,0,1-11.44-6.56c-.16.43-.37.92-.6,1.46"/>
    <path class="cls-12" d="M78.55,163.4a36.61,36.61,0,0,1-18.89,8.39c-3.77.68-6.75,1.22-9.45,3.88,9.42-4.27,16.3-1,28.92-10.86-.22-.52-.42-1-.58-1.41"/>
    <path class="cls-13" d="M144.68,93.43c3.66-5.54,13.54-11.79,19.55-15.25,1-1.74,2-3.24,2.79-4.33-5.07,2.77-18,10.28-22.35,16.82a8.14,8.14,0,0,0-1.23,5.93,7.76,7.76,0,0,1,1.24-3.17"/>
    <path class="cls-13" d="M109.49,131.8c-2-1.35-5.06-.21-5.63,0-.17.19-.59.72-1.2,1.52h0c4.16-1.75,6.58,3.78,6.58,3.78l.23-.48a.55.55,0,0,1,.29-.27l.78-.31Z"/>
    <polygon class="cls-8" points="115.24 149.92 114.62 140.85 105.56 140.01 114.64 139.39 115.48 130.33 116.1 139.41 125.16 140.24 116.08 140.86 115.24 149.92"/>
  </g>
</svg>
