<svg id="Layer_1" data-name="Layer 1" xmlns="http://www.w3.org/2000/svg" viewBox="0 0 210 210">
  <defs>
    <style>
      .cls-1 {
        fill: #13354c;
      }

      .cls-2 {
        fill: #f2f2f0;
      }

      .cls-3 {
        fill: #347999;
      }

      .cls-4 {
        fill: #4092b5;
      }

      .cls-5 {
        fill: #1e5e82;
      }

      .cls-6 {
        fill: #d7dbdc;
      }

      .cls-7 {
        fill: #fff;
      }

      .cls-8 {
        fill: #57c4ea;
      }

      .cls-9 {
        fill: #456072;
      }

      .cls-10 {
        fill: #7199b0;
      }

      .cls-11 {
        fill: #ced4d6;
      }

      .cls-12 {
        fill: #a2aeb5;
      }

      .cls-13 {
        fill: #a1aeb4;
      }

      .cls-14 {
        fill: #4b6577;
      }

      .cls-15 {
        fill: #68a9c5;
      }
    </style>
  </defs>
  <title>8</title>
  <g>
    <path class="cls-1" d="M193.88,163c1.54-3.19,2.27-5.52,2.29-7.27.05-5.05-.57-6.57-2.35-10.22,0-.08,1.28-8.62-1.26-14.17-1.94-4.25-6.23-6.51-8.61-7.48a28.84,28.84,0,0,0-9.15-2c-1.38-.77-2.66-1.58-3.67-2.26l.68-1.16A34.74,34.74,0,0,0,177.08,103c.77-6.6.38-18-10.89-19.95a11.89,11.89,0,0,0-9.74,2.16c-4.12,3.21-6.44,9.23-7.1,18.4-.71,9.75-3.47,15.36-6.16,20.76l-4.84-4.44a36.26,36.26,0,0,1,.09-7.46,14.38,14.38,0,0,1,1.5-3.79,44.73,44.73,0,0,0,4.16-6c1.24-2.31,4.69-12.84,5-15.62.41-3.8.61-6.27.6-7.34,0-2-.08-4-.19-6.17a14.7,14.7,0,0,0,8.2-2.42l6.5-3.91-7.44-1.48a10.05,10.05,0,0,1-2.35-.74,9.28,9.28,0,0,0,3.22-4.35L159.39,56l-4.19.58a40.4,40.4,0,0,1-.6-6.45c-.48-10.19-1.27-27.17-18.36-33.86C128,9.94,114.54,4,95.8,9.85V9.47l-4.17,1.87A27.4,27.4,0,0,0,85.16,15c-8.81,6.12-14.88,16-17.09,27.76-1.92,10.21-.71,21.21,3.23,29.57.13,2.56,1.3,5.59,2.71,9,1.59,11.24,6.09,22.47,8.84,27a20.27,20.27,0,0,1,1.81,4.17,36.13,36.13,0,0,1,.07,7.77l-1.54,2.44c-2.78,1-10,3.59-17.85,6.62-9.28,3.57-15,15.26-17,34.75a171.94,171.94,0,0,0-.24,27.6c.27,1,2.08,5.81,12,6.36,2.14,2.32,8.16,7.19,14.11,7.19,34.59,0,52.33-1.62,63.93-5.59l3.22-4c3.74,5.09,10,8.58,18,9.85a42.71,42.71,0,0,0,6.72.53c11.3,0,21.63-4.3,26.32-11,8.8-12.5,5.08-25,1.48-32"/>
    <path class="cls-2" d="M146.54,126.16c2.6-5.23,5.84-11.73,6.61-22.32.58-7.92,2.47-13.19,5.64-15.66a8.1,8.1,0,0,1,6.75-1.41c6.24,1.09,8.85,6.39,7.75,15.75a30.07,30.07,0,0,1-4.76,13.91c-2.34,3.75-2.73,6.43-2.77,7.84a14.11,14.11,0,0,0,1.33-2.89c1.06.76,5.09,4.2,7.08,4.22,4.41.05,13.12,2.41,14.9,7.25,1.66,4.52,1.77,7.13.79,13.22,1.39,3.13,2.53,4.2,2.49,9.61a11.13,11.13,0,0,1-1.78,5.47c-1,1.91-2.09,3.87-1.92,6.74,0,.09.59,9.43-5.68,11.64-7.06,2.5-19.28,5.51-24.31,4.39-8.49-1.89-12-7-10.67-15.55a51.84,51.84,0,0,0,8.73.75A45.83,45.83,0,0,0,174.08,166a.44.44,0,0,0,.21-.59.43.43,0,0,0-.58-.21s-.32.14-.86.34c.78-1.13,2-3.59,2.35-7.95a31,31,0,0,0-.86-10.28c1.81-.27,2.86-.43,3-.46a.42.42,0,0,0,.34-.51.45.45,0,0,0-.52-.35c-.37.08-11.78,1.82-26.55,3.48-.9-.9-5.32-5.87-1.7-13.22,4.45-9,27.62-8.54,27.86-8.54a.43.43,0,0,0,.45-.43.44.44,0,0,0-.43-.45,78.85,78.85,0,0,0-12.47.87c-8.77,1.38-14.22,4.12-16.2,8.16a12.21,12.21,0,0,0,1.55,13.88,9.63,9.63,0,0,0-3,1.83c-.23-.34-.45-.67-.69-1-1.71-2.43-3.64-5.18-3.32-12.82.18-4.15,1.89-7.58,3.87-11.55"/>
    <path class="cls-2" d="M185.71,186.86c-2.07,3.56-7.15,9.58-17.78,9.93-12.22.4-17.08-4.52-19-8.72-2-4.42-1.35-9-.69-10.15a13.75,13.75,0,0,0,13,7.11c6-.22,15.92-2.52,22-4.67a8.35,8.35,0,0,0,4.66-4.23c.74,2.28.17,6.63-2.22,10.73"/>
    <path class="cls-2" d="M145,156.9c.15-1.93,2.18-6.1,5.53-6.56,0,0,6.66-.78,9.58-1.14,1.06,4.75,1,10.89-.76,19a50.85,50.85,0,0,1-11.61-.73l-.06,0c-2.23-.45-3.18-4.19-2.68-10.52"/>
    <path class="cls-3" d="M117.09,157.71l.34-3c.66.14,2,.43,3.66.86a41.39,41.39,0,0,0-4,2.1"/>
    <path class="cls-4" d="M124.66,154.27c-.53.2-1.74.55-2.29.78-3-.83-5.71-1.35-5.71-1.35l-.53,4.61a26.74,26.74,0,0,0-6.63,5.94,232,232,0,0,0-27.12,9.5A62.54,62.54,0,0,1,97.12,155.5c5.17-4.37,10.68-8.41,16-12.32,10.81-7.93,20.2-14.83,22.06-21.09l4.48,4.82c.22,1.86,2.29,21.82-6,32.3a57.74,57.74,0,0,0-9.28-3.58,7.94,7.94,0,0,0,.28-1.36"/>
    <path class="cls-4" d="M81.49,173.56c-.87-3-3.67-11.95-8.18-16.89a82.39,82.39,0,0,0,6.86-9.62l-11.42-4a55.19,55.19,0,0,1,16-16.63c-2.16,9.62.32,39.74.44,41.07,0,0-2.58,4.1-3.65,6.11"/>
    <path class="cls-2" d="M88.11,122A25.67,25.67,0,0,0,99.66,127a50.08,50.08,0,0,0-9.42,11.12,22.25,22.25,0,0,1-4.39-12.61Z"/>
    <path class="cls-5" d="M85.93,166.38c-.15-2-.5-6.8-.79-12.48,3.81-4.62,7.23-8.42,8.06-9.33l4.89,1.55c.06,1.07.29,4.8.38,7.14-.64.52-1.29,1-1.92,1.56a62.62,62.62,0,0,0-10.62,11.56"/>
    <path class="cls-5" d="M93.12,135.5a47.42,47.42,0,0,1,7.44-8.07,58.58,58.58,0,0,1,2.76,10.62c-.18.71-1.56,5.69-4.84,7.27l-5.13-1.62c-1.79-3.17-.44-7.59-.23-8.2"/>
    <path class="cls-2" d="M99.32,152.56c-.1-2.34-.29-5.53-.36-6.5,2.52-1.27,4-4.18,4.68-6.1.19,1.22.59,4.42.59,4.42s4.68-1.17,10-3.08l-1.59,1.17c-4.4,3.23-8.92,6.56-13.29,10.09"/>
    <path class="cls-2" d="M116.82,139.37A112,112,0,0,1,105,143.28a69.53,69.53,0,0,0-3.52-16,46.23,46.23,0,0,0,6.58.45c11.11,0,22.21-3.38,26.09-5.33-1.89,5-8.83,10.62-17.32,16.92"/>
    <path class="cls-2" d="M90.3,139.74s1.07-1.73,1.44-2.28a10.44,10.44,0,0,0,.79,6.54c-.81.89-3.91,4.33-7.46,8.59-.4-8.39-.62-18.34.15-24.05.85,6.12,5.08,11.2,5.08,11.2"/>
    <path class="cls-6" d="M74.73,71.29a5,5,0,0,1,2-3.54,54.62,54.62,0,0,0-.39,6.88c0,1.36.14,2.72.28,4.09-1.11-2.75-2-5.65-1.92-7.43"/>
    <path class="cls-2" d="M87.54,109.19a21,21,0,0,0,6,3.93c-1.6-1.43-4.68-3.54-6.65-5.69s-8.93-22-9.2-32.73c-.07-2.93,2.28-25.15,3.2-29.57,19.92-11,52-12.68,52-12.68l1.41-9.09,1.11,10s8.15,4,9.7,23.26l-.42,9.17v.09c.44,4.59.8,9.2.91,13.79a57.51,57.51,0,0,1-.45,6.8A124.47,124.47,0,0,1,141.06,100a48.75,48.75,0,0,1-3.75,5.62c-2.81,3.65-7.94,7.67-9.71,9,1.51-.22,5-2.85,7.93-5.66-1.76,4.31-1.12,10-1,12.26-4,2.78-32.34,11.39-46-.11.12-1.05,1-8.21-.93-12"/>
    <path class="cls-4" d="M62.11,194.45c-.23-17.29,2-28.74,2.36-33-2.66,4.55-3.4,29.64-3.25,32.71-7.89-.2-9.25-3.22-9.37-3.54-.15-1.87-3.64-50.72,14.86-57.83,6.2-2.38,12-4.5,15.47-5.76a60.06,60.06,0,0,0-14.84,16.51c1,.45,11.74,3.87,11.74,3.87-.78,1.19-6.41,8.42-6.85,9.19,5.13,5.35,8.35,16.9,8.66,18.08a72.53,72.53,0,0,0-7.7,26.64c-4.68-.33-10.24-6-11.08-6.89"/>
    <path class="cls-4" d="M136.64,196.12c-.84.53-9.77,5.21-62.57,5.23A71.74,71.74,0,0,1,81.71,175c8.38-3.87,19.62-7.45,27-9.61a20.28,20.28,0,0,0-3.46,11.16c-1.5-.09-3.65-.26-4.42-.32-.3,1.51-.93,5.05-.69,5.08a96.19,96.19,0,0,0,12.71.68c6.36,0,12.12-.3,12.21-.31.25,0,.2-.89,0-.88s-16,.84-24.07-.26l.51-3.46c6.38.86,23.2.3,23.23.3.24,0,.51-.89-.23-.85,2.07-3,1.32-6.09.47-9.61-.73-3-1.55-6.42-.71-10.46a71.46,71.46,0,0,1,10,3.85c5.23-6.57,6.27-14.9,6.67-21.23a75.39,75.39,0,0,0-.2-11.7l3.63,1.47a22.83,22.83,0,0,0-2.45,8.81c-.33,7.93,1,9.14,4.25,14.5a7.83,7.83,0,0,0-1.9,4.65c-.4,5,.11,8.48,1.47,10.22-3.82,4.08-7.56,11.08-4.42,21.62Z"/>
    <path class="cls-1" d="M105.44,62.15c.09.71.26,2,.47,3.32.26,1.68.85,5.1.85,5.1A19.85,19.85,0,0,0,107,66a13.35,13.35,0,0,0-1.44-4.11c-.44-2.42-3.12-5.27-3.5-9.68a14.68,14.68,0,0,0-2.59,6.4,6.24,6.24,0,0,1-2.49-5.17,6.13,6.13,0,0,0-1.18,4.29c-2.12,0-7.94-3.83-7.94-3.83a74.77,74.77,0,0,1-6.5,8.93c3.16-1,7.14-4.43,7.14-4.43a88.69,88.69,0,0,0,17,3.79"/>
    <path class="cls-1" d="M86.2,177.16a3.08,3.08,0,1,0,3.08,3.08,3.09,3.09,0,0,0-3.08-3.08"/>
    <path class="cls-7" d="M86.2,182.44a2.2,2.2,0,1,1,2.2-2.2,2.2,2.2,0,0,1-2.2,2.2"/>
    <path class="cls-1" d="M81.57,192.3a3.08,3.08,0,1,0,3.09,3.08,3.08,3.08,0,0,0-3.09-3.08"/>
    <path class="cls-7" d="M81.57,197.58a2.2,2.2,0,1,1,2.2-2.2,2.21,2.21,0,0,1-2.2,2.2"/>
    <path class="cls-1" d="M107.68,76.06a3.49,3.49,0,0,0-3,6.14c.71.64,1.32.69,3.63,1.41a9.62,9.62,0,0,0,3.29,2.52c.47.1,3.68-.12,5-2.06a12.18,12.18,0,0,0,3.17-1.68c3.1-2-.17-5.2-2.05-6.45,1.36,1.18,3.44,5,1.6,6.1-.9.54-4.25,2.42-5,2.71a18,18,0,0,1-2.63.62c-.12,0-2.71-1.8-3.45-2.19,0,0-1.55-.62-3-1.37-2.42-1.26-.63-5.62,2.44-5.75"/>
    <path class="cls-1" d="M134.92,62.88c-3.14-7.81-12.66.53-16,.51,1.61,1.41,11.35-6.91,16-.51"/>
    <path class="cls-1" d="M89.12,63.21C94,61,103,65.43,104.61,64.68c-3-.51-11.46-4.67-15.49-1.47"/>
    <path class="cls-1" d="M137.48,50.22c2.15-1.33,5.72,4.7,5.72,4.7s.89-6-4.37-8.53C139.24,45,141.3,45,141.3,45s-1-1.36-3.45-1.15c-3.8.55-6.81,6.47-9.71,8.5A8.59,8.59,0,0,0,127,46.87c-.43,3.51-1.84,5.48-3,8a13,13,0,0,0-3-6.54,15.55,15.55,0,0,1-1.64,12.6c5-1.48,16-9.36,18.08-10.66"/>
    <path class="cls-1" d="M135.78,84.14c-1.32-.45-6.18.53-7.27.62s-4.56.43-5.28-1.35c-.61-.52-1.09-.52-.71.52s2.41,2.72,6.07,2.14c2.8-.45,5.34-1,6.78-.59,2.2.69.28,4.08-.82,6.8-1.6,4-1.92,3.85-2.21,6.66a48.33,48.33,0,0,1,3.9-7.69c1.57-3,2.32-6.18-.46-7.11"/>
    <path class="cls-1" d="M88.58,90.86c.91-.89,4.37-2.69,6.23-4.72a58,58,0,0,0-7.5,4.42C86.11,91.38,90,98,93,101.94c-1-2.82-5.77-9.74-4.39-11.08"/>
    <path class="cls-1" d="M99.71,99.81a103.1,103.1,0,0,0,18.49,2.37,15.2,15.2,0,0,0,2.47-.16c6.29-1.15,9.47-9.68,9.7-10.3.52-.16,2.1-.58,2.41-.73-3.32-.25-9.62,0-12.11,0-4.18.13-5.43.9-6.85.06a1.82,1.82,0,0,1-1.52,1,2,2,0,0,1-1.51-1c-2.17,1.78-11.5.12-16.07.8a.39.39,0,0,1,0-.06l-.29.11a4.52,4.52,0,0,0-1.44.46c.38.16.83.31,1.32.46.76,1.8,2.86,6.22,5.42,7"/>
    <path class="cls-7" d="M112.81,95.14c1.78-.37,11.72-1.87,16.63-3.16a23.29,23.29,0,0,1-2.89,5.07q-2.83.78-5.75,1.3a34.6,34.6,0,0,1-6,.59,36.37,36.37,0,0,0,6.08-.21c1.65-.19,3.29-.44,4.93-.76a9.52,9.52,0,0,1-5.26,3.3c-4.15.76-17.67-1.36-20.61-2.2-2-.57-3.82-4-4.68-6,5.62,1.47,15.57,2.43,17.57,2"/>
    <path class="cls-1" d="M124.31,103.71c-3.09,2.53-11.43,0-11.43,0,.53.5,7.45,2.42,9,2.09a4.24,4.24,0,0,0,2.43-2.09"/>
    <path class="cls-1" d="M122.85,117.13c-.7,0-8-.31-10.93-.31-2.73,0-10.26.14-11,.14-1,0-2-2.3-6.62-9.67,1.88,4,3.77,10,6.52,10.48.22,0,7.85-.43,11-.43,2.43,0,11.25.46,11.46.43,2.78-.45,5-9,6.16-13-1.2,2.8-5.67,12.34-6.63,12.35"/>
    <path class="cls-1" d="M134.56,83.26c6.72-.71,12.82-4.49,12.79-10.55,0-3.74-5.26-8.11-9.22-3.38,2.26-5.44,11.71-2,11.77,4.18.1,8.7-7.28,12.39-14.54,12.89-10.17.7-14.21-1.4-18.71,1.28-1.14.67-1.54-3.26.11-4.12,4.39-2.3,8.76.14,17.8-.3"/>
    <path class="cls-1" d="M91.19,83.26c-6.73-.71-12.82-4.49-12.8-10.55,0-3.74,5.27-8.11,9.23-3.38-2.26-5.44-11.71-2-11.78,4.18-.09,8.7,7.29,12.39,14.55,12.89,10.17.7,14.21-1.4,18.71,1.28,1.14.67,1.54-3.26-.11-4.12-4.39-2.3-8.76.14-17.8-.3"/>
    <path class="cls-1" d="M95.12,64H95c-5.28,0-7.44.78-7.44.78-.24,0-.78.24-1.76.32a16.07,16.07,0,0,0,4.76,1.14c1.38.2,2.87.47,4.38.67l.06,0c.67.08,1.36.15,2.07.19h0c.42,0,.84,0,1.26,0h0a51.15,51.15,0,0,0,6.57-.66A19.82,19.82,0,0,0,95.12,64"/>
    <path class="cls-7" d="M90.6,65.64c-1.16-.18-1.93-.31-2.49-.43a26.79,26.79,0,0,1,4.76-.59,3.37,3.37,0,0,0,.9,1.52l-1.43-.23-1.74-.27"/>
    <path class="cls-7" d="M99.63,65.09A20.15,20.15,0,0,1,103,66.18a37.89,37.89,0,0,1-4.57.38,3.43,3.43,0,0,0,1.25-1.47"/>
    <polygon class="cls-8" points="178.09 160.69 169.69 166.77 160.22 162.53 159.15 152.21 167.56 146.13 177.03 150.37 178.09 160.69"/>
    <path class="cls-1" d="M169.72,167.4l-.12,0L159.82,163a.29.29,0,0,1-.17-.23l-1.1-10.66a.31.31,0,0,1,.12-.27l8.68-6.28a.3.3,0,0,1,.29,0l9.78,4.38a.27.27,0,0,1,.17.24l1.1,10.65a.28.28,0,0,1-.12.27l-8.68,6.28a.27.27,0,0,1-.17.06m-9.5-4.87,9.46,4.24,8.41-6.09L177,150.37l-9.47-4.24-8.41,6.08Z"/>
    <path class="cls-1" d="M100.88,99.28c2.14-1.23,3.21-3.34,1.65-5.79-1.07-1.67-30-11.67-34.42-13-2.32-.68-4.79,1.5-5.51,4.21s-.57,5.93,2.61,6.94c8.81,2.81,33.54,8.85,35.67,7.62"/>
    <path class="cls-9" d="M92.76,91.8c-2.85-1-11.84-3.29-15.35-5.38-1.56-.92.25-1.25,3.15-.64s13.2,4.6,14.67,5.08c1.72.56,1,2.11-2.47.94"/>
    <path class="cls-10" d="M68.21,86.3c-.9,2.38-2.61,3.93-3.84,3.47s-1.49-2.76-.59-5.14,2.61-3.93,3.84-3.47,1.49,2.76.59,5.14"/>
    <path class="cls-8" d="M67.2,85.92c-.49,1.29-1.42,2.14-2.09,1.89s-.81-1.5-.32-2.8,1.42-2.13,2.09-1.88.81,1.5.32,2.79"/>
    <path class="cls-7" d="M123.8,155.48c-13.37,5.05-17.58,13.18-17.58,21.09h17c4.81-5.65-2.33-11.53.62-21.09m-3.39,14.83a2.67,2.67,0,0,1-2.7,2.22l-.32,2.44-2.08-.27.32-2.41a9,9,0,0,1-2.28-.89l.84-1.86a7.68,7.68,0,0,0,2.52,1c.7.09,1.08-.09,1.14-.52.14-1.05-4.16-.68-3.74-3.85a2.63,2.63,0,0,1,2.63-2.17l.33-2.44,2.07.27-.32,2.41a10.06,10.06,0,0,1,2,.82l-.84,1.86a6.3,6.3,0,0,0-2.24-.88c-.65-.08-1,.1-1.07.47-.13,1,4.17.58,3.74,3.85"/>
    <path class="cls-1" d="M136.53,65.11s-2.5-1.68-7.78-1.72h-.14a17.24,17.24,0,0,0-9.78,3.1,51.15,51.15,0,0,0,6.57.66h0c2.6,0,10.51-.65,13.22-2.3-.83.08-1.85.26-2.09.26"/>
    <path class="cls-7" d="M123.94,64.68a3.4,3.4,0,0,0,1.4,1.88,39.41,39.41,0,0,1-4.87-.42,17.53,17.53,0,0,1,3.47-1.46"/>
    <path class="cls-7" d="M129.77,66.29a3.39,3.39,0,0,0,1.17-2.18,15.1,15.1,0,0,1,4.75,1.21,42.77,42.77,0,0,1-5.92,1"/>
    <path class="cls-7" d="M128.62,65c0,.35-.46.63-1,.63s-1-.28-1-.63.46-.62,1-.62,1,.28,1,.62"/>
    <path class="cls-7" d="M95.09,65c0,.35.45.63,1,.63s1-.28,1-.63-.46-.62-1-.62-1,.28-1,.62"/>
    <path class="cls-11" d="M50.36,32.27c-2.82-1.73-5.92-1.52-7.63.37C36.84,39.18,33.4,48.86,27.5,50.83c-8.12,2.71-13-15.27-13-15.27,3.66,0,6.26-3.45,7.76-6.5,2.43-4.92.5-16,1.15-19,.34-1.51,1.46-4.74,6.22-6.34C28,3.77,23.83,4,21.83,9.52c-1.19,3.31-2.46,17.14-4.75,20.18-1.43,1.75-8.17,1.21-8.17,1.21s.55,14.78,10.85,24.36c5.24,4.87,10.92,2.58,16.35-4s9.1-13.71,10.54-13.17c5,1.87,9,11.69,8.19,18.65L40.77,54s-.44,5.48,1.48,9.26A13.41,13.41,0,0,0,46.86,68C48.57,69.24,55.08,73,56,74.17a4.18,4.18,0,0,0,1,3.12c.79,1,4,3.18,9.26,1.78-2-.17-8.76-1.8-8-4.56.2-.77.66-1.72-2-3.81s-5.92-4.17-7.31-5.36-3.53-3.58-3.74-5.73C46.54,60,56.57,63,57.91,63.42c4.62-8.15,1-25.89-7.55-31.15"/>
    <path class="cls-4" d="M43.79,34.28C40.09,36.39,32,53.15,26.66,53.58c-1.61.12-6.57-1.15-11-9.9a35.39,35.39,0,0,1-3-9.5c4.43-.7,7.17-3.08,7.9-4.68a16.32,16.32,0,0,0,1.26-5c.2-1.67.37-11.54,1.12-14.69C23.57,6.91,28,4,29.62,3.68c-1.63.21-6.06,2.36-7.26,6-1.05,3.2-1.56,16.51-3,19.24-1.58,2.92-8.58,3.72-8.58,3.72s1.62,8.34,3.2,11.82c4.18,9.2,10.6,11.24,12.7,11.11,6.84-.4,15.47-17.23,18.76-18.89,6-3,13.55,13.7,10.65,22.21-.88-.25-13.81-3.07-13.81-3.07S42,60,43.43,62.67c2.3,4.25,7.44,6.63,9.09,7.67A12.92,12.92,0,0,1,56.71,74a3.37,3.37,0,0,0,.7,3,6,6,0,0,0,2.74,1.56,19.49,19.49,0,0,0,6.12.56,19.29,19.29,0,0,1-6-.9,5.53,5.53,0,0,1-2.47-1.54c-.63-.74-.47-2.88-.47-2.88A13.29,13.29,0,0,0,53,69.59c-1.62-1.11-6.89-4.2-8.44-7.53a10,10,0,0,1-1-4.46c2,.44,12.16,3,13.45,3.53,4.85-9.46-4.52-31.87-13.26-26.85"/>
    <polygon class="cls-7" points="171.78 175.75 170.55 157.66 152.49 156 170.58 154.76 172.25 136.71 173.48 154.8 191.54 156.46 173.45 157.7 171.78 175.75"/>
    <path class="cls-12" d="M132.78,35.83c2.18-.11,8.14,5.07,10.92,11.4-2.86-11.2-8.2-13.83-8.2-13.83l-1.1-10L133,32.45s-32.11,1.73-52,12.68c-.14.67-.31,1.75-.5,3.11,20.27-10.71,49-12.26,52.34-12.41"/>
    <path class="cls-1" d="M137.48,50.22c2.15-1.33,5.72,4.7,5.72,4.7s.89-6-4.37-8.53C139.24,45,141.3,45,141.3,45s-1-1.36-3.45-1.15c-3.8.55-6.81,6.47-9.71,8.5A8.59,8.59,0,0,0,127,46.87c-.43,3.51-1.84,5.48-3,8a13,13,0,0,0-3-6.54,15.55,15.55,0,0,1-1.64,12.6c5-1.48,16-9.36,18.08-10.66"/>
    <path class="cls-12" d="M124,54.82a43,43,0,0,0,2.41-5.39,8.52,8.52,0,0,0-.4-.8,17.33,17.33,0,0,1-2,6,.68.68,0,0,0,0,.14"/>
    <path class="cls-12" d="M137.48,50.22c-2.1,1.3-13,9.16-18,10.65a11.93,11.93,0,0,1-1,1.77c5-1.48,16-9.36,18.08-10.66s5.72,4.7,5.72,4.7a9.8,9.8,0,0,0-.29-3.6c-1.24-1.65-3.13-3.69-4.48-2.86"/>
    <path class="cls-12" d="M119.48,60.76a14.62,14.62,0,0,0,2.16-8.43A11.75,11.75,0,0,0,120.09,50a16.37,16.37,0,0,1-.61,10.72"/>
    <path class="cls-12" d="M105.44,62.15a88.69,88.69,0,0,1-17-3.79,32.26,32.26,0,0,1-5.77,3.86c-.41.51-.83,1-1.24,1.47,3.15-1,7.13-4.42,7.13-4.42a88.26,88.26,0,0,0,17,3.78c0-.33-.07-.63-.12-.9"/>
    <path class="cls-13" d="M137.31,105.66a51.5,51.5,0,0,0,3.75-5.63c-5.42,6.34-12.7,8.71-13.37,10.68-1.17,3.45-2.66,6.78-4.37,7.06-.22,0-9-.43-11.46-.43-3.15,0-10.78.46-11,.43-2.75-.45-4.64-6.49-6.52-10.48-2.06-2.44-7.06-4.87-10.37-6.28,1.24,3.33,2.35,5.75,3,6.42,2,2.15,5,4.26,6.65,5.69a20.85,20.85,0,0,1-6-3.93c2,3.75,1,10.91.92,12,13.69,11.5,42,2.89,46,.11-.08-2.3-.72-8,1-12.26-2.93,2.81-6.42,5.44-7.93,5.66,1.77-1.34,6.9-5.36,9.71-9"/>
    <path class="cls-6" d="M145.13,69.88c0-.43-.07-.87-.11-1.3-2.7-1-5.73-.61-6.89,2.17,2.33-2.78,5.11-2.41,7-.87"/>
    <path class="cls-6" d="M78.39,72.71a8.11,8.11,0,0,0,0,.86c.49-3.59,5.42-7.31,9.18-2.82-1.23-3-4.57-3.27-7.38-2a5.77,5.77,0,0,0-1.85,3.93"/>
    <path class="cls-6" d="M135.36,86.4c-10.17.7-14.21-1.4-18.71,1.28-.46.27-.8-.22-.93-1v.06a4.62,4.62,0,0,1,.11-1.92,6.93,6.93,0,0,1-4.25,1.26,6.84,6.84,0,0,1-1.56-.92,4.88,4.88,0,0,1,0,1.53h0c-.13.73-.47,1.22-.93,1-3.85-2.29-7.37-1.08-14.69-1.13a16.63,16.63,0,0,1-1.67,1.39C101.11,88.21,105,86.72,109,89c1.55.91,2.63-1.36,3.71-1.46s3.07,2.08,4,1.54c4.5-2.67,8.54-.57,18.71-1.28.31,0,.62-.06.92-.09a2.61,2.61,0,0,0,0-1.42l-.91.09"/>
    <path class="cls-6" d="M137.58,86.13a4.28,4.28,0,0,1,0,1.43,17.63,17.63,0,0,0,7.9-3.18c0-.48.07-1,.1-1.5a17.56,17.56,0,0,1-8,3.25"/>
    <path class="cls-6" d="M90.39,86.4c-4.55-.32-9.14-1.88-11.91-5.15.1.6.21,1.2.33,1.81,2.8,3,7.21,4.46,11.58,4.76l1.12.07c.84-.5,1.69-1,2.42-1.34-1.09,0-2.27-.06-3.54-.15"/>
    <path class="cls-6" d="M103.06,94.55c.71,2-.33,3.67-2.16,4.73l-.06,0,1.71.35c.76-.62,4.36-2.6,14.84-4.17,3.13-.47,8.92-1.62,11.39-2,.3-.6.53-1.12.68-1.48-4.91,1.29-14.85,2.79-16.63,3.16-1.22.24-5.41,0-9.77-.59"/>
    <path class="cls-11" d="M108,127.78a46.43,46.43,0,0,1-6.58-.45c.28.73.71,2,1.19,3.68a41.36,41.36,0,0,0,8.68.9c10.12,0,18.77-3.45,22.29-8.33a12.36,12.36,0,0,0,.51-1.13c-3.88,2-15,5.33-26.09,5.33"/>
    <path class="cls-11" d="M88.1,122c1.39,3,4.67,5.59,9.08,7.37,1-1.05,1.9-1.83,2.48-2.33A25.6,25.6,0,0,1,88.1,122Z"/>
    <path class="cls-3" d="M144.1,156.83a7.77,7.77,0,0,1,1.9-4.65c-3.23-5.36-4.58-6.57-4.25-14.5a22.83,22.83,0,0,1,2.45-8.81l-3.64-1.47a73.71,73.71,0,0,1,.21,11.7c-.4,6.33-1.45,14.66-6.68,21.22a72.51,72.51,0,0,0-10-3.84,15,15,0,0,0-.28,1.93c2.79,1.07,8.25,3.26,10.89,5.08,3-3.76,4.9-2,6.2,3.1-3.46,4.76-6.32,13.22-3.69,20.85-2.21,4-4,7.7-5.16,10.19a16.35,16.35,0,0,0,4.51-1.51l4.55-7.45c-3.14-10.54.6-17.54,4.42-21.62-1.36-1.74-1.87-5.2-1.47-10.22"/>
    <path class="cls-3" d="M80,178.59c4-1.63,21-9.93,21.61-2.28,1,.08,2.47.19,3.59.26a20.2,20.2,0,0,1,3.46-11.16c-7.33,2.16-18.57,5.75-26.95,9.61q-.93,1.8-1.71,3.57"/>
    <path class="cls-3" d="M189.28,192.82c-4.89,7-17.49,10.76-29.32,8.87-9.27-1.49-15.79-6.26-17.87-13.08-3.12-10.23.46-17,4.14-20.93a3,3,0,0,0,.88.49,16.6,16.6,0,0,0,.72,8.89c-.94,2.86-2.05,6.31.28,11.37,2,4.28,6.43,9.5,19.84,9.24,11.07-.21,16.36-6.65,18.52-10.37,2.86-4.91,3.17-9.92,2-12.15a47.78,47.78,0,0,0,1.06-7.32,10.57,10.57,0,0,1,.61-3.77c3.31,6.21,7.06,17.52-.86,28.76"/>
    <path class="cls-3" d="M82.18,127.05c-3.49,1.26-9.27,3.38-15.47,5.76a17.76,17.76,0,0,0-8.85,8.09A41.48,41.48,0,0,0,53.28,155a141.31,141.31,0,0,1,7.49-14.58c1.61-3,6.91-8,8-5.06S64.36,145,64.36,145l11.3,3.3-6.16,8.95s6,8.95,8.73,17.76c-4.94,9.69-6.4,22.87-6.69,26a7.51,7.51,0,0,0,1.65.32,72.53,72.53,0,0,1,7.7-26.64c-.31-1.18-3.53-12.73-8.66-18.08.44-.77,6.07-8,6.85-9.19,0,0-10.7-3.42-11.74-3.87a60.06,60.06,0,0,1,14.84-16.51"/>
    <path class="cls-3" d="M65.41,157.45c-7,12.28-6.76,31.5-6.57,36.56.74.09,1.55.15,2.45.17-.15-3.07.6-28.16,3.25-32.71-.35,4.24-2.59,15.68-2.35,33,.26.27,1,1,2,1.92.59-8.35,2.2-32.89,1.23-38.92"/>
    <path class="cls-11" d="M91.74,137.46c-.37.55-1.44,2.28-1.44,2.28s-4.23-5.08-5.08-11.2c-.18,1.33-.3,2.9-.39,4.62,1.14,2.52,3.26,7.37,5,8.64.44,2.39.49,2.77.49,2.77L85,149.74q.06,1.45.12,2.85c3.55-4.26,6.65-7.7,7.46-8.59a10.44,10.44,0,0,1-.79-6.54"/>
    <path class="cls-10" d="M94.81,142.56c-1.69-.15-2.17-2.54-2.32-4a8.84,8.84,0,0,0,.86,5.13l5.13,1.62c3.28-1.58,4.66-6.56,4.84-7.27-.25-1.43-.52-2.72-.78-3.88-.82,4.81-5.3,8.6-7.73,8.39"/>
    <path class="cls-10" d="M98.47,153.26c-.09-2.34-.32-6.07-.38-7.14l-4.89-1.55-.89,1a7,7,0,0,1,3.57,5.81c.18,1.9.25,3.07.26,3.81l.41-.36c.63-.53,1.28-1,1.92-1.56"/>
    <path class="cls-6" d="M146.68,151.54a9.63,9.63,0,0,1,3-1.83,12.21,12.21,0,0,1-1.55-13.88c.72-1.46,6.1-16.74,6-19.18a143.08,143.08,0,0,1,.77-22.25,38.77,38.77,0,0,0-1.71,9.44c-.77,10.59-4,17.09-6.61,22.32-2,4-3.69,7.4-3.87,11.55-.32,7.64,1.61,10.39,3.32,12.82.24.34.46.67.69,1"/>
    <path class="cls-6" d="M185.71,186.86c-2.07,3.56-7.15,9.58-17.78,9.93-12.22.4-17.08-4.52-19-8.72-2-4.42-1.35-9-.69-10.15a13.75,13.75,0,0,0,13,7.11c6-.22,15.92-2.52,22-4.67a8.35,8.35,0,0,0,4.66-4.23c.74,2.28.17,6.63-2.22,10.73"/>
    <path class="cls-6" d="M189.06,132.85c-1.78-4.84-10.49-7.2-14.89-7.25-2,0-6-3.46-7.08-4.22a13.42,13.42,0,0,1-1.34,2.89,12.27,12.27,0,0,0,.3,3.15,78.82,78.82,0,0,1,10.72-.62c.25,0,7.48,2.81,9.14,5.59,3,5,1.42,12.41,1.77,13.84s2.6,5.59,2,9-3.53,8.3-3.8,10.28.89,7.75-1.32,10.19a41.21,41.21,0,0,1-7.91,5.84c2.32-.64,4.5-1.32,6.34-2,6.26-2.21,5.68-11.55,5.68-11.64-.17-2.87.89-4.83,1.92-6.74a11.13,11.13,0,0,0,1.78-5.47c0-5.41-1.1-6.48-2.5-9.61,1-6.09.87-8.7-.79-13.22"/>
    <path class="cls-11" d="M123.8,155.48c-.71.27-1.39.55-2,.83-1.43,8.34,4.32,13.76-.12,19H106.26c0,.42-.05.85-.05,1.28h17c4.81-5.65-2.33-11.53.62-21.09"/>
    <path class="cls-14" d="M128.42,22.24l-.08,0,.08,0-.22-.11c-5.89-3.86-25.34-12.12-41.26.79,0,0,6.89-4.76,20.3-4.55A33.66,33.66,0,0,0,84.18,29s6.73-6.15,21.23-7.86A33.54,33.54,0,0,0,84,33.79S96.44,20,127.37,22.88a38.92,38.92,0,0,0-8.2-1.95,88.92,88.92,0,0,1,9,1.23l.27.08"/>
    <path class="cls-14" d="M146.77,38c.76,1.74,1.51,3.68,2.32,5.92-1.51-16.1-10.66-19.34-10.66-19.34,1.34,1.64,2.51,3.14,3.56,4.67a11,11,0,0,0-3.68-2.63A48.3,48.3,0,0,1,144,34.87a11.23,11.23,0,0,0-5-4.6c3.68,4.48,5.62,7.73,8.2,14.87a27.08,27.08,0,0,0-1.32-6.34c.64,1.5,1.29,3.17,2,5.09A32.74,32.74,0,0,0,146.77,38"/>
    <path class="cls-15" d="M84.64,126.38c-.75.49-1.48,1-2.19,1.52-.23,5.48-.79,24.83,1.69,41.07.55-.88.94-1.51.94-1.52-.11-1.33-2.6-31.45-.44-41.07"/>
    <path class="cls-15" d="M124.9,178.83c-.09-.75-.21-1.44-.32-1.43s-16.85.56-23.23-.3l-.2,1.37a159.85,159.85,0,0,0,23.75.36"/>
    <path class="cls-15" d="M86.66,170.05l0,0a60.5,60.5,0,0,1,11.64-13.23c5.14-4.32,10.62-8.35,15.93-12.24,9.65-7.09,18.17-13.34,21.54-19.35l2.26,2.43c1.66,20.24-4.51,30.83-4.34,31.51l0,0c8.3-10.48,6.23-30.44,6-32.3l-4.48-4.82c-1.86,6.26-11.25,13.16-22.06,21.09-5.33,3.91-10.84,7.95-16,12.32a62.59,62.59,0,0,0-14.43,17.69Z"/>
  </g>
</svg>
