<svg id="Layer_1" data-name="Layer 1" xmlns="http://www.w3.org/2000/svg" viewBox="0 0 320 320">
  <defs>
    <style>
      .cls-1 {
        fill: #13354c;
      }

      .cls-2 {
        fill: #fff;
      }

      .cls-3 {
        fill: #f2f2f0;
      }

      .cls-4 {
        fill: #a2aeb5;
      }

      .cls-5 {
        fill: #57c4ea;
      }

      .cls-6 {
        fill: #4092b5;
      }

      .cls-7 {
        fill: #d7dbdc;
      }

      .cls-8 {
        fill: #f0f2f2;
      }

      .cls-9 {
        fill: #4b6577;
      }

      .cls-10 {
        fill: #8abdd2;
      }
    </style>
  </defs>
  <title>9</title>
  <g>
    <g>
      <path class="cls-1" d="M270,229.56c-2-5.35-8.59-6.72-10.06-6.67a11.33,11.33,0,0,0-4-8.79,10.73,10.73,0,0,0-9.78-2.82,46.4,46.4,0,0,0-2-11c-2.44-7.6-6.87-12.91-13.19-15.77,0,0-16.41-7.39-18-13.18-1.28-4.73,8.6-19.53,9.37-19,7.83,5.1,15.38-.32,15.54-.44-9.28-1.21-9.41-8.92-9.4-10.2,1.26-1.3,8.78-11.14,11.4-36.45,2.81-27-12.47-45.5-30.06-49.79l0,0C181.65,39.47,155,56.88,150,62.18c-4,4.21-10.14,6.66-15.31,4.41-3.83-1.67-6.43-6.41-4.19-9.82s6.44-4.13,9.1-1.85c-1.69-3.69-7-3.26-10.37-.16-4.52,4.12-4.33,10.37-3.65,12.63,2.19,7.24,7.85,9.45,13.53,9.66-4.26,11.43-4.65,27.35-4.08,32.19a15.12,15.12,0,0,1-.72,7.11c-1,2.42-2.49,6-1.94,10.29-2.14,4-5,10.47-2.86,13.66,2.31,3.42,10.17,20,10.51,23.84.38,4.27,5.62,5.77,10.68,7.21,3.85,1.1,4.93,2.15,6,5.88.62,2.06.53,3.88-.25,5-.94,1.34-2.85,1.72-4.28,1.79-8.92.5-16.22,4.47-23.28,8.32-6.22,3.39-12.11,6.61-18,6.44-5.66-9-14.7-19-18.64-23.38l-.08-.09-.56-.62c1.78-2.46,5.29-7.69,4.83-10.13a10.35,10.35,0,0,1,.59-5.81c.67-1.68,4.95-4.77,2.87-7.24a8.35,8.35,0,0,0-5.38-3.12c8.77-12.47,12.24-24.78,12.24-25.42,0-2.53-2.5-3.68-9.82-4.54-.54-.08-14-1-20.11-1-29.93,0-29.93,3.88-29.93,5.57a3.75,3.75,0,0,0,.08,1.07,84,84,0,0,0,6.93,16.05c-4.1-1.45-8.15-1.76-10.31,1.15-2,2.67-1.42,4.83-.62,6.18,1.07,1.78,12.48,9.08,15,11.89-.09.33-.18.68-.26,1-1,.62-5.21,5.49-5.56,11.7-.17,3.11,6.48,8.69,13.35,12.44-3.86,1-8,2.87-8,6.06,0,5.56,11.8,6.6,17.2,6.78,2.43,7.92,6.27,18.47,11.35,26.6,0,.11-8.08.43-9.84,8.39-6.49-1.13-10.73,1.55-13.15,5.54-6.62,1.55-8.16,3.23-8.56,4.34a6.56,6.56,0,0,0-3.34,7.55c2.24,9,34.05,10.42,59.27,10.42,5.48,0,59.25-.25,61.9,2.41-.09.16-3.32,2.71-1.77,5.43,1.15,2,5.54,2.83,11.23,2.83a101.1,101.1,0,0,0,32.22-6c2.69-1,9.68-1.92,17.09-2.87,21.17-2.71,56.65-6.2,61.85-12.05,9.21-10.35-15.25-10.57-23.56-11.1Z"/>
      <path class="cls-2" d="M123.55,210.14a4.48,4.48,0,1,0,4.48,4.47,4.48,4.48,0,0,0-4.48-4.47m2,2.52a.47.47,0,0,1-.66.09,2.11,2.11,0,0,0-1-.44,2.19,2.19,0,0,0-2.5,1.86.48.48,0,0,1-.47.4h-.07a.47.47,0,0,1-.39-.54,3.16,3.16,0,0,1,3.56-2.66,3.21,3.21,0,0,1,1.48.63.47.47,0,0,1,.08.66"/>
      <path class="cls-3" d="M241.48,201.12c-2.18-6.81-6.11-11.54-11.66-14.06l-2.16-1c-8.65-3.89-15.47-7-17.39-14.05-1.62-6,2.25-11.66,7.59-19.52.72-1.05,1.46-2.14,2.21-3.27l.07-.11c-1.67-1.84-3.91-6.16-4.85-8.07-2.07.46-7,.6-7.36-5.7,1.9,5.11,5.53,5.1,7.13,4.68,6-1.8,12.12-16.08,8.44-22.65-4.09-7.31-10.47-1-10.47-1s-7.66,6.68-11.63,1c5,0,6.13-3.48,5.23-5.47-2.89,3.34-8.5,2.5-9.92-1.7,16.33-1.1,10.08-27.09-1.64-34.23C200.73,68,205.91,60.3,205.91,60.3s-9,8.5-14.29,14.36c-15.27-5.25-23.28-5.35-38.76,0A44.15,44.15,0,0,1,142.17,77c-4.4,10.82-4.89,27.14-4.32,31.91a17.59,17.59,0,0,1-.92,8.51c-1,2.34-2.27,5.53-1.69,9.15a3.77,3.77,0,0,1,2.37-.83,4.48,4.48,0,0,1,2.07.67s-3.08-1-4.45.93c-1.42,2.51-4.73,9.36-3.37,11.38,2.33,3.44,10.58,20.61,11,25.17.21,2.34,4.3,3.51,8.63,4.75,4.74,1.35,6.6,3.17,8,7.78.88,2.94.65,5.57-.65,7.42s-3.48,2.83-6.43,3c-8.29.45-15.31,4.27-22.09,8-6.41,3.49-12.49,6.8-18.95,6.8-.31,0-.63,0-1-.05a34.63,34.63,0,0,1,3,6.3.47.47,0,0,1-.3.59.4.4,0,0,1-.15,0,.47.47,0,0,1-.44-.32c-3.26-9.77-17.11-25.1-22.32-30.87-2.13-2.36-2.13-2.36-2-2.69a4.49,4.49,0,0,1,.58-.8c3.5-4.51,5.16-7.44,4.92-8.74a12.92,12.92,0,0,1,.74-7.36,12.65,12.65,0,0,1,2.84-4.28l.28-.31a5.27,5.27,0,0,0-4.05-1.94,9.52,9.52,0,0,0-5.4,2.39l-.08.08a70.48,70.48,0,0,1-8.38,8.14V185c7.08.46,14.79,2.81,14.79,5.57,0,3.18-8.89,4.91-17.33,4.94,2.36,7.84,6.19,18.61,11.27,26.81a9.89,9.89,0,0,1,19.26,3.21,10.24,10.24,0,0,1,16.64,6.58,9.89,9.89,0,0,1,1.3-1.39,68.1,68.1,0,0,1,8.77-11.06c-2.27-5.48,2.37-11.52,6.88-17.36.83-1.08,1.66-2.16,2.46-3.25a.47.47,0,1,1,.76.56c-.8,1.09-1.64,2.18-2.48,3.26-4.66,6-9.06,11.75-6.6,16.82a5.7,5.7,0,0,0,1.88,2.13.48.48,0,0,1,.16.65.48.48,0,0,1-.41.23.44.44,0,0,1-.24-.07,6.52,6.52,0,0,1-2-2.07,65.09,65.09,0,0,0-7.09,8.71,13.65,13.65,0,0,1,1.33-.6,10.78,10.78,0,0,1,9,.2,4.66,4.66,0,0,1,3.74-1.9,4.79,4.79,0,0,1,1.36.23,1.39,1.39,0,0,1,.15-1.52l4.33-5.46.37.36a26.61,26.61,0,0,0,7.89,5.46c2.08.84,3.38.65,3.85-.53.38-1-1.29-2.08-3.24-3.39-3.73-2.51-9.36-6.3-6.5-13.49,1.79-4.47,10.28-5.44,10.64-5.48a1.24,1.24,0,0,0,.89-.68l2.62-6.57a1.4,1.4,0,0,1,.76-.77,1.35,1.35,0,0,1,1.08,0l5.31,2.11a1.43,1.43,0,0,1,.79,1.84L169.28,206a62.56,62.56,0,0,1,5.29,3.93,1.45,1.45,0,0,1,.21,2l-4.35,5.45-.37-.37a22,22,0,0,0-6.95-5,4,4,0,0,0-2.88-.33,1.3,1.3,0,0,0-.7.75c-.34.84,1.26,1.88,3.12,3.09,3.83,2.5,9.61,6.27,6.62,13.79-1.85,4.6-10.54,5.56-10.91,5.6a1.23,1.23,0,0,0-.9.68l-2.11,5.28c5.36-4.16,13-8,21.62-10.82a13.46,13.46,0,0,1-6-3.65.47.47,0,0,1,.05-.67.49.49,0,0,1,.67.06,13,13,0,0,0,7,3.72,99.6,99.6,0,0,1,27.71-4.48c-.42-5.12-.66-8.69,1.87-22.84a.47.47,0,0,1,.55-.38.47.47,0,0,1,.38.54c-2.52,14.1-2.27,17.59-1.86,22.67a72.89,72.89,0,0,1,14.17,1.32.47.47,0,0,1,.37.55.47.47,0,0,1-.55.37c-23.84-4.73-52.95,4.12-66.25,15-4.26,3.49-6.61,7-6.84,10.09,9.93.14,20.89.21,33,.22-1.6-.6-3.11-1.19-4.51-1.75-5.79-2.32-10-4-13.65-2.6a.47.47,0,0,1-.34-.88c4-1.52,8.58.3,14.34,2.6,10.13,4.05,25.42,10.16,50.44,2.74,0,0,4.9,1.43,6.18.93,1.72-.68,1.82-4.33,1.82-4.33,4.95-8.57,11.18-32,6-48.23M123.55,220a5.42,5.42,0,1,1,5.42-5.41,5.42,5.42,0,0,1-5.42,5.41"/>
      <path class="cls-2" d="M152.93,242.94l-5.24-2.09a1.42,1.42,0,0,1-.78-1.84l2.56-6.42a.68.68,0,0,0-.26-.79l-3.43-2.46a4.63,4.63,0,0,1,.64,2.33,4.69,4.69,0,1,1-8.9-2,9.91,9.91,0,0,0-8.18-.1,9.11,9.11,0,0,0-6.23,9,9.14,9.14,0,0,1,3.52,4.67.46.46,0,0,1-.33.57l-.12,0a.48.48,0,0,1-.46-.35c0-.21-1.47-5.21-7.78-5.66a8.08,8.08,0,0,0-8.33,4.83.47.47,0,1,1-.88-.33,9,9,0,0,1,9.28-5.44,10.54,10.54,0,0,1,4.16,1.13,10.62,10.62,0,0,1,1.25-4.6,9.33,9.33,0,0,0-9.31-9.26,9.23,9.23,0,0,0-6.45,2.6.39.39,0,0,1-.14.08,9.9,9.9,0,0,1-9.78,8.56c-.32,0-.63,0-.95,0a.47.47,0,0,1-.42-.52.49.49,0,0,1,.51-.42A9,9,0,1,0,89,223.48a.46.46,0,0,1-.07.3c0,.29-.1.58-.13.88a9.31,9.31,0,0,0,0,1.67,9.2,9.2,0,0,1,2.74,1,.47.47,0,0,1-.46.82,8.36,8.36,0,0,0-12.49,7.16,10.3,10.3,0,0,1,5.13,9.2.47.47,0,1,1-.94,0,9.33,9.33,0,0,0-17.74-4.33s-.06.2-.1.21a8.82,8.82,0,0,0-.79,3,8.53,8.53,0,0,0,0,1.89.48.48,0,0,1-.42.52h0a.48.48,0,0,1-.47-.42,10.33,10.33,0,0,1,0-2.08,9.6,9.6,0,0,1,.62-2.64c-3.2.73-6.57,2-6.68,2.67a1.27,1.27,0,0,0,.41,1c3,3.31,21.81,7.17,89.72,8.15.2-3,2.13-6.22,5.64-9.46"/>
      <path class="cls-1" d="M119.07,187.1a16.67,16.67,0,1,1,16.67-16.67,16.68,16.68,0,0,1-16.67,16.67"/>
      <path class="cls-1" d="M227.33,172.56a6.6,6.6,0,1,1,6.6-6.6,6.61,6.61,0,0,1-6.6,6.6"/>
      <path class="cls-2" d="M227.33,161.48A4.48,4.48,0,1,0,231.8,166a4.49,4.49,0,0,0-4.47-4.48"/>
      <path class="cls-1" d="M129.61,133.16c-5.19-.61-9.93-3.58-10-8.25,0-2.88,4-6.2,7.09-2.52-1.79-4.21-9-1.61-9,3.12,0,6.7,5.73,9.61,11.34,10.06,7.86.63,15.67-.95,19.16,1.15.88.53,1.16-2.49-.12-3.17-3.41-1.81-11.47,0-18.45-.39"/>
      <path class="cls-1" d="M171.63,133.16c5.19-.61,9.92-3.58,10-8.25,0-2.88-4-6.2-7.09-2.52,1.8-4.21,9.05-1.61,9.05,3.12,0,6.7-5.73,9.61-11.34,10.06-7.85.63-15.66-.95-19.16,1.15-.88.53-1.16-2.49.13-3.17,3.4-1.81,11.46,0,18.45-.39"/>
      <path class="cls-1" d="M146.76,104.6s-5.9-2.33-3.46-7.79c-4.54,2.74-1.58,8.77-1.26,8.6a1.93,1.93,0,0,1-2.63-1.82,2.31,2.31,0,0,0,.84,3.52c-3.56-.36-4.64-2.51-4.64-2.51a7.32,7.32,0,0,0,.48,3c3.62,5.14,11.38,2.15,11.38,2.15s1.25-1.8-.71-5.11"/>
      <path class="cls-4" d="M222.38,129.19a9.29,9.29,0,0,0,.47-1.36,12.45,12.45,0,0,1-.47,1.36"/>
      <path class="cls-1" d="M160.92,125.44c.87-4.49-7.8-5.39-7.28-3.62-.78-2.64,8.58-2.5,8.36,3.48-.15,4.06-6.59,3.79-9.14,6.23.54-3.86,7.18-1.6,8.06-6.09"/>
      <path class="cls-1" d="M159.82,108.81c-2.13-4.19.35-5.68,2.78-7.44,4.73-3.42,3.24-8.26.11-8.07,1.89-1.08,6.58.23,6.58,6.9.3-3.93,5.2-4.42,2.52-7.84,1.67.36,4.09,2.32,2,6,4.23-7.38,16-1.83,15-8.19,3.92,5.68-3.46,11.3-11.3,11.54-15.81.49-17.64,7.12-17.64,7.12"/>
      <path class="cls-1" d="M147.79,143.76c1.14,1.83,2.67,1.76,3.83.13,3.94,2.34,7.77,1.63,16-3.85,3.38-2.25,5.14-4.59,12.11-6.15a63.65,63.65,0,0,0-12.08,7.7,30.56,30.56,0,0,1-17.33,5.64c-8.12-.42-10.75-9.19-14.64-11.32,5.73,2,7.26,9.68,12.13,7.85"/>
      <path class="cls-1" d="M136.69,144.84c-1.2-5.24-5-8.07-3.23-11.78,1.17-2.43,6-1.09,7.93-.36-1.49,0-5.91-1-7.11,1-1.11,2.43,1.82,5,2.41,11.11"/>
      <path class="cls-1" d="M162.17,124.46a9.6,9.6,0,0,1,4.55,5.06c.82,2,4.76,1.62,6,1.52s6.73-1.21,8.23-.7c3.15,1,2.31,4.64.53,8.06-1,2-2.82,6.31-5.45,12.58.33-3.19,1.71-6.89,3.53-11.42,1.24-3.08,3.42-6.92.93-7.7-1.63-.51-4.51.16-7.69.66-4.15.66-6.42-1.16-6.87-2.42a18.09,18.09,0,0,0-3.75-5.64"/>
      <path class="cls-1" d="M146.63,149.51s3.38,2.87,9.13,0c0,0-2,2.45-4.57,2.41a5.36,5.36,0,0,1-4.56-2.41"/>
      <path class="cls-1" d="M163.75,112.24a9.68,9.68,0,0,1,8.25-4.46c5-.11,14.59,3.75,14.88,3.84-2.73-.1-9.63-3.25-14.87-3.25a10.11,10.11,0,0,0-8.26,3.87"/>
      <path class="cls-1" d="M141.16,128.72c-.22-3.3,6.92-15.12,7.11-15.92a7.75,7.75,0,0,0-1.1-5.55,16.92,16.92,0,0,1,.25,4.94,14.38,14.38,0,0,0-3.77-.43c-3.51,0-5.62,1-6.61,3.17l-.18.39.42.1c.29.07.66.2,1.09.35a15,15,0,0,0,5.15,1.06,10.32,10.32,0,0,0,1.71-.15c-2,3.93-4.78,9.66-5.12,11.65-.54,3.17,7.95,5.22,12.75,3.2C148.15,132,141.27,130.42,141.16,128.72Z"/>
      <path class="cls-2" d="M137.87,114.86a4.27,4.27,0,0,1,2.34-1.88,3.86,3.86,0,0,0,1.48,3,17.91,17.91,0,0,1-3.09-.85c-.26-.1-.5-.18-.73-.25"/>
      <path class="cls-1" d="M213.34,121.91s3.91-5.13,7.92-2.23,1.12,9.51,1.12,9.51,1.69-6.59-2-8.27-7,1-7,1"/>
      <path class="cls-1" d="M146.76,104.6s-5.9-2.33-3.46-7.79c-4.54,2.74-1.58,8.77-1.26,8.6a1.93,1.93,0,0,1-2.63-1.82,2.31,2.31,0,0,0,.84,3.52c-3.56-.36-4.64-2.51-4.64-2.51a7.32,7.32,0,0,0,.48,3c3.62,5.14,11.38,2.15,11.38,2.15s1.25-1.8-.71-5.11"/>
      <path class="cls-1" d="M188.83,113.59l-5.39-.49a6.52,6.52,0,0,1-2.37-.95,14.71,14.71,0,0,0-4.85-1.64,18.28,18.28,0,0,0-2.39-.17,16.37,16.37,0,0,0-10.94,4.12s2.83,1.55,8.2,1.55c.34,0,.69,0,1,0h0l.67,0h.24l.76-.07.39,0,.73-.08.5-.07.71-.1.65-.12.59-.11h0c.79-.15,1.6-.34,2.45-.57a78,78,0,0,1,9-1.2"/>
      <path class="cls-2" d="M164.23,114.25a16.46,16.46,0,0,1,6.57-2.9,4,4,0,0,0-.3,1.47,3.89,3.89,0,0,0,.9,2.48h-.31a20.41,20.41,0,0,1-6.86-1.06"/>
      <path class="cls-2" d="M177.94,114.51a3.83,3.83,0,0,0,.41-1.69,3.48,3.48,0,0,0-.18-1.13,11.62,11.62,0,0,1,2.54,1.07,9.59,9.59,0,0,0,1.73.82,27.34,27.34,0,0,0-2.78.53c-.58.15-1.15.28-1.72.4"/>
      <path class="cls-2" d="M145.48,113.57c0,.49-.61.88-1.35.88s-1.35-.39-1.35-.88.6-.88,1.35-.88,1.35.39,1.35.88"/>
      <path class="cls-1" d="M82.55,170.31a.46.46,0,0,1-.37-.18A8.12,8.12,0,0,1,81,161.87a.48.48,0,0,1,.86.41,7.13,7.13,0,0,0,1.1,7.27.47.47,0,0,1-.08.66.46.46,0,0,1-.29.1"/>
      <path class="cls-1" d="M100.33,230.66a.47.47,0,0,1-.47-.41.48.48,0,0,1,.41-.53,4,4,0,0,0,1.91-.77,4.06,4.06,0,0,0,.83-5.68.47.47,0,0,1,.75-.56,5,5,0,0,1-1,7,5,5,0,0,1-2.37,1h0"/>
      <path class="cls-1" d="M98.66,245.51a2.14,2.14,0,1,1,2.14-2.14,2.14,2.14,0,0,1-2.14,2.14"/>
      <path class="cls-2" d="M98.66,242.17a1.2,1.2,0,1,0,1.19,1.2,1.2,1.2,0,0,0-1.19-1.2"/>
      <path class="cls-3" d="M52,151.07c-1.08-.65-2.1-1.28-3-1.94l-.4-.3A12.11,12.11,0,0,1,45.42,146c-.38-.62-.66-1.53.46-3,2.17-2.94,10,.75,13.92,3.13a79.48,79.48,0,0,0,7,8.87c-1.16.14-2.13.25-2.57.25h-.18c-1.68,0-2.79,1.23-3.52,2.74A33.38,33.38,0,0,0,52,151.07"/>
      <path class="cls-3" d="M55,172c0-1.46,1.81-6,2.55-7.74,1.68-2.26,4.94-2.92,6-2.37,2.81,1.49,6,3.81,6.51,5.83a2.06,2.06,0,0,1-.32,1.72c-.2.29-1,.67-2.46.78-2.14.14-4.33-.37-5.07-1.19a.47.47,0,0,0-.7.64c1.11,1.22,3.8,1.63,5.83,1.49.93-.07,2.57-.3,3.18-1.19a2.94,2.94,0,0,0,.45-2.47c-.41-1.68-2.12-3.27-3.83-4.5a36.23,36.23,0,0,0,6.37-1.65l.49.41v23.31l-1,.07-.08,0c-5-2.27-17.83-9-17.91-13.09"/>
      <path class="cls-2" d="M60.32,190.58c0-1.5,5.63-4,13.47-4.53-.38,1-1.05,2.31-1.78,2.31a.47.47,0,0,0,0,.94c1.88,0,2.82-3.35,2.92-3.73a.5.5,0,0,0,0-.12V161.56c0-.15-.37-.54-.47-.62A4.83,4.83,0,0,0,75.8,160a5,5,0,0,0,1-1.76s2.1,0,2.19-.1c5.85-4.75,14-12.11,20.14-30.76a.47.47,0,0,0-.33-.58.47.47,0,0,0-.58.33,62,62,0,0,1-5.14,12c-1.55-.45-3.37-1-5.63-1.81-2.74-.91-6.15-2-10.45-3.36-7.79-2.38-14-2-18.52,1a57.33,57.33,0,0,1-3-7.79.47.47,0,0,0-.91.25c4.15,12.41,9.76,20.8,16.06,27.07l-2.62.33a85.31,85.31,0,0,1-18-30.67c5.27,2.43,26.62,2.46,26.87,2.46s21.46,0,26.82-2.44c-1.33,4.2-8.15,23.53-24.8,37a.47.47,0,0,0-.18.37v23.89a.5.5,0,0,0,0,.12c.1.38,1,3.73,2.92,3.73a.47.47,0,1,0,0-.94c-.74,0-1.43-1.35-1.8-2.39,7.83.55,13.66,3.12,13.66,4.61,0,1.89-6.81,4-16.58,4s-16.58-2.11-16.58-4"/>
      <path class="cls-2" d="M267.42,241.91a1.78,1.78,0,0,1-.47,1.39c-2.28,2.71-12.27,4.76-30.5,6.27,4.13-7.31,8.07-21.43,8-34.68a8.29,8.29,0,0,1,9.64,1.3c4.69,4.25,2.72,9.06,2.63,9.26,0,0,0,0,0,.06a8.73,8.73,0,0,0-5.28,7.4.49.49,0,0,0,.44.51.48.48,0,0,0,.5-.44,7.84,7.84,0,1,1,6.2,8.24h0a5.42,5.42,0,1,0,0,1,8.7,8.7,0,0,0,1.61.16,8.76,8.76,0,0,0,6.27-2.64,4.19,4.19,0,0,1,1,2.21"/>
      <path class="cls-2" d="M257.6,241.87a4.48,4.48,0,1,1-4.48-4.48,4.48,4.48,0,0,1,4.48,4.48"/>
      <path class="cls-2" d="M119.07,156.66a13.78,13.78,0,1,0,13.78,13.77,13.79,13.79,0,0,0-13.78-13.77"/>
      <path class="cls-1" d="M138.11,240.78H138a.46.46,0,0,1-.39-.53,5,5,0,0,1,8-3.23.47.47,0,1,1-.57.74,4.11,4.11,0,0,0-1.91-.8,4.05,4.05,0,0,0-4.59,3.42.48.48,0,0,1-.47.41"/>
      <path class="cls-1" d="M254.48,220.79a.48.48,0,0,1-.47-.41,4,4,0,0,0-1.58-2.66,4.06,4.06,0,0,0-4.92,0,.47.47,0,0,1-.66-.08.47.47,0,0,1,.09-.66,5,5,0,0,1,2.34-1,5,5,0,0,1,5.67,4.23.49.49,0,0,1-.4.53h-.07"/>
      <path class="cls-1" d="M224.66,165.92h-.07a.46.46,0,0,1-.4-.53,3.15,3.15,0,0,1,5.05-2,.47.47,0,1,1-.58.74,2.22,2.22,0,0,0-2.67,0,2.25,2.25,0,0,0-.87,1.45.46.46,0,0,1-.46.41"/>
      <path class="cls-1" d="M251,241.11h0a.35.35,0,0,1-.3-.4,2.34,2.34,0,0,1,.94-1.57,2.4,2.4,0,0,1,2.89,0,.36.36,0,0,1,.06.51.36.36,0,0,1-.5.06,1.64,1.64,0,0,0-.78-.33,1.67,1.67,0,0,0-1.9,1.41.37.37,0,0,1-.36.31"/>
      <path class="cls-1" d="M110,168.6h-.07a.49.49,0,0,1-.4-.53,9.06,9.06,0,0,1,14.53-5.86.47.47,0,0,1,.09.66.47.47,0,0,1-.66.08,8.21,8.21,0,0,0-3.81-1.62,8.13,8.13,0,0,0-9.21,6.87.47.47,0,0,1-.47.4"/>
      <path class="cls-1" d="M157.55,187.93a1.88,1.88,0,0,1-1.86-1.64,13.42,13.42,0,0,1-.14-1.61,1.88,1.88,0,0,1,1.84-1.92h0a1.88,1.88,0,0,1,1.88,1.84s0,.47.11,1.21a1.89,1.89,0,0,1-1.63,2.11h-.24"/>
      <path class="cls-1" d="M170.61,201.78a16,16,0,0,1-2.26-.16,1.88,1.88,0,0,1,.54-3.73,10.57,10.57,0,0,0,1.74.12h.62a1.87,1.87,0,0,1,1.95,1.81,1.89,1.89,0,0,1-1.82,1.95c-.26,0-.51,0-.77,0m5.16-.59a1.88,1.88,0,0,1-.37-3.73c.79-.17,1.64-.37,2.51-.61a1.89,1.89,0,0,1,1,3.64c-1,.26-1.87.48-2.74.66a2.58,2.58,0,0,1-.39,0m-11.33-1.13a1.81,1.81,0,0,1-1-.29,14,14,0,0,1-2.45-1.91,1.88,1.88,0,1,1,2.63-2.7,10.17,10.17,0,0,0,1.8,1.41,1.89,1.89,0,0,1-1,3.49m18.26-.86a1.88,1.88,0,0,1-.63-3.66q1.22-.43,2.46-.93a1.88,1.88,0,1,1,1.39,3.5c-.87.35-1.74.67-2.59,1a2,2,0,0,1-.63.11m6.67-2.73a1.89,1.89,0,0,1-.79-3.6q1.2-.54,2.4-1.14a1.88,1.88,0,0,1,1.66,3.38c-.83.41-1.66.81-2.49,1.19a2,2,0,0,1-.78.17m-29.72-1.68a1.87,1.87,0,0,1-1.66-1,20.44,20.44,0,0,1-1.19-2.73,1.88,1.88,0,0,1,3.56-1.24,15.83,15.83,0,0,0,1,2.21,1.88,1.88,0,0,1-.79,2.55,1.85,1.85,0,0,1-.88.22m36.16-1.55a1.89,1.89,0,0,1-.9-3.54c.78-.42,1.55-.85,2.32-1.29a1.88,1.88,0,1,1,1.88,3.26c-.8.46-1.6.91-2.4,1.34a1.8,1.8,0,0,1-.9.23m6.23-3.63a1.89,1.89,0,0,1-1.6-.89,1.87,1.87,0,0,1,.6-2.59c.75-.47,1.5-.95,2.24-1.44a1.88,1.88,0,0,1,2.07,3.15L203,189.32a1.93,1.93,0,0,1-1,.29m6-4a1.88,1.88,0,0,1-1.1-3.41c.72-.52,1.43-1.05,2.13-1.58a1.88,1.88,0,1,1,2.29,3c-.73.55-1.47,1.1-2.22,1.64a1.88,1.88,0,0,1-1.1.36"/>
      <path class="cls-1" d="M213.71,181.15a1.86,1.86,0,0,1-1.44-.66,1.89,1.89,0,0,1,.22-2.66l1-.9a1.88,1.88,0,0,1,2.49,2.83l-1.1.94a1.85,1.85,0,0,1-1.21.45"/>
      <path class="cls-5" d="M87.06,138.21c-2.73-.91-6.14-2-10.43-3.35-7.64-2.33-13.68-2-18,1a64.41,64.41,0,0,0,13.07,18.47c3.58-.42,5.06-.46,5.5-.1a.59.59,0,0,1,.2.47,10.59,10.59,0,0,1-.25,2.6h1.24A59.91,59.91,0,0,0,92.69,140c-1.55-.45-3.38-1.06-5.63-1.81"/>
      <path class="cls-2" d="M175.62,112.69c0,.48-.61.88-1.36.88s-1.38-.4-1.38-.88.62-.88,1.38-.88,1.36.39,1.36.88"/>
      <path class="cls-3" d="M62.58,160.72a3.64,3.64,0,0,1,1.66.34c.7.37,1.36.75,2,1.16,2.2-.35,7.59-1.45,8.88-2.83,1-1.12,1.25-3.63,1.24-4.44a58.24,58.24,0,0,0-7.65.72c-2.18.28-3.9.5-4.56.48-2.24-.06-3.22,3-3.65,4.93a6.47,6.47,0,0,1,2.09-.36"/>
      <path class="cls-6" d="M150.35,232.94l-2.57,6.42a.47.47,0,0,0,.26.61l5.32,2.12a.47.47,0,0,0,.61-.26l2.61-6.56a2.22,2.22,0,0,1,1.68-1.27c.08,0,8.5-.93,10.13-5,2.71-6.81-2.47-10.18-6.25-12.65-2.3-1.49-4.11-2.67-3.49-4.23a2.21,2.21,0,0,1,1.21-1.26,4.75,4.75,0,0,1,3.6.32,22.41,22.41,0,0,1,6.89,4.8l3.69-4.63a.5.5,0,0,0-.07-.68,58.85,58.85,0,0,0-5.51-4.06l-.35-.21,3-7.66a.46.46,0,0,0-.26-.61L165.59,196a.45.45,0,0,0-.36,0,.47.47,0,0,0-.25.25l-2.62,6.56a2.19,2.19,0,0,1-1.67,1.27c-.08,0-8.29.95-9.86,4.9-2.59,6.48,2.26,9.74,6.15,12.36,2.37,1.59,4.25,2.86,3.59,4.52-.4,1-1.59,2.45-5.08,1.06a27.25,27.25,0,0,1-7.81-5.31l-3.7,4.65a.49.49,0,0,0,.08.68l5.67,4.07a1.63,1.63,0,0,1,.62,1.92"/>
      <path class="cls-2" d="M138.1,231.72a3.64,3.64,0,1,0,3.64-3.64,3.64,3.64,0,0,0-3.64,3.64"/>
      <path class="cls-1" d="M143.9,231.69H144a.38.38,0,0,0,.32-.43,2.55,2.55,0,0,0-2.89-2.16,2.56,2.56,0,0,0-1.21.51.38.38,0,0,0,.48.6,1.7,1.7,0,0,1,.84-.35,1.79,1.79,0,0,1,2,1.51.38.38,0,0,0,.37.33"/>
      <path class="cls-7" d="M143.69,225.14c-2.27-1.1-6.78-3.29-7.42-8.27-.74-5.68,6.44-12.05,7-14.12.23-.9.39-1.64.5-2.2L142,202.89c-4.66,6-9.06,11.75-6.6,16.81a5.65,5.65,0,0,0,1.88,2.14.47.47,0,0,1-.25.88.44.44,0,0,1-.24-.07,6.45,6.45,0,0,1-2-2.08,66.21,66.21,0,0,0-7.09,8.72,13.65,13.65,0,0,1,1.33-.6,10.78,10.78,0,0,1,9,.2,4.49,4.49,0,0,1,5.09-1.67,1.43,1.43,0,0,1,.16-1.53Z"/>
      <path class="cls-1" d="M78.35,152a1.58,1.58,0,0,1-.78-.21,1.7,1.7,0,0,1-.72-2.07c32.5-57.54,32.6-57.62,32.69-57.7s6.41-3.34,18.53-9.41a.72.72,0,0,1,.21,0,1.66,1.66,0,0,1,.52,3.25l-16.89,8.5-32.16,57a1.89,1.89,0,0,1-1.4.73"/>
      <path class="cls-6" d="M129.05,84.06h0a.74.74,0,0,0-.68-.6c-6.91,3.46-17.16,8.62-18.19,9.22-.77,1.31-10,17.57-18.38,32.44l1.69-.14,17.67-31.31a.41.41,0,0,1,.2-.19l17.08-8.59c.16-.06.69-.28.61-.83"/>
      <path class="cls-6" d="M91.24,126.11c-7,12.47-13.39,23.7-13.54,24a.77.77,0,0,0,.33.86.78.78,0,0,0,1-.23l14-24.72c-.6.06-1.17.1-1.69.14"/>
      <path class="cls-2" d="M69.59,136.18a3.15,3.15,0,1,0,3.14,3.15,3.15,3.15,0,0,0-3.14-3.15"/>
      <path class="cls-1" d="M69.59,142.71A3.38,3.38,0,1,1,73,139.33a3.39,3.39,0,0,1-3.38,3.38m0-6.29a2.91,2.91,0,1,0,2.91,2.91,2.91,2.91,0,0,0-2.91-2.91"/>
      <path class="cls-2" d="M72.73,143.21a1.42,1.42,0,1,0,1.42,1.42,1.42,1.42,0,0,0-1.42-1.42"/>
      <path class="cls-1" d="M72.73,146.28a1.65,1.65,0,1,1,1.65-1.65,1.65,1.65,0,0,1-1.65,1.65m0-2.83a1.18,1.18,0,1,0,1.18,1.18,1.18,1.18,0,0,0-1.18-1.18"/>
      <path class="cls-6" d="M267.62,239.8a4.53,4.53,0,0,1,.74,2,2.74,2.74,0,0,1-.69,2.08c-1.58,1.88-6.57,4.6-31.58,6.65-.13.4-.51,3.39-1.29,3.69a10.26,10.26,0,0,1-7.23-.53,79.27,79.27,0,0,1-22.49,3.47c-9,0-22-3.6-22-3.6q-19,0-35.16-.22a.76.76,0,0,1-.16,0,.58.58,0,0,1-.19,0c-55.81-.8-86.28-3.63-90.68-8.46a2.29,2.29,0,0,1-.65-1.53,8,8,0,0,0-1.2.85c-10.2,9.11,14.64,14.11,55.41,14.11s70.74-1.36,62.45,6.54c-6.34,6.05,22,5.34,40.46-1.75,9.79-3.75,85.26-5.23,79.15-18.55C291.74,242.58,267.62,239.8,267.62,239.8Z"/>
      <path class="cls-4" d="M195.87,76.46,194,79c7.51,4.49,12.82,16.4,11.6,24.91,3.18-8.15-1.91-22-9.77-27.48"/>
      <path class="cls-4" d="M150.91,77.78c15.81-5.37,25-5,40.62.31,3.2-3.51,9.93-11.29,9.93-11.29l4.45-6.5s-9,8.5-14.29,14.37c-15.27-5.26-23.28-5.36-38.76,0A44.15,44.15,0,0,1,142.17,77q-.58,1.44-1.08,3a46.72,46.72,0,0,0,9.82-2.22"/>
      <path class="cls-4" d="M177.46,101.71c-15.81.49-17.64,7.12-17.64,7.12a7.9,7.9,0,0,1-.69-1.87,5.24,5.24,0,0,0,.69,3.76s1.83-6.62,17.64-7.11c6.79-.21,13.22-4.45,12.29-9.27-.8,4-6.41,7.19-12.29,7.37"/>
      <path class="cls-7" d="M143.65,111.75a14.38,14.38,0,0,1,3.77.43,10.32,10.32,0,0,0,.07-2.51l0,0s-5.69,2.18-9.59-.42a20.11,20.11,0,0,1,0,4.43c1.16-1.33,3-2,5.81-2"/>
      <path class="cls-7" d="M135.23,127.32a44.44,44.44,0,0,0-2.73,5.88h.9a.84.84,0,0,1,.06-.14c1.17-2.43,6-1.09,7.93-.36-1.32,0-4.93-.79-6.57.45,3.37-.16,6.66-.49,9.3-.4a12.19,12.19,0,0,0,2.07-.55c-3.49-.43-6.41-1.94-6.08-3.87s3.13-7.72,5.12-11.65a11.53,11.53,0,0,1-1.71.15,15,15,0,0,1-5.15-1.06l-.84-.28a11.79,11.79,0,0,1-.6,1.92c-1,2.35-2.27,5.54-1.69,9.16a3.77,3.77,0,0,1,2.37-.83,4.48,4.48,0,0,1,2.07.67s-3.08-1-4.45.92"/>
      <path class="cls-4" d="M142,105.41c-.27.14-2.45-4.22-.27-7.21a6.93,6.93,0,0,1,.29-.79c-3.46,2.1-2.55,6.1-1.79,7.8a1.73,1.73,0,0,0,1.77.2"/>
      <path class="cls-7" d="M155.7,149.54l.06,0s-2,2.45-4.57,2.41A5.36,5.36,0,0,1,147,150a7.61,7.61,0,0,1-2.33-1.68c.93,1.9,2.87,4.66,6.49,4.73s6.5-4.73,6.5-4.73a19,19,0,0,1-2,1.19"/>
      <path class="cls-4" d="M222.58,128.66c-.12.33-.2.53-.2.53s1.69-6.59-2-8.27-7,1-7,1,.12-.15.33-.38a11.42,11.42,0,0,0-1.6,1.7s3.62-3,7.57-1.13,2.13,9.43,2.13,9.43a17.43,17.43,0,0,0,.81-2.87"/>
      <path class="cls-4" d="M206,115.63a3.56,3.56,0,0,0,.59-3.68,6,6,0,0,1-8,.89,13.19,13.19,0,0,1-2.65.45c1.42,4.2,7.22,5.5,10.11,2.34"/>
      <path class="cls-7" d="M162.72,247.41c4-1.52,8.58.3,14.34,2.6,10.13,4.05,25.42,10.16,50.44,2.74-13.7,1.76-24.43,2.54-46.16-4.84-13.08-4.44-23.11-4.06-29-3-2.52,2.63-3.91,5.19-4.09,7.56,9.93.14,20.89.21,33,.22-1.61-.6-3.11-1.19-4.51-1.75-5.79-2.32-10-4-13.65-2.6a.47.47,0,0,1-.34-.88"/>
      <path class="cls-7" d="M208.26,202.21c-5.15,6.48-3.89,11.56-14.33,18-8.79,5.45-21,4.78-23.87,4.65a12.35,12.35,0,0,1-.07,1.86,12.55,12.55,0,0,1-.72,2.59c-1.85,4.6-10.54,5.56-10.91,5.6a1.22,1.22,0,0,0-.9.67l-2.11,5.29c5.36-4.16,13-8,21.62-10.82a13.84,13.84,0,0,1-6-3.66.46.46,0,0,1,.05-.66.48.48,0,0,1,.67.05,13,13,0,0,0,7,3.72,99.23,99.23,0,0,1,27.71-4.47c-.42-5.12-.67-8.87,1.87-22.85"/>
      <path class="cls-7" d="M134.33,219.68c-2.27-5.48,2.37-11.52,6.88-17.36l1.31-1.71c-4.67,2.74-9.69,9.12-9.69,9.12a9.36,9.36,0,0,1-4.09,3.34h0a5.3,5.3,0,0,1,.23,1.56,5.42,5.42,0,0,1-10.1,2.72c-2.08,2.74-7.58-1.52-14.25-3.9s-13.54,1.72-15.73,2.38c-1.06.33-3.45-1.44-5.63-3.34a81.46,81.46,0,0,0,5.1,9.85,9.89,9.89,0,0,1,19.26,3.21,10.24,10.24,0,0,1,16.64,6.58,10.53,10.53,0,0,1,1.3-1.4,68.29,68.29,0,0,1,8.77-11"/>
      <path class="cls-7" d="M75.11,158.15c-1.29,1.38-10.17,2-10.87,1.67a3.64,3.64,0,0,0-1.66-.34,6.3,6.3,0,0,0-1.74.27c-.15.46-.26.92-.35,1.33a6.47,6.47,0,0,1,2.09-.36,3.64,3.64,0,0,1,1.66.34c.7.37,1.36.75,2,1.16,2.2-.35,7.59-1.45,8.88-2.83,1-1.12,1.25-3.63,1.24-4.44h-.08a6.08,6.08,0,0,1-1.16,3.2"/>
      <path class="cls-7" d="M74,168.67v-6.89l-.49-.41A36.23,36.23,0,0,1,67.15,163c1.71,1.23,3.42,2.82,3.83,4.5a2.94,2.94,0,0,1-.45,2.47c1.34,1.49,2.35-1.86,3.48-1.32"/>
      <path class="cls-8" d="M74.48,160.94c.1.08.47.47.47.62v-.88l-.47.26"/>
      <path class="cls-8" d="M92.82,189.59c-1.93,1.55-7.93,3-15.92,3s-14-1.42-15.92-3a1.52,1.52,0,0,0-.66,1c0,1.89,6.81,4,16.58,4s16.58-2.11,16.58-4c0-.3-.24-.63-.66-1"/>
      <path class="cls-7" d="M56.09,144.09c1.39,2.75,4.92,8.25,6.49,9.64-1.45,1.21-2.31,1.66-3.08,3.08a12.9,12.9,0,0,1,1,1.13c.73-1.51,1.84-2.74,3.52-2.74h.18c.44,0,1.41-.11,2.57-.25a79.48,79.48,0,0,1-7-8.87,42.05,42.05,0,0,0-3.71-2"/>
      <path class="cls-8" d="M130.19,162.32a13.55,13.55,0,0,1,.49,3.57,13.76,13.76,0,0,1-24.9,8.1,13.77,13.77,0,1,0,24.41-11.67"/>
      <path class="cls-8" d="M230.64,163a4.43,4.43,0,0,1-4.26,5.81,4.45,4.45,0,0,1-3.31-1.49,4.46,4.46,0,1,0,7.57-4.32"/>
      <path class="cls-8" d="M250.87,229.6a4,4,0,0,0,.55,3,8.71,8.71,0,0,1,5.24-7.13s0,0,0-.06a7.65,7.65,0,0,0,.47-3.24,9.51,9.51,0,0,0-6.27,7.39"/>
      <path class="cls-8" d="M253.12,236.44a5.43,5.43,0,0,1,5.38,4.77h0a7.83,7.83,0,0,0,6.94-13.41c1.77,4.84-1.65,9.11-5.92,7.84-2.8-.83-5,.31-6.51.8h.09"/>
      <path class="cls-8" d="M108.73,242.33a9.06,9.06,0,0,1,9.28-5.45,10.54,10.54,0,0,1,4.16,1.14,10.56,10.56,0,0,1,1.25-4.6,9.32,9.32,0,0,0-7.28-9c4.27,6.27-6.86,13-7.41,17.94"/>
      <path class="cls-8" d="M267.42,241.91a4.19,4.19,0,0,0-1-2.21,8.76,8.76,0,0,1-6.27,2.64,8.7,8.7,0,0,1-1.61-.16,5.41,5.41,0,0,1-10.82-.31c-10,3.37.4-9.64-3.31-27a82.79,82.79,0,0,1-4.56,26.94,55,55,0,0,1-3.39,7.74c16.93-1.32,28.21-3.44,30.5-6.27a1.83,1.83,0,0,0,.47-1.39"/>
      <path class="cls-1" d="M138.11,240.78H138a.46.46,0,0,1-.39-.53,5,5,0,0,1,8-3.23.47.47,0,1,1-.57.74,4.11,4.11,0,0,0-1.91-.8,4.05,4.05,0,0,0-4.59,3.42.48.48,0,0,1-.47.41"/>
      <path class="cls-8" d="M139.6,237a4.78,4.78,0,0,1,1.39-.7,4.61,4.61,0,0,1-3.47-6.59c-2.88,2.76-1.64,8.38.16,10.44A5,5,0,0,1,139.6,237"/>
      <path class="cls-7" d="M60.13,175.29a14.72,14.72,0,0,1-4.77-5.07A7.18,7.18,0,0,0,55,172c.08,4.05,13,10.83,17.91,13.09l.08.05,1-.07V182.6a69.93,69.93,0,0,1-13.88-7.31"/>
      <path class="cls-8" d="M100.75,218.29a9,9,0,0,1,3.49,1.08,8.88,8.88,0,0,0-5.66-2.78,9.15,9.15,0,0,0-6.7,2.14,9,9,0,0,0-3.07,7.59c3.83-7.87,9.45-8.27,11.94-8"/>
      <path class="cls-7" d="M159.5,176.41a9.06,9.06,0,0,1-.18,6.58c1.76,3.41,5.76,7.19,14.71,4,11.35-4,29.33-16,37.79-11.39a14.66,14.66,0,0,1-1.83-7.27c.38-4.73,3.67-9.59,7.91-15.82.72-1,1.46-2.14,2.21-3.27l.07-.11c-1.68-1.84-3.91-6.16-4.86-8.07-2,.45-6.85.58-7.32-5.43-1.15,11.39-1.6,16.75-4.27,17.82-2.39,1-12.89,2.52-22.08,2.26-2.12.19-5.78,7.5-11.68,10.21-8,3.68-10.75,3.26-26.85-1.27.94,1.84,4.57,2.88,8.4,4,4.73,1.36,6.6,3.17,8,7.79"/>
      <path class="cls-8" d="M100,241.68a2.14,2.14,0,1,1-3.44,1.69,2.13,2.13,0,0,1,.13-.71,2.8,2.8,0,0,0-.56,1.68,2.86,2.86,0,1,0,3.87-2.66"/>
      <path class="cls-8" d="M127.45,212.47a3.87,3.87,0,0,1,0,.49,4.46,4.46,0,0,1-8.38,2.14,4.46,4.46,0,0,0,8.9-.49,4.33,4.33,0,0,0-.57-2.14"/>
      <path class="cls-9" d="M157.39,184h0a1.88,1.88,0,0,1,1.88,1.84s0,.29.06.76a2,2,0,0,0,0-.74c-.09-.74-.11-1.2-.11-1.2a1.88,1.88,0,0,0-1.88-1.85h0a1.89,1.89,0,0,0-1.84,1.93s0,.32,0,.75a1.89,1.89,0,0,1,1.8-1.49"/>
      <path class="cls-9" d="M174,200a1.84,1.84,0,0,1,1.4-1.25c.79-.17,1.64-.37,2.51-.61a1.89,1.89,0,0,1,2.28,1.24,2,2,0,0,0,0-1.1,1.88,1.88,0,0,0-2.31-1.32c-.87.23-1.72.44-2.51.6a1.89,1.89,0,0,0-1.47,2.23,1.72,1.72,0,0,0,.07.21"/>
      <path class="cls-9" d="M182.06,196.8c.82-.29,1.64-.6,2.47-.93a1.88,1.88,0,0,1,2.45,1.06.32.32,0,0,0,0,.09,1.88,1.88,0,0,0-2.48-2.34c-.83.33-1.65.64-2.47.93a1.9,1.9,0,0,0-1.15,2.38,1.86,1.86,0,0,1,1.15-1.19"/>
      <path class="cls-9" d="M188.58,194.13q1.2-.54,2.4-1.14a1.89,1.89,0,0,1,2.52.86,1.25,1.25,0,0,1,.09.25,1.83,1.83,0,0,0-.09-1.43,1.88,1.88,0,0,0-2.52-.86c-.8.39-1.6.77-2.4,1.13a1.88,1.88,0,0,0-1,2.3,1.89,1.89,0,0,1,1-1.11"/>
      <path class="cls-9" d="M158,189.91a1.88,1.88,0,0,1,2.4,1.15,15.46,15.46,0,0,0,1,2.22,2.24,2.24,0,0,1,.12.29,1.89,1.89,0,0,0-.12-1.47,16.5,16.5,0,0,1-1-2.22,1.88,1.88,0,0,0-3.56,1.22,1.83,1.83,0,0,1,1.16-1.19"/>
      <path class="cls-9" d="M194.91,191c.78-.42,1.55-.85,2.32-1.29a1.89,1.89,0,0,1,2.58.69,2.07,2.07,0,0,1,.15.34,1.88,1.88,0,0,0-2.73-2.22l-2.32,1.3A1.86,1.86,0,0,0,194,192a1.9,1.9,0,0,1,.88-1.06"/>
      <path class="cls-9" d="M201,187.39c.75-.47,1.5-.95,2.24-1.44a1.89,1.89,0,0,1,2.61.54,1.93,1.93,0,0,1,.2.44,1.86,1.86,0,0,0-.2-1.63,1.89,1.89,0,0,0-2.61-.54c-.74.49-1.49,1-2.24,1.44a1.87,1.87,0,0,0-.78,2.2,1.81,1.81,0,0,1,.78-1"/>
      <path class="cls-9" d="M206.92,183.44c.72-.52,1.43-1.05,2.13-1.58a1.87,1.87,0,0,1,2.64.35,1.73,1.73,0,0,1,.28.56,1.88,1.88,0,0,0-2.92-2.1c-.7.53-1.41,1.06-2.13,1.58a1.86,1.86,0,0,0-.68,2.11,1.86,1.86,0,0,1,.68-.92"/>
      <path class="cls-9" d="M212.48,179.09l1.05-.9a1.88,1.88,0,0,1,3,.81,1.88,1.88,0,0,0-3-2l-1.05.9a1.89,1.89,0,0,0-.56,2,1.92,1.92,0,0,1,.56-.85"/>
      <path class="cls-9" d="M170.9,198.12a.46.46,0,0,1,.26.61l-.21.53h.3a1.85,1.85,0,0,1,1.84,1.29,1.66,1.66,0,0,0,.11-.67,1.89,1.89,0,0,0-1.95-1.81h-.45Z"/>
      <path class="cls-9" d="M161,196.46a1.89,1.89,0,0,1,2.67,0,9.53,9.53,0,0,0,1,.83l.37-.93a10.63,10.63,0,0,1-1.33-1.08,1.88,1.88,0,0,0-3.1,1.94,2,2,0,0,1,.43-.72"/>
      <path class="cls-8" d="M140.89,236.28l-.22,0,.06.1.16-.06"/>
      <path class="cls-8" d="M147.7,240.88a1.42,1.42,0,0,1-.78-.76,1.4,1.4,0,0,1,0-1.08l2.56-6.42a.68.68,0,0,0-.26-.79l-3.43-2.46a4.59,4.59,0,0,1,.64,2.32,4.67,4.67,0,0,1-3,4.35,5,5,0,0,1,2.2,1,.47.47,0,0,1,.09.66c-.16.21,1.06,10.58-6.81,12.63-7.23,1.89-10.9-1.75-12.54-4.79-.64,1.65-4.21,4.79-8.35,4.75-5.7,0-12.26-.77-19.7-1.06C87.21,248.76,85,235,78.6,235.34a10.3,10.3,0,0,1,5.13,9.2.47.47,0,0,1-.87.22h0a.39.39,0,0,1-.06-.24,9.18,9.18,0,0,0-.41-3c-.17,2-2.19,5.52-5.73,5.35-10.22-.5-10.79-6.06-10.82-8a12.46,12.46,0,0,0-1.67,4.49,17,17,0,0,0,0,1.89.47.47,0,0,1-.37.5h-.1a.48.48,0,0,1-.47-.42,10.42,10.42,0,0,1,0-2.09,10,10,0,0,1,.62-2.63c-3.2.73-6.57,2-6.68,2.67a1.28,1.28,0,0,0,.41,1c3,3.31,21.81,7.16,89.72,8.15.2-3,2.13-6.22,5.65-9.46Z"/>
      <path class="cls-4" d="M159.39,186.46a1.9,1.9,0,0,1-1.6,1.47h-.24a1.88,1.88,0,0,1-1.86-1.64c-.06-.43-.09-.76-.11-1a1.63,1.63,0,0,0,0,.39,13.5,13.5,0,0,0,.14,1.6,1.88,1.88,0,0,0,1.86,1.65l.24,0a1.88,1.88,0,0,0,1.63-2.11c0-.12,0-.21,0-.32"/>
      <path class="cls-4" d="M180.22,199.15a1.89,1.89,0,0,1-1.32,1.35c-1,.25-1.87.48-2.75.66a2.34,2.34,0,0,1-.38,0,1.87,1.87,0,0,1-1.81-1.4,1.92,1.92,0,0,0,0,.86,1.88,1.88,0,0,0,1.84,1.51,1.58,1.58,0,0,0,.38,0c.88-.18,1.8-.4,2.75-.66a1.88,1.88,0,0,0,1.32-2.31h0"/>
      <path class="cls-4" d="M185.92,198.12c-.87.34-1.74.67-2.59,1a2,2,0,0,1-.63.11,1.9,1.9,0,0,1-1.78-1.26s0-.11,0-.16a1.88,1.88,0,0,0,1.82,2.38,2,2,0,0,0,.63-.11c.85-.3,1.72-.63,2.59-1a1.87,1.87,0,0,0,1.12-2.23,1.87,1.87,0,0,1-1.12,1.27"/>
      <path class="cls-4" d="M192.64,195.12c-.83.41-1.66.81-2.49,1.18a1.81,1.81,0,0,1-.78.18,1.86,1.86,0,0,1-1.71-1.11,1.45,1.45,0,0,1-.11-.29,1.9,1.9,0,0,0,.11,1.26,1.87,1.87,0,0,0,1.71,1.1,2,2,0,0,0,.78-.17c.83-.38,1.66-.77,2.49-1.18a1.89,1.89,0,0,0,1-2.19,1.91,1.91,0,0,1-1,1.22"/>
      <path class="cls-4" d="M160.53,194.58a1.85,1.85,0,0,1-.88.22,1.87,1.87,0,0,1-1.66-1,20.44,20.44,0,0,1-1.19-2.73l0-.16a1.86,1.86,0,0,0,0,1.12,20.44,20.44,0,0,0,1.19,2.73,1.87,1.87,0,0,0,1.66,1,1.85,1.85,0,0,0,.88-.22,1.88,1.88,0,0,0,.94-2.15,1.88,1.88,0,0,1-.94,1.19"/>
      <path class="cls-4" d="M199.11,191.68c-.8.46-1.6.91-2.4,1.34a1.8,1.8,0,0,1-.9.23,1.88,1.88,0,0,1-1.65-1,1.29,1.29,0,0,1-.16-.41,1.87,1.87,0,0,0,1.81,2.36,1.9,1.9,0,0,0,.9-.22l2.4-1.34a1.89,1.89,0,0,0,.88-2.1,1.89,1.89,0,0,1-.88,1.13"/>
      <path class="cls-4" d="M205.35,187.84c-.77.51-1.54,1-2.31,1.49a1.93,1.93,0,0,1-1,.29,1.89,1.89,0,0,1-1.6-.89,2,2,0,0,1-.22-.52,1.88,1.88,0,0,0,1.82,2.37,1.84,1.84,0,0,0,1-.29l2.31-1.48a1.89,1.89,0,0,0,.78-2.06,1.89,1.89,0,0,1-.78,1.09"/>
      <path class="cls-4" d="M211.33,183.6c-.72.55-1.46,1.1-2.21,1.64a1.87,1.87,0,0,1-2.63-.43,1.61,1.61,0,0,1-.28-.61,1.87,1.87,0,0,0,.28,1.58,1.88,1.88,0,0,0,2.63.42c.75-.54,1.49-1.08,2.21-1.64a1.89,1.89,0,0,0,.68-2,2,2,0,0,1-.68,1"/>
      <path class="cls-4" d="M216,179.77l-1.1.94a1.87,1.87,0,0,1-3-1,1.88,1.88,0,0,0,3,1.93l1.1-1a1.87,1.87,0,0,0,.57-1.88,2,2,0,0,1-.57.92"/>
      <path class="cls-4" d="M162.75,199.3a14,14,0,0,1-1.75-1.43,1.93,1.93,0,0,1-.5-.86,1.89,1.89,0,0,0,.5,1.83,12.91,12.91,0,0,0,1.45,1.21l.3-.75"/>
      <path class="cls-4" d="M173.13,200.36a1.88,1.88,0,0,1-1.75,1.41H171l-.39,1h0c.26,0,.51,0,.77,0a1.9,1.9,0,0,0,1.82-2,2,2,0,0,0-.07-.42"/>
      <path class="cls-9" d="M215.25,71.77A69.38,69.38,0,0,1,226.31,97c3.47,15.39,3.35,16.4,3.35,16.4s6.61-27.59-14.41-41.58"/>
      <path class="cls-9" d="M220.51,70.65a57.82,57.82,0,0,1,9.2,20.95c2.88,12.8,2.79,13.32,2.79,13.32s5.49-22.63-12-34.27"/>
      <path class="cls-9" d="M226.68,73.44a36.07,36.07,0,0,1,5.73,13c1.79,8,1.73,8.5,1.73,8.5s3.42-14.3-7.46-21.54"/>
      <path class="cls-9" d="M190.66,60.36s-20.74-1.12-37.46,4c18.35-5.9,27.68-6.79,37.46-4"/>
      <path class="cls-9" d="M191.71,57.76s-18.11-1-32.71,3.47c16-5.15,24.18-5.93,32.71-3.47"/>
      <path class="cls-9" d="M194.79,54.7s-15.19-.82-27.43,2.91c13.44-4.32,20.27-5,27.43-2.91"/>
      <path class="cls-2" d="M111.66,207.48c-3.27-8.39-13.36-20.23-19.34-26.95,2.71,4,6.25,9.27,8.68,13.27,0,0,6.93,10.77,10.66,13.68"/>
      <path class="cls-10" d="M157.81,227.54a7.31,7.31,0,0,1-2.32-.57,27,27,0,0,1-7.81-5.3l-1.56,2A25.49,25.49,0,0,0,153,228.1c2.93,1.17,4.23.33,4.82-.56"/>
      <path class="cls-10" d="M174,210.7a58.59,58.59,0,0,0-5.52-4l-.34-.21,3-7.67a.47.47,0,0,0-.26-.61l-5.31-2.11a.45.45,0,0,0-.36,0,.49.49,0,0,0-.25.26l-.56,1.39,4,1.59a.46.46,0,0,1,.26.61l-3,7.66.35.21a56.12,56.12,0,0,1,5.51,4.06.5.5,0,0,1,.07.68l-2.12,2.65c.31.28.62.56.93.86l3.69-4.64a.5.5,0,0,0-.07-.68"/>
      <path class="cls-10" d="M162.14,216.39c-2.3-1.5-4.11-2.68-3.49-4.24a2.21,2.21,0,0,1,.18-.34,3.26,3.26,0,0,0-1.47.21,2.24,2.24,0,0,0-1.21,1.26c-.62,1.56,1.19,2.74,3.49,4.23,3.78,2.47,9,5.84,6.25,12.65a5.93,5.93,0,0,1-2.67,2.74c2.18-.76,4.41-2,5.17-3.86,2.71-6.81-2.47-10.19-6.25-12.65"/>
      <path class="cls-2" d="M155.07,243.32c-.67.54-1.27,1.09-1.83,1.63,5.78-3.47,20.11-11.42,35.06-13.89A245.55,245.55,0,0,1,219,227.87c-23.38-3.75-51.07,4.88-63.94,15.45"/>
      <path class="cls-2" d="M241.48,201.11c-2.18-6.8-6.11-11.54-11.66-14.06l-2.16-1a89,89,0,0,1-9.42-4.67c2.54,4.18,9.39,7.83,9.39,7.83,5.55,2.52,9.48,7.25,11.66,14.06,5.2,16.22-1,39.66-6,48.23a10.25,10.25,0,0,1-.35,2.24,2.08,2.08,0,0,0,.72-.1c1.72-.68,1.82-4.33,1.82-4.33,4.95-8.57,11.18-32,6-48.23"/>
      <polygon class="cls-2" points="158.04 235.97 163.78 227.23 156.06 220.17 164.81 225.9 171.87 218.18 166.13 226.93 173.85 233.99 165.1 228.25 158.04 235.97"/>
    </g>
    <g>
      <path class="cls-2" d="M90.64,125.26l2.52-4.46c-4.29-.33-9.77-.54-16.32-.54-16.71,0-26.64,1.61-27.11,2.73.47,1.06,10.4,2.67,27.11,2.67C82.11,125.66,86.75,125.51,90.64,125.26Z"/>
      <path class="cls-2" d="M96.74,121.13,94.58,125c6-.55,9.36-1.34,9.36-2S101.43,121.65,96.74,121.13Z"/>
    </g>
    <g>
      <path class="cls-1" d="M295.21,139.52a13.85,13.85,0,1,1,13.85-13.85,13.87,13.87,0,0,1-13.85,13.85"/>
      <path class="cls-2" d="M295.21,114.22a11.45,11.45,0,1,0,11.44,11.45,11.46,11.46,0,0,0-11.44-11.45"/>
      <path class="cls-1" d="M287.68,124.15h-.06a.4.4,0,0,1-.33-.45,7.52,7.52,0,0,1,12.07-4.86.39.39,0,1,1-.48.61,6.8,6.8,0,0,0-3.16-1.34,6.76,6.76,0,0,0-7.66,5.71.38.38,0,0,1-.38.33"/>
      <path class="cls-8" d="M304.45,118.93a11.61,11.61,0,0,1,.4,3,11.43,11.43,0,0,1-20.69,6.73,11.44,11.44,0,1,0,20.29-9.69"/>
    </g>
    <g>
      <path class="cls-1" d="M29.94,110.34a17,17,0,1,1,16.94-17,17,17,0,0,1-16.94,17"/>
      <path class="cls-2" d="M29.94,78.67A14.72,14.72,0,1,0,44.66,93.39,14.73,14.73,0,0,0,29.94,78.67"/>
      <path class="cls-1" d="M20.26,91.43h-.08a.51.51,0,0,1-.42-.57,9.68,9.68,0,0,1,11-8.19,9.74,9.74,0,0,1,4.54,1.93.51.51,0,1,1-.62.8,8.69,8.69,0,0,0-10.51-.1,8.66,8.66,0,0,0-3.4,5.7.5.5,0,0,1-.49.43"/>
      <path class="cls-8" d="M41.82,84.73A14.7,14.7,0,0,1,15.73,97.19,14.71,14.71,0,1,0,41.82,84.73"/>
    </g>
    <g>
      <path class="cls-1" d="M29.91,209.45a10.78,10.78,0,1,1,10.78-10.78,10.78,10.78,0,0,1-10.78,10.78"/>
      <path class="cls-2" d="M29.91,190a8.72,8.72,0,1,0,8.72,8.72A8.73,8.73,0,0,0,29.91,190"/>
      <path class="cls-1" d="M24.17,197.51h0a.3.3,0,0,1-.25-.34,5.74,5.74,0,0,1,6.5-4.85,5.76,5.76,0,0,1,2.7,1.14.3.3,0,1,1-.37.47,5.14,5.14,0,0,0-8.24,3.33.3.3,0,0,1-.3.25"/>
      <path class="cls-8" d="M37,193.54a8.71,8.71,0,0,1-15.46,7.38A8.72,8.72,0,1,0,37,193.54"/>
    </g>
    <g>
      <path class="cls-1" d="M261.9,82.41a6.8,6.8,0,1,1,6.8-6.8,6.8,6.8,0,0,1-6.8,6.8"/>
      <path class="cls-2" d="M261.9,70.43a5.18,5.18,0,1,0,5.19,5.18,5.19,5.19,0,0,0-5.19-5.18"/>
      <path class="cls-1" d="M258.5,74.92h0a.17.17,0,0,1-.15-.2,3.41,3.41,0,0,1,5.47-2.2.18.18,0,0,1-.22.28,2.94,2.94,0,0,0-1.44-.61,3.05,3.05,0,0,0-3.46,2.58.17.17,0,0,1-.17.15"/>
      <path class="cls-8" d="M266.09,72.56a5.41,5.41,0,0,1,.18,1.34,5.18,5.18,0,0,1-9.37,3,5.18,5.18,0,1,0,9.19-4.39"/>
    </g>
    <g>
      <path class="cls-1" d="M80.34,97.83A10.79,10.79,0,1,1,91.13,87,10.8,10.8,0,0,1,80.34,97.83"/>
      <path class="cls-2" d="M80.34,78.32A8.73,8.73,0,1,0,89.07,87a8.73,8.73,0,0,0-8.73-8.72"/>
      <path class="cls-1" d="M74.61,85.88h0a.3.3,0,0,1-.25-.34,5.75,5.75,0,0,1,9.2-3.71.3.3,0,0,1-.37.48,5.12,5.12,0,0,0-6.22-.06,5.12,5.12,0,0,0-2,3.38.29.29,0,0,1-.29.25"/>
      <path class="cls-8" d="M87.38,81.91a8.37,8.37,0,0,1,.31,2.25,8.71,8.71,0,0,1-15.76,5.13A8.72,8.72,0,0,0,89.07,87a8.62,8.62,0,0,0-1.69-5.13"/>
    </g>
    <g>
      <path class="cls-1" d="M284,206.25a26.49,26.49,0,1,1,26.49-26.49A26.51,26.51,0,0,1,284,206.25"/>
      <path class="cls-2" d="M284,156.55a23.22,23.22,0,1,0,23.22,23.22A23.24,23.24,0,0,0,284,156.55"/>
      <path class="cls-1" d="M268.75,176.68h-.12a.79.79,0,0,1-.67-.9,15.28,15.28,0,0,1,24.48-9.87.79.79,0,1,1-1,1.25A13.69,13.69,0,0,0,269.53,176a.79.79,0,0,1-.78.68"/>
      <path class="cls-8" d="M302.75,166.1a22.87,22.87,0,0,1,.82,6,23.19,23.19,0,0,1-42,13.65,23.2,23.2,0,1,0,41.14-19.65"/>
    </g>
  </g>
</svg>
