<?xml version="1.0" encoding="utf-8"?>
<!-- Generator: Adobe Illustrator 23.1.1, SVG Export Plug-In . SVG Version: 6.00 Build 0)  -->
<svg version="1.1" xmlns="http://www.w3.org/2000/svg" xmlns:xlink="http://www.w3.org/1999/xlink" x="0px" y="0px"
	 viewBox="0 0 1000 644.9" style="enable-background:new 0 0 1000 644.9;" xml:space="preserve">
<style type="text/css">
	.st0{fill:#4092B5;}
	.st1{fill:#13354C;}
	.st2{fill:#F2F2F0;}
	.st3{fill:#4B6577;}
	.st4{fill:#FFFFFF;}
	.st5{fill:#A2AEB5;}
	.st6{fill:#D7DBDC;}
	.st7{fill:#1E5E82;}
	.st8{fill:#CED4D6;}
	.st9{fill:#347999;}
	.st10{fill:#7199B0;}
	.st11{fill:#68A9C5;}
</style>
<g id="_x35_">
</g>
<g id="_x34_">
</g>
<g id="_x33_">
</g>
<g id="_x32_">
</g>
<g id="_x31_">
	<g>
		<path class="st0" d="M353.7,440.6c-8.7,3.4-18.3,5.9-28.5,7.1l-4.7-24c12-1.3,23.3-4.1,31.2-8.3c7.5-3.9,10-8.4,7.6-12.9
			c-5.9-11.3-45.5,22.2-63.3-11.7c-7.1-13.4-2.4-28.5,10.7-39.5l-13.8-26.2l22.2-11.7l13.6,25.7c7.7-2.7,16-4.6,25.3-5.8l4.7,24
			c-11,0.9-20.7,3.2-28,7c-7,3.7-9.4,8-7.3,12c5.6,10.6,44.9-23.3,63.3,11.7c7.3,13.8,2.5,29.2-11,40.4l13.8,26.2l-22.2,11.7
			L353.7,440.6z"/>
		<path class="st0" d="M634.6,404.7c-2.5,1.1-5.3,1.9-8.3,2.3l-1.5-7c3.5-0.4,6.8-1.4,9.1-2.6c2.2-1.2,2.9-2.5,2.1-3.8
			c-1.8-3.3-13.2,6.8-18.7-3c-2.2-3.9-0.9-8.4,2.9-11.7l-4.2-7.6l6.5-3.6l4.1,7.5c2.2-0.8,4.7-1.4,7.4-1.9l1.5,7
			c-3.2,0.3-6.1,1.1-8.2,2.2c-2,1.1-2.7,2.4-2.1,3.6c1.7,3.1,13.1-7.1,18.7,3c2.2,4,0.9,8.6-3,11.9l4.2,7.6l-6.5,3.6L634.6,404.7z"
			/>
		<path class="st0" d="M305.6,283.7c-2.5,1.1-5.3,1.9-8.3,2.3l-1.5-7c3.5-0.4,6.8-1.4,9.1-2.6c2.2-1.2,2.9-2.5,2.1-3.8
			c-1.8-3.3-13.2,6.8-18.7-3c-2.2-3.9-0.9-8.4,2.9-11.7l-4.2-7.6l6.5-3.6l4.1,7.5c2.2-0.8,4.7-1.4,7.4-1.9l1.5,7
			c-3.2,0.3-6.1,1.1-8.2,2.2c-2,1.1-2.7,2.4-2.1,3.6c1.7,3.1,13.1-7.1,18.7,3c2.2,4,0.9,8.6-3,11.9l4.2,7.6l-6.5,3.6L305.6,283.7z"
			/>
		<path class="st0" d="M368.1,261.9c-6.3-2.1-12.7-5.2-18.9-9.3l8.5-15.3c7.1,4.8,14.7,8.5,20.9,9.9c5.9,1.3,9.3,0,10.1-3.6
			c1.9-8.9-35.2-8.8-29.3-35.7c2.3-10.6,11.8-16.7,24.1-16.7l4.5-20.7l17.6,3.8l-4.4,20.4c5.5,2.1,10.9,4.9,16.5,8.5l-8.5,15.3
			c-6.5-4.6-12.8-7.8-18.6-9.1c-5.5-1.2-8.8,0.1-9.5,3.2c-1.8,8.4,35.3,8,29.3,35.7c-2.4,10.9-12.1,17.2-24.7,17.1l-4.5,20.7
			l-17.6-3.8L368.1,261.9z"/>
		<path class="st0" d="M671.2,433.8c-7.8-5.3-15.4-11.8-22.3-19.7l17.3-17.7c7.9,9.2,16.8,17,24.8,21.2c7.5,4,12.7,3.5,15.1-1.1
			c6-11.4-44.6-25.1-26.6-59.5c7.1-13.6,22.3-18.3,39-13.8l13.9-26.5l22.5,11.8l-13.6,26.1c6.7,4.9,13,10.7,19.4,17.8L743.4,390
			c-7.1-8.6-14.5-15.4-21.9-19.3c-7.1-3.7-12.1-3.2-14.2,0.8c-5.6,10.8,45.1,24,26.6,59.5c-7.3,14-22.8,18.9-39.9,14.1l-13.8,26.5
			l-22.5-11.8L671.2,433.8z"/>
		<path class="st0" d="M832.4,425.5c-5,2-10.4,3.6-16.3,4.3l-2.9-13.7c6.9-0.8,13.3-2.6,17.8-5.1c4.2-2.3,5.6-4.9,4.2-7.5
			c-3.5-6.4-25.9,13.2-36.4-6.1c-4.2-7.6-1.7-16.3,5.7-22.7l-8.2-14.9l12.6-6.9l8,14.6c4.4-1.6,9.2-2.8,14.5-3.6l2.9,13.7
			c-6.3,0.7-11.8,2-16,4.3c-4,2.2-5.3,4.7-4.1,7c3.3,6.1,25.5-13.8,36.4,6.1c4.3,7.9,1.7,16.7-5.9,23.3l8.2,14.9l-12.6,6.9
			L832.4,425.5z"/>
		<path class="st0" d="M679.1,305.4c-3.1-4.2-5.9-9-8-14.5l12.3-6c2.4,6.3,5.6,12,9,15.7c3.2,3.5,6,4.2,8.1,2.2
			c5.2-4.9-18.7-21.4-2.9-36.1c6.2-5.8,15.1-5.5,23,0l12.2-11.3l9.6,10.3l-12,11.1c2.6,3.8,4.8,8,6.8,12.9l-12.3,6
			c-2.1-5.8-4.7-10.8-7.9-14.2c-3-3.3-5.7-3.9-7.6-2.2c-5,4.6,19.2,21,2.9,36.1c-6.4,6-15.5,5.6-23.5-0.1l-12.2,11.3l-9.6-10.3
			L679.1,305.4z"/>
		<path class="st0" d="M197,339.8c-4.2-3.6-8.1-7.8-11.6-12.8l11.1-9.1c4,5.9,8.6,10.9,12.9,13.9c4.1,2.8,7.1,2.8,8.8,0.3
			c4.2-6.2-24.1-17.4-11.5-36c5-7.4,14.1-9.1,23.4-5.4l9.7-14.4l12.2,8.2l-9.6,14.1c3.5,3.2,6.8,7,10,11.5l-11.1,9.1
			c-3.5-5.4-7.4-9.8-11.4-12.6c-3.8-2.6-6.8-2.6-8.2-0.4c-4,5.9,24.5,16.8,11.5,36c-5.1,7.6-14.4,9.4-24,5.5l-9.7,14.4l-12.2-8.3
			L197,339.8z"/>
		<path class="st0" d="M178.2,451c-4.9,2-10.4,3.5-16.3,4.2l-2.8-13.7c6.8-0.8,13.3-2.5,17.8-4.9c4.2-2.3,5.7-4.8,4.3-7.4
			c-3.5-6.4-25.8,12.9-36.2-6.4c-4.1-7.6-1.5-16.2,5.9-22.6l-8-14.9l12.6-6.8l7.9,14.6c4.4-1.6,9.1-2.7,14.4-3.4l2.8,13.7
			c-6.3,0.6-11.8,1.9-15.9,4.1c-4,2.1-5.3,4.6-4.1,6.9c3.3,6,25.5-13.5,36.2,6.4c4.2,7.9,1.6,16.6-6.1,23.1l8,14.9l-12.6,6.8
			L178.2,451z"/>
		<path class="st0" d="M691.7,227.5c-3.6,0.8-7.5,1.2-11.6,1.1l-0.4-9.7c4.8,0.2,9.4-0.2,12.7-1.4c3.2-1.1,4.4-2.7,3.7-4.6
			c-1.7-4.8-19.1,6-24.1-8.3c-2-5.7,0.7-11.3,6.5-14.8l-3.8-11.1l9.4-3.3l3.8,10.9c3.2-0.6,6.6-0.8,10.3-0.8l0.4,9.7
			c-4.4-0.3-8.3,0-11.4,1.1c-3,1-4.1,2.6-3.6,4.3c1.6,4.5,19-6.5,24.1,8.3c2,5.9-0.7,11.6-6.7,15.2l3.9,11.1l-9.4,3.3L691.7,227.5z"
			/>
		<path class="st1" d="M838,431c-8.8-9.1-21.9-2.4-26.7,0.3c2-8.8-17.4-24-18-25c-3.4-5.3-6.8-10.8-12.6-12.1
			c-2.3-0.6-4.7-0.3-6.8,0.6c-2.9-3.1-6.2-4.4-8.4-4.9c-1.2-0.3-2.5-0.4-3.8-0.4c-4.1,0-8.3,1.3-12.1,3.7
			c-2.9,1.9-2.4,17.2-2.4,17.7c-0.5,3.6-23.5,33.5-24.9,37c-1.9,4.7-4,10.5-4.4,16.1c-0.3,0.1-5.6-5-5.6-5s-31.5,15-44.2,19
			c-1-1.3-26.7-39.1-26.1-43.8c0.5-4.5-2.9-6.1-6.2-7.7c-1.8-0.9-63.8-28.8-63.8-28.8s-0.6-24.1,0.3-31.8
			c6.8-7.1,22.7-26.7,25.8-57.9c0,0,1-10.2,1.3-13.7c0.9-1.9,8.3-17,9.1-22.3c0.1,0,0.1,0,0.2-0.1c3.5-1.4,8.4-3.2,12.1-5.4
			l13.7-8.2l-15.7-3.1c-2.3-0.5-4.2-1.1-5.7-1.7c5.4-2.4,21.6-20.9,21.6-20.9l-9.2-2.3c-9.1-2.3-12.1-18.5-15.4-35.7
			c-5.2-27.6-11.6-61.8-47-68.5c-18.7-14.3-64.6-30.1-104.8-11.4c-33.1,15.4-53.5,38-59.2,70.7c-3,17.3,10,66.3,9.9,66.6
			c-2.9,2.6-6.1,7.2-7,15.1c-0.8,6.5,1.2,15.5,5.9,26.8c0.8,8.5,2.6,32.2,13,51.5c6.3,11.6,12.5,19.2,15.8,22.4
			c0.7,7.5,0.5,26-1.7,29.9c-4.6,2.1-67.4,30.5-67.4,30.5s-1.6,14.9-27.2,49.7c-9.7-3.3-42-18.4-42-18.4l-5.8,6.2
			c0,0-1.3-11.7-6-17.8c-1-1.3-23.2-33.2-24.8-37.4c0-0.1,0-0.2,0-0.4c3.7-16.2-12.8-20.5-15.7-20.5c-0.9,0-1.8,0.1-2.6,0.3
			c-2.7,0.6-5.7,2.6-8.1,5.1c-2.2-1-4.8-1.3-7.2-0.7c-5.8,1.4-9.2,6.9-12.6,12.1c-0.6,1-20,16.2-18,25c-4.8-2.7-18.8-9.4-26.7-0.3
			c-3.9,4.5-2.9,10.9-1.4,14.8c1.5,3.6,6.3,8.4,14.4,14.3c-2.1,0.6-9.1,3-8.7,11c1,17.5,29.3,21.8,40.1,22.8
			c11.5,6.4,26.9,7.8,38,7.8c2,0,3.8,0,5.2-0.1l-9.5,15.5c0,0,79.9,36.3,102.9,45c2,1.9,11.7,11.6,21,2.7c3.7-3.5,4-9.5,3.9-13.5
			c5.2-4.4,18.1-14.6,31.5-23.9c1.1,4.5,10.1,40.8,11.1,42.1c1.5,1.8,39.4,26.2,84.7,26.2c45.3,0,83-24.5,83.4-24.8
			c2-1.3,11-36.6,12.7-43.5c13.2,9.1,26,19.2,31.3,23.7c-0.5,4.4,0.1,14.3,5.6,16.7c7.3,3.2,15.2-2.9,19.1-5.5l0,0
			c22.5-8.3,100.6-45.2,100.6-45.2l-8-14.5c1.4,0.1,33.5-2.2,45-8.6c10.8-1,39.3-5.2,40.1-22.8c0.3-7.7-6.6-10.4-8.8-11
			c12.3-8.9,13.9-12.7,14.5-14.3C840.9,441.9,842.1,435.2,838,431z M774.6,435.1c-0.1,0-0.1,0-0.2,0c-0.8,0-1.8-0.4-2.6-1
			c0.8-1.4,1.7-3,2.5-4.6c0.6,0.5,1.3,1.1,1.9,1.6C775.7,432.6,775,434.4,774.6,435.1z M234.2,435c-0.1,0-0.1,0-0.2,0
			c-0.4-0.8-1.1-2.5-1.6-4.1c0.7-0.5,1.3-1,1.9-1.6c0.8,1.6,1.7,3.2,2.5,4.6C236,434.5,235.1,434.9,234.2,435z"/>
		<path class="st0" d="M710.2,469.6c-1.3,0.6-34.7,15.3-43.4,18.7c-0.4,2.3-1.2,7.6-2.1,12.8c-0.6,3.5-1.3,7-1.8,9.6
			c-0.5,2.6-1,4.3-1,4.3s0.3-1.7,0.6-4.4c0.3-2.6,0.7-6.2,1-9.7c0.3-3,0.5-5.9,0.7-8.4c-1.1,2-2.4,4.2-3.9,6.4
			c-1.9,2.8-4.1,5.5-6,7.1c-1,0.8-1.9,1.4-2.6,1.7c-0.3,0.2-0.6,0.2-0.8,0.3c-0.2,0.1-0.3,0.1-0.3,0.1s0.1,0,0.3-0.1
			c0.2-0.1,0.5-0.2,0.8-0.4c0.6-0.3,1.5-1,2.4-1.8c1.8-1.8,3.6-4.5,5.2-7.5c1.6-2.9,3-6,3.9-8.3c0.3-0.8,0.6-1.5,0.9-2.1
			c-4.9-6.6-31.5-41.6-31.2-52.3l-49.2-23.4l17.2,30.9l-7.8,3.5c-3.8,12.7-1.9,22.3-0.2,30.9c1.9,9.7,3.6,18-4,27c0,0,0,0,0,0
			c0,0,0,0,0,0c0,0-0.1,0.1-0.1,0.1c-0.1,0.1-0.1,0.1-0.2,0.2c-0.1,0-0.2,0.1-0.3,0.1c-0.1,0-0.1,0-0.2,0.1
			c-2,0.3-45.8,6.1-56.9,6.9l1.8,8.2c13.1-0.1,52.9-5.9,53.3-5.9c0.7-0.1,1.3,0.4,1.4,1c0.1,0.7-0.4,1.3-1,1.4
			c-1.7,0.2-41.4,6-54.2,6c-0.2,0-0.4,0-0.5,0c-0.6,0-1.1-0.4-1.2-1l-2.3-10.6c-0.1-0.4,0-0.7,0.2-1c0.2-0.3,0.6-0.5,0.9-0.5
			c1.7-0.1,10.5-1.3,10.5-1.4c0-3.3,0.3-6.8,0.9-10.4l-35.7,12.2v77c39.7-0.4,73-20.6,77-23.1c0.2-1,13.9-57.3,20.4-81.4
			c0.2-0.7,0.9-1,1.5-0.9c0.7,0.2,1.1,0.9,0.9,1.5c-2.5,9.5-5.4,20.7-8.2,31.7c0.1,0,0.2,0,0.3,0.1c19.1,12.5,40.7,29.9,42.9,32.4
			c0.2,0.2-1.4,10.3,1.9,11.5c3.4,1.2,9.5-4.1,10.5-4.5c19.7-7.2,83.3-37.1,93.7-42.1L710.2,469.6z"/>
		<path class="st2" d="M429.3,341.3c-3.1-6.7-12.8-30.3-12-64.6c0.2-7.5,1.2-36,0.8-42.7c0.9-23.8,4.7-35,8.2-40.3
			c3.8,5.4,9.5,10.1,17.9,11.9c3.5,0.7,14.8,0.3,18.5-9c-8.2,5.5-16.2-2.5-17-7.4c-3.2-17.5,13.7-18.7,27.7-19.4
			c26.7-1.2,55.9,8.6,84.5-0.8c0.5-6.8,0.6-21.1,0.6-26.7l0.4,0l5.4,29.1c0,0,20.8,10.2,24.7,59.3l-1.1,23.4l0,0.1l0,0.1
			c1.1,11.7,2,23.4,2.3,35.1c0.1,2.9-3.4,28.8-5,34.5c-5.7,20.4-20.4,37.5-33.8,48.9c-0.6,0.5,0.1,1.4,0.7,1c4-2.6,7.6-5.3,11-8.2
			c-1.1,10.7-1.2,26.3-1.2,29.5c-3.3,2.8-13.1,7.3-24.3,10.9c-13.5,4.4-26,7-34.5,7c-18.9,0-52.1-12.2-58.7-17.9
			c0.2-3.1,1.2-16.5,0.4-26.8c2.4,2.7,6,5.8,13.1,9.8c0.8,0.5,1.6-0.6,0.9-1.2C448.1,367.7,435.7,355.2,429.3,341.3z"/>
		<path class="st2" d="M260.4,492.7c-2.8,0.2-28.2,1.7-42.4-7.2c-0.2-0.1-33.7-2.4-34.4-15c0-0.6,0.1-1,0.6-1.3
			c3-2.5,14.8-1.5,26.2,0.7c0.1,0,0.1,0,0.2,0c1.8,0.3,3.5,0.7,5.2,1.1c0.7,0.2,1.3-0.3,1.5-0.9c0.2-0.7-0.3-1.3-0.9-1.5
			c-1.8-0.4-3.6-0.8-5.2-1.1c-24.5-14.4-37.3-24.6-33.9-30.4c3.4-5.7,13.5,0.3,19.9,4.1c2.7,1.6,10.5,6.8,14.9,8.4
			s11.9,1.9,12.2,1.9c0.7-0.1,1.2-0.7,1.1-1.4c-0.1-0.7-0.7-1.2-1.4-1.1c-0.1,0-5.5,0.6-10.5-1.5c-1-2.2-5.8-12.7-7.5-17.8
			c-1.3-3.6,4.3-8,9.2-11.9c3.1-2.4,6.1-4.8,7.5-7c2.7-4.3,5.1-7.8,7.3-8.4c1.5-0.4,3.2,1.2,4.2,3.7c1.7,4.5,0.2,14.3-12.5,20.9
			c-0.3,0.2,3.7,9.4,4.7,11.5c1.6,3.3,4.7,5.1,8.5,4.9c5.2-0.2,10.5-4.7,12.3-9.5c0.3-0.7-13.4-21.5-7.5-31c1.7-2.8,3.6-4.4,5.6-4.8
			c2.1-0.5,4.6,0.2,7.8,2.2c0.2,1.1,0,9.5,0,10.6c0.1,5.8,8.6,16.8,16,26.6c4.3,5.6,8.4,10.9,9.5,13.5c2.2,5.3,4.5,12,3.7,17.1
			c-0.2,0.9,7.4,4.8,9.1,5.7l-21.4,25.4C269.7,499.2,260.7,492.7,260.4,492.7z"/>
		<path class="st2" d="M831.4,442.5c-0.9,2.3-9.3,10.5-34.1,25.1c-1.6,0.3-1.1,2.8,0.5,2.4c0.1,0,0.1,0,0.2,0
			c11.5-2.2,26.3-3.6,27,0.6c1.9,10.7-34.2,14.9-34.4,15c-14.3,8.9-39.6,7.4-42.4,7.2c-0.3,0-9.6,6.7-9.6,6.7L717.2,474
			c1.5-0.9,9.6-5,9.4-5.9c-0.8-5,1.5-11.8,3.7-17.1c1.1-2.6,5.1-7.9,9.5-13.5c7.5-9.7,16-20.8,16-26.6c0-1.1,0-2.5-0.1-4
			c-0.1-2.2-0.1-5.5,0-6.5c3.2-2,5.6-2.7,7.8-2.2c2,0.5,3.9,2,5.6,4.8c5.9,9.5-2.7,23.3-5.9,28.5c-1.3,2.1-1.5,2.5-1.3,3.2
			c1.8,4.9,6.8,8.6,12,8.8c3.8,0.2,6.9-1.6,8.5-4.9c1-2.1,3.1-8,4.2-10.2c0.2-0.3,0.2-0.6,0.1-0.9c-0.1-0.3-0.3-0.6-0.6-0.7
			c-12.7-6.6-13.2-16-11.6-20.6c1-2.6,2.7-4.1,4.2-3.7c2.2,0.5,4.6,4.1,7.3,8.4c1.4,2.2,4.4,4.5,7.5,7c4.9,3.9,10.5,8.2,9.2,11.9
			c-1.7,5-6.5,15.5-7.5,17.8c-5,2.1-10.4,1.5-10.5,1.5c-0.7-0.1-1.3,0.4-1.4,1.1c-0.1,0.7,0.4,1.3,1.1,1.4c0.3,0,8.2,1,14.3-3
			l0.9-0.5c2.5-1.4,9.2-5.2,11.9-6.8c6.4-3.8,9.9-5.9,14.9-6.4c2.2-0.2,3.8,0.2,4.7,1.4C832.3,437.8,832.1,440.6,831.4,442.5z"/>
		<path class="st1" d="M493.5,366.9c1.4,1,4.2,3.7,9.5,3.7c5.3,0,9.5-3.7,9.5-3.7C500.6,369.8,493.5,366.9,493.5,366.9"/>
		<path class="st1" d="M584.1,312c17.2,0,39.3-12.1,40.6-26.1c0.8-8.7-10.4-20-20.7-10c6.5-12.1,27.6-1.8,26.4,12.4
			c-1.8,20.2-28.3,31.6-45.2,31.2c-23.8-0.7-52.2-11-63.3-5.9c-2.8,1.3-2.8-7.9,1.2-9.5C533.8,299.7,566.9,312,584.1,312"/>
		<path class="st1" d="M425.7,312c-17.2,0-39.3-12.1-40.6-26.1c-0.8-8.7,10.4-20,20.7-10c-6.5-12.1-27.6-1.8-26.4,12.4
			c1.8,20.2,28.3,31.6,45.2,31.2c23.8-0.7,52.2-11,63.3-5.9c2.8,1.3,2.8-7.9-1.2-9.5C475.9,299.7,442.8,312,425.7,312"/>
		<path class="st1" d="M527.6,288.4c0,0,7.5,3,10.9,11.4c1.8,4.5,10.7,3.7,13.5,3.4c2.8-0.2,15.1-2.7,18.5-1.6
			c7.1,2.4,5.2,10.4,1.2,18.1c-2.3,4.5-6.3,14.2-12.3,28.3c0.7-7.2,3.8-15.5,7.9-25.7c2.8-6.9,7.7-15.6,2.1-17.3
			c-3.7-1.2-10.1,0.3-17.3,1.5c-9.3,1.5-14.4-2.6-15.5-5.4C534.3,294.5,527.6,288.4,527.6,288.4"/>
		<path class="st1" d="M491.9,299.3c0,0,0.4,0.2,1.1,0.5c0.7,0.3,8.3,3.9,11.4,3.9c3.1,0,10.3-3.9,11.1-4.1c0.7-0.2,1.2-0.4,1.2-0.4
			s-6.5,6.8-11.9,6.8c-5.4,0-11.4-5.4-12-5.9C492.1,299.6,491.9,299.3,491.9,299.3"/>
		<path class="st1" d="M484.1,294.6c-5.1-3,0.4-15.3,3.4-19.7c-4.1,4.7-11.2,13.8-4.7,20.6c1.6,1.6,3.3,1.5,9,3.7
			C491.9,299.3,487.2,296.5,484.1,294.6"/>
		<path class="st1" d="M524.3,294.6c5.1-3-0.4-15.3-3.4-19.7c4.1,4.7,11.2,13.8,4.7,20.6c-1.6,1.6-3.3,1.5-9,3.7
			C516.5,299.3,521.2,296.5,524.3,294.6"/>
		<path class="st1" d="M480.7,288.9c0,0-3.8,2.4-7.2,10.9c-1.8,4.5-10.7,3.7-13.5,3.4c-2.8-0.2-15.1-2.7-18.5-1.6
			c-7.1,2.4,2.4,26.8,8.3,40.8c-0.7-7.2-12.9-35.6-7.3-37.4c3.7-1.2,10.1,0.3,17.3,1.5c9.3,1.5,14.4-2.6,15.5-5.4
			C477.6,294.5,480.7,288.9,480.7,288.9"/>
		<path class="st1" d="M488.3,240.1c-9.7-6.4-10.7-14.2-9.4-25.2c-6.7,4.7-8.4,9.3-9,13c-2.7-2.9-7.4-8.5-9.2-13
			c-2.8,3.1-3,5.5-3.3,8.8c-14.2-10.5-40.1-4.3-31.7,14.6c-2.3-12.9,16.2-12.1,25.9-8.1C466.9,236.6,482.6,245.4,488.3,240.1"/>
		<path class="st1" d="M519.6,240.1c9.7-6.4,10.7-14.2,9.4-25.2c6.7,4.7,8.4,9.3,9,13c2.7-2.9,7.4-8.5,9.2-13c2.8,3.1,3,5.5,3.3,8.8
			c14.2-10.5,40.1-4.3,31.7,14.6c2.3-12.9-16.2-12.1-25.9-8.1C540.9,236.6,525.2,245.4,519.6,240.1"/>
		<path class="st1" d="M555.7,230.8c-10.9-0.3-43.5,3.3-43.5,3.3l-8.8,0.4l-8.8-0.4c0,0-32.6-3.6-43.5-3.3
			c-27.4,0.6-43.2,6.9-43.2,6.9v16.4c0,0,3.8,0.5,4.7,1.3c1.9,1.5,2.4,3.5,2.7,4.9c1.1,6,3.4,15.4,6,19.8
			c6.1,10.4,18.9,13.4,26.3,13.8c21,1.2,31.3-8,37.9-16c4.7-5.7,7.1-19.8,11-25.6c2.7-4,4.6-4.5,6.8-4.5c2.4,0,4.2,0.4,6.8,4.5
			c3.9,5.8,6.3,19.9,11,25.6c6.5,7.9,16.9,17.2,37.8,16c7.4-0.4,20.2-3.5,26.3-13.8c2.6-4.5,4.9-13.9,6-19.8
			c0.3-1.4,0.8-3.3,2.7-4.9c1-0.8,4.7-1.3,4.7-1.3v-16.4C598.9,237.7,583,231.4,555.7,230.8"/>
		<path class="st3" d="M583.5,267c-4,13.7-10.6,17.7-16.8,18.9c-24.6,5-35.2-4.9-40.2-11.6c-8.2-11.1-6.5-25.8-6.5-25.8
			s10.6-14.1,43.2-11.5c17.5,1.4,21.2,9.2,21.2,9.2S585.2,261.2,583.5,267"/>
		<path class="st3" d="M480.2,274.3c-5,6.8-15.6,16.6-40.2,11.6c-6.2-1.3-12.8-5.2-16.7-18.9c-1.7-5.8-1-20.8-1-20.8
			s3.7-7.8,21.2-9.2c32.6-2.6,43.2,11.5,43.2,11.5S488.4,263.2,480.2,274.3"/>
		<path class="st1" d="M532.2,315.7c-0.9,0-18.8,2-20.6,2c-1.7,0-4.7-1.7-4.7-1.7s-1.5,3.7-3.6,3.7s-3.6-3.7-3.6-3.7s-3,1.7-4.7,1.7
			c-1.9,0-19.7-2-20.6-2c-8.5,0-28.9,3.1-28.9,3.1s5.9,6.2,8.1,10.1c4.5,8.1,10.7,19.2,18.1,23.2c10.5,5.7,24.6,9.2,31.7,9.2
			c7,0,21.1-3.5,31.7-9.2c7.3-4,13.5-15.1,18.1-23.2c2.2-3.9,8.1-10.1,8.1-10.1S540.7,315.7,532.2,315.7"/>
		<path class="st4" d="M503.4,327.3c-1.6,0-42.7-6.6-51.1-6.5c1.1,1.7,6.8,11.9,8.6,14.9c4.1,1,12.7,3,17.7,3.9
			c6.9,1.2,17.8,3.3,24.8,3.3c7,0,17.9-2.1,24.8-3.3c5-0.9,13.6-2.9,17.7-3.9c1.8-2.9,7.5-13.2,8.6-14.9
			C546.1,320.8,505,327.3,503.4,327.3"/>
		<path class="st4" d="M528.4,340.9c-7,0.8-18,2.4-25,2c-7,0.5-18-1.2-25-2c-4.5-0.5-12.4-1.8-15.6-2.4c3,4.5,11.7,11.3,12.5,11.7
			l0.6-1.3l0.7,1.4c0.2,0.4,0.5,0.7,1,0.9c3,1.3,6.1,2.5,9.2,3.4c0.7,0.2,1.4-0.1,1.7-0.8l0.4-0.8l1,2c0.2,0.4,0.5,0.6,0.9,0.7
			c3.8,1,7.4,1.7,10.2,2c0.7,0.1,1.3-0.3,1.6-0.9l0.9-2l1,2.1c0.3,0.6,0.9,0.9,1.5,0.9c2.8-0.3,6.2-0.9,9.9-1.9
			c0.4-0.1,0.8-0.4,1-0.9l0.9-2l0.4,0.8c0.3,0.7,1.1,1,1.8,0.8c3-0.9,6.1-2.1,9-3.3c0.4-0.2,0.7-0.5,0.9-0.9l0.7-1.6l0.7,1.4
			c0.9-0.4,9.7-7.4,12.8-11.9C540.7,339.1,532.9,340.4,528.4,340.9"/>
		<path class="st5" d="M448.9,275.7c-2.5-0.3-5.1-0.9-7.7-1.9l1.9-6.3c3,1.2,6.1,2,8.5,2c2.3,0,3.4-0.7,3.5-2.1
			c0-3.4-13.7-0.5-13.7-10.8c0-4.1,3-7.1,7.6-8.1l0-8l6.8,0l0,7.9c2.2,0.3,4.4,0.9,6.8,1.8l-1.9,6.3c-2.7-1.2-5.3-1.9-7.6-1.9
			c-2.1,0-3.3,0.7-3.3,1.9c0,3.3,13.7,0.1,13.7,10.8c0,4.2-3.1,7.3-7.8,8.3l0,8l-6.8,0L448.9,275.7z"/>
		<path class="st5" d="M548.9,275.7c-2.5-0.3-5.1-0.9-7.7-1.9l1.9-6.3c3,1.2,6.1,2,8.5,2c2.3,0,3.4-0.7,3.5-2.1
			c0-3.4-13.7-0.5-13.7-10.8c0-4.1,3-7.1,7.6-8.1l0-8l6.8,0l0,7.9c2.2,0.3,4.4,0.9,6.8,1.8l-1.9,6.3c-2.7-1.2-5.3-1.9-7.6-1.9
			c-2.1,0-3.3,0.7-3.3,1.9c0,3.3,13.7,0.1,13.7,10.8c0,4.2-3.1,7.3-7.8,8.3l0,8l-6.8,0L548.9,275.7z"/>
		<path class="st1" d="M260.5,464.1c-7.3-2.5-8-15.8-8-15.9c0-0.7-0.6-1.2-1.3-1.2c-0.7,0-1.2,0.6-1.2,1.3c0,0.6,0.8,15,9.6,18.1
			c0.1,0,0.3,0.1,0.4,0.1c0.5,0,1-0.3,1.2-0.8C261.4,465.1,261.1,464.4,260.5,464.1z"/>
		<path class="st1" d="M757.4,447.1C757.4,447.1,757.4,447.1,757.4,447.1c-0.7,0-1.3,0.5-1.3,1.2c0,0.1-0.7,13.4-8,15.9
			c-0.6,0.2-1,0.9-0.8,1.6c0.2,0.5,0.7,0.8,1.2,0.8c0.1,0,0.3,0,0.4-0.1c8.8-3.1,9.6-17.5,9.6-18.1
			C758.6,447.7,758.1,447.1,757.4,447.1z"/>
		<path class="st6" d="M600.3,268c0.5,4.3-6.6,18.7-7,19.6c-0.1-7.7-0.5-15.4-1-23.1C594.9,265.4,600.2,267.3,600.3,268z"/>
		<path class="st0" d="M571.8,406.6l8,3.8l17.4,31.4l-6.7,3.3c0,0,0,0,0,0c-32.9,12.8-45.3,32.3-49.1,49.7l-33.2,11.3
			C525.3,486.7,568.1,437.7,571.8,406.6z"/>
		<path class="st2" d="M590.4,478c1.9,9.3,3.3,16.6-3.2,24.6c-3.8,0.5-44.7,5.6-44.7,5.5c0-18.9,8.3-44.5,47.6-60.2
			C586.9,460.2,588.8,469.6,590.4,478z"/>
		<path class="st7" d="M489.3,435.1c6.5-9.9,12.4-17,14.4-19.4c2,2.3,7.7,9.1,14,18.8c0,2.7-0.5,18.8-7.3,25.2h-13.8
			C490.2,453.7,489.4,439.1,489.3,435.1z"/>
		<path class="st2" d="M494.6,461.2c-1.7,3-7.2,13.1-10.1,23.1c-16.4-19.8-36.3-46.4-43.4-67.8c6.1,11.1,18,27,38.1,33.8
			c0.1,0,0.3,0.1,0.4,0.1c0.4,0,0.9-0.2,1.1-0.7c2.1-3.9,4.2-7.7,6.4-11.1C487.5,444.9,489.1,455.6,494.6,461.2z"/>
		<path class="st2" d="M520.1,438.2c2.3,3.6,4.5,7.5,6.7,11.7c0.2,0.4,0.6,0.7,1.1,0.7c0.1,0,0.3,0,0.4-0.1
			c21.8-7.4,33.9-25.6,39.5-36.5c-6.3,22-27.6,50.4-44.8,71.2c-2.9-10.5-8.8-21.2-10.4-24C518.2,455.2,519.7,444.2,520.1,438.2z"/>
		<path class="st2" d="M569.1,404.9c-1.5,4.1-12.7,32.9-40.6,42.9c-4.9-11.2-16.8-26-22-32.5c19.5-1.1,51.5-12.7,57.9-18.8
			L569.1,404.9z"/>
		<path class="st6" d="M410.3,268c0.8-6.6,2.9-9.4,4.3-10.2c-0.5,9.5-1.1,18.4-1.1,27.4C411,277.9,409.8,272,410.3,268z"/>
		<path class="st2" d="M442.8,396.5c6.7,6.2,38.8,17.7,58.1,18.7c-10.7,10.5-19.4,27.7-22,32.5c-26.7-9.6-40.5-43.1-40.5-43.2
			L442.8,396.5z"/>
		<path class="st0" d="M436.2,406.6c3.7,31.1,46.5,80.1,63.7,99.6l-72.6-24.7l4.3-28.1c0.1-0.5-0.2-1-0.7-1.3l-20-10.2l17.4-31.4
			L436.2,406.6z"/>
		<path class="st7" d="M486.4,486.7c2.7-10.4,8.9-21.7,10.4-24.5h13.6c1.6,2.8,7.9,14.5,10.6,25.1c0,0,0,0,0,0.1
			c-6.1,7.2-17.1,19.7-17.1,19.7S492.7,494.2,486.4,486.7z"/>
		<path class="st1" d="M538.7,382.3l-20.1,0c-6.7,0-13.4,0.1-20.1,0.4c-3.3,0.1-23,3.3-27.2-1c-1.8-1.9-2.8-6.2-3-7.9
			c-0.2-1.7-0.5-3.3-0.9-4.9c0.6,1.6,1.2,3.2,1.6,4.8c1.6,7.1,6.2,8.2,9.4,8.2c3.3,0,28.3-2.3,40.2-1.6
			C525.4,380.6,532.1,381.2,538.7,382.3"/>
		<path class="st1" d="M566.9,494.6c-1.9-0.5-3.8-1.2-5.7-2.2l2.1-4.6c2.2,1.2,4.5,2.1,6.3,2.4c1.7,0.2,2.7-0.2,2.8-1.3
			c0.3-2.6-10.4-1.7-9.3-9.6c0.4-3.1,3-5.1,6.6-5.4l0.8-6.1l5.2,0.7l-0.8,6c1.6,0.5,3.3,1.2,5,2.1l-2.1,4.6c-2-1.2-3.9-2-5.6-2.2
			c-1.6-0.2-2.6,0.2-2.7,1.2c-0.3,2.5,10.4,1.5,9.3,9.6c-0.4,3.2-3.1,5.3-6.7,5.5l-0.8,6.1l-5.2-0.7L566.9,494.6z"/>
		<path class="st0" d="M425.5,483.4c-0.6-0.2-0.9-0.8-0.8-1.4l4.3-28.2c0,0-21.6-10.3-21.5-10.6l16.9-31l-49.2,23.4
			c0.4,10.7-25.7,44.2-30.4,50.4c0.4,1.1,1.2,3.2,2.3,5.8c1.7,4,4.1,9.4,6.9,14.5c2.8,5.1,6.1,10,9.2,13.1c1.5,1.5,1.3,1.9-0.5,0.5
			c-3.5-2.8-7.3-7.5-10.6-12.4c-2.6-3.8-4.9-7.8-6.8-11.2c0.3,4.3,0.7,9.4,1.2,14.6c0.5,6.2,1.1,17.1,1.1,17.1s-2.1-10.7-3.2-16.8
			c-2-11-3.7-22.1-4-24.2c-14.4-4.2-27.9-10.5-37-14.8c-2.1-1-3.9-1.8-5.4-2.5L262,512.1c10.4,4.9,74,34.9,93.7,42.1
			c1,0.3,6.5,5.5,9.2,5c3.6-0.6,3.2-7.4,2.9-11.2c0-0.3,24.1-20.8,43.3-33.3c0.1-0.1-5.4-22.4-7.9-31.8c-0.2-0.7,0.2-1.3,0.9-1.5
			c0.7-0.2,1.3,0.2,1.5,0.9c6.4,24.2,20.1,80.5,20.4,81.4c3.9,2.5,37,22.7,76.7,23.1v-77.1L425.5,483.4z"/>
		<path class="st1" d="M491.9,525.5c3.6,0,6.6-3,6.6-6.6c0-3.6-3-6.6-6.6-6.6c-3.6,0-6.6,3-6.6,6.6
			C485.3,522.6,488.2,525.5,491.9,525.5z"/>
		<path class="st2" d="M491.9,514.8c2.3,0,4.1,1.8,4.1,4.1s-1.8,4.1-4.1,4.1s-4.1-1.8-4.1-4.1S489.6,514.8,491.9,514.8z"/>
		<path class="st1" d="M491.9,562.8c3.6,0,6.6-3,6.6-6.6c0-3.6-3-6.6-6.6-6.6c-3.6,0-6.6,3-6.6,6.6
			C485.3,559.8,488.2,562.8,491.9,562.8z"/>
		<path class="st2" d="M491.9,552.1c2.3,0,4.1,1.8,4.1,4.1s-1.8,4.1-4.1,4.1s-4.1-1.8-4.1-4.1S489.6,552.1,491.9,552.1z"/>
		<g>
			<path class="st5" d="M564.6,171.4l-5.4-29.1l-0.4,0c0,5.6-0.1,19.9-0.6,26.7c-28.7,9.4-57.9-0.4-84.5,0.8
				c-11.9,0.5-25.9,1.5-27.9,12.5c3.8-2.3,8.1-3.7,10.4-3.7c4.9,0,43.7,0.8,60.4,1.6c16.6,0.8,44.6-4.1,44.6-4.1
				s17.6,19.1,26.8,42.6C581.9,179.9,564.6,171.4,564.6,171.4z"/>
			<path class="st5" d="M459.8,201.2C459.8,201.2,459.8,201.2,459.8,201.2c-5,4.8-12.7,5-15.4,4.4c-8.4-1.8-14.1-6.4-17.9-11.9
				c-2.7,4.1-5.7,11.8-7.2,26.4c2.7-4.6,8-12.4,13-13.9C439.2,211.5,455.6,209.7,459.8,201.2z"/>
		</g>
		<path class="st5" d="M552.5,373.7c-0.6,0.4-1.3-0.5-0.7-1c3.8-3.2,7.6-6.8,11.4-10.9c6.1-6.6-17,10.6-18,14.5
			c-1,3.9-3.9,5.8-7.3,6.1c-0.4-0.1-0.8-0.1-1.2-0.2l-18,0c-6.7,0-13.4,0.1-20.1,0.4c-3.3,0.1-23,3.3-27.2-1c-1.8-1.9-2.8-6.2-3-7.9
			c-0.1-0.9-0.7-3.8-0.9-4.4c-8.7-0.6-23.5-17.1-31.3-23.5c-2.3-1.9-4.5-2.9-6.3-3.5c6.5,13.5,18.5,25.5,29.3,34.4
			c0.7,0.6-0.1,1.7-0.9,1.2c-7.1-4.1-10.7-7.1-13.1-9.8c0.8,10.2-0.1,23.7-0.4,26.8c6.7,5.6,39.9,17.9,58.7,17.9
			c8.4,0,21-2.5,34.5-7c11.2-3.7,21-8.1,24.3-10.9c0-3.2,0-18.8,1.2-29.5C560.1,368.4,556.5,371.1,552.5,373.7z"/>
		<path class="st6" d="M524.1,281c-1-1.1-1.9-2.1-2.8-3.2c-4.7-5.7-7.1-19.8-11-25.6c-2.7-4-4.5-4.5-6.8-4.5c-2.2,0-4.1,0.4-6.8,4.5
			c-3.4,5.1-5.7,16.4-9.3,23c0.1-0.1,0.2-0.2,0.3-0.3c-1.7,2.5-4.3,7.8-5.2,12.3c1.2-1.2,2.2-2.4,3.2-3.6c4.7-5.7,7.1-13.6,11-19.4
			c2.7-4,11-4,13.7,0c3.9,5.8,6.3,13.7,11,19.4c1.4,1.8,3.1,3.6,5,5.4C526.1,286.5,525.2,283.6,524.1,281z"/>
		<path class="st6" d="M447.7,293.8c-7.4-0.4-20.2-3.5-26.3-13.8c-1.4-2.4-2.7-6.2-3.8-10.2c-0.1,2-0.1,3.8-0.2,5.3
			c1.1,4.2,2.5,8.3,4,10.8c6.1,10.4,18.9,13.4,26.3,13.8c15.2,0.9,32.2-10.2,32.5-10.4c0-3.1,1.4-6.2,3.2-8.9
			C476.8,287.6,466.5,294.9,447.7,293.8z"/>
		<path class="st6" d="M589.5,268.9c-1.1,4.3-2.5,8.5-4,11.1c-6.1,10.4-18.9,13.4-26.3,13.8c-15.8,0.9-25.6-4.1-32.2-10.1
			c0.7,1.6,1.2,3.2,1.3,4.8c1.4,0.7,5.3,2.9,8.3,7.3c5.8,2.7,13.1,4.3,22.7,3.7c7.4-0.4,20.2-3.5,26.3-13.8
			c1.7-2.8,3.2-7.7,4.4-12.4C589.7,271.9,589.6,270.4,589.5,268.9z"/>
		<path class="st6" d="M531.2,347.1l-0.7-1.4l-0.7,1.6c-0.2,0.4-0.5,0.7-0.9,0.9c-2.9,1.3-6,2.4-9,3.3c-0.7,0.2-1.5-0.1-1.8-0.8
			l-0.4-0.8l-0.9,2c-0.2,0.4-0.6,0.7-1,0.9c-3.7,1-7.1,1.6-9.9,1.9c-0.6,0.1-1.2-0.3-1.5-0.9l-1-2.1l-0.9,2c-0.3,0.6-0.9,1-1.6,0.9
			c-2.9-0.3-6.4-1-10.2-2c-0.4-0.1-0.7-0.4-0.9-0.7l-1-2l-0.4,0.8c-0.3,0.6-1,1-1.7,0.8c-3.1-1-6.2-2.1-9.2-3.4
			c-0.4-0.2-0.8-0.5-1-0.9l-0.7-1.4l-0.6,1.3c-0.6-0.3-5.5-4.1-9.2-7.9c-1.3-0.2-2.4-0.4-3.3-0.5c3,4.5,11.7,11.3,12.5,11.7l0.6-1.3
			l0.7,1.4c0.2,0.4,0.5,0.7,1,0.9c3,1.3,6.1,2.5,9.2,3.4c0.7,0.2,1.4-0.1,1.7-0.8l0.4-0.8l1,2c0.2,0.4,0.5,0.6,0.9,0.7
			c3.8,1,7.4,1.7,10.2,2c0.7,0.1,1.3-0.3,1.6-0.9l0.9-2l1,2.1c0.3,0.6,0.9,0.9,1.5,0.9c2.8-0.3,6.2-0.9,9.9-1.9
			c0.4-0.1,0.8-0.4,1-0.9l0.9-2l0.4,0.8c0.3,0.7,1.1,1,1.8,0.8c3-0.9,6.1-2.1,9-3.3c0.4-0.2,0.7-0.5,0.9-0.9l0.7-1.6l0.7,1.4
			c0.9-0.4,9.7-7.4,12.8-11.9c-0.8,0.1-2,0.3-3.3,0.5C536.9,342.9,531.9,346.8,531.2,347.1z"/>
		<path class="st6" d="M503.4,332.5c1.5,0,35.4-5.4,48-6.4c1.4-2.5,2.7-4.7,3.1-5.4c-8.4,0-49.5,6.5-51.1,6.5
			c-1.6,0-42.7-6.6-51.1-6.5c0.4,0.7,1.7,2.9,3.1,5.4C468,327.1,501.9,332.5,503.4,332.5z"/>
		<g>
			<path class="st2" d="M552.2,306.6c0,0-0.1,0-0.1,0c6.7,1.4,13.5,3,19.8,4.1c0.5-2.7,0.1-4.8-2.4-5.6
				C565.8,303.9,559.3,305.4,552.2,306.6z"/>
			<path class="st2" d="M441.1,310.1c5.7-1.1,11.7-2.5,17.5-3.7c-6.7-1.1-12.7-2.4-16.2-1.3C441.2,305.5,440.8,307.4,441.1,310.1z"
				/>
		</g>
		<path class="st6" d="M486.6,304c4,1.6,4,10.9,1.2,9.5c-6.7-3.2-19.9-0.6-34.6,2.1c7.5,0,16.6,0,21.1,0c0.9,0,18.8,2,20.6,2
			c1.7,0,4.7-1.7,4.7-1.7s1.5,3.7,3.6,3.7s3.6-3.7,3.6-3.7s3,1.7,4.7,1.7c1.9,0,19.7-2,20.6-2c5,0,16.1,0,24.3,0
			c-14.6-2.7-27.8-5.3-34.6-2.1c-2.8,1.3-2.8-7.9,1.2-9.5c3.4-1.4,9.1-1.1,15.9,0c-1.2-1-2-2-2.3-2.9c-2-5.5-6.9-10.6-8.6-12.2
			c0.1,2.3-0.6,4.6-2.7,6.7c-1.5,1.5-3.1,1.5-7.9,3.3c-1.7,1.5-8.3,7.2-13,7.2c-5.4,0-11.4-5.4-12-5.9c-0.3-0.3-1-0.7-1.6-1.2
			c-5-1.9-6.7-1.8-8.2-3.4c-1.8-1.8-2.5-3.8-2.6-5.8c-0.9,1.8-3.1,6.2-5,11.4c-0.3,0.8-0.9,1.7-1.9,2.5
			C479,302.9,483.7,302.8,486.6,304z"/>
		<path class="st6" d="M441,399.9c11.2,11.1,31.6,19,55.4,20.3c1.5-1.8,3-3.4,4.5-5c-19.4-1-51.5-12.5-58.1-18.7L441,399.9z"/>
		<path class="st6" d="M564.4,396.4c-6.3,6.1-38.4,17.7-57.9,18.8c1.1,1.3,2.4,3,3.9,5c24.1-1.3,44.7-9.2,55.8-20.5L564.4,396.4z"/>
		<path class="st6" d="M517.8,462.3c2.5-4.5,3.3-5.4,4.5-8c19-1.6,34.4-15.7,35.5-17.7c4.5-7.9,8-15.6,10-22.6
			c-5.6,11-17.8,29.2-39.5,36.5c-0.1,0-1.3-0.2-1.5-0.6c-2.2-4.2-4.5-8.1-6.7-11.7c-0.4,6-1.9,17.1-7.4,22.9
			c1.6,2.8,7.4,13.5,10.4,24c0.7-0.9,1.5-1.8,2.2-2.7C523.1,475.9,519.9,466.6,517.8,462.3z"/>
		<path class="st6" d="M487,438.8c-2.1,3.4-4.3,7.2-6.4,11.1c-0.2,0.4-1.4,0.6-1.5,0.6c-20-6.8-32-22.8-38.1-33.8
			c2.2,6.6,5.6,13.7,9.8,21c8.1,6.2,25,17,33.7,18.7c1.1,2.4,1.8,3.8,2.9,5.9c-1.9,3.9-4.5,11.5-6.6,17.7c1.2,1.5,2.4,3,3.6,4.5
			c2.9-10,8.4-20.2,10.1-23.1C489.1,455.6,487.5,444.9,487,438.8z"/>
		<path class="st8" d="M247,430.3c0.2-0.6-7.9-13.1-8.9-23.1c-1,8.4,5.6,20.4,8,24.9C246.4,431.6,246.7,431,247,430.3z"/>
		<path class="st8" d="M213.3,447.6c4.9,2.1,10.6,1.5,10.9,1.4c0.7-0.1-5.9-3.1-10.9-5.2c-1-2.1-5.3-11.8-7.2-17c-0.5,1-0.6,2-0.3,3
			C207.3,434.1,211.7,444,213.3,447.6z"/>
		<path class="st8" d="M220.5,424.1c-0.1,0.1,0.4,1.4,1.1,3.1c12.2-6.4,13.7-14.5,13-19.3C233.8,412.8,229.3,419.6,220.5,424.1z"/>
		<path class="st8" d="M260.4,489c-2.8,0.2-28.2,1.7-42.4-7.2c-0.2-0.1-29.3-2.1-33.8-12.6c-0.4,0.4-0.6,0.8-0.6,1.3
			c0.7,12.6,34.2,14.9,34.4,15c14.3,8.9,39.6,7.4,42.4,7.2c0.3,0,9.3,6.5,9.3,6.5l21.4-25.4c-0.4-0.2-1.2-0.7-2.1-1.2
			C288.9,472.7,260.7,489,260.4,489z"/>
		<path class="st8" d="M216.5,468.7c0.7,0.2-3.8-4.6-5.5-4.9c-19.7-11.5-31.8-20.4-34.1-26.4c-2.8,5.6,10.9,17,34.1,30.1
			C211.8,467.6,214.8,468.3,216.5,468.7z"/>
		<path class="st8" d="M247,460.6c-3.5-7.6,3-13,3-12.3c0,0.6,0.8,15,9.6,18.1C259.8,466.5,250.4,468.3,247,460.6z"/>
		<path class="st8" d="M761.9,430.6c-0.2-0.6,7.9-13.1,8.9-23.1c1,8.4-5.6,20.4-8,24.9C762.4,431.8,762.1,431.2,761.9,430.6z"/>
		<path class="st8" d="M794.9,447.9c-4.9,2.1-10.6,1.5-10.9,1.4c-0.7-0.1,5.9-3.1,10.9-5.2c1-2.1,5.3-11.8,7.2-17c0.5,1,0.6,2,0.3,3
			C800.9,434.4,796.6,444.2,794.9,447.9z"/>
		<path class="st8" d="M788,424.4c0.1,0.1-0.4,1.4-1.1,3.1c-12.2-6.4-13.7-14.5-13-19.3C774.6,413,779.1,419.8,788,424.4z"/>
		<path class="st8" d="M747.8,489.2c2.8,0.2,28.2,1.7,42.4-7.2c0.2-0.1,29.3-2.1,33.8-12.6c0.4,0.4,0.6,0.8,0.6,1.3
			c-0.7,12.6-34.2,14.9-34.4,15c-14.3,8.9-39.6,7.4-42.4,7.2c-0.3,0-9.3,6.5-9.3,6.5l-21.4-25.4c0.4-0.2,1.2-0.7,2.1-1.2
			C719.3,472.9,747.5,489.2,747.8,489.2z"/>
		<path class="st8" d="M791.7,468.9c-0.7,0.2,3.8-4.6,5.5-4.9c19.7-11.5,31.8-20.4,34.1-26.4c2.8,5.6-10.9,17-34.1,30.1
			C796.4,467.8,793.4,468.5,791.7,468.9z"/>
		<path class="st8" d="M761.3,460.9c3.5-7.6-3-13-3-12.3c0,0.6-0.8,15-9.6,18.1C748.5,466.8,757.8,468.5,761.3,460.9z"/>
		<path class="st9" d="M424.7,482.1l4.3-28.2c0,0-21.6-10.3-21.5-10.6l4.8-8.9l-10.5,14.7c-0.2,0.3,21.5,10.6,21.5,10.6l-6.1,34.9
			l73.7,11.2l-65.5-22.3C425,483.3,424.6,482.7,424.7,482.1z"/>
		<path class="st9" d="M593,446.6c-3.8,12.7-1.9,22.3-0.2,30.9c1.4,7.2,2.7,13.6,0.2,20.1c5.7-8.2,4.2-16,2.4-24.9
			c-1.5-7.6-3.2-16.1-0.9-26.8L593,446.6z"/>
		<path class="st9" d="M743.9,509.6c-18.1,8.5-96.2,45.5-99.5,44.3c-3.4-1.2-1.7-11.3-1.9-11.5c-18.7-15.9-34.6-38-37.6-59.5
			c-2.5,9.5-5.4,20.7-8.2,31.7c0.1,0,41,30,43.2,32.5c0.2,0.2-1.4,10.3,1.9,11.5c3.4,1.2,9.5-4.1,10.5-4.5
			c19.7-7.2,83.3-37.1,93.7-42.1L743.9,509.6z"/>
		<path class="st9" d="M505.1,509.8l35.7-12.2c-0.6,3.6-0.9,7.1-0.9,10.4c0,0.2-8.7,1.4-10.5,1.4c-0.4,0-0.7,0.2-0.9,0.5
			c-0.2,0.3-0.3,0.7-0.2,1L505.1,509.8z"/>
		<path class="st9" d="M599.3,494.6L570,570.3c6.5-3.2,10.8-5.8,12.1-6.6C582.3,562.9,592.4,521.6,599.3,494.6z"/>
		<path class="st9" d="M408.8,494.6l29.3,75.8c-6.5-3.2-10.8-5.8-12.1-6.6C425.8,562.9,415.7,521.6,408.8,494.6z"/>
		<path class="st9" d="M264.2,509.6c18.1,8.5,96.2,45.5,99.5,44.3c3.4-1.2,1.7-11.3,1.9-11.5c18.7-15.9,34.6-38,37.6-59.5
			c2.5,9.5,5.4,20.7,8.2,31.7c-0.1,0-41,30.9-43.2,33.4c-0.2,0.2,1,9.7-2.8,11.1c-3.3,1.2-8.7-4.6-9.6-4.9
			c-19.7-7.2-83.3-37.1-93.7-42.1L264.2,509.6z"/>
		<path class="st6" d="M571.6,498.9l-0.3,2.4l-5.2-0.7l0.1-1c-5,0.6-9.7,1.2-13.2,1.6c-2.8,0.3-5.1-2.1-4.6-4.9
			c1.3-7.3,4.1-20,9.7-27.8c-12.3,13.1-15.6,27.6-15.6,39.5c0,0.1,41-5,44.7-5.5c1.7-2,2.8-4,3.6-6
			C587.4,497,579.6,497.9,571.6,498.9z"/>
		<path class="st3" d="M545.7,150.1c-0.1,0-0.1-0.1-0.2-0.1C545.6,150,545.6,150,545.7,150.1c-0.1-0.2-0.3-0.3-0.5-0.4
			c-12.6-10.5-55.4-35-95.8-9.4c0,0,17.3-9.2,48.3-5c-18-1-38.2,3.1-56.3,18.4c0,0,17.3-12.4,51.3-12.4c-17.7,0.9-36.9,7-53.1,23.5
			c0,0,32.7-28.6,103.5-13.5c-4-2.1-10.4-4.7-18.5-6.7c6.5,1.3,13.3,3,20.5,5.3C545.3,149.9,545.5,150,545.7,150.1"/>
		<path class="st3" d="M595.9,187.1c2.1,4.8,4.2,10.1,6.4,16.3c-4.2-44.4-29.4-53.3-29.4-53.3c3.7,4.5,6.9,8.7,9.8,12.9
			c-5.5-5.6-10.1-7.2-10.1-7.2c6.5,7.9,11.3,14.6,15.6,22.8c-6.4-10.1-13.8-12.7-13.8-12.7c10.2,12.4,15.5,21.3,22.6,41
			c-0.6-6.9-2-12.7-3.6-17.5c1.8,4.1,3.6,8.8,5.5,14C598.3,197.3,597.2,191.8,595.9,187.1"/>
		<path class="st3" d="M555.7,230.8c-10.9-0.3-43.5,3.3-43.5,3.3l-8.8,0.4l-8.8-0.4c0,0-32.6-3.6-43.5-3.3
			c-27.4,0.6-43.2,6.9-43.2,6.9v2.2c0,0,15.9-6.3,43.2-6.9c10.9-0.3,43.5,3.3,43.5,3.3l8.8,0.4l8.8-0.4c0,0,32.6-3.6,43.5-3.3
			c27.4,0.6,43.2,6.9,43.2,6.9v-2.2C598.9,237.7,583,231.4,555.7,230.8z"/>
		<path class="st10" d="M506.8,456.3h-6.5c-2.6,0-5.1-1.4-6.4-3.7c-3-5.4-3.6,1,2.8,7.1h13.8c6.8-6.5,5.9-12.8,2.8-7.2
			C512,454.9,509.5,456.3,506.8,456.3z"/>
		<path class="st10" d="M502.1,467.7h3.1c3.3,0,6.3,1.8,7.8,4.8c2.1,4.2,5,10.2,6.9,16.4c0.4-0.5,0.8-0.9,1.2-1.4c0,0,0,0,0-0.1
			c-2.6-10.6-9-22.3-10.6-25.1h-13.6c-1.5,2.7-7.7,14-10.4,24.5c0.4,0.5,0.8,0.9,1.2,1.4c1.9-5.9,4.6-11.7,6.7-15.7
			C495.8,469.5,498.8,467.7,502.1,467.7z"/>
		<path class="st11" d="M663.2,490c0.3-0.8,0.6-1.5,0.9-2.1c-4.9-6.6-31.5-41.6-31.2-52.3l-49.2-23.4l2.8,5
			c7.4,3.8,19.4,9.8,36.7,18.1c3.6,1.7,6.4,4.7,8,8.3c7,15.8,26.4,40.6,31.7,47.2C662.9,490.6,663.1,490.3,663.2,490z"/>
		<path class="st11" d="M710.2,469.6c-1.3,0.6-34.7,15.3-43.4,18.7c-0.1,0.8-0.3,2-0.6,3.5l36.6-13.6c4.3-1.6,9-0.5,12.2,2.8
			c9.8,10.3,30.3,31.5,31,31.2L710.2,469.6z"/>
		<path class="st11" d="M592.1,444.3l5-2.5l-17.4-31.4l-8-3.8c-3.1,26-33.6,64.5-53.5,87.8c5.7-4.2,13.4-10.8,22.5-21.1
			c14.1-15.9,24.7-37.1,30.2-49.4c1.8-4,7.4-4.3,9.6-0.4L592.1,444.3z"/>
		<path class="st11" d="M431.3,413.9c1,0,1.9,0.7,2.2,1.7c1.2,4.6,5.9,18.5,22,40.8c9,12.5,17.8,21.1,24.8,26.7
			c-18.9-23.2-41.3-54.4-44-76.5l-8,3.8l-17.4,31.4l3.6,1.8l14.8-28.5C429.6,414.4,430.4,413.9,431.3,413.9L431.3,413.9z"/>
		<path class="st11" d="M341.1,491.7c-0.4-2.4-0.6-4.1-0.7-4.8c-14.4-4.2-27.9-10.5-37-14.8c-2.1-1-3.9-1.8-5.4-2.5L262,512.1
			c0.4,0.2,28.3-27.5,28.3-27.5c5.3-5.5,13.5-7.3,20.6-4.6L341.1,491.7z"/>
		<path class="st11" d="M420.1,420.3l4.4-8.1l-49.2,23.4c0.4,10.7-25.7,44.2-30.4,50.4c0.3,0.8,0.7,2,1.3,3.5
			c5.8-6.2,18.9-21.6,29.2-41.9c2.6-5.2,6.8-9.3,12-11.9C402.5,428.4,412.9,423.5,420.1,420.3z"/>
	</g>
</g>
</svg>
