<svg width="78" height="82" viewBox="0 0 78 82" fill="none" xmlns="http://www.w3.org/2000/svg">
<g clip-path="url(#clip0)">
<path d="M56.2419 4.39999C35.9267 -5.30001 11.5085 3.29999 1.80127 23.6L38.6288 41.2L32.1239 22.9C42.2314 19.3 53.3397 24.6 56.9424 34.7L77.0574 27.6C73.6549 17.8 66.4495 9.29999 56.2419 4.39999Z" fill="#103357"/>
<path d="M38.7289 41.2L45.2338 59.5C35.0262 63.2 23.9179 57.8 20.3152 47.7L0.200195 54.8C3.70281 64.6 10.9082 73.2 21.1158 78C41.431 87.7 65.8492 79.1 75.5564 58.8L56.242 49.6L48.6363 46L38.7289 41.2Z" fill="#103357"/>
</g>
<defs>
<clipPath id="clip0">
<rect width="77.0575" height="82" fill="white"/>
</clipPath>
</defs>
</svg>
