<?xml version="1.0" encoding="utf-8"?>
<!-- Generator: Adobe Illustrator 23.1.1, SVG Export Plug-In . SVG Version: 6.00 Build 0)  -->
<svg version="1.1" id="Слой_1" xmlns="http://www.w3.org/2000/svg" xmlns:xlink="http://www.w3.org/1999/xlink" x="0px" y="0px"
	 viewBox="0 0 1000 1000" style="enable-background:new 0 0 1000 1000;" xml:space="preserve">
<style type="text/css">
	.st0{fill:#113357;}
	.st1{enable-background:new    ;}
	.st2{fill:#FFFFFF;}
</style>
<title>soft</title>
<path class="st0" d="M501.3,249.8c-55.6,0-69.5,13.9-69.5,69.5s13.9,69.5,69.5,69.5s69.5-13.9,69.5-69.5S556.9,249.8,501.3,249.8z"
	/>
<g class="st1">
	<path class="st0" d="M442.5,479.7v1.2h-15.9v-1.2c2.5-0.4,3-1.2,1.9-4.8l-1-3.2h-8.1l-1,3.1c-1.1,3.7-0.6,4.5,1.9,4.9v1.2h-8.2
		v-1.2c2-0.4,2.6-1.1,4-5l7.7-22h7.3l7.7,22.5C439.9,478.5,440.5,479.3,442.5,479.7z M426.9,469.9l-3.6-11.3l-3.5,11.3H426.9z"/>
</g>
<g class="st1">
	<path class="st0" d="M458.3,481.3c-2.8,0-5.1-1.3-5.9-3l-2.5,2.6h-5.7v-24.5c0-1.5-0.2-1.8-1.3-2.2l-0.8-0.3v-1.2l11-1.4l-0.1,13.2
		c0.9-2.5,3.2-3.9,6.4-3.9c4.6,0,8,3.7,8,10.2C467.4,477.9,463.2,481.3,458.3,481.3z M455.2,464.1c-1,0-1.8,0.6-2.1,1.3v12
		c0.3,0.6,1,1.2,2,1.2c1.9,0,3.2-2.3,3.2-7.2C458.3,466.5,457,464.1,455.2,464.1z"/>
	<path class="st0" d="M480.4,460.6c2.9,0,5.4,0.5,6.6,1.1l0.1,5.5h-1.2c-0.9-3-2.7-4.9-5.3-4.9c-2.1,0-3.1,0.9-3.1,2.1
		s0.9,1.9,2.9,2.5l1.8,0.6c4.1,1.3,6.2,3.4,6.2,6.9c0,4.5-4.2,7-10.8,7c-2.9,0-6-0.7-7.7-1.5l-0.2-5.9h1.2c0.8,3.3,3.3,5.9,6.4,5.9
		c2.1,0,3.2-0.9,3.2-2.1s-0.9-2-2.8-2.6l-1.8-0.6c-3.8-1.2-6.3-3.2-6.3-6.7C469.6,463.4,473.4,460.6,480.4,460.6z"/>
	<path class="st0" d="M492.1,463.3h-2v-1.2l9.6-6.8h1.1v6.1l4.3-0.4v2.2l-4.3-0.4v11.8c0,2.4,1,3.4,2.5,3.4c0.8,0,1.5-0.3,1.9-0.7
		v1.2c-1,1.4-3.5,2.7-6.4,2.7c-3.9,0-6.8-2-6.8-6.7L492.1,463.3L492.1,463.3z"/>
</g>
<g class="st1">
	<path class="st0" d="M517.3,467.5c1.5-4.9,3.2-6.8,5.5-6.8c2.1,0,3.2,1.9,3.2,4.3c0,1.2-0.2,2.2-0.5,2.9c-0.7-0.3-2.2-0.6-3.7-0.6
		c-1.9,0-3.8,0.4-4.5,0.9v8.9c0,1.6,0.4,2.1,2.4,2.5v1.2h-13.4v-1.2c1.8-0.4,2.1-0.8,2.1-2.3v-11.6c0-1.5-0.2-1.8-1.3-2.2l-0.9-0.3
		V462l10.9-1.4L517.3,467.5z"/>
</g>
<g class="st1">
	<path class="st0" d="M527.6,476.6c0-3,2.3-5.2,8.9-6.4l3.7-0.7v-2c0-3.5-1.6-4.9-4.6-4.9c-0.6,0-1.2,0.1-1.8,0.2
		c1.2,0.5,2.1,1.7,2.1,3.2c0,2-1.6,3.5-3.7,3.5c-2.1,0-3.7-1.4-3.7-3.4c0-2.9,3.5-5.5,10-5.5c6.7,0,10.4,2.3,10.4,7.3v8.8
		c0,1.5,0.7,2.2,1.7,2.2c0.3,0,0.5,0,0.7-0.1v1.2c-1,0.7-2.9,1.2-5,1.2c-2.7,0-5.5-1.2-5.9-3.6c-0.6,2.3-3.4,3.7-6.9,3.7
		C529.9,481.3,527.6,479.5,527.6,476.6z M538.2,478.2c1,0,1.8-0.5,2-1.4v-5.9l-0.7,0.1c-2.4,0.6-3.4,2.1-3.4,4.3
		C536.2,477.2,537.1,478.2,538.2,478.2z"/>
	<path class="st0" d="M552.8,471.1c0-6.3,5-10.4,11.8-10.4c5.2,0,8.5,2.4,8.5,5.8c0,2.2-1.7,3.8-3.7,3.8c-2.1,0-3.7-1.6-3.7-3.6
		c0-1.8,1.3-3.3,3.1-3.6c-0.5-0.2-1.1-0.3-1.6-0.3c-3.1,0-5.3,2.5-5.3,6.8c0,5.2,3.1,8.1,6.9,8.1c1.6,0,3.4-0.5,4.3-1.3v1.2
		c-1.7,2.3-5,3.7-8.8,3.7C558,481.3,552.8,477.6,552.8,471.1z"/>
	<path class="st0" d="M576.7,463.3h-2v-1.2l9.6-6.8h1.1v6.1l4.3-0.4v2.2l-4.3-0.4v11.8c0,2.4,1,3.4,2.5,3.4c0.8,0,1.5-0.3,1.9-0.7
		v1.2c-1,1.4-3.5,2.7-6.4,2.7c-3.9,0-6.8-2-6.8-6.7v-11.2H576.7z"/>
</g>
<g>
	<polygon class="st2" points="537.7,354.6 525,354.6 525,295.5 465.9,295.5 465.9,282.8 537.7,282.8 	"/>
	<path class="st2" d="M490.9,303.9c-14.3,0-25.9,11.5-26,25.8c0,14.3,11.5,25.9,25.8,26c14.3,0,25.9-11.5,26-25.8v-0.1
		C516.7,315.6,505.1,304,490.9,303.9z M490.7,343c-7.3,0-13.2-5.9-13.2-13.2s5.9-13.2,13.2-13.2s13.2,5.9,13.2,13.2
		C503.9,337.1,498,343,490.7,343L490.7,343z"/>
</g>
<g>
	<path class="st0" d="M357.5,607.4c5.7,0,9.4,1.1,11.3,2.4l0.3,8.5h-0.9c-1.3-5.9-4.9-9.5-10.4-9.5c-7.3,0-11.7,6.4-11.7,16.2
		c0,9.3,4.1,17.4,11.7,17.4c2.8,0,5.1-0.7,6.4-1.8v-9.8c0-2.2-0.4-2.8-3.5-3.1v-1h12.7v1c-2.8,0.3-3.3,0.8-3.3,3.1v9.5
		c-2.8,2.1-7.7,3.6-12.6,3.6c-10.8,0-18.6-7.2-18.6-18.3C338.9,613.7,347.2,607.4,357.5,607.4z"/>
	<path class="st0" d="M388.7,642.2v1h-13.3v-1c2.9-0.5,3.4-1,3.4-3.2v-27c0-2.1-0.5-2.7-3.4-3.2v-1h13.3v1c-2.9,0.5-3.4,1-3.4,3.2
		v27C385.2,641.2,385.8,641.8,388.7,642.2z"/>
	<path class="st0" d="M420.9,616.7H420c-1.2-5.7-3.2-7.1-9.5-7.6l-1.3-0.1v29.7c0,2.4,0.5,3.1,3.7,3.5v1h-13.8v-1
		c3.2-0.4,3.7-1.1,3.7-3.5v-29.7l-1.3,0.1c-6.2,0.4-8.3,1.9-9.5,7.6H391l0.3-8.8h29.2L420.9,616.7z"/>
	<path class="st0" d="M446.3,642.2v1h-12v-1c2.5-0.4,2.9-0.8,2.9-2.5v-18.6h-2.9v-0.8l2.9-1.1v-3.9c0-5.7,3.4-8.7,8-8.7
		c3.7,0,5.5,1.7,5.5,3.9c0,1.4-1.1,2.4-2.4,2.4c-1.4,0-2.4-1-2.4-2.4c0-1.1,0.7-2.1,1.7-2.3c-0.3-0.1-0.7-0.2-1.1-0.2
		c-2.1,0-3.3,1.5-3.3,5.4v6.1l6.1-0.3v1.9l-6.1-0.3v18.6C443.1,641.4,443.4,641.8,446.3,642.2z"/>
	<path class="st0" d="M450.7,631.3c0-7.3,5.5-12.4,12.7-12.4c7.1,0,12.6,4.8,12.6,12.3c0,7.3-5.6,12.5-12.7,12.5
		C456.2,643.7,450.7,638.8,450.7,631.3z M469.6,631.5c0-6.8-2.5-11.3-6.3-11.3c-3.9,0-6.2,4.2-6.2,10.8c0,6.8,2.5,11.3,6.3,11.3
		C467.3,642.3,469.6,638.1,469.6,631.5z"/>
	<path class="st0" d="M487.9,624.9c2.6-4,4.6-5.9,6.8-5.9c1.9,0,2.7,1.3,2.7,2.9c0,0.8-0.2,1.6-0.5,2.1c-0.5-0.2-1.7-0.3-2.8-0.3
		c-2.4,0-5,0.8-6.2,2v13.9c0,1.9,0.4,2.3,3.2,2.8v1h-12v-1c2.5-0.4,2.9-0.8,2.9-2.5v-16.2c0-1.4-0.2-1.7-1.5-2.1l-1.4-0.4v-0.9
		l8.8-1V624.9z"/>
	<path class="st0" d="M512.1,641.1l-0.3-8.5h0.9c1.4,6.4,5.7,9.7,10.7,9.7c4.2,0,7.1-2.5,7.1-6.5c0-3.4-2.1-5.7-6.7-7.3l-2.9-1
		c-5.8-2-9-5.4-9-10.4c0-6.2,5.4-9.8,12.5-9.8c4.6,0,7.9,1,9.5,2.2l0.3,7.8h-0.9c-1.3-5.5-4.4-8.7-8.9-8.7c-4.5,0-6.9,2.4-6.9,5.8
		c0,3.5,2.4,5.4,6.7,7l2.8,1c6.1,2.1,9.1,5.6,9.1,10.6c0,6.4-5.7,10.5-12.7,10.5C518.3,643.7,514.3,642.6,512.1,641.1z"/>
	<path class="st0" d="M550.8,631.1l-2.6,0v8.8c0,1.6,0.3,2,2.7,2.4v1h-11.5v-1c2.5-0.4,2.9-0.9,2.9-2.6v-28.3c0-1.4-0.2-1.7-1.5-2.1
		l-1.4-0.4v-0.9l8.8-1v22.9l2.6-0.1l5.4-5.9c2-2.1,1.8-3.1-1-3.6v-1h9.3v1c-2.6,0.6-3.8,1.3-7.3,4.4l-2.3,2.2l6.2,10.6
		c2,3.5,3.1,4.5,4.6,4.8v0.9h-7.8L550.8,631.1z"/>
	<path class="st0" d="M578.1,618.9c6.3,0,10.1,4.1,10.1,9.9c0,0.5-0.1,1.1-0.1,1.4h-15.6c0.3,6.5,4,10.8,9.3,10.8c2.6,0,4.7-1,6-2.3
		l0,1c-1.6,2.4-5,4-9.2,4c-6.9,0-12.1-4.9-12.1-12.4C566.5,624.1,571,618.9,578.1,618.9z M572.5,629.1l10.2-0.1c0-0.4,0-0.8,0-1.3
		c0-4.4-1.5-7.5-4.6-7.5C574.6,620.2,572.5,623.5,572.5,629.1z"/>
	<path class="st0" d="M593.9,621.2h-3v-0.8l8.3-6.3h0.6v5.5l6.2-0.3v1.9l-6.2-0.3v15.7c0,3.4,1.5,4.6,3.6,4.6c1.2,0,2.3-0.4,3-1.1v1
		c-0.9,1.3-3.3,2.5-6,2.5c-3.6,0-6.5-2-6.5-7V621.2z"/>
	<path class="st0" d="M608.6,631.3c0-7.2,5.3-12.4,12.6-12.4c5.4,0,8.3,2.7,8.3,5.7c0,1.7-1.3,3-2.9,3c-1.6,0-2.9-1.3-2.9-2.9
		s1.2-2.9,2.8-2.9c0.1,0,0.2,0,0.3,0c-1-0.8-2.4-1.3-4.2-1.3c-4.8,0-7.9,3.9-7.9,9.6c0,6.8,4,10.8,8.9,10.8c2.6,0,4.7-0.9,6-2.3v1
		c-1.6,2.3-5,4-9.1,4C613.7,643.7,608.6,638.8,608.6,631.3z"/>
	<path class="st0" d="M641,623.3c1.3-2.6,4.2-4.4,8-4.4c4.8,0,8.2,2.4,8.2,7.5v13.3c0,1.7,0.3,2.1,2.9,2.6v1h-11.5v-1
		c2.3-0.4,2.7-0.8,2.7-2.4v-12.6c0-3.8-1.9-5.7-5.1-5.7c-2.3,0-4.1,1.1-5.1,2.7v15.6c0,1.6,0.3,2,2.7,2.4v1h-11.5v-1
		c2.5-0.4,2.9-0.9,2.9-2.6v-28.3c0-1.4-0.2-1.7-1.5-2.1l-1.4-0.4v-0.9l8.8-1V623.3z"/>
</g>
</svg>
