<?xml version="1.0" encoding="utf-8"?>
<!-- Generator: Adobe Illustrator 23.1.1, SVG Export Plug-In . SVG Version: 6.00 Build 0)  -->
<svg version="1.1" id="Слой_1" xmlns="http://www.w3.org/2000/svg" xmlns:xlink="http://www.w3.org/1999/xlink" x="0px" y="0px"
	 viewBox="0 0 1000 1000" style="enable-background:new 0 0 1000 1000;" xml:space="preserve">
<style type="text/css">
	.st0{fill:#113357;}
	.st1{fill:#F9AB00;}
	.st2{fill:#E37400;}
</style>
<g>
	<path class="st0" d="M344.4,452.2c3.8,0,7.2,0.6,8.9,1.6l0.1,8.9h-1.2c-1-4.6-3.7-8.8-7.4-8.8c-4.5,0-7,5.2-7,13
		c0,6.9,2.2,12.9,6.3,12.9c1,0,1.9-0.3,2.3-0.7v-8.6c0-1.6-0.4-2.2-2.4-2.5v-1.2h13v1.2c-1.8,0.3-2.3,0.8-2.3,2.5v8.3
		c-2.5,1.7-6.8,2.6-11.1,2.6c-9.9,0-16.3-5.9-16.3-14.4C327.4,457.2,335,452.2,344.4,452.2z"/>
	<path class="st0" d="M358.5,471.1c0-6.2,5.1-10.4,12.1-10.4s12.1,3.9,12.1,10.3c0,6.2-5.1,10.5-12.2,10.5S358.5,477.4,358.5,471.1z
		 M373.5,471.1c0-5.8-1-8.9-3-8.9s-2.8,3.1-2.8,8.6c0,5.8,1,8.9,3,8.9S373.5,476.6,373.5,471.1z"/>
	<path class="st0" d="M385,471.1c0-6.2,5.1-10.4,12.1-10.4s12.1,3.9,12.1,10.3c0,6.2-5.1,10.5-12.2,10.5S385,477.4,385,471.1z
		 M400,471.1c0-5.8-1-8.9-3-8.9s-2.8,3.1-2.8,8.6c0,5.8,1,8.9,3,8.9S400,476.6,400,471.1z"/>
	<path class="st0" d="M422.4,460.6c2.2,0,4.3,0.4,5.8,0.9l6.9-0.5v2.2l-5.4-0.5c2.2,0.7,3.7,2.4,3.7,4.3c0,3.8-4.5,6.1-10.7,6.1
		c-0.8,0-1.6-0.1-2.3-0.1c-1,0.2-1.7,0.7-1.7,1.5c0,1,1,1.5,3.2,1.5h3.2c6.4,0,9.5,2.6,9.5,6.7c0,4.5-5,7.6-12.1,7.6
		c-7.2,0-11.3-1.7-11.3-4.2c0-1.9,2.3-3.2,8.6-3.2c-4.9,0-8.1-1.9-8.1-4.9c0-2.9,2.7-5,7.7-5.4c-4.2-0.4-7.5-2.4-7.5-5.7
		C411.7,463.2,416,460.6,422.4,460.6z M422.4,488.8c2.8,0,4.6-1.2,4.6-3c0-1.5-1.1-2.5-3.6-2.5H421c-1.7,0.1-2.8,1-2.8,2.6
		C418.3,487.6,419.9,488.8,422.4,488.8z M422.6,471.6c1.5,0,2.2-1.8,2.2-4.6c0-3-0.9-4.8-2.3-4.8c-1.5,0-2.2,1.8-2.2,4.6
		C420.3,469.8,421.2,471.6,422.6,471.6z"/>
	<path class="st0" d="M447.5,477.4c0,1.5,0.4,1.9,2.1,2.3v1.2h-13.1v-1.2c1.8-0.4,2.1-0.8,2.1-2.3v-21c0-1.5-0.2-1.8-1.3-2.2
		l-0.9-0.3v-1.2l11-1.4L447.5,477.4L447.5,477.4z"/>
	<path class="st0" d="M462.8,460.6c5.9,0,9.5,3.4,9.5,8.6c0,0.6-0.1,1.2-0.1,1.6h-11.7c0.8,4.7,3.7,7,7.3,7c1.7,0,3.2-0.6,4.2-1.5
		v1.2c-1.6,2.5-5,3.8-9.1,3.8c-6.2,0-11.4-3.8-11.4-10.3C451.5,464.8,456.1,460.6,462.8,460.6z M460.3,469.4l4.5-0.1
		c0-0.4,0-1,0-1.8c0-3.5-0.6-5.3-2-5.3c-1.7,0-2.5,2.1-2.5,5.7C460.3,468.4,460.3,468.9,460.3,469.4z"/>
	<path class="st0" d="M512.7,479.7v1.2h-15.9v-1.2c2.5-0.4,3-1.2,1.9-4.8l-1-3.2h-8.1l-1,3.1c-1.1,3.7-0.6,4.5,1.9,4.9v1.2h-8.2
		v-1.2c2-0.4,2.6-1.1,4-5l7.7-22h7.3l7.7,22.5C510.1,478.5,510.7,479.3,512.7,479.7z M497.1,469.9l-3.6-11.3l-3.5,11.3H497.1z"/>
	<path class="st0" d="M524.3,464.6c0.9-2.4,3.4-4,7.2-4c4.1,0,6.9,2.1,6.9,6.5v10.2c0,1.5,0.4,1.9,2.1,2.3v1.2h-12.7v-1.2
		c1.4-0.3,1.7-0.7,1.7-2.2V467c0-2-1-3-2.7-3c-1.2,0-2.1,0.6-2.5,1.4v12c0,1.5,0.3,1.9,1.7,2.2v1.2h-12.7v-1.2
		c1.8-0.4,2.1-0.8,2.1-2.3v-11.6c0-1.5-0.2-1.8-1.3-2.2l-0.9-0.3V462l10.9-1.4v4H524.3z"/>
	<path class="st0" d="M542.2,476.6c0-3,2.3-5.2,8.9-6.4l3.7-0.7v-2c0-3.5-1.6-4.9-4.6-4.9c-0.6,0-1.2,0.1-1.8,0.2
		c1.2,0.5,2.1,1.7,2.1,3.2c0,2-1.6,3.5-3.7,3.5c-2.1,0-3.7-1.4-3.7-3.4c0-2.9,3.5-5.5,10-5.5c6.7,0,10.4,2.3,10.4,7.3v8.8
		c0,1.5,0.7,2.2,1.7,2.2c0.3,0,0.5,0,0.7-0.1v1.2c-1,0.7-2.9,1.2-5,1.2c-2.7,0-5.5-1.2-5.9-3.6c-0.6,2.3-3.4,3.7-6.9,3.7
		C544.5,481.4,542.2,479.5,542.2,476.6z M552.8,478.2c1,0,1.8-0.5,2-1.4v-5.9l-0.7,0.1c-2.4,0.6-3.4,2.1-3.4,4.3
		C550.8,477.2,551.6,478.2,552.8,478.2z"/>
	<path class="st0" d="M578.1,477.4c0,1.5,0.4,1.9,2.1,2.3v1.2h-13.1v-1.2c1.8-0.4,2.1-0.8,2.1-2.3v-21c0-1.5-0.2-1.8-1.3-2.2
		l-0.9-0.3v-1.2l11-1.4v26.1H578.1z"/>
	<path class="st0" d="M579.8,462.3V461h14v1.3c-2.2,0.2-2.2,1-1.4,3.7l2.3,7.3l2.4-7.3c0.9-2.7,0.8-3.4-1.3-3.7V461h6.8v1.3
		c-1.5,0.3-2.1,0.9-3.3,3.8l-3.3,8l-3.5,8.1l-2.8,7.7h-6.2v-0.1c2.1-1.9,5-4.9,6.5-7l-7.4-17.2C581.7,463.1,581.2,462.6,579.8,462.3
		z"/>
	<path class="st0" d="M605.3,463.3h-2v-1.2l9.6-6.8h1.1v6.1l4.3-0.4v2.2l-4.3-0.4v11.8c0,2.4,1,3.4,2.5,3.4c0.8,0,1.5-0.3,1.9-0.7
		v1.2c-1,1.4-3.5,2.7-6.4,2.7c-3.9,0-6.8-2-6.8-6.7v-11.2H605.3z"/>
	<path class="st0" d="M630.7,477.4c0,1.5,0.4,1.9,2.1,2.3v1.2h-13.1v-1.2c1.8-0.4,2.1-0.8,2.1-2.3v-11.6c0-1.5-0.2-1.8-1.3-2.2
		l-0.9-0.3v-1.2l11-1.4v16.7H630.7z M621.6,455.1c0-2.3,1.9-3.9,4.2-3.9s4.2,1.6,4.2,3.9s-1.9,3.9-4.2,3.9S621.6,457.3,621.6,455.1z
		"/>
	<path class="st0" d="M634.6,471.1c0-6.3,5-10.4,11.8-10.4c5.2,0,8.5,2.4,8.5,5.8c0,2.2-1.7,3.8-3.7,3.8c-2.1,0-3.7-1.6-3.7-3.6
		c0-1.8,1.3-3.3,3.1-3.6c-0.5-0.2-1.1-0.3-1.6-0.3c-3.1,0-5.3,2.5-5.3,6.8c0,5.2,3.1,8.1,6.9,8.1c1.6,0,3.4-0.5,4.3-1.3v1.2
		c-1.7,2.3-5,3.7-8.8,3.7C639.8,481.4,634.6,477.6,634.6,471.1z"/>
	<path class="st0" d="M667.6,460.6c2.9,0,5.4,0.5,6.6,1.1l0.1,5.5h-1.2c-0.9-3-2.7-4.9-5.3-4.9c-2.1,0-3.1,0.9-3.1,2.1
		s0.9,1.9,2.9,2.5l1.8,0.6c4.1,1.3,6.2,3.4,6.2,6.9c0,4.5-4.2,7-10.8,7c-2.9,0-6-0.7-7.7-1.5l-0.2-5.9h1.2c0.8,3.3,3.3,5.9,6.4,5.9
		c2.1,0,3.2-0.9,3.2-2.1s-0.9-2-2.8-2.6l-1.8-0.6c-3.8-1.2-6.3-3.2-6.3-6.7C656.8,463.4,660.6,460.6,667.6,460.6z"/>
</g>
<g transform="matrix(.363638 0 0 .363636 -3.272763 -2.909091)">
	<path class="st1" d="M1457.8,747.6v272.7c0,30.5,21.1,47.5,43.4,47.5c20.7,0,43.4-14.5,43.4-47.5V749.7c0-28-20.7-45.5-43.4-45.5
		S1457.8,723.5,1457.8,747.6z"/>
	<g>
		<path class="st2" d="M1344.2,886.1v134.3c0,30.5,21.1,47.5,43.4,47.5c20.7,0,43.4-14.5,43.4-47.5V888.1c0-28-20.7-45.5-43.4-45.5
			S1344.2,862,1344.2,886.1z"/>
		<circle class="st2" cx="1273.9" cy="1024.5" r="43.4"/>
	</g>
</g>
<g>
	<path class="st0" d="M200,636.1l9.7-28.2h10.1v1c-2.8,0.4-3.3,1-3.3,3.2l0.9,27c0.1,2.2,0.5,2.8,3.4,3.2v1h-13.1v-1
		c2.8-0.4,3.3-0.9,3.3-3.1l-0.8-27.1l-9.3,25l-2,6.2h-2.8l-11.8-31.3L184,637c-0.1,3.9,0.4,4.8,3.5,5.2v1h-9.2v-1
		c3-0.4,3.5-1.4,3.7-5.2l0.9-24.2c0.1-2.6-0.6-3.5-3.2-3.9v-1h9.8L200,636.1z"/>
	<path class="st0" d="M235.4,618.9c6.3,0,10.1,4.1,10.1,9.9c0,0.5-0.1,1.1-0.1,1.4h-15.6c0.3,6.5,4,10.8,9.3,10.8c2.6,0,4.7-1,6-2.3
		l0,1c-1.6,2.4-5,4-9.2,4c-6.9,0-12.1-4.9-12.1-12.4C223.7,624.1,228.3,618.9,235.4,618.9z M229.7,629.1l10.2-0.1c0-0.4,0-0.8,0-1.3
		c0-4.4-1.5-7.5-4.6-7.5C231.8,620.2,229.7,623.5,229.7,629.1z"/>
	<path class="st0" d="M251.1,621.2h-3v-0.8l8.3-6.3h0.6v5.5l6.2-0.3v1.9l-6.2-0.3v15.7c0,3.4,1.5,4.6,3.6,4.6c1.2,0,2.3-0.4,3-1.1v1
		c-0.9,1.3-3.3,2.5-6,2.5c-3.6,0-6.5-2-6.5-7V621.2z"/>
	<path class="st0" d="M273.8,624.9c2.6-4,4.6-5.9,6.8-5.9c1.9,0,2.7,1.3,2.7,2.9c0,0.8-0.2,1.6-0.5,2.1c-0.5-0.2-1.7-0.3-2.8-0.3
		c-2.4,0-5,0.8-6.2,2v13.9c0,1.9,0.4,2.3,3.2,2.8v1h-12v-1c2.5-0.4,2.9-0.8,2.9-2.5v-16.2c0-1.4-0.2-1.7-1.5-2.1L265,621v-0.9l8.8-1
		V624.9z"/>
	<path class="st0" d="M294.1,639.7c0,1.7,0.4,2.1,2.9,2.6v1h-11.7v-1c2.5-0.4,2.9-0.9,2.9-2.6v-16.1c0-1.4-0.2-1.7-1.5-2.1l-1.4-0.4
		v-0.9l8.8-1V639.7z M287.4,612c0-1.8,1.5-3.2,3.3-3.2s3.3,1.4,3.3,3.2c0,1.8-1.5,3.1-3.3,3.1S287.4,613.8,287.4,612z"/>
	<path class="st0" d="M300,631.3c0-7.2,5.3-12.4,12.6-12.4c5.4,0,8.3,2.7,8.3,5.7c0,1.7-1.3,3-2.9,3c-1.6,0-2.9-1.3-2.9-2.9
		s1.2-2.9,2.8-2.9c0.1,0,0.2,0,0.3,0c-1-0.8-2.4-1.3-4.2-1.3c-4.8,0-7.9,3.9-7.9,9.6c0,6.8,4,10.8,8.9,10.8c2.6,0,4.7-0.9,6-2.3v1
		c-1.6,2.3-5,4-9.1,4C305.2,643.7,300,638.8,300,631.3z"/>
	<path class="st0" d="M334.3,618.9c3.4,0,6,0.7,7.3,1.5l0.1,6.2h-0.9c-0.8-4.1-3.2-6.3-6.4-6.3c-3,0-4.7,1.5-4.7,3.7
		c0,2.1,1.6,3.2,4.5,4.2l1.9,0.6c4.4,1.4,6.8,3.7,6.8,7.6c0,4.6-4.6,7.3-9.8,7.3c-3.5,0-6.7-0.8-8.4-1.9l-0.3-6.6h0.9
		c1,4.6,4.3,7.2,7.7,7.2c3,0,4.9-1.7,4.9-3.9c0-2.2-1.3-3.5-4.4-4.4l-1.9-0.6c-4.3-1.4-6.9-3.5-6.9-7.2
		C324.6,621.5,328.6,618.9,334.3,618.9z"/>
	<path class="st0" d="M356.5,628.2h48.7v2h-48.7V628.2z"/>
	<path class="st0" d="M420.9,621.2h-3v-0.8l8.3-6.3h0.6v5.5l6.2-0.3v1.9l-6.2-0.3v15.7c0,3.4,1.5,4.6,3.6,4.6c1.2,0,2.3-0.4,3-1.1v1
		c-0.9,1.3-3.3,2.5-6,2.5c-3.6,0-6.5-2-6.5-7V621.2z"/>
	<path class="st0" d="M443.6,623.3c1.3-2.6,4.2-4.4,8-4.4c4.8,0,8.2,2.4,8.2,7.5v13.3c0,1.7,0.3,2.1,2.9,2.6v1h-11.5v-1
		c2.3-0.4,2.7-0.8,2.7-2.4v-12.6c0-3.8-1.9-5.7-5.1-5.7c-2.3,0-4.1,1.1-5.1,2.7v15.6c0,1.6,0.3,2,2.7,2.4v1h-11.5v-1
		c2.5-0.4,2.9-0.9,2.9-2.6v-28.3c0-1.4-0.2-1.7-1.5-2.1l-1.4-0.4v-0.9l8.8-1V623.3z"/>
	<path class="st0" d="M477.1,618.9c6.3,0,10.1,4.1,10.1,9.9c0,0.5-0.1,1.1-0.1,1.4h-15.6c0.3,6.5,4,10.8,9.3,10.8c2.6,0,4.7-1,6-2.3
		l0,1c-1.6,2.4-5,4-9.2,4c-6.9,0-12.1-4.9-12.1-12.4C465.5,624.1,470,618.9,477.1,618.9z M471.5,629.1l10.2-0.1c0-0.4,0-0.8,0-1.3
		c0-4.4-1.5-7.5-4.6-7.5C473.6,620.2,471.5,623.5,471.5,629.1z"/>
	<path class="st0" d="M515.8,643.6c-3.2,0-5.7-1.5-6.8-3.5l-2.7,3h-2.7v-31.8c0-1.4-0.1-1.7-1.5-2.1l-1.4-0.4v-0.9l8.8-1l0,16.5
		c1.3-2.7,4.3-4.5,7.9-4.5c5.3,0,9.8,4.4,9.8,12.2C527.2,638.8,522.1,643.6,515.8,643.6z M514.5,621.6c-2.3,0-4,1-5,2.7v15
		c0.7,1.4,2.5,2.6,4.6,2.6c4.2,0,6.9-3.9,6.9-10.2C521.1,625.4,518.3,621.6,514.5,621.6z"/>
	<path class="st0" d="M542.8,618.9c6.3,0,10.1,4.1,10.1,9.9c0,0.5-0.1,1.1-0.1,1.4h-15.6c0.3,6.5,4,10.8,9.3,10.8c2.6,0,4.7-1,6-2.3
		l0,1c-1.6,2.4-5,4-9.2,4c-6.9,0-12.1-4.9-12.1-12.4C531.2,624.1,535.8,618.9,542.8,618.9z M537.2,629.1l10.2-0.1c0-0.4,0-0.8,0-1.3
		c0-4.4-1.5-7.5-4.6-7.5C539.3,620.2,537.2,623.5,537.2,629.1z"/>
	<path class="st0" d="M566.6,618.9c3.4,0,6,0.7,7.3,1.5l0.1,6.2h-0.9c-0.8-4.1-3.2-6.3-6.4-6.3c-3,0-4.7,1.5-4.7,3.7
		c0,2.1,1.6,3.2,4.5,4.2l1.9,0.6c4.4,1.4,6.8,3.7,6.8,7.6c0,4.6-4.6,7.3-9.8,7.3c-3.5,0-6.7-0.8-8.4-1.9l-0.3-6.6h0.9
		c1,4.6,4.3,7.2,7.7,7.2c3,0,4.9-1.7,4.9-3.9c0-2.2-1.3-3.5-4.4-4.4l-1.9-0.6c-4.3-1.4-6.9-3.5-6.9-7.2
		C556.9,621.5,560.9,618.9,566.6,618.9z"/>
	<path class="st0" d="M581,621.2h-3v-0.8l8.3-6.3h0.6v5.5l6.2-0.3v1.9l-6.2-0.3v15.7c0,3.4,1.5,4.6,3.6,4.6c1.2,0,2.3-0.4,3-1.1v1
		c-0.9,1.3-3.3,2.5-6,2.5c-3.6,0-6.5-2-6.5-7V621.2z"/>
	<path class="st0" d="M614.8,639.7c0,1.7,0.4,2.1,2.9,2.6v1H606v-1c2.5-0.4,2.9-0.9,2.9-2.6v-16.1c0-1.4-0.2-1.7-1.5-2.1L606,621
		v-0.9l8.8-1V639.7z M608.1,612c0-1.8,1.5-3.2,3.3-3.2s3.3,1.4,3.3,3.2c0,1.8-1.5,3.1-3.3,3.1S608.1,613.8,608.1,612z"/>
	<path class="st0" d="M628.6,623.4c1.3-2.6,4.2-4.4,8-4.4c4.8,0,8.2,2.4,8.2,7.5v13.3c0,1.7,0.3,2.1,2.9,2.6v1h-11.5v-1
		c2.3-0.4,2.7-0.8,2.7-2.4v-12.6c0-3.8-1.9-5.7-5.1-5.7c-2.3,0-4.1,1.1-5.1,2.7v15.6c0,1.6,0.3,2,2.7,2.4v1h-11.5v-1
		c2.5-0.4,2.9-0.9,2.9-2.6v-16.1c0-1.4-0.2-1.7-1.5-2.1l-1.4-0.4v-0.9l8.8-1V623.4z"/>
	<path class="st0" d="M661.9,618.9c2.9,0,5.2,1.2,6.3,3v-10.5c0-1.4-0.2-1.7-1.5-2.1l-1.4-0.4v-0.9l8.9-1V639c0,1.4,0.2,1.7,1.5,2.2
		l1.4,0.4v0.9l-8.8,1v-4.3c-1.3,2.8-4.3,4.6-7.9,4.6c-5.3,0-9.8-4.4-9.8-12.2C650.6,623.8,655.7,618.9,661.9,618.9z M663.3,641
		c2.3,0,4-1,5-2.8v-15c-0.7-1.5-2.5-2.6-4.6-2.6c-4.1,0-6.9,3.9-6.9,10.2C656.7,637.1,659.5,641,663.3,641z"/>
	<path class="st0" d="M688.1,639.7c0,1.7,0.4,2.1,2.9,2.6v1h-11.7v-1c2.5-0.4,2.9-0.9,2.9-2.6v-16.1c0-1.4-0.2-1.7-1.5-2.1l-1.4-0.4
		v-0.9l8.8-1V639.7z M681.4,612c0-1.8,1.5-3.2,3.3-3.2s3.3,1.4,3.3,3.2c0,1.8-1.5,3.1-3.3,3.1S681.4,613.8,681.4,612z"/>
	<path class="st0" d="M694,631.3c0-7.2,5.3-12.4,12.6-12.4c5.4,0,8.3,2.7,8.3,5.7c0,1.7-1.3,3-2.9,3c-1.6,0-2.9-1.3-2.9-2.9
		s1.2-2.9,2.8-2.9c0.1,0,0.2,0,0.3,0c-1-0.8-2.4-1.3-4.2-1.3c-4.8,0-7.9,3.9-7.9,9.6c0,6.8,4,10.8,8.9,10.8c2.6,0,4.7-0.9,6-2.3v1
		c-1.6,2.3-5,4-9.1,4C699.2,643.7,694,638.8,694,631.3z"/>
	<path class="st0" d="M718.3,637.8c0-3.6,2.7-5.9,9.6-7.4l4.9-1v-2.6c0-4.6-2.3-6.3-6-6.3c-1.7,0-3.3,0.4-4.5,1.2
		c1.4,0.1,2.6,1.3,2.6,2.8c0,1.6-1.3,2.8-2.9,2.8c-1.6,0-2.9-1.2-2.9-2.8c0-3.1,4-5.6,9.8-5.6c5.9,0,9.7,2.3,9.7,7.6v12.2
		c0,2.1,1,3,2.5,3c0.4,0,0.8-0.1,1-0.1v0.9c-0.8,0.6-2.4,1.1-4.2,1.1c-2.6,0-4.6-1.3-5.1-3.7c-1,2.2-4,3.8-7.7,3.8
		C721.2,643.7,718.3,641.3,718.3,637.8z M728.4,641.2c2,0,3.5-0.8,4.4-2.3v-8.5l-2.3,0.5c-4.8,1.1-6.3,2.9-6.3,5.8
		C724.2,639.6,726,641.2,728.4,641.2z"/>
	<path class="st0" d="M746.3,621.2h-3v-0.8l8.3-6.3h0.6v5.5l6.2-0.3v1.9l-6.2-0.3v15.7c0,3.4,1.5,4.6,3.6,4.6c1.2,0,2.3-0.4,3-1.1v1
		c-0.9,1.3-3.3,2.5-6,2.5c-3.6,0-6.5-2-6.5-7V621.2z"/>
	<path class="st0" d="M761,631.3c0-7.3,5.5-12.4,12.7-12.4c7.1,0,12.6,4.8,12.6,12.3c0,7.3-5.6,12.5-12.7,12.5
		C766.5,643.7,761,638.8,761,631.3z M779.8,631.5c0-6.8-2.5-11.3-6.3-11.3c-3.9,0-6.2,4.2-6.2,10.8c0,6.8,2.5,11.3,6.3,11.3
		C777.6,642.3,779.8,638.1,779.8,631.5z"/>
	<path class="st0" d="M798.2,624.9c2.6-4,4.6-5.9,6.8-5.9c1.9,0,2.7,1.3,2.7,2.9c0,0.8-0.2,1.6-0.5,2.1c-0.5-0.2-1.7-0.3-2.8-0.3
		c-2.4,0-5,0.8-6.2,2v13.9c0,1.9,0.4,2.3,3.2,2.8v1h-12v-1c2.5-0.4,2.9-0.8,2.9-2.5v-16.2c0-1.4-0.2-1.7-1.5-2.1l-1.4-0.4v-0.9
		l8.8-1V624.9z"/>
	<path class="st0" d="M150.3,691.3c0-7.3,5.5-12.4,12.7-12.4c7.1,0,12.6,4.8,12.6,12.3c0,7.3-5.6,12.5-12.7,12.5
		C155.8,703.7,150.3,698.8,150.3,691.3z M169.2,691.5c0-6.8-2.5-11.3-6.3-11.3c-3.9,0-6.2,4.2-6.2,10.8c0,6.8,2.5,11.3,6.3,11.3
		C167,702.3,169.2,698.1,169.2,691.5z"/>
	<path class="st0" d="M190.8,702.2v1h-12v-1c2.5-0.4,2.9-0.8,2.9-2.5v-18.6h-2.9v-0.8l2.9-1.1v-3.9c0-5.7,3.4-8.7,8-8.7
		c3.7,0,5.5,1.7,5.5,3.9c0,1.4-1.1,2.4-2.4,2.4c-1.4,0-2.4-1-2.4-2.4c0-1.1,0.7-2.1,1.7-2.3c-0.3-0.1-0.7-0.2-1.1-0.2
		c-2.1,0-3.3,1.5-3.3,5.4v6.1l6.1-0.3v1.9l-6.1-0.3v18.6C187.6,701.4,188,701.8,190.8,702.2z"/>
	<path class="st0" d="M209,681.2h-3v-0.8l8.3-6.3h0.6v5.5l6.2-0.3v1.9l-6.2-0.3v15.7c0,3.4,1.5,4.6,3.6,4.6c1.2,0,2.3-0.4,3-1.1v1
		c-0.9,1.3-3.3,2.5-6,2.5c-3.6,0-6.5-2-6.5-7V681.2z"/>
	<path class="st0" d="M231.7,683.3c1.3-2.6,4.2-4.4,8-4.4c4.8,0,8.2,2.4,8.2,7.5v13.3c0,1.7,0.3,2.1,2.9,2.6v1h-11.5v-1
		c2.3-0.4,2.7-0.8,2.7-2.4v-12.6c0-3.8-1.9-5.7-5.1-5.7c-2.3,0-4.1,1.1-5.1,2.7v15.6c0,1.6,0.3,2,2.7,2.4v1h-11.5v-1
		c2.5-0.4,2.9-0.9,2.9-2.6v-28.3c0-1.4-0.2-1.7-1.5-2.1l-1.4-0.4v-0.9l8.8-1V683.3z"/>
	<path class="st0" d="M265.2,678.9c6.3,0,10.1,4.1,10.1,9.9c0,0.5-0.1,1.1-0.1,1.4h-15.6c0.3,6.5,4,10.8,9.3,10.8c2.6,0,4.7-1,6-2.3
		l0,1c-1.6,2.4-5,4-9.2,4c-6.9,0-12.1-4.9-12.1-12.4C253.6,684.1,258.2,678.9,265.2,678.9z M259.6,689.1l10.2-0.1c0-0.4,0-0.8,0-1.3
		c0-4.4-1.5-7.5-4.6-7.5C261.7,680.2,259.6,683.5,259.6,689.1z"/>
	<path class="st0" d="M301.9,678.9c6.3,0,10.1,4.1,10.1,9.9c0,0.5-0.1,1.1-0.1,1.4h-15.6c0.3,6.5,4,10.8,9.3,10.8c2.6,0,4.7-1,6-2.3
		l0,1c-1.6,2.4-5,4-9.2,4c-6.9,0-12.1-4.9-12.1-12.4C290.2,684.1,294.8,678.9,301.9,678.9z M296.2,689.1l10.2-0.1c0-0.4,0-0.8,0-1.3
		c0-4.4-1.5-7.5-4.6-7.5C298.3,680.2,296.2,683.5,296.2,689.1z"/>
	<path class="st0" d="M327,702.2v1h-12v-1c2.5-0.4,2.9-0.8,2.9-2.5v-18.6H315v-0.8l2.9-1.1v-3.9c0-5.7,3.4-8.7,8-8.7
		c3.7,0,5.5,1.7,5.5,3.9c0,1.4-1.1,2.4-2.4,2.4c-1.4,0-2.4-1-2.4-2.4c0-1.1,0.7-2.1,1.7-2.3c-0.3-0.1-0.7-0.2-1.1-0.2
		c-2.1,0-3.3,1.5-3.3,5.4v6.1l6.1-0.3v1.9l-6.1-0.3v18.6C323.8,701.4,324.2,701.8,327,702.2z"/>
	<path class="st0" d="M343.2,702.2v1h-12v-1c2.5-0.4,2.9-0.8,2.9-2.5v-18.6h-2.9v-0.8l2.9-1.1v-3.9c0-5.7,3.4-8.7,8-8.7
		c3.7,0,5.5,1.7,5.5,3.9c0,1.4-1.1,2.4-2.4,2.4c-1.4,0-2.4-1-2.4-2.4c0-1.1,0.7-2.1,1.7-2.3c-0.3-0.1-0.7-0.2-1.1-0.2
		c-2.1,0-3.3,1.5-3.3,5.4v6.1l6.1-0.3v1.9l-6.1-0.3v18.6C340,701.4,340.4,701.8,343.2,702.2z"/>
	<path class="st0" d="M359.3,678.9c6.3,0,10.1,4.1,10.1,9.9c0,0.5-0.1,1.1-0.1,1.4h-15.6c0.3,6.5,4,10.8,9.3,10.8c2.6,0,4.7-1,6-2.3
		l0,1c-1.6,2.4-5,4-9.2,4c-6.9,0-12.1-4.9-12.1-12.4C347.7,684.1,352.2,678.9,359.3,678.9z M353.7,689.1l10.2-0.1c0-0.4,0-0.8,0-1.3
		c0-4.4-1.5-7.5-4.6-7.5C355.8,680.2,353.7,683.5,353.7,689.1z"/>
	<path class="st0" d="M373.2,691.3c0-7.2,5.3-12.4,12.6-12.4c5.4,0,8.3,2.7,8.3,5.7c0,1.7-1.3,3-2.9,3c-1.6,0-2.9-1.3-2.9-2.9
		s1.2-2.9,2.8-2.9c0.1,0,0.2,0,0.3,0c-1-0.8-2.4-1.3-4.2-1.3c-4.8,0-7.9,3.9-7.9,9.6c0,6.8,4,10.8,8.9,10.8c2.6,0,4.7-0.9,6-2.3v1
		c-1.6,2.3-5,4-9.1,4C378.4,703.7,373.2,698.8,373.2,691.3z"/>
	<path class="st0" d="M399.4,681.2h-3v-0.8l8.3-6.3h0.6v5.5l6.2-0.3v1.9l-6.2-0.3v15.7c0,3.4,1.5,4.6,3.6,4.6c1.2,0,2.3-0.4,3-1.1v1
		c-0.9,1.3-3.3,2.5-6,2.5c-3.6,0-6.5-2-6.5-7V681.2z"/>
	<path class="st0" d="M422.2,699.7c0,1.7,0.4,2.1,2.9,2.6v1h-11.7v-1c2.5-0.4,2.9-0.9,2.9-2.6v-16.1c0-1.4-0.2-1.7-1.5-2.1l-1.4-0.4
		v-0.9l8.8-1V699.7z M415.4,672c0-1.8,1.5-3.2,3.3-3.2s3.3,1.4,3.3,3.2c0,1.8-1.5,3.1-3.3,3.1S415.4,673.8,415.4,672z"/>
	<path class="st0" d="M425.2,680.3v-1h12.6v1c-2.9,0.4-3.3,1.1-2.2,4.5l4.5,12.5l4.4-12.4c1.2-3.5,0.7-4.2-2.1-4.6v-1h8v1
		c-2,0.4-2.7,1-4.2,4.8l-7.2,18.1h-2.5l-7.5-19C427.8,681.3,427.2,680.7,425.2,680.3z"/>
	<path class="st0" d="M462.3,678.9c6.3,0,10.1,4.1,10.1,9.9c0,0.5-0.1,1.1-0.1,1.4h-15.6c0.3,6.5,4,10.8,9.3,10.8c2.6,0,4.7-1,6-2.3
		l0,1c-1.6,2.4-5,4-9.2,4c-6.9,0-12.1-4.9-12.1-12.4C450.7,684.1,455.2,678.9,462.3,678.9z M456.7,689.1l10.2-0.1c0-0.4,0-0.8,0-1.3
		c0-4.4-1.5-7.5-4.6-7.5C458.8,680.2,456.7,683.5,456.7,689.1z"/>
	<path class="st0" d="M484.1,683.4c1.3-2.6,4.2-4.4,8-4.4c4.8,0,8.2,2.4,8.2,7.5v13.3c0,1.7,0.3,2.1,2.9,2.6v1h-11.5v-1
		c2.3-0.4,2.7-0.8,2.7-2.4v-12.6c0-3.8-1.9-5.7-5.1-5.7c-2.3,0-4.1,1.1-5.1,2.7v15.6c0,1.6,0.3,2,2.7,2.4v1h-11.5v-1
		c2.5-0.4,2.9-0.9,2.9-2.6v-16.1c0-1.4-0.2-1.7-1.5-2.1l-1.4-0.4v-0.9l8.8-1V683.4z"/>
	<path class="st0" d="M517.7,678.9c6.3,0,10.1,4.1,10.1,9.9c0,0.5-0.1,1.1-0.1,1.4h-15.6c0.3,6.5,4,10.8,9.3,10.8c2.6,0,4.7-1,6-2.3
		l0,1c-1.6,2.4-5,4-9.2,4c-6.9,0-12.1-4.9-12.1-12.4C506.1,684.1,510.6,678.9,517.7,678.9z M512.1,689.1l10.2-0.1c0-0.4,0-0.8,0-1.3
		c0-4.4-1.5-7.5-4.6-7.5C514.2,680.2,512.1,683.5,512.1,689.1z"/>
	<path class="st0" d="M541.5,678.9c3.4,0,6,0.7,7.3,1.5l0.1,6.2h-0.9c-0.8-4.1-3.2-6.3-6.4-6.3c-3,0-4.7,1.5-4.7,3.7
		c0,2.1,1.6,3.2,4.5,4.2l1.9,0.6c4.4,1.4,6.8,3.7,6.8,7.6c0,4.6-4.6,7.3-9.8,7.3c-3.5,0-6.7-0.8-8.4-1.9l-0.3-6.6h0.9
		c1,4.6,4.3,7.2,7.7,7.2c3,0,4.9-1.7,4.9-3.9c0-2.2-1.3-3.5-4.4-4.4l-1.9-0.6c-4.3-1.4-6.9-3.5-6.9-7.2
		C531.8,681.5,535.8,678.9,541.5,678.9z"/>
	<path class="st0" d="M563.9,678.9c3.4,0,6,0.7,7.3,1.5l0.1,6.2h-0.9c-0.8-4.1-3.2-6.3-6.4-6.3c-3,0-4.7,1.5-4.7,3.7
		c0,2.1,1.6,3.2,4.5,4.2l1.9,0.6c4.4,1.4,6.8,3.7,6.8,7.6c0,4.6-4.6,7.3-9.8,7.3c-3.5,0-6.7-0.8-8.4-1.9l-0.3-6.6h0.9
		c1,4.6,4.3,7.2,7.7,7.2c3,0,4.9-1.7,4.9-3.9c0-2.2-1.3-3.5-4.4-4.4l-1.9-0.6c-4.3-1.4-6.9-3.5-6.9-7.2
		C554.2,681.5,558.2,678.9,563.9,678.9z"/>
	<path class="st0" d="M587.5,691.3c0-7.3,5.5-12.4,12.7-12.4c7.1,0,12.6,4.8,12.6,12.3c0,7.3-5.6,12.5-12.7,12.5
		C593,703.7,587.5,698.8,587.5,691.3z M606.4,691.5c0-6.8-2.5-11.3-6.3-11.3c-3.9,0-6.2,4.2-6.2,10.8c0,6.8,2.5,11.3,6.3,11.3
		C604.1,702.3,606.4,698.1,606.4,691.5z"/>
	<path class="st0" d="M628,702.2v1h-12v-1c2.5-0.4,2.9-0.8,2.9-2.5v-18.6H616v-0.8l2.9-1.1v-3.9c0-5.7,3.4-8.7,8-8.7
		c3.7,0,5.5,1.7,5.5,3.9c0,1.4-1.1,2.4-2.4,2.4c-1.4,0-2.4-1-2.4-2.4c0-1.1,0.7-2.1,1.7-2.3c-0.3-0.1-0.7-0.2-1.1-0.2
		c-2.1,0-3.3,1.5-3.3,5.4v6.1l6.1-0.3v1.9l-6.1-0.3v18.6C624.8,701.4,625.2,701.8,628,702.2z"/>
	<path class="st0" d="M654.2,678.9c3.4,0,6,0.7,7.3,1.5l0.1,6.2h-0.9c-0.8-4.1-3.2-6.3-6.4-6.3c-3,0-4.7,1.5-4.7,3.7
		c0,2.1,1.6,3.2,4.5,4.2l1.9,0.6c4.4,1.4,6.8,3.7,6.8,7.6c0,4.6-4.6,7.3-9.8,7.3c-3.5,0-6.7-0.8-8.4-1.9l-0.3-6.6h0.9
		c1,4.6,4.3,7.2,7.7,7.2c3,0,4.9-1.7,4.9-3.9c0-2.2-1.3-3.5-4.4-4.4l-1.9-0.6c-4.3-1.4-6.9-3.5-6.9-7.2
		C644.5,681.5,648.5,678.9,654.2,678.9z"/>
	<path class="st0" d="M666.7,691.3c0-7.3,5.5-12.4,12.7-12.4c7.1,0,12.6,4.8,12.6,12.3c0,7.3-5.6,12.5-12.7,12.5
		C672.2,703.7,666.7,698.8,666.7,691.3z M685.6,691.5c0-6.8-2.5-11.3-6.3-11.3c-3.9,0-6.2,4.2-6.2,10.8c0,6.8,2.5,11.3,6.3,11.3
		C683.3,702.3,685.6,698.1,685.6,691.5z"/>
	<path class="st0" d="M704,699.7c0,1.7,0.4,2.1,2.9,2.6v1h-11.7v-1c2.5-0.4,2.9-0.9,2.9-2.6v-28.3c0-1.4-0.2-1.7-1.5-2.1l-1.4-0.4
		v-0.9l8.8-1V699.7z"/>
	<path class="st0" d="M717.4,695.2c0,3.9,1.8,5.8,5,5.8c2.2,0,4-1.1,4.9-2.7v-14.8c0-1.4-0.2-1.7-1.5-2.1l-1.4-0.4v-0.9l8.8-1V699
		c0,1.4,0.2,1.7,1.5,2.2l1.4,0.4v0.9l-8.8,1v-4.2c-1.3,2.6-4.2,4.5-7.9,4.5c-4.7,0-8-2.5-8-7.6v-12.5c0-1.4-0.2-1.7-1.5-2.1
		l-1.4-0.4v-0.9l8.8-1V695.2z"/>
	<path class="st0" d="M741.1,681.2h-3v-0.8l8.3-6.3h0.6v5.5l6.2-0.3v1.9l-6.2-0.3v15.7c0,3.4,1.5,4.6,3.6,4.6c1.2,0,2.3-0.4,3-1.1v1
		c-0.9,1.3-3.3,2.5-6,2.5c-3.6,0-6.5-2-6.5-7V681.2z"/>
	<path class="st0" d="M763.8,699.7c0,1.7,0.4,2.1,2.9,2.6v1h-11.7v-1c2.5-0.4,2.9-0.9,2.9-2.6v-16.1c0-1.4-0.2-1.7-1.5-2.1l-1.4-0.4
		v-0.9l8.8-1V699.7z M757,672c0-1.8,1.5-3.2,3.3-3.2s3.3,1.4,3.3,3.2c0,1.8-1.5,3.1-3.3,3.1S757,673.8,757,672z"/>
	<path class="st0" d="M769.6,691.3c0-7.3,5.5-12.4,12.7-12.4c7.1,0,12.6,4.8,12.6,12.3c0,7.3-5.6,12.5-12.7,12.5
		C775.1,703.7,769.6,698.8,769.6,691.3z M788.5,691.5c0-6.8-2.5-11.3-6.3-11.3c-3.9,0-6.2,4.2-6.2,10.8c0,6.8,2.5,11.3,6.3,11.3
		C786.3,702.3,788.5,698.1,788.5,691.5z"/>
	<path class="st0" d="M806.9,683.4c1.3-2.6,4.2-4.4,8-4.4c4.8,0,8.2,2.4,8.2,7.5v13.3c0,1.7,0.3,2.1,2.9,2.6v1h-11.5v-1
		c2.3-0.4,2.7-0.8,2.7-2.4v-12.6c0-3.8-1.9-5.7-5.1-5.7c-2.3,0-4.1,1.1-5.1,2.7v15.6c0,1.6,0.3,2,2.7,2.4v1h-11.5v-1
		c2.5-0.4,2.9-0.9,2.9-2.6v-16.1c0-1.4-0.2-1.7-1.5-2.1l-1.4-0.4v-0.9l8.8-1V683.4z"/>
	<path class="st0" d="M838.7,678.9c3.4,0,6,0.7,7.3,1.5l0.1,6.2h-0.9c-0.8-4.1-3.2-6.3-6.4-6.3c-3,0-4.7,1.5-4.7,3.7
		c0,2.1,1.6,3.2,4.5,4.2l1.9,0.6c4.4,1.4,6.8,3.7,6.8,7.6c0,4.6-4.6,7.3-9.8,7.3c-3.5,0-6.7-0.8-8.4-1.9l-0.3-6.6h0.9
		c1,4.6,4.3,7.2,7.7,7.2c3,0,4.9-1.7,4.9-3.9c0-2.2-1.3-3.5-4.4-4.4l-1.9-0.6c-4.3-1.4-6.9-3.5-6.9-7.2
		C829,681.5,833,678.9,838.7,678.9z"/>
</g>
</svg>
