<?xml version="1.0" encoding="utf-8"?>
<!-- Generator: Adobe Illustrator 23.1.1, SVG Export Plug-In . SVG Version: 6.00 Build 0)  -->
<svg version="1.1" id="Слой_1" xmlns="http://www.w3.org/2000/svg" xmlns:xlink="http://www.w3.org/1999/xlink" x="0px" y="0px"
	 viewBox="0 0 1000 1000" style="enable-background:new 0 0 1000 1000;" xml:space="preserve">
<style type="text/css">
	.st0{enable-background:new    ;}
	.st1{fill:#113357;}
	.st2{fill-rule:evenodd;clip-rule:evenodd;fill:#67DBFF;}
	.st3{fill-rule:evenodd;clip-rule:evenodd;fill:#01A3FF;}
	.st4{fill-rule:evenodd;clip-rule:evenodd;fill:#0162FF;}
</style>
<title>soft</title>
<g class="st0">
	<path class="st1" d="M447.6,461.3h-1.2c-1.1-5.1-2.8-6.8-7.9-7.1l-2.2-0.1v12.1l2.2-0.1c2.6-0.2,3.3-1.3,3.9-4.4h1.1V472h-1.1
		c-0.6-3-1.4-4.2-3.9-4.4l-2.2-0.1v9c0,2,0.5,2.7,2.7,3.1v1.2h-14.7v-1.2c2-0.5,2.5-1,2.5-2.8v-20.2c0-1.8-0.5-2.3-2.5-2.8v-1.2
		h23.1L447.6,461.3z"/>
</g>
<g class="st0">
	<path class="st1" d="M458.9,467.5c1.5-4.9,3.2-6.8,5.5-6.8c2.1,0,3.2,1.9,3.2,4.3c0,1.2-0.2,2.2-0.5,2.9c-0.7-0.3-2.2-0.6-3.7-0.6
		c-1.9,0-3.8,0.4-4.5,0.9v8.9c0,1.6,0.4,2.1,2.4,2.5v1.2H448v-1.2c1.8-0.4,2.1-0.8,2.1-2.3v-11.6c0-1.5-0.2-1.8-1.3-2.2l-0.9-0.3
		V462l10.9-1.4L458.9,467.5z"/>
</g>
<g class="st0">
	<path class="st1" d="M469.2,476.6c0-3,2.3-5.2,8.9-6.4l3.7-0.7v-2c0-3.5-1.6-4.9-4.6-4.9c-0.6,0-1.2,0.1-1.8,0.2
		c1.2,0.5,2.1,1.7,2.1,3.2c0,2-1.6,3.5-3.7,3.5s-3.7-1.4-3.7-3.4c0-2.9,3.5-5.5,10-5.5c6.7,0,10.4,2.3,10.4,7.3v8.8
		c0,1.5,0.7,2.2,1.7,2.2c0.3,0,0.5,0,0.7-0.1v1.2c-1,0.7-2.9,1.2-5,1.2c-2.7,0-5.5-1.2-5.9-3.6c-0.6,2.3-3.4,3.7-6.9,3.7
		C471.4,481.3,469.2,479.5,469.2,476.6z M479.8,478.2c1,0,1.8-0.5,2-1.4v-5.9l-0.7,0.1c-2.4,0.6-3.4,2.1-3.4,4.3
		C477.7,477.2,478.6,478.2,479.8,478.2z"/>
	<path class="st1" d="M505,464.6c0.8-2.3,3.4-4,7.1-4c3.3,0,5.7,1.4,6.3,4c0.8-2.3,3.5-4,7.2-4c4.1,0,6.6,2.2,6.6,6.4v10.4
		c0,1.5,0.4,1.9,2.1,2.3v1.2h-12.7v-1.2c1.4-0.3,1.7-0.7,1.7-2.2V467c0-2-0.9-2.9-2.4-2.9c-1.2,0-2.1,0.5-2.4,1.3
		c0.1,0.4,0.1,0.8,0.1,1.3v10.8c0,1.5,0.3,1.9,1.7,2.2v1.2h-12.2v-1.2c1.4-0.3,1.7-0.7,1.7-2.2V467c0-2-0.9-2.9-2.4-2.9
		c-1.1,0-2,0.6-2.4,1.4v12c0,1.5,0.3,1.9,1.7,2.2v1.2H494v-1.2c1.8-0.4,2.1-0.8,2.1-2.3v-11.6c0-1.5-0.2-1.8-1.3-2.2l-0.9-0.3v-1.2
		l10.9-1.4v3.9H505z"/>
	<path class="st1" d="M547.5,460.6c5.9,0,9.5,3.4,9.5,8.6c0,0.6-0.1,1.2-0.1,1.6h-11.7c0.8,4.7,3.7,7,7.3,7c1.7,0,3.2-0.6,4.2-1.5
		v1.2c-1.6,2.5-5,3.8-9.1,3.8c-6.2,0-11.4-3.8-11.4-10.3C536.2,464.8,540.8,460.6,547.5,460.6z M545,469.4l4.5-0.1c0-0.4,0-1,0-1.8
		c0-3.5-0.6-5.3-2-5.3c-1.7,0-2.5,2.1-2.5,5.7C545,468.4,545,468.9,545,469.4z"/>
	<path class="st1" d="M569.8,467.5c1.5-4.9,3.2-6.8,5.5-6.8c2.1,0,3.2,1.9,3.2,4.3c0,1.2-0.2,2.2-0.5,2.9c-0.7-0.3-2.2-0.6-3.7-0.6
		c-1.9,0-3.8,0.4-4.5,0.9v8.9c0,1.6,0.4,2.1,2.4,2.5v1.2h-13.4v-1.2c1.8-0.4,2.1-0.8,2.1-2.3v-11.6c0-1.5-0.2-1.8-1.3-2.2l-0.9-0.3
		V462l10.9-1.4L569.8,467.5z"/>
</g>
<g>
	<path class="st2" d="M503.3,297h46.9v-46h-92.9v0.5L503.3,297z"/>
	<path class="st3" d="M503.3,297h-46.9v46h92.9v-0.5L503.3,297z"/>
	<path class="st4" d="M456.8,342.5h46.5V389L456.8,342.5z"/>
</g>
<g>
	<path class="st1" d="M246.6,607.4c5.6,0,9.3,1.1,11.2,2.4l0.3,8.5h-0.9c-1.3-5.9-4.8-9.6-10.3-9.6c-7.2,0-11.6,6.4-11.6,16.2
		c0,9.3,4.1,17.4,11.7,17.4c5.1,0,8.8-3.2,10.2-9.7h0.9l-0.3,8.5c-1.8,1.3-6.1,2.6-11.1,2.6c-10.6,0-18.6-7-18.6-18.4
		C228.2,613.8,236.4,607.4,246.6,607.4z"/>
	<path class="st1" d="M270.2,624.9c2.6-4,4.6-5.9,6.8-5.9c1.9,0,2.7,1.3,2.7,2.9c0,0.8-0.2,1.6-0.5,2.1c-0.5-0.2-1.7-0.3-2.8-0.3
		c-2.4,0-5,0.8-6.2,2v13.9c0,1.9,0.4,2.3,3.2,2.8v1h-12v-1c2.5-0.4,2.9-0.8,2.9-2.5v-16.2c0-1.4-0.2-1.7-1.5-2.1l-1.4-0.4v-0.9
		l8.8-1V624.9z"/>
	<path class="st1" d="M293.1,618.9c6.3,0,10.1,4.1,10.1,9.9c0,0.5-0.1,1.1-0.1,1.4h-15.6c0.3,6.5,4,10.8,9.3,10.8c2.6,0,4.7-1,6-2.3
		l0,1c-1.6,2.4-5,4-9.2,4c-6.9,0-12.1-4.9-12.1-12.4C281.4,624.1,286,618.9,293.1,618.9z M287.4,629.1l10.2-0.1c0-0.4,0-0.8,0-1.3
		c0-4.4-1.5-7.5-4.6-7.5C289.5,620.2,287.4,623.5,287.4,629.1z"/>
	<path class="st1" d="M306.9,637.8c0-3.6,2.7-5.9,9.6-7.4l4.9-1v-2.6c0-4.6-2.3-6.3-6-6.3c-1.7,0-3.3,0.4-4.5,1.2
		c1.4,0.1,2.6,1.3,2.6,2.8c0,1.6-1.3,2.8-2.9,2.8c-1.6,0-2.9-1.2-2.9-2.8c0-3.1,4-5.6,9.8-5.6c5.9,0,9.7,2.3,9.7,7.6v12.2
		c0,2.1,1,3,2.5,3c0.4,0,0.8-0.1,1-0.1v0.9c-0.8,0.6-2.4,1.1-4.2,1.1c-2.6,0-4.6-1.3-5.1-3.7c-1,2.2-4,3.8-7.7,3.8
		C309.8,643.7,306.9,641.3,306.9,637.8z M317,641.2c2,0,3.5-0.8,4.4-2.3v-8.5l-2.3,0.5c-4.8,1.1-6.3,2.9-6.3,5.8
		C312.8,639.6,314.6,641.2,317,641.2z"/>
	<path class="st1" d="M334.8,621.2h-3v-0.8l8.3-6.3h0.6v5.5l6.2-0.3v1.9l-6.2-0.3v15.7c0,3.4,1.5,4.6,3.6,4.6c1.2,0,2.3-0.4,3-1.1v1
		c-0.9,1.3-3.3,2.5-6,2.5c-3.6,0-6.5-2-6.5-7V621.2z"/>
	<path class="st1" d="M361.2,618.9c6.3,0,10.1,4.1,10.1,9.9c0,0.5-0.1,1.1-0.1,1.4h-15.6c0.3,6.5,4,10.8,9.3,10.8c2.6,0,4.7-1,6-2.3
		l0,1c-1.6,2.4-5,4-9.2,4c-6.9,0-12.1-4.9-12.1-12.4C349.5,624.1,354.1,618.9,361.2,618.9z M355.5,629.1l10.2-0.1c0-0.4,0-0.8,0-1.3
		c0-4.4-1.5-7.5-4.6-7.5C357.6,620.2,355.5,623.5,355.5,629.1z"/>
	<path class="st1" d="M386.1,637.8c0-3.6,2.7-5.9,9.6-7.4l4.9-1v-2.6c0-4.6-2.3-6.3-6-6.3c-1.7,0-3.3,0.4-4.5,1.2
		c1.4,0.1,2.6,1.3,2.6,2.8c0,1.6-1.3,2.8-2.9,2.8c-1.6,0-2.9-1.2-2.9-2.8c0-3.1,4-5.6,9.8-5.6c5.9,0,9.7,2.3,9.7,7.6v12.2
		c0,2.1,1,3,2.5,3c0.4,0,0.8-0.1,1-0.1v0.9c-0.8,0.6-2.4,1.1-4.2,1.1c-2.6,0-4.6-1.3-5.1-3.7c-1,2.2-4,3.8-7.7,3.8
		C389,643.7,386.1,641.3,386.1,637.8z M396.2,641.2c2,0,3.5-0.8,4.4-2.3v-8.5l-2.3,0.5c-4.8,1.1-6.3,2.9-6.3,5.8
		C392,639.6,393.8,641.2,396.2,641.2z"/>
	<path class="st1" d="M423.3,631.3c0-7.2,5.3-12.4,12.6-12.4c5.4,0,8.3,2.7,8.3,5.7c0,1.7-1.3,3-2.9,3c-1.6,0-2.9-1.3-2.9-2.9
		s1.2-2.9,2.8-2.9c0.1,0,0.2,0,0.3,0c-1-0.8-2.4-1.3-4.2-1.3c-4.8,0-7.9,3.9-7.9,9.6c0,6.8,4,10.8,8.9,10.8c2.6,0,4.7-0.9,6-2.3v1
		c-1.6,2.3-5,4-9.1,4C428.5,643.7,423.3,638.8,423.3,631.3z"/>
	<path class="st1" d="M447.7,631.3c0-7.3,5.5-12.4,12.7-12.4c7.1,0,12.6,4.8,12.6,12.3c0,7.3-5.6,12.5-12.7,12.5
		C453.2,643.7,447.7,638.8,447.7,631.3z M466.6,631.5c0-6.8-2.5-11.3-6.3-11.3c-3.9,0-6.2,4.2-6.2,10.8c0,6.8,2.5,11.3,6.3,11.3
		C464.3,642.3,466.6,638.1,466.6,631.5z"/>
	<path class="st1" d="M477,631.3c0-7.3,5.5-12.4,12.7-12.4c7.1,0,12.6,4.8,12.6,12.3c0,7.3-5.6,12.5-12.7,12.5
		C482.4,643.7,477,638.8,477,631.3z M495.8,631.5c0-6.8-2.5-11.3-6.3-11.3c-3.9,0-6.2,4.2-6.2,10.8c0,6.8,2.5,11.3,6.3,11.3
		C493.6,642.3,495.8,638.1,495.8,631.5z"/>
	<path class="st1" d="M514.2,639.7c0,1.7,0.4,2.1,2.9,2.6v1h-11.7v-1c2.5-0.4,2.9-0.9,2.9-2.6v-28.3c0-1.4-0.2-1.7-1.5-2.1l-1.4-0.4
		v-0.9l8.8-1V639.7z"/>
	<path class="st1" d="M545.4,643.7c-2.9,0-5.2-1.2-6.3-3v10.1c0,1.9,0.4,2.3,3.2,2.8v1h-12v-1c2.5-0.4,2.9-0.8,2.9-2.5v-27.4
		c0-1.4-0.2-1.7-1.5-2.1l-1.4-0.4v-0.9l8.8-1v4.4c1.2-2.7,4.2-4.6,7.8-4.6c5.3,0,9.9,4.5,9.9,12.2S551.6,643.7,545.4,643.7z
		 M544,621.6c-2.3,0-4,1-4.9,2.7v15c0.7,1.5,2.6,2.6,4.6,2.6c4.1,0,6.9-4,6.9-10.2C550.6,625.5,547.9,621.6,544,621.6z"/>
	<path class="st1" d="M568.7,624.9c2.6-4,4.6-5.9,6.8-5.9c1.9,0,2.7,1.3,2.7,2.9c0,0.8-0.2,1.6-0.5,2.1c-0.5-0.2-1.7-0.3-2.8-0.3
		c-2.4,0-5,0.8-6.2,2v13.9c0,1.9,0.4,2.3,3.2,2.8v1h-12v-1c2.5-0.4,2.9-0.8,2.9-2.5v-16.2c0-1.4-0.2-1.7-1.5-2.1l-1.4-0.4v-0.9
		l8.8-1V624.9z"/>
	<path class="st1" d="M579.9,631.3c0-7.3,5.5-12.4,12.7-12.4c7.1,0,12.6,4.8,12.6,12.3c0,7.3-5.6,12.5-12.7,12.5
		C585.4,643.7,579.9,638.8,579.9,631.3z M598.8,631.5c0-6.8-2.5-11.3-6.3-11.3c-3.9,0-6.2,4.2-6.2,10.8c0,6.8,2.5,11.3,6.3,11.3
		C596.5,642.3,598.8,638.1,598.8,631.5z"/>
	<path class="st1" d="M610.9,621.2h-3v-0.8l8.3-6.3h0.6v5.5l6.2-0.3v1.9l-6.2-0.3v15.7c0,3.4,1.5,4.6,3.6,4.6c1.2,0,2.3-0.4,3-1.1v1
		c-0.9,1.3-3.3,2.5-6,2.5c-3.6,0-6.5-2-6.5-7V621.2z"/>
	<path class="st1" d="M625.6,631.3c0-7.3,5.5-12.4,12.7-12.4c7.1,0,12.6,4.8,12.6,12.3c0,7.3-5.6,12.5-12.7,12.5
		C631.1,643.7,625.6,638.8,625.6,631.3z M644.5,631.5c0-6.8-2.5-11.3-6.3-11.3c-3.9,0-6.2,4.2-6.2,10.8c0,6.8,2.5,11.3,6.3,11.3
		C642.3,642.3,644.5,638.1,644.5,631.5z"/>
	<path class="st1" d="M656.7,621.2h-3v-0.8l8.3-6.3h0.6v5.5l6.2-0.3v1.9l-6.2-0.3v15.7c0,3.4,1.5,4.6,3.6,4.6c1.2,0,2.3-0.4,3-1.1v1
		c-0.9,1.3-3.3,2.5-6,2.5c-3.6,0-6.5-2-6.5-7V621.2z"/>
	<path class="st1" d="M669.3,620.3v-1h12.5v1c-2.9,0.4-3.2,1.1-2.1,4.3l4.4,12.2l4.3-12c1.2-3.3,0.8-4.1-2.1-4.5v-1h8v1
		c-2,0.4-2.7,1-4.2,4.7l-5.1,12.5l-2.5,6.1l-3.8,10.8h-4.7v-0.1c2.2-2.5,5.2-7.1,7-10.7l-8-19.4
		C671.9,621.3,671.2,620.7,669.3,620.3z"/>
	<path class="st1" d="M710.3,643.7c-2.9,0-5.2-1.2-6.3-3v10.1c0,1.9,0.4,2.3,3.2,2.8v1h-12v-1c2.5-0.4,2.9-0.8,2.9-2.5v-27.4
		c0-1.4-0.2-1.7-1.5-2.1l-1.4-0.4v-0.9l8.8-1v4.4c1.2-2.7,4.2-4.6,7.8-4.6c5.3,0,9.9,4.5,9.9,12.2S716.6,643.7,710.3,643.7z
		 M709,621.6c-2.3,0-4,1-4.9,2.7v15c0.7,1.5,2.6,2.6,4.6,2.6c4.1,0,6.9-4,6.9-10.2C715.6,625.5,712.8,621.6,709,621.6z"/>
	<path class="st1" d="M737.3,618.9c6.3,0,10.1,4.1,10.1,9.9c0,0.5-0.1,1.1-0.1,1.4h-15.6c0.3,6.5,4,10.8,9.3,10.8c2.6,0,4.7-1,6-2.3
		l0,1c-1.6,2.4-5,4-9.2,4c-6.9,0-12.1-4.9-12.1-12.4C725.7,624.1,730.2,618.9,737.3,618.9z M731.7,629.1l10.2-0.1c0-0.4,0-0.8,0-1.3
		c0-4.4-1.5-7.5-4.6-7.5C733.8,620.2,731.7,623.5,731.7,629.1z"/>
	<path class="st1" d="M761.1,618.9c3.4,0,6,0.7,7.3,1.5l0.1,6.2h-0.9c-0.8-4.1-3.2-6.3-6.4-6.3c-3,0-4.7,1.5-4.7,3.7
		c0,2.1,1.6,3.2,4.5,4.2l1.9,0.6c4.4,1.4,6.8,3.7,6.8,7.6c0,4.6-4.6,7.3-9.8,7.3c-3.5,0-6.7-0.8-8.4-1.9l-0.3-6.6h0.9
		c1,4.6,4.3,7.2,7.7,7.2c3,0,4.9-1.7,4.9-3.9c0-2.2-1.3-3.5-4.4-4.4l-1.9-0.6c-4.3-1.4-6.9-3.5-6.9-7.2
		C751.4,621.5,755.4,618.9,761.1,618.9z"/>
</g>
</svg>
