<?xml version="1.0" encoding="utf-8"?>
<!-- Generator: Adobe Illustrator 23.1.1, SVG Export Plug-In . SVG Version: 6.00 Build 0)  -->
<svg version="1.1" id="Слой_1" xmlns="http://www.w3.org/2000/svg" xmlns:xlink="http://www.w3.org/1999/xlink" x="0px" y="0px"
	 viewBox="0 0 1000 1000" style="enable-background:new 0 0 1000 1000;" xml:space="preserve">
<style type="text/css">
	.st0{enable-background:new    ;}
	.st1{fill:#113357;}
	.st2{fill-rule:evenodd;clip-rule:evenodd;fill:#113357;}
</style>
<title>soft</title>
<g class="st0">
	<path class="st1" d="M444,452.2c3.8,0,7.2,0.6,8.9,1.6l0.1,8.9h-1.2c-1-4.6-3.7-8.8-7.4-8.8c-4.5,0-7,5.2-7,13
		c0,6.9,2.2,12.9,6.3,12.9c1,0,1.9-0.3,2.3-0.7v-8.6c0-1.6-0.4-2.2-2.4-2.5v-1.2h13v1.2c-1.8,0.3-2.3,0.8-2.3,2.5v8.3
		c-2.5,1.7-6.8,2.6-11.1,2.6c-9.9,0-16.3-5.9-16.3-14.4C427,457.2,434.6,452.2,444,452.2z"/>
	<path class="st1" d="M468.9,477.4c0,1.5,0.4,1.9,2.1,2.3v1.2h-13.1v-1.2c1.8-0.4,2.1-0.8,2.1-2.3v-11.6c0-1.5-0.2-1.8-1.3-2.2
		l-0.9-0.3v-1.2l11-1.4L468.9,477.4L468.9,477.4z M459.9,455.1c0-2.3,1.9-3.9,4.2-3.9c2.3,0,4.2,1.6,4.2,3.9s-1.9,3.9-4.2,3.9
		C461.7,459,459.9,457.3,459.9,455.1z"/>
	<path class="st1" d="M474.5,463.3h-2v-1.2l9.6-6.8h1.1v6.1l4.3-0.4v2.2l-4.3-0.4v11.8c0,2.4,1,3.4,2.5,3.4c0.8,0,1.5-0.3,1.9-0.7
		v1.2c-1,1.4-3.5,2.7-6.4,2.7c-3.9,0-6.8-2-6.8-6.7L474.5,463.3L474.5,463.3z"/>
	<path class="st1" d="M503.2,479.7v1.2h-14.3v-1.2c2-0.5,2.5-1,2.5-2.8v-20.2c0-1.8-0.4-2.3-2.5-2.8v-1.2h14.3v1.2
		c-1.8,0.4-2.3,1-2.3,2.7v9.1h8.5v-9.1c0-1.7-0.4-2.3-2.3-2.7v-1.2h14.3v1.2c-2,0.4-2.5,1-2.5,2.8v20.2c0,1.8,0.5,2.3,2.5,2.8v1.2
		h-14.3v-1.2c1.9-0.4,2.3-0.9,2.3-2.7v-9.7h-8.5v9.7C500.9,478.7,501.4,479.3,503.2,479.7z"/>
	<path class="st1" d="M533.8,474.8c0,2,0.9,3,2.4,3c1.1,0,2-0.5,2.3-1.3v-10.7c0-1.5-0.2-1.8-1.3-2.2l-0.9-0.3v-1.2l11-1.4v15.6
		c0,1.5,0.2,1.8,1.3,2.2l0.9,0.3v1.2l-10.9,1.2v-3.8c-0.9,2.4-3.5,4-7.1,4c-4,0-6.6-2.1-6.6-6.6v-9c0-1.5-0.2-1.8-1.3-2.2l-0.9-0.3
		v-1.2l11-1.4L533.8,474.8L533.8,474.8z"/>
	<path class="st1" d="M566.7,481.3c-2.8,0-5.1-1.3-5.9-3l-2.5,2.6h-5.7v-24.5c0-1.5-0.2-1.8-1.3-2.2l-0.8-0.3v-1.2l11-1.4l-0.1,13.2
		c0.9-2.5,3.2-3.9,6.4-3.9c4.6,0,8,3.7,8,10.2C575.8,477.9,571.6,481.3,566.7,481.3z M563.6,464.1c-1,0-1.8,0.6-2.1,1.3v12
		c0.3,0.6,1,1.2,2,1.2c1.9,0,3.2-2.3,3.2-7.2C566.7,466.5,565.4,464.1,563.6,464.1z"/>
</g>
<g>
	<path class="st2" d="M501.2,250.8c-39.2,0-70.9,31.8-70.9,71c0,30.5,19.5,57.6,48.5,67.2c3.5,0.6,4.8-1.5,4.8-3.4
		c0-1.7-0.1-7.3-0.1-13.2c-19.7,4.3-23.9-8.4-23.9-8.4c-3.2-8.2-7.9-10.4-7.9-10.4c-6.4-4.4,0.5-4.3,0.5-4.3
		c7.1,0.5,10.9,7.3,10.9,7.3c6.3,10.8,16.6,7.7,20.6,5.9c0.6-4.6,2.5-7.7,4.5-9.5c-15.8-1.8-32.3-7.9-32.3-35.1
		c-0.1-7,2.5-13.8,7.3-19c-0.7-1.8-3.2-9,0.7-18.8c0,0,6-1.9,19.5,7.3c11.6-3.2,23.9-3.2,35.5,0c13.5-9.2,19.5-7.3,19.5-7.3
		c3.9,9.8,1.4,17,0.7,18.8c4.8,5.2,7.4,12,7.3,19c0,27.2-16.6,33.2-32.4,35c2.5,2.2,4.8,6.5,4.8,13.1c0,9.5-0.1,17.1-0.1,19.5
		c0,1.9,1.3,4.1,4.9,3.4c37.2-12.4,57.2-52.6,44.8-89.8C558.8,270.3,531.7,250.8,501.2,250.8L501.2,250.8z"/>
	<path class="st1" d="M457.2,352.6c-0.1,0.4-0.7,0.5-1.2,0.2s-0.8-0.7-0.6-1.1s0.7-0.5,1.2-0.2S457.4,352.3,457.2,352.6z"/>
	<path class="st1" d="M460.1,355.8c-0.3,0.3-1,0.2-1.4-0.3c-0.5-0.4-0.5-1-0.2-1.5c0.4-0.3,1-0.2,1.5,0.3S460.4,355.5,460.1,355.8
		L460.1,355.8z"/>
	<path class="st1" d="M462.9,359.9c-0.4,0.3-1.1,0-1.6-0.6s-0.4-1.4,0-1.7s1.1,0,1.6,0.6C463.3,358.7,463.3,359.4,462.9,359.9z"/>
	<path class="st1" d="M466.7,363.9c-0.6,0.4-1.4,0.3-1.8-0.3c-0.6-0.4-0.8-1.2-0.4-1.8c0.4-0.4,1.2-0.3,1.8,0.3
		S467.1,363.4,466.7,363.9z"/>
	<path class="st1" d="M472,366.2c-0.2,0.5-1,0.8-1.8,0.6s-1.3-0.9-1.2-1.5s1-0.8,1.8-0.6S472.2,365.6,472,366.2z"/>
	<path class="st1" d="M477.8,366.6c0,0.6-0.7,1.1-1.5,1.1s-1.5-0.5-1.5-1s0.7-1.1,1.5-1.1S477.8,366,477.8,366.6z"/>
	<path class="st1" d="M483.2,365.7c0.1,0.6-0.5,1.2-1.3,1.3s-1.6-0.2-1.7-0.8s0.5-1.2,1.3-1.3S483.1,365.1,483.2,365.7z"/>
</g>
<g>
	<path class="st1" d="M173.7,632.6v1h-13.3v-1c2.9-0.5,3.4-1,3.4-3.2v-27c0-2.1-0.5-2.7-3.4-3.2v-1h13.3v1c-2.9,0.5-3.4,1-3.4,3.2
		v27C170.3,631.6,170.8,632.1,173.7,632.6z"/>
	<path class="st1" d="M198.8,621.5l-2.6,0v8.8c0,1.6,0.3,2,2.7,2.4v1h-11.5v-1c2.5-0.4,2.9-0.9,2.9-2.6v-28.3c0-1.4-0.2-1.7-1.5-2.1
		l-1.4-0.4v-0.9l8.8-1v22.9l2.6-0.1l5.4-5.9c2-2.1,1.8-3.1-1-3.6v-1h9.3v1c-2.6,0.6-3.8,1.3-7.3,4.4l-2.3,2.2l6.2,10.6
		c2,3.5,3.1,4.5,4.6,4.8v0.9h-7.8L198.8,621.5z"/>
	<path class="st1" d="M223.4,613.7c1.3-2.6,4.2-4.4,8-4.4c4.8,0,8.2,2.4,8.2,7.5V630c0,1.7,0.3,2.1,2.9,2.6v1h-11.5v-1
		c2.3-0.4,2.7-0.8,2.7-2.4v-12.6c0-3.8-1.9-5.7-5.1-5.7c-2.3,0-4.1,1.1-5.1,2.7v15.6c0,1.6,0.3,2,2.7,2.4v1h-11.5v-1
		c2.5-0.4,2.9-0.9,2.9-2.6v-16.1c0-1.4-0.2-1.7-1.5-2.1l-1.4-0.4v-0.9l8.8-1V613.7z"/>
	<path class="st1" d="M245.4,621.7c0-7.3,5.5-12.4,12.7-12.4c7.1,0,12.6,4.8,12.6,12.3c0,7.3-5.6,12.5-12.7,12.5
		C250.8,634,245.4,629.2,245.4,621.7z M264.2,621.8c0-6.8-2.5-11.3-6.3-11.3c-3.9,0-6.2,4.2-6.2,10.8c0,6.8,2.5,11.3,6.3,11.3
		C262,632.7,264.2,628.5,264.2,621.8z"/>
	<path class="st1" d="M271.4,610.7v-1h12.2v1c-2.6,0.4-2.9,1.1-1.9,4.5l3.8,12.1l4-12.1c1-3.3,0.7-4.1-1.7-4.4v-1h11.4v1
		c-2.5,0.3-2.9,1.1-1.8,4.5l4,12.1l3.9-12c1.1-3.5,0.7-4.2-1.9-4.6v-1h7.7v1c-2,0.4-2.7,1-4.1,4.8l-6.7,18.2h-2.4l-6.6-18.5
		l-6.9,18.5H282l-6.8-19C274.2,611.7,273.4,611.1,271.4,610.7z"/>
	<path class="st1" d="M326,611.6h-3v-0.8l8.3-6.3h0.6v5.5l6.2-0.3v1.9l-6.2-0.3V627c0,3.4,1.5,4.6,3.6,4.6c1.2,0,2.3-0.4,3-1.1v1
		c-0.9,1.3-3.3,2.5-6,2.5c-3.6,0-6.5-2-6.5-7V611.6z"/>
	<path class="st1" d="M348.7,613.7c1.3-2.6,4.2-4.4,8-4.4c4.8,0,8.2,2.4,8.2,7.5V630c0,1.7,0.3,2.1,2.9,2.6v1h-11.5v-1
		c2.3-0.4,2.7-0.8,2.7-2.4v-12.6c0-3.8-1.9-5.7-5.1-5.7c-2.3,0-4.1,1.1-5.1,2.7v15.6c0,1.6,0.3,2,2.7,2.4v1h-11.5v-1
		c2.5-0.4,2.9-0.9,2.9-2.6v-28.3c0-1.4-0.2-1.7-1.5-2.1l-1.4-0.4v-0.9l8.8-1V613.7z"/>
	<path class="st1" d="M382.2,609.3c6.3,0,10.1,4.1,10.1,9.9c0,0.5-0.1,1.1-0.1,1.4h-15.6c0.3,6.5,4,10.8,9.3,10.8c2.6,0,4.7-1,6-2.3
		l0,1c-1.6,2.4-5,4-9.2,4c-6.9,0-12.1-4.9-12.1-12.4C370.6,614.5,375.2,609.3,382.2,609.3z M376.6,619.5l10.2-0.1c0-0.4,0-0.8,0-1.3
		c0-4.4-1.5-7.5-4.6-7.5C378.7,610.6,376.6,613.8,376.6,619.5z"/>
	<path class="st1" d="M417.1,609.3c3.4,0,6,0.7,7.3,1.5l0.1,6.2h-0.9c-0.8-4.1-3.2-6.3-6.4-6.3c-3,0-4.7,1.5-4.7,3.7
		c0,2.1,1.6,3.2,4.5,4.2l1.9,0.6c4.4,1.4,6.8,3.7,6.8,7.6c0,4.6-4.6,7.3-9.8,7.3c-3.5,0-6.7-0.8-8.4-1.9l-0.3-6.6h0.9
		c1,4.6,4.3,7.2,7.7,7.2c3,0,4.9-1.7,4.9-3.9c0-2.2-1.3-3.5-4.4-4.4l-1.9-0.6c-4.3-1.4-6.9-3.5-6.9-7.2
		C407.4,611.9,411.4,609.3,417.1,609.3z"/>
	<path class="st1" d="M441.2,609.3c6.3,0,10.1,4.1,10.1,9.9c0,0.5-0.1,1.1-0.1,1.4h-15.6c0.3,6.5,4,10.8,9.3,10.8c2.6,0,4.7-1,6-2.3
		l0,1c-1.6,2.4-5,4-9.2,4c-6.9,0-12.1-4.9-12.1-12.4C429.6,614.5,434.2,609.3,441.2,609.3z M435.6,619.5l10.2-0.1c0-0.4,0-0.8,0-1.3
		c0-4.4-1.5-7.5-4.6-7.5C437.7,610.6,435.6,613.8,435.6,619.5z"/>
	<path class="st1" d="M455.1,621.6c0-7.2,5.3-12.4,12.6-12.4c5.4,0,8.3,2.7,8.3,5.7c0,1.7-1.3,3-2.9,3c-1.6,0-2.9-1.3-2.9-2.9
		s1.2-2.9,2.8-2.9c0.1,0,0.2,0,0.3,0c-1-0.8-2.4-1.3-4.2-1.3c-4.8,0-7.9,3.9-7.9,9.6c0,6.8,4,10.8,8.9,10.8c2.6,0,4.7-0.9,6-2.3v1
		c-1.6,2.3-5,4-9.1,4C460.3,634,455.1,629.1,455.1,621.6z"/>
	<path class="st1" d="M487.5,615.2c2.6-4,4.6-5.9,6.8-5.9c1.9,0,2.7,1.3,2.7,2.9c0,0.8-0.2,1.6-0.5,2.1c-0.5-0.2-1.7-0.3-2.8-0.3
		c-2.4,0-5,0.8-6.2,2v13.9c0,1.9,0.4,2.3,3.2,2.8v1h-12v-1c2.5-0.4,2.9-0.8,2.9-2.5v-16.2c0-1.4-0.2-1.7-1.5-2.1l-1.4-0.4v-0.9
		l8.8-1V615.2z"/>
	<path class="st1" d="M510.3,609.3c6.3,0,10.1,4.1,10.1,9.9c0,0.5-0.1,1.1-0.1,1.4h-15.6c0.3,6.5,4,10.8,9.3,10.8c2.6,0,4.7-1,6-2.3
		l0,1c-1.6,2.4-5,4-9.2,4c-6.9,0-12.1-4.9-12.1-12.4C498.7,614.5,503.3,609.3,510.3,609.3z M504.7,619.5l10.2-0.1c0-0.4,0-0.8,0-1.3
		c0-4.4-1.5-7.5-4.6-7.5C506.8,610.6,504.7,613.8,504.7,619.5z"/>
	<path class="st1" d="M526.1,611.6h-3v-0.8l8.3-6.3h0.6v5.5l6.2-0.3v1.9l-6.2-0.3V627c0,3.4,1.5,4.6,3.6,4.6c1.2,0,2.3-0.4,3-1.1v1
		c-0.9,1.3-3.3,2.5-6,2.5c-3.6,0-6.5-2-6.5-7V611.6z"/>
	<path class="st1" d="M550.7,609.3c3.4,0,6,0.7,7.3,1.5l0.1,6.2h-0.9c-0.8-4.1-3.2-6.3-6.4-6.3c-3,0-4.7,1.5-4.7,3.7
		c0,2.1,1.6,3.2,4.5,4.2l1.9,0.6c4.4,1.4,6.8,3.7,6.8,7.6c0,4.6-4.6,7.3-9.8,7.3c-3.5,0-6.7-0.8-8.4-1.9l-0.3-6.6h0.9
		c1,4.6,4.3,7.2,7.7,7.2c3,0,4.9-1.7,4.9-3.9c0-2.2-1.3-3.5-4.4-4.4l-1.9-0.6c-4.3-1.4-6.9-3.5-6.9-7.2
		C541,611.9,545,609.3,550.7,609.3z"/>
	<path class="st1" d="M576.1,611.6h-3v-0.8l8.3-6.3h0.6v5.5l6.2-0.3v1.9l-6.2-0.3V627c0,3.4,1.5,4.6,3.6,4.6c1.2,0,2.3-0.4,3-1.1v1
		c-0.9,1.3-3.3,2.5-6,2.5c-3.6,0-6.5-2-6.5-7V611.6z"/>
	<path class="st1" d="M590.8,621.7c0-7.3,5.5-12.4,12.7-12.4c7.1,0,12.6,4.8,12.6,12.3c0,7.3-5.6,12.5-12.7,12.5
		C596.3,634,590.8,629.2,590.8,621.7z M609.7,621.8c0-6.8-2.5-11.3-6.3-11.3c-3.9,0-6.2,4.2-6.2,10.8c0,6.8,2.5,11.3,6.3,11.3
		C607.5,632.7,609.7,628.5,609.7,621.8z"/>
	<path class="st1" d="M639.2,613.7c1.3-2.6,4.1-4.4,7.9-4.4c3.7,0,6.5,1.6,7.4,4.5c1.3-2.7,4.4-4.5,8.1-4.5c4.7,0,7.9,2.5,7.9,7.5
		V630c0,1.7,0.4,2.1,2.9,2.6v1h-11.5v-1c2.4-0.4,2.7-0.8,2.7-2.4v-12.6c0-3.8-1.8-5.7-4.9-5.7c-2.3,0-4,1-5,2.5
		c0.1,0.6,0.2,1.3,0.2,2v13.7c0,1.6,0.3,2.1,2.7,2.4v1h-11.3v-1c2.4-0.4,2.7-0.8,2.7-2.4v-12.6c0-3.8-1.7-5.7-4.8-5.7
		c-2.4,0-4,1.1-4.9,2.7v15.6c0,1.6,0.3,2.1,2.7,2.4v1h-11.5v-1c2.5-0.4,2.9-0.9,2.9-2.6v-16.1c0-1.4-0.2-1.7-1.5-2.1l-1.4-0.4v-0.9
		l8.8-1V613.7z"/>
	<path class="st1" d="M676.1,628.1c0-3.6,2.7-5.9,9.6-7.4l4.9-1v-2.6c0-4.6-2.3-6.3-6-6.3c-1.7,0-3.3,0.4-4.5,1.2
		c1.4,0.1,2.6,1.3,2.6,2.8c0,1.6-1.3,2.8-2.9,2.8c-1.6,0-2.9-1.2-2.9-2.8c0-3.1,4-5.6,9.8-5.6c5.9,0,9.7,2.3,9.7,7.6v12.2
		c0,2.1,1,3,2.5,3c0.4,0,0.8-0.1,1-0.1v0.9c-0.8,0.6-2.4,1.1-4.2,1.1c-2.6,0-4.6-1.3-5.1-3.7c-1,2.2-4,3.8-7.7,3.8
		C679,634,676.1,631.7,676.1,628.1z M686.2,631.6c2,0,3.5-0.8,4.4-2.3v-8.5l-2.3,0.5c-4.8,1.1-6.3,2.9-6.3,5.8
		C682,630,683.9,631.6,686.2,631.6z"/>
	<path class="st1" d="M712.8,621.5l-2.6,0v8.8c0,1.6,0.3,2,2.7,2.4v1h-11.5v-1c2.5-0.4,2.9-0.9,2.9-2.6v-28.3c0-1.4-0.2-1.7-1.5-2.1
		l-1.4-0.4v-0.9l8.8-1v22.9l2.6-0.1l5.4-5.9c2-2.1,1.8-3.1-1-3.6v-1h9.3v1c-2.6,0.6-3.8,1.3-7.3,4.4l-2.3,2.2l6.2,10.6
		c2,3.5,3.1,4.5,4.6,4.8v0.9h-7.8L712.8,621.5z"/>
	<path class="st1" d="M740.2,609.3c6.3,0,10.1,4.1,10.1,9.9c0,0.5-0.1,1.1-0.1,1.4h-15.6c0.3,6.5,4,10.8,9.3,10.8c2.6,0,4.7-1,6-2.3
		l0,1c-1.6,2.4-5,4-9.2,4c-6.9,0-12.1-4.9-12.1-12.4C728.6,614.5,733.1,609.3,740.2,609.3z M734.5,619.5l10.2-0.1c0-0.4,0-0.8,0-1.3
		c0-4.4-1.5-7.5-4.6-7.5C736.6,610.6,734.5,613.8,734.5,619.5z"/>
	<path class="st1" d="M773.2,630c0,1.7,0.4,2.1,2.9,2.6v1h-11.7v-1c2.5-0.4,2.9-0.9,2.9-2.6v-28.3c0-1.4-0.2-1.7-1.5-2.1l-1.4-0.4
		v-0.9l8.8-1V630z"/>
	<path class="st1" d="M787.1,630c0,1.7,0.4,2.1,2.9,2.6v1h-11.7v-1c2.5-0.4,2.9-0.9,2.9-2.6v-16.1c0-1.4-0.2-1.7-1.5-2.1l-1.4-0.4
		v-0.9l8.8-1V630z M780.4,602.4c0-1.8,1.5-3.2,3.3-3.2s3.3,1.4,3.3,3.2c0,1.8-1.5,3.1-3.3,3.1S780.4,604.1,780.4,602.4z"/>
	<path class="st1" d="M804.2,632.6v1h-12v-1c2.5-0.4,2.9-0.8,2.9-2.5v-18.6h-2.9v-0.8l2.9-1.1v-3.9c0-5.7,3.4-8.7,8-8.7
		c3.7,0,5.5,1.7,5.5,3.9c0,1.4-1.1,2.4-2.4,2.4c-1.4,0-2.4-1-2.4-2.4c0-1.1,0.7-2.1,1.7-2.3c-0.3-0.1-0.7-0.2-1.1-0.2
		c-2.1,0-3.3,1.5-3.3,5.4v6.1l6.1-0.3v1.9l-6.1-0.3v18.6C801,631.7,801.4,632.2,804.2,632.6z"/>
	<path class="st1" d="M820.3,609.3c6.3,0,10.1,4.1,10.1,9.9c0,0.5-0.1,1.1-0.1,1.4h-15.6c0.3,6.5,4,10.8,9.3,10.8c2.6,0,4.7-1,6-2.3
		l0,1c-1.6,2.4-5,4-9.2,4c-6.9,0-12.1-4.9-12.1-12.4C808.7,614.5,813.2,609.3,820.3,609.3z M814.7,619.5l10.2-0.1c0-0.4,0-0.8,0-1.3
		c0-4.4-1.5-7.5-4.6-7.5C816.8,610.6,814.7,613.8,814.7,619.5z"/>
	<path class="st1" d="M251.7,669.3c6.3,0,10.1,4.1,10.1,9.9c0,0.5-0.1,1.1-0.1,1.4h-15.6c0.3,6.5,4,10.8,9.3,10.8c2.6,0,4.7-1,6-2.3
		l0,1c-1.6,2.4-5,4-9.2,4c-6.9,0-12.1-4.9-12.1-12.4C240.1,674.5,244.7,669.3,251.7,669.3z M246.1,679.5l10.2-0.1c0-0.4,0-0.8,0-1.3
		c0-4.4-1.5-7.5-4.6-7.5C248.2,670.6,246.1,673.8,246.1,679.5z"/>
	<path class="st1" d="M265.5,688.1c0-3.6,2.7-5.9,9.6-7.4l4.9-1v-2.6c0-4.6-2.3-6.3-6-6.3c-1.7,0-3.3,0.4-4.5,1.2
		c1.4,0.1,2.6,1.3,2.6,2.8c0,1.6-1.3,2.8-2.9,2.8c-1.6,0-2.9-1.2-2.9-2.8c0-3.1,4-5.6,9.8-5.6c5.9,0,9.7,2.3,9.7,7.6v12.2
		c0,2.1,1,3,2.5,3c0.4,0,0.8-0.1,1-0.1v0.9c-0.8,0.6-2.4,1.1-4.2,1.1c-2.6,0-4.6-1.3-5.1-3.7c-1,2.2-4,3.8-7.7,3.8
		C268.4,694,265.5,691.7,265.5,688.1z M275.7,691.6c2,0,3.5-0.8,4.4-2.3v-8.5l-2.3,0.5c-4.8,1.1-6.3,2.9-6.3,5.8
		C271.5,690,273.3,691.6,275.7,691.6z"/>
	<path class="st1" d="M301.6,669.3c3.4,0,6,0.7,7.3,1.5l0.1,6.2H308c-0.8-4.1-3.2-6.3-6.4-6.3c-3,0-4.7,1.5-4.7,3.7
		c0,2.1,1.6,3.2,4.5,4.2l1.9,0.6c4.4,1.4,6.8,3.7,6.8,7.6c0,4.6-4.6,7.3-9.8,7.3c-3.5,0-6.7-0.8-8.4-1.9l-0.3-6.6h0.9
		c1,4.6,4.3,7.2,7.7,7.2c3,0,4.9-1.7,4.9-3.9c0-2.2-1.3-3.5-4.4-4.4l-1.9-0.6c-4.3-1.4-6.9-3.5-6.9-7.2
		C291.8,671.9,295.8,669.3,301.6,669.3z"/>
	<path class="st1" d="M322.1,690c0,1.7,0.4,2.1,2.9,2.6v1h-11.7v-1c2.5-0.4,2.9-0.9,2.9-2.6v-16.1c0-1.4-0.2-1.7-1.5-2.1l-1.4-0.4
		v-0.9l8.8-1V690z M315.3,662.4c0-1.8,1.5-3.2,3.3-3.2s3.3,1.4,3.3,3.2c0,1.8-1.5,3.1-3.3,3.1S315.3,664.1,315.3,662.4z"/>
	<path class="st1" d="M339.6,669.3c6.3,0,10.1,4.1,10.1,9.9c0,0.5-0.1,1.1-0.1,1.4H334c0.3,6.5,4,10.8,9.3,10.8c2.6,0,4.7-1,6-2.3
		l0,1c-1.6,2.4-5,4-9.2,4c-6.9,0-12.1-4.9-12.1-12.4C327.9,674.5,332.5,669.3,339.6,669.3z M333.9,679.5l10.2-0.1c0-0.4,0-0.8,0-1.3
		c0-4.4-1.5-7.5-4.6-7.5C336,670.6,333.9,673.8,333.9,679.5z"/>
	<path class="st1" d="M361.4,675.2c2.6-4,4.6-5.9,6.8-5.9c1.9,0,2.7,1.3,2.7,2.9c0,0.8-0.2,1.6-0.5,2.1c-0.5-0.2-1.7-0.3-2.8-0.3
		c-2.4,0-5,0.8-6.2,2v13.9c0,1.9,0.4,2.3,3.2,2.8v1h-12v-1c2.5-0.4,2.9-0.8,2.9-2.5v-16.2c0-1.4-0.2-1.7-1.5-2.1l-1.4-0.4v-0.9
		l8.8-1V675.2z"/>
	<path class="st1" d="M396.1,692.6v1h-12v-1c2.5-0.4,2.9-0.8,2.9-2.5v-18.6h-2.9v-0.8l2.9-1.1v-3.9c0-5.7,3.4-8.7,8-8.7
		c3.7,0,5.5,1.7,5.5,3.9c0,1.4-1.1,2.4-2.4,2.4c-1.4,0-2.4-1-2.4-2.4c0-1.1,0.7-2.1,1.7-2.3c-0.3-0.1-0.7-0.2-1.1-0.2
		c-2.1,0-3.3,1.5-3.3,5.4v6.1l6.1-0.3v1.9l-6.1-0.3v18.6C392.9,691.7,393.3,692.2,396.1,692.6z"/>
	<path class="st1" d="M400.6,681.7c0-7.3,5.5-12.4,12.7-12.4c7.1,0,12.6,4.8,12.6,12.3c0,7.3-5.6,12.5-12.7,12.5
		C406.1,694,400.6,689.2,400.6,681.7z M419.4,681.8c0-6.8-2.5-11.3-6.3-11.3c-3.9,0-6.2,4.2-6.2,10.8c0,6.8,2.5,11.3,6.3,11.3
		C417.2,692.7,419.4,688.5,419.4,681.8z"/>
	<path class="st1" d="M437.8,675.2c2.6-4,4.6-5.9,6.8-5.9c1.9,0,2.7,1.3,2.7,2.9c0,0.8-0.2,1.6-0.5,2.1c-0.5-0.2-1.7-0.3-2.8-0.3
		c-2.4,0-5,0.8-6.2,2v13.9c0,1.9,0.4,2.3,3.2,2.8v1h-12v-1c2.5-0.4,2.9-0.8,2.9-2.5v-16.2c0-1.4-0.2-1.7-1.5-2.1l-1.4-0.4v-0.9
		l8.8-1V675.2z"/>
	<path class="st1" d="M463.1,671.6h-3v-0.8l8.3-6.3h0.6v5.5l6.2-0.3v1.9l-6.2-0.3V687c0,3.4,1.5,4.6,3.6,4.6c1.2,0,2.3-0.4,3-1.1v1
		c-0.9,1.3-3.3,2.5-6,2.5c-3.6,0-6.5-2-6.5-7V671.6z"/>
	<path class="st1" d="M485.9,673.7c1.3-2.6,4.2-4.4,8-4.4c4.8,0,8.2,2.4,8.2,7.5V690c0,1.7,0.3,2.1,2.9,2.6v1h-11.5v-1
		c2.3-0.4,2.7-0.8,2.7-2.4v-12.6c0-3.8-1.9-5.7-5.1-5.7c-2.3,0-4.1,1.1-5.1,2.7v15.6c0,1.6,0.3,2,2.7,2.4v1H477v-1
		c2.5-0.4,2.9-0.9,2.9-2.6v-28.3c0-1.4-0.2-1.7-1.5-2.1l-1.4-0.4v-0.9l8.8-1V673.7z"/>
	<path class="st1" d="M519.4,669.3c6.3,0,10.1,4.1,10.1,9.9c0,0.5-0.1,1.1-0.1,1.4h-15.6c0.3,6.5,4,10.8,9.3,10.8c2.6,0,4.7-1,6-2.3
		l0,1c-1.6,2.4-5,4-9.2,4c-6.9,0-12.1-4.9-12.1-12.4C507.8,674.5,512.3,669.3,519.4,669.3z M513.7,679.5l10.2-0.1c0-0.4,0-0.8,0-1.3
		c0-4.4-1.5-7.5-4.6-7.5C515.8,670.6,513.7,673.8,513.7,679.5z"/>
	<path class="st1" d="M555.7,669.3c2.9,0,5.2,1.2,6.3,3v-10.5c0-1.4-0.2-1.7-1.5-2.1l-1.4-0.4v-0.9l8.9-1v32.1
		c0,1.4,0.2,1.7,1.5,2.2l1.4,0.4v0.9l-8.8,1v-4.3c-1.3,2.8-4.3,4.6-7.9,4.6c-5.3,0-9.8-4.4-9.8-12.2
		C544.4,674.1,549.5,669.3,555.7,669.3z M557.1,691.4c2.3,0,4-1,5-2.8v-15c-0.7-1.5-2.5-2.6-4.6-2.6c-4.1,0-6.9,3.9-6.9,10.2
		C550.5,687.5,553.3,691.4,557.1,691.4z"/>
	<path class="st1" d="M585.5,669.3c6.3,0,10.1,4.1,10.1,9.9c0,0.5-0.1,1.1-0.1,1.4h-15.6c0.3,6.5,4,10.8,9.3,10.8c2.6,0,4.7-1,6-2.3
		l0,1c-1.6,2.4-5,4-9.2,4c-6.9,0-12.1-4.9-12.1-12.4C573.9,674.5,578.4,669.3,585.5,669.3z M579.9,679.5l10.2-0.1c0-0.4,0-0.8,0-1.3
		c0-4.4-1.5-7.5-4.6-7.5C582,670.6,579.9,673.8,579.9,679.5z"/>
	<path class="st1" d="M596.7,670.7v-1h12.6v1c-2.9,0.4-3.3,1.1-2.2,4.5l4.5,12.5l4.4-12.4c1.2-3.5,0.7-4.2-2.1-4.6v-1h8v1
		c-2,0.4-2.7,1-4.2,4.8l-7.2,18.1h-2.5l-7.5-19C599.4,671.7,598.7,671.1,596.7,670.7z"/>
	<path class="st1" d="M633.9,669.3c6.3,0,10.1,4.1,10.1,9.9c0,0.5-0.1,1.1-0.1,1.4h-15.6c0.3,6.5,4,10.8,9.3,10.8c2.6,0,4.7-1,6-2.3
		l0,1c-1.6,2.4-5,4-9.2,4c-6.9,0-12.1-4.9-12.1-12.4C622.2,674.5,626.8,669.3,633.9,669.3z M628.2,679.5l10.2-0.1c0-0.4,0-0.8,0-1.3
		c0-4.4-1.5-7.5-4.6-7.5C630.3,670.6,628.2,673.8,628.2,679.5z"/>
	<path class="st1" d="M655.8,690c0,1.7,0.4,2.1,2.9,2.6v1h-11.7v-1c2.5-0.4,2.9-0.9,2.9-2.6v-28.3c0-1.4-0.2-1.7-1.5-2.1l-1.4-0.4
		v-0.9l8.8-1V690z"/>
	<path class="st1" d="M661.7,681.7c0-7.3,5.5-12.4,12.7-12.4c7.1,0,12.6,4.8,12.6,12.3c0,7.3-5.6,12.5-12.7,12.5
		C667.2,694,661.7,689.2,661.7,681.7z M680.6,681.8c0-6.8-2.5-11.3-6.3-11.3c-3.9,0-6.2,4.2-6.2,10.8c0,6.8,2.5,11.3,6.3,11.3
		C678.3,692.7,680.6,688.5,680.6,681.8z"/>
	<path class="st1" d="M705,694c-2.9,0-5.2-1.2-6.3-3v10.1c0,1.9,0.4,2.3,3.2,2.8v1h-12v-1c2.5-0.4,2.9-0.8,2.9-2.5v-27.4
		c0-1.4-0.2-1.7-1.5-2.1l-1.4-0.4v-0.9l8.8-1v4.4c1.2-2.7,4.2-4.6,7.8-4.6c5.3,0,9.9,4.5,9.9,12.2S711.3,694,705,694z M703.7,671.9
		c-2.3,0-4,1-4.9,2.7v15c0.7,1.5,2.6,2.6,4.6,2.6c4.1,0,6.9-4,6.9-10.2C710.3,675.9,707.5,671.9,703.7,671.9z"/>
	<path class="st1" d="M732,669.3c6.3,0,10.1,4.1,10.1,9.9c0,0.5-0.1,1.1-0.1,1.4h-15.6c0.3,6.5,4,10.8,9.3,10.8c2.6,0,4.7-1,6-2.3
		l0,1c-1.6,2.4-5,4-9.2,4c-6.9,0-12.1-4.9-12.1-12.4C720.4,674.5,724.9,669.3,732,669.3z M726.4,679.5l10.2-0.1c0-0.4,0-0.8,0-1.3
		c0-4.4-1.5-7.5-4.6-7.5C728.5,670.6,726.4,673.8,726.4,679.5z"/>
	<path class="st1" d="M753.9,675.2c2.6-4,4.6-5.9,6.8-5.9c1.9,0,2.7,1.3,2.7,2.9c0,0.8-0.2,1.6-0.5,2.1c-0.5-0.2-1.7-0.3-2.8-0.3
		c-2.4,0-5,0.8-6.2,2v13.9c0,1.9,0.4,2.3,3.2,2.8v1h-12v-1c2.5-0.4,2.9-0.8,2.9-2.5v-16.2c0-1.4-0.2-1.7-1.5-2.1l-1.4-0.4v-0.9
		l8.8-1V675.2z"/>
</g>
</svg>
