<?xml version="1.0" encoding="utf-8"?>
<!-- Generator: Adobe Illustrator 23.1.1, SVG Export Plug-In . SVG Version: 6.00 Build 0)  -->
<svg version="1.1" id="Слой_1" xmlns="http://www.w3.org/2000/svg" xmlns:xlink="http://www.w3.org/1999/xlink" x="0px" y="0px"
	 viewBox="0 0 1000 1000" style="enable-background:new 0 0 1000 1000;" xml:space="preserve">
<style type="text/css">
	.st0{fill:#113357;}
	.st1{font-family:'NewYorkExtraLarge-Black';}
	.st2{font-size:40px;}
	.st3{fill:#FFFFFF;}
</style>
<g>
	<path class="st0" d="M247.3,641.9v0.8h-12.2v-0.8c3-0.4,3.5-1,3.5-3.1v-27.4c0-2.1-0.5-2.7-3.5-3.1v-0.8h12.2v0.8
		c-3,0.4-3.5,1-3.5,3.1v27.4C243.9,640.9,244.4,641.4,247.3,641.9z"/>
	<path class="st0" d="M268.7,639.4c0,1.7,0.4,2.1,3,2.5v0.8H261v-0.8c2.5-0.4,3-0.8,3-2.5v-28.8c0-1.3-0.2-1.6-1.5-2l-1.4-0.4v-0.7
		l7.8-0.9v32.8H268.7z"/>
	<path class="st0" d="M281.6,639.4c0,1.7,0.4,2.1,3,2.5v0.8h-10.7v-0.8c2.5-0.4,3-0.8,3-2.5v-16.5c0-1.3-0.2-1.6-1.5-2l-1.4-0.4
		v-0.7l7.8-0.9v20.5H281.6z M275.9,611.7c0-1.6,1.3-2.8,2.9-2.8s2.9,1.2,2.9,2.8c0,1.5-1.3,2.8-2.9,2.8S275.9,613.3,275.9,611.7z"/>
	<path class="st0" d="M297.5,630.3h-2.9v9.2c0,1.6,0.3,2,2.8,2.3v0.8h-10.5v-0.8c2.5-0.4,3-0.8,3-2.5v-28.8c0-1.3-0.2-1.6-1.5-2
		l-1.4-0.4v-0.7l7.8-0.9v22.7l2.9-0.1l5.2-5.9c1.9-2.1,1.7-2.9-1-3.4v-0.9h8.9v0.9c-2.5,0.5-3.6,1.2-7,4.3l-2.9,2.7l6.5,10.7
		c1.9,3.1,3,4,4.5,4.3v0.8H305L297.5,630.3z"/>
	<path class="st0" d="M323.6,618.7c6.1,0,9.7,4,9.7,9.7c0,0.5,0,1-0.1,1.3h-15.8c0.2,6.6,3.8,11.2,9.3,11.2c2.8,0,4.8-1,6.2-2.4v0.8
		c-1.5,2.3-4.7,3.9-8.7,3.9c-6.7,0-11.6-4.9-11.6-12.3C312.5,623.8,316.8,618.7,323.6,618.7z M317.4,628.7l11.2-0.1
		c0-0.3,0-0.7,0-1.1c0-4.4-1.7-7.7-5.1-7.7C319.8,619.8,317.5,623,317.4,628.7z"/>
	<path class="st0" d="M350.2,620.7h-3v-0.6l7.4-5.8h0.4v5l6.4-0.3v1.6l-6.4-0.3v15.9c0,3.5,1.6,4.7,3.7,4.7c1.2,0,2.4-0.4,3.1-1.1
		v0.9c-0.9,1.2-3.1,2.4-5.6,2.4c-3.3,0-6-1.8-6-6.7V620.7z"/>
	<path class="st0" d="M364.1,630.9c0-7.3,5.4-12.3,12.2-12.3c6.7,0,12,4.8,12,12.2c0,7.3-5.4,12.3-12.2,12.3
		C369.4,643.1,364.1,638.3,364.1,630.9z M383,631.1c0-6.7-2.8-11.3-6.9-11.3c-4.2,0-6.7,4.3-6.7,10.8c0,6.7,2.8,11.3,6.9,11.3
		C380.5,642,383,637.7,383,631.1z"/>
	<path class="st0" d="M414.9,618.7c2.9,0,5.1,1.2,6.2,3v-11c0-1.3-0.2-1.6-1.5-2l-1.4-0.4v-0.7l7.8-0.9V639c0,1.3,0.2,1.6,1.5,2
		l1.4,0.4v0.7l-7.7,0.9v-4.2c-1.3,2.7-4.4,4.5-7.8,4.5c-5.2,0-9.8-4.4-9.8-12.1C403.5,623.6,408.6,618.7,414.9,618.7z M415.7,640.9
		c2.6,0,4.4-1.1,5.5-3v-15c-0.8-1.6-2.8-2.8-5.1-2.8c-4.5,0-7.5,4.2-7.5,10.5S411.5,640.9,415.7,640.9z"/>
	<path class="st0" d="M443.2,618.7c6.1,0,9.7,4,9.7,9.7c0,0.5,0,1-0.1,1.3H437c0.2,6.6,3.8,11.2,9.3,11.2c2.8,0,4.8-1,6.2-2.4v0.8
		c-1.5,2.3-4.7,3.9-8.7,3.9c-6.7,0-11.6-4.9-11.6-12.3C432.1,623.8,436.4,618.7,443.2,618.7z M437,628.7l11.2-0.1c0-0.3,0-0.7,0-1.1
		c0-4.4-1.7-7.7-5.1-7.7C439.4,619.8,437.1,623,437,628.7z"/>
	<path class="st0" d="M454.1,619.9V619h11.4v0.9c-2.9,0.4-3.4,1.1-2.2,4.3l4.8,13l4.7-12.8c1.2-3.4,0.7-4.1-2.2-4.5V619h7.9v0.9
		c-2.1,0.4-2.7,1-4.2,4.7l-7.2,18.1h-1.4l-7.6-19C456.8,620.9,456.2,620.3,454.1,619.9z"/>
	<path class="st0" d="M490,618.7c6.1,0,9.7,4,9.7,9.7c0,0.5,0,1-0.1,1.3h-15.8c0.2,6.6,3.8,11.2,9.3,11.2c2.8,0,4.8-1,6.2-2.4v0.8
		c-1.5,2.3-4.7,3.9-8.7,3.9c-6.7,0-11.6-4.9-11.6-12.3C478.9,623.8,483.2,618.7,490,618.7z M483.8,628.7l11.2-0.1c0-0.3,0-0.7,0-1.1
		c0-4.4-1.7-7.7-5.1-7.7C486.2,619.8,483.9,623,483.8,628.7z"/>
	<path class="st0" d="M510.6,639.4c0,1.7,0.4,2.1,3,2.5v0.8h-10.7v-0.8c2.5-0.4,3-0.8,3-2.5v-28.8c0-1.3-0.2-1.6-1.5-2l-1.4-0.4
		v-0.7l7.8-0.9v32.8H510.6z"/>
	<path class="st0" d="M516.7,630.9c0-7.3,5.4-12.3,12.2-12.3c6.7,0,12,4.8,12,12.2c0,7.3-5.4,12.3-12.2,12.3
		C522,643.1,516.7,638.3,516.7,630.9z M535.6,631.1c0-6.7-2.8-11.3-6.9-11.3c-4.2,0-6.7,4.3-6.7,10.8c0,6.7,2.8,11.3,6.9,11.3
		C533.1,642,535.6,637.7,535.6,631.1z"/>
	<path class="st0" d="M558,643.1c-2.9,0-5.1-1.2-6.2-3v10.3c0,1.9,0.3,2.3,3.2,2.7v0.8h-11v-0.8c2.6-0.4,3-0.8,3-2.4v-27.8
		c0-1.3-0.2-1.6-1.5-2l-1.4-0.4v-0.7l7.7-0.9v4.3c1.3-2.7,4.4-4.5,7.8-4.5c5.2,0,9.8,4.4,9.8,12C569.4,638.2,564.3,643.1,558,643.1z
		 M557.2,620.9c-2.5,0-4.4,1-5.5,3v15c0.8,1.6,2.8,2.8,5.1,2.8c4.5,0,7.5-4.2,7.5-10.4C564.4,625,561.4,620.9,557.2,620.9z"/>
	<path class="st0" d="M582.4,619.9V619h11v0.9c-2.7,0.4-3,1.1-2,4.3l4.2,12.6l4.3-12.6c1.1-3.2,0.7-3.9-1.8-4.3V619h10.4v0.9
		c-2.5,0.4-3,1.1-1.8,4.3l4.3,12.6l4.2-12.5c1.1-3.4,0.7-4.1-2-4.5v-0.9h7.6v0.9c-2,0.4-2.8,1-4.1,4.7l-6.8,18.2h-1.4l-6.8-18.9
		l-7.1,18.9h-1.4l-6.8-19C585.3,620.9,584.5,620.3,582.4,619.9z"/>
	<path class="st0" d="M632.3,618.7c6.1,0,9.7,4,9.7,9.7c0,0.5,0,1-0.1,1.3h-15.8c0.2,6.6,3.8,11.2,9.3,11.2c2.8,0,4.8-1,6.2-2.4v0.8
		c-1.5,2.3-4.7,3.9-8.7,3.9c-6.7,0-11.6-4.9-11.6-12.3C621.3,623.8,625.6,618.7,632.3,618.7z M626.1,628.7l11.2-0.1
		c0-0.3,0-0.7,0-1.1c0-4.4-1.7-7.7-5.1-7.7C628.6,619.8,626.3,623,626.1,628.7z"/>
	<path class="st0" d="M658.6,643.1c-3.2,0-5.6-1.4-6.6-3.4l-2.6,3h-1.7v-32.1c0-1.3-0.1-1.6-1.5-2l-1.4-0.4v-0.7l7.8-0.9v16.5
		c1.3-2.7,4.4-4.4,7.8-4.4c5.2,0,9.8,4.3,9.8,12C670.1,638.2,665,643.1,658.6,643.1z M657.9,620.9c-2.5,0-4.4,1-5.5,3v15
		c0.8,1.6,2.8,2.8,5.1,2.8c4.5,0,7.5-4.2,7.5-10.4C665.1,625,662.1,620.9,657.9,620.9z"/>
	<path class="st0" d="M683.4,618.7c3.4,0,5.9,0.7,7,1.5l0.1,6h-0.8c-0.7-4.1-3.2-6.3-6.3-6.3s-4.9,1.6-4.9,3.9
		c0,2.3,1.7,3.4,4.7,4.4l1.9,0.6c4.2,1.3,6.6,3.6,6.6,7.4c0,4.4-4.5,7-9,7c-3.5,0-6.5-0.8-8.1-1.9l-0.3-6.5h0.8
		c1,4.7,4.3,7.2,7.6,7.2c3.1,0,5.1-1.8,5.1-4.2c0-2.3-1.4-3.7-4.6-4.7l-1.9-0.6c-4.2-1.4-6.7-3.4-6.7-7
		C674.5,621.1,678.4,618.7,683.4,618.7z"/>
	<path class="st0" d="M702.7,639.4c0,1.7,0.4,2.1,3,2.5v0.8H695v-0.8c2.5-0.4,3-0.8,3-2.5v-16.5c0-1.3-0.2-1.6-1.5-2l-1.4-0.4v-0.7
		l7.8-0.9v20.5H702.7z M697,611.7c0-1.6,1.3-2.8,2.9-2.8s2.9,1.2,2.9,2.8c0,1.5-1.3,2.8-2.9,2.8S697,613.3,697,611.7z"/>
	<path class="st0" d="M710.6,620.7h-3v-0.6l7.4-5.8h0.4v5l6.4-0.3v1.6l-6.4-0.3v15.9c0,3.5,1.6,4.7,3.7,4.7c1.2,0,2.4-0.4,3.1-1.1
		v0.9c-0.9,1.2-3.1,2.4-5.6,2.4c-3.3,0-6-1.8-6-6.7L710.6,620.7L710.6,620.7z"/>
	<path class="st0" d="M735.6,618.7c6.1,0,9.7,4,9.7,9.7c0,0.5,0,1-0.1,1.3h-15.8c0.2,6.6,3.8,11.2,9.3,11.2c2.8,0,4.8-1,6.2-2.4v0.8
		c-1.5,2.3-4.7,3.9-8.7,3.9c-6.7,0-11.6-4.9-11.6-12.3C724.6,623.8,728.9,618.7,735.6,618.7z M729.4,628.7l11.2-0.1
		c0-0.3,0-0.7,0-1.1c0-4.4-1.7-7.7-5.1-7.7C731.9,619.8,729.6,623,729.4,628.7z"/>
	<path class="st0" d="M758.5,618.7c3.4,0,5.9,0.7,7,1.5l0.1,6h-0.8c-0.7-4.1-3.2-6.3-6.3-6.3s-4.9,1.6-4.9,3.9
		c0,2.3,1.7,3.4,4.7,4.4l1.9,0.6c4.2,1.3,6.6,3.6,6.6,7.4c0,4.4-4.5,7-9,7c-3.5,0-6.5-0.8-8.1-1.9l-0.3-6.5h0.8
		c1,4.7,4.3,7.2,7.6,7.2c3.1,0,5.1-1.8,5.1-4.2c0-2.3-1.4-3.7-4.6-4.7l-1.9-0.6c-4.2-1.4-6.7-3.4-6.7-7
		C749.6,621.1,753.5,618.7,758.5,618.7z"/>
</g>
<text transform="matrix(1 0 0 1 381.0114 480.9999)" class="st0 st1 st2">HTML / CSS</text>
<path class="st0" d="M501.3,249.8c-55.6,0-69.5,13.9-69.5,69.5s13.9,69.5,69.5,69.5s69.5-13.9,69.5-69.5S556.9,249.8,501.3,249.8z"
	/>
<g>
	<path class="st3" d="M467.7,321.5v-5.9l24.7-9.1v6l-17,6.1l17,6.1v6L467.7,321.5z"/>
	<path class="st3" d="M510.2,330.6v-6l17-6.1l-17-6.1v-6l24.7,9.1v5.9L510.2,330.6z"/>
</g>
</svg>
