<?xml version="1.0" encoding="utf-8"?>
<!-- Generator: Adobe Illustrator 23.1.1, SVG Export Plug-In . SVG Version: 6.00 Build 0)  -->
<svg version="1.1" id="Слой_1" xmlns="http://www.w3.org/2000/svg" xmlns:xlink="http://www.w3.org/1999/xlink" x="0px" y="0px"
	 viewBox="0 0 1000 1000" style="enable-background:new 0 0 1000 1000;" xml:space="preserve">
<style type="text/css">
	.st0{enable-background:new    ;}
	.st1{fill:#113357;}
	.st2{fill:#FFFFFF;}
</style>
<title>soft</title>
<g class="st0">
	<path class="st1" d="M462.7,488.8l-0.5-1.1c3.8-2.5,5.1-5.4,5.1-13v-17.9c0-1.8-0.4-2.3-2.5-2.8v-1.2h14.5v1.2
		c-2,0.5-2.5,1-2.5,2.8V475C476.8,482.3,472,485.8,462.7,488.8z"/>
</g>
<g class="st0">
	<path class="st1" d="M491.4,477.4c0,1.5,0.4,1.9,2.1,2.3v1.2h-13.1v-1.2c1.8-0.4,2.1-0.8,2.1-2.3v-11.6c0-1.5-0.2-1.8-1.3-2.2
		l-0.9-0.3v-1.2l11-1.4L491.4,477.4L491.4,477.4z M482.4,455.1c0-2.3,1.9-3.9,4.2-3.9c2.3,0,4.2,1.6,4.2,3.9s-1.9,3.9-4.2,3.9
		C484.2,459,482.4,457.3,482.4,455.1z"/>
</g>
<g class="st0">
	<path class="st1" d="M506,467.5c1.5-4.9,3.2-6.8,5.5-6.8c2.1,0,3.2,1.9,3.2,4.3c0,1.2-0.2,2.2-0.5,2.9c-0.7-0.3-2.2-0.6-3.7-0.6
		c-1.9,0-3.8,0.4-4.5,0.9v8.9c0,1.6,0.4,2.1,2.4,2.5v1.2H495v-1.2c1.8-0.4,2.1-0.8,2.1-2.3v-11.6c0-1.5-0.2-1.8-1.3-2.2l-0.9-0.3
		V462l10.9-1.4L506,467.5z"/>
</g>
<g class="st0">
	<path class="st1" d="M516.3,476.6c0-3,2.3-5.2,8.9-6.4l3.7-0.7v-2c0-3.5-1.6-4.9-4.6-4.9c-0.6,0-1.2,0.1-1.8,0.2
		c1.2,0.5,2.1,1.7,2.1,3.2c0,2-1.6,3.5-3.7,3.5c-2.1,0-3.7-1.4-3.7-3.4c0-2.9,3.5-5.5,10-5.5c6.7,0,10.4,2.3,10.4,7.3v8.8
		c0,1.5,0.7,2.2,1.7,2.2c0.3,0,0.5,0,0.7-0.1v1.2c-1,0.7-2.9,1.2-5,1.2c-2.7,0-5.5-1.2-5.9-3.6c-0.6,2.3-3.4,3.7-6.9,3.7
		C518.6,481.3,516.3,479.5,516.3,476.6z M526.9,478.2c1,0,1.8-0.5,2-1.4v-5.9l-0.7,0.1c-2.4,0.6-3.4,2.1-3.4,4.3
		C524.9,477.2,525.8,478.2,526.9,478.2z"/>
</g>
<path class="st1" d="M502,389.1c0,0-40.4,0.9-52.6-12.1s-15.6-29.5-15.6-57s3.4-44.1,15.6-57.1s52.6-12,52.6-12s40.4-0.9,52.6,12
	s15.6,29.5,15.6,57.1s-3.4,44.1-15.6,57.1S502,389.1,502,389.1z"/>
<g>
	<path class="st2" d="M480.8,276.6c-3.6,0-6.5,2.9-6.5,6.5s2.9,6.5,6.5,6.5s6.5-2.9,6.5-6.5l0,0
		C487.3,279.5,484.4,276.6,480.8,276.6"/>
	<path class="st2" d="M523.2,276.6c-3.6,0-6.5,2.9-6.5,6.5s2.9,6.5,6.5,6.5s6.5-2.9,6.5-6.5l0,0
		C529.7,279.5,526.8,276.6,523.2,276.6C523.3,276.6,523.3,276.6,523.2,276.6"/>
	<path class="st2" d="M502,270.7c-3.6,0-6.5,2.9-6.5,6.4s2.9,6.5,6.4,6.5s6.5-2.9,6.5-6.4l0,0C508.5,273.6,505.6,270.7,502,270.7
		L502,270.7"/>
	<path class="st2" d="M538.5,294.6c-0.4-0.3-0.8-0.4-1.2-0.4c-0.2,0-0.5,0-0.7,0.1c-4.2,1.6-8.5,2.9-12.9,3.9
		c-0.8,0.2-1.5,0.8-1.8,1.5c-3,8.1-10.5,15.8-18.4,23.9c-0.4,0.4-0.9,0.7-1.5,0.7s-1.1-0.3-1.5-0.7c-7.9-8.1-15.5-15.7-18.4-23.8
		c-0.3-0.8-1-1.4-1.8-1.5c-4.4-1-8.7-2.3-12.9-3.9c-0.2-0.1-0.5-0.1-0.7-0.1c-0.4,0-0.9,0.1-1.2,0.4c-0.6,0.4-0.9,1.1-0.8,1.8
		c0.7,6.7,3.3,13.3,8.1,20.2c4.5,6.5,10.4,12.5,16.1,18.3c10.5,10.7,20.4,20.8,21.2,32.5c0.1,1.1,0.9,1.9,2,1.9h12.3
		c1.1,0,2-0.9,2-2v-0.1c-0.4-7.8-3.3-15.7-9-24c-1.2-1.7-2.5-3.4-3.8-5.1c-0.5-0.6-0.4-1.4,0.1-1.9l1.2-1.3
		c5.7-5.8,11.6-11.8,16.1-18.3c4.8-6.9,7.5-13.4,8.1-20.2C539.3,295.7,539,295,538.5,294.6"/>
	<path class="st2" d="M488.8,344c-0.4-0.4-0.9-0.6-1.4-0.6c-0.7,0-1.3,0.4-1.7,1c-5.2,7.9-7.9,15.3-8.2,22.8
		c-0.1,1.1,0.8,2.1,1.9,2.1h0.1h12.3c1.1,0,1.9-0.8,2-1.9c0.3-3.9,1.5-7.6,3.4-11c0.5-1,0.4-2.2-0.2-3.1
		C494.4,350.1,491.7,347,488.8,344"/>
	<path class="st2" d="M502,300.7c3.9,0,6.1-0.2,6.9-0.2c1,0,1.9,0.8,1.9,1.9c0,0.3,0,0.5-0.1,0.8c-1.7,3.9-4.1,7.5-7.2,10.5
		c-0.4,0.4-0.9,0.6-1.4,0.6l0,0c-0.5,0-1-0.2-1.4-0.6c-3.1-3-5.5-6.6-7.2-10.5c-0.1-0.2-0.1-0.5-0.1-0.8c0-1,0.8-1.9,1.9-1.9
		C495.9,300.4,498.1,300.7,502,300.7L502,300.7"/>
</g>
<g>
	<path class="st1" d="M298.2,642.2v1h-14.1v-1c3.2-0.4,3.7-1.5,2.5-5.2l-2.2-6.3h-11.5l-1.8,5.4c-1.5,4.5-1.1,5.5,2.4,6.1v1H264v-1
		c2.6-0.4,3.4-1.3,5.1-6.2l10.3-28.2h3.4l10.6,29.3C294.9,640.9,295.8,641.8,298.2,642.2z M284,629.4l-5.3-15.4l-5.2,15.4H284z"/>
	<path class="st1" d="M310.2,618.9c2,0,3.7,0.4,5.1,0.9l8.1-0.5v1.8l-6.7-0.4c2.5,1,4.1,3.3,4.1,6.1c0,4.9-4.9,7.9-10.5,7.9
		c-0.9,0-1.8-0.1-2.8-0.3c-1.9,0.4-3,1.3-3,2.7c0,1.6,1.4,2.4,4.2,2.4h4.2c6.2,0,9.5,2.5,9.5,6.9c0,5.3-5.6,8.7-12.2,8.7
		c-7,0-11.5-2.3-11.5-5.9c0-2.7,2.6-4.6,8.1-5.1c-4.1,0-7-1.8-6.9-4.7c0-2.8,2.5-4.7,6.6-5.4c-4-0.8-6.9-3.3-6.9-7.2
		C299.6,622.1,304.3,618.9,310.2,618.9z M310.4,653.8c4.3,0,7.3-2,7.3-5.3c0-2.6-1.7-4.1-5.6-4.1h-4.2c-2.8,0.4-4.2,2-4.2,4.4
		C303.7,651.7,306.2,653.8,310.4,653.8z M310.3,633.5c2.9,0,4.6-2.5,4.6-6.6c0-4-1.7-6.8-4.8-6.8c-3,0-4.6,2.6-4.6,6.6
		C305.5,630.8,307.3,633.5,310.3,633.5z"/>
	<path class="st1" d="M333.9,639.7c0,1.7,0.4,2.1,2.9,2.6v1H325v-1c2.5-0.4,2.9-0.9,2.9-2.6v-16.1c0-1.4-0.2-1.7-1.5-2.1L325,621
		v-0.9l8.8-1V639.7z M327.2,612c0-1.8,1.5-3.2,3.3-3.2s3.3,1.4,3.3,3.2c0,1.8-1.5,3.1-3.3,3.1S327.2,613.8,327.2,612z"/>
	<path class="st1" d="M347.8,639.7c0,1.7,0.4,2.1,2.9,2.6v1h-11.7v-1c2.5-0.4,2.9-0.9,2.9-2.6v-28.3c0-1.4-0.2-1.7-1.5-2.1l-1.4-0.4
		v-0.9l8.8-1V639.7z"/>
	<path class="st1" d="M365.3,618.9c6.3,0,10.1,4.1,10.1,9.9c0,0.5-0.1,1.1-0.1,1.4h-15.6c0.3,6.5,4,10.8,9.3,10.8c2.6,0,4.7-1,6-2.3
		l0,1c-1.6,2.4-5,4-9.2,4c-6.9,0-12.1-4.9-12.1-12.4C353.7,624.1,358.3,618.9,365.3,618.9z M359.7,629.1l10.2-0.1c0-0.4,0-0.8,0-1.3
		c0-4.4-1.5-7.5-4.6-7.5C361.8,620.2,359.7,623.5,359.7,629.1z"/>
	<path class="st1" d="M401.6,604.6h2.2L391.6,650h-2.2L401.6,604.6z"/>
	<path class="st1" d="M418.7,641.1l-0.3-8.5h0.9c1.4,6.4,5.7,9.7,10.7,9.7c4.2,0,7.1-2.5,7.1-6.5c0-3.4-2.1-5.7-6.7-7.3l-2.9-1
		c-5.8-2-9-5.4-9-10.4c0-6.2,5.4-9.8,12.5-9.8c4.6,0,7.9,1,9.5,2.2l0.3,7.8h-0.9c-1.3-5.5-4.4-8.7-8.9-8.7c-4.5,0-6.9,2.4-6.9,5.8
		c0,3.5,2.4,5.4,6.7,7l2.8,1c6.1,2.1,9.1,5.6,9.1,10.6c0,6.4-5.7,10.5-12.7,10.5C424.9,643.7,420.9,642.6,418.7,641.1z"/>
	<path class="st1" d="M446.8,631.3c0-7.2,5.3-12.4,12.6-12.4c5.4,0,8.3,2.7,8.3,5.7c0,1.7-1.3,3-2.9,3c-1.6,0-2.9-1.3-2.9-2.9
		s1.2-2.9,2.8-2.9c0.1,0,0.2,0,0.3,0c-1-0.8-2.4-1.3-4.2-1.3c-4.8,0-7.9,3.9-7.9,9.6c0,6.8,4,10.8,8.9,10.8c2.6,0,4.7-0.9,6-2.3v1
		c-1.6,2.3-5,4-9.1,4C452,643.7,446.8,638.8,446.8,631.3z"/>
	<path class="st1" d="M479.1,624.9c2.6-4,4.6-5.9,6.8-5.9c1.9,0,2.7,1.3,2.7,2.9c0,0.8-0.2,1.6-0.5,2.1c-0.5-0.2-1.7-0.3-2.8-0.3
		c-2.4,0-5,0.8-6.2,2v13.9c0,1.9,0.4,2.3,3.2,2.8v1h-12v-1c2.5-0.4,2.9-0.8,2.9-2.5v-16.2c0-1.4-0.2-1.7-1.5-2.1l-1.4-0.4v-0.9
		l8.8-1V624.9z"/>
	<path class="st1" d="M499,635.2c0,3.9,1.8,5.8,5,5.8c2.2,0,4-1.1,4.9-2.7v-14.8c0-1.4-0.2-1.7-1.5-2.1L506,621v-0.9l8.8-1V639
		c0,1.4,0.2,1.7,1.5,2.2l1.4,0.4v0.9l-8.8,1v-4.2c-1.3,2.6-4.2,4.5-7.9,4.5c-4.7,0-8-2.5-8-7.6v-12.5c0-1.4-0.2-1.7-1.5-2.1
		l-1.4-0.4v-0.9l8.8-1V635.2z"/>
	<path class="st1" d="M528.7,623.4c1.3-2.6,4.1-4.4,7.9-4.4c3.7,0,6.5,1.6,7.4,4.5c1.3-2.7,4.4-4.5,8.1-4.5c4.7,0,7.9,2.5,7.9,7.5
		v13.2c0,1.7,0.4,2.1,2.9,2.6v1h-11.5v-1c2.4-0.4,2.7-0.8,2.7-2.4v-12.6c0-3.8-1.8-5.7-4.9-5.7c-2.3,0-4,1-5,2.5
		c0.1,0.6,0.2,1.3,0.2,2v13.7c0,1.6,0.3,2.1,2.7,2.4v1h-11.3v-1c2.4-0.4,2.7-0.8,2.7-2.4v-12.6c0-3.8-1.7-5.7-4.8-5.7
		c-2.4,0-4,1.1-4.9,2.7v15.6c0,1.6,0.3,2.1,2.7,2.4v1h-11.5v-1c2.5-0.4,2.9-0.9,2.9-2.6v-16.1c0-1.4-0.2-1.7-1.5-2.1l-1.4-0.4v-0.9
		l8.8-1V623.4z"/>
	<path class="st1" d="M575.5,628.2h48.7v2h-48.7V628.2z"/>
	<path class="st1" d="M646,623.3c1.3-2.6,4.2-4.4,8-4.4c4.8,0,8.2,2.4,8.2,7.5v13.3c0,1.7,0.3,2.1,2.9,2.6v1h-11.5v-1
		c2.3-0.4,2.7-0.8,2.7-2.4v-12.6c0-3.8-1.9-5.7-5.1-5.7c-2.3,0-4.1,1.1-5.1,2.7v15.6c0,1.6,0.3,2,2.7,2.4v1h-11.5v-1
		c2.5-0.4,2.9-0.9,2.9-2.6v-28.3c0-1.4-0.2-1.7-1.5-2.1l-1.4-0.4v-0.9l8.8-1V623.3z"/>
	<path class="st1" d="M667.9,631.3c0-7.3,5.5-12.4,12.7-12.4c7.1,0,12.6,4.8,12.6,12.3c0,7.3-5.6,12.5-12.7,12.5
		C673.4,643.7,667.9,638.8,667.9,631.3z M686.7,631.5c0-6.8-2.5-11.3-6.3-11.3c-3.9,0-6.2,4.2-6.2,10.8c0,6.8,2.5,11.3,6.3,11.3
		C684.5,642.3,686.7,638.1,686.7,631.5z"/>
	<path class="st1" d="M705.2,639.7c0,1.7,0.4,2.1,2.9,2.6v1h-11.7v-1c2.5-0.4,2.9-0.9,2.9-2.6v-28.3c0-1.4-0.2-1.7-1.5-2.1l-1.4-0.4
		v-0.9l8.8-1V639.7z"/>
	<path class="st1" d="M708.2,620.3v-1h12.5v1c-2.9,0.4-3.2,1.1-2.1,4.3l4.4,12.2l4.3-12c1.2-3.3,0.8-4.1-2.1-4.5v-1h8v1
		c-2,0.4-2.7,1-4.2,4.7l-5.1,12.5l-2.5,6.1l-3.8,10.8h-4.7v-0.1c2.2-2.5,5.2-7.1,7-10.7l-8-19.4
		C710.9,621.3,710.2,620.7,708.2,620.3z"/>
</g>
</svg>
