<?xml version="1.0" encoding="utf-8"?>
<!-- Generator: Adobe Illustrator 23.1.1, SVG Export Plug-In . SVG Version: 6.00 Build 0)  -->
<svg version="1.1" id="Слой_1" xmlns="http://www.w3.org/2000/svg" xmlns:xlink="http://www.w3.org/1999/xlink" x="0px" y="0px"
	 viewBox="0 0 1000 1000" style="enable-background:new 0 0 1000 1000;" xml:space="preserve">
<style type="text/css">
	.st0{enable-background:new    ;}
	.st1{fill:#113357;}
	.st2{fill:#FFD031;}
	.st3{fill:#050039;}
</style>
<title>soft</title>
<g class="st0">
	<path class="st1" d="M471.4,470.4l4.6-17.7h12.9v1.2c-2.1,0.4-2.6,1-2.6,2.8l0.6,20.2c0.1,1.8,0.5,2.4,2.7,2.8v1.2H475v-1.2
		c2-0.4,2.6-1,2.5-2.7l-0.5-20.3l-4.6,15.2l-2.3,9h-5.3l-7.3-24.3l0.1,19c0,3,0.4,3.6,2.6,4.1v1.2h-7.5v-1.2c2-0.4,2.4-1.1,2.6-4.1
		l0.6-18.6c0.1-1.8-0.5-2.7-2.5-3v-1.2h12.9L471.4,470.4z"/>
	<path class="st1" d="M501.8,477.4c0,1.5,0.4,1.9,2.1,2.3v1.2h-13.1v-1.2c1.8-0.4,2.1-0.8,2.1-2.3v-11.6c0-1.5-0.2-1.8-1.3-2.2
		l-0.9-0.3v-1.2l11-1.4L501.8,477.4L501.8,477.4z M492.8,455.1c0-2.3,1.9-3.9,4.2-3.9c2.3,0,4.2,1.6,4.2,3.9s-1.9,3.9-4.2,3.9
		C494.6,459,492.8,457.3,492.8,455.1z"/>
</g>
<g class="st0">
	<path class="st1" d="M516.4,467.5c1.5-4.9,3.2-6.8,5.5-6.8c2.1,0,3.2,1.9,3.2,4.3c0,1.2-0.2,2.2-0.5,2.9c-0.7-0.3-2.2-0.6-3.7-0.6
		c-1.9,0-3.8,0.4-4.5,0.9v8.9c0,1.6,0.4,2.1,2.4,2.5v1.2h-13.4v-1.2c1.8-0.4,2.1-0.8,2.1-2.3v-11.6c0-1.5-0.2-1.8-1.3-2.2l-0.9-0.3
		V462l10.9-1.4L516.4,467.5z"/>
</g>
<g class="st0">
	<path class="st1" d="M526.5,471.1c0-6.2,5.1-10.4,12.1-10.4s12.1,3.9,12.1,10.3c0,6.2-5.1,10.5-12.2,10.5S526.5,477.4,526.5,471.1z
		 M541.5,471.1c0-5.8-1-8.9-3-8.9s-2.8,3.1-2.8,8.6c0,5.8,1,8.9,3,8.9S541.5,476.6,541.5,471.1z"/>
</g>
<path class="st2" d="M502,389.1c0,0-40.4,0.9-52.6-12.1s-15.6-29.5-15.6-57s3.4-44.1,15.6-57.1s52.6-12,52.6-12s40.4-0.9,52.6,12
	s15.6,29.5,15.6,57.1s-3.4,44.1-15.6,57.1S502,389.1,502,389.1z"/>
<polygon class="st3" points="463.2,281.2 474.5,281.2 495.9,301.5 485.7,281.3 497,281.3 518.3,296.7 508.3,281.3 519.5,281.3 
	540.9,293 519.5,358.6 508.3,358.6 518.2,298.9 497,358.8 485.8,358.8 495.6,303.9 474.5,358.7 463.1,358.7 473.3,307.4 "/>
<g>
	<path class="st1" d="M131.5,642.2v1h-13.3v-1c2.9-0.5,3.4-1,3.4-3.2v-27c0-2.1-0.5-2.7-3.4-3.2v-1h13.3v1c-2.9,0.5-3.4,1-3.4,3.2
		v27C128.1,641.2,128.6,641.8,131.5,642.2z"/>
	<path class="st1" d="M157.3,618.9c2.9,0,5.2,1.2,6.3,3v-10.5c0-1.4-0.2-1.7-1.5-2.1l-1.4-0.4v-0.9l8.9-1V639c0,1.4,0.2,1.7,1.5,2.2
		l1.4,0.4v0.9l-8.8,1v-4.3c-1.3,2.8-4.3,4.6-7.9,4.6c-5.3,0-9.8-4.4-9.8-12.2C146,623.8,151,618.9,157.3,618.9z M158.7,641
		c2.3,0,4-1,5-2.8v-15c-0.7-1.5-2.5-2.6-4.6-2.6c-4.1,0-6.9,3.9-6.9,10.2C152.1,637.1,154.9,641,158.7,641z"/>
	<path class="st1" d="M187.1,618.9c6.3,0,10.1,4.1,10.1,9.9c0,0.5-0.1,1.1-0.1,1.4h-15.6c0.3,6.5,4,10.8,9.3,10.8c2.6,0,4.7-1,6-2.3
		l0,1c-1.6,2.4-5,4-9.2,4c-6.9,0-12.1-4.9-12.1-12.4C175.5,624.1,180,618.9,187.1,618.9z M181.5,629.1l10.2-0.1c0-0.4,0-0.8,0-1.3
		c0-4.4-1.5-7.5-4.6-7.5C183.6,620.2,181.5,623.5,181.5,629.1z"/>
	<path class="st1" d="M210.9,618.9c3.4,0,6,0.7,7.3,1.5l0.1,6.2h-0.9c-0.8-4.1-3.2-6.3-6.4-6.3c-3,0-4.7,1.5-4.7,3.7
		c0,2.1,1.6,3.2,4.5,4.2l1.9,0.6c4.4,1.4,6.8,3.7,6.8,7.6c0,4.6-4.6,7.3-9.8,7.3c-3.5,0-6.7-0.8-8.4-1.9l-0.3-6.6h0.9
		c1,4.6,4.3,7.2,7.7,7.2c3,0,4.9-1.7,4.9-3.9c0-2.2-1.3-3.5-4.4-4.4l-1.9-0.6c-4.3-1.4-6.9-3.5-6.9-7.2
		C201.2,621.5,205.2,618.9,210.9,618.9z"/>
	<path class="st1" d="M231.4,639.7c0,1.7,0.4,2.1,2.9,2.6v1h-11.7v-1c2.5-0.4,2.9-0.9,2.9-2.6v-16.1c0-1.4-0.2-1.7-1.5-2.1l-1.4-0.4
		v-0.9l8.8-1V639.7z M224.7,612c0-1.8,1.5-3.2,3.3-3.2s3.3,1.4,3.3,3.2c0,1.8-1.5,3.1-3.3,3.1S224.7,613.8,224.7,612z"/>
	<path class="st1" d="M248.1,618.9c2,0,3.7,0.4,5.1,0.9l8.1-0.5v1.8l-6.7-0.4c2.5,1,4.1,3.3,4.1,6.1c0,4.9-4.9,7.9-10.5,7.9
		c-0.9,0-1.8-0.1-2.8-0.3c-1.9,0.4-3,1.3-3,2.7c0,1.6,1.4,2.4,4.2,2.4h4.2c6.2,0,9.5,2.5,9.5,6.9c0,5.3-5.6,8.7-12.2,8.7
		c-7,0-11.5-2.3-11.5-5.9c0-2.7,2.6-4.6,8.1-5.1c-4.1,0-7-1.8-6.9-4.7c0-2.8,2.5-4.7,6.6-5.4c-4-0.8-6.9-3.3-6.9-7.2
		C237.5,622.1,242.2,618.9,248.1,618.9z M248.2,653.8c4.3,0,7.3-2,7.3-5.3c0-2.6-1.7-4.1-5.6-4.1h-4.2c-2.8,0.4-4.2,2-4.2,4.4
		C241.6,651.7,244,653.8,248.2,653.8z M248.2,633.5c2.9,0,4.6-2.5,4.6-6.6c0-4-1.7-6.8-4.8-6.8c-3,0-4.6,2.6-4.6,6.6
		C243.4,630.8,245.2,633.5,248.2,633.5z"/>
	<path class="st1" d="M271.7,623.4c1.3-2.6,4.2-4.4,8-4.4c4.8,0,8.2,2.4,8.2,7.5v13.3c0,1.7,0.3,2.1,2.9,2.6v1h-11.5v-1
		c2.3-0.4,2.7-0.8,2.7-2.4v-12.6c0-3.8-1.9-5.7-5.1-5.7c-2.3,0-4.1,1.1-5.1,2.7v15.6c0,1.6,0.3,2,2.7,2.4v1h-11.5v-1
		c2.5-0.4,2.9-0.9,2.9-2.6v-16.1c0-1.4-0.2-1.7-1.5-2.1l-1.4-0.4v-0.9l8.8-1V623.4z"/>
	<path class="st1" d="M304.7,637.8c0-3.6,2.7-5.9,9.6-7.4l4.9-1v-2.6c0-4.6-2.3-6.3-6-6.3c-1.7,0-3.3,0.4-4.5,1.2
		c1.4,0.1,2.6,1.3,2.6,2.8c0,1.6-1.3,2.8-2.9,2.8c-1.6,0-2.9-1.2-2.9-2.8c0-3.1,4-5.6,9.8-5.6c5.9,0,9.7,2.3,9.7,7.6v12.2
		c0,2.1,1,3,2.5,3c0.4,0,0.8-0.1,1-0.1v0.9c-0.8,0.6-2.4,1.1-4.2,1.1c-2.6,0-4.6-1.3-5.1-3.7c-1,2.2-4,3.8-7.7,3.8
		C307.6,643.7,304.7,641.3,304.7,637.8z M314.8,641.2c2,0,3.5-0.8,4.4-2.3v-8.5l-2.3,0.5c-4.8,1.1-6.3,2.9-6.3,5.8
		C310.6,639.6,312.4,641.2,314.8,641.2z"/>
	<path class="st1" d="M338.8,623.4c1.3-2.6,4.2-4.4,8-4.4c4.8,0,8.2,2.4,8.2,7.5v13.3c0,1.7,0.3,2.1,2.9,2.6v1h-11.5v-1
		c2.3-0.4,2.7-0.8,2.7-2.4v-12.6c0-3.8-1.9-5.7-5.1-5.7c-2.3,0-4.1,1.1-5.1,2.7v15.6c0,1.6,0.3,2,2.7,2.4v1H330v-1
		c2.5-0.4,2.9-0.9,2.9-2.6v-16.1c0-1.4-0.2-1.7-1.5-2.1L330,621v-0.9l8.8-1V623.4z"/>
	<path class="st1" d="M372,618.9c2.9,0,5.2,1.2,6.3,3v-10.5c0-1.4-0.2-1.7-1.5-2.1l-1.4-0.4v-0.9l8.9-1V639c0,1.4,0.2,1.7,1.5,2.2
		l1.4,0.4v0.9l-8.8,1v-4.3c-1.3,2.8-4.3,4.6-7.9,4.6c-5.3,0-9.8-4.4-9.8-12.2C360.7,623.8,365.8,618.9,372,618.9z M373.4,641
		c2.3,0,4-1,5-2.8v-15c-0.7-1.5-2.5-2.6-4.6-2.6c-4.1,0-6.9,3.9-6.9,10.2C366.8,637.1,369.6,641,373.4,641z"/>
	<path class="st1" d="M401.3,631.3c0-7.2,5.3-12.4,12.6-12.4c5.4,0,8.3,2.7,8.3,5.7c0,1.7-1.3,3-2.9,3c-1.6,0-2.9-1.3-2.9-2.9
		s1.2-2.9,2.8-2.9c0.1,0,0.2,0,0.3,0c-1-0.8-2.4-1.3-4.2-1.3c-4.8,0-7.9,3.9-7.9,9.6c0,6.8,4,10.8,8.9,10.8c2.6,0,4.7-0.9,6-2.3v1
		c-1.6,2.3-5,4-9.1,4C406.5,643.7,401.3,638.8,401.3,631.3z"/>
	<path class="st1" d="M425.7,631.3c0-7.3,5.5-12.4,12.7-12.4c7.1,0,12.6,4.8,12.6,12.3c0,7.3-5.6,12.5-12.7,12.5
		C431.2,643.7,425.7,638.8,425.7,631.3z M444.6,631.5c0-6.8-2.5-11.3-6.3-11.3c-3.9,0-6.2,4.2-6.2,10.8c0,6.8,2.5,11.3,6.3,11.3
		C442.4,642.3,444.6,638.1,444.6,631.5z"/>
	<path class="st1" d="M463,623.4c1.3-2.6,4.1-4.4,7.9-4.4c3.7,0,6.5,1.6,7.4,4.5c1.3-2.7,4.4-4.5,8.1-4.5c4.7,0,7.9,2.5,7.9,7.5
		v13.2c0,1.7,0.4,2.1,2.9,2.6v1h-11.5v-1c2.4-0.4,2.7-0.8,2.7-2.4v-12.6c0-3.8-1.8-5.7-4.9-5.7c-2.3,0-4,1-5,2.5
		c0.1,0.6,0.2,1.3,0.2,2v13.7c0,1.6,0.3,2.1,2.7,2.4v1H470v-1c2.4-0.4,2.7-0.8,2.7-2.4v-12.6c0-3.8-1.7-5.7-4.8-5.7
		c-2.4,0-4,1.1-4.9,2.7v15.6c0,1.6,0.3,2.1,2.7,2.4v1h-11.5v-1c2.5-0.4,2.9-0.9,2.9-2.6v-16.1c0-1.4-0.2-1.7-1.5-2.1l-1.4-0.4v-0.9
		l8.8-1V623.4z"/>
	<path class="st1" d="M511.6,618.9c6.3,0,10.1,4.1,10.1,9.9c0,0.5-0.1,1.1-0.1,1.4H506c0.3,6.5,4,10.8,9.3,10.8c2.6,0,4.7-1,6-2.3
		l0,1c-1.6,2.4-5,4-9.2,4c-6.9,0-12.1-4.9-12.1-12.4C500,624.1,504.5,618.9,511.6,618.9z M506,629.1l10.2-0.1c0-0.4,0-0.8,0-1.3
		c0-4.4-1.5-7.5-4.6-7.5C508.1,620.2,506,623.5,506,629.1z"/>
	<path class="st1" d="M544.1,635.2c0,3.9,1.8,5.8,5,5.8c2.2,0,4-1.1,4.9-2.7v-14.8c0-1.4-0.2-1.7-1.5-2.1l-1.4-0.4v-0.9l8.8-1V639
		c0,1.4,0.2,1.7,1.5,2.2l1.4,0.4v0.9l-8.8,1v-4.2c-1.3,2.6-4.2,4.5-7.9,4.5c-4.7,0-8-2.5-8-7.6v-12.5c0-1.4-0.2-1.7-1.5-2.1
		l-1.4-0.4v-0.9l8.8-1V635.2z"/>
	<path class="st1" d="M580,643.7c-2.9,0-5.2-1.2-6.3-3v10.1c0,1.9,0.4,2.3,3.2,2.8v1h-12v-1c2.5-0.4,2.9-0.8,2.9-2.5v-27.4
		c0-1.4-0.2-1.7-1.5-2.1l-1.4-0.4v-0.9l8.8-1v4.4c1.2-2.7,4.2-4.6,7.8-4.6c5.3,0,9.9,4.5,9.9,12.2S586.2,643.7,580,643.7z
		 M578.6,621.6c-2.3,0-4,1-4.9,2.7v15c0.7,1.5,2.6,2.6,4.6,2.6c4.1,0,6.9-4,6.9-10.2C585.2,625.5,582.4,621.6,578.6,621.6z"/>
	<path class="st1" d="M614.4,623.3c1.3-2.6,4.2-4.4,8-4.4c4.8,0,8.2,2.4,8.2,7.5v13.3c0,1.7,0.3,2.1,2.9,2.6v1h-11.5v-1
		c2.3-0.4,2.7-0.8,2.7-2.4v-12.6c0-3.8-1.9-5.7-5.1-5.7c-2.3,0-4.1,1.1-5.1,2.7v15.6c0,1.6,0.3,2,2.7,2.4v1h-11.5v-1
		c2.5-0.4,2.9-0.9,2.9-2.6v-28.3c0-1.4-0.2-1.7-1.5-2.1l-1.4-0.4v-0.9l8.8-1V623.3z"/>
	<path class="st1" d="M632.9,620.3v-1h12.5v1c-2.9,0.4-3.2,1.1-2.1,4.3l4.4,12.2l4.3-12c1.2-3.3,0.8-4.1-2.1-4.5v-1h8v1
		c-2,0.4-2.7,1-4.2,4.7l-5.1,12.5l-2.5,6.1l-3.8,10.8h-4.7v-0.1c2.2-2.5,5.2-7.1,7-10.7l-8-19.4
		C635.5,621.3,634.8,620.7,632.9,620.3z"/>
	<path class="st1" d="M673.9,643.7c-2.9,0-5.2-1.2-6.3-3v10.1c0,1.9,0.4,2.3,3.2,2.8v1h-12v-1c2.5-0.4,2.9-0.8,2.9-2.5v-27.4
		c0-1.4-0.2-1.7-1.5-2.1l-1.4-0.4v-0.9l8.8-1v4.4c1.2-2.7,4.2-4.6,7.8-4.6c5.3,0,9.9,4.5,9.9,12.2S680.2,643.7,673.9,643.7z
		 M672.6,621.6c-2.3,0-4,1-4.9,2.7v15c0.7,1.5,2.6,2.6,4.6,2.6c4.1,0,6.9-4,6.9-10.2C679.1,625.5,676.4,621.6,672.6,621.6z"/>
	<path class="st1" d="M689.3,631.3c0-7.3,5.5-12.4,12.7-12.4c7.1,0,12.6,4.8,12.6,12.3c0,7.3-5.6,12.5-12.7,12.5
		C694.8,643.7,689.3,638.8,689.3,631.3z M708.2,631.5c0-6.8-2.5-11.3-6.3-11.3c-3.9,0-6.2,4.2-6.2,10.8c0,6.8,2.5,11.3,6.3,11.3
		C705.9,642.3,708.2,638.1,708.2,631.5z"/>
	<path class="st1" d="M720.3,621.2h-3v-0.8l8.3-6.3h0.6v5.5l6.2-0.3v1.9l-6.2-0.3v15.7c0,3.4,1.5,4.6,3.6,4.6c1.2,0,2.3-0.4,3-1.1v1
		c-0.9,1.3-3.3,2.5-6,2.5c-3.6,0-6.5-2-6.5-7V621.2z"/>
	<path class="st1" d="M743,623.3c1.3-2.6,4.2-4.4,8-4.4c4.8,0,8.2,2.4,8.2,7.5v13.3c0,1.7,0.3,2.1,2.9,2.6v1h-11.5v-1
		c2.3-0.4,2.7-0.8,2.7-2.4v-12.6c0-3.8-1.9-5.7-5.1-5.7c-2.3,0-4.1,1.1-5.1,2.7v15.6c0,1.6,0.3,2,2.7,2.4v1h-11.5v-1
		c2.5-0.4,2.9-0.9,2.9-2.6v-28.3c0-1.4-0.2-1.7-1.5-2.1l-1.4-0.4v-0.9l8.8-1V623.3z"/>
	<path class="st1" d="M776.5,618.9c6.3,0,10.1,4.1,10.1,9.9c0,0.5-0.1,1.1-0.1,1.4h-15.6c0.3,6.5,4,10.8,9.3,10.8c2.6,0,4.7-1,6-2.3
		l0,1c-1.6,2.4-5,4-9.2,4c-6.9,0-12.1-4.9-12.1-12.4C764.9,624.1,769.5,618.9,776.5,618.9z M770.9,629.1l10.2-0.1c0-0.4,0-0.8,0-1.3
		c0-4.4-1.5-7.5-4.6-7.5C773,620.2,770.9,623.5,770.9,629.1z"/>
	<path class="st1" d="M800.3,618.9c3.4,0,6,0.7,7.3,1.5l0.1,6.2h-0.9c-0.8-4.1-3.2-6.3-6.4-6.3c-3,0-4.7,1.5-4.7,3.7
		c0,2.1,1.6,3.2,4.5,4.2l1.9,0.6c4.4,1.4,6.8,3.7,6.8,7.6c0,4.6-4.6,7.3-9.8,7.3c-3.5,0-6.7-0.8-8.4-1.9l-0.3-6.6h0.9
		c1,4.6,4.3,7.2,7.7,7.2c3,0,4.9-1.7,4.9-3.9c0-2.2-1.3-3.5-4.4-4.4l-1.9-0.6c-4.3-1.4-6.9-3.5-6.9-7.2
		C790.6,621.5,794.6,618.9,800.3,618.9z"/>
	<path class="st1" d="M824.4,618.9c6.3,0,10.1,4.1,10.1,9.9c0,0.5-0.1,1.1-0.1,1.4h-15.6c0.3,6.5,4,10.8,9.3,10.8c2.6,0,4.7-1,6-2.3
		l0,1c-1.6,2.4-5,4-9.2,4c-6.9,0-12.1-4.9-12.1-12.4C812.8,624.1,817.4,618.9,824.4,618.9z M818.8,629.1L829,629c0-0.4,0-0.8,0-1.3
		c0-4.4-1.5-7.5-4.6-7.5C820.9,620.2,818.8,623.5,818.8,629.1z"/>
	<path class="st1" d="M848.2,618.9c3.4,0,6,0.7,7.3,1.5l0.1,6.2h-0.9c-0.8-4.1-3.2-6.3-6.4-6.3c-3,0-4.7,1.5-4.7,3.7
		c0,2.1,1.6,3.2,4.5,4.2l1.9,0.6c4.4,1.4,6.8,3.7,6.8,7.6c0,4.6-4.6,7.3-9.8,7.3c-3.5,0-6.7-0.8-8.4-1.9l-0.3-6.6h0.9
		c1,4.6,4.3,7.2,7.7,7.2c3,0,4.9-1.7,4.9-3.9c0-2.2-1.3-3.5-4.4-4.4l-1.9-0.6c-4.3-1.4-6.9-3.5-6.9-7.2
		C838.5,621.5,842.5,618.9,848.2,618.9z"/>
	<path class="st1" d="M860,648.2c2-0.5,3.5-1.8,3.5-3.7c0-1.9-1.5-3.2-3.5-3.3c0-2.4,1.3-4.4,3.6-4.4c2.2,0,3.7,1.9,3.7,4.7
		c0,4-3.3,7-6.9,7.6L860,648.2z"/>
	<path class="st1" d="M248.3,678.9c3.4,0,6,0.7,7.3,1.5l0.1,6.2h-0.9c-0.8-4.1-3.2-6.3-6.4-6.3c-3,0-4.7,1.5-4.7,3.7
		c0,2.1,1.6,3.2,4.5,4.2l1.9,0.6c4.4,1.4,6.8,3.7,6.8,7.6c0,4.6-4.6,7.3-9.8,7.3c-3.5,0-6.7-0.8-8.4-1.9l-0.3-6.6h0.9
		c1,4.6,4.3,7.2,7.7,7.2c3,0,4.9-1.7,4.9-3.9c0-2.2-1.3-3.5-4.4-4.4l-1.9-0.6c-4.3-1.4-6.9-3.5-6.9-7.2
		C238.6,681.5,242.6,678.9,248.3,678.9z"/>
	<path class="st1" d="M260.8,691.3c0-7.2,5.3-12.4,12.6-12.4c5.4,0,8.3,2.7,8.3,5.7c0,1.7-1.3,3-2.9,3c-1.6,0-2.9-1.3-2.9-2.9
		s1.2-2.9,2.8-2.9c0.1,0,0.2,0,0.3,0c-1-0.8-2.4-1.3-4.2-1.3c-4.8,0-7.9,3.9-7.9,9.6c0,6.8,4,10.8,8.9,10.8c2.6,0,4.7-0.9,6-2.3v1
		c-1.6,2.3-5,4-9.1,4C266,703.7,260.8,698.8,260.8,691.3z"/>
	<path class="st1" d="M293.2,684.9c2.6-4,4.6-5.9,6.8-5.9c1.9,0,2.7,1.3,2.7,2.9c0,0.8-0.2,1.6-0.5,2.1c-0.5-0.2-1.7-0.3-2.8-0.3
		c-2.4,0-5,0.8-6.2,2v13.9c0,1.9,0.4,2.3,3.2,2.8v1h-12v-1c2.5-0.4,2.9-0.8,2.9-2.5v-16.2c0-1.4-0.2-1.7-1.5-2.1l-1.4-0.4v-0.9
		l8.8-1V684.9z"/>
	<path class="st1" d="M313.5,699.7c0,1.7,0.4,2.1,2.9,2.6v1h-11.7v-1c2.5-0.4,2.9-0.9,2.9-2.6v-16.1c0-1.4-0.2-1.7-1.5-2.1l-1.4-0.4
		v-0.9l8.8-1V699.7z M306.8,672c0-1.8,1.5-3.2,3.3-3.2s3.3,1.4,3.3,3.2c0,1.8-1.5,3.1-3.3,3.1S306.8,673.8,306.8,672z"/>
	<path class="st1" d="M333.5,703.7c-2.9,0-5.2-1.2-6.3-3v10.1c0,1.9,0.4,2.3,3.2,2.8v1h-12v-1c2.5-0.4,2.9-0.8,2.9-2.5v-27.4
		c0-1.4-0.2-1.7-1.5-2.1l-1.4-0.4v-0.9l8.8-1v4.4c1.2-2.7,4.2-4.6,7.8-4.6c5.3,0,9.9,4.5,9.9,12.2S339.8,703.7,333.5,703.7z
		 M332.1,681.6c-2.3,0-4,1-4.9,2.7v15c0.7,1.5,2.6,2.6,4.6,2.6c4.1,0,6.9-4,6.9-10.2C338.7,685.5,336,681.6,332.1,681.6z"/>
	<path class="st1" d="M350.6,681.2h-3v-0.8l8.3-6.3h0.6v5.5l6.2-0.3v1.9l-6.2-0.3v15.7c0,3.4,1.5,4.6,3.6,4.6c1.2,0,2.3-0.4,3-1.1v1
		c-0.9,1.3-3.3,2.5-6,2.5c-3.6,0-6.5-2-6.5-7V681.2z"/>
	<path class="st1" d="M375.2,678.9c3.4,0,6,0.7,7.3,1.5l0.1,6.2h-0.9c-0.8-4.1-3.2-6.3-6.4-6.3c-3,0-4.7,1.5-4.7,3.7
		c0,2.1,1.6,3.2,4.5,4.2l1.9,0.6c4.4,1.4,6.8,3.7,6.8,7.6c0,4.6-4.6,7.3-9.8,7.3c-3.5,0-6.7-0.8-8.4-1.9l-0.3-6.6h0.9
		c1,4.6,4.3,7.2,7.7,7.2c3,0,4.9-1.7,4.9-3.9c0-2.2-1.3-3.5-4.4-4.4l-1.9-0.6c-4.3-1.4-6.9-3.5-6.9-7.2
		C365.5,681.5,369.5,678.9,375.2,678.9z"/>
	<path class="st1" d="M398.7,697.8c0-3.6,2.7-5.9,9.6-7.4l4.9-1v-2.6c0-4.6-2.3-6.3-6-6.3c-1.7,0-3.3,0.4-4.5,1.2
		c1.4,0.1,2.6,1.3,2.6,2.8c0,1.6-1.3,2.8-2.9,2.8c-1.6,0-2.9-1.2-2.9-2.8c0-3.1,4-5.6,9.8-5.6c5.9,0,9.7,2.3,9.7,7.6v12.2
		c0,2.1,1,3,2.5,3c0.4,0,0.8-0.1,1-0.1v0.9c-0.8,0.6-2.4,1.1-4.2,1.1c-2.6,0-4.6-1.3-5.1-3.7c-1,2.2-4,3.8-7.7,3.8
		C401.6,703.7,398.7,701.3,398.7,697.8z M408.9,701.2c2,0,3.5-0.8,4.4-2.3v-8.5l-2.3,0.5c-4.8,1.1-6.3,2.9-6.3,5.8
		C404.6,699.6,406.5,701.2,408.9,701.2z"/>
	<path class="st1" d="M432.8,683.4c1.3-2.6,4.2-4.4,8-4.4c4.8,0,8.2,2.4,8.2,7.5v13.3c0,1.7,0.3,2.1,2.9,2.6v1h-11.5v-1
		c2.3-0.4,2.7-0.8,2.7-2.4v-12.6c0-3.8-1.9-5.7-5.1-5.7c-2.3,0-4.1,1.1-5.1,2.7v15.6c0,1.6,0.3,2,2.7,2.4v1H424v-1
		c2.5-0.4,2.9-0.9,2.9-2.6v-16.1c0-1.4-0.2-1.7-1.5-2.1L424,681v-0.9l8.8-1V683.4z"/>
	<path class="st1" d="M466.1,678.9c2.9,0,5.2,1.2,6.3,3v-10.5c0-1.4-0.2-1.7-1.5-2.1l-1.4-0.4v-0.9l8.9-1V699c0,1.4,0.2,1.7,1.5,2.2
		l1.4,0.4v0.9l-8.8,1v-4.3c-1.3,2.8-4.3,4.6-7.9,4.6c-5.3,0-9.8-4.4-9.8-12.2C454.7,683.8,459.8,678.9,466.1,678.9z M467.4,701
		c2.3,0,4-1,5-2.8v-15c-0.7-1.5-2.5-2.6-4.6-2.6c-4.1,0-6.9,3.9-6.9,10.2C460.9,697.1,463.6,701,467.4,701z"/>
	<path class="st1" d="M509.5,703.7c-2.9,0-5.2-1.2-6.3-3v10.1c0,1.9,0.4,2.3,3.2,2.8v1h-12v-1c2.5-0.4,2.9-0.8,2.9-2.5v-27.4
		c0-1.4-0.2-1.7-1.5-2.1l-1.4-0.4v-0.9l8.8-1v4.4c1.2-2.7,4.2-4.6,7.8-4.6c5.3,0,9.9,4.5,9.9,12.2S515.7,703.7,509.5,703.7z
		 M508.1,681.6c-2.3,0-4,1-4.9,2.7v15c0.7,1.5,2.6,2.6,4.6,2.6c4.1,0,6.9-4,6.9-10.2C514.7,685.5,511.9,681.6,508.1,681.6z"/>
	<path class="st1" d="M532.8,684.9c2.6-4,4.6-5.9,6.8-5.9c1.9,0,2.7,1.3,2.7,2.9c0,0.8-0.2,1.6-0.5,2.1c-0.5-0.2-1.7-0.3-2.8-0.3
		c-2.4,0-5,0.8-6.2,2v13.9c0,1.9,0.4,2.3,3.2,2.8v1h-12v-1c2.5-0.4,2.9-0.8,2.9-2.5v-16.2c0-1.4-0.2-1.7-1.5-2.1L524,681v-0.9l8.8-1
		V684.9z"/>
	<path class="st1" d="M544,691.3c0-7.3,5.5-12.4,12.7-12.4c7.1,0,12.6,4.8,12.6,12.3c0,7.3-5.6,12.5-12.7,12.5
		C549.5,703.7,544,698.8,544,691.3z M562.9,691.5c0-6.8-2.5-11.3-6.3-11.3c-3.9,0-6.2,4.2-6.2,10.8c0,6.8,2.5,11.3,6.3,11.3
		C560.6,702.3,562.9,698.1,562.9,691.5z"/>
	<path class="st1" d="M581.1,698.9c0,7.8-2.1,10.6-8.6,14.9l-1.5,1l-0.6-0.8c3.8-3.3,4.8-6.7,4.8-14.1v-16.4c0-1.4-0.2-1.7-1.5-2.1
		l-1.4-0.4v-0.9l8.8-1V698.9z M574.3,672c0-1.8,1.5-3.2,3.3-3.2c1.8,0,3.3,1.4,3.3,3.2c0,1.8-1.5,3.1-3.3,3.1
		C575.8,675.1,574.3,673.8,574.3,672z"/>
	<path class="st1" d="M598.3,678.9c6.3,0,10.1,4.1,10.1,9.9c0,0.5-0.1,1.1-0.1,1.4h-15.6c0.3,6.5,4,10.8,9.3,10.8c2.6,0,4.7-1,6-2.3
		l0,1c-1.6,2.4-5,4-9.2,4c-6.9,0-12.1-4.9-12.1-12.4C586.6,684.1,591.2,678.9,598.3,678.9z M592.6,689.1l10.2-0.1c0-0.4,0-0.8,0-1.3
		c0-4.4-1.5-7.5-4.6-7.5C594.7,680.2,592.6,683.5,592.6,689.1z"/>
	<path class="st1" d="M612.1,691.3c0-7.2,5.3-12.4,12.6-12.4c5.4,0,8.3,2.7,8.3,5.7c0,1.7-1.3,3-2.9,3c-1.6,0-2.9-1.3-2.9-2.9
		s1.2-2.9,2.8-2.9c0.1,0,0.2,0,0.3,0c-1-0.8-2.4-1.3-4.2-1.3c-4.8,0-7.9,3.9-7.9,9.6c0,6.8,4,10.8,8.9,10.8c2.6,0,4.7-0.9,6-2.3v1
		c-1.6,2.3-5,4-9.1,4C617.3,703.7,612.1,698.8,612.1,691.3z"/>
	<path class="st1" d="M638.4,681.2h-3v-0.8l8.3-6.3h0.6v5.5l6.2-0.3v1.9l-6.2-0.3v15.7c0,3.4,1.5,4.6,3.6,4.6c1.2,0,2.3-0.4,3-1.1v1
		c-0.9,1.3-3.3,2.5-6,2.5c-3.6,0-6.5-2-6.5-7V681.2z"/>
	<path class="st1" d="M675.4,702.2v1h-12v-1c2.5-0.4,2.9-0.8,2.9-2.5v-18.6h-2.9v-0.8l2.9-1.1v-3.9c0-5.7,3.4-8.7,8-8.7
		c3.7,0,5.5,1.7,5.5,3.9c0,1.4-1.1,2.4-2.4,2.4c-1.4,0-2.4-1-2.4-2.4c0-1.1,0.7-2.1,1.7-2.3c-0.3-0.1-0.7-0.2-1.1-0.2
		c-2.1,0-3.3,1.5-3.3,5.4v6.1l6.1-0.3v1.9l-6.1-0.3v18.6C672.2,701.4,672.6,701.8,675.4,702.2z"/>
	<path class="st1" d="M689.5,699.7c0,1.7,0.4,2.1,2.9,2.6v1h-11.7v-1c2.5-0.4,2.9-0.9,2.9-2.6v-28.3c0-1.4-0.2-1.7-1.5-2.1l-1.4-0.4
		v-0.9l8.8-1V699.7z"/>
	<path class="st1" d="M695.4,691.3c0-7.3,5.5-12.4,12.7-12.4c7.1,0,12.6,4.8,12.6,12.3c0,7.3-5.6,12.5-12.7,12.5
		C700.9,703.7,695.4,698.8,695.4,691.3z M714.3,691.5c0-6.8-2.5-11.3-6.3-11.3c-3.9,0-6.2,4.2-6.2,10.8c0,6.8,2.5,11.3,6.3,11.3
		C712,702.3,714.3,698.1,714.3,691.5z"/>
	<path class="st1" d="M721.5,680.3v-1h12.2v1c-2.6,0.4-2.9,1.1-1.9,4.5l3.8,12.1l4-12.1c1-3.3,0.7-4.1-1.7-4.4v-1h11.4v1
		c-2.5,0.3-2.9,1.1-1.8,4.5l4,12.1l3.9-12c1.1-3.5,0.7-4.2-1.9-4.6v-1h7.7v1c-2,0.4-2.7,1-4.1,4.8l-6.7,18.2H748l-6.6-18.5
		l-6.9,18.5h-2.4l-6.8-19C724.3,681.3,723.5,680.7,721.5,680.3z"/>
</g>
</svg>
