<?xml version="1.0" encoding="utf-8"?>
<!-- Generator: Adobe Illustrator 23.1.1, SVG Export Plug-In . SVG Version: 6.00 Build 0)  -->
<svg version="1.1" id="Слой_1" xmlns="http://www.w3.org/2000/svg" xmlns:xlink="http://www.w3.org/1999/xlink" x="0px" y="0px"
	 viewBox="0 0 1000 1000" style="enable-background:new 0 0 1000 1000;" xml:space="preserve">
<style type="text/css">
	.st0{enable-background:new    ;}
	.st1{fill:#113357;}
	.st2{fill:url(#path-5_1_);}
	.st3{fill:url(#SVGID_1_);}
	.st4{fill:#F7F7F7;}
</style>
<title>soft</title>
<g class="st0">
	<path class="st1" d="M418.8,469.8h-2.9v6.8c0,2,0.5,2.7,2.7,3.1v1.2h-14.7v-1.2c2-0.5,2.5-1,2.5-2.8v-20.2c0-1.8-0.5-2.3-2.5-2.8
		v-1.2h14.9c8.6,0,13.4,2.8,13.4,8.2C432.2,466.7,426.4,469.8,418.8,469.8z M416.9,454.2l-1-0.1v14.2l1-0.1c3.4-0.2,5.4-2.9,5.4-7
		C422.3,457.3,420.6,454.4,416.9,454.2z"/>
	<path class="st1" d="M445.2,467.5c1.5-4.9,3.2-6.8,5.5-6.8c2.1,0,3.2,1.9,3.2,4.3c0,1.2-0.2,2.2-0.5,2.9c-0.7-0.3-2.2-0.6-3.7-0.6
		c-1.9,0-3.8,0.4-4.5,0.9v8.9c0,1.6,0.4,2.1,2.4,2.5v1.2h-13.4v-1.2c1.8-0.4,2.1-0.8,2.1-2.3v-11.6c0-1.5-0.2-1.8-1.3-2.2l-0.9-0.3
		V462l10.9-1.4L445.2,467.5z"/>
	<path class="st1" d="M466.5,477.4c0,1.5,0.4,1.9,2.1,2.3v1.2h-13.1v-1.2c1.8-0.4,2.1-0.8,2.1-2.3v-11.6c0-1.5-0.2-1.8-1.3-2.2
		l-0.9-0.3v-1.2l11-1.4L466.5,477.4L466.5,477.4z M457.5,455.1c0-2.3,1.9-3.9,4.2-3.9c2.3,0,4.2,1.6,4.2,3.9s-1.9,3.9-4.2,3.9
		C459.3,459,457.5,457.3,457.5,455.1z"/>
	<path class="st1" d="M481.1,464.6c0.9-2.4,3.4-4,7.2-4c4.1,0,6.9,2.1,6.9,6.5v10.2c0,1.5,0.4,1.9,2.1,2.3v1.2h-12.7v-1.2
		c1.4-0.3,1.7-0.7,1.7-2.2V467c0-2-1-3-2.7-3c-1.2,0-2.1,0.6-2.5,1.4v12c0,1.5,0.3,1.9,1.7,2.2v1.2h-12.7v-1.2
		c1.8-0.4,2.1-0.8,2.1-2.3v-11.6c0-1.5-0.2-1.8-1.3-2.2l-0.9-0.3V462l10.9-1.4v4H481.1z"/>
	<path class="st1" d="M499.1,471.1c0-6.3,5-10.4,11.8-10.4c5.2,0,8.5,2.4,8.5,5.8c0,2.2-1.7,3.8-3.7,3.8c-2.1,0-3.7-1.6-3.7-3.6
		c0-1.8,1.3-3.3,3.1-3.6c-0.5-0.2-1.1-0.3-1.6-0.3c-3.1,0-5.3,2.5-5.3,6.8c0,5.2,3.1,8.1,6.9,8.1c1.6,0,3.4-0.5,4.3-1.3v1.2
		c-1.7,2.3-5,3.7-8.8,3.7C504.3,481.3,499.1,477.6,499.1,471.1z"/>
	<path class="st1" d="M532,477.4c0,1.5,0.4,1.9,2.1,2.3v1.2H521v-1.2c1.8-0.4,2.1-0.8,2.1-2.3v-11.6c0-1.5-0.2-1.8-1.3-2.2l-0.9-0.3
		v-1.2l11-1.4v16.7H532z M523,455.1c0-2.3,1.9-3.9,4.2-3.9s4.2,1.6,4.2,3.9s-1.9,3.9-4.2,3.9S523,457.3,523,455.1z"/>
	<path class="st1" d="M551.8,481.3c-2.3,0-4.6-1-5.3-2.5v7.3c0,1.6,0.4,2.1,2.4,2.5v1.2h-13.4v-1.2c1.8-0.4,2.1-0.8,2.1-2.3v-20.6
		c0-1.5-0.2-1.8-1.3-2.2l-0.9-0.3V462l10.9-1.4v3.9c0.8-2.3,3-3.9,6.3-3.9c4.6,0,8,3.8,8,10.1C560.8,477.8,556.5,481.3,551.8,481.3z
		 M548.5,464.1c-1,0-1.7,0.6-2,1.4v12c0.3,0.6,1,1.2,2,1.2c2,0,3.2-2.6,3.2-7.2S550.5,464.1,548.5,464.1z"/>
	<path class="st1" d="M573.8,477.4c0,1.5,0.4,1.9,2.1,2.3v1.2h-13.1v-1.2c1.8-0.4,2.1-0.8,2.1-2.3v-21c0-1.5-0.2-1.8-1.3-2.2
		l-0.9-0.3v-1.2l11-1.4v26.1H573.8z"/>
	<path class="st1" d="M589,460.6c5.9,0,9.5,3.4,9.5,8.6c0,0.6-0.1,1.2-0.1,1.6h-11.7c0.8,4.7,3.7,7,7.3,7c1.7,0,3.2-0.6,4.2-1.5v1.2
		c-1.6,2.5-5,3.8-9.1,3.8c-6.2,0-11.4-3.8-11.4-10.3C577.7,464.8,582.3,460.6,589,460.6z M586.6,469.4l4.5-0.1c0-0.4,0-1,0-1.8
		c0-3.5-0.6-5.3-2-5.3c-1.7,0-2.5,2.1-2.5,5.7C586.5,468.4,586.6,468.9,586.6,469.4z"/>
</g>
<g>
	<g id="Combined-Shape">
		
			<linearGradient id="path-5_1_" gradientUnits="userSpaceOnUse" x1="-1404.5708" y1="470.8519" x2="-1404.5708" y2="338.1318" gradientTransform="matrix(138.75 0 0 -185 195385.25 -209076.1875)">
			<stop  offset="0" style="stop-color:#590BA5"/>
			<stop  offset="1" style="stop-color:#B558CC"/>
		</linearGradient>
		<path id="path-5" class="st2" d="M552.6,305.6L552.6,305.6L552.6,305.6L552.6,305.6v0.8c-1.4,27.1-23.7,49.3-50.3,49.7h-0.8
			c-9-0.2-16.1-7.7-15.8-16.6c0.2-8.7,7.2-15.6,15.8-15.8c9.5,0,18.2-8.6,18.7-18.9v-0.4c0-10.1-8.2-18.2-18.3-18.3h-0.8
			c-10.6,0-19.2,8.6-19.2,19.2l0,0l0,0v69.4c0,8.9-7.2,16.2-16.1,16.2c-3.8,0-7.4-1.3-10.4-3.7c4.6-2.2,6.5-7.8,4.3-12.4
			c-1.5-3.2-4.8-5.2-8.3-5.2c-0.6,0-1.2,0.1-1.9,0.2v-64.4c0-28.5,23.1-51.7,51.6-51.7l0,0h0.5c27.9,0,50.6,22.4,50.9,50.3v0.9l0,0
			v0.4v-0.5L552.6,305.6z"/>
		
			<linearGradient id="SVGID_1_" gradientUnits="userSpaceOnUse" x1="501.05" y1="394.7302" x2="501.05" y2="262.0002" gradientTransform="matrix(1 0 0 1 0 -2.1102)">
			<stop  offset="0" style="stop-color:#590BA5"/>
			<stop  offset="1" style="stop-color:#B558CC"/>
		</linearGradient>
		<path class="st3" d="M552.6,305.6L552.6,305.6L552.6,305.6L552.6,305.6v0.8c-1.4,27.1-23.7,49.3-50.3,49.7h-0.8
			c-9-0.2-16.1-7.7-15.8-16.6c0.2-8.7,7.2-15.6,15.8-15.8c9.5,0,18.2-8.6,18.7-18.9v-0.4c0-10.1-8.2-18.2-18.3-18.3h-0.8
			c-10.6,0-19.2,8.6-19.2,19.2l0,0l0,0v69.4c0,8.9-7.2,16.2-16.1,16.2c-3.8,0-7.4-1.3-10.4-3.7c4.6-2.2,6.5-7.8,4.3-12.4
			c-1.5-3.2-4.8-5.2-8.3-5.2c-0.6,0-1.2,0.1-1.9,0.2v-64.4c0-28.5,23.1-51.7,51.6-51.7l0,0h0.5c27.9,0,50.6,22.4,50.9,50.3v0.9l0,0
			v0.4v-0.5L552.6,305.6z"/>
	</g>
	<g id="Oval-2-Copy">
		<circle id="path-7" cx="501.6" cy="339.9" r="10.2"/>
		<circle class="st4" cx="501.6" cy="339.9" r="10.2"/>
	</g>
</g>
<g>
	<path class="st1" d="M198,608.9v-1h14v1c-3.2,0.4-3.6,1.5-2.6,5.1l6.7,22.6l6.4-22.4c1.2-4.1,0.8-4.8-2.5-5.3v-1h13.2v1
		c-3,0.4-3.3,1.2-2.1,5.1l6.5,22.7l6.3-21.7c1.3-4.5,1-5.5-2.5-6v-1h9.4v1c-2.6,0.4-3.4,1.3-5,6.2l-9.2,28.3h-3.3l-8.9-29.2
		l-9.2,29.2H212l-9.4-29.3C201.4,610,200.4,609.3,198,608.9z"/>
	<path class="st1" d="M260.5,623.3c1.3-2.6,4.2-4.4,8-4.4c4.8,0,8.2,2.4,8.2,7.5v13.3c0,1.7,0.3,2.1,2.9,2.6v1H268v-1
		c2.3-0.4,2.7-0.8,2.7-2.4v-12.6c0-3.8-1.9-5.7-5.1-5.7c-2.3,0-4.1,1.1-5.1,2.7v15.6c0,1.6,0.3,2,2.7,2.4v1h-11.5v-1
		c2.5-0.4,2.9-0.9,2.9-2.6v-28.3c0-1.4-0.2-1.7-1.5-2.1l-1.4-0.4v-0.9l8.8-1V623.3z"/>
	<path class="st1" d="M294.1,618.9c6.3,0,10.1,4.1,10.1,9.9c0,0.5-0.1,1.1-0.1,1.4h-15.6c0.3,6.5,4,10.8,9.3,10.8c2.6,0,4.7-1,6-2.3
		l0,1c-1.6,2.4-5,4-9.2,4c-6.9,0-12.1-4.9-12.1-12.4C282.4,624.1,287,618.9,294.1,618.9z M288.4,629.1l10.2-0.1c0-0.4,0-0.8,0-1.3
		c0-4.4-1.5-7.5-4.6-7.5C290.5,620.2,288.4,623.5,288.4,629.1z"/>
	<path class="st1" d="M315.9,623.4c1.3-2.6,4.2-4.4,8-4.4c4.8,0,8.2,2.4,8.2,7.5v13.3c0,1.7,0.3,2.1,2.9,2.6v1h-11.5v-1
		c2.3-0.4,2.7-0.8,2.7-2.4v-12.6c0-3.8-1.9-5.7-5.1-5.7c-2.3,0-4.1,1.1-5.1,2.7v15.6c0,1.6,0.3,2,2.7,2.4v1h-11.5v-1
		c2.5-0.4,2.9-0.9,2.9-2.6v-16.1c0-1.4-0.2-1.7-1.5-2.1l-1.4-0.4v-0.9l8.8-1V623.4z"/>
	<path class="st1" d="M357,639.7c0,1.7,0.4,2.1,2.9,2.6v1h-11.7v-1c2.5-0.4,2.9-0.9,2.9-2.6v-16.1c0-1.4-0.2-1.7-1.5-2.1l-1.4-0.4
		v-0.9l8.8-1V639.7z M350.3,612c0-1.8,1.5-3.2,3.3-3.2s3.3,1.4,3.3,3.2c0,1.8-1.5,3.1-3.3,3.1S350.3,613.8,350.3,612z"/>
	<path class="st1" d="M364.7,621.2h-3v-0.8l8.3-6.3h0.6v5.5l6.2-0.3v1.9l-6.2-0.3v15.7c0,3.4,1.5,4.6,3.6,4.6c1.2,0,2.3-0.4,3-1.1v1
		c-0.9,1.3-3.3,2.5-6,2.5c-3.6,0-6.5-2-6.5-7V621.2z"/>
	<path class="st1" d="M386.8,610.2c0,1.2-0.2,2.1-0.9,5l-1.6,6.8h-0.8l-1.6-6.8c-0.7-3-0.9-3.8-0.9-5c0-1.8,1.2-3.1,2.9-3.1
		S386.8,608.5,386.8,610.2z"/>
	<path class="st1" d="M402.2,618.9c3.4,0,6,0.7,7.3,1.5l0.1,6.2h-0.9c-0.8-4.1-3.2-6.3-6.4-6.3c-3,0-4.7,1.5-4.7,3.7
		c0,2.1,1.6,3.2,4.5,4.2l1.9,0.6c4.4,1.4,6.8,3.7,6.8,7.6c0,4.6-4.6,7.3-9.8,7.3c-3.5,0-6.7-0.8-8.4-1.9l-0.3-6.6h0.9
		c1,4.6,4.3,7.2,7.7,7.2c3,0,4.9-1.7,4.9-3.9c0-2.2-1.3-3.5-4.4-4.4l-1.9-0.6c-4.3-1.4-6.9-3.5-6.9-7.2
		C392.5,621.5,396.5,618.9,402.2,618.9z"/>
	<path class="st1" d="M433.8,623.3c1.3-2.6,4.2-4.4,8-4.4c4.8,0,8.2,2.4,8.2,7.5v13.3c0,1.7,0.3,2.1,2.9,2.6v1h-11.5v-1
		c2.3-0.4,2.7-0.8,2.7-2.4v-12.6c0-3.8-1.9-5.7-5.1-5.7c-2.3,0-4.1,1.1-5.1,2.7v15.6c0,1.6,0.3,2,2.7,2.4v1H425v-1
		c2.5-0.4,2.9-0.9,2.9-2.6v-28.3c0-1.4-0.2-1.7-1.5-2.1l-1.4-0.4v-0.9l8.8-1V623.3z"/>
	<path class="st1" d="M455.6,637.8c0-3.6,2.7-5.9,9.6-7.4l4.9-1v-2.6c0-4.6-2.3-6.3-6-6.3c-1.7,0-3.3,0.4-4.5,1.2
		c1.4,0.1,2.6,1.3,2.6,2.8c0,1.6-1.3,2.8-2.9,2.8c-1.6,0-2.9-1.2-2.9-2.8c0-3.1,4-5.6,9.8-5.6c5.9,0,9.7,2.3,9.7,7.6v12.2
		c0,2.1,1,3,2.5,3c0.4,0,0.8-0.1,1-0.1v0.9c-0.8,0.6-2.4,1.1-4.2,1.1c-2.6,0-4.6-1.3-5.1-3.7c-1,2.2-4,3.8-7.7,3.8
		C458.5,643.7,455.6,641.3,455.6,637.8z M465.8,641.2c2,0,3.5-0.8,4.4-2.3v-8.5l-2.3,0.5c-4.8,1.1-6.3,2.9-6.3,5.8
		C461.5,639.6,463.4,641.2,465.8,641.2z"/>
	<path class="st1" d="M489.7,624.9c2.6-4,4.6-5.9,6.8-5.9c1.9,0,2.7,1.3,2.7,2.9c0,0.8-0.2,1.6-0.5,2.1c-0.5-0.2-1.7-0.3-2.8-0.3
		c-2.4,0-5,0.8-6.2,2v13.9c0,1.9,0.4,2.3,3.2,2.8v1h-12v-1c2.5-0.4,2.9-0.8,2.9-2.5v-16.2c0-1.4-0.2-1.7-1.5-2.1l-1.4-0.4v-0.9
		l8.8-1V624.9z"/>
	<path class="st1" d="M512.2,618.9c2.9,0,5.2,1.2,6.3,3v-10.5c0-1.4-0.2-1.7-1.5-2.1l-1.4-0.4v-0.9l8.9-1V639c0,1.4,0.2,1.7,1.5,2.2
		l1.4,0.4v0.9l-8.8,1v-4.3c-1.3,2.8-4.3,4.6-7.9,4.6c-5.3,0-9.8-4.4-9.8-12.2C500.9,623.8,506,618.9,512.2,618.9z M513.6,641
		c2.3,0,4-1,5-2.8v-15c-0.7-1.5-2.5-2.6-4.6-2.6c-4.1,0-6.9,3.9-6.9,10.2C507,637.1,509.8,641,513.6,641z"/>
	<path class="st1" d="M543.4,621.2h-3v-0.8l8.3-6.3h0.6v5.5l6.2-0.3v1.9l-6.2-0.3v15.7c0,3.4,1.5,4.6,3.6,4.6c1.2,0,2.3-0.4,3-1.1v1
		c-0.9,1.3-3.3,2.5-6,2.5c-3.6,0-6.5-2-6.5-7V621.2z"/>
	<path class="st1" d="M558.1,631.3c0-7.3,5.5-12.4,12.7-12.4c7.1,0,12.6,4.8,12.6,12.3c0,7.3-5.6,12.5-12.7,12.5
		C563.6,643.7,558.1,638.8,558.1,631.3z M577,631.5c0-6.8-2.5-11.3-6.3-11.3c-3.9,0-6.2,4.2-6.2,10.8c0,6.8,2.5,11.3,6.3,11.3
		C574.7,642.3,577,638.1,577,631.5z"/>
	<path class="st1" d="M610.1,618.9c6.3,0,10.1,4.1,10.1,9.9c0,0.5-0.1,1.1-0.1,1.4h-15.6c0.3,6.5,4,10.8,9.3,10.8c2.6,0,4.7-1,6-2.3
		l0,1c-1.6,2.4-5,4-9.2,4c-6.9,0-12.1-4.9-12.1-12.4C598.5,624.1,603,618.9,610.1,618.9z M604.5,629.1l10.2-0.1c0-0.4,0-0.8,0-1.3
		c0-4.4-1.5-7.5-4.6-7.5C606.6,620.2,604.5,623.5,604.5,629.1z"/>
	<path class="st1" d="M646.4,642.2v1h-12.2v-1c2.9-0.3,3.2-1,1.5-3.6l-3.8-5.6l-3.7,5.6c-1.7,2.6-1.1,3.3,1.4,3.7v1h-8.3v-1
		c2.3-0.6,3.1-1.2,5.2-4.1l4.6-6.2l-5.8-8.5c-1.4-2.1-2.3-2.8-3.9-3.1v-1h12.1v1c-2.9,0.2-3.1,1-1.5,3.5l3.7,5.4l3.6-5.5
		c1.6-2.5,1.2-3.1-1.5-3.5v-1h8.2v1c-2.2,0.5-3,1.1-5,3.9l-4.6,6.2l5.9,8.7C643.9,641.2,644.8,641.9,646.4,642.2z"/>
	<path class="st1" d="M662.4,643.7c-2.9,0-5.2-1.2-6.3-3v10.1c0,1.9,0.4,2.3,3.2,2.8v1h-12v-1c2.5-0.4,2.9-0.8,2.9-2.5v-27.4
		c0-1.4-0.2-1.7-1.5-2.1l-1.4-0.4v-0.9l8.8-1v4.4c1.2-2.7,4.2-4.6,7.8-4.6c5.3,0,9.9,4.5,9.9,12.2S668.7,643.7,662.4,643.7z
		 M661,621.6c-2.3,0-4,1-4.9,2.7v15c0.7,1.5,2.6,2.6,4.6,2.6c4.1,0,6.9-4,6.9-10.2C667.6,625.5,664.9,621.6,661,621.6z"/>
	<path class="st1" d="M685.8,639.7c0,1.7,0.4,2.1,2.9,2.6v1h-11.7v-1c2.5-0.4,2.9-0.9,2.9-2.6v-28.3c0-1.4-0.2-1.7-1.5-2.1l-1.4-0.4
		v-0.9l8.8-1V639.7z"/>
	<path class="st1" d="M691.6,637.8c0-3.6,2.7-5.9,9.6-7.4l4.9-1v-2.6c0-4.6-2.3-6.3-6-6.3c-1.7,0-3.3,0.4-4.5,1.2
		c1.4,0.1,2.6,1.3,2.6,2.8c0,1.6-1.3,2.8-2.9,2.8c-1.6,0-2.9-1.2-2.9-2.8c0-3.1,4-5.6,9.8-5.6c5.9,0,9.7,2.3,9.7,7.6v12.2
		c0,2.1,1.1,3,2.5,3c0.4,0,0.8-0.1,1-0.1v0.9c-0.8,0.6-2.4,1.1-4.2,1.1c-2.6,0-4.6-1.3-5.1-3.7c-1,2.2-4,3.8-7.7,3.8
		C694.5,643.7,691.6,641.3,691.6,637.8z M701.8,641.2c2,0,3.5-0.8,4.4-2.3v-8.5l-2.3,0.5c-4.8,1.1-6.3,2.9-6.3,5.8
		C697.5,639.6,699.4,641.2,701.8,641.2z"/>
	<path class="st1" d="M725.7,639.7c0,1.7,0.4,2.1,2.9,2.6v1h-11.7v-1c2.5-0.4,2.9-0.9,2.9-2.6v-16.1c0-1.4-0.2-1.7-1.5-2.1l-1.4-0.4
		v-0.9l8.8-1V639.7z M719,612c0-1.8,1.5-3.2,3.3-3.2s3.3,1.4,3.3,3.2c0,1.8-1.5,3.1-3.3,3.1S719,613.8,719,612z"/>
	<path class="st1" d="M739.6,623.4c1.3-2.6,4.2-4.4,8-4.4c4.8,0,8.2,2.4,8.2,7.5v13.3c0,1.7,0.3,2.1,2.9,2.6v1h-11.5v-1
		c2.3-0.4,2.7-0.8,2.7-2.4v-12.6c0-3.8-1.9-5.7-5.1-5.7c-2.3,0-4.1,1.1-5.1,2.7v15.6c0,1.6,0.3,2,2.7,2.4v1h-11.5v-1
		c2.5-0.4,2.9-0.9,2.9-2.6v-16.1c0-1.4-0.2-1.7-1.5-2.1l-1.4-0.4v-0.9l8.8-1V623.4z"/>
	<path class="st1" d="M773.2,623.3c0-1.9,1.5-3.4,3.4-3.4c1.9,0,3.4,1.5,3.4,3.4s-1.5,3.4-3.4,3.4
		C774.8,626.7,773.2,625.2,773.2,623.3z M773.2,640.2c0-1.9,1.5-3.4,3.4-3.4c1.9,0,3.4,1.5,3.4,3.4c0,1.9-1.5,3.4-3.4,3.4
		C774.8,643.6,773.2,642.1,773.2,640.2z"/>
	<path class="st1" d="M783.5,604.6h1.1c6.9,3.9,12.4,12.6,12.4,22.7s-5.5,18.8-12.4,22.7h-1.1c4.8-4.9,8-13.2,8-22.7
		S788.3,609.5,783.5,604.6z"/>
</g>
</svg>
