<?xml version="1.0" encoding="utf-8"?>
<!-- Generator: Adobe Illustrator 23.1.1, SVG Export Plug-In . SVG Version: 6.00 Build 0)  -->
<svg version="1.1" id="Слой_1" xmlns="http://www.w3.org/2000/svg" xmlns:xlink="http://www.w3.org/1999/xlink" x="0px" y="0px"
	 viewBox="0 0 1000 1000" style="enable-background:new 0 0 1000 1000;" xml:space="preserve">
<style type="text/css">
	.st0{enable-background:new    ;}
	.st1{fill:#113357;}
	.st2{fill:#FDB300;}
	.st3{fill:#EB6C00;}
	.st4{fill:#FDAD00;}
	.st5{fill:#FDD231;}
	.st6{fill:#FEEEB7;}
</style>
<title>sketch</title>
<g class="st0">
	<path class="st1" d="M431.8,479.7l-0.3-8.9h1.2c1.1,5.4,4.8,9,8.8,9c2.9,0,4.7-1.6,4.7-3.8c0-2.1-1.2-3.5-4.4-4.5l-2.7-0.9
		c-5.2-1.7-8-4.7-8-9c0-5.8,4.8-9.3,13-9.3c3.8,0,6.9,0.6,8.7,1.7l0.1,7.6h-1.2c-0.9-4.4-3.7-7.6-7.3-7.6c-2.9,0-4.5,1.5-4.5,3.6
		c0,1.9,1.2,3.2,4.3,4.2l2.7,0.9c5.5,1.7,8,5,8,9.5c0,6.1-5.5,9.4-13,9.4C437.8,481.4,434,480.7,431.8,479.7z"/>
</g>
<g class="st0">
	<path class="st1" d="M469,472.1h-1v5.4c0,1.5,0.3,1.9,1.7,2.2v1.2H457v-1.2c1.8-0.4,2.1-0.8,2.1-2.3v-21c0-1.5-0.2-1.8-1.3-2.2
		l-0.9-0.3v-1.2l11-1.4v19.3h0.9l4.8-4.7c1.9-1.8,1.9-3.1-0.6-3.6V461h9.2v1.3c-2.3,0.5-4,1.4-6.7,3.6l3.9,8.1c2.2,4.6,3,5.4,4,5.8
		v1.2h-10.3L469,472.1z"/>
</g>
<g class="st0">
	<path class="st1" d="M495.3,460.6c5.9,0,9.5,3.4,9.5,8.6c0,0.6-0.1,1.2-0.1,1.6H493c0.8,4.7,3.7,7,7.3,7c1.7,0,3.2-0.6,4.2-1.5v1.2
		c-1.6,2.5-5,3.8-9.1,3.8c-6.2,0-11.4-3.8-11.4-10.3C484,464.8,488.5,460.6,495.3,460.6z M492.8,469.4l4.5-0.1c0-0.4,0-1,0-1.8
		c0-3.5-0.6-5.3-2-5.3c-1.7,0-2.5,2.1-2.5,5.7C492.8,468.4,492.8,468.9,492.8,469.4z"/>
	<path class="st1" d="M508.6,463.3h-2v-1.2l9.6-6.8h1.1v6.1l4.3-0.4v2.2l-4.3-0.4v11.8c0,2.4,1,3.4,2.5,3.4c0.8,0,1.5-0.3,1.9-0.7
		v1.2c-1,1.4-3.5,2.7-6.4,2.7c-3.9,0-6.8-2-6.8-6.7v-11.2H508.6z"/>
	<path class="st1" d="M523.1,471.1c0-6.3,5-10.4,11.8-10.4c5.2,0,8.5,2.4,8.5,5.8c0,2.2-1.7,3.8-3.7,3.8c-2.1,0-3.7-1.6-3.7-3.6
		c0-1.8,1.3-3.3,3.1-3.6c-0.5-0.2-1.1-0.3-1.6-0.3c-3.1,0-5.3,2.5-5.3,6.8c0,5.2,3.1,8.1,6.9,8.1c1.6,0,3.4-0.5,4.3-1.3v1.2
		c-1.7,2.3-5,3.7-8.8,3.7C528.3,481.3,523.1,477.6,523.1,471.1z"/>
	<path class="st1" d="M556,464.6c0.9-2.4,3.4-4,7.2-4c4.1,0,6.9,2.1,6.9,6.5v10.2c0,1.5,0.4,1.9,2.1,2.3v1.2h-12.7v-1.2
		c1.4-0.3,1.7-0.7,1.7-2.2V467c0-2-1-3-2.7-3c-1.2,0-2.1,0.6-2.5,1.4v12c0,1.5,0.3,1.9,1.7,2.2v1.2H545v-1.2
		c1.8-0.4,2.1-0.8,2.1-2.3v-21c0-1.5-0.2-1.8-1.3-2.2l-0.9-0.3v-1.2l11-1.4L556,464.6z"/>
</g>
<g>
	<polygon class="st2" points="501.2,249.2 455.2,254 419.5,301.9 501.2,397 583,301.9 547.3,254 	"/>
	<polygon class="st3" points="419.5,301.9 501.2,397 452.6,301.9 	"/>
	<polygon class="st3" points="549.9,301.9 501.2,397 583,301.9 	"/>
	<polygon class="st4" points="452.6,301.9 501.2,397 549.9,301.9 	"/>
	<polygon class="st5" points="455.2,254 452.6,301.9 501.2,249.2 	"/>
	<polygon class="st5" points="549.9,301.9 547.3,254 501.2,249.2 	"/>
	<polygon class="st4" points="549.9,301.9 583,301.9 547.3,254 	"/>
	<polygon class="st4" points="419.5,301.9 452.6,301.9 455.2,254 	"/>
	<polygon class="st6" points="501.2,249.2 452.6,301.9 549.9,301.9 	"/>
</g>
<g>
	<path class="st1" d="M203.6,643.2h-12.9v-1c2.9-0.5,3.4-1,3.4-3.2v-27c0-2.1-0.5-2.7-3.4-3.2v-1h12.9c12.7,0,21.4,6,21.4,17
		C224.9,636.8,215.1,643.2,203.6,643.2z M202.7,609.1l-2.2-0.1v33l2.2-0.1c9.4-0.3,15-6.4,15-16.5
		C217.8,615.8,212.3,609.4,202.7,609.1z"/>
	<path class="st1" d="M240.5,618.9c6.3,0,10.1,4.1,10.1,9.9c0,0.5-0.1,1.1-0.1,1.4h-15.6c0.3,6.5,4,10.8,9.3,10.8c2.6,0,4.7-1,6-2.3
		l0,1c-1.6,2.4-5,4-9.2,4c-6.9,0-12.1-4.9-12.1-12.4C228.9,624.1,233.4,618.9,240.5,618.9z M234.9,629.1l10.2-0.1c0-0.4,0-0.8,0-1.3
		c0-4.4-1.5-7.5-4.6-7.5C237,620.2,234.9,623.5,234.9,629.1z"/>
	<path class="st1" d="M264.3,618.9c3.4,0,6,0.7,7.3,1.5l0.1,6.2h-0.9c-0.8-4.1-3.2-6.3-6.4-6.3c-3,0-4.7,1.5-4.7,3.7
		c0,2.1,1.6,3.2,4.5,4.2l1.9,0.6c4.4,1.4,6.8,3.7,6.8,7.6c0,4.6-4.6,7.3-9.8,7.3c-3.5,0-6.7-0.8-8.4-1.9l-0.3-6.6h0.9
		c1,4.6,4.3,7.2,7.7,7.2c3,0,4.9-1.7,4.9-3.9c0-2.2-1.3-3.5-4.4-4.4l-1.9-0.6c-4.3-1.4-6.9-3.5-6.9-7.2
		C254.6,621.5,258.6,618.9,264.3,618.9z"/>
	<path class="st1" d="M284.8,639.7c0,1.7,0.4,2.1,2.9,2.6v1H276v-1c2.5-0.4,2.9-0.9,2.9-2.6v-16.1c0-1.4-0.2-1.7-1.5-2.1L276,621
		v-0.9l8.8-1V639.7z M278.1,612c0-1.8,1.5-3.2,3.3-3.2s3.3,1.4,3.3,3.2c0,1.8-1.5,3.1-3.3,3.1S278.1,613.8,278.1,612z"/>
	<path class="st1" d="M301.5,618.9c2,0,3.7,0.4,5.1,0.9l8.1-0.5v1.8l-6.7-0.4c2.5,1,4.1,3.3,4.1,6.1c0,4.9-4.9,7.9-10.5,7.9
		c-0.9,0-1.8-0.1-2.8-0.3c-1.9,0.4-3,1.3-3,2.7c0,1.6,1.4,2.4,4.2,2.4h4.2c6.2,0,9.5,2.5,9.5,6.9c0,5.3-5.6,8.7-12.2,8.7
		c-7,0-11.5-2.3-11.5-5.9c0-2.7,2.6-4.6,8.1-5.1c-4.1,0-7-1.8-6.9-4.7c0-2.8,2.5-4.7,6.6-5.4c-4-0.8-6.9-3.3-6.9-7.2
		C290.9,622.1,295.6,618.9,301.5,618.9z M301.6,653.8c4.3,0,7.3-2,7.3-5.3c0-2.6-1.7-4.1-5.6-4.1h-4.2c-2.8,0.4-4.2,2-4.2,4.4
		C295,651.7,297.4,653.8,301.6,653.8z M301.6,633.5c2.9,0,4.6-2.5,4.6-6.6c0-4-1.7-6.8-4.8-6.8c-3,0-4.6,2.6-4.6,6.6
		C296.8,630.8,298.6,633.5,301.6,633.5z"/>
	<path class="st1" d="M325.1,623.4c1.3-2.6,4.2-4.4,8-4.4c4.8,0,8.2,2.4,8.2,7.5v13.3c0,1.7,0.3,2.1,2.9,2.6v1h-11.5v-1
		c2.3-0.4,2.7-0.8,2.7-2.4v-12.6c0-3.8-1.9-5.7-5.1-5.7c-2.3,0-4.1,1.1-5.1,2.7v15.6c0,1.6,0.3,2,2.7,2.4v1h-11.5v-1
		c2.5-0.4,2.9-0.9,2.9-2.6v-16.1c0-1.4-0.2-1.7-1.5-2.1l-1.4-0.4v-0.9l8.8-1V623.4z"/>
	<path class="st1" d="M355.1,639.7c0,1.7,0.4,2.1,2.9,2.6v1h-11.7v-1c2.5-0.4,2.9-0.9,2.9-2.6v-16.1c0-1.4-0.2-1.7-1.5-2.1l-1.4-0.4
		v-0.9l8.8-1V639.7z M348.4,612c0-1.8,1.5-3.2,3.3-3.2s3.3,1.4,3.3,3.2c0,1.8-1.5,3.1-3.3,3.1S348.4,613.8,348.4,612z"/>
	<path class="st1" d="M368.9,623.4c1.3-2.6,4.2-4.4,8-4.4c4.8,0,8.2,2.4,8.2,7.5v13.3c0,1.7,0.3,2.1,2.9,2.6v1h-11.5v-1
		c2.3-0.4,2.7-0.8,2.7-2.4v-12.6c0-3.8-1.9-5.7-5.1-5.7c-2.3,0-4.1,1.1-5.1,2.7v15.6c0,1.6,0.3,2,2.7,2.4v1h-11.5v-1
		c2.5-0.4,2.9-0.9,2.9-2.6v-16.1c0-1.4-0.2-1.7-1.5-2.1l-1.4-0.4v-0.9l8.8-1V623.4z"/>
	<path class="st1" d="M401.7,618.9c2,0,3.7,0.4,5.1,0.9l8.1-0.5v1.8l-6.7-0.4c2.5,1,4.1,3.3,4.1,6.1c0,4.9-4.9,7.9-10.5,7.9
		c-0.9,0-1.8-0.1-2.8-0.3c-1.9,0.4-3,1.3-3,2.7c0,1.6,1.4,2.4,4.2,2.4h4.2c6.2,0,9.5,2.5,9.5,6.9c0,5.3-5.6,8.7-12.2,8.7
		c-7,0-11.5-2.3-11.5-5.9c0-2.7,2.6-4.6,8.1-5.1c-4.1,0-7-1.8-6.9-4.7c0-2.8,2.5-4.7,6.6-5.4c-4-0.8-6.9-3.3-6.9-7.2
		C391.1,622.1,395.8,618.9,401.7,618.9z M401.8,653.8c4.3,0,7.3-2,7.3-5.3c0-2.6-1.7-4.1-5.6-4.1h-4.2c-2.8,0.4-4.2,2-4.2,4.4
		C395.2,651.7,397.6,653.8,401.8,653.8z M401.8,633.5c2.9,0,4.6-2.5,4.6-6.6c0-4-1.7-6.8-4.8-6.8c-3,0-4.6,2.6-4.6,6.6
		C397,630.8,398.8,633.5,401.8,633.5z"/>
	<path class="st1" d="M430.3,621.2h-3v-0.8l8.3-6.3h0.6v5.5l6.2-0.3v1.9l-6.2-0.3v15.7c0,3.4,1.5,4.6,3.6,4.6c1.2,0,2.3-0.4,3-1.1v1
		c-0.9,1.3-3.3,2.5-6,2.5c-3.6,0-6.5-2-6.5-7V621.2z"/>
	<path class="st1" d="M453,623.3c1.3-2.6,4.2-4.4,8-4.4c4.8,0,8.2,2.4,8.2,7.5v13.3c0,1.7,0.3,2.1,2.9,2.6v1h-11.5v-1
		c2.3-0.4,2.7-0.8,2.7-2.4v-12.6c0-3.8-1.9-5.7-5.1-5.7c-2.3,0-4.1,1.1-5.1,2.7v15.6c0,1.6,0.3,2,2.7,2.4v1h-11.5v-1
		c2.5-0.4,2.9-0.9,2.9-2.6v-28.3c0-1.4-0.2-1.7-1.5-2.1l-1.4-0.4v-0.9l8.8-1V623.3z"/>
	<path class="st1" d="M486.6,618.9c6.3,0,10.1,4.1,10.1,9.9c0,0.5-0.1,1.1-0.1,1.4h-15.6c0.3,6.5,4,10.8,9.3,10.8c2.6,0,4.7-1,6-2.3
		l0,1c-1.6,2.4-5,4-9.2,4c-6.9,0-12.1-4.9-12.1-12.4C474.9,624.1,479.5,618.9,486.6,618.9z M480.9,629.1l10.2-0.1c0-0.4,0-0.8,0-1.3
		c0-4.4-1.5-7.5-4.6-7.5C483,620.2,480.9,623.5,480.9,629.1z"/>
	<path class="st1" d="M519.5,624.9c2.6-4,4.6-5.9,6.8-5.9c1.9,0,2.7,1.3,2.7,2.9c0,0.8-0.2,1.6-0.5,2.1c-0.5-0.2-1.7-0.3-2.8-0.3
		c-2.4,0-5,0.8-6.2,2v13.9c0,1.9,0.4,2.3,3.2,2.8v1h-12v-1c2.5-0.4,2.9-0.8,2.9-2.5v-16.2c0-1.4-0.2-1.7-1.5-2.1l-1.4-0.4v-0.9
		l8.8-1V624.9z"/>
	<path class="st1" d="M539.9,639.7c0,1.7,0.4,2.1,2.9,2.6v1h-11.7v-1c2.5-0.4,2.9-0.9,2.9-2.6v-16.1c0-1.4-0.2-1.7-1.5-2.1l-1.4-0.4
		v-0.9l8.8-1V639.7z M533.2,612c0-1.8,1.5-3.2,3.3-3.2s3.3,1.4,3.3,3.2c0,1.8-1.5,3.1-3.3,3.1S533.2,613.8,533.2,612z"/>
	<path class="st1" d="M556.6,618.9c2,0,3.7,0.4,5.1,0.9l8.1-0.5v1.8l-6.7-0.4c2.5,1,4.1,3.3,4.1,6.1c0,4.9-4.9,7.9-10.5,7.9
		c-0.9,0-1.8-0.1-2.8-0.3c-1.9,0.4-3,1.3-3,2.7c0,1.6,1.4,2.4,4.2,2.4h4.2c6.2,0,9.5,2.5,9.5,6.9c0,5.3-5.6,8.7-12.2,8.7
		c-7,0-11.5-2.3-11.5-5.9c0-2.7,2.6-4.6,8.1-5.1c-4.1,0-7-1.8-6.9-4.7c0-2.8,2.5-4.7,6.6-5.4c-4-0.8-6.9-3.3-6.9-7.2
		C546,622.1,550.7,618.9,556.6,618.9z M556.7,653.8c4.3,0,7.3-2,7.3-5.3c0-2.6-1.7-4.1-5.6-4.1h-4.2c-2.8,0.4-4.2,2-4.2,4.4
		C550.1,651.7,552.5,653.8,556.7,653.8z M556.7,633.5c2.9,0,4.6-2.5,4.6-6.6c0-4-1.7-6.8-4.8-6.8c-3,0-4.6,2.6-4.6,6.6
		C551.9,630.8,553.7,633.5,556.7,633.5z"/>
	<path class="st1" d="M580.3,623.3c1.3-2.6,4.2-4.4,8-4.4c4.8,0,8.2,2.4,8.2,7.5v13.3c0,1.7,0.3,2.1,2.9,2.6v1h-11.5v-1
		c2.3-0.4,2.7-0.8,2.7-2.4v-12.6c0-3.8-1.9-5.7-5.1-5.7c-2.3,0-4.1,1.1-5.1,2.7v15.6c0,1.6,0.3,2,2.7,2.4v1h-11.5v-1
		c2.5-0.4,2.9-0.9,2.9-2.6v-28.3c0-1.4-0.2-1.7-1.5-2.1l-1.4-0.4v-0.9l8.8-1V623.3z"/>
	<path class="st1" d="M604,621.2h-3v-0.8l8.3-6.3h0.6v5.5l6.2-0.3v1.9l-6.2-0.3v15.7c0,3.4,1.5,4.6,3.6,4.6c1.2,0,2.3-0.4,3-1.1v1
		c-0.9,1.3-3.3,2.5-6,2.5c-3.6,0-6.5-2-6.5-7V621.2z"/>
	<path class="st1" d="M639.7,618.9c3.4,0,6,0.7,7.3,1.5l0.1,6.2h-0.9c-0.8-4.1-3.2-6.3-6.4-6.3c-3,0-4.7,1.5-4.7,3.7
		c0,2.1,1.6,3.2,4.5,4.2l1.9,0.6c4.4,1.4,6.8,3.7,6.8,7.6c0,4.6-4.6,7.3-9.8,7.3c-3.5,0-6.7-0.8-8.4-1.9l-0.3-6.6h0.9
		c1,4.6,4.3,7.2,7.7,7.2c3,0,4.9-1.7,4.9-3.9c0-2.2-1.3-3.5-4.4-4.4l-1.9-0.6c-4.3-1.4-6.9-3.5-6.9-7.2
		C630,621.5,634,618.9,639.7,618.9z"/>
	<path class="st1" d="M652.2,631.3c0-7.2,5.3-12.4,12.6-12.4c5.4,0,8.3,2.7,8.3,5.7c0,1.7-1.3,3-2.9,3c-1.6,0-2.9-1.3-2.9-2.9
		s1.2-2.9,2.8-2.9c0.1,0,0.2,0,0.3,0c-1-0.8-2.4-1.3-4.2-1.3c-4.8,0-7.9,3.9-7.9,9.6c0,6.8,4,10.8,8.9,10.8c2.6,0,4.7-0.9,6-2.3v1
		c-1.6,2.3-5,4-9.1,4C657.4,643.7,652.2,638.8,652.2,631.3z"/>
	<path class="st1" d="M684.6,624.9c2.6-4,4.6-5.9,6.8-5.9c1.9,0,2.7,1.3,2.7,2.9c0,0.8-0.2,1.6-0.5,2.1c-0.5-0.2-1.7-0.3-2.8-0.3
		c-2.4,0-5,0.8-6.2,2v13.9c0,1.9,0.4,2.3,3.2,2.8v1h-12v-1c2.5-0.4,2.9-0.8,2.9-2.5v-16.2c0-1.4-0.2-1.7-1.5-2.1l-1.4-0.4v-0.9
		l8.8-1V624.9z"/>
	<path class="st1" d="M707.4,618.9c6.3,0,10.1,4.1,10.1,9.9c0,0.5-0.1,1.1-0.1,1.4h-15.6c0.3,6.5,4,10.8,9.3,10.8c2.6,0,4.7-1,6-2.3
		l0,1c-1.6,2.4-5,4-9.2,4c-6.9,0-12.1-4.9-12.1-12.4C695.8,624.1,700.4,618.9,707.4,618.9z M701.8,629.1L712,629c0-0.4,0-0.8,0-1.3
		c0-4.4-1.5-7.5-4.6-7.5C703.9,620.2,701.8,623.5,701.8,629.1z"/>
	<path class="st1" d="M732.9,618.9c6.3,0,10.1,4.1,10.1,9.9c0,0.5-0.1,1.1-0.1,1.4h-15.6c0.3,6.5,4,10.8,9.3,10.8c2.6,0,4.7-1,6-2.3
		l0,1c-1.6,2.4-5,4-9.2,4c-6.9,0-12.1-4.9-12.1-12.4C721.3,624.1,725.9,618.9,732.9,618.9z M727.3,629.1l10.2-0.1c0-0.4,0-0.8,0-1.3
		c0-4.4-1.5-7.5-4.6-7.5C729.4,620.2,727.3,623.5,727.3,629.1z"/>
	<path class="st1" d="M754.8,623.4c1.3-2.6,4.2-4.4,8-4.4c4.8,0,8.2,2.4,8.2,7.5v13.3c0,1.7,0.3,2.1,2.9,2.6v1h-11.5v-1
		c2.3-0.4,2.7-0.8,2.7-2.4v-12.6c0-3.8-1.9-5.7-5.1-5.7c-2.3,0-4.1,1.1-5.1,2.7v15.6c0,1.6,0.3,2,2.7,2.4v1H746v-1
		c2.5-0.4,2.9-0.9,2.9-2.6v-16.1c0-1.4-0.2-1.7-1.5-2.1L746,621v-0.9l8.8-1V623.4z"/>
	<path class="st1" d="M786.6,618.9c3.4,0,6,0.7,7.3,1.5l0.1,6.2h-0.9c-0.8-4.1-3.2-6.3-6.4-6.3c-3,0-4.7,1.5-4.7,3.7
		c0,2.1,1.6,3.2,4.5,4.2l1.9,0.6c4.4,1.4,6.8,3.7,6.8,7.6c0,4.6-4.6,7.3-9.8,7.3c-3.5,0-6.7-0.8-8.4-1.9l-0.3-6.6h0.9
		c1,4.6,4.3,7.2,7.7,7.2c3,0,4.9-1.7,4.9-3.9c0-2.2-1.3-3.5-4.4-4.4l-1.9-0.6c-4.3-1.4-6.9-3.5-6.9-7.2
		C776.9,621.5,780.9,618.9,786.6,618.9z"/>
	<path class="st1" d="M295.3,697.8c0-3.6,2.7-5.9,9.6-7.4l4.9-1v-2.6c0-4.6-2.3-6.3-6-6.3c-1.7,0-3.3,0.4-4.5,1.2
		c1.4,0.1,2.6,1.3,2.6,2.8c0,1.6-1.3,2.8-2.9,2.8c-1.6,0-2.9-1.2-2.9-2.8c0-3.1,4-5.6,9.8-5.6c5.9,0,9.7,2.3,9.7,7.6v12.2
		c0,2.1,1,3,2.5,3c0.4,0,0.8-0.1,1-0.1v0.9c-0.8,0.6-2.4,1.1-4.2,1.1c-2.6,0-4.6-1.3-5.1-3.7c-1,2.2-4,3.8-7.7,3.8
		C298.2,703.7,295.3,701.3,295.3,697.8z M305.4,701.2c2,0,3.5-0.8,4.4-2.3v-8.5l-2.3,0.5c-4.8,1.1-6.3,2.9-6.3,5.8
		C301.2,699.6,303,701.2,305.4,701.2z"/>
	<path class="st1" d="M329.4,683.4c1.3-2.6,4.2-4.4,8-4.4c4.8,0,8.2,2.4,8.2,7.5v13.3c0,1.7,0.3,2.1,2.9,2.6v1h-11.5v-1
		c2.3-0.4,2.7-0.8,2.7-2.4v-12.6c0-3.8-1.9-5.7-5.1-5.7c-2.3,0-4.1,1.1-5.1,2.7v15.6c0,1.6,0.3,2,2.7,2.4v1h-11.5v-1
		c2.5-0.4,2.9-0.9,2.9-2.6v-16.1c0-1.4-0.2-1.7-1.5-2.1l-1.4-0.4v-0.9l8.8-1V683.4z"/>
	<path class="st1" d="M362.6,678.9c2.9,0,5.2,1.2,6.3,3v-10.5c0-1.4-0.2-1.7-1.5-2.1l-1.4-0.4v-0.9l8.9-1V699c0,1.4,0.2,1.7,1.5,2.2
		l1.4,0.4v0.9l-8.8,1v-4.3c-1.3,2.8-4.3,4.6-7.9,4.6c-5.3,0-9.8-4.4-9.8-12.2C351.3,683.8,356.4,678.9,362.6,678.9z M364,701
		c2.3,0,4-1,5-2.8v-15c-0.7-1.5-2.5-2.6-4.6-2.6c-4.1,0-6.9,3.9-6.9,10.2C357.4,697.1,360.2,701,364,701z"/>
	<path class="st1" d="M401.8,678.9c3.4,0,6,0.7,7.3,1.5l0.1,6.2h-0.9c-0.8-4.1-3.2-6.3-6.4-6.3c-3,0-4.7,1.5-4.7,3.7
		c0,2.1,1.6,3.2,4.5,4.2l1.9,0.6c4.4,1.4,6.8,3.7,6.8,7.6c0,4.6-4.6,7.3-9.8,7.3c-3.5,0-6.7-0.8-8.4-1.9l-0.3-6.6h0.9
		c1,4.6,4.3,7.2,7.7,7.2c3,0,4.9-1.7,4.9-3.9c0-2.2-1.3-3.5-4.4-4.4l-1.9-0.6c-4.3-1.4-6.9-3.5-6.9-7.2
		C392.1,681.5,396.1,678.9,401.8,678.9z"/>
	<path class="st1" d="M411.9,680.3v-1h12.5v1c-2.9,0.4-3.2,1.1-2.1,4.3l4.4,12.2l4.3-12c1.2-3.3,0.8-4.1-2.1-4.5v-1h8v1
		c-2,0.4-2.7,1-4.2,4.7l-5.1,12.5l-2.5,6.1l-3.8,10.8h-4.7v-0.1c2.2-2.5,5.2-7.1,7-10.7l-8-19.4
		C414.5,681.3,413.8,680.7,411.9,680.3z"/>
	<path class="st1" d="M447.8,678.9c3.4,0,6,0.7,7.3,1.5l0.1,6.2h-0.9c-0.8-4.1-3.2-6.3-6.4-6.3c-3,0-4.7,1.5-4.7,3.7
		c0,2.1,1.6,3.2,4.5,4.2l1.9,0.6c4.4,1.4,6.8,3.7,6.8,7.6c0,4.6-4.6,7.3-9.8,7.3c-3.5,0-6.7-0.8-8.4-1.9l-0.3-6.6h0.9
		c1,4.6,4.3,7.2,7.7,7.2c3,0,4.9-1.7,4.9-3.9c0-2.2-1.3-3.5-4.4-4.4l-1.9-0.6c-4.3-1.4-6.9-3.5-6.9-7.2
		C438.1,681.5,442.1,678.9,447.8,678.9z"/>
	<path class="st1" d="M462.2,681.2h-3v-0.8l8.3-6.3h0.6v5.5l6.2-0.3v1.9l-6.2-0.3v15.7c0,3.4,1.5,4.6,3.6,4.6c1.2,0,2.3-0.4,3-1.1v1
		c-0.9,1.3-3.3,2.5-6,2.5c-3.6,0-6.5-2-6.5-7V681.2z"/>
	<path class="st1" d="M488.5,678.9c6.3,0,10.1,4.1,10.1,9.9c0,0.5-0.1,1.1-0.1,1.4h-15.6c0.3,6.5,4,10.8,9.3,10.8c2.6,0,4.7-1,6-2.3
		l0,1c-1.6,2.4-5,4-9.2,4c-6.9,0-12.1-4.9-12.1-12.4C476.9,684.1,481.4,678.9,488.5,678.9z M482.8,689.1l10.2-0.1c0-0.4,0-0.8,0-1.3
		c0-4.4-1.5-7.5-4.6-7.5C484.9,680.2,482.8,683.5,482.8,689.1z"/>
	<path class="st1" d="M510.3,683.4c1.3-2.6,4.1-4.4,7.9-4.4c3.7,0,6.5,1.6,7.4,4.5c1.3-2.7,4.4-4.5,8.1-4.5c4.7,0,7.9,2.5,7.9,7.5
		v13.2c0,1.7,0.4,2.1,2.9,2.6v1H533v-1c2.4-0.4,2.7-0.8,2.7-2.4v-12.6c0-3.8-1.8-5.7-4.9-5.7c-2.3,0-4,1-5,2.5
		c0.1,0.6,0.2,1.3,0.2,2v13.7c0,1.6,0.3,2.1,2.7,2.4v1h-11.3v-1c2.4-0.4,2.7-0.8,2.7-2.4v-12.6c0-3.8-1.7-5.7-4.8-5.7
		c-2.4,0-4,1.1-4.9,2.7v15.6c0,1.6,0.3,2.1,2.7,2.4v1h-11.5v-1c2.5-0.4,2.9-0.9,2.9-2.6v-16.1c0-1.4-0.2-1.7-1.5-2.1l-1.4-0.4v-0.9
		l8.8-1V683.4z"/>
	<path class="st1" d="M569.8,678.9c2.9,0,5.2,1.2,6.3,3v-10.5c0-1.4-0.2-1.7-1.5-2.1l-1.4-0.4v-0.9l8.9-1V699c0,1.4,0.2,1.7,1.5,2.2
		l1.4,0.4v0.9l-8.8,1v-4.3c-1.3,2.8-4.3,4.6-7.9,4.6c-5.3,0-9.8-4.4-9.8-12.2C558.5,683.8,563.5,678.9,569.8,678.9z M571.2,701
		c2.3,0,4-1,5-2.8v-15c-0.7-1.5-2.5-2.6-4.6-2.6c-4.1,0-6.9,3.9-6.9,10.2C564.6,697.1,567.3,701,571.2,701z"/>
	<path class="st1" d="M599.6,678.9c6.3,0,10.1,4.1,10.1,9.9c0,0.5-0.1,1.1-0.1,1.4H594c0.3,6.5,4,10.8,9.3,10.8c2.6,0,4.7-1,6-2.3
		l0,1c-1.6,2.4-5,4-9.2,4c-6.9,0-12.1-4.9-12.1-12.4C588,684.1,592.5,678.9,599.6,678.9z M594,689.1l10.2-0.1c0-0.4,0-0.8,0-1.3
		c0-4.4-1.5-7.5-4.6-7.5C596.1,680.2,594,683.5,594,689.1z"/>
	<path class="st1" d="M623.4,678.9c3.4,0,6,0.7,7.3,1.5l0.1,6.2h-0.9c-0.8-4.1-3.2-6.3-6.4-6.3c-3,0-4.7,1.5-4.7,3.7
		c0,2.1,1.6,3.2,4.5,4.2l1.9,0.6c4.4,1.4,6.8,3.7,6.8,7.6c0,4.6-4.6,7.3-9.8,7.3c-3.5,0-6.7-0.8-8.4-1.9l-0.3-6.6h0.9
		c1,4.6,4.3,7.2,7.7,7.2c3,0,4.9-1.7,4.9-3.9c0-2.2-1.3-3.5-4.4-4.4l-1.9-0.6c-4.3-1.4-6.9-3.5-6.9-7.2
		C613.7,681.5,617.7,678.9,623.4,678.9z"/>
	<path class="st1" d="M643.9,699.7c0,1.7,0.4,2.1,2.9,2.6v1H635v-1c2.5-0.4,2.9-0.9,2.9-2.6v-16.1c0-1.4-0.2-1.7-1.5-2.1L635,681
		v-0.9l8.8-1V699.7z M637.2,672c0-1.8,1.5-3.2,3.3-3.2s3.3,1.4,3.3,3.2c0,1.8-1.5,3.1-3.3,3.1S637.2,673.8,637.2,672z"/>
	<path class="st1" d="M660.6,678.9c2,0,3.7,0.4,5.1,0.9l8.1-0.5v1.8l-6.7-0.4c2.5,1,4.1,3.3,4.1,6.1c0,4.9-4.9,7.9-10.5,7.9
		c-0.9,0-1.8-0.1-2.8-0.3c-1.9,0.4-3,1.3-3,2.7c0,1.6,1.4,2.4,4.2,2.4h4.2c6.2,0,9.5,2.5,9.5,6.9c0,5.3-5.6,8.7-12.2,8.7
		c-7,0-11.5-2.3-11.5-5.9c0-2.7,2.6-4.6,8.1-5.1c-4.1,0-7-1.8-6.9-4.7c0-2.8,2.5-4.7,6.6-5.4c-4-0.8-6.9-3.3-6.9-7.2
		C650,682.1,654.7,678.9,660.6,678.9z M660.7,713.8c4.3,0,7.3-2,7.3-5.3c0-2.6-1.7-4.1-5.6-4.1h-4.2c-2.8,0.4-4.2,2-4.2,4.4
		C654,711.7,656.5,713.8,660.7,713.8z M660.7,693.5c2.9,0,4.6-2.5,4.6-6.6c0-4-1.7-6.8-4.8-6.8c-3,0-4.6,2.6-4.6,6.6
		C655.9,690.8,657.7,693.5,660.7,693.5z"/>
	<path class="st1" d="M684.2,683.4c1.3-2.6,4.2-4.4,8-4.4c4.8,0,8.2,2.4,8.2,7.5v13.3c0,1.7,0.3,2.1,2.9,2.6v1h-11.5v-1
		c2.3-0.4,2.7-0.8,2.7-2.4v-12.6c0-3.8-1.9-5.7-5.1-5.7c-2.3,0-4.1,1.1-5.1,2.7v15.6c0,1.6,0.3,2,2.7,2.4v1h-11.5v-1
		c2.5-0.4,2.9-0.9,2.9-2.6v-16.1c0-1.4-0.2-1.7-1.5-2.1l-1.4-0.4v-0.9l8.8-1V683.4z"/>
</g>
</svg>
