<?xml version="1.0" encoding="utf-8"?>
<!-- Generator: Adobe Illustrator 23.1.1, SVG Export Plug-In . SVG Version: 6.00 Build 0)  -->
<svg version="1.1" id="Слой_1" xmlns="http://www.w3.org/2000/svg" xmlns:xlink="http://www.w3.org/1999/xlink" x="0px" y="0px"
	 viewBox="0 0 1000 1000" style="enable-background:new 0 0 1000 1000;" xml:space="preserve">
<style type="text/css">
	.st0{enable-background:new    ;}
	.st1{fill:#113357;}
	.st2{fill-rule:evenodd;clip-rule:evenodd;fill:#F89920;}
	.st3{fill-rule:evenodd;clip-rule:evenodd;fill:#FFBE22;}
	.st4{fill-rule:evenodd;clip-rule:evenodd;fill:#F0670A;}
	.st5{fill-rule:evenodd;clip-rule:evenodd;fill:#FFD00E;}
	.st6{fill:#F0670A;}
	.st7{fill:#FFBE22;}
	.st8{fill:#FFD164;}
	.st9{fill:#F89920;}
	.st10{fill:#5A4650;}
	.st11{fill:#6E5A64;}
	.st12{fill:#AA7346;}
	.st13{fill:#84737B;}
</style>
<title>soft</title>
<g class="st0">
	<path class="st1" d="M436.1,480.9v-1.2l13.5-25.6l-3.1,0.1c-5.7,0.3-7.6,2-8.8,7.1h-1.2l0.2-8.6H460v1.2l-13.5,25.6l3.1-0.1
		c5.8-0.3,7.8-1.9,9.2-7.7h1.2l-0.2,9.3L436.1,480.9L436.1,480.9z"/>
	<path class="st1" d="M473.8,460.6c5.9,0,9.5,3.4,9.5,8.6c0,0.6-0.1,1.2-0.1,1.6h-11.7c0.8,4.7,3.7,7,7.3,7c1.7,0,3.2-0.6,4.2-1.5
		v1.2c-1.6,2.5-5,3.8-9.1,3.8c-6.2,0-11.4-3.8-11.4-10.3C462.5,464.8,467.1,460.6,473.8,460.6z M471.4,469.4l4.5-0.1
		c0-0.4,0-1,0-1.8c0-3.5-0.6-5.3-2-5.3c-1.7,0-2.5,2.1-2.5,5.7C471.3,468.4,471.3,468.9,471.4,469.4z"/>
	<path class="st1" d="M501.3,481.3c-2.3,0-4.6-1-5.3-2.5v7.3c0,1.6,0.4,2.1,2.4,2.5v1.2H485v-1.2c1.8-0.4,2.1-0.8,2.1-2.3v-20.6
		c0-1.5-0.2-1.8-1.3-2.2l-0.9-0.3V462l10.9-1.4v3.9c0.8-2.3,3-3.9,6.3-3.9c4.6,0,8,3.8,8,10.1C510.3,477.8,506,481.3,501.3,481.3z
		 M498,464.1c-1,0-1.7,0.6-2,1.4v12c0.3,0.6,1,1.2,2,1.2c2,0,3.2-2.6,3.2-7.2S500,464.1,498,464.1z"/>
	<path class="st1" d="M523.3,477.4c0,1.5,0.4,1.9,2.1,2.3v1.2h-13.1v-1.2c1.8-0.4,2.1-0.8,2.1-2.3v-21c0-1.5-0.2-1.8-1.3-2.2
		l-0.9-0.3v-1.2l11-1.4v26.1H523.3z"/>
	<path class="st1" d="M538,477.4c0,1.5,0.4,1.9,2.1,2.3v1.2H527v-1.2c1.8-0.4,2.1-0.8,2.1-2.3v-11.6c0-1.5-0.2-1.8-1.3-2.2l-0.9-0.3
		v-1.2l11-1.4v16.7H538z M529,455.1c0-2.3,1.9-3.9,4.2-3.9s4.2,1.6,4.2,3.9s-1.9,3.9-4.2,3.9C530.8,459,529,457.3,529,455.1z"/>
	<path class="st1" d="M552.6,464.6c0.9-2.4,3.4-4,7.2-4c4.1,0,6.9,2.1,6.9,6.5v10.2c0,1.5,0.4,1.9,2.1,2.3v1.2h-12.7v-1.2
		c1.4-0.3,1.7-0.7,1.7-2.2V467c0-2-1-3-2.7-3c-1.2,0-2.1,0.6-2.5,1.4v12c0,1.5,0.3,1.9,1.7,2.2v1.2h-12.7v-1.2
		c1.8-0.4,2.1-0.8,2.1-2.3v-11.6c0-1.5-0.2-1.8-1.3-2.2l-0.9-0.3V462l10.9-1.4v4H552.6z"/>
</g>
<g>
	<g>
		<path class="st2" d="M439,346.5l-16.6-18.6l50.9-18.5l7.9,21.8L439,346.5z"/>
		<path class="st3" d="M438.9,346.1l-0.8,24.9l50.9-18.5l-7.9-21.8L438.9,346.1z"/>
		<path class="st4" d="M580.4,295.1c7.3,21-16.1,48.7-52.5,61.9s-72.1,7.1-80.1-13.7L580.4,295.1z"/>
		<path class="st5" d="M580.4,295.1c-7.9-20.8-43.7-27-80.1-13.7s-59.9,41-52.5,62L580.4,295.1z"/>
		<path class="st2" d="M580.3,295.1c4.5,14.1-20.9,36-57.2,49.2s-69.9,12.7-75.4-1L580.3,295.1z"/>
		<path class="st3" d="M580.4,295.1c-5.5-13.8-39.1-14.2-75.5-1s-61.8,35.2-57.1,49.3L580.4,295.1z"/>
	</g>
	<g>
		<path class="st6" d="M519.2,276c-3.5-12-7.4-18.6-11.9-18.5c-8.7,0.2-11.6,27.7-8.8,62.9c2.8,35.6,10.2,62.3,19.4,62
			c5.5-0.1,8.5-8.9,9.6-24.1c0-0.3-0.3-0.1-0.3-0.4c0,0,0-0.5-0.2-0.6l-1.2-0.1c-1,14.7-3.8,23.2-8,23.3
			c-7.5,0.2-14.8-26.2-17.5-60.4c-2.7-33.6,0.2-60.8,7-61c3.2-0.1,6.9,6,10.1,17L519.2,276L519.2,276z"/>
		<path class="st6" d="M476.2,267.4c-7.4,4.5,3.8,29.8,23.9,58.9c20.2,29.4,40,48.9,47.8,44.1c4.4-2.7,3.2-10.8-2.5-23.1
			c-0.1-0.3-0.4-0.5-0.7-0.5c-0.5-0.1-0.9,0.3-1,0.8c0,0.2,0,0.3,0.1,0.5c5.2,11.4,6.3,18.9,3.2,20.8c-6.4,3.9-25.9-15.3-45.4-43.6
			c-19.1-27.8-30.2-52.7-24.4-56.3c3.1-1.9,10.5,2.7,20.2,12.6c0.3,0.3,0.6,0.6,0.9,0.8c0.3,0.1,0.1-0.5,0.4-0.8
			c0.2-0.2,0.3-0.4,0.3-0.6s-0.1-0.5-0.2-0.6C488.3,269.7,480.5,264.8,476.2,267.4L476.2,267.4z"/>
	</g>
</g>
<g>
	<circle class="st7" cx="498.8" cy="752.9" r="23.2"/>
	<g>
		<ellipse class="st8" cx="489.8" cy="752.2" rx="6.8" ry="6"/>
		<ellipse class="st8" cx="507.8" cy="752.2" rx="6.8" ry="6"/>
		<path class="st9" d="M502.1,772.8c-12.8,0-23.2-10.4-23.2-23.3c0-5.3,1.8-10.5,5.2-14.6c-10,8.1-11.5,22.7-3.4,32.7
			s22.7,11.5,32.7,3.4c1.2-1,2.4-2.2,3.4-3.4C512.7,771,507.5,772.8,502.1,772.8z"/>
	</g>
	<path class="st10" d="M496.3,750.4l-1.2-0.9c1.4-2,4.2-2.5,6.2-1c0.4,0.3,0.8,0.6,1,1l-1.2,0.9c-1-1.3-2.9-1.6-4.2-0.6
		C496.7,750,496.5,750.2,496.3,750.4L496.3,750.4z"/>
	<path class="st11" d="M489.8,744.7c-0.8,0-1.6,0.1-2.4,0.4c-0.6,0.2-1.3,0.3-2,0.3h-3.1c-0.4,0-0.7,0.3-0.8,0.8v1.5
		c0,0.5,0.3,1,0.7,1.2l0.2,0.1c0.4,0.3,0.7,0.8,0.7,1.3c0,0.1,0,0.3,0,0.4c0,3.3,3,6,6.8,6s6.8-2.7,6.8-6S493.5,744.7,489.8,744.7z"
		/>
	<g>
		<path class="st12" d="M498.8,765.9c-3.8,0-7.5-1.8-9.8-4.9c-0.3-0.4-0.2-1,0.2-1.3s1-0.2,1.3,0.2c3.4,4.6,9.9,5.5,14.4,2.1
			c0.8-0.6,1.5-1.3,2.1-2.1c0.3-0.4,0.9-0.5,1.3-0.2s0.5,0.9,0.2,1.3C506.2,764,502.6,765.9,498.8,765.9z"/>
		<path class="st12" d="M492,743.3h-4.5c-0.5,0.1-1-0.3-1-0.8c-0.1-0.5,0.3-1,0.8-1c0.1,0,0.1,0,0.2,0h4.5c0.5-0.1,1,0.3,1,0.8
			c0.1,0.5-0.3,1-0.8,1C492.1,743.4,492.1,743.4,492,743.3z"/>
		<path class="st12" d="M510,743.3h-4.5c-0.5,0.1-1-0.3-1-0.8c-0.1-0.5,0.3-1,0.8-1c0.1,0,0.1,0,0.2,0h4.5c0.5-0.1,1,0.3,1,0.8
			c0.1,0.5-0.3,1-0.8,1C510.1,743.4,510.1,743.4,510,743.3z"/>
	</g>
	<path class="st10" d="M489.8,755.2c-2.9,0-5.2-2-5.2-4.5s2.4-4.5,5.2-4.5s5.2,2,5.2,4.5S492.6,755.2,489.8,755.2z"/>
	<path class="st13" d="M489.8,748.4c1.8,0,3.5,0.4,5.1,1.2c-1.1-2.8-4.3-4.2-7.1-3.1c-1.4,0.6-2.5,1.7-3.1,3.1
		C486.2,748.8,488,748.4,489.8,748.4z"/>
	<path class="st11" d="M501,750.7c0,3.3,3,6,6.7,6s6.8-2.7,6.8-6c0-0.1,0-0.2,0-0.4c0-0.5,0.2-1,0.7-1.3l0.2-0.1
		c0.4-0.3,0.7-0.7,0.7-1.2v-1.5c0-0.4-0.3-0.8-0.8-0.8h-3.1c-0.7,0-1.4-0.1-2-0.3c-0.8-0.3-1.6-0.4-2.4-0.4
		C504,744.7,501,747.4,501,750.7z"/>
	<path class="st10" d="M502.5,750.7c0-2.5,2.3-4.5,5.2-4.5s5.2,2,5.2,4.5s-2.3,4.5-5.2,4.5S502.5,753.1,502.5,750.7z"/>
	<path class="st13" d="M507.8,748.4c-1.8,0-3.5,0.4-5.1,1.2c1.1-2.8,4.3-4.2,7.1-3.1c1.4,0.6,2.5,1.7,3.1,3.1
		C511.3,748.8,509.5,748.4,507.8,748.4z"/>
</g>
<g>
	<path class="st1" d="M188.9,642.2v1h-13.3v-1c2.9-0.5,3.4-1,3.4-3.2v-27c0-2.1-0.5-2.7-3.4-3.2v-1h13.3v1c-2.9,0.5-3.4,1-3.4,3.2
		v27C185.5,641.2,186,641.8,188.9,642.2z"/>
	<path class="st1" d="M205.2,621.2h-3v-0.8l8.3-6.3h0.6v5.5l6.2-0.3v1.9l-6.2-0.3v15.7c0,3.4,1.5,4.6,3.6,4.6c1.2,0,2.3-0.4,3-1.1v1
		c-0.9,1.3-3.3,2.5-6,2.5c-3.6,0-6.5-2-6.5-7V621.2z"/>
	<path class="st1" d="M227.9,623.3c1.3-2.6,4.2-4.4,8-4.4c4.8,0,8.2,2.4,8.2,7.5v13.3c0,1.7,0.3,2.1,2.9,2.6v1h-11.5v-1
		c2.3-0.4,2.7-0.8,2.7-2.4v-12.6c0-3.8-1.9-5.7-5.1-5.7c-2.3,0-4.1,1.1-5.1,2.7v15.6c0,1.6,0.3,2,2.7,2.4v1h-11.5v-1
		c2.5-0.4,2.9-0.9,2.9-2.6v-28.3c0-1.4-0.2-1.7-1.5-2.1l-1.4-0.4v-0.9l8.8-1V623.3z"/>
	<path class="st1" d="M257.8,639.7c0,1.7,0.4,2.1,2.9,2.6v1H249v-1c2.5-0.4,2.9-0.9,2.9-2.6v-16.1c0-1.4-0.2-1.7-1.5-2.1L249,621
		v-0.9l8.8-1V639.7z M251.1,612c0-1.8,1.5-3.2,3.3-3.2s3.3,1.4,3.3,3.2c0,1.8-1.5,3.1-3.3,3.1S251.1,613.8,251.1,612z"/>
	<path class="st1" d="M271.6,623.4c1.3-2.6,4.2-4.4,8-4.4c4.8,0,8.2,2.4,8.2,7.5v13.3c0,1.7,0.3,2.1,2.9,2.6v1h-11.5v-1
		c2.3-0.4,2.7-0.8,2.7-2.4v-12.6c0-3.8-1.9-5.7-5.1-5.7c-2.3,0-4.1,1.1-5.1,2.7v15.6c0,1.6,0.3,2,2.7,2.4v1h-11.5v-1
		c2.5-0.4,2.9-0.9,2.9-2.6v-16.1c0-1.4-0.2-1.7-1.5-2.1l-1.4-0.4v-0.9l8.8-1V623.4z"/>
	<path class="st1" d="M304.2,631.1l-2.6,0v8.8c0,1.6,0.3,2,2.7,2.4v1h-11.5v-1c2.5-0.4,2.9-0.9,2.9-2.6v-28.3c0-1.4-0.2-1.7-1.5-2.1
		l-1.4-0.4v-0.9l8.8-1v22.9l2.6-0.1l5.4-5.9c2-2.1,1.8-3.1-1-3.6v-1h9.3v1c-2.6,0.6-3.8,1.3-7.3,4.4l-2.3,2.2l6.2,10.6
		c2,3.5,3.1,4.5,4.6,4.8v0.9h-7.8L304.2,631.1z"/>
	<path class="st1" d="M331.9,637.8c0-3.6,2.7-5.9,9.6-7.4l4.9-1v-2.6c0-4.6-2.3-6.3-6-6.3c-1.7,0-3.3,0.4-4.5,1.2
		c1.4,0.1,2.6,1.3,2.6,2.8c0,1.6-1.3,2.8-2.9,2.8c-1.6,0-2.9-1.2-2.9-2.8c0-3.1,4-5.6,9.8-5.6c5.9,0,9.7,2.3,9.7,7.6v12.2
		c0,2.1,1,3,2.5,3c0.4,0,0.8-0.1,1-0.1v0.9c-0.8,0.6-2.4,1.1-4.2,1.1c-2.6,0-4.6-1.3-5.1-3.7c-1,2.2-4,3.8-7.7,3.8
		C334.8,643.7,331.9,641.3,331.9,637.8z M342.1,641.2c2,0,3.5-0.8,4.4-2.3v-8.5l-2.3,0.5c-4.8,1.1-6.3,2.9-6.3,5.8
		C337.8,639.6,339.7,641.2,342.1,641.2z"/>
	<path class="st1" d="M371.7,643.6c-3.2,0-5.7-1.5-6.8-3.5l-2.7,3h-2.7v-31.8c0-1.4-0.1-1.7-1.5-2.1l-1.4-0.4v-0.9l8.8-1l0,16.5
		c1.3-2.7,4.3-4.5,7.9-4.5c5.3,0,9.8,4.4,9.8,12.2C383.1,638.8,378,643.6,371.7,643.6z M370.4,621.6c-2.3,0-4,1-5,2.7v15
		c0.7,1.4,2.5,2.6,4.6,2.6c4.2,0,6.9-3.9,6.9-10.2C377,625.4,374.3,621.6,370.4,621.6z"/>
	<path class="st1" d="M387.1,631.3c0-7.3,5.5-12.4,12.7-12.4c7.1,0,12.6,4.8,12.6,12.3c0,7.3-5.6,12.5-12.7,12.5
		C392.6,643.7,387.1,638.8,387.1,631.3z M406,631.5c0-6.8-2.5-11.3-6.3-11.3c-3.9,0-6.2,4.2-6.2,10.8c0,6.8,2.5,11.3,6.3,11.3
		C403.8,642.3,406,638.1,406,631.5z"/>
	<path class="st1" d="M423.9,635.2c0,3.9,1.8,5.8,5,5.8c2.2,0,4-1.1,4.9-2.7v-14.8c0-1.4-0.2-1.7-1.5-2.1l-1.4-0.4v-0.9l8.8-1V639
		c0,1.4,0.2,1.7,1.5,2.2l1.4,0.4v0.9l-8.8,1v-4.2c-1.3,2.6-4.2,4.5-7.9,4.5c-4.7,0-8-2.5-8-7.6v-12.5c0-1.4-0.2-1.7-1.5-2.1
		l-1.4-0.4v-0.9l8.8-1V635.2z"/>
	<path class="st1" d="M447.5,621.2h-3v-0.8l8.3-6.3h0.6v5.5l6.2-0.3v1.9l-6.2-0.3v15.7c0,3.4,1.5,4.6,3.6,4.6c1.2,0,2.3-0.4,3-1.1v1
		c-0.9,1.3-3.3,2.5-6,2.5c-3.6,0-6.5-2-6.5-7V621.2z"/>
	<path class="st1" d="M484.7,618.9c2.9,0,5.2,1.2,6.3,3v-10.5c0-1.4-0.2-1.7-1.5-2.1l-1.4-0.4v-0.9l8.9-1V639c0,1.4,0.2,1.7,1.5,2.2
		l1.4,0.4v0.9l-8.8,1v-4.3c-1.3,2.8-4.3,4.6-7.9,4.6c-5.3,0-9.8-4.4-9.8-12.2C473.4,623.8,478.4,618.9,484.7,618.9z M486,641
		c2.3,0,4-1,5-2.8v-15c-0.7-1.5-2.5-2.6-4.6-2.6c-4.1,0-6.9,3.9-6.9,10.2C479.5,637.1,482.2,641,486,641z"/>
	<path class="st1" d="M514.5,618.9c6.3,0,10.1,4.1,10.1,9.9c0,0.5-0.1,1.1-0.1,1.4h-15.6c0.3,6.5,4,10.8,9.3,10.8c2.6,0,4.7-1,6-2.3
		l0,1c-1.6,2.4-5,4-9.2,4c-6.9,0-12.1-4.9-12.1-12.4C502.9,624.1,507.4,618.9,514.5,618.9z M508.8,629.1l10.2-0.1c0-0.4,0-0.8,0-1.3
		c0-4.4-1.5-7.5-4.6-7.5C510.9,620.2,508.8,623.5,508.8,629.1z"/>
	<path class="st1" d="M525.7,620.3v-1h12.6v1c-2.9,0.4-3.3,1.1-2.2,4.5l4.5,12.5l4.4-12.4c1.2-3.5,0.7-4.2-2.1-4.6v-1h8v1
		c-2,0.4-2.7,1-4.2,4.8l-7.2,18.1h-2.5l-7.5-19C528.4,621.3,527.7,620.7,525.7,620.3z"/>
	<path class="st1" d="M562.8,618.9c6.3,0,10.1,4.1,10.1,9.9c0,0.5-0.1,1.1-0.1,1.4h-15.6c0.3,6.5,4,10.8,9.3,10.8c2.6,0,4.7-1,6-2.3
		l0,1c-1.6,2.4-5,4-9.2,4c-6.9,0-12.1-4.9-12.1-12.4C551.2,624.1,555.7,618.9,562.8,618.9z M557.2,629.1l10.2-0.1c0-0.4,0-0.8,0-1.3
		c0-4.4-1.5-7.5-4.6-7.5C559.3,620.2,557.2,623.5,557.2,629.1z"/>
	<path class="st1" d="M584.7,639.7c0,1.7,0.4,2.1,2.9,2.6v1h-11.7v-1c2.5-0.4,2.9-0.9,2.9-2.6v-28.3c0-1.4-0.2-1.7-1.5-2.1l-1.4-0.4
		v-0.9l8.8-1V639.7z"/>
	<path class="st1" d="M590.7,631.3c0-7.3,5.5-12.4,12.7-12.4c7.1,0,12.6,4.8,12.6,12.3c0,7.3-5.6,12.5-12.7,12.5
		C596.2,643.7,590.7,638.8,590.7,631.3z M609.5,631.5c0-6.8-2.5-11.3-6.3-11.3c-3.9,0-6.2,4.2-6.2,10.8c0,6.8,2.5,11.3,6.3,11.3
		C607.3,642.3,609.5,638.1,609.5,631.5z"/>
	<path class="st1" d="M634,643.7c-2.9,0-5.2-1.2-6.3-3v10.1c0,1.9,0.4,2.3,3.2,2.8v1h-12v-1c2.5-0.4,2.9-0.8,2.9-2.5v-27.4
		c0-1.4-0.2-1.7-1.5-2.1l-1.4-0.4v-0.9l8.8-1v4.4c1.2-2.7,4.2-4.6,7.8-4.6c5.3,0,9.9,4.5,9.9,12.2S640.3,643.7,634,643.7z
		 M632.7,621.6c-2.3,0-4,1-4.9,2.7v15c0.7,1.5,2.6,2.6,4.6,2.6c4.1,0,6.9-4,6.9-10.2C639.2,625.5,636.5,621.6,632.7,621.6z"/>
	<path class="st1" d="M661,618.9c6.3,0,10.1,4.1,10.1,9.9c0,0.5-0.1,1.1-0.1,1.4h-15.6c0.3,6.5,4,10.8,9.3,10.8c2.6,0,4.7-1,6-2.3
		l0,1c-1.6,2.4-5,4-9.2,4c-6.9,0-12.1-4.9-12.1-12.4C649.4,624.1,653.9,618.9,661,618.9z M655.4,629.1l10.2-0.1c0-0.4,0-0.8,0-1.3
		c0-4.4-1.5-7.5-4.6-7.5C657.5,620.2,655.4,623.5,655.4,629.1z"/>
	<path class="st1" d="M682.8,624.9c2.6-4,4.6-5.9,6.8-5.9c1.9,0,2.7,1.3,2.7,2.9c0,0.8-0.2,1.6-0.5,2.1c-0.5-0.2-1.7-0.3-2.8-0.3
		c-2.4,0-5,0.8-6.2,2v13.9c0,1.9,0.4,2.3,3.2,2.8v1h-12v-1c2.5-0.4,2.9-0.8,2.9-2.5v-16.2c0-1.4-0.2-1.7-1.5-2.1l-1.4-0.4v-0.9
		l8.8-1V624.9z"/>
	<path class="st1" d="M705.1,618.9c3.4,0,6,0.7,7.3,1.5l0.1,6.2h-0.9c-0.8-4.1-3.2-6.3-6.4-6.3c-3,0-4.7,1.5-4.7,3.7
		c0,2.1,1.6,3.2,4.5,4.2l1.9,0.6c4.4,1.4,6.8,3.7,6.8,7.6c0,4.6-4.6,7.3-9.8,7.3c-3.5,0-6.7-0.8-8.4-1.9l-0.3-6.6h0.9
		c1,4.6,4.3,7.2,7.7,7.2c3,0,4.9-1.7,4.9-3.9c0-2.2-1.3-3.5-4.4-4.4l-1.9-0.6c-4.3-1.4-6.9-3.5-6.9-7.2
		C695.4,621.5,699.4,618.9,705.1,618.9z"/>
	<path class="st1" d="M728.6,637.8c0-3.6,2.7-5.9,9.6-7.4l4.9-1v-2.6c0-4.6-2.3-6.3-6-6.3c-1.7,0-3.3,0.4-4.5,1.2
		c1.4,0.1,2.6,1.3,2.6,2.8c0,1.6-1.3,2.8-2.9,2.8c-1.6,0-2.9-1.2-2.9-2.8c0-3.1,4-5.6,9.8-5.6c5.9,0,9.7,2.3,9.7,7.6v12.2
		c0,2.1,1,3,2.5,3c0.4,0,0.8-0.1,1-0.1v0.9c-0.8,0.6-2.4,1.1-4.2,1.1c-2.6,0-4.6-1.3-5.1-3.7c-1,2.2-4,3.8-7.7,3.8
		C731.5,643.7,728.6,641.3,728.6,637.8z M738.8,641.2c2,0,3.5-0.8,4.4-2.3v-8.5l-2.3,0.5c-4.8,1.1-6.3,2.9-6.3,5.8
		C734.6,639.6,736.4,641.2,738.8,641.2z"/>
	<path class="st1" d="M762.7,623.4c1.3-2.6,4.2-4.4,8-4.4c4.8,0,8.2,2.4,8.2,7.5v13.3c0,1.7,0.3,2.1,2.9,2.6v1h-11.5v-1
		c2.3-0.4,2.7-0.8,2.7-2.4v-12.6c0-3.8-1.9-5.7-5.1-5.7c-2.3,0-4.1,1.1-5.1,2.7v15.6c0,1.6,0.3,2,2.7,2.4v1h-11.5v-1
		c2.5-0.4,2.9-0.9,2.9-2.6v-16.1c0-1.4-0.2-1.7-1.5-2.1l-1.4-0.4v-0.9l8.8-1V623.4z"/>
	<path class="st1" d="M796,618.9c2.9,0,5.2,1.2,6.3,3v-10.5c0-1.4-0.2-1.7-1.5-2.1l-1.4-0.4v-0.9l8.9-1V639c0,1.4,0.2,1.7,1.5,2.2
		l1.4,0.4v0.9l-8.8,1v-4.3c-1.3,2.8-4.3,4.6-7.9,4.6c-5.3,0-9.8-4.4-9.8-12.2C784.7,623.8,789.7,618.9,796,618.9z M797.3,641
		c2.3,0,4-1,5-2.8v-15c-0.7-1.5-2.5-2.6-4.6-2.6c-4.1,0-6.9,3.9-6.9,10.2C790.8,637.1,793.5,641,797.3,641z"/>
	<path class="st1" d="M279.5,703.7c-2.9,0-5.2-1.2-6.3-3v10.1c0,1.9,0.4,2.3,3.2,2.8v1h-12v-1c2.5-0.4,2.9-0.8,2.9-2.5v-27.4
		c0-1.4-0.2-1.7-1.5-2.1l-1.4-0.4v-0.9l8.8-1v4.4c1.2-2.7,4.2-4.6,7.8-4.6c5.3,0,9.9,4.5,9.9,12.2S285.7,703.7,279.5,703.7z
		 M278.1,681.6c-2.3,0-4,1-4.9,2.7v15c0.7,1.5,2.6,2.6,4.6,2.6c4.1,0,6.9-4,6.9-10.2C284.7,685.5,282,681.6,278.1,681.6z"/>
	<path class="st1" d="M302.8,684.9c2.6-4,4.6-5.9,6.8-5.9c1.9,0,2.7,1.3,2.7,2.9c0,0.8-0.2,1.6-0.5,2.1c-0.5-0.2-1.7-0.3-2.8-0.3
		c-2.4,0-5,0.8-6.2,2v13.9c0,1.9,0.4,2.3,3.2,2.8v1h-12v-1c2.5-0.4,2.9-0.8,2.9-2.5v-16.2c0-1.4-0.2-1.7-1.5-2.1L294,681v-0.9l8.8-1
		V684.9z"/>
	<path class="st1" d="M325.7,678.9c6.3,0,10.1,4.1,10.1,9.9c0,0.5-0.1,1.1-0.1,1.4H320c0.3,6.5,4,10.8,9.3,10.8c2.6,0,4.7-1,6-2.3
		l0,1c-1.6,2.4-5,4-9.2,4c-6.9,0-12.1-4.9-12.1-12.4C314,684.1,318.6,678.9,325.7,678.9z M320,689.1l10.2-0.1c0-0.4,0-0.8,0-1.3
		c0-4.4-1.5-7.5-4.6-7.5C322.1,680.2,320,683.5,320,689.1z"/>
	<path class="st1" d="M353.6,703.7c-2.9,0-5.2-1.2-6.3-3v10.1c0,1.9,0.4,2.3,3.2,2.8v1h-12v-1c2.5-0.4,2.9-0.8,2.9-2.5v-27.4
		c0-1.4-0.2-1.7-1.5-2.1l-1.4-0.4v-0.9l8.8-1v4.4c1.2-2.7,4.2-4.6,7.8-4.6c5.3,0,9.9,4.5,9.9,12.2S359.9,703.7,353.6,703.7z
		 M352.3,681.6c-2.3,0-4,1-4.9,2.7v15c0.7,1.5,2.6,2.6,4.6,2.6c4.1,0,6.9-4,6.9-10.2C358.9,685.5,356.1,681.6,352.3,681.6z"/>
	<path class="st1" d="M368.9,697.8c0-3.6,2.7-5.9,9.6-7.4l4.9-1v-2.6c0-4.6-2.3-6.3-6-6.3c-1.7,0-3.3,0.4-4.5,1.2
		c1.4,0.1,2.6,1.3,2.6,2.8c0,1.6-1.3,2.8-2.9,2.8c-1.6,0-2.9-1.2-2.9-2.8c0-3.1,4-5.6,9.8-5.6c5.9,0,9.7,2.3,9.7,7.6v12.2
		c0,2.1,1,3,2.5,3c0.4,0,0.8-0.1,1-0.1v0.9c-0.8,0.6-2.4,1.1-4.2,1.1c-2.6,0-4.6-1.3-5.1-3.7c-1,2.2-4,3.8-7.7,3.8
		C371.8,703.7,368.9,701.3,368.9,697.8z M379.1,701.2c2,0,3.5-0.8,4.4-2.3v-8.5l-2.3,0.5c-4.8,1.1-6.3,2.9-6.3,5.8
		C374.8,699.6,376.7,701.2,379.1,701.2z"/>
	<path class="st1" d="M403,684.9c2.6-4,4.6-5.9,6.8-5.9c1.9,0,2.7,1.3,2.7,2.9c0,0.8-0.2,1.6-0.5,2.1c-0.5-0.2-1.7-0.3-2.8-0.3
		c-2.4,0-5,0.8-6.2,2v13.9c0,1.9,0.4,2.3,3.2,2.8v1h-12v-1c2.5-0.4,2.9-0.8,2.9-2.5v-16.2c0-1.4-0.2-1.7-1.5-2.1l-1.4-0.4v-0.9
		l8.8-1V684.9z"/>
	<path class="st1" d="M425.8,678.9c6.3,0,10.1,4.1,10.1,9.9c0,0.5-0.1,1.1-0.1,1.4h-15.6c0.3,6.5,4,10.8,9.3,10.8c2.6,0,4.7-1,6-2.3
		l0,1c-1.6,2.4-5,4-9.2,4c-6.9,0-12.1-4.9-12.1-12.4C414.2,684.1,418.7,678.9,425.8,678.9z M420.2,689.1l10.2-0.1c0-0.4,0-0.8,0-1.3
		c0-4.4-1.5-7.5-4.6-7.5C422.3,680.2,420.2,683.5,420.2,689.1z"/>
	<path class="st1" d="M450.8,691.3c0-7.2,5.3-12.4,12.6-12.4c5.4,0,8.3,2.7,8.3,5.7c0,1.7-1.3,3-2.9,3c-1.6,0-2.9-1.3-2.9-2.9
		s1.2-2.9,2.8-2.9c0.1,0,0.2,0,0.3,0c-1-0.8-2.4-1.3-4.2-1.3c-4.8,0-7.9,3.9-7.9,9.6c0,6.8,4,10.8,8.9,10.8c2.6,0,4.7-0.9,6-2.3v1
		c-1.6,2.3-5,4-9.1,4C456,703.7,450.8,698.8,450.8,691.3z"/>
	<path class="st1" d="M475.2,691.3c0-7.3,5.5-12.4,12.7-12.4c7.1,0,12.6,4.8,12.6,12.3c0,7.3-5.6,12.5-12.7,12.5
		C480.7,703.7,475.2,698.8,475.2,691.3z M494.1,691.5c0-6.8-2.5-11.3-6.3-11.3c-3.9,0-6.2,4.2-6.2,10.8c0,6.8,2.5,11.3,6.3,11.3
		C491.8,702.3,494.1,698.1,494.1,691.5z"/>
	<path class="st1" d="M504.5,691.3c0-7.3,5.5-12.4,12.7-12.4c7.1,0,12.6,4.8,12.6,12.3c0,7.3-5.6,12.5-12.7,12.5
		C510,703.7,504.5,698.8,504.5,691.3z M523.4,691.5c0-6.8-2.5-11.3-6.3-11.3c-3.9,0-6.2,4.2-6.2,10.8c0,6.8,2.5,11.3,6.3,11.3
		C521.1,702.3,523.4,698.1,523.4,691.5z"/>
	<path class="st1" d="M541.8,699.7c0,1.7,0.4,2.1,2.9,2.6v1h-11.7v-1c2.5-0.4,2.9-0.9,2.9-2.6v-28.3c0-1.4-0.2-1.7-1.5-2.1l-1.4-0.4
		v-0.9l8.8-1V699.7z"/>
	<path class="st1" d="M558.7,697.8c0-3.6,2.7-5.9,9.6-7.4l4.9-1v-2.6c0-4.6-2.3-6.3-6-6.3c-1.7,0-3.3,0.4-4.5,1.2
		c1.4,0.1,2.6,1.3,2.6,2.8c0,1.6-1.3,2.8-2.9,2.8c-1.6,0-2.9-1.2-2.9-2.8c0-3.1,4-5.6,9.8-5.6c5.9,0,9.7,2.3,9.7,7.6v12.2
		c0,2.1,1,3,2.5,3c0.4,0,0.8-0.1,1-0.1v0.9c-0.8,0.6-2.4,1.1-4.2,1.1c-2.6,0-4.6-1.3-5.1-3.7c-1,2.2-4,3.8-7.7,3.8
		C561.6,703.7,558.7,701.3,558.7,697.8z M568.9,701.2c2,0,3.5-0.8,4.4-2.3v-8.5l-2.3,0.5c-4.8,1.1-6.3,2.9-6.3,5.8
		C564.6,699.6,566.5,701.2,568.9,701.2z"/>
	<path class="st1" d="M594.7,678.9c3.4,0,6,0.7,7.3,1.5l0.1,6.2h-0.9c-0.8-4.1-3.2-6.3-6.4-6.3c-3,0-4.7,1.5-4.7,3.7
		c0,2.1,1.6,3.2,4.5,4.2l1.9,0.6c4.4,1.4,6.8,3.7,6.8,7.6c0,4.6-4.6,7.3-9.8,7.3c-3.5,0-6.7-0.8-8.4-1.9l-0.3-6.6h0.9
		c1,4.6,4.3,7.2,7.7,7.2c3,0,4.9-1.7,4.9-3.9c0-2.2-1.3-3.5-4.4-4.4l-1.9-0.6c-4.3-1.4-6.9-3.5-6.9-7.2
		C585,681.5,589,678.9,594.7,678.9z"/>
	<path class="st1" d="M617.1,678.9c3.4,0,6,0.7,7.3,1.5l0.1,6.2h-0.9c-0.8-4.1-3.2-6.3-6.4-6.3c-3,0-4.7,1.5-4.7,3.7
		c0,2.1,1.6,3.2,4.5,4.2l1.9,0.6c4.4,1.4,6.8,3.7,6.8,7.6c0,4.6-4.6,7.3-9.8,7.3c-3.5,0-6.7-0.8-8.4-1.9l-0.3-6.6h0.9
		c1,4.6,4.3,7.2,7.7,7.2c3,0,4.9-1.7,4.9-3.9c0-2.2-1.3-3.5-4.4-4.4l-1.9-0.6c-4.3-1.4-6.9-3.5-6.9-7.2
		C607.4,681.5,611.4,678.9,617.1,678.9z"/>
	<path class="st1" d="M641.2,678.9c6.3,0,10.1,4.1,10.1,9.9c0,0.5-0.1,1.1-0.1,1.4h-15.6c0.3,6.5,4,10.8,9.3,10.8c2.6,0,4.7-1,6-2.3
		l0,1c-1.6,2.4-5,4-9.2,4c-6.9,0-12.1-4.9-12.1-12.4C629.6,684.1,634.2,678.9,641.2,678.9z M635.6,689.1l10.2-0.1c0-0.4,0-0.8,0-1.3
		c0-4.4-1.5-7.5-4.6-7.5C637.7,680.2,635.6,683.5,635.6,689.1z"/>
	<path class="st1" d="M657,681.2h-3v-0.8l8.3-6.3h0.6v5.5l6.2-0.3v1.9l-6.2-0.3v15.7c0,3.4,1.5,4.6,3.6,4.6c1.2,0,2.3-0.4,3-1.1v1
		c-0.9,1.3-3.3,2.5-6,2.5c-3.6,0-6.5-2-6.5-7V681.2z"/>
	<path class="st1" d="M673.5,681.2h-3v-0.8l8.3-6.3h0.6v5.5l6.2-0.3v1.9l-6.2-0.3v15.7c0,3.4,1.5,4.6,3.6,4.6c1.2,0,2.3-0.4,3-1.1v1
		c-0.9,1.3-3.3,2.5-6,2.5c-3.6,0-6.5-2-6.5-7V681.2z"/>
	<path class="st1" d="M699.9,678.9c6.3,0,10.1,4.1,10.1,9.9c0,0.5-0.1,1.1-0.1,1.4h-15.6c0.3,6.5,4,10.8,9.3,10.8c2.6,0,4.7-1,6-2.3
		l0,1c-1.6,2.4-5,4-9.2,4c-6.9,0-12.1-4.9-12.1-12.4C688.2,684.1,692.8,678.9,699.9,678.9z M694.2,689.1l10.2-0.1c0-0.4,0-0.8,0-1.3
		c0-4.4-1.5-7.5-4.6-7.5C696.3,680.2,694.2,683.5,694.2,689.1z"/>
	<path class="st1" d="M723.6,678.9c3.4,0,6,0.7,7.3,1.5l0.1,6.2h-0.9c-0.8-4.1-3.2-6.3-6.4-6.3c-3,0-4.7,1.5-4.7,3.7
		c0,2.1,1.6,3.2,4.5,4.2l1.9,0.6c4.4,1.4,6.8,3.7,6.8,7.6c0,4.6-4.6,7.3-9.8,7.3c-3.5,0-6.7-0.8-8.4-1.9l-0.3-6.6h0.9
		c1,4.6,4.3,7.2,7.7,7.2c3,0,4.9-1.7,4.9-3.9c0-2.2-1.3-3.5-4.4-4.4l-1.9-0.6c-4.3-1.4-6.9-3.5-6.9-7.2
		C713.9,681.5,717.9,678.9,723.6,678.9z"/>
</g>
</svg>
