<?xml version="1.0" encoding="utf-8"?>
<!-- Generator: Adobe Illustrator 23.1.1, SVG Export Plug-In . SVG Version: 6.00 Build 0)  -->
<svg version="1.1" id="Слой_1" xmlns="http://www.w3.org/2000/svg" xmlns:xlink="http://www.w3.org/1999/xlink" x="0px" y="0px"
	 viewBox="0 0 1000 1000" style="enable-background:new 0 0 1000 1000;" xml:space="preserve">
<style type="text/css">
	.st0{fill:#113357;}
	.st1{enable-background:new    ;}
	.st2{fill:#FFFFFF;}
</style>
<title>soft</title>
<path class="st0" d="M501.3,249.8c-55.6,0-69.5,13.9-69.5,69.5s13.9,69.5,69.5,69.5s69.5-13.9,69.5-69.5S556.9,249.8,501.3,249.8z"
	/>
<g>
	<path class="st0" d="M305.9,642.1v0.7h-9.6v-0.7c2.4-0.3,2.8-0.8,2.8-2.5v-21.9c0-1.7-0.4-2.1-2.8-2.5v-0.7h9.6v0.7
		c-2.2,0.3-2.7,0.7-2.7,2.3v19.5l14.5-18.3v-1.2c0-1.7-0.4-2-2.6-2.4v-0.7h9.6v0.7c-2.4,0.3-2.8,0.7-2.8,2.5v21.9
		c0,1.7,0.4,2.1,2.8,2.5v0.7H315v-0.7c2.3-0.3,2.6-0.7,2.6-2.4v-19.6l-14.5,18.3v1.2C303.2,641.4,303.6,641.8,305.9,642.1z"/>
	<path class="st0" d="M327.5,633.3c-0.2-5.2,3.9-9.6,9.1-9.8c0.2,0,0.4,0,0.5,0c4.2,0,6.2,2,6.2,4.3c0,1.1-0.8,2-1.9,2.1
		c0,0-0.1,0-0.1,0c-1.1,0-2-0.9-2-2c0-1.1,0.9-2,1.9-2c0.1,0,0.2,0,0.4,0c-1-0.9-2.3-1.3-3.6-1.2c-4,0-6.5,3.2-6.5,7.9
		c0,5.5,3.2,8.8,7.2,8.8c1.8,0.1,3.6-0.6,4.9-1.9v0.7c-1.2,1.8-3.8,3.1-6.9,3.1C331.4,643.2,327.5,639.2,327.5,633.3z"/>
	<path class="st0" d="M366.8,642.1v0.7h-8.4v-0.7c2-0.3,2.2-0.6,2.2-1.9v-15.5h-8.5v15.5c0,1.3,0.2,1.6,2.2,1.9v0.7h-8.4v-0.7
		c2-0.3,2.4-0.7,2.4-2v-13.6c0-1.3-0.3-1.7-2.4-2v-0.7h20.9v0.7c-2.1,0.3-2.4,0.6-2.4,2v13.6C364.4,641.5,364.6,641.8,366.8,642.1z"
		/>
	<path class="st0" d="M369.6,633.4c-0.2-5.3,3.9-9.7,9.2-9.8c0.2,0,0.4,0,0.5,0c5.2-0.2,9.5,3.9,9.6,9.1c0,0.2,0,0.5,0,0.7
		c0.2,5.3-4,9.7-9.2,9.8c-0.2,0-0.3,0-0.5,0c-5.2,0.2-9.5-3.9-9.6-9.1C369.6,633.9,369.6,633.6,369.6,633.4z M384.7,633.5
		c0-5.4-2.2-9-5.5-9s-5.4,3.4-5.4,8.7c0,5.4,2.2,9,5.5,9S384.7,638.8,384.7,633.5L384.7,633.5z"/>
	<path class="st0" d="M392.2,638.6c1,0,1.8,0.6,2.1,1.6c0.9-2,1.2-5.5,1.3-10.8l0.1-2.5c0-1.6-0.5-2.1-2.8-2.3v-0.7h16.7v0.7
		c-2.1,0.3-2.4,0.6-2.4,2v13.6c0,1.3,0.3,1.7,2.4,2v0.7h-8.4v-0.7c2-0.3,2.2-0.6,2.2-1.9v-15.5h-6.5l-0.1,4.8
		c-0.3,9-1.2,13.6-4.4,13.6c-1.2,0.1-2.3-0.8-2.4-2.1c-0.1-1.2,0.8-2.3,2.1-2.4C392,638.6,392.1,638.6,392.2,638.6L392.2,638.6z"/>
	<path class="st0" d="M421.1,642.8h-9.3v-0.7c2-0.3,2.4-0.7,2.4-2v-13.6c0-1.3-0.3-1.7-2.4-2v-0.7h8.8v0.7c-2.3,0.3-2.6,0.6-2.6,2.1
		v4.7h2.7c6,0,8.5,2,8.5,5.5S426,642.8,421.1,642.8z M418.1,632.3v9.7l2.2-0.1c3.1-0.1,5.1-1.8,5.1-4.7s-1.6-4.8-5.1-4.9
		L418.1,632.3z"/>
	<path class="st0" d="M442.6,637.7c0-2.9-1.7-4.2-4.8-4.2h-1.9v-0.8h1.9c3,0,4.3-1.7,4.3-4.2s-1.4-3.9-3.8-3.9
		c-2.6,0-4.4,1.8-5.2,5.3h-0.6l0.2-4.7c1.7-1.1,3.8-1.6,5.8-1.5c4.9,0,7.4,1.7,7.4,4.5c0,2.5-2.3,4.2-5.4,4.8
		c3.5,0.3,6.1,1.8,6.1,4.8c0,3.3-3.7,5.6-8.2,5.6c-2.2,0.1-4.3-0.5-6.2-1.6l-0.2-4.7h0.6c0.9,3.7,3,5.4,5.6,5.4
		c2.3,0.1,4.3-1.8,4.4-4.1C442.6,638,442.6,637.8,442.6,637.7z"/>
	<path class="st0" d="M447.6,624.6v-0.7h9.1v0.7c-2.3,0.3-2.7,0.9-1.7,3.4l3.8,10.2l3.7-10.1c1-2.7,0.6-3.2-1.7-3.5v-0.7h6.3v0.7
		c-1.7,0.3-2.2,0.8-3.4,3.8l-4.2,10.5l-1.7,4.1l-3.1,8.9h-3.2v-0.1c2.1-2.8,3.9-5.8,5.4-8.9l-6.2-15.2
		C449.8,625.3,449.3,624.9,447.6,624.6z"/>
	<path class="st0" d="M476.6,642.1v0.7h-8.4v-0.7c2-0.3,2.4-0.7,2.4-2v-13.6c0-1.3-0.3-1.7-2.4-2v-0.7h8.4v0.7
		c-2,0.3-2.2,0.6-2.2,1.8v6.3h3.6c0.1-5.2,4.4-9.3,9.6-9.2c5.4,0,9.5,3.8,9.5,9.8c0.2,5.2-3.9,9.6-9.1,9.8c-0.2,0-0.3,0-0.5,0
		c-5.4,0-9.4-3.8-9.5-9.6h-3.6v6.7C474.4,641.5,474.6,641.8,476.6,642.1z M492.8,633.5c0-5.3-2-9-5.4-9s-5.2,3.4-5.2,8.7s2,9,5.4,9
		S492.8,638.8,492.8,633.5z"/>
	<path class="st0" d="M518.3,642.8h-9.7v-0.7c2-0.3,2.4-0.7,2.4-2v-13.6c0-1.3-0.3-1.7-2.4-2v-0.7h9.8c4.8,0,7.2,1.7,7.2,4.3
		s-2.5,4-5.9,4.6c4.1,0.2,6.9,1.7,6.9,4.8S523.3,642.8,518.3,642.8z M517.5,624.8l-2.7-0.1v7.9h2.5c3-0.1,4.4-1.6,4.4-3.9
		S520.3,624.8,517.5,624.8L517.5,624.8z M517.4,633.4h-2.5v8.6l2.5-0.1c3.2-0.1,5.2-1.7,5.2-4.3
		C522.6,634.6,520.5,633.4,517.4,633.4L517.4,633.4z"/>
	<path class="st0" d="M546.3,642.1v0.7h-8.4v-0.7c2-0.3,2.4-0.7,2.4-2v-13.6c0-1.3-0.3-1.7-2.4-2v-0.7h8.4v0.7
		c-2,0.3-2.2,0.6-2.2,1.8v6.3h2.3l4.1-5.2c1.6-1.9,1.5-2.6-0.7-3v-0.7h6.9v0.7c-2,0.4-2.8,0.9-5.5,3.7l-2.3,2.5l5,7.6
		c1.8,2.8,2.6,3.5,3.8,3.8v0.6h-5.4l-5.9-9.2h-2.4v6.7C544.1,641.5,544.3,641.8,546.3,642.1z"/>
	<path class="st0" d="M559.5,638.5c0-2.9,2.1-4.7,7.4-5.8l4-0.8v-2.1c0-3.7-1.9-5.1-4.8-5.1c-1.4,0-2.8,0.4-3.9,1.2h0.1
		c1.1,0,2,1,1.9,2.1s-1,2-2.1,1.9c-1.1,0-2-0.9-2-2c0-2.4,3.2-4.2,7.4-4.2s7.2,1.8,7.2,5.8v10c0,1.7,0.9,2.5,2.1,2.5
		c0.3,0,0.6,0,0.9-0.1v0.6c-0.9,0.6-1.9,0.8-3,0.8c-1.8,0.2-3.3-1.1-3.7-2.8c-0.9,1.6-3.2,2.9-6,2.9
		C561.9,643.2,559.5,641.3,559.5,638.5z M567.1,641.5c1.5,0.1,3-0.6,3.8-1.9v-7l-2.1,0.5c-4.1,0.9-5.4,2.4-5.4,4.7
		c-0.2,1.9,1.3,3.6,3.2,3.8C566.8,641.5,567,641.5,567.1,641.5L567.1,641.5z"/>
	<path class="st0" d="M580,626.3c0-1.2-0.4-1.6-2.5-1.8v-0.7h8.8v0.7c-2.1,0.2-2.4,0.5-2.4,1.7v3c0,3.3,1.5,4.7,4.1,4.7
		c1.3,0,2.7-0.3,3.9-0.9v-6.9c0-1.2-0.3-1.5-2.5-1.7v-0.7h8.9v0.7c-2.2,0.2-2.5,0.5-2.5,1.8v14c0,1.2,0.4,1.5,2.5,1.8v0.7H589v-0.7
		c2.5-0.2,2.9-0.5,2.9-1.8v-6.5c-1.7,1-3.6,1.4-5.5,1.4c-3.8,0-6.4-1.9-6.4-6L580,626.3z"/>
	<path class="st0" d="M610,623.6c4.9,0,7.7,3.2,7.7,7.8c0,0.3,0,0.7-0.1,1h-12.6c0.1,5.3,3,9,7.4,9c1.8,0.1,3.6-0.6,4.9-1.9v0.7
		c-1.2,1.8-3.8,3.1-7,3.1c-5.4,0-9.3-3.9-9.3-9.8C601.2,627.7,604.6,623.6,610,623.6z M605,631.6l9-0.1c0-0.2,0-0.5,0-0.9
		c0-3.5-1.3-6.2-4.1-6.2C607,624.5,605.2,627.1,605,631.6L605,631.6z"/>
	<path class="st0" d="M621,633.3c-0.2-5.2,3.9-9.6,9.1-9.8c0.2,0,0.4,0,0.5,0c4.2,0,6.2,2,6.2,4.3c0,1.1-0.8,2-1.9,2.1
		c0,0-0.1,0-0.1,0c-1.1,0-2-0.9-2-2c0-1.1,0.9-2,1.9-2c0.1,0,0.2,0,0.4,0c-1-0.9-2.3-1.3-3.6-1.2c-4,0-6.5,3.2-6.5,7.9
		c0,5.5,3.2,8.8,7.2,8.8c1.8,0.1,3.6-0.6,4.9-1.9v0.7c-1.2,1.8-3.8,3.1-6.9,3.1C624.9,643.2,621,639.2,621,633.3z"/>
	<path class="st0" d="M657.2,630.2h-0.6c-1.3-4.6-1.8-5.3-5.1-5.5h-1.2V640c0,1.5,0.3,1.8,2.6,2.2v0.7h-9v-0.7
		c2.3-0.3,2.6-0.7,2.6-2.2v-15.3h-1.2c-3.3,0.2-3.8,0.9-5.1,5.5h-0.6l0.1-6.3H657L657.2,630.2z"/>
	<path class="st0" d="M669.1,642.8h-9.7v-0.7c2-0.3,2.4-0.7,2.4-2v-13.6c0-1.3-0.3-1.7-2.4-2v-0.7h9.8c4.8,0,7.2,1.7,7.2,4.3
		s-2.5,4-5.9,4.6c4.1,0.2,6.9,1.7,6.9,4.8S674,642.8,669.1,642.8z M668.3,624.8l-2.7-0.1v7.9h2.5c3-0.1,4.4-1.6,4.4-3.9
		S671.1,624.8,668.3,624.8L668.3,624.8z M668.2,633.4h-2.5v8.6l2.5-0.1c3.2-0.1,5.2-1.7,5.2-4.3
		C673.4,634.6,671.3,633.4,668.2,633.4L668.2,633.4z"/>
	<path class="st0" d="M689.3,623.6c4.9,0,7.7,3.2,7.7,7.8c0,0.3,0,0.7-0.1,1h-12.6c0.1,5.3,3,9,7.4,9c1.8,0.1,3.6-0.6,4.9-1.9v0.7
		c-1.2,1.8-3.8,3.1-7,3.1c-5.4,0-9.3-3.9-9.3-9.8C680.4,627.7,683.8,623.6,689.3,623.6z M684.3,631.6l9-0.1c0-0.2,0-0.5,0-0.9
		c0-3.5-1.3-6.2-4.1-6.2C686.2,624.5,684.4,627.1,684.3,631.6L684.3,631.6z"/>
	<path class="st0" d="M264.5,681.3c-0.2-5.2,3.9-9.6,9.1-9.8c0.2,0,0.4,0,0.5,0c4.2,0,6.2,2,6.2,4.3c0,1.1-0.8,2-1.9,2.1
		c0,0-0.1,0-0.1,0c-1.1,0-2-0.9-2-2c0-1.1,0.9-2,1.9-2c0.1,0,0.2,0,0.4,0c-1-0.9-2.3-1.3-3.6-1.2c-4,0-6.5,3.2-6.5,7.9
		c0,5.5,3.2,8.8,7.2,8.8c1.8,0.1,3.6-0.6,4.9-1.9v0.7c-1.2,1.8-3.8,3.1-6.9,3.1C268.4,691.2,264.5,687.2,264.5,681.3z"/>
	<path class="st0" d="M291.3,690.1v0.7h-8.4v-0.7c2-0.3,2.4-0.7,2.4-2v-13.6c0-1.3-0.3-1.7-2.4-2v-0.7h8.4v0.7
		c-2,0.3-2.2,0.6-2.2,1.8v11.9l8.9-11.2v-0.7c0-1.3-0.3-1.6-2.2-1.8v-0.7h8.4v0.7c-2.1,0.3-2.4,0.6-2.4,2v13.6c0,1.3,0.3,1.7,2.4,2
		v0.7h-8.4v-0.7c2-0.3,2.2-0.6,2.2-1.9v-11.9l-8.9,11.2v0.7C289.1,689.5,289.3,689.8,291.3,690.1z"/>
	<path class="st0" d="M307,681.3c-0.2-5.2,3.9-9.6,9.1-9.8c0.2,0,0.4,0,0.5,0c4.2,0,6.2,2,6.2,4.3c0,1.1-0.8,2-1.9,2.1
		c0,0-0.1,0-0.1,0c-1.1,0-2-0.9-2-2c0-1.1,0.9-2,1.9-2c0.1,0,0.2,0,0.4,0c-1-0.9-2.3-1.3-3.6-1.2c-4,0-6.5,3.2-6.5,7.9
		c0,5.5,3.2,8.8,7.2,8.8c1.8,0.1,3.6-0.6,4.9-1.9v0.7c-1.2,1.8-3.8,3.1-6.9,3.1C310.9,691.2,307,687.2,307,681.3z"/>
	<path class="st0" d="M343.1,678.2h-0.6c-1.3-4.6-1.8-5.3-5.1-5.5h-1.2V688c0,1.5,0.3,1.8,2.6,2.2v0.7h-9v-0.7
		c2.3-0.3,2.6-0.7,2.6-2.2v-15.3h-1.2c-3.3,0.2-3.8,0.9-5.1,5.5h-0.6l0.1-6.3H343L343.1,678.2z"/>
	<path class="st0" d="M354.8,671.6c4.9,0,7.7,3.2,7.7,7.8c0,0.3,0,0.7-0.1,1h-12.6c0.1,5.3,3,9,7.4,9c1.8,0.1,3.6-0.6,4.9-1.9v0.7
		c-1.2,1.8-3.8,3.1-7,3.1c-5.4,0-9.3-3.9-9.3-9.8C345.9,675.7,349.4,671.6,354.8,671.6z M349.8,679.6l9-0.1c0-0.2,0-0.5,0-0.9
		c0-3.5-1.3-6.2-4.1-6.2C351.8,672.5,349.9,675.1,349.8,679.6L349.8,679.6z"/>
	<path class="st0" d="M377.3,686.7l6-14.8h6v0.7c-2,0.3-2.3,0.6-2.3,2l0.4,13.6c0,1.3,0.4,1.7,2.4,2v0.7h-8.4v-0.7
		c2-0.3,2.3-0.7,2.3-2l-0.4-13.8l-6.7,16.5h-1.3l-6.8-16.5l-0.1,13.4c0,1.6,0.2,2.1,2.3,2.4v0.7H365v-0.7c2-0.3,2.2-0.8,2.3-2.5
		l0.4-12.5c0.1-1.7-0.3-2.3-2.3-2.6v-0.7h6L377.3,686.7z"/>
	<path class="st0" d="M401.2,690.8H392v-0.7c2-0.3,2.4-0.7,2.4-2v-13.6c0-1.3-0.3-1.7-2.4-2v-0.7h8.8v0.7c-2.3,0.3-2.6,0.6-2.6,2.1
		v4.7h2.7c6,0,8.5,2,8.5,5.5S406.1,690.8,401.2,690.8z M398.2,680.3v9.7l2.2-0.1c3.1-0.1,5.1-1.8,5.1-4.7s-1.6-4.8-5.1-4.9
		L398.2,680.3z M416.5,688.4c0,1.1,0.3,1.4,2.5,1.7v0.7h-8.9v-0.7c2.1-0.3,2.5-0.6,2.5-1.7v-14.2c0-1.1-0.3-1.4-2.5-1.7v-0.7h8.8
		v0.7c-2.2,0.2-2.5,0.6-2.5,1.7L416.5,688.4z"/>
	<path class="st0" d="M438.5,690.1v0.7h-8.4v-0.7c2-0.3,2.4-0.7,2.4-2v-13.6c0-1.3-0.3-1.7-2.4-2v-0.7h8.4v0.7
		c-2,0.3-2.2,0.6-2.2,1.8v6.3h2.3l4.1-5.2c1.6-1.9,1.5-2.6-0.7-3v-0.7h6.9v0.7c-2,0.4-2.8,0.9-5.5,3.7l-2.3,2.5l5,7.6
		c1.8,2.8,2.6,3.5,3.9,3.8v0.6h-5.4l-5.9-9.2h-2.4v6.7C436.3,689.5,436.5,689.8,438.5,690.1z"/>
	<path class="st0" d="M451,681.4c-0.2-5.3,3.9-9.7,9.2-9.8c0.2,0,0.4,0,0.5,0c5.2-0.2,9.5,3.9,9.6,9.1c0,0.2,0,0.5,0,0.7
		c0.2,5.3-4,9.7-9.2,9.8c-0.2,0-0.3,0-0.5,0c-5.2,0.2-9.5-3.9-9.6-9.1C451,681.9,451,681.6,451,681.4z M466.1,681.5
		c0-5.4-2.2-9-5.5-9s-5.4,3.4-5.4,8.7c0,5.4,2.2,9,5.5,9S466.1,686.8,466.1,681.5L466.1,681.5z"/>
	<path class="st0" d="M481.6,690.1v0.7h-8.4v-0.7c2-0.3,2.4-0.7,2.4-2v-13.6c0-1.3-0.3-1.7-2.4-2v-0.7h8.4v0.7
		c-2,0.3-2.2,0.6-2.2,1.8v6.3h8.7v-6.3c0-1.3-0.2-1.6-2.2-1.8v-0.7h8.4v0.7c-2.1,0.3-2.4,0.6-2.4,2v13.6c0,1.3,0.3,1.7,2.4,2v0.7
		h-8.4v-0.7c2-0.3,2.2-0.6,2.2-1.9v-6.7h-8.7v6.7C479.4,689.5,479.6,689.8,481.6,690.1z"/>
	<path class="st0" d="M514,678.2h-0.6c-1.3-4.6-1.8-5.3-5.1-5.5H507V688c0,1.5,0.3,1.8,2.6,2.2v0.7h-9v-0.7c2.3-0.3,2.6-0.7,2.6-2.2
		v-15.3h-1.2c-3.3,0.2-3.8,0.9-5.1,5.5h-0.6l0.1-6.3h17.5L514,678.2z"/>
	<path class="st0" d="M527.2,691.2c-2,0.1-3.9-0.8-5-2.4v8.3c0,1.5,0.3,1.8,2.6,2.2v0.7H516v-0.7c2.1-0.3,2.3-0.6,2.3-1.9v-22.7
		c0-1.3-0.3-1.7-2.3-2v-0.7l6.2-0.2v3.5c1.3-2.3,3.7-3.7,6.3-3.6c4.1,0,7.9,3.4,7.9,9.6C536.3,687.2,532.3,691.2,527.2,691.2z
		 M526.7,673.3c-1.8-0.1-3.6,0.8-4.5,2.5v12c0.9,1.4,2.4,2.3,4.1,2.2c3.7,0,6-3.4,6-8.4C532.3,676.5,530,673.3,526.7,673.3z"/>
	<path class="st0" d="M539.7,681.4c-0.2-5.3,3.9-9.7,9.2-9.8c0.2,0,0.4,0,0.5,0c5.2-0.2,9.5,3.9,9.6,9.1c0,0.2,0,0.5,0,0.7
		c0.2,5.3-4,9.7-9.2,9.8c-0.2,0-0.3,0-0.5,0c-5.2,0.2-9.5-3.9-9.6-9.1C539.7,681.9,539.7,681.6,539.7,681.4z M554.8,681.5
		c0-5.4-2.2-9-5.5-9s-5.4,3.4-5.4,8.7c0,5.4,2.2,9,5.5,9S554.8,686.8,554.8,681.5z"/>
	<path class="st0" d="M562.3,686.6c1,0,1.8,0.6,2.1,1.6c0.9-2,1.2-5.5,1.3-10.8l0.1-2.5c0-1.6-0.5-2.1-2.8-2.3v-0.7h16.7v0.7
		c-2.1,0.3-2.4,0.6-2.4,2v13.6c0,1.3,0.3,1.7,2.4,2v0.7h-8.4v-0.7c2-0.3,2.2-0.6,2.2-1.9v-15.5h-6.5l-0.2,4.8
		c-0.3,9-1.2,13.6-4.4,13.6c-1.2,0.1-2.3-0.8-2.4-2.1c-0.1-1.2,0.8-2.3,2.1-2.4C562.1,686.6,562.2,686.6,562.3,686.6L562.3,686.6z"
		/>
	<path class="st0" d="M591.1,671.9h9.3v0.7c-2,0.3-2.3,0.6-2.3,2v13.6c0,1.3,0.3,1.7,2.3,2v0.7H592v-0.7c2-0.3,2.2-0.6,2.2-1.9v-5.8
		h-2.5l-5.7,8.4h-4.7v-0.6c1.1-0.3,1.9-1,4.1-4.2l2.6-3.8c-2.9-0.4-4.9-2.1-4.9-4.9C583.1,673.9,586.2,671.9,591.1,671.9z
		 M592.1,681.6h2.1v-9l-2.2,0.1c-2.9,0.1-4.9,1.5-4.9,4.4S588.7,681.6,592.1,681.6L592.1,681.6z"/>
	<path class="st0" d="M621.2,690.8h-9.7v-0.7c2-0.3,2.4-0.7,2.4-2v-13.6c0-1.3-0.3-1.7-2.4-2v-0.7h9.8c4.8,0,7.2,1.7,7.2,4.3
		s-2.5,4-5.9,4.6c4.1,0.2,6.9,1.7,6.9,4.8S626.2,690.8,621.2,690.8z M620.4,672.8l-2.7-0.1v7.9h2.5c3-0.1,4.4-1.6,4.4-3.9
		S623.2,672.8,620.4,672.8L620.4,672.8z M620.2,681.4h-2.5v8.6l2.5-0.1c3.2-0.1,5.2-1.7,5.2-4.3
		C625.5,682.6,623.4,681.4,620.2,681.4L620.2,681.4z"/>
	<path class="st0" d="M641.4,671.6c4.9,0,7.7,3.2,7.7,7.8c0,0.3,0,0.7-0.1,1h-12.6c0.1,5.3,3,9,7.4,9c1.8,0.1,3.6-0.6,4.9-1.9v0.7
		c-1.2,1.8-3.8,3.1-7,3.1c-5.4,0-9.3-3.9-9.3-9.8C632.5,675.7,635.9,671.6,641.4,671.6z M636.4,679.6l9-0.1c0-0.2,0-0.5,0-0.9
		c0-3.5-1.3-6.2-4.1-6.2C638.3,672.5,636.5,675.1,636.4,679.6L636.4,679.6z"/>
	<path class="st0" d="M662.8,691.2c-2,0.1-3.9-0.8-5-2.4v8.3c0,1.5,0.3,1.8,2.6,2.2v0.7h-8.8v-0.7c2.1-0.3,2.3-0.6,2.3-1.9v-22.7
		c0-1.3-0.3-1.7-2.3-2v-0.7l6.2-0.2v3.5c1.3-2.3,3.7-3.7,6.3-3.6c4.1,0,7.9,3.4,7.9,9.6C671.9,687.2,668,691.2,662.8,691.2z
		 M662.3,673.3c-1.8-0.1-3.6,0.8-4.5,2.5v12c0.9,1.5,2.4,2.3,4.1,2.2c3.7,0,6-3.4,6-8.4C667.9,676.5,665.6,673.3,662.3,673.3
		L662.3,673.3z"/>
	<path class="st0" d="M675.3,681.3c-0.2-5.2,3.9-9.6,9.1-9.8c0.2,0,0.4,0,0.5,0c4.2,0,6.2,2,6.2,4.3c0,1.1-0.8,2-1.9,2.1
		c0,0-0.1,0-0.1,0c-1.1,0-2-0.9-2-2c0-1.1,0.9-2,1.9-2c0.1,0,0.2,0,0.4,0c-1-0.9-2.3-1.3-3.6-1.2c-4,0-6.5,3.2-6.5,7.9
		c0,5.5,3.2,8.8,7.2,8.8c1.8,0.1,3.6-0.6,4.9-1.9v0.7c-1.2,1.8-3.8,3.1-6.9,3.1C679.2,691.2,675.3,687.2,675.3,681.3z"/>
	<path class="st0" d="M702.1,690.1v0.7h-8.4v-0.7c2-0.3,2.4-0.7,2.4-2v-13.6c0-1.3-0.3-1.7-2.4-2v-0.7h8.4v0.7
		c-2,0.3-2.2,0.6-2.2,1.8v11.9l8.8-11.2v-0.7c0-1.3-0.3-1.6-2.2-1.8v-0.7h8.5v0.7c-2.1,0.3-2.4,0.6-2.4,2v13.6c0,1.3,0.3,1.7,2.4,2
		v0.7h-8.4v-0.7c2-0.3,2.2-0.6,2.2-1.9v-11.9l-8.8,11.2v0.7C699.9,689.5,700.1,689.8,702.1,690.1z"/>
	<path class="st0" d="M725.7,690.1v0.7h-8.4v-0.7c2-0.3,2.4-0.7,2.4-2v-13.6c0-1.3-0.3-1.7-2.4-2v-0.7h8.4v0.7
		c-2,0.3-2.2,0.6-2.2,1.8v11.9l8.8-11.2v-0.7c0-1.3-0.2-1.6-2.2-1.8v-0.7h8.4v0.7c-2.1,0.3-2.4,0.6-2.4,2v13.6c0,1.3,0.3,1.7,2.4,2
		v0.7h-8.4v-0.7c2-0.3,2.2-0.6,2.2-1.9v-11.9l-8.8,11.2v0.7C723.5,689.5,723.7,689.8,725.7,690.1z M722.7,664.6
		c-0.1-1,0.7-1.9,1.7-2c0.1,0,0.1,0,0.2,0c1,0.1,1.7,0.9,1.7,1.9c-0.1,0.9-0.8,1.6-1.7,1.7c-0.3,0-0.5-0.1-0.7-0.2
		c1.7,2.2,4.8,2.7,7,1c0.4-0.3,0.7-0.6,1-1c-0.9,0.4-1.9,0-2.3-0.9c-0.4-0.9,0-1.9,0.9-2.3c0.2-0.1,0.5-0.1,0.7-0.1
		c1,0,1.8,0.8,1.9,1.8c0,0.1,0,0.1,0,0.2c0,2.1-1.8,4.3-5.2,4.3S722.7,666.7,722.7,664.6L722.7,664.6z"/>
</g>
<g class="st1">
	<path class="st0" d="M442.5,479.7v1.2h-15.9v-1.2c2.5-0.4,3-1.2,1.9-4.8l-1-3.2h-8.1l-1,3.1c-1.1,3.7-0.6,4.5,1.9,4.9v1.2h-8.2
		v-1.2c2-0.4,2.6-1.1,4-5l7.7-22h7.3l7.7,22.5C439.9,478.5,440.5,479.3,442.5,479.7z M426.9,469.9l-3.6-11.3l-3.5,11.3H426.9z"/>
</g>
<g class="st1">
	<path class="st0" d="M458.3,481.3c-2.8,0-5.1-1.3-5.9-3l-2.5,2.6h-5.7v-24.5c0-1.5-0.2-1.8-1.3-2.2l-0.8-0.3v-1.2l11-1.4l-0.1,13.2
		c0.9-2.5,3.2-3.9,6.4-3.9c4.6,0,8,3.7,8,10.2C467.4,477.9,463.2,481.3,458.3,481.3z M455.2,464.1c-1,0-1.8,0.6-2.1,1.3v12
		c0.3,0.6,1,1.2,2,1.2c1.9,0,3.2-2.3,3.2-7.2C458.3,466.5,457,464.1,455.2,464.1z"/>
	<path class="st0" d="M480.4,460.6c2.9,0,5.4,0.5,6.6,1.1l0.1,5.5h-1.2c-0.9-3-2.7-4.9-5.3-4.9c-2.1,0-3.1,0.9-3.1,2.1
		c0,1.2,0.9,1.9,2.9,2.5l1.8,0.6c4.1,1.3,6.2,3.4,6.2,6.9c0,4.5-4.2,7-10.8,7c-2.9,0-6-0.7-7.7-1.5l-0.2-5.9h1.2
		c0.8,3.3,3.3,5.9,6.4,5.9c2.1,0,3.2-0.9,3.2-2.1c0-1.2-0.9-2-2.8-2.6l-1.8-0.6c-3.8-1.2-6.3-3.2-6.3-6.7
		C469.6,463.4,473.4,460.6,480.4,460.6z"/>
	<path class="st0" d="M492.1,463.3h-2v-1.2l9.6-6.8h1.1v6.1l4.3-0.4v2.2l-4.3-0.4v11.8c0,2.4,1,3.4,2.5,3.4c0.8,0,1.5-0.3,1.9-0.7
		v1.2c-1,1.4-3.5,2.7-6.4,2.7c-3.9,0-6.8-2-6.8-6.7V463.3z"/>
</g>
<g class="st1">
	<path class="st0" d="M517.3,467.5c1.5-4.9,3.2-6.8,5.5-6.8c2.1,0,3.2,1.9,3.2,4.3c0,1.2-0.2,2.2-0.5,2.9c-0.7-0.3-2.2-0.6-3.7-0.6
		c-1.9,0-3.8,0.4-4.5,0.9l0,8.9c0,1.6,0.4,2.1,2.4,2.5v1.2h-13.4v-1.2c1.8-0.4,2.1-0.8,2.1-2.3v-11.6c0-1.5-0.2-1.8-1.3-2.2
		l-0.9-0.3v-1.2l10.9-1.4L517.3,467.5z"/>
</g>
<g class="st1">
	<path class="st0" d="M527.6,476.6c0-3,2.3-5.2,8.9-6.4l3.7-0.7v-2c0-3.5-1.6-4.9-4.6-4.9c-0.6,0-1.2,0.1-1.8,0.2
		c1.2,0.5,2.1,1.7,2.1,3.2c0,2-1.6,3.5-3.7,3.5c-2.1,0-3.7-1.4-3.7-3.4c0-2.9,3.5-5.5,10-5.5c6.7,0,10.4,2.3,10.4,7.3v8.8
		c0,1.5,0.7,2.2,1.7,2.2c0.3,0,0.5,0,0.7-0.1v1.2c-1,0.7-2.9,1.2-5,1.2c-2.7,0-5.5-1.2-5.9-3.6c-0.6,2.3-3.4,3.7-6.9,3.7
		C529.9,481.3,527.6,479.5,527.6,476.6z M538.2,478.2c1,0,1.8-0.5,2-1.4v-5.9l-0.7,0.1c-2.4,0.6-3.4,2.1-3.4,4.3
		C536.2,477.2,537.1,478.2,538.2,478.2z"/>
	<path class="st0" d="M552.8,471.1c0-6.3,5-10.4,11.8-10.4c5.2,0,8.5,2.4,8.5,5.8c0,2.2-1.7,3.8-3.7,3.8c-2.1,0-3.7-1.6-3.7-3.6
		c0-1.8,1.3-3.3,3.1-3.6c-0.5-0.2-1.1-0.3-1.6-0.3c-3.1,0-5.3,2.5-5.3,6.8c0,5.2,3.1,8.1,6.9,8.1c1.6,0,3.4-0.5,4.3-1.3v1.2
		c-1.7,2.3-5,3.7-8.8,3.7C558,481.3,552.8,477.6,552.8,471.1z"/>
	<path class="st0" d="M576.7,463.3h-2v-1.2l9.6-6.8h1.1v6.1l4.3-0.4v2.2l-4.3-0.4v11.8c0,2.4,1,3.4,2.5,3.4c0.8,0,1.5-0.3,1.9-0.7
		v1.2c-1,1.4-3.5,2.7-6.4,2.7c-3.9,0-6.8-2-6.8-6.7V463.3z"/>
</g>
<g>
	<polygon class="st2" points="537.7,354.6 525,354.6 525,295.5 465.9,295.5 465.9,282.8 537.7,282.8 	"/>
	<path class="st2" d="M490.9,303.9c-14.3,0-25.9,11.5-26,25.8c0,14.3,11.5,25.9,25.8,26c14.3,0,25.9-11.5,26-25.8c0,0,0-0.1,0-0.1
		C516.7,315.6,505.1,304,490.9,303.9z M490.7,343c-7.3,0-13.2-5.9-13.2-13.2s5.9-13.2,13.2-13.2s13.2,5.9,13.2,13.2
		C503.9,337.1,498,343,490.7,343C490.7,343,490.7,343,490.7,343z"/>
</g>
</svg>
