<?xml version="1.0" encoding="utf-8"?>
<!-- Generator: Adobe Illustrator 24.2.0, SVG Export Plug-In . SVG Version: 6.00 Build 0)  -->
<svg version="1.1" xmlns="http://www.w3.org/2000/svg" xmlns:xlink="http://www.w3.org/1999/xlink" x="0px" y="0px"
	 viewBox="0 0 1000 1000" style="enable-background:new 0 0 1000 1000;" xml:space="preserve">
<style type="text/css">
	.st0{fill:#113357;}
	.st1{fill-rule:evenodd;clip-rule:evenodd;fill:#FFFFFF;}
</style>
<g id="Слой_1">
	<path class="st0" d="M501.3,249.8c-55.6,0-69.5,13.9-69.5,69.5s13.9,69.5,69.5,69.5s69.5-13.9,69.5-69.5S556.9,249.8,501.3,249.8z"
		/>
	<g>
		<path class="st0" d="M420.2,479.7v1.2h-15.9v-1.2c2.5-0.4,3-1.2,1.9-4.8l-1-3.2h-8.1l-1,3.1c-1.1,3.7-0.6,4.5,1.9,4.9v1.2h-8.2
			v-1.2c2-0.4,2.6-1.1,4-5l7.7-22h7.3l7.7,22.5C417.5,478.5,418.2,479.3,420.2,479.7z M404.6,469.9l-3.6-11.3l-3.5,11.3H404.6z"/>
		<path class="st0" d="M431.8,464.6c0.8-2.3,3.4-4,7.1-4c3.3,0,5.7,1.4,6.3,4c0.8-2.3,3.5-4,7.2-4c4.1,0,6.6,2.2,6.6,6.4v10.4
			c0,1.5,0.4,1.9,2.1,2.3v1.2h-12.7v-1.2c1.4-0.3,1.7-0.7,1.7-2.2V467c0-2-0.9-2.9-2.4-2.9c-1.2,0-2.1,0.5-2.4,1.3
			c0.1,0.4,0.1,0.8,0.1,1.3v10.8c0,1.5,0.3,1.9,1.7,2.2v1.2h-12.2v-1.2c1.4-0.3,1.7-0.7,1.7-2.2V467c0-2-0.9-2.9-2.4-2.9
			c-1.1,0-2,0.6-2.4,1.4v12c0,1.5,0.3,1.9,1.7,2.2v1.2h-12.7v-1.2c1.8-0.4,2.1-0.8,2.1-2.3v-11.6c0-1.5-0.2-1.8-1.3-2.2l-0.9-0.3
			v-1.2l10.9-1.4V464.6z"/>
		<path class="st0" d="M478.7,481.4c-2.3,0-4.6-1-5.3-2.5v7.3c0,1.6,0.4,2.1,2.4,2.5v1.2h-13.4v-1.2c1.8-0.4,2.1-0.8,2.1-2.3v-20.6
			c0-1.5-0.2-1.8-1.3-2.2l-0.9-0.3v-1.2l10.9-1.4v3.9c0.8-2.3,3-3.9,6.3-3.9c4.6,0,8,3.8,8,10.1
			C487.7,477.8,483.5,481.4,478.7,481.4z M475.4,464.1c-1,0-1.7,0.6-2,1.4v12c0.3,0.6,1,1.2,2,1.2c2,0,3.2-2.6,3.2-7.2
			C478.6,466.9,477.4,464.1,475.4,464.1z"/>
		<path class="st0" d="M500.7,477.4c0,1.5,0.4,1.9,2.1,2.3v1.2h-13.1v-1.2c1.8-0.4,2.1-0.8,2.1-2.3v-21c0-1.5-0.2-1.8-1.3-2.2
			l-0.9-0.3v-1.2l11-1.4V477.4z"/>
		<path class="st0" d="M515.4,477.4c0,1.5,0.4,1.9,2.1,2.3v1.2h-13.1v-1.2c1.8-0.4,2.1-0.8,2.1-2.3v-11.6c0-1.5-0.2-1.8-1.3-2.2
			l-0.9-0.3v-1.2l11-1.4V477.4z M506.4,455.1c0-2.3,1.9-3.9,4.2-3.9c2.3,0,4.2,1.6,4.2,3.9c0,2.3-1.9,3.9-4.2,3.9
			C508.3,459,506.4,457.3,506.4,455.1z"/>
		<path class="st0" d="M521,463.3h-2v-1.2l9.6-6.8h1.1v6.1l4.3-0.4v2.2l-4.3-0.4v11.8c0,2.4,1,3.4,2.5,3.4c0.8,0,1.5-0.3,1.9-0.7
			v1.2c-1,1.4-3.5,2.7-6.4,2.7c-3.9,0-6.8-2-6.8-6.7V463.3z"/>
		<path class="st0" d="M545.9,474.8c0,2,0.9,3,2.4,3c1.1,0,2-0.5,2.3-1.3v-10.7c0-1.5-0.2-1.8-1.3-2.2l-0.9-0.3v-1.2l11-1.4v15.6
			c0,1.5,0.2,1.8,1.3,2.2l0.9,0.3v1.2l-10.9,1.2v-3.8c-0.9,2.4-3.5,4-7.1,4c-4,0-6.6-2.1-6.6-6.6v-9c0-1.5-0.2-1.8-1.3-2.2l-0.9-0.3
			v-1.2l11-1.4V474.8z"/>
		<path class="st0" d="M572.4,460.6c2.4,0,4.6,1,5.4,2.5v-6.7c0-1.5-0.2-1.8-1.3-2.2l-0.9-0.3v-1.2l11-1.2v24.9
			c0,1.5,0.2,1.8,1.3,2.2l0.9,0.3v1.2l-11,1.2v-3.8c-0.9,2.5-3.2,3.9-6.4,3.9c-4.6,0-7.9-3.7-7.9-10.2
			C563.5,464.1,567.6,460.6,572.4,460.6z M575.7,477.8c1,0,1.8-0.6,2.1-1.4v-12c-0.3-0.6-1-1.2-2-1.2c-1.9,0-3.2,2.3-3.2,7.2
			C572.6,475.4,573.9,477.8,575.7,477.8z"/>
		<path class="st0" d="M601.9,460.6c5.9,0,9.5,3.4,9.5,8.6c0,0.6-0.1,1.2-0.1,1.6h-11.7c0.8,4.7,3.7,7,7.3,7c1.7,0,3.2-0.6,4.2-1.5
			l0,1.2c-1.6,2.5-5,3.8-9.1,3.8c-6.2,0-11.4-3.8-11.4-10.3C590.6,464.8,595.2,460.6,601.9,460.6z M599.5,469.4l4.5-0.1
			c0-0.4,0-1,0-1.8c0-3.5-0.6-5.3-2-5.3c-1.7,0-2.5,2.1-2.5,5.7C599.4,468.4,599.5,468.9,599.5,469.4z"/>
	</g>
	<g>
		<path class="st0" d="M228.8,638.2l8.4-23.6h7v0.7c-2.2,0.3-2.7,0.8-2.6,2.5l0.7,21.9c0.1,1.8,0.4,2.2,2.7,2.5v0.7h-9.6v-0.7
			c2.3-0.3,2.7-0.7,2.7-2.4l-0.7-22l-8,21l-1.4,4.1h-1.5l-9.9-25.2l-0.3,20.3c-0.1,3.1,0.3,3.9,2.8,4.2v0.7h-7.3v-0.7
			c2.5-0.3,2.9-1.1,3.1-4.2l0.8-19.5c0.1-2.1-0.5-2.8-2.6-3.2v-0.7h6.8L228.8,638.2z"/>
		<path class="st0" d="M256.4,623.6c4.9,0,7.7,3.2,7.7,7.8c0,0.4,0,0.8-0.1,1h-12.6c0.1,5.3,3,9,7.4,9c2.2,0,3.9-0.8,4.9-1.9v0.7
			c-1.2,1.8-3.8,3.1-7,3.1c-5.4,0-9.3-3.9-9.3-9.8C247.5,627.7,251,623.6,256.4,623.6z M251.5,631.6l9-0.1c0-0.3,0-0.5,0-0.9
			c0-3.5-1.3-6.2-4.1-6.2C253.4,624.5,251.5,627.1,251.5,631.6z"/>
		<path class="st0" d="M284.6,630.2H284c-1.3-4.6-1.8-5.3-5.1-5.4l-1.2-0.1V640c0,1.5,0.3,1.8,2.6,2.1v0.7h-9v-0.7
			c2.3-0.3,2.6-0.6,2.6-2.1v-15.3l-1.2,0.1c-3.3,0.2-3.8,0.9-5.1,5.4h-0.6l0.1-6.3h17.5L284.6,630.2z"/>
		<path class="st0" d="M297.9,643.2c-2.4,0-4.2-1-5-2.4v8.2c0,1.5,0.3,1.8,2.6,2.1v0.7h-8.8v-0.7c2.1-0.3,2.3-0.6,2.3-1.9v-22.6
			c0-1.3-0.3-1.7-2.3-2v-0.7l6.2-0.2v3.5c1.1-2.1,3.5-3.6,6.3-3.6c4.1,0,7.9,3.4,7.9,9.6C307,639.2,303,643.2,297.9,643.2z
			 M297.3,625.3c-2.1,0-3.6,0.9-4.5,2.5v12c0.6,1.3,2.3,2.2,4.1,2.2c3.7,0,6-3.4,6-8.4C302.9,628.5,300.6,625.3,297.3,625.3z"/>
		<path class="st0" d="M318.2,642.1v0.7h-8.4v-0.7c2-0.3,2.4-0.6,2.4-2v-13.6c0-1.3-0.3-1.7-2.4-2v-0.7h8.4v0.7
			c-2,0.3-2.2,0.6-2.2,1.9v11.9l8.8-11.2v-0.7c0-1.3-0.3-1.6-2.2-1.9v-0.7h8.4v0.7c-2.1,0.3-2.4,0.6-2.4,2v13.6c0,1.3,0.3,1.7,2.4,2
			v0.7h-8.4v-0.7c2-0.3,2.2-0.6,2.2-1.9v-11.9l-8.8,11.2v0.7C316,641.5,316.3,641.8,318.2,642.1z"/>
		<path class="st0" d="M341.8,642.1v0.7h-8.4v-0.7c2-0.3,2.4-0.6,2.4-2v-13.6c0-1.3-0.3-1.7-2.4-2v-0.7h8.4v0.7
			c-2,0.3-2.2,0.6-2.2,1.9v6.3l2.3,0l4.1-5.2c1.6-1.9,1.5-2.6-0.7-3v-0.7h6.9v0.7c-2,0.4-2.8,0.9-5.5,3.7l-2.3,2.5l5,7.6
			c1.8,2.8,2.6,3.6,3.8,3.8v0.6h-5.4l-5.9-9.2l-2.4,0v6.7C339.6,641.5,339.8,641.8,341.8,642.1z"/>
		<path class="st0" d="M363,642.1v0.7h-8.4v-0.7c2-0.3,2.4-0.6,2.4-2v-13.6c0-1.3-0.3-1.7-2.4-2v-0.7h8.4v0.7
			c-2,0.3-2.2,0.6-2.2,1.9v11.9l8.8-11.2v-0.7c0-1.3-0.3-1.6-2.2-1.9v-0.7h8.4v0.7c-2.1,0.3-2.4,0.6-2.4,2v13.6c0,1.3,0.3,1.7,2.4,2
			v0.7h-8.4v-0.7c2-0.3,2.2-0.6,2.2-1.9v-11.9l-8.8,11.2v0.7C360.8,641.5,361,641.8,363,642.1z"/>
		<path class="st0" d="M386.3,631.1h38.9v1.3h-38.9V631.1z"/>
		<path class="st0" d="M437.1,638.6c1,0,1.8,0.7,2.1,1.6c0.9-2,1.2-5.5,1.3-10.8l0.1-2.5c0-1.6-0.5-2.1-2.8-2.3v-0.7h16.7v0.7
			c-2.1,0.3-2.4,0.6-2.4,2v13.6c0,1.3,0.3,1.7,2.4,2v0.7h-8.4v-0.7c2-0.3,2.2-0.6,2.2-1.9v-15.5h-6.5l-0.2,4.8
			c-0.3,9-1.2,13.6-4.4,13.6c-1.4,0-2.3-0.9-2.3-2.3C434.9,639.6,435.8,638.6,437.1,638.6z"/>
		<path class="st0" d="M455.6,624.6v-0.7h9.1v0.7c-2.3,0.3-2.7,0.9-1.7,3.4l3.8,10.2l3.7-10.1c1-2.7,0.6-3.2-1.7-3.6v-0.7h6.3v0.7
			c-1.7,0.3-2.2,0.8-3.4,3.8l-4.2,10.4l-1.7,4.1l-3.1,8.9h-3.2v-0.1c1.7-2,4-5.9,5.4-8.9l-6.2-15.2
			C457.7,625.3,457.2,624.9,455.6,624.6z"/>
		<path class="st0" d="M478,626.3c0-1.2-0.4-1.6-2.5-1.8v-0.7h8.8v0.7c-2.1,0.2-2.4,0.5-2.4,1.7v3c0,3.3,1.4,4.7,4.1,4.7
			c1.4,0,3-0.4,3.9-0.9v-6.9c0-1.2-0.3-1.5-2.5-1.7v-0.7h8.9v0.7c-2.2,0.2-2.5,0.5-2.5,1.8v14c0,1.2,0.4,1.5,2.5,1.8v0.7H487v-0.7
			c2.5-0.2,2.9-0.5,2.9-1.8v-6.5c-1.3,0.8-3.4,1.4-5.5,1.4c-3.8,0-6.4-1.9-6.4-6.1V626.3z"/>
		<path class="st0" d="M530.5,642.1v0.7h-31.9v-0.7c2-0.3,2.4-0.6,2.4-2v-13.6c0-1.3-0.3-1.7-2.4-2v-0.7h8.4v0.7
			c-2,0.3-2.2,0.6-2.2,1.9V642h7.8v-15.5c0-1.3-0.2-1.6-2.2-1.9v-0.7h8.3v0.7c-2,0.3-2.2,0.6-2.2,1.9V642h7.8v-15.5
			c0-1.3-0.2-1.6-2.2-1.9v-0.7h8.4v0.7c-2,0.3-2.4,0.6-2.4,2v13.6C528.1,641.5,528.5,641.8,530.5,642.1z"/>
		<path class="st0" d="M541.2,642.1v0.7h-8.4v-0.7c2-0.3,2.4-0.6,2.4-2v-13.6c0-1.3-0.3-1.7-2.4-2v-0.7h8.4v0.7
			c-2,0.3-2.2,0.6-2.2,1.9v11.9l8.8-11.2v-0.7c0-1.3-0.3-1.6-2.2-1.9v-0.7h8.4v0.7c-2.1,0.3-2.4,0.6-2.4,2v13.6c0,1.3,0.3,1.7,2.4,2
			v0.7h-8.4v-0.7c2-0.3,2.2-0.6,2.2-1.9v-11.9l-8.8,11.2v0.7C539,641.5,539.2,641.8,541.2,642.1z"/>
		<path class="st0" d="M564.8,642.1v0.7h-8.4v-0.7c2-0.3,2.4-0.6,2.4-2v-13.6c0-1.3-0.3-1.7-2.4-2v-0.7h8.4v0.7
			c-2,0.3-2.2,0.6-2.2,1.9v11.9l8.8-11.2v-0.7c0-1.3-0.3-1.6-2.2-1.9v-0.7h8.4v0.7c-2.1,0.3-2.4,0.6-2.4,2v13.6c0,1.3,0.3,1.7,2.4,2
			v0.7h-8.4v-0.7c2-0.3,2.2-0.6,2.2-1.9v-11.9l-8.8,11.2v0.7C562.6,641.5,562.8,641.8,564.8,642.1z M561.8,616.6c0-1.2,0.8-2,1.9-2
			s1.8,0.8,1.8,1.8c0,1-0.8,1.8-1.7,1.8c-0.3,0-0.5-0.1-0.7-0.2c0.6,1.1,2,2,4,2s3.3-0.9,4-2c-0.2,0.1-0.5,0.2-0.7,0.2
			c-0.9,0-1.7-0.8-1.7-1.8c0-1,0.7-1.8,1.8-1.8s1.9,0.8,1.9,2c0,2.1-1.8,4.3-5.2,4.3S561.8,618.7,561.8,616.6z"/>
		<path class="st0" d="M609.7,642.1v0.7h-8.4v-0.7c2-0.3,2.2-0.6,2.2-1.9v-15.5H595v15.5c0,1.3,0.2,1.6,2.2,1.9v0.7h-8.4v-0.7
			c2-0.3,2.4-0.6,2.4-2v-13.6c0-1.3-0.3-1.7-2.4-2v-0.7h20.9v0.7c-2.1,0.3-2.4,0.6-2.4,2v13.6C607.3,641.5,607.5,641.8,609.7,642.1z
			"/>
		<path class="st0" d="M612.5,633.4c0-5.8,4.3-9.8,9.7-9.8c5.4,0,9.6,3.8,9.6,9.7c0,5.8-4.3,9.8-9.7,9.8
			C616.8,643.2,612.5,639.3,612.5,633.4z M627.6,633.5c0-5.4-2.2-9-5.5-9c-3.4,0-5.4,3.4-5.4,8.7c0,5.4,2.2,9,5.5,9
			C625.6,642.2,627.6,638.8,627.6,633.5z"/>
		<path class="st0" d="M643.1,642.1v0.7h-8.4v-0.7c2-0.3,2.4-0.6,2.4-2v-13.6c0-1.3-0.3-1.7-2.4-2v-0.7h8.4v0.7
			c-2,0.3-2.2,0.6-2.2,1.9v6.3l2.3,0l4.1-5.2c1.6-1.9,1.5-2.6-0.7-3v-0.7h6.9v0.7c-2,0.4-2.8,0.9-5.5,3.7l-2.3,2.5l5,7.6
			c1.8,2.8,2.6,3.6,3.8,3.8v0.6h-5.4l-5.9-9.2l-2.4,0v6.7C640.9,641.5,641.1,641.8,643.1,642.1z"/>
		<path class="st0" d="M656.3,638.5c0-2.9,2.1-4.6,7.4-5.8l4-0.9v-2.1c0-3.7-1.9-5.1-4.8-5.1c-1.5,0-2.9,0.4-3.9,1.2h0.1
			c1,0,1.9,0.9,1.9,2c0,1.1-0.9,2-2.1,2c-1.1,0-2-0.9-2-2c0-2.4,3.2-4.2,7.4-4.2c4.3,0,7.2,1.8,7.2,5.8v10c0,1.7,0.9,2.4,2.1,2.4
			c0.3,0,0.6-0.1,0.9-0.1v0.6c-0.6,0.4-1.7,0.8-3,0.8c-1.9,0-3.3-1-3.7-2.8c-0.9,1.6-3.2,2.9-6,2.9
			C658.7,643.2,656.3,641.3,656.3,638.5z M663.9,641.5c1.7,0,3-0.6,3.8-1.9v-7l-2.1,0.5c-4.1,0.9-5.4,2.4-5.4,4.7
			S661.8,641.5,663.9,641.5z"/>
		<path class="st0" d="M687,637.7c0-2.9-1.7-4.2-4.8-4.2h-1.9v-0.8h1.9c2.9,0,4.3-1.7,4.3-4.2c0-2.4-1.3-3.9-3.8-3.9
			c-2.6,0-4.4,1.8-5.2,5.3h-0.6l0.2-4.7c1.1-0.8,3-1.5,5.8-1.5c4.9,0,7.4,1.7,7.4,4.5c0,2.6-2.3,4.2-5.4,4.8
			c3.5,0.3,6.1,1.8,6.1,4.7c0,3.3-3.7,5.6-8.2,5.6c-2.8,0-4.9-0.7-6.2-1.6l-0.2-4.7h0.6c0.9,3.7,3,5.4,5.6,5.4S687,640.4,687,637.7z
			"/>
		<path class="st0" d="M694.1,638.5c0-2.9,2.1-4.6,7.4-5.8l4-0.9v-2.1c0-3.7-1.9-5.1-4.8-5.1c-1.5,0-2.9,0.4-3.9,1.2h0.1
			c1,0,1.9,0.9,1.9,2c0,1.1-0.9,2-2.1,2c-1.1,0-2-0.9-2-2c0-2.4,3.2-4.2,7.4-4.2c4.3,0,7.2,1.8,7.2,5.8v10c0,1.7,0.9,2.4,2.1,2.4
			c0.3,0,0.6-0.1,0.9-0.1v0.6c-0.6,0.4-1.7,0.8-3,0.8c-1.9,0-3.3-1-3.7-2.8c-0.9,1.6-3.2,2.9-6,2.9
			C696.4,643.2,694.1,641.3,694.1,638.5z M701.7,641.5c1.7,0,3-0.6,3.8-1.9v-7l-2.1,0.5c-4.1,0.9-5.4,2.4-5.4,4.7
			S699.6,641.5,701.7,641.5z"/>
		<path class="st0" d="M730.3,630.2h-0.6c-1.3-4.6-1.8-5.3-5.1-5.4l-1.2-0.1V640c0,1.5,0.3,1.8,2.6,2.1v0.7h-9v-0.7
			c2.3-0.3,2.6-0.6,2.6-2.1v-15.3l-1.2,0.1c-3.3,0.2-3.8,0.9-5.1,5.4h-0.6l0.1-6.3h17.5L730.3,630.2z"/>
		<path class="st0" d="M741.9,623.6c4.9,0,7.7,3.2,7.7,7.8c0,0.4,0,0.8-0.1,1H737c0.1,5.3,3,9,7.4,9c2.2,0,3.9-0.8,4.9-1.9v0.7
			c-1.2,1.8-3.8,3.1-7,3.1c-5.4,0-9.3-3.9-9.3-9.8C733.1,627.7,736.5,623.6,741.9,623.6z M737,631.6l9-0.1c0-0.3,0-0.5,0-0.9
			c0-3.5-1.3-6.2-4.1-6.2C738.9,624.5,737.1,627.1,737,631.6z"/>
		<path class="st0" d="M753.2,638.6c1,0,1.8,0.7,2.1,1.6c0.9-2,1.2-5.5,1.3-10.8l0.1-2.5c0-1.6-0.5-2.1-2.8-2.3v-0.7h16.7v0.7
			c-2.1,0.3-2.4,0.6-2.4,2v13.6c0,1.3,0.3,1.7,2.4,2v0.7h-8.4v-0.7c2-0.3,2.2-0.6,2.2-1.9v-15.5h-6.5l-0.2,4.8
			c-0.3,9-1.2,13.6-4.4,13.6c-1.4,0-2.3-0.9-2.3-2.3C750.9,639.6,751.8,638.6,753.2,638.6z"/>
		<path class="st0" d="M782.1,642.8h-9.3v-0.7c2-0.3,2.4-0.6,2.4-2v-13.6c0-1.3-0.3-1.7-2.4-2v-0.7h8.8v0.7
			c-2.3,0.3-2.6,0.6-2.6,2.1v4.7h2.7c6,0,8.5,2,8.5,5.5C790.3,640.5,787,642.8,782.1,642.8z M779.1,632.3v9.7l2.2-0.1
			c3.1-0.1,5.1-1.8,5.1-4.7c0-2.9-1.6-4.8-5.1-4.9L779.1,632.3z"/>
		<path class="st0" d="M281.2,681.5L281.2,681.5l-7.6,0.2v-1.2l7.6,0.2c-0.2-4.7-2.1-8.1-5.7-8.1c-2.8,0-4.6,1.8-5.4,5.2h-0.6
			l0.2-4.7c1.1-0.8,3-1.5,6-1.5c5.7,0,9.8,3.8,9.8,9.8c0,5.5-4.4,9.8-9.7,9.8c-2.9,0-5.1-0.7-6.3-1.5l-0.3-4.7h0.6
			c0.9,3.7,3,5.3,5.8,5.3C279.2,690.2,281.2,686.9,281.2,681.5z"/>
		<path class="st0" d="M299.8,671.7v-6.4c0-1.3-0.3-1.7-2.3-2v-0.7l6-0.2v9.3c7,0.5,11.1,4.2,11.1,9.5c0,5.8-4.4,9.4-11.1,9.9v5.9
			c0,1.5,0.3,1.8,2.6,2.1v0.7h-8.9v-0.7c2.3-0.3,2.6-0.6,2.6-2.1v-5.9c-7-0.5-11-4.2-11-9.5C288.8,675.8,293.2,672.2,299.8,671.7z
			 M299.8,690.1v-17.6c-4.5,0.6-7,3.6-7,8.8C292.8,685.5,295.1,689.4,299.8,690.1z M303.5,672.6v17.6c4.5-0.6,7-4.2,7-8.8
			C310.5,676.7,308.2,673.2,303.5,672.6z"/>
		<path class="st0" d="M329,671.7v-6.4c0-1.3-0.3-1.7-2.3-2v-0.7l6-0.2v9.3c7,0.5,11.1,4.2,11.1,9.5c0,5.8-4.4,9.4-11.1,9.9v5.9
			c0,1.5,0.3,1.8,2.6,2.1v0.7h-8.9v-0.7c2.3-0.3,2.6-0.6,2.6-2.1v-5.9c-7-0.5-11-4.2-11-9.5C317.9,675.8,322.3,672.2,329,671.7z
			 M329,690.1v-17.6c-4.5,0.6-7,3.6-7,8.8C322,685.5,324.3,689.4,329,690.1z M332.7,672.6v17.6c4.5-0.6,7-4.2,7-8.8
			C339.7,676.7,337.4,673.2,332.7,672.6z"/>
		<path class="st0" d="M356,671.6c4.9,0,7.7,3.2,7.7,7.8c0,0.4,0,0.8-0.1,1H351c0.1,5.3,3,9,7.4,9c2.2,0,3.9-0.8,4.9-1.9v0.7
			c-1.2,1.8-3.8,3.1-7,3.1c-5.4,0-9.3-3.9-9.3-9.8C347.1,675.7,350.6,671.6,356,671.6z M351,679.6l9-0.1c0-0.3,0-0.5,0-0.9
			c0-3.5-1.3-6.2-4.1-6.2C353,672.5,351.1,675.1,351,679.6z"/>
		<path class="st0" d="M374.9,690.1v0.7h-8.4v-0.7c2-0.3,2.4-0.6,2.4-2v-13.6c0-1.3-0.3-1.7-2.4-2v-0.7h8.4v0.7
			c-2,0.3-2.2,0.6-2.2,1.9v6.3l2.3,0l4.1-5.2c1.6-1.9,1.5-2.6-0.7-3v-0.7h6.9v0.7c-2,0.4-2.8,0.9-5.5,3.7l-2.3,2.5l5,7.6
			c1.8,2.8,2.6,3.6,3.8,3.8v0.6h-5.4l-5.9-9.2l-2.4,0v6.7C372.6,689.5,372.9,689.8,374.9,690.1z"/>
		<path class="st0" d="M405.4,678.2h-0.6c-1.3-4.6-1.8-5.3-5.1-5.4l-1.2-0.1V688c0,1.5,0.3,1.8,2.6,2.1v0.7h-9v-0.7
			c2.3-0.3,2.6-0.6,2.6-2.1v-15.3l-1.2,0.1c-3.3,0.2-3.8,0.9-5.1,5.4h-0.6l0.1-6.3h17.5L405.4,678.2z"/>
		<path class="st0" d="M416,690.1v0.7h-8.4v-0.7c2-0.3,2.4-0.6,2.4-2v-13.6c0-1.3-0.3-1.7-2.4-2v-0.7h8.4v0.7
			c-2,0.3-2.2,0.6-2.2,1.9v11.9l8.8-11.2v-0.7c0-1.3-0.3-1.6-2.2-1.9v-0.7h8.4v0.7c-2.1,0.3-2.4,0.6-2.4,2v13.6c0,1.3,0.3,1.7,2.4,2
			v0.7h-8.4v-0.7c2-0.3,2.2-0.6,2.2-1.9v-11.9l-8.8,11.2v0.7C413.8,689.5,414,689.8,416,690.1z"/>
		<path class="st0" d="M440.9,690.8h-9.7v-0.7c2-0.3,2.4-0.6,2.4-2v-13.6c0-1.3-0.3-1.7-2.4-2v-0.7h9.8c4.8,0,7.2,1.7,7.2,4.3
			c0,2.5-2.5,4-5.9,4.6c4.1,0.2,6.9,1.7,6.9,4.8S445.8,690.8,440.9,690.8z M440.1,672.8l-2.7-0.1v7.9l2.5,0c3-0.1,4.4-1.6,4.4-3.9
			C444.3,674.2,442.9,672.8,440.1,672.8z M439.9,681.4l-2.5,0v8.7l2.5-0.1c3.2-0.1,5.2-1.7,5.2-4.4
			C445.2,682.6,443.1,681.4,439.9,681.4z"/>
		<path class="st0" d="M460.1,690.1v0.7h-8.4v-0.7c2-0.3,2.4-0.6,2.4-2v-13.6c0-1.3-0.3-1.7-2.4-2v-0.7h8.4v0.7
			c-2,0.3-2.2,0.6-2.2,1.9v6.3h8.7v-6.3c0-1.3-0.3-1.6-2.2-1.9v-0.7h8.4v0.7c-2.1,0.3-2.4,0.6-2.4,2v13.6c0,1.3,0.3,1.7,2.4,2v0.7
			h-8.4v-0.7c2-0.3,2.2-0.6,2.2-1.9v-6.7h-8.7v6.7C457.8,689.5,458.1,689.8,460.1,690.1z"/>
		<path class="st0" d="M475.6,681.4c0-5.8,4.3-9.8,9.7-9.8c5.4,0,9.6,3.8,9.6,9.7c0,5.8-4.3,9.8-9.7,9.8
			C479.8,691.2,475.6,687.3,475.6,681.4z M490.7,681.5c0-5.4-2.2-9-5.5-9c-3.4,0-5.4,3.4-5.4,8.7c0,5.4,2.2,9,5.5,9
			C488.7,690.2,490.7,686.8,490.7,681.5z"/>
		<path class="st0" d="M498.3,681.3c0-5.6,4.1-9.8,9.7-9.8c4.2,0,6.2,2.1,6.2,4.3c0,1.2-0.9,2.1-2,2.1c-1.2,0-2-0.9-2-2
			c0-1.2,0.9-2,1.9-2c0.1,0,0.3,0,0.4,0c-0.8-0.8-2.1-1.2-3.6-1.2c-4,0-6.5,3.2-6.5,7.9c0,5.5,3.2,8.8,7.2,8.8
			c2.2,0,3.8-0.8,4.9-1.9v0.7c-1.2,1.8-3.8,3.1-6.9,3.1C502.2,691.2,498.3,687.2,498.3,681.3z"/>
		<path class="st0" d="M534.4,678.2h-0.6c-1.3-4.6-1.8-5.3-5.1-5.4l-1.2-0.1V688c0,1.5,0.3,1.8,2.6,2.1v0.7h-9v-0.7
			c2.3-0.3,2.6-0.6,2.6-2.1v-15.3l-1.2,0.1c-3.3,0.2-3.8,0.9-5.1,5.4h-0.6l0.1-6.3h17.5L534.4,678.2z"/>
		<path class="st0" d="M545.1,690.1v0.7h-8.4v-0.7c2-0.3,2.4-0.6,2.4-2v-13.6c0-1.3-0.3-1.7-2.4-2v-0.7h8.4v0.7
			c-2,0.3-2.2,0.6-2.2,1.9v11.9l8.8-11.2v-0.7c0-1.3-0.3-1.6-2.2-1.9v-0.7h8.4v0.7c-2.1,0.3-2.4,0.6-2.4,2v13.6c0,1.3,0.3,1.7,2.4,2
			v0.7h-8.4v-0.7c2-0.3,2.2-0.6,2.2-1.9v-11.9l-8.8,11.2v0.7C542.9,689.5,543.1,689.8,545.1,690.1z"/>
		<path class="st0" d="M580.1,691.2c-2.4,0-4.2-1-5-2.4v8.2c0,1.5,0.3,1.8,2.6,2.1v0.7h-8.8v-0.7c2.1-0.3,2.3-0.6,2.3-1.9v-22.6
			c0-1.3-0.3-1.7-2.3-2v-0.7l6.2-0.2v3.5c1.1-2.1,3.5-3.6,6.3-3.6c4.1,0,7.9,3.4,7.9,9.6C589.2,687.2,585.2,691.2,580.1,691.2z
			 M579.5,673.3c-2.1,0-3.6,0.9-4.5,2.5v12c0.6,1.3,2.3,2.2,4.1,2.2c3.7,0,6-3.4,6-8.4C585.1,676.5,582.8,673.3,579.5,673.3z"/>
		<path class="st0" d="M601.4,671.6c4.9,0,7.7,3.2,7.7,7.8c0,0.4,0,0.8-0.1,1h-12.6c0.1,5.3,3,9,7.4,9c2.2,0,3.9-0.8,4.9-1.9v0.7
			c-1.2,1.8-3.8,3.1-7,3.1c-5.4,0-9.3-3.9-9.3-9.8C592.6,675.7,596,671.6,601.4,671.6z M596.5,679.6l9-0.1c0-0.3,0-0.5,0-0.9
			c0-3.5-1.3-6.2-4.1-6.2C598.4,672.5,596.6,675.1,596.5,679.6z"/>
		<path class="st0" d="M643.8,690.1v0.7h-31.9v-0.7c2-0.3,2.4-0.6,2.4-2v-13.6c0-1.3-0.3-1.7-2.4-2v-0.7h8.4v0.7
			c-2,0.3-2.2,0.6-2.2,1.9V690h7.8v-15.5c0-1.3-0.2-1.6-2.2-1.9v-0.7h8.3v0.7c-2,0.3-2.2,0.6-2.2,1.9V690h7.8v-15.5
			c0-1.3-0.2-1.6-2.2-1.9v-0.7h8.4v0.7c-2,0.3-2.4,0.6-2.4,2v13.6C641.4,689.5,641.7,689.8,643.8,690.1z"/>
		<path class="st0" d="M655.5,671.6c4.9,0,7.7,3.2,7.7,7.8c0,0.4,0,0.8-0.1,1h-12.6c0.1,5.3,3,9,7.4,9c2.2,0,3.9-0.8,4.9-1.9v0.7
			c-1.2,1.8-3.8,3.1-7,3.1c-5.4,0-9.3-3.9-9.3-9.8C646.6,675.7,650,671.6,655.5,671.6z M650.5,679.6l9-0.1c0-0.3,0-0.5,0-0.9
			c0-3.5-1.3-6.2-4.1-6.2C652.4,672.5,650.6,675.1,650.5,679.6z"/>
		<path class="st0" d="M674.4,690.1v0.7h-8.4v-0.7c2-0.3,2.4-0.6,2.4-2v-13.6c0-1.3-0.3-1.7-2.4-2v-0.7h8.4v0.7
			c-2,0.3-2.2,0.6-2.2,1.9v6.3h8.7v-6.3c0-1.3-0.3-1.6-2.2-1.9v-0.7h8.4v0.7c-2.1,0.3-2.4,0.6-2.4,2v13.6c0,1.3,0.3,1.7,2.4,2v0.7
			h-8.4v-0.7c2-0.3,2.2-0.6,2.2-1.9v-6.7h-8.7v6.7C672.1,689.5,672.4,689.8,674.4,690.1z"/>
		<path class="st0" d="M697.8,690.1v0.7h-8.4v-0.7c2-0.3,2.4-0.6,2.4-2v-13.6c0-1.3-0.3-1.7-2.4-2v-0.7h8.4v0.7
			c-2,0.3-2.2,0.6-2.2,1.9v11.9l8.8-11.2v-0.7c0-1.3-0.3-1.6-2.2-1.9v-0.7h8.4v0.7c-2.1,0.3-2.4,0.6-2.4,2v13.6c0,1.3,0.3,1.7,2.4,2
			v0.7h-8.4v-0.7c2-0.3,2.2-0.6,2.2-1.9v-11.9l-8.8,11.2v0.7C695.5,689.5,695.8,689.8,697.8,690.1z"/>
		<path class="st0" d="M721.3,690.1v0.7h-8.4v-0.7c2-0.3,2.4-0.6,2.4-2v-13.6c0-1.3-0.3-1.7-2.4-2v-0.7h8.4v0.7
			c-2,0.3-2.2,0.6-2.2,1.9v11.9l8.8-11.2v-0.7c0-1.3-0.3-1.6-2.2-1.9v-0.7h8.4v0.7c-2.1,0.3-2.4,0.6-2.4,2v13.6c0,1.3,0.3,1.7,2.4,2
			v0.7h-8.4v-0.7c2-0.3,2.2-0.6,2.2-1.9v-11.9l-8.8,11.2v0.7C719.1,689.5,719.3,689.8,721.3,690.1z M718.4,664.6c0-1.2,0.8-2,1.9-2
			s1.8,0.8,1.8,1.8c0,1-0.8,1.8-1.7,1.8c-0.3,0-0.5-0.1-0.7-0.2c0.6,1.1,2,2,4,2s3.3-0.9,4-2c-0.2,0.1-0.5,0.2-0.7,0.2
			c-0.9,0-1.7-0.8-1.7-1.8c0-1,0.7-1.8,1.8-1.8s1.9,0.8,1.9,2c0,2.1-1.8,4.3-5.2,4.3S718.4,666.7,718.4,664.6z"/>
	</g>
</g>
<g id="Режим_изоляции">
	<path class="st1" d="M538.4,317.1C538.4,317.1,538.4,317.1,538.4,317.1L538.4,317.1c-0.2,0-0.4-0.1-0.5-0.1l-0.4,0
		c-8.9-0.6-18.1-0.9-26.7-1.1l0-0.1c-4.2-15.7-9.4-31.8-16.5-31.8c-6.6,0-12.5,10.6-17.6,31.4c-3.6,0-6.9-0.1-10-0.1
		c-0.2,0-0.3,0-0.5,0c-0.7,0-1,0-1.1,0c-1.8,0.3-3,1.8-3,3.6c0,1.8,1.4,3.4,3.1,3.7l0,0h9.8c-0.9,4.2-1.7,8.3-2.4,12.3l-0.3,1.7
		l0,0.1c0,1.3,1.1,2.4,2.5,2.4c0.9,0,1.6-0.4,2.1-1.1l0.1,0.1l4.8-15.4h23.2c1.8,6.7,3.6,13.6,6.1,20.1c1.3,3.5,4.3,11.6,9.4,11.7
		l0.1,0c7.9,0,11-12.7,13-21.2c0.4-1.8,0.8-3.4,1.2-4.5l0.1-0.5l0,0c0-0.1,0.1-0.2,0.1-0.4c0-0.7-0.5-1.2-1.2-1.2
		c-0.5,0-1,0.3-1.1,0.8l0,0l-0.2,0.5c-0.7,1.9-1.3,3.6-1.8,5.2l0,0.1c-3.4,9.7-5,14.1-8,14.1l-0.1,0l0,0l-0.1,0
		c-3.9,0-7.6-15.9-9-21.8c-0.2-1-0.5-2-0.7-2.8h25.2c0.5,0,0.9-0.1,1.3-0.3c0,0,0,0,0,0c0,0,0.1,0,0.1-0.1c0,0,0.1,0,0.1-0.1
		c0,0,0,0,0.1,0c0.1,0,0.1-0.1,0.2-0.1c0,0,0,0,0,0c0.6-0.5,1-1.3,1-2.2C540.7,318.5,539.7,317.4,538.4,317.1
		C538.4,317.1,538.4,317.1,538.4,317.1z M485.9,314.8l-2.8,0c3.1-12.2,6.9-21.5,9.7-23.7c0.2-0.1,0.5-0.2,0.8-0.2
		c0.4,0,0.7,0.2,1,0.6c0.7,1.1,2,3.7,3.8,9.3c1.3,3.9,2.7,8.7,4.1,14.3C497,315,491.3,314.9,485.9,314.8z"/>
</g>
</svg>
