<?xml version="1.0" encoding="utf-8"?>
<!-- Generator: Adobe Illustrator 24.2.0, SVG Export Plug-In . SVG Version: 6.00 Build 0)  -->
<svg version="1.1" xmlns="http://www.w3.org/2000/svg" xmlns:xlink="http://www.w3.org/1999/xlink" x="0px" y="0px"
	 viewBox="0 0 1000 1000" style="enable-background:new 0 0 1000 1000;" xml:space="preserve">
<style type="text/css">
	.st0{fill:#113357;}
	.st1{fill:#F9AB00;}
	.st2{fill:#E37400;}
</style>
<g id="Слой_1">
	<g>
		<path class="st0" d="M344.4,452.2c3.8,0,7.2,0.6,8.9,1.6l0.1,8.9h-1.2c-1-4.6-3.7-8.8-7.4-8.8c-4.5,0-7,5.2-7,13
			c0,6.9,2.2,12.9,6.3,12.9c1,0,1.9-0.3,2.3-0.7v-8.6c0-1.6-0.4-2.2-2.4-2.5v-1.2h13v1.2c-1.8,0.3-2.3,0.8-2.3,2.5v8.3
			c-2.5,1.7-6.8,2.6-11.1,2.6c-9.9,0-16.3-5.9-16.3-14.4C327.4,457.2,335,452.2,344.4,452.2z"/>
		<path class="st0" d="M358.5,471.1c0-6.2,5.1-10.4,12.1-10.4s12.1,3.9,12.1,10.3c0,6.2-5.1,10.5-12.2,10.5S358.5,477.4,358.5,471.1
			z M373.5,471.1c0-5.8-1-8.9-3-8.9c-2,0-2.8,3.1-2.8,8.6c0,5.8,1,8.9,3,8.9C372.7,479.7,373.5,476.6,373.5,471.1z"/>
		<path class="st0" d="M385,471.1c0-6.2,5.1-10.4,12.1-10.4s12.1,3.9,12.1,10.3c0,6.2-5.1,10.5-12.2,10.5S385,477.4,385,471.1z
			 M400,471.1c0-5.8-1-8.9-3-8.9c-2,0-2.8,3.1-2.8,8.6c0,5.8,1,8.9,3,8.9C399.2,479.7,400,476.6,400,471.1z"/>
		<path class="st0" d="M422.4,460.6c2.2,0,4.3,0.4,5.8,0.9l6.9-0.5v2.2l-5.4-0.5c2.2,0.7,3.7,2.4,3.7,4.3c0,3.8-4.5,6.1-10.7,6.1
			c-0.8,0-1.6-0.1-2.3-0.1c-1,0.2-1.7,0.7-1.7,1.5c0,1,1,1.5,3.2,1.5h3.2c6.4,0,9.5,2.6,9.5,6.7c0,4.5-5,7.6-12.1,7.6
			c-7.2,0-11.3-1.7-11.3-4.2c0-1.9,2.3-3.2,8.6-3.2c-4.9,0-8.1-1.9-8.1-4.9c0-2.9,2.7-5,7.7-5.4c-4.2-0.4-7.5-2.4-7.5-5.7
			C411.7,463.2,416,460.6,422.4,460.6z M422.4,488.8c2.8,0,4.6-1.2,4.6-3c0-1.5-1.1-2.5-3.6-2.5h-2.4c-1.7,0.1-2.8,1-2.8,2.6
			C418.3,487.6,419.9,488.8,422.4,488.8z M422.6,471.6c1.5,0,2.2-1.8,2.2-4.6c0-3-0.9-4.8-2.3-4.8c-1.5,0-2.2,1.8-2.2,4.6
			C420.3,469.8,421.2,471.6,422.6,471.6z"/>
		<path class="st0" d="M447.5,477.4c0,1.5,0.4,1.9,2.1,2.3v1.2h-13.1v-1.2c1.8-0.4,2.1-0.8,2.1-2.3v-21c0-1.5-0.2-1.8-1.3-2.2
			l-0.9-0.3v-1.2l11-1.4V477.4z"/>
		<path class="st0" d="M462.8,460.6c5.9,0,9.5,3.4,9.5,8.6c0,0.6-0.1,1.2-0.1,1.6h-11.7c0.8,4.7,3.7,7,7.3,7c1.7,0,3.2-0.6,4.2-1.5
			l0,1.2c-1.6,2.5-5,3.8-9.1,3.8c-6.2,0-11.4-3.8-11.4-10.3C451.5,464.8,456.1,460.6,462.8,460.6z M460.3,469.4l4.5-0.1
			c0-0.4,0-1,0-1.8c0-3.5-0.6-5.3-2-5.3c-1.7,0-2.5,2.1-2.5,5.7C460.3,468.4,460.3,468.9,460.3,469.4z"/>
		<path class="st0" d="M512.7,479.7v1.2h-15.9v-1.2c2.5-0.4,3-1.2,1.9-4.8l-1-3.2h-8.1l-1,3.1c-1.1,3.7-0.6,4.5,1.9,4.9v1.2h-8.2
			v-1.2c2-0.4,2.6-1.1,4-5l7.7-22h7.3l7.7,22.5C510.1,478.5,510.7,479.3,512.7,479.7z M497.1,469.9l-3.6-11.3l-3.5,11.3H497.1z"/>
		<path class="st0" d="M524.3,464.6c0.9-2.4,3.4-4,7.2-4c4.1,0,6.9,2.1,6.9,6.5v10.2c0,1.5,0.4,1.9,2.1,2.3v1.2h-12.7v-1.2
			c1.4-0.3,1.7-0.7,1.7-2.2v-10.4c0-2-1-3-2.7-3c-1.2,0-2.1,0.6-2.5,1.4v12c0,1.5,0.3,1.9,1.7,2.2v1.2h-12.7v-1.2
			c1.8-0.4,2.1-0.8,2.1-2.3v-11.6c0-1.5-0.2-1.8-1.3-2.2l-0.9-0.3v-1.2l10.9-1.4V464.6z"/>
		<path class="st0" d="M542.2,476.6c0-3,2.3-5.2,8.9-6.4l3.7-0.7v-2c0-3.5-1.6-4.9-4.6-4.9c-0.6,0-1.2,0.1-1.8,0.2
			c1.2,0.5,2.1,1.7,2.1,3.2c0,2-1.6,3.5-3.7,3.5c-2.1,0-3.7-1.4-3.7-3.4c0-2.9,3.5-5.5,10-5.5c6.7,0,10.4,2.3,10.4,7.3v8.8
			c0,1.5,0.7,2.2,1.7,2.2c0.3,0,0.5,0,0.7-0.1v1.2c-1,0.7-2.9,1.2-5,1.2c-2.7,0-5.5-1.2-5.9-3.6c-0.6,2.3-3.4,3.7-6.9,3.7
			C544.5,481.4,542.2,479.5,542.2,476.6z M552.8,478.2c1,0,1.8-0.5,2-1.4v-5.9l-0.7,0.1c-2.4,0.6-3.4,2.1-3.4,4.3
			C550.8,477.2,551.6,478.2,552.8,478.2z"/>
		<path class="st0" d="M578.1,477.4c0,1.5,0.4,1.9,2.1,2.3v1.2h-13.1v-1.2c1.8-0.4,2.1-0.8,2.1-2.3v-21c0-1.5-0.2-1.8-1.3-2.2
			l-0.9-0.3v-1.2l11-1.4V477.4z"/>
		<path class="st0" d="M579.8,462.3V461h14v1.3c-2.2,0.2-2.2,1-1.4,3.7l2.3,7.3l2.4-7.3c0.9-2.7,0.8-3.4-1.3-3.7V461h6.8v1.3
			c-1.5,0.3-2.1,0.9-3.3,3.8l-3.3,8l-3.5,8.1l-2.8,7.7h-6.2v-0.1c2.1-1.9,5-4.9,6.5-7l-7.4-17.2
			C581.7,463.1,581.2,462.6,579.8,462.3z"/>
		<path class="st0" d="M605.3,463.3h-2v-1.2l9.6-6.8h1.1v6.1l4.3-0.4v2.2l-4.3-0.4v11.8c0,2.4,1,3.4,2.5,3.4c0.8,0,1.5-0.3,1.9-0.7
			v1.2c-1,1.4-3.5,2.7-6.4,2.7c-3.9,0-6.8-2-6.8-6.7V463.3z"/>
		<path class="st0" d="M630.7,477.4c0,1.5,0.4,1.9,2.1,2.3v1.2h-13.1v-1.2c1.8-0.4,2.1-0.8,2.1-2.3v-11.6c0-1.5-0.2-1.8-1.3-2.2
			l-0.9-0.3v-1.2l11-1.4V477.4z M621.6,455.1c0-2.3,1.9-3.9,4.2-3.9c2.3,0,4.2,1.6,4.2,3.9c0,2.3-1.9,3.9-4.2,3.9
			C623.5,459,621.6,457.3,621.6,455.1z"/>
		<path class="st0" d="M634.6,471.1c0-6.3,5-10.4,11.8-10.4c5.2,0,8.5,2.4,8.5,5.8c0,2.2-1.7,3.8-3.7,3.8c-2.1,0-3.7-1.6-3.7-3.6
			c0-1.8,1.3-3.3,3.1-3.6c-0.5-0.2-1.1-0.3-1.6-0.3c-3.1,0-5.3,2.5-5.3,6.8c0,5.2,3.1,8.1,6.9,8.1c1.6,0,3.4-0.5,4.3-1.3v1.2
			c-1.7,2.3-5,3.7-8.8,3.7C639.8,481.4,634.6,477.6,634.6,471.1z"/>
		<path class="st0" d="M667.6,460.6c2.9,0,5.4,0.5,6.6,1.1l0.1,5.5h-1.2c-0.9-3-2.7-4.9-5.3-4.9c-2.1,0-3.1,0.9-3.1,2.1
			c0,1.2,0.9,1.9,2.9,2.5l1.8,0.6c4.1,1.3,6.2,3.4,6.2,6.9c0,4.5-4.2,7-10.8,7c-2.9,0-6-0.7-7.7-1.5l-0.2-5.9h1.2
			c0.8,3.3,3.3,5.9,6.4,5.9c2.1,0,3.2-0.9,3.2-2.1c0-1.2-0.9-2-2.8-2.6l-1.8-0.6c-3.8-1.2-6.3-3.2-6.3-6.7
			C656.8,463.4,660.6,460.6,667.6,460.6z"/>
	</g>
	<g>
		<path class="st0" d="M228.8,638.2l8.4-23.6h7v0.7c-2.2,0.3-2.7,0.8-2.6,2.5l0.7,21.9c0.1,1.8,0.4,2.2,2.7,2.5v0.7h-9.6v-0.7
			c2.3-0.3,2.7-0.7,2.7-2.4l-0.7-22l-8,21l-1.4,4.1h-1.5l-9.9-25.2l-0.3,20.3c-0.1,3.1,0.3,3.9,2.8,4.2v0.7h-7.3v-0.7
			c2.5-0.3,2.9-1.1,3.1-4.2l0.8-19.5c0.1-2.1-0.5-2.8-2.6-3.2v-0.7h6.8L228.8,638.2z"/>
		<path class="st0" d="M256.4,623.6c4.9,0,7.7,3.2,7.7,7.8c0,0.4,0,0.8-0.1,1h-12.6c0.1,5.3,3,9,7.4,9c2.2,0,3.9-0.8,4.9-1.9v0.7
			c-1.2,1.8-3.8,3.1-7,3.1c-5.4,0-9.3-3.9-9.3-9.8C247.5,627.7,251,623.6,256.4,623.6z M251.5,631.6l9-0.1c0-0.3,0-0.5,0-0.9
			c0-3.5-1.3-6.2-4.1-6.2C253.4,624.5,251.5,627.1,251.5,631.6z"/>
		<path class="st0" d="M284.6,630.2H284c-1.3-4.6-1.8-5.3-5.1-5.4l-1.2-0.1V640c0,1.5,0.3,1.8,2.6,2.1v0.7h-9v-0.7
			c2.3-0.3,2.6-0.6,2.6-2.1v-15.3l-1.2,0.1c-3.3,0.2-3.8,0.9-5.1,5.4h-0.6l0.1-6.3h17.5L284.6,630.2z"/>
		<path class="st0" d="M297.9,643.2c-2.4,0-4.2-1-5-2.4v8.2c0,1.5,0.3,1.8,2.6,2.1v0.7h-8.8v-0.7c2.1-0.3,2.3-0.6,2.3-1.9v-22.6
			c0-1.3-0.3-1.7-2.3-2v-0.7l6.2-0.2v3.5c1.1-2.1,3.5-3.6,6.3-3.6c4.1,0,7.9,3.4,7.9,9.6C307,639.2,303,643.2,297.9,643.2z
			 M297.3,625.3c-2.1,0-3.6,0.9-4.5,2.5v12c0.6,1.3,2.3,2.2,4.1,2.2c3.7,0,6-3.4,6-8.4C302.9,628.5,300.6,625.3,297.3,625.3z"/>
		<path class="st0" d="M318.2,642.1v0.7h-8.4v-0.7c2-0.3,2.4-0.6,2.4-2v-13.6c0-1.3-0.3-1.7-2.4-2v-0.7h8.4v0.7
			c-2,0.3-2.2,0.6-2.2,1.9v11.9l8.8-11.2v-0.7c0-1.3-0.3-1.6-2.2-1.9v-0.7h8.4v0.7c-2.1,0.3-2.4,0.6-2.4,2v13.6c0,1.3,0.3,1.7,2.4,2
			v0.7h-8.4v-0.7c2-0.3,2.2-0.6,2.2-1.9v-11.9l-8.8,11.2v0.7C316,641.5,316.3,641.8,318.2,642.1z"/>
		<path class="st0" d="M341.8,642.1v0.7h-8.4v-0.7c2-0.3,2.4-0.6,2.4-2v-13.6c0-1.3-0.3-1.7-2.4-2v-0.7h8.4v0.7
			c-2,0.3-2.2,0.6-2.2,1.9v6.3l2.3,0l4.1-5.2c1.6-1.9,1.5-2.6-0.7-3v-0.7h6.9v0.7c-2,0.4-2.8,0.9-5.5,3.7l-2.3,2.5l5,7.6
			c1.8,2.8,2.6,3.6,3.8,3.8v0.6h-5.4l-5.9-9.2l-2.4,0v6.7C339.6,641.5,339.8,641.8,341.8,642.1z"/>
		<path class="st0" d="M363,642.1v0.7h-8.4v-0.7c2-0.3,2.4-0.6,2.4-2v-13.6c0-1.3-0.3-1.7-2.4-2v-0.7h8.4v0.7
			c-2,0.3-2.2,0.6-2.2,1.9v11.9l8.8-11.2v-0.7c0-1.3-0.3-1.6-2.2-1.9v-0.7h8.4v0.7c-2.1,0.3-2.4,0.6-2.4,2v13.6c0,1.3,0.3,1.7,2.4,2
			v0.7h-8.4v-0.7c2-0.3,2.2-0.6,2.2-1.9v-11.9l-8.8,11.2v0.7C360.8,641.5,361,641.8,363,642.1z"/>
		<path class="st0" d="M386.3,631.1h38.9v1.3h-38.9V631.1z"/>
		<path class="st0" d="M437.1,638.6c1,0,1.8,0.7,2.1,1.6c0.9-2,1.2-5.5,1.3-10.8l0.1-2.5c0-1.6-0.5-2.1-2.8-2.3v-0.7h16.7v0.7
			c-2.1,0.3-2.4,0.6-2.4,2v13.6c0,1.3,0.3,1.7,2.4,2v0.7h-8.4v-0.7c2-0.3,2.2-0.6,2.2-1.9v-15.5h-6.5l-0.2,4.8
			c-0.3,9-1.2,13.6-4.4,13.6c-1.4,0-2.3-0.9-2.3-2.3C434.9,639.6,435.8,638.6,437.1,638.6z"/>
		<path class="st0" d="M455.6,624.6v-0.7h9.1v0.7c-2.3,0.3-2.7,0.9-1.7,3.4l3.8,10.2l3.7-10.1c1-2.7,0.6-3.2-1.7-3.6v-0.7h6.3v0.7
			c-1.7,0.3-2.2,0.8-3.4,3.8l-4.2,10.4l-1.7,4.1l-3.1,8.9h-3.2v-0.1c1.7-2,4-5.9,5.4-8.9l-6.2-15.2
			C457.7,625.3,457.2,624.9,455.6,624.6z"/>
		<path class="st0" d="M478,626.3c0-1.2-0.4-1.6-2.5-1.8v-0.7h8.8v0.7c-2.1,0.2-2.4,0.5-2.4,1.7v3c0,3.3,1.4,4.7,4.1,4.7
			c1.4,0,3-0.4,3.9-0.9v-6.9c0-1.2-0.3-1.5-2.5-1.7v-0.7h8.9v0.7c-2.2,0.2-2.5,0.5-2.5,1.8v14c0,1.2,0.4,1.5,2.5,1.8v0.7H487v-0.7
			c2.5-0.2,2.9-0.5,2.9-1.8v-6.5c-1.3,0.8-3.4,1.4-5.5,1.4c-3.8,0-6.4-1.9-6.4-6.1V626.3z"/>
		<path class="st0" d="M530.5,642.1v0.7h-31.9v-0.7c2-0.3,2.4-0.6,2.4-2v-13.6c0-1.3-0.3-1.7-2.4-2v-0.7h8.4v0.7
			c-2,0.3-2.2,0.6-2.2,1.9V642h7.8v-15.5c0-1.3-0.2-1.6-2.2-1.9v-0.7h8.3v0.7c-2,0.3-2.2,0.6-2.2,1.9V642h7.8v-15.5
			c0-1.3-0.2-1.6-2.2-1.9v-0.7h8.4v0.7c-2,0.3-2.4,0.6-2.4,2v13.6C528.1,641.5,528.5,641.8,530.5,642.1z"/>
		<path class="st0" d="M541.2,642.1v0.7h-8.4v-0.7c2-0.3,2.4-0.6,2.4-2v-13.6c0-1.3-0.3-1.7-2.4-2v-0.7h8.4v0.7
			c-2,0.3-2.2,0.6-2.2,1.9v11.9l8.8-11.2v-0.7c0-1.3-0.3-1.6-2.2-1.9v-0.7h8.4v0.7c-2.1,0.3-2.4,0.6-2.4,2v13.6c0,1.3,0.3,1.7,2.4,2
			v0.7h-8.4v-0.7c2-0.3,2.2-0.6,2.2-1.9v-11.9l-8.8,11.2v0.7C539,641.5,539.2,641.8,541.2,642.1z"/>
		<path class="st0" d="M564.8,642.1v0.7h-8.4v-0.7c2-0.3,2.4-0.6,2.4-2v-13.6c0-1.3-0.3-1.7-2.4-2v-0.7h8.4v0.7
			c-2,0.3-2.2,0.6-2.2,1.9v11.9l8.8-11.2v-0.7c0-1.3-0.3-1.6-2.2-1.9v-0.7h8.4v0.7c-2.1,0.3-2.4,0.6-2.4,2v13.6c0,1.3,0.3,1.7,2.4,2
			v0.7h-8.4v-0.7c2-0.3,2.2-0.6,2.2-1.9v-11.9l-8.8,11.2v0.7C562.6,641.5,562.8,641.8,564.8,642.1z M561.8,616.6c0-1.2,0.8-2,1.9-2
			s1.8,0.8,1.8,1.8c0,1-0.8,1.8-1.7,1.8c-0.3,0-0.5-0.1-0.7-0.2c0.6,1.1,2,2,4,2s3.3-0.9,4-2c-0.2,0.1-0.5,0.2-0.7,0.2
			c-0.9,0-1.7-0.8-1.7-1.8c0-1,0.7-1.8,1.8-1.8s1.9,0.8,1.9,2c0,2.1-1.8,4.3-5.2,4.3S561.8,618.7,561.8,616.6z"/>
		<path class="st0" d="M609.7,642.1v0.7h-8.4v-0.7c2-0.3,2.2-0.6,2.2-1.9v-15.5H595v15.5c0,1.3,0.2,1.6,2.2,1.9v0.7h-8.4v-0.7
			c2-0.3,2.4-0.6,2.4-2v-13.6c0-1.3-0.3-1.7-2.4-2v-0.7h20.9v0.7c-2.1,0.3-2.4,0.6-2.4,2v13.6C607.3,641.5,607.5,641.8,609.7,642.1z
			"/>
		<path class="st0" d="M612.5,633.4c0-5.8,4.3-9.8,9.7-9.8c5.4,0,9.6,3.8,9.6,9.7c0,5.8-4.3,9.8-9.7,9.8
			C616.8,643.2,612.5,639.3,612.5,633.4z M627.6,633.5c0-5.4-2.2-9-5.5-9c-3.4,0-5.4,3.4-5.4,8.7c0,5.4,2.2,9,5.5,9
			C625.6,642.2,627.6,638.8,627.6,633.5z"/>
		<path class="st0" d="M643.1,642.1v0.7h-8.4v-0.7c2-0.3,2.4-0.6,2.4-2v-13.6c0-1.3-0.3-1.7-2.4-2v-0.7h8.4v0.7
			c-2,0.3-2.2,0.6-2.2,1.9v6.3l2.3,0l4.1-5.2c1.6-1.9,1.5-2.6-0.7-3v-0.7h6.9v0.7c-2,0.4-2.8,0.9-5.5,3.7l-2.3,2.5l5,7.6
			c1.8,2.8,2.6,3.6,3.8,3.8v0.6h-5.4l-5.9-9.2l-2.4,0v6.7C640.9,641.5,641.1,641.8,643.1,642.1z"/>
		<path class="st0" d="M656.3,638.5c0-2.9,2.1-4.6,7.4-5.8l4-0.9v-2.1c0-3.7-1.9-5.1-4.8-5.1c-1.5,0-2.9,0.4-3.9,1.2h0.1
			c1,0,1.9,0.9,1.9,2c0,1.1-0.9,2-2.1,2c-1.1,0-2-0.9-2-2c0-2.4,3.2-4.2,7.4-4.2c4.3,0,7.2,1.8,7.2,5.8v10c0,1.7,0.9,2.4,2.1,2.4
			c0.3,0,0.6-0.1,0.9-0.1v0.6c-0.6,0.4-1.7,0.8-3,0.8c-1.9,0-3.3-1-3.7-2.8c-0.9,1.6-3.2,2.9-6,2.9
			C658.7,643.2,656.3,641.3,656.3,638.5z M663.9,641.5c1.7,0,3-0.6,3.8-1.9v-7l-2.1,0.5c-4.1,0.9-5.4,2.4-5.4,4.7
			S661.8,641.5,663.9,641.5z"/>
		<path class="st0" d="M687,637.7c0-2.9-1.7-4.2-4.8-4.2h-1.9v-0.8h1.9c2.9,0,4.3-1.7,4.3-4.2c0-2.4-1.3-3.9-3.8-3.9
			c-2.6,0-4.4,1.8-5.2,5.3h-0.6l0.2-4.7c1.1-0.8,3-1.5,5.8-1.5c4.9,0,7.4,1.7,7.4,4.5c0,2.6-2.3,4.2-5.4,4.8
			c3.5,0.3,6.1,1.8,6.1,4.7c0,3.3-3.7,5.6-8.2,5.6c-2.8,0-4.9-0.7-6.2-1.6l-0.2-4.7h0.6c0.9,3.7,3,5.4,5.6,5.4S687,640.4,687,637.7z
			"/>
		<path class="st0" d="M694.1,638.5c0-2.9,2.1-4.6,7.4-5.8l4-0.9v-2.1c0-3.7-1.9-5.1-4.8-5.1c-1.5,0-2.9,0.4-3.9,1.2h0.1
			c1,0,1.9,0.9,1.9,2c0,1.1-0.9,2-2.1,2c-1.1,0-2-0.9-2-2c0-2.4,3.2-4.2,7.4-4.2c4.3,0,7.2,1.8,7.2,5.8v10c0,1.7,0.9,2.4,2.1,2.4
			c0.3,0,0.6-0.1,0.9-0.1v0.6c-0.6,0.4-1.7,0.8-3,0.8c-1.9,0-3.3-1-3.7-2.8c-0.9,1.6-3.2,2.9-6,2.9
			C696.4,643.2,694.1,641.3,694.1,638.5z M701.7,641.5c1.7,0,3-0.6,3.8-1.9v-7l-2.1,0.5c-4.1,0.9-5.4,2.4-5.4,4.7
			S699.6,641.5,701.7,641.5z"/>
		<path class="st0" d="M730.3,630.2h-0.6c-1.3-4.6-1.8-5.3-5.1-5.4l-1.2-0.1V640c0,1.5,0.3,1.8,2.6,2.1v0.7h-9v-0.7
			c2.3-0.3,2.6-0.6,2.6-2.1v-15.3l-1.2,0.1c-3.3,0.2-3.8,0.9-5.1,5.4h-0.6l0.1-6.3h17.5L730.3,630.2z"/>
		<path class="st0" d="M741.9,623.6c4.9,0,7.7,3.2,7.7,7.8c0,0.4,0,0.8-0.1,1H737c0.1,5.3,3,9,7.4,9c2.2,0,3.9-0.8,4.9-1.9v0.7
			c-1.2,1.8-3.8,3.1-7,3.1c-5.4,0-9.3-3.9-9.3-9.8C733.1,627.7,736.5,623.6,741.9,623.6z M737,631.6l9-0.1c0-0.3,0-0.5,0-0.9
			c0-3.5-1.3-6.2-4.1-6.2C738.9,624.5,737.1,627.1,737,631.6z"/>
		<path class="st0" d="M753.2,638.6c1,0,1.8,0.7,2.1,1.6c0.9-2,1.2-5.5,1.3-10.8l0.1-2.5c0-1.6-0.5-2.1-2.8-2.3v-0.7h16.7v0.7
			c-2.1,0.3-2.4,0.6-2.4,2v13.6c0,1.3,0.3,1.7,2.4,2v0.7h-8.4v-0.7c2-0.3,2.2-0.6,2.2-1.9v-15.5h-6.5l-0.2,4.8
			c-0.3,9-1.2,13.6-4.4,13.6c-1.4,0-2.3-0.9-2.3-2.3C750.9,639.6,751.8,638.6,753.2,638.6z"/>
		<path class="st0" d="M782.1,642.8h-9.3v-0.7c2-0.3,2.4-0.6,2.4-2v-13.6c0-1.3-0.3-1.7-2.4-2v-0.7h8.8v0.7
			c-2.3,0.3-2.6,0.6-2.6,2.1v4.7h2.7c6,0,8.5,2,8.5,5.5C790.3,640.5,787,642.8,782.1,642.8z M779.1,632.3v9.7l2.2-0.1
			c3.1-0.1,5.1-1.8,5.1-4.7c0-2.9-1.6-4.8-5.1-4.9L779.1,632.3z"/>
		<path class="st0" d="M281.2,681.5L281.2,681.5l-7.6,0.2v-1.2l7.6,0.2c-0.2-4.7-2.1-8.1-5.7-8.1c-2.8,0-4.6,1.8-5.4,5.2h-0.6
			l0.2-4.7c1.1-0.8,3-1.5,6-1.5c5.7,0,9.8,3.8,9.8,9.8c0,5.5-4.4,9.8-9.7,9.8c-2.9,0-5.1-0.7-6.3-1.5l-0.3-4.7h0.6
			c0.9,3.7,3,5.3,5.8,5.3C279.2,690.2,281.2,686.9,281.2,681.5z"/>
		<path class="st0" d="M299.8,671.7v-6.4c0-1.3-0.3-1.7-2.3-2v-0.7l6-0.2v9.3c7,0.5,11.1,4.2,11.1,9.5c0,5.8-4.4,9.4-11.1,9.9v5.9
			c0,1.5,0.3,1.8,2.6,2.1v0.7h-8.9v-0.7c2.3-0.3,2.6-0.6,2.6-2.1v-5.9c-7-0.5-11-4.2-11-9.5C288.8,675.8,293.2,672.2,299.8,671.7z
			 M299.8,690.1v-17.6c-4.5,0.6-7,3.6-7,8.8C292.8,685.5,295.1,689.4,299.8,690.1z M303.5,672.6v17.6c4.5-0.6,7-4.2,7-8.8
			C310.5,676.7,308.2,673.2,303.5,672.6z"/>
		<path class="st0" d="M329,671.7v-6.4c0-1.3-0.3-1.7-2.3-2v-0.7l6-0.2v9.3c7,0.5,11.1,4.2,11.1,9.5c0,5.8-4.4,9.4-11.1,9.9v5.9
			c0,1.5,0.3,1.8,2.6,2.1v0.7h-8.9v-0.7c2.3-0.3,2.6-0.6,2.6-2.1v-5.9c-7-0.5-11-4.2-11-9.5C317.9,675.8,322.3,672.2,329,671.7z
			 M329,690.1v-17.6c-4.5,0.6-7,3.6-7,8.8C322,685.5,324.3,689.4,329,690.1z M332.7,672.6v17.6c4.5-0.6,7-4.2,7-8.8
			C339.7,676.7,337.4,673.2,332.7,672.6z"/>
		<path class="st0" d="M356,671.6c4.9,0,7.7,3.2,7.7,7.8c0,0.4,0,0.8-0.1,1H351c0.1,5.3,3,9,7.4,9c2.2,0,3.9-0.8,4.9-1.9v0.7
			c-1.2,1.8-3.8,3.1-7,3.1c-5.4,0-9.3-3.9-9.3-9.8C347.1,675.7,350.6,671.6,356,671.6z M351,679.6l9-0.1c0-0.3,0-0.5,0-0.9
			c0-3.5-1.3-6.2-4.1-6.2C353,672.5,351.1,675.1,351,679.6z"/>
		<path class="st0" d="M374.9,690.1v0.7h-8.4v-0.7c2-0.3,2.4-0.6,2.4-2v-13.6c0-1.3-0.3-1.7-2.4-2v-0.7h8.4v0.7
			c-2,0.3-2.2,0.6-2.2,1.9v6.3l2.3,0l4.1-5.2c1.6-1.9,1.5-2.6-0.7-3v-0.7h6.9v0.7c-2,0.4-2.8,0.9-5.5,3.7l-2.3,2.5l5,7.6
			c1.8,2.8,2.6,3.6,3.8,3.8v0.6h-5.4l-5.9-9.2l-2.4,0v6.7C372.6,689.5,372.9,689.8,374.9,690.1z"/>
		<path class="st0" d="M405.4,678.2h-0.6c-1.3-4.6-1.8-5.3-5.1-5.4l-1.2-0.1V688c0,1.5,0.3,1.8,2.6,2.1v0.7h-9v-0.7
			c2.3-0.3,2.6-0.6,2.6-2.1v-15.3l-1.2,0.1c-3.3,0.2-3.8,0.9-5.1,5.4h-0.6l0.1-6.3h17.5L405.4,678.2z"/>
		<path class="st0" d="M416,690.1v0.7h-8.4v-0.7c2-0.3,2.4-0.6,2.4-2v-13.6c0-1.3-0.3-1.7-2.4-2v-0.7h8.4v0.7
			c-2,0.3-2.2,0.6-2.2,1.9v11.9l8.8-11.2v-0.7c0-1.3-0.3-1.6-2.2-1.9v-0.7h8.4v0.7c-2.1,0.3-2.4,0.6-2.4,2v13.6c0,1.3,0.3,1.7,2.4,2
			v0.7h-8.4v-0.7c2-0.3,2.2-0.6,2.2-1.9v-11.9l-8.8,11.2v0.7C413.8,689.5,414,689.8,416,690.1z"/>
		<path class="st0" d="M440.9,690.8h-9.7v-0.7c2-0.3,2.4-0.6,2.4-2v-13.6c0-1.3-0.3-1.7-2.4-2v-0.7h9.8c4.8,0,7.2,1.7,7.2,4.3
			c0,2.5-2.5,4-5.9,4.6c4.1,0.2,6.9,1.7,6.9,4.8S445.8,690.8,440.9,690.8z M440.1,672.8l-2.7-0.1v7.9l2.5,0c3-0.1,4.4-1.6,4.4-3.9
			C444.3,674.2,442.9,672.8,440.1,672.8z M439.9,681.4l-2.5,0v8.7l2.5-0.1c3.2-0.1,5.2-1.7,5.2-4.4
			C445.2,682.6,443.1,681.4,439.9,681.4z"/>
		<path class="st0" d="M460.1,690.1v0.7h-8.4v-0.7c2-0.3,2.4-0.6,2.4-2v-13.6c0-1.3-0.3-1.7-2.4-2v-0.7h8.4v0.7
			c-2,0.3-2.2,0.6-2.2,1.9v6.3h8.7v-6.3c0-1.3-0.3-1.6-2.2-1.9v-0.7h8.4v0.7c-2.1,0.3-2.4,0.6-2.4,2v13.6c0,1.3,0.3,1.7,2.4,2v0.7
			h-8.4v-0.7c2-0.3,2.2-0.6,2.2-1.9v-6.7h-8.7v6.7C457.8,689.5,458.1,689.8,460.1,690.1z"/>
		<path class="st0" d="M475.6,681.4c0-5.8,4.3-9.8,9.7-9.8c5.4,0,9.6,3.8,9.6,9.7c0,5.8-4.3,9.8-9.7,9.8
			C479.8,691.2,475.6,687.3,475.6,681.4z M490.7,681.5c0-5.4-2.2-9-5.5-9c-3.4,0-5.4,3.4-5.4,8.7c0,5.4,2.2,9,5.5,9
			C488.7,690.2,490.7,686.8,490.7,681.5z"/>
		<path class="st0" d="M498.3,681.3c0-5.6,4.1-9.8,9.7-9.8c4.2,0,6.2,2.1,6.2,4.3c0,1.2-0.9,2.1-2,2.1c-1.2,0-2-0.9-2-2
			c0-1.2,0.9-2,1.9-2c0.1,0,0.3,0,0.4,0c-0.8-0.8-2.1-1.2-3.6-1.2c-4,0-6.5,3.2-6.5,7.9c0,5.5,3.2,8.8,7.2,8.8
			c2.2,0,3.8-0.8,4.9-1.9v0.7c-1.2,1.8-3.8,3.1-6.9,3.1C502.2,691.2,498.3,687.2,498.3,681.3z"/>
		<path class="st0" d="M534.4,678.2h-0.6c-1.3-4.6-1.8-5.3-5.1-5.4l-1.2-0.1V688c0,1.5,0.3,1.8,2.6,2.1v0.7h-9v-0.7
			c2.3-0.3,2.6-0.6,2.6-2.1v-15.3l-1.2,0.1c-3.3,0.2-3.8,0.9-5.1,5.4h-0.6l0.1-6.3h17.5L534.4,678.2z"/>
		<path class="st0" d="M545.1,690.1v0.7h-8.4v-0.7c2-0.3,2.4-0.6,2.4-2v-13.6c0-1.3-0.3-1.7-2.4-2v-0.7h8.4v0.7
			c-2,0.3-2.2,0.6-2.2,1.9v11.9l8.8-11.2v-0.7c0-1.3-0.3-1.6-2.2-1.9v-0.7h8.4v0.7c-2.1,0.3-2.4,0.6-2.4,2v13.6c0,1.3,0.3,1.7,2.4,2
			v0.7h-8.4v-0.7c2-0.3,2.2-0.6,2.2-1.9v-11.9l-8.8,11.2v0.7C542.9,689.5,543.1,689.8,545.1,690.1z"/>
		<path class="st0" d="M580.1,691.2c-2.4,0-4.2-1-5-2.4v8.2c0,1.5,0.3,1.8,2.6,2.1v0.7h-8.8v-0.7c2.1-0.3,2.3-0.6,2.3-1.9v-22.6
			c0-1.3-0.3-1.7-2.3-2v-0.7l6.2-0.2v3.5c1.1-2.1,3.5-3.6,6.3-3.6c4.1,0,7.9,3.4,7.9,9.6C589.2,687.2,585.2,691.2,580.1,691.2z
			 M579.5,673.3c-2.1,0-3.6,0.9-4.5,2.5v12c0.6,1.3,2.3,2.2,4.1,2.2c3.7,0,6-3.4,6-8.4C585.1,676.5,582.8,673.3,579.5,673.3z"/>
		<path class="st0" d="M601.4,671.6c4.9,0,7.7,3.2,7.7,7.8c0,0.4,0,0.8-0.1,1h-12.6c0.1,5.3,3,9,7.4,9c2.2,0,3.9-0.8,4.9-1.9v0.7
			c-1.2,1.8-3.8,3.1-7,3.1c-5.4,0-9.3-3.9-9.3-9.8C592.6,675.7,596,671.6,601.4,671.6z M596.5,679.6l9-0.1c0-0.3,0-0.5,0-0.9
			c0-3.5-1.3-6.2-4.1-6.2C598.4,672.5,596.6,675.1,596.5,679.6z"/>
		<path class="st0" d="M643.8,690.1v0.7h-31.9v-0.7c2-0.3,2.4-0.6,2.4-2v-13.6c0-1.3-0.3-1.7-2.4-2v-0.7h8.4v0.7
			c-2,0.3-2.2,0.6-2.2,1.9V690h7.8v-15.5c0-1.3-0.2-1.6-2.2-1.9v-0.7h8.3v0.7c-2,0.3-2.2,0.6-2.2,1.9V690h7.8v-15.5
			c0-1.3-0.2-1.6-2.2-1.9v-0.7h8.4v0.7c-2,0.3-2.4,0.6-2.4,2v13.6C641.4,689.5,641.7,689.8,643.8,690.1z"/>
		<path class="st0" d="M655.5,671.6c4.9,0,7.7,3.2,7.7,7.8c0,0.4,0,0.8-0.1,1h-12.6c0.1,5.3,3,9,7.4,9c2.2,0,3.9-0.8,4.9-1.9v0.7
			c-1.2,1.8-3.8,3.1-7,3.1c-5.4,0-9.3-3.9-9.3-9.8C646.6,675.7,650,671.6,655.5,671.6z M650.5,679.6l9-0.1c0-0.3,0-0.5,0-0.9
			c0-3.5-1.3-6.2-4.1-6.2C652.4,672.5,650.6,675.1,650.5,679.6z"/>
		<path class="st0" d="M674.4,690.1v0.7h-8.4v-0.7c2-0.3,2.4-0.6,2.4-2v-13.6c0-1.3-0.3-1.7-2.4-2v-0.7h8.4v0.7
			c-2,0.3-2.2,0.6-2.2,1.9v6.3h8.7v-6.3c0-1.3-0.3-1.6-2.2-1.9v-0.7h8.4v0.7c-2.1,0.3-2.4,0.6-2.4,2v13.6c0,1.3,0.3,1.7,2.4,2v0.7
			h-8.4v-0.7c2-0.3,2.2-0.6,2.2-1.9v-6.7h-8.7v6.7C672.1,689.5,672.4,689.8,674.4,690.1z"/>
		<path class="st0" d="M697.8,690.1v0.7h-8.4v-0.7c2-0.3,2.4-0.6,2.4-2v-13.6c0-1.3-0.3-1.7-2.4-2v-0.7h8.4v0.7
			c-2,0.3-2.2,0.6-2.2,1.9v11.9l8.8-11.2v-0.7c0-1.3-0.3-1.6-2.2-1.9v-0.7h8.4v0.7c-2.1,0.3-2.4,0.6-2.4,2v13.6c0,1.3,0.3,1.7,2.4,2
			v0.7h-8.4v-0.7c2-0.3,2.2-0.6,2.2-1.9v-11.9l-8.8,11.2v0.7C695.5,689.5,695.8,689.8,697.8,690.1z"/>
		<path class="st0" d="M721.3,690.1v0.7h-8.4v-0.7c2-0.3,2.4-0.6,2.4-2v-13.6c0-1.3-0.3-1.7-2.4-2v-0.7h8.4v0.7
			c-2,0.3-2.2,0.6-2.2,1.9v11.9l8.8-11.2v-0.7c0-1.3-0.3-1.6-2.2-1.9v-0.7h8.4v0.7c-2.1,0.3-2.4,0.6-2.4,2v13.6c0,1.3,0.3,1.7,2.4,2
			v0.7h-8.4v-0.7c2-0.3,2.2-0.6,2.2-1.9v-11.9l-8.8,11.2v0.7C719.1,689.5,719.3,689.8,721.3,690.1z M718.4,664.6c0-1.2,0.8-2,1.9-2
			s1.8,0.8,1.8,1.8c0,1-0.8,1.8-1.7,1.8c-0.3,0-0.5-0.1-0.7-0.2c0.6,1.1,2,2,4,2s3.3-0.9,4-2c-0.2,0.1-0.5,0.2-0.7,0.2
			c-0.9,0-1.7-0.8-1.7-1.8c0-1,0.7-1.8,1.8-1.8s1.9,0.8,1.9,2c0,2.1-1.8,4.3-5.2,4.3S718.4,666.7,718.4,664.6z"/>
	</g>
	<g transform="matrix(.363638 0 0 .363636 -3.272763 -2.909091)">
		<path class="st1" d="M1457.8,747.6v272.7c0,30.5,21.1,47.5,43.4,47.5c20.7,0,43.4-14.5,43.4-47.5V749.7c0-28-20.7-45.5-43.4-45.5
			S1457.8,723.5,1457.8,747.6z"/>
		<g>
			<path class="st2" d="M1344.2,886.1v134.3c0,30.5,21.1,47.5,43.4,47.5c20.7,0,43.4-14.5,43.4-47.5V888.1c0-28-20.7-45.5-43.4-45.5
				S1344.2,862,1344.2,886.1z"/>
			<circle class="st2" cx="1273.9" cy="1024.5" r="43.4"/>
		</g>
	</g>
</g>
<g id="Режим_изоляции">
</g>
</svg>
