<?xml version="1.0" encoding="utf-8"?>
<!-- Generator: Adobe Illustrator 23.1.1, SVG Export Plug-In . SVG Version: 6.00 Build 0)  -->
<svg version="1.1" id="Слой_1" xmlns="http://www.w3.org/2000/svg" xmlns:xlink="http://www.w3.org/1999/xlink" x="0px" y="0px"
	 viewBox="0 0 1000 1000" style="enable-background:new 0 0 1000 1000;" xml:space="preserve">
<style type="text/css">
	.st0{enable-background:new    ;}
	.st1{fill:#113357;}
	.st2{fill:#0ACF83;}
	.st3{fill:#A259FF;}
	.st4{fill:#F24E1E;}
	.st5{fill:#FF7262;}
	.st6{fill:#1ABCFE;}
</style>
<title>soft</title>
<g class="st0">
	<path class="st1" d="M294,642.1v0.7h-9.6v-0.7c2.2-0.4,2.7-0.7,2.7-2.4v-24.3h-13.9v24.3c0,1.7,0.4,2,2.7,2.4v0.7h-9.6v-0.7
		c2.4-0.4,2.8-0.8,2.8-2.5v-21.9c0-1.7-0.4-2.1-2.8-2.5v-0.7H294v0.7c-2.4,0.4-2.8,0.8-2.8,2.5v21.9
		C291.2,641.4,291.6,641.8,294,642.1z"/>
	<path class="st1" d="M307.3,643.2c-2.4,0-4.2-1-5-2.4v8.2c0,1.5,0.3,1.8,2.6,2.1v0.7H296v-0.7c2.1-0.3,2.3-0.6,2.3-1.9v-22.6
		c0-1.3-0.3-1.7-2.3-2v-0.7l6.2-0.2v3.5c1.1-2.1,3.5-3.6,6.3-3.6c4.1,0,7.9,3.4,7.9,9.6C316.3,639.2,312.4,643.2,307.3,643.2z
		 M306.7,625.3c-2.1,0-3.6,0.9-4.5,2.5v12c0.6,1.3,2.3,2.2,4.1,2.2c3.7,0,6-3.4,6-8.4C312.3,628.5,310,625.3,306.7,625.3z"/>
	<path class="st1" d="M319.7,633.4c0-5.8,4.3-9.8,9.7-9.8c5.4,0,9.6,3.8,9.6,9.7c0,5.8-4.3,9.8-9.7,9.8
		C324,643.2,319.7,639.3,319.7,633.4z M334.8,633.5c0-5.4-2.2-9-5.5-9c-3.4,0-5.4,3.4-5.4,8.7c0,5.4,2.2,9,5.5,9
		C332.8,642.2,334.8,638.8,334.8,633.5z"/>
	<path class="st1" d="M351.3,623.6c4.9,0,7.7,3.2,7.7,7.8c0,0.4,0,0.8-0.1,1h-12.6c0.1,5.3,3,9,7.4,9c2.2,0,3.9-0.8,4.9-1.9v0.7
		c-1.2,1.8-3.8,3.1-7,3.1c-5.4,0-9.3-3.9-9.3-9.8C342.5,627.7,345.9,623.6,351.3,623.6z M346.4,631.6l9-0.1c0-0.3,0-0.5,0-0.9
		c0-3.5-1.3-6.2-4.1-6.2C348.3,624.5,346.5,627.1,346.4,631.6z"/>
	<path class="st1" d="M370.2,642.1v0.7h-8.4v-0.7c2-0.3,2.4-0.6,2.4-2v-13.6c0-1.3-0.3-1.7-2.4-2v-0.7h8.4v0.7
		c-2,0.3-2.2,0.6-2.2,1.9v6.3l2.3,0l4.1-5.2c1.6-1.9,1.5-2.6-0.7-3v-0.7h6.9v0.7c-2,0.4-2.8,0.9-5.5,3.7l-2.3,2.5l5,7.6
		c1.8,2.8,2.6,3.6,3.8,3.8v0.6h-5.4l-5.9-9.2l-2.4,0v6.7C368,641.5,368.2,641.8,370.2,642.1z"/>
	<path class="st1" d="M400.7,630.2h-0.6c-1.3-4.6-1.8-5.3-5.1-5.4l-1.2-0.1V640c0,1.5,0.3,1.8,2.6,2.1v0.7h-9v-0.7
		c2.3-0.3,2.6-0.6,2.6-2.1v-15.3l-1.2,0.1c-3.3,0.2-3.8,0.9-5.1,5.4h-0.6l0.1-6.3h17.5L400.7,630.2z"/>
	<path class="st1" d="M411.4,642.1v0.7h-8.4v-0.7c2-0.3,2.4-0.6,2.4-2v-13.6c0-1.3-0.3-1.7-2.4-2v-0.7h8.4v0.7
		c-2,0.3-2.2,0.6-2.2,1.9v11.9l8.8-11.2v-0.7c0-1.3-0.3-1.6-2.2-1.9v-0.7h8.4v0.7c-2.1,0.3-2.4,0.6-2.4,2v13.6c0,1.3,0.3,1.7,2.4,2
		v0.7h-8.4v-0.7c2-0.3,2.2-0.6,2.2-1.9v-11.9l-8.8,11.2v0.7C409.2,641.5,409.4,641.8,411.4,642.1z"/>
</g>
<g class="st0">
	<path class="st1" d="M437.5,643.2c-2.4,0-4.2-1-5-2.4v8.2c0,1.5,0.3,1.8,2.6,2.1v0.7h-8.8v-0.7c2.1-0.3,2.3-0.6,2.3-1.9v-22.6
		c0-1.3-0.3-1.7-2.3-2v-0.7l6.2-0.2v3.5c1.1-2.1,3.5-3.6,6.3-3.6c4.1,0,7.9,3.4,7.9,9.6C446.6,639.2,442.6,643.2,437.5,643.2z
		 M437,625.3c-2.1,0-3.6,0.9-4.5,2.5v12c0.6,1.3,2.3,2.2,4.1,2.2c3.7,0,6-3.4,6-8.4C442.6,628.5,440.3,625.3,437,625.3z"/>
</g>
<g class="st0">
	<path class="st1" d="M447.3,624.6v-0.7h9.1v0.7c-2.3,0.3-2.7,0.9-1.7,3.4l3.8,10.2l3.7-10.1c1-2.7,0.6-3.2-1.7-3.6v-0.7h6.3v0.7
		c-1.7,0.3-2.2,0.8-3.4,3.8l-4.2,10.4l-1.7,4.1l-3.1,8.9h-3.2v-0.1c1.7-2,4-5.9,5.4-8.9l-6.2-15.2
		C449.5,625.3,449,624.9,447.3,624.6z"/>
	<path class="st1" d="M476.3,642.1v0.7h-8.4v-0.7c2-0.3,2.4-0.6,2.4-2v-13.6c0-1.3-0.3-1.7-2.4-2v-0.7h8.4v0.7
		c-2,0.3-2.2,0.6-2.2,1.9v6.3h3.6c0.3-5.4,4.4-9.2,9.6-9.2c5.4,0,9.5,3.8,9.5,9.7c0,5.8-4.2,9.8-9.6,9.8c-5.4,0-9.4-3.8-9.5-9.6
		h-3.6v6.7C474.1,641.5,474.3,641.8,476.3,642.1z M492.4,633.5c0-5.3-2-9-5.4-9c-3.4,0-5.2,3.4-5.2,8.7s2,9,5.4,9
		C490.6,642.2,492.4,638.8,492.4,633.5z"/>
	<path class="st1" d="M529.2,642.1v0.7h-8.4v-0.7c2-0.3,2.2-0.6,2.2-1.9v-15.5h-8.5v15.5c0,1.3,0.2,1.6,2.2,1.9v0.7h-8.4v-0.7
		c2-0.3,2.4-0.6,2.4-2v-13.6c0-1.3-0.3-1.7-2.4-2v-0.7h20.9v0.7c-2.1,0.3-2.4,0.6-2.4,2v13.6C526.9,641.5,527.1,641.8,529.2,642.1z"
		/>
	<path class="st1" d="M542.6,643.2c-2.4,0-4.2-1-5-2.4v8.2c0,1.5,0.3,1.8,2.6,2.1v0.7h-8.8v-0.7c2.1-0.3,2.3-0.6,2.3-1.9v-22.6
		c0-1.3-0.3-1.7-2.3-2v-0.7l6.2-0.2v3.5c1.1-2.1,3.5-3.6,6.3-3.6c4.1,0,7.9,3.4,7.9,9.6C551.6,639.2,547.7,643.2,542.6,643.2z
		 M542,625.3c-2.1,0-3.6,0.9-4.5,2.5v12c0.6,1.3,2.3,2.2,4.1,2.2c3.7,0,6-3.4,6-8.4C547.6,628.5,545.3,625.3,542,625.3z"/>
	<path class="st1" d="M554.9,638.5c0-2.9,2.1-4.6,7.4-5.8l4-0.9v-2.1c0-3.7-1.9-5.1-4.8-5.1c-1.5,0-2.9,0.4-3.9,1.2h0.1
		c1,0,1.9,0.9,1.9,2c0,1.1-0.9,2-2.1,2c-1.1,0-2-0.9-2-2c0-2.4,3.2-4.2,7.4-4.2c4.3,0,7.2,1.8,7.2,5.8v10c0,1.7,0.9,2.4,2.1,2.4
		c0.3,0,0.6-0.1,0.9-0.1v0.6c-0.6,0.4-1.7,0.8-3,0.8c-1.9,0-3.3-1-3.7-2.8c-0.9,1.6-3.2,2.9-6,2.9
		C557.3,643.2,554.9,641.3,554.9,638.5z M562.5,641.5c1.7,0,3-0.6,3.8-1.9v-7l-2.1,0.5c-4.1,0.9-5.4,2.4-5.4,4.7
		S560.5,641.5,562.5,641.5z"/>
	<path class="st1" d="M584,642.8h-9.7v-0.7c2-0.3,2.4-0.6,2.4-2v-13.6c0-1.3-0.3-1.7-2.4-2v-0.7h9.8c4.8,0,7.2,1.7,7.2,4.3
		c0,2.5-2.5,4-5.9,4.6c4.1,0.2,6.9,1.7,6.9,4.8S589,642.8,584,642.8z M583.2,624.8l-2.7-0.1v7.9l2.5,0c3-0.1,4.4-1.6,4.4-3.9
		C587.5,626.2,586,624.8,583.2,624.8z M583.1,633.4l-2.5,0v8.7l2.5-0.1c3.2-0.1,5.2-1.7,5.2-4.4
		C588.3,634.6,586.3,633.4,583.1,633.4z"/>
	<path class="st1" d="M603.2,642.1v0.7h-8.4v-0.7c2-0.3,2.4-0.6,2.4-2v-13.6c0-1.3-0.3-1.7-2.4-2v-0.7h8.4v0.7
		c-2,0.3-2.2,0.6-2.2,1.9v11.9l8.8-11.2v-0.7c0-1.3-0.3-1.6-2.2-1.9v-0.7h8.4v0.7c-2.1,0.3-2.4,0.6-2.4,2v13.6c0,1.3,0.3,1.7,2.4,2
		v0.7h-8.4v-0.7c2-0.3,2.2-0.6,2.2-1.9v-11.9l-8.8,11.2v0.7C601,641.5,601.2,641.8,603.2,642.1z"/>
	<path class="st1" d="M619.8,638.6c1,0,1.8,0.7,2.1,1.6c0.9-2,1.2-5.5,1.3-10.8l0.1-2.5c0-1.6-0.5-2.1-2.8-2.3v-0.7h16.7v0.7
		c-2.1,0.3-2.4,0.6-2.4,2v13.6c0,1.3,0.3,1.7,2.4,2v0.7h-8.4v-0.7c2-0.3,2.2-0.6,2.2-1.9v-15.5h-6.5l-0.2,4.8
		c-0.3,9-1.2,13.6-4.4,13.6c-1.4,0-2.3-0.9-2.3-2.3C617.5,639.6,618.4,638.6,619.8,638.6z"/>
</g>
<g class="st0">
	<path class="st1" d="M648.7,642.8h-9.3v-0.7c2-0.3,2.4-0.6,2.4-2v-13.6c0-1.3-0.3-1.7-2.4-2v-0.7h8.8v0.7c-2.3,0.3-2.6,0.6-2.6,2.1
		v4.7h2.7c6,0,8.5,2,8.5,5.5C656.9,640.5,653.6,642.8,648.7,642.8z M645.7,632.3v9.7l2.2-0.1c3.1-0.1,5.1-1.8,5.1-4.7
		c0-2.9-1.6-4.8-5.1-4.9L645.7,632.3z"/>
</g>
<g class="st0">
	<path class="st1" d="M667.3,642.1v0.7h-8.4v-0.7c2-0.3,2.4-0.6,2.4-2v-13.6c0-1.3-0.3-1.7-2.4-2v-0.7h8.4v0.7
		c-2,0.3-2.2,0.6-2.2,1.9v6.3h8.7v-6.3c0-1.3-0.3-1.6-2.2-1.9v-0.7h8.4v0.7c-2.1,0.3-2.4,0.6-2.4,2v13.6c0,1.3,0.3,1.7,2.4,2v0.7
		h-8.4v-0.7c2-0.3,2.2-0.6,2.2-1.9v-6.7h-8.7v6.7C665.1,641.5,665.4,641.8,667.3,642.1z"/>
	<path class="st1" d="M691.6,642.8h-9.3v-0.7c2-0.3,2.4-0.6,2.4-2v-13.6c0-1.3-0.3-1.7-2.4-2v-0.7h8.8v0.7c-2.3,0.3-2.6,0.6-2.6,2.1
		v4.7h2.7c6,0,8.5,2,8.5,5.5C699.8,640.5,696.5,642.8,691.6,642.8z M688.5,632.3v9.7l2.2-0.1c3.1-0.1,5.1-1.8,5.1-4.7
		c0-2.9-1.6-4.8-5.1-4.9L688.5,632.3z M706.8,640.4c0,1.1,0.3,1.4,2.5,1.7v0.7h-8.8v-0.7c2.1-0.3,2.5-0.6,2.5-1.7v-14.2
		c0-1.1-0.3-1.4-2.5-1.7v-0.7h8.8v0.7c-2.2,0.3-2.5,0.6-2.5,1.7V640.4z"/>
	<path class="st1" d="M721.1,623.6c4.9,0,7.7,3.2,7.7,7.8c0,0.4,0,0.8-0.1,1h-12.6c0.1,5.3,3,9,7.4,9c2.2,0,3.9-0.8,4.9-1.9v0.7
		c-1.2,1.8-3.8,3.1-7,3.1c-5.4,0-9.3-3.9-9.3-9.8C712.2,627.7,715.6,623.6,721.1,623.6z M716.1,631.6l9-0.1c0-0.3,0-0.5,0-0.9
		c0-3.5-1.3-6.2-4.1-6.2C718,624.5,716.2,627.1,716.1,631.6z"/>
</g>
<g class="st0">
	<path class="st1" d="M279.5,681.5L279.5,681.5l-7.6,0.2v-1.2l7.6,0.2c-0.2-4.7-2.1-8.1-5.7-8.1c-2.8,0-4.6,1.8-5.4,5.2h-0.6
		l0.2-4.7c1.1-0.8,3-1.5,6-1.5c5.7,0,9.8,3.8,9.8,9.8c0,5.5-4.4,9.8-9.7,9.8c-2.9,0-5.1-0.7-6.3-1.5l-0.3-4.7h0.6
		c0.9,3.7,3,5.3,5.8,5.3C277.5,690.2,279.5,686.9,279.5,681.5z"/>
	<path class="st1" d="M295,690.1v0.7h-8.4v-0.7c2-0.3,2.4-0.6,2.4-2v-13.6c0-1.3-0.3-1.7-2.4-2v-0.7h8.4v0.7c-2,0.3-2.2,0.6-2.2,1.9
		v6.3l2.3,0l4.1-5.2c1.6-1.9,1.5-2.6-0.7-3v-0.7h6.9v0.7c-2,0.4-2.8,0.9-5.5,3.7l-2.3,2.5l5,7.6c1.8,2.8,2.6,3.6,3.8,3.8v0.6H301
		l-5.9-9.2l-2.4,0v6.7C292.7,689.5,293,689.8,295,690.1z"/>
	<path class="st1" d="M318.7,691.2c-2.4,0-4.2-1-5-2.4v8.2c0,1.5,0.3,1.8,2.6,2.1v0.7h-8.8v-0.7c2.1-0.3,2.3-0.6,2.3-1.9v-22.6
		c0-1.3-0.3-1.7-2.3-2v-0.7l6.2-0.2v3.5c1.1-2.1,3.5-3.6,6.3-3.6c4.1,0,7.9,3.4,7.9,9.6C327.8,687.2,323.8,691.2,318.7,691.2z
		 M318.2,673.3c-2.1,0-3.6,0.9-4.5,2.5v12c0.6,1.3,2.3,2.2,4.1,2.2c3.7,0,6-3.4,6-8.4C323.8,676.5,321.4,673.3,318.2,673.3z"/>
	<path class="st1" d="M331.1,686.5c0-2.9,2.1-4.6,7.4-5.8l4-0.9v-2.1c0-3.7-1.9-5.1-4.8-5.1c-1.5,0-2.9,0.4-3.9,1.2h0.1
		c1,0,1.9,0.9,1.9,2c0,1.1-0.9,2-2.1,2c-1.1,0-2-0.9-2-2c0-2.4,3.2-4.2,7.4-4.2c4.3,0,7.2,1.8,7.2,5.8v10c0,1.7,0.9,2.4,2.1,2.4
		c0.3,0,0.6-0.1,0.9-0.1v0.6c-0.6,0.4-1.7,0.8-3,0.8c-1.9,0-3.3-1-3.7-2.8c-0.9,1.6-3.2,2.9-6,2.9
		C333.4,691.2,331.1,689.3,331.1,686.5z M338.7,689.5c1.7,0,3-0.6,3.8-1.9v-7l-2.1,0.5c-4.1,0.9-5.4,2.4-5.4,4.7
		S336.6,689.5,338.7,689.5z"/>
	<path class="st1" d="M358.9,690.1v0.7h-8.4v-0.7c2-0.3,2.4-0.6,2.4-2v-13.6c0-1.3-0.3-1.7-2.4-2v-0.7h8.4v0.7
		c-2,0.3-2.2,0.6-2.2,1.9v6.3h8.7v-6.3c0-1.3-0.3-1.6-2.2-1.9v-0.7h8.4v0.7c-2.1,0.3-2.4,0.6-2.4,2v13.6c0,1.3,0.3,1.7,2.4,2v0.7
		h-8.4v-0.7c2-0.3,2.2-0.6,2.2-1.9v-6.7h-8.7v6.7C356.7,689.5,356.9,689.8,358.9,690.1z"/>
	<path class="st1" d="M383.2,690.8h-9.3v-0.7c2-0.3,2.4-0.6,2.4-2v-13.6c0-1.3-0.3-1.7-2.4-2v-0.7h8.8v0.7c-2.3,0.3-2.6,0.6-2.6,2.1
		v4.7h2.7c6,0,8.5,2,8.5,5.5C391.4,688.5,388.1,690.8,383.2,690.8z M380.1,680.3v9.7l2.2-0.1c3.1-0.1,5.1-1.8,5.1-4.7
		c0-2.9-1.6-4.8-5.1-4.9L380.1,680.3z M398.4,688.4c0,1.1,0.3,1.4,2.5,1.7v0.7h-8.8v-0.7c2.1-0.3,2.5-0.6,2.5-1.7v-14.2
		c0-1.1-0.3-1.4-2.5-1.7v-0.7h8.8v0.7c-2.2,0.3-2.5,0.6-2.5,1.7V688.4z"/>
	<path class="st1" d="M420.5,690.1v0.7H412v-0.7c2-0.3,2.4-0.6,2.4-2v-13.6c0-1.3-0.3-1.7-2.4-2v-0.7h8.4v0.7
		c-2,0.3-2.2,0.6-2.2,1.9v11.9l8.8-11.2v-0.7c0-1.3-0.3-1.6-2.2-1.9v-0.7h8.4v0.7c-2.1,0.3-2.4,0.6-2.4,2v13.6c0,1.3,0.3,1.7,2.4,2
		v0.7h-8.4v-0.7c2-0.3,2.2-0.6,2.2-1.9v-11.9l-8.8,11.2v0.7C418.3,689.5,418.5,689.8,420.5,690.1z"/>
	<path class="st1" d="M463.5,696.7h-0.7c-1.5-5.1-1.9-5.9-5.3-5.9h-7.9c-3.4,0-3.8,0.8-5.4,5.9h-0.7l0.2-6.7h2.1
		c1.3-1.7,2.6-5.7,2.7-13.2l0-1.5c0-2.1-0.6-2.5-2.8-2.8v-0.7h17.3v0.7c-2.3,0.3-2.6,0.6-2.6,2.1V690h2.8L463.5,696.7z M456.7,690
		v-17.2h-7l-0.1,4.1c-0.1,7.9-1.5,11.5-2.6,13.2H456.7z"/>
	<path class="st1" d="M473.8,690.1v0.7h-8.4v-0.7c2-0.3,2.4-0.6,2.4-2v-13.6c0-1.3-0.3-1.7-2.4-2v-0.7h8.4v0.7
		c-2,0.3-2.2,0.6-2.2,1.9v11.9l8.8-11.2v-0.7c0-1.3-0.3-1.6-2.2-1.9v-0.7h8.4v0.7c-2.1,0.3-2.4,0.6-2.4,2v13.6c0,1.3,0.3,1.7,2.4,2
		v0.7h-8.4v-0.7c2-0.3,2.2-0.6,2.2-1.9v-11.9l-8.8,11.2v0.7C471.6,689.5,471.8,689.8,473.8,690.1z"/>
	<path class="st1" d="M500.2,685.7c0-2.9-1.7-4.2-4.8-4.2h-1.9v-0.8h1.9c2.9,0,4.3-1.7,4.3-4.2c0-2.4-1.3-3.9-3.8-3.9
		c-2.6,0-4.4,1.8-5.2,5.3h-0.6l0.2-4.7c1.1-0.8,3-1.5,5.8-1.5c4.9,0,7.4,1.7,7.4,4.5c0,2.6-2.3,4.2-5.4,4.8c3.5,0.3,6.1,1.8,6.1,4.7
		c0,3.3-3.7,5.6-8.2,5.6c-2.8,0-4.9-0.7-6.2-1.6l-0.2-4.7h0.6c0.9,3.7,3,5.4,5.6,5.4S500.2,688.4,500.2,685.7z"/>
	<path class="st1" d="M507.3,686.5c0-2.9,2.1-4.6,7.4-5.8l4-0.9v-2.1c0-3.7-1.9-5.1-4.8-5.1c-1.5,0-2.9,0.4-3.9,1.2h0.1
		c1,0,1.9,0.9,1.9,2c0,1.1-0.9,2-2.1,2c-1.1,0-2-0.9-2-2c0-2.4,3.2-4.2,7.4-4.2c4.3,0,7.2,1.8,7.2,5.8v10c0,1.7,0.9,2.4,2.1,2.4
		c0.3,0,0.6-0.1,0.9-0.1v0.6c-0.6,0.4-1.7,0.8-3,0.8c-1.9,0-3.3-1-3.7-2.8c-0.9,1.6-3.2,2.9-6,2.9
		C509.7,691.2,507.3,689.3,507.3,686.5z M514.9,689.5c1.7,0,3-0.6,3.8-1.9v-7l-2.1,0.5c-4.1,0.9-5.4,2.4-5.4,4.7
		S512.8,689.5,514.9,689.5z"/>
	<path class="st1" d="M535.2,690.1v0.7h-8.4v-0.7c2-0.3,2.4-0.6,2.4-2v-13.6c0-1.3-0.3-1.7-2.4-2v-0.7h8.4v0.7
		c-2,0.3-2.2,0.6-2.2,1.9v11.9l8.8-11.2v-0.7c0-1.3-0.3-1.6-2.2-1.9v-0.7h8.4v0.7c-2.1,0.3-2.4,0.6-2.4,2v13.6c0,1.3,0.3,1.7,2.4,2
		v0.7h-8.4v-0.7c2-0.3,2.2-0.6,2.2-1.9v-11.9l-8.8,11.2v0.7C532.9,689.5,533.2,689.8,535.2,690.1z M532.2,664.6c0-1.2,0.8-2,1.9-2
		s1.8,0.8,1.8,1.8c0,1-0.8,1.8-1.7,1.8c-0.3,0-0.5-0.1-0.7-0.2c0.6,1.1,2,2,4,2s3.3-0.9,4-2c-0.2,0.1-0.5,0.2-0.7,0.2
		c-0.9,0-1.7-0.8-1.7-1.8c0-1,0.7-1.8,1.8-1.8s1.9,0.8,1.9,2c0,2.1-1.8,4.3-5.2,4.3S532.2,666.7,532.2,664.6z"/>
	<path class="st1" d="M558.7,690.1v0.7h-8.4v-0.7c2-0.3,2.4-0.6,2.4-2v-13.6c0-1.3-0.3-1.7-2.4-2v-0.7h8.4v0.7
		c-2,0.3-2.2,0.6-2.2,1.9v6.3h8.7v-6.3c0-1.3-0.3-1.6-2.2-1.9v-0.7h8.4v0.7c-2.1,0.3-2.4,0.6-2.4,2v13.6c0,1.3,0.3,1.7,2.4,2v0.7
		H563v-0.7c2-0.3,2.2-0.6,2.2-1.9v-6.7h-8.7v6.7C556.5,689.5,556.8,689.8,558.7,690.1z"/>
	<path class="st1" d="M583.1,681.3c0-5.6,4.1-9.8,9.7-9.8c4.2,0,6.2,2.1,6.2,4.3c0,1.2-0.9,2.1-2,2.1c-1.2,0-2-0.9-2-2
		c0-1.2,0.9-2,1.9-2c0.1,0,0.3,0,0.4,0c-0.8-0.8-2.1-1.2-3.6-1.2c-4,0-6.5,3.2-6.5,7.9c0,5.5,3.2,8.8,7.2,8.8c2.2,0,3.8-0.8,4.9-1.9
		v0.7c-1.2,1.8-3.8,3.1-6.9,3.1C587,691.2,583.1,687.2,583.1,681.3z"/>
	<path class="st1" d="M609.9,690.1v0.7h-8.4v-0.7c2-0.3,2.4-0.6,2.4-2v-13.6c0-1.3-0.3-1.7-2.4-2v-0.7h8.4v0.7
		c-2,0.3-2.2,0.6-2.2,1.9v11.9l8.8-11.2v-0.7c0-1.3-0.3-1.6-2.2-1.9v-0.7h8.4v0.7c-2.1,0.3-2.4,0.6-2.4,2v13.6c0,1.3,0.3,1.7,2.4,2
		v0.7h-8.4v-0.7c2-0.3,2.2-0.6,2.2-1.9v-11.9l-8.8,11.2v0.7C607.6,689.5,607.9,689.8,609.9,690.1z"/>
	<path class="st1" d="M625.6,681.3c0-5.6,4.1-9.8,9.7-9.8c4.2,0,6.2,2.1,6.2,4.3c0,1.2-0.9,2.1-2,2.1c-1.2,0-2-0.9-2-2
		c0-1.2,0.9-2,1.9-2c0.1,0,0.3,0,0.4,0c-0.8-0.8-2.1-1.2-3.6-1.2c-4,0-6.5,3.2-6.5,7.9c0,5.5,3.2,8.8,7.2,8.8c2.2,0,3.8-0.8,4.9-1.9
		v0.7c-1.2,1.8-3.8,3.1-6.9,3.1C629.5,691.2,625.6,687.2,625.6,681.3z"/>
	<path class="st1" d="M661.7,678.2h-0.6c-1.3-4.6-1.8-5.3-5.1-5.4l-1.2-0.1V688c0,1.5,0.3,1.8,2.6,2.1v0.7h-9v-0.7
		c2.3-0.3,2.6-0.6,2.6-2.1v-15.3l-1.2,0.1c-3.3,0.2-3.8,0.9-5.1,5.4h-0.6l0.1-6.3h17.5L661.7,678.2z"/>
	<path class="st1" d="M673.4,671.6c4.9,0,7.7,3.2,7.7,7.8c0,0.4,0,0.8-0.1,1h-12.6c0.1,5.3,3,9,7.4,9c2.2,0,3.9-0.8,4.9-1.9v0.7
		c-1.2,1.8-3.8,3.1-7,3.1c-5.4,0-9.3-3.9-9.3-9.8C664.5,675.7,667.9,671.6,673.4,671.6z M668.4,679.6l9-0.1c0-0.3,0-0.5,0-0.9
		c0-3.5-1.3-6.2-4.1-6.2C670.3,672.5,668.5,675.1,668.4,679.6z"/>
	<path class="st1" d="M695.9,686.7l6-14.8h6v0.7c-2,0.3-2.3,0.6-2.3,2l0.4,13.6c0,1.3,0.4,1.7,2.4,2v0.7H700v-0.7
		c2-0.3,2.3-0.6,2.3-2l-0.4-13.8l-6.7,16.5h-1.3l-6.8-16.5l-0.1,13.4c0,1.6,0.2,2.1,2.3,2.4v0.7h-5.7v-0.7c2.1-0.4,2.2-0.8,2.3-2.5
		l0.4-12.5c0.1-1.7-0.3-2.3-2.3-2.6v-0.7h6.1L695.9,686.7z"/>
	<path class="st1" d="M719.8,690.8h-9.3v-0.7c2-0.3,2.4-0.6,2.4-2v-13.6c0-1.3-0.3-1.7-2.4-2v-0.7h8.8v0.7c-2.3,0.3-2.6,0.6-2.6,2.1
		v4.7h2.7c6,0,8.5,2,8.5,5.5C728,688.5,724.7,690.8,719.8,690.8z M716.7,680.3v9.7l2.2-0.1c3.1-0.1,5.1-1.8,5.1-4.7
		c0-2.9-1.6-4.8-5.1-4.9L716.7,680.3z M735,688.4c0,1.1,0.3,1.4,2.5,1.7v0.7h-8.8v-0.7c2.1-0.3,2.5-0.6,2.5-1.7v-14.2
		c0-1.1-0.3-1.4-2.5-1.7v-0.7h8.8v0.7c-2.2,0.3-2.5,0.6-2.5,1.7V688.4z"/>
</g>
<g class="st0">
	<path class="st1" d="M460.7,461.3h-1.2c-1.1-5.1-2.8-6.8-7.9-7.1l-2.2-0.1v12.1l2.2-0.1c2.6-0.2,3.3-1.3,3.9-4.4h1.1v10.3h-1.1
		c-0.6-3-1.4-4.2-3.9-4.4l-2.2-0.1v9c0,2,0.5,2.7,2.7,3.1v1.2h-14.7v-1.2c2-0.5,2.5-1,2.5-2.8v-20.2c0-1.8-0.5-2.3-2.5-2.8v-1.2
		h23.1L460.7,461.3z"/>
</g>
<g class="st0">
	<path class="st1" d="M472.7,477.4c0,1.5,0.4,1.9,2.1,2.3v1.2h-13.1v-1.2c1.8-0.4,2.1-0.8,2.1-2.3v-11.6c0-1.5-0.2-1.8-1.3-2.2
		l-0.9-0.3v-1.2l11-1.4V477.4z M463.7,455.1c0-2.3,1.9-3.9,4.2-3.9c2.3,0,4.2,1.6,4.2,3.9c0,2.3-1.9,3.9-4.2,3.9
		C465.5,459,463.7,457.3,463.7,455.1z"/>
	<path class="st1" d="M487.5,460.6c2.2,0,4.3,0.4,5.8,0.9l6.9-0.5v2.2l-5.4-0.5c2.2,0.7,3.7,2.4,3.7,4.3c0,3.8-4.5,6.1-10.7,6.1
		c-0.8,0-1.6-0.1-2.3-0.1c-1,0.2-1.7,0.7-1.7,1.5c0,1,1,1.5,3.2,1.5h3.2c6.4,0,9.5,2.6,9.5,6.7c0,4.5-5,7.6-12.1,7.6
		c-7.2,0-11.3-1.7-11.3-4.2c0-1.9,2.3-3.2,8.6-3.2c-4.9,0-8.1-1.9-8.1-4.9c0-2.9,2.7-5,7.7-5.4c-4.2-0.4-7.5-2.4-7.5-5.7
		C476.9,463.2,481.2,460.6,487.5,460.6z M487.6,488.8c2.8,0,4.6-1.2,4.6-3c0-1.5-1.1-2.5-3.6-2.5h-2.4c-1.7,0.1-2.8,1-2.8,2.6
		C483.5,487.6,485.1,488.8,487.6,488.8z M487.7,471.6c1.5,0,2.2-1.8,2.2-4.6c0-3-0.9-4.8-2.3-4.8c-1.5,0-2.2,1.8-2.2,4.6
		C485.4,469.7,486.3,471.6,487.7,471.6z"/>
	<path class="st1" d="M512.6,464.6c0.8-2.3,3.4-4,7.1-4c3.3,0,5.7,1.4,6.3,4c0.8-2.3,3.5-4,7.2-4c4.1,0,6.6,2.2,6.6,6.4v10.4
		c0,1.5,0.4,1.9,2.1,2.3v1.2h-12.7v-1.2c1.4-0.3,1.7-0.7,1.7-2.2V467c0-2-0.9-2.9-2.4-2.9c-1.2,0-2.1,0.5-2.4,1.3
		c0.1,0.4,0.1,0.8,0.1,1.3v10.8c0,1.5,0.3,1.9,1.7,2.2v1.2h-12.2v-1.2c1.4-0.3,1.7-0.7,1.7-2.2V467c0-2-0.9-2.9-2.4-2.9
		c-1.1,0-2,0.6-2.4,1.4v12c0,1.5,0.3,1.9,1.7,2.2v1.2h-12.7v-1.2c1.8-0.4,2.1-0.8,2.1-2.3v-11.6c0-1.5-0.2-1.8-1.3-2.2l-0.9-0.3
		v-1.2l10.9-1.4V464.6z"/>
	<path class="st1" d="M543.7,476.6c0-3,2.3-5.2,8.9-6.4l3.7-0.7v-2c0-3.5-1.6-4.9-4.6-4.9c-0.6,0-1.2,0.1-1.8,0.2
		c1.2,0.5,2.1,1.7,2.1,3.2c0,2-1.6,3.5-3.7,3.5c-2.1,0-3.7-1.4-3.7-3.4c0-2.9,3.5-5.5,10-5.5c6.7,0,10.4,2.3,10.4,7.3v8.8
		c0,1.5,0.7,2.2,1.7,2.2c0.3,0,0.5,0,0.7-0.1v1.2c-1,0.7-2.9,1.2-5,1.2c-2.7,0-5.5-1.2-5.9-3.6c-0.6,2.3-3.4,3.7-6.9,3.7
		C545.9,481.3,543.7,479.5,543.7,476.6z M554.3,478.2c1,0,1.8-0.5,2-1.4v-5.9l-0.7,0.1c-2.4,0.6-3.4,2.1-3.4,4.3
		C552.2,477.2,553.1,478.2,554.3,478.2z"/>
</g>
<path class="st1" d="M502.1,389.1c0,0-40.4,0.9-52.6-12.1s-15.6-29.5-15.6-57s3.5-44.1,15.6-57.1s52.6-12,52.6-12s40.4-0.9,52.6,12
	s15.6,29.5,15.6,57.1s-3.4,44.1-15.6,57.1S502.1,389.1,502.1,389.1z"/>
<g>
	<path class="st2" d="M487.4,364.4c8.1,0,14.6-6.5,14.6-14.6c0,0,0,0,0,0v-14.6h-14.6c-8.1,0.2-14.5,6.9-14.3,15
		C473.4,357.9,479.7,364.2,487.4,364.4z"/>
	<path class="st3" d="M472.8,320.5c0-8.1,6.6-14.6,14.6-14.6l0,0h14.6v29.3h-14.6C479.4,335.1,472.8,328.6,472.8,320.5
		C472.8,320.5,472.8,320.5,472.8,320.5z"/>
	<path class="st4" d="M472.8,291.2c0-8.1,6.5-14.6,14.6-14.6h14.6v29.3h-14.6C479.4,305.9,472.8,299.3,472.8,291.2z"/>
	<path class="st5" d="M502.1,276.6h14.6c8.1,0,14.6,6.6,14.6,14.6c0,8.1-6.6,14.6-14.6,14.6h-14.6V276.6z"/>
	<path class="st6" d="M531.3,320.5c0,8.1-6.5,14.6-14.6,14.6s-14.6-6.5-14.6-14.6s6.5-14.6,14.6-14.6c0,0,0,0,0,0
		C524.8,305.9,531.3,312.4,531.3,320.5L531.3,320.5z"/>
</g>
</svg>
