<?xml version="1.0" encoding="utf-8"?>
<!-- Generator: Adobe Illustrator 23.1.1, SVG Export Plug-In . SVG Version: 6.00 Build 0)  -->
<svg version="1.1" id="Слой_1" xmlns="http://www.w3.org/2000/svg" xmlns:xlink="http://www.w3.org/1999/xlink" x="0px" y="0px"
	 viewBox="0 0 1000 1000" style="enable-background:new 0 0 1000 1000;" xml:space="preserve">
<style type="text/css">
	.st0{enable-background:new    ;}
	.st1{fill:#113357;}
	.st2{fill-rule:evenodd;clip-rule:evenodd;fill:#67DBFF;}
	.st3{fill-rule:evenodd;clip-rule:evenodd;fill:#01A3FF;}
	.st4{fill-rule:evenodd;clip-rule:evenodd;fill:#0162FF;}
</style>
<title>soft</title>
<g class="st0">
	<path class="st1" d="M269,614.2c4.7,0,7.6,0.9,9,2l0.3,6.4h-0.6c-1-4.8-3.9-7.4-8.5-7.4c-6.1,0-9.8,5.1-9.8,12.9
		c0,7.6,3.5,14.1,9.9,14.1c4.2,0,7.3-2.3,8.4-7.5h0.6l-0.3,6.4c-1.3,1-4.9,2.1-9,2.1c-8.2,0-14.4-5.7-14.4-14.7
		C254.7,619.3,261.1,614.2,269,614.2z"/>
	<path class="st1" d="M281.8,633.4c0-5.8,4.3-9.8,9.7-9.8c5.4,0,9.6,3.8,9.6,9.7c0,5.8-4.3,9.8-9.7,9.8
		C286,643.2,281.8,639.3,281.8,633.4z M296.9,633.5c0-5.4-2.2-9-5.5-9c-3.4,0-5.4,3.4-5.4,8.7c0,5.4,2.2,9,5.5,9
		C294.9,642.2,296.9,638.8,296.9,633.5z"/>
</g>
<g class="st0">
	<path class="st1" d="M315.2,637.7c0-2.9-1.7-4.2-4.8-4.2h-1.9v-0.8h1.9c2.9,0,4.3-1.7,4.3-4.2c0-2.4-1.3-3.9-3.8-3.9
		c-2.6,0-4.4,1.8-5.2,5.3h-0.6l0.2-4.7c1.1-0.8,3-1.5,5.8-1.5c4.9,0,7.4,1.7,7.4,4.5c0,2.6-2.3,4.2-5.4,4.8c3.5,0.3,6.1,1.8,6.1,4.7
		c0,3.3-3.7,5.6-8.2,5.6c-2.8,0-4.9-0.7-6.2-1.6l-0.2-4.7h0.6c0.9,3.7,3,5.4,5.6,5.4S315.2,640.4,315.2,637.7z"/>
</g>
<g class="st0">
	<path class="st1" d="M340.3,648.7h-0.7c-1.5-5.1-1.9-5.9-5.3-5.9h-7.9c-3.4,0-3.8,0.8-5.4,5.9h-0.7l0.2-6.7h2.1
		c1.3-1.7,2.6-5.7,2.7-13.2l0-1.5c0-2.1-0.6-2.5-2.8-2.8v-0.7H340v0.7c-2.3,0.3-2.6,0.6-2.6,2.1V642h2.8L340.3,648.7z M333.5,642
		v-17.2h-7l-0.1,4.1c-0.1,7.9-1.5,11.5-2.6,13.2H333.5z"/>
	<path class="st1" d="M342.7,638.5c0-2.9,2.1-4.6,7.4-5.8l4-0.9v-2.1c0-3.7-1.9-5.1-4.8-5.1c-1.5,0-2.9,0.4-3.9,1.2h0.1
		c1,0,1.9,0.9,1.9,2c0,1.1-0.9,2-2.1,2c-1.1,0-2-0.9-2-2c0-2.4,3.2-4.2,7.4-4.2c4.3,0,7.2,1.8,7.2,5.8v10c0,1.7,0.9,2.4,2.1,2.4
		c0.3,0,0.6-0.1,0.9-0.1v0.6c-0.6,0.4-1.7,0.8-3,0.8c-1.9,0-3.3-1-3.7-2.8c-0.9,1.6-3.2,2.9-6,2.9
		C345,643.2,342.7,641.3,342.7,638.5z M350.3,641.5c1.7,0,3-0.6,3.8-1.9v-7l-2.1,0.5c-4.1,0.9-5.4,2.4-5.4,4.7
		S348.2,641.5,350.3,641.5z"/>
	<path class="st1" d="M370.5,642.1v0.7h-8.4v-0.7c2-0.3,2.4-0.6,2.4-2v-13.6c0-1.3-0.3-1.7-2.4-2v-0.7h8.4v0.7
		c-2,0.3-2.2,0.6-2.2,1.9v6.3h3.6c0.3-5.4,4.4-9.2,9.6-9.2c5.4,0,9.5,3.8,9.5,9.7c0,5.8-4.2,9.8-9.6,9.8c-5.4,0-9.4-3.8-9.5-9.6
		h-3.6v6.7C368.3,641.5,368.5,641.8,370.5,642.1z M386.7,633.5c0-5.3-2-9-5.4-9c-3.4,0-5.2,3.4-5.2,8.7s2,9,5.4,9
		C384.8,642.2,386.7,638.8,386.7,633.5z"/>
	<path class="st1" d="M411,642.1v0.7h-8.4v-0.7c2-0.3,2.4-0.6,2.4-2v-13.6c0-1.3-0.3-1.7-2.4-2v-0.7h8.4v0.7c-2,0.3-2.2,0.6-2.2,1.9
		v6.3l2.3,0l4.1-5.2c1.6-1.9,1.5-2.6-0.7-3v-0.7h6.9v0.7c-2,0.4-2.8,0.9-5.5,3.7l-2.3,2.5l5,7.6c1.8,2.8,2.6,3.6,3.8,3.8v0.6h-5.4
		l-5.9-9.2l-2.4,0v6.7C408.8,641.5,409,641.8,411,642.1z"/>
</g>
<g class="st0">
	<path class="st1" d="M434.8,643.2c-2.4,0-4.2-1-5-2.4v8.2c0,1.5,0.3,1.8,2.6,2.1v0.7h-8.8v-0.7c2.1-0.3,2.3-0.6,2.3-1.9v-22.6
		c0-1.3-0.3-1.7-2.3-2v-0.7l6.2-0.2v3.5c1.1-2.1,3.5-3.6,6.3-3.6c4.1,0,7.9,3.4,7.9,9.6C443.8,639.2,439.9,643.2,434.8,643.2z
		 M434.2,625.3c-2.1,0-3.6,0.9-4.5,2.5v12c0.6,1.3,2.3,2.2,4.1,2.2c3.7,0,6-3.4,6-8.4C439.8,628.5,437.5,625.3,434.2,625.3z"/>
</g>
<g class="st0">
	<path class="st1" d="M444.6,624.6v-0.7h9.1v0.7c-2.3,0.3-2.7,0.9-1.7,3.4l3.8,10.2l3.7-10.1c1-2.7,0.6-3.2-1.7-3.6v-0.7h6.3v0.7
		c-1.7,0.3-2.2,0.8-3.4,3.8l-4.2,10.4l-1.7,4.1l-3.1,8.9h-3.2v-0.1c1.7-2,4-5.9,5.4-8.9l-6.2-15.2
		C446.7,625.3,446.2,624.9,444.6,624.6z"/>
	<path class="st1" d="M482.8,630.2h-0.6c-1.3-4.6-1.8-5.3-5.1-5.4l-1.2-0.1V640c0,1.5,0.3,1.8,2.6,2.1v0.7h-9v-0.7
		c2.3-0.3,2.6-0.6,2.6-2.1v-15.3l-1.2,0.1c-3.3,0.2-3.8,0.9-5.1,5.4H465l0.1-6.3h17.5L482.8,630.2z"/>
	<path class="st1" d="M494.3,642.8h-9.3v-0.7c2-0.3,2.4-0.6,2.4-2v-13.6c0-1.3-0.3-1.7-2.4-2v-0.7h8.8v0.7c-2.3,0.3-2.6,0.6-2.6,2.1
		v4.7h2.7c6,0,8.5,2,8.5,5.5C502.5,640.5,499.2,642.8,494.3,642.8z M491.3,632.3v9.7l2.2-0.1c3.1-0.1,5.1-1.8,5.1-4.7
		c0-2.9-1.6-4.8-5.1-4.9L491.3,632.3z M509.6,640.4c0,1.1,0.3,1.4,2.5,1.7v0.7h-8.8v-0.7c2.1-0.3,2.5-0.6,2.5-1.7v-14.2
		c0-1.1-0.3-1.4-2.5-1.7v-0.7h8.8v0.7c-2.2,0.3-2.5,0.6-2.5,1.7V640.4z"/>
	<path class="st1" d="M523.8,623.6c4.9,0,7.7,3.2,7.7,7.8c0,0.4,0,0.8-0.1,1h-12.6c0.1,5.3,3,9,7.4,9c2.2,0,3.9-0.8,4.9-1.9v0.7
		c-1.2,1.8-3.8,3.1-7,3.1c-5.4,0-9.3-3.9-9.3-9.8C514.9,627.7,518.4,623.6,523.8,623.6z M518.8,631.6l9-0.1c0-0.3,0-0.5,0-0.9
		c0-3.5-1.3-6.2-4.1-6.2C520.8,624.5,518.9,627.1,518.8,631.6z"/>
	<path class="st1" d="M564,642.1v0.7h-8.4v-0.7c2-0.3,2.2-0.6,2.2-1.9v-15.5h-8.5v15.5c0,1.3,0.2,1.6,2.2,1.9v0.7h-8.4v-0.7
		c2-0.3,2.4-0.6,2.4-2v-13.6c0-1.3-0.3-1.7-2.4-2v-0.7H564v0.7c-2.1,0.3-2.4,0.6-2.4,2v13.6C561.6,641.5,561.9,641.8,564,642.1z"/>
	<path class="st1" d="M577.3,643.2c-2.4,0-4.2-1-5-2.4v8.2c0,1.5,0.3,1.8,2.6,2.1v0.7h-8.8v-0.7c2.1-0.3,2.3-0.6,2.3-1.9v-22.6
		c0-1.3-0.3-1.7-2.3-2v-0.7l6.2-0.2v3.5c1.1-2.1,3.5-3.6,6.3-3.6c4.1,0,7.9,3.4,7.9,9.6C586.4,639.2,582.4,643.2,577.3,643.2z
		 M576.7,625.3c-2.1,0-3.6,0.9-4.5,2.5v12c0.6,1.3,2.3,2.2,4.1,2.2c3.7,0,6-3.4,6-8.4C582.3,628.5,580,625.3,576.7,625.3z"/>
	<path class="st1" d="M589.8,633.4c0-5.8,4.3-9.8,9.7-9.8c5.4,0,9.6,3.8,9.6,9.7c0,5.8-4.3,9.8-9.7,9.8
		C594,643.2,589.8,639.3,589.8,633.4z M604.9,633.5c0-5.4-2.2-9-5.5-9c-3.4,0-5.4,3.4-5.4,8.7c0,5.4,2.2,9,5.5,9
		C602.9,642.2,604.9,638.8,604.9,633.5z"/>
	<path class="st1" d="M629.7,630.2h-0.6c-1.3-4.6-1.8-5.3-5.1-5.4l-1.2-0.1V640c0,1.5,0.3,1.8,2.6,2.1v0.7h-9v-0.7
		c2.3-0.3,2.6-0.6,2.6-2.1v-15.3l-1.2,0.1c-3.3,0.2-3.8,0.9-5.1,5.4h-0.6l0.1-6.3h17.5L629.7,630.2z"/>
	<path class="st1" d="M632.5,633.4c0-5.8,4.3-9.8,9.7-9.8c5.4,0,9.6,3.8,9.6,9.7c0,5.8-4.3,9.8-9.7,9.8
		C636.8,643.2,632.5,639.3,632.5,633.4z M647.6,633.5c0-5.4-2.2-9-5.5-9c-3.4,0-5.4,3.4-5.4,8.7c0,5.4,2.2,9,5.5,9
		C645.6,642.2,647.6,638.8,647.6,633.5z"/>
	<path class="st1" d="M672.4,630.2h-0.6c-1.3-4.6-1.8-5.3-5.1-5.4l-1.2-0.1V640c0,1.5,0.3,1.8,2.6,2.1v0.7h-9v-0.7
		c2.3-0.3,2.6-0.6,2.6-2.1v-15.3l-1.2,0.1c-3.3,0.2-3.8,0.9-5.1,5.4h-0.6l0.1-6.3h17.5L672.4,630.2z"/>
	<path class="st1" d="M683.1,642.1v0.7h-8.4v-0.7c2-0.3,2.4-0.6,2.4-2v-13.6c0-1.3-0.3-1.7-2.4-2v-0.7h8.4v0.7
		c-2,0.3-2.2,0.6-2.2,1.9v11.9l8.8-11.2v-0.7c0-1.3-0.3-1.6-2.2-1.9v-0.7h8.4v0.7c-2.1,0.3-2.4,0.6-2.4,2v13.6c0,1.3,0.3,1.7,2.4,2
		v0.7h-8.4v-0.7c2-0.3,2.2-0.6,2.2-1.9v-11.9l-8.8,11.2v0.7C680.9,641.5,681.1,641.8,683.1,642.1z"/>
	<path class="st1" d="M719.2,642.1v0.7h-8.4v-0.7c2-0.3,2.2-0.6,2.2-1.9v-15.5h-8.5v15.5c0,1.3,0.2,1.6,2.2,1.9v0.7h-8.4v-0.7
		c2-0.3,2.4-0.6,2.4-2v-13.6c0-1.3-0.3-1.7-2.4-2v-0.7h20.9v0.7c-2.1,0.3-2.4,0.6-2.4,2v13.6C716.8,641.5,717.1,641.8,719.2,642.1z"
		/>
	<path class="st1" d="M730.7,642.8h-9.3v-0.7c2-0.3,2.4-0.6,2.4-2v-13.6c0-1.3-0.3-1.7-2.4-2v-0.7h8.8v0.7c-2.3,0.3-2.6,0.6-2.6,2.1
		v4.7h2.7c6,0,8.5,2,8.5,5.5C738.9,640.5,735.6,642.8,730.7,642.8z M727.7,632.3v9.7l2.2-0.1c3.1-0.1,5.1-1.8,5.1-4.7
		c0-2.9-1.6-4.8-5.1-4.9L727.7,632.3z M746,640.4c0,1.1,0.3,1.4,2.5,1.7v0.7h-8.8v-0.7c2.1-0.3,2.5-0.6,2.5-1.7v-14.2
		c0-1.1-0.3-1.4-2.5-1.7v-0.7h8.8v0.7c-2.2,0.3-2.5,0.6-2.5,1.7V640.4z"/>
</g>
<g class="st0">
	<path class="st1" d="M447.6,461.3h-1.2c-1.1-5.1-2.8-6.8-7.9-7.1l-2.2-0.1v12.1l2.2-0.1c2.6-0.2,3.3-1.3,3.9-4.4h1.1v10.3h-1.1
		c-0.6-3-1.4-4.2-3.9-4.4l-2.2-0.1v9c0,2,0.5,2.7,2.7,3.1v1.2h-14.7v-1.2c2-0.5,2.5-1,2.5-2.8v-20.2c0-1.8-0.5-2.3-2.5-2.8v-1.2
		h23.1L447.6,461.3z"/>
</g>
<g class="st0">
	<path class="st1" d="M458.9,467.5c1.5-4.9,3.2-6.8,5.5-6.8c2.1,0,3.2,1.9,3.2,4.3c0,1.2-0.2,2.2-0.5,2.9c-0.7-0.3-2.2-0.6-3.7-0.6
		c-1.9,0-3.8,0.4-4.5,0.9l0,8.9c0,1.6,0.4,2.1,2.4,2.5v1.2H448v-1.2c1.8-0.4,2.1-0.8,2.1-2.3v-11.6c0-1.5-0.2-1.8-1.3-2.2l-0.9-0.3
		v-1.2l10.9-1.4L458.9,467.5z"/>
</g>
<g class="st0">
	<path class="st1" d="M469.2,476.6c0-3,2.3-5.2,8.9-6.4l3.7-0.7v-2c0-3.5-1.6-4.9-4.6-4.9c-0.6,0-1.2,0.1-1.8,0.2
		c1.2,0.5,2.1,1.7,2.1,3.2c0,2-1.6,3.5-3.7,3.5c-2.1,0-3.7-1.4-3.7-3.4c0-2.9,3.5-5.5,10-5.5c6.7,0,10.4,2.3,10.4,7.3v8.8
		c0,1.5,0.7,2.2,1.7,2.2c0.3,0,0.5,0,0.7-0.1v1.2c-1,0.7-2.9,1.2-5,1.2c-2.7,0-5.5-1.2-5.9-3.6c-0.6,2.3-3.4,3.7-6.9,3.7
		C471.4,481.3,469.2,479.5,469.2,476.6z M479.8,478.2c1,0,1.8-0.5,2-1.4v-5.9l-0.7,0.1c-2.4,0.6-3.4,2.1-3.4,4.3
		C477.7,477.2,478.6,478.2,479.8,478.2z"/>
	<path class="st1" d="M505,464.6c0.8-2.3,3.4-4,7.1-4c3.3,0,5.7,1.4,6.3,4c0.8-2.3,3.5-4,7.2-4c4.1,0,6.6,2.2,6.6,6.4v10.4
		c0,1.5,0.4,1.9,2.1,2.3v1.2h-12.7v-1.2c1.4-0.3,1.7-0.7,1.7-2.2V467c0-2-0.9-2.9-2.4-2.9c-1.2,0-2.1,0.5-2.4,1.3
		c0.1,0.4,0.1,0.8,0.1,1.3v10.8c0,1.5,0.3,1.9,1.7,2.2v1.2h-12.2v-1.2c1.4-0.3,1.7-0.7,1.7-2.2V467c0-2-0.9-2.9-2.4-2.9
		c-1.1,0-2,0.6-2.4,1.4v12c0,1.5,0.3,1.9,1.7,2.2v1.2h-12.7v-1.2c1.8-0.4,2.1-0.8,2.1-2.3v-11.6c0-1.5-0.2-1.8-1.3-2.2l-0.9-0.3
		v-1.2l10.9-1.4V464.6z"/>
	<path class="st1" d="M547.5,460.6c5.9,0,9.5,3.4,9.5,8.6c0,0.6-0.1,1.2-0.1,1.6h-11.7c0.8,4.7,3.7,7,7.3,7c1.7,0,3.2-0.6,4.2-1.5
		l0,1.2c-1.6,2.5-5,3.8-9.1,3.8c-6.2,0-11.4-3.8-11.4-10.3C536.2,464.8,540.8,460.6,547.5,460.6z M545,469.4l4.5-0.1
		c0-0.4,0-1,0-1.8c0-3.5-0.6-5.3-2-5.3c-1.7,0-2.5,2.1-2.5,5.7C545,468.4,545,468.9,545,469.4z"/>
	<path class="st1" d="M569.8,467.5c1.5-4.9,3.2-6.8,5.5-6.8c2.1,0,3.2,1.9,3.2,4.3c0,1.2-0.2,2.2-0.5,2.9c-0.7-0.3-2.2-0.6-3.7-0.6
		c-1.9,0-3.8,0.4-4.5,0.9l0,8.9c0,1.6,0.4,2.1,2.4,2.5v1.2h-13.4v-1.2c1.8-0.4,2.1-0.8,2.1-2.3v-11.6c0-1.5-0.2-1.8-1.3-2.2
		l-0.9-0.3v-1.2l10.9-1.4L569.8,467.5z"/>
</g>
<g>
	<path class="st2" d="M503.3,297h46.9v-46h-92.9v0.5L503.3,297z"/>
	<path class="st3" d="M503.3,297h-46.9v46h92.9v-0.5L503.3,297z"/>
	<path class="st4" d="M456.8,342.5h46.5V389L456.8,342.5z"/>
</g>
</svg>
