<?xml version="1.0" encoding="utf-8"?>
<!-- Generator: Adobe Illustrator 23.1.1, SVG Export Plug-In . SVG Version: 6.00 Build 0)  -->
<svg version="1.1" id="Слой_1" xmlns="http://www.w3.org/2000/svg" xmlns:xlink="http://www.w3.org/1999/xlink" x="0px" y="0px"
	 viewBox="0 0 1000 1000" style="enable-background:new 0 0 1000 1000;" xml:space="preserve">
<style type="text/css">
	.st0{enable-background:new    ;}
	.st1{fill:#113357;}
	.st2{fill-rule:evenodd;clip-rule:evenodd;fill:#113357;}
</style>
<title>soft</title>
<g class="st0">
	<path class="st1" d="M444,452.2c3.8,0,7.2,0.6,8.9,1.6l0.1,8.9h-1.2c-1-4.6-3.7-8.8-7.4-8.8c-4.5,0-7,5.2-7,13
		c0,6.9,2.2,12.9,6.3,12.9c1,0,1.9-0.3,2.3-0.7v-8.6c0-1.6-0.4-2.2-2.4-2.5v-1.2h13v1.2c-1.8,0.3-2.3,0.8-2.3,2.5v8.3
		c-2.5,1.7-6.8,2.6-11.1,2.6c-9.9,0-16.3-5.9-16.3-14.4C427,457.2,434.6,452.2,444,452.2z"/>
	<path class="st1" d="M468.9,477.4c0,1.5,0.4,1.9,2.1,2.3v1.2h-13.1v-1.2c1.8-0.4,2.1-0.8,2.1-2.3v-11.6c0-1.5-0.2-1.8-1.3-2.2
		l-0.9-0.3v-1.2l11-1.4L468.9,477.4L468.9,477.4z M459.9,455.1c0-2.3,1.9-3.9,4.2-3.9c2.3,0,4.2,1.6,4.2,3.9s-1.9,3.9-4.2,3.9
		C461.7,459,459.9,457.3,459.9,455.1z"/>
	<path class="st1" d="M474.5,463.3h-2v-1.2l9.6-6.8h1.1v6.1l4.3-0.4v2.2l-4.3-0.4v11.8c0,2.4,1,3.4,2.5,3.4c0.8,0,1.5-0.3,1.9-0.7
		v1.2c-1,1.4-3.5,2.7-6.4,2.7c-3.9,0-6.8-2-6.8-6.7L474.5,463.3L474.5,463.3z"/>
	<path class="st1" d="M503.2,479.7v1.2h-14.3v-1.2c2-0.5,2.5-1,2.5-2.8v-20.2c0-1.8-0.4-2.3-2.5-2.8v-1.2h14.3v1.2
		c-1.8,0.4-2.3,1-2.3,2.7v9.1h8.5v-9.1c0-1.7-0.4-2.3-2.3-2.7v-1.2h14.3v1.2c-2,0.4-2.5,1-2.5,2.8v20.2c0,1.8,0.5,2.3,2.5,2.8v1.2
		h-14.3v-1.2c1.9-0.4,2.3-0.9,2.3-2.7v-9.7h-8.5v9.7C500.9,478.7,501.4,479.3,503.2,479.7z"/>
	<path class="st1" d="M533.8,474.8c0,2,0.9,3,2.4,3c1.1,0,2-0.5,2.3-1.3v-10.7c0-1.5-0.2-1.8-1.3-2.2l-0.9-0.3v-1.2l11-1.4v15.6
		c0,1.5,0.2,1.8,1.3,2.2l0.9,0.3v1.2l-10.9,1.2v-3.8c-0.9,2.4-3.5,4-7.1,4c-4,0-6.6-2.1-6.6-6.6v-9c0-1.5-0.2-1.8-1.3-2.2l-0.9-0.3
		v-1.2l11-1.4L533.8,474.8L533.8,474.8z"/>
	<path class="st1" d="M566.7,481.3c-2.8,0-5.1-1.3-5.9-3l-2.5,2.6h-5.7v-24.5c0-1.5-0.2-1.8-1.3-2.2l-0.8-0.3v-1.2l11-1.4l-0.1,13.2
		c0.9-2.5,3.2-3.9,6.4-3.9c4.6,0,8,3.7,8,10.2C575.8,477.9,571.6,481.3,566.7,481.3z M563.6,464.1c-1,0-1.8,0.6-2.1,1.3v12
		c0.3,0.6,1,1.2,2,1.2c1.9,0,3.2-2.3,3.2-7.2C566.7,466.5,565.4,464.1,563.6,464.1z"/>
</g>
<g>
	<path class="st2" d="M501.2,250.8c-39.2,0-70.9,31.8-70.9,71c0,30.5,19.5,57.6,48.5,67.2c3.5,0.6,4.8-1.5,4.8-3.4
		c0-1.7-0.1-7.3-0.1-13.2c-19.7,4.3-23.9-8.4-23.9-8.4c-3.2-8.2-7.9-10.4-7.9-10.4c-6.4-4.4,0.5-4.3,0.5-4.3
		c7.1,0.5,10.9,7.3,10.9,7.3c6.3,10.8,16.6,7.7,20.6,5.9c0.6-4.6,2.5-7.7,4.5-9.5c-15.8-1.8-32.3-7.9-32.3-35.1
		c-0.1-7,2.5-13.8,7.3-19c-0.7-1.8-3.2-9,0.7-18.8c0,0,6-1.9,19.5,7.3c11.6-3.2,23.9-3.2,35.5,0c13.5-9.2,19.5-7.3,19.5-7.3
		c3.9,9.8,1.4,17,0.7,18.8c4.8,5.2,7.4,12,7.3,19c0,27.2-16.6,33.2-32.4,35c2.5,2.2,4.8,6.5,4.8,13.1c0,9.5-0.1,17.1-0.1,19.5
		c0,1.9,1.3,4.1,4.9,3.4c37.2-12.4,57.2-52.6,44.8-89.8C558.8,270.3,531.7,250.8,501.2,250.8L501.2,250.8z"/>
	<path class="st1" d="M457.2,352.6c-0.1,0.4-0.7,0.5-1.2,0.2s-0.8-0.7-0.6-1.1s0.7-0.5,1.2-0.2S457.4,352.3,457.2,352.6z"/>
	<path class="st1" d="M460.1,355.8c-0.3,0.3-1,0.2-1.4-0.3c-0.5-0.4-0.5-1-0.2-1.5c0.4-0.3,1-0.2,1.5,0.3S460.4,355.5,460.1,355.8
		L460.1,355.8z"/>
	<path class="st1" d="M462.9,359.9c-0.4,0.3-1.1,0-1.6-0.6s-0.4-1.4,0-1.7s1.1,0,1.6,0.6C463.3,358.7,463.3,359.4,462.9,359.9z"/>
	<path class="st1" d="M466.7,363.9c-0.6,0.4-1.4,0.3-1.8-0.3c-0.6-0.4-0.8-1.2-0.4-1.8c0.4-0.4,1.2-0.3,1.8,0.3
		S467.1,363.4,466.7,363.9z"/>
	<path class="st1" d="M472,366.2c-0.2,0.5-1,0.8-1.8,0.6s-1.3-0.9-1.2-1.5s1-0.8,1.8-0.6S472.2,365.6,472,366.2z"/>
	<path class="st1" d="M477.8,366.6c0,0.6-0.7,1.1-1.5,1.1s-1.5-0.5-1.5-1s0.7-1.1,1.5-1.1S477.8,366,477.8,366.6z"/>
	<path class="st1" d="M483.2,365.7c0.1,0.6-0.5,1.2-1.3,1.3s-1.6-0.2-1.7-0.8s0.5-1.2,1.3-1.3S483.1,365.1,483.2,365.7z"/>
</g>
<g>
	<path class="st1" d="M192.6,643.1c-3.5,0-6.4-1.1-8-2.3l-0.3-5.4h0.6c1.1,4.8,3.9,6.7,7.5,6.7c4.6,0,7.3-2.5,7.3-7.2
		c0-4.3-2.6-6.7-7.4-6.7h-2.9v-0.8h2.9c4.1,0,6.4-2.1,6.4-6c0-3.5-1.5-6.3-5.7-6.3c-4,0-6.3,2.4-7.4,6.6H185l0.3-5.4
		c1.5-1.2,4.2-2.2,7.9-2.2c6.4,0,9.9,2.5,9.9,6.8c0,3.8-3.7,6.1-8.1,6.6c5,0.3,9.2,2.3,9.2,7.1C204.2,640.5,198.9,643.1,192.6,643.1
		z"/>
	<path class="st1" d="M215.4,642v0.7H207V642c2-0.3,2.4-0.6,2.4-2v-13.6c0-1.3-0.3-1.7-2.4-2v-0.7h8.4v0.7c-2,0.3-2.2,0.6-2.2,1.9
		v6.3h8.7v-6.3c0-1.3-0.3-1.6-2.2-1.9v-0.7h8.4v0.7c-2.1,0.3-2.4,0.6-2.4,2V640c0,1.3,0.3,1.7,2.4,2v0.7h-8.4V642
		c2-0.3,2.2-0.6,2.2-1.9v-6.7h-8.7v6.7C213.2,641.4,213.4,641.7,215.4,642z"/>
	<path class="st1" d="M230.9,638.4c0-2.9,2.1-4.6,7.4-5.8l4-0.9v-2.1c0-3.7-1.9-5.1-4.8-5.1c-1.5,0-2.9,0.4-3.9,1.2h0.1
		c1,0,1.9,0.9,1.9,2c0,1.1-0.9,2-2.1,2c-1.1,0-2-0.9-2-2c0-2.4,3.2-4.2,7.4-4.2c4.3,0,7.2,1.8,7.2,5.8v10c0,1.7,0.9,2.4,2.1,2.4
		c0.3,0,0.6-0.1,0.9-0.1v0.6c-0.6,0.4-1.7,0.8-3,0.8c-1.9,0-3.3-1-3.7-2.8c-0.9,1.6-3.2,2.9-6,2.9
		C233.2,643.1,230.9,641.2,230.9,638.4z M238.4,641.4c1.7,0,3-0.6,3.8-1.9v-7l-2.1,0.5c-4.1,0.9-5.4,2.4-5.4,4.7
		S236.4,641.4,238.4,641.4z"/>
	<path class="st1" d="M258.7,642v0.7h-8.4V642c2-0.3,2.4-0.6,2.4-2v-13.6c0-1.3-0.3-1.7-2.4-2v-0.7h8.4v0.7c-2,0.3-2.2,0.6-2.2,1.9
		v6.3h3.6c0.3-5.4,4.4-9.2,9.6-9.2c5.4,0,9.5,3.8,9.5,9.7c0,5.8-4.2,9.8-9.6,9.8c-5.4,0-9.4-3.8-9.5-9.6h-3.6v6.7
		C256.5,641.4,256.7,641.7,258.7,642z M274.9,633.4c0-5.3-2-9-5.4-9c-3.4,0-5.2,3.4-5.2,8.7s2,9,5.4,9
		C273,642.1,274.9,638.7,274.9,633.4z"/>
	<path class="st1" d="M291.3,633.2c0-5.6,4.1-9.8,9.7-9.8c4.2,0,6.2,2.1,6.2,4.3c0,1.2-0.9,2.1-2,2.1c-1.2,0-2-0.9-2-2
		c0-1.2,0.9-2,1.9-2c0.1,0,0.3,0,0.4,0c-0.8-0.8-2.1-1.2-3.6-1.2c-4,0-6.5,3.2-6.5,7.9c0,5.5,3.2,8.8,7.2,8.8c2.2,0,3.8-0.8,4.9-1.9
		v0.7c-1.2,1.8-3.8,3.1-6.9,3.1C295.2,643.1,291.3,639.1,291.3,633.2z"/>
	<path class="st1" d="M319.1,623.5c4.9,0,7.7,3.2,7.7,7.8c0,0.4,0,0.8-0.1,1h-12.6c0.1,5.3,3,9,7.4,9c2.2,0,3.9-0.8,4.9-1.9v0.7
		c-1.2,1.8-3.8,3.1-7,3.1c-5.4,0-9.3-3.9-9.3-9.8C310.2,627.6,313.7,623.5,319.1,623.5z M314.1,631.5l9-0.1c0-0.3,0-0.5,0-0.9
		c0-3.5-1.3-6.2-4.1-6.2C316.1,624.4,314.2,627,314.1,631.5z"/>
	<path class="st1" d="M338,642v0.7h-8.4V642c2-0.3,2.4-0.6,2.4-2v-13.6c0-1.3-0.3-1.7-2.4-2v-0.7h8.4v0.7c-2,0.3-2.2,0.6-2.2,1.9
		v6.3l2.3,0l4.1-5.2c1.6-1.9,1.5-2.6-0.7-3v-0.7h6.9v0.7c-2,0.4-2.8,0.9-5.5,3.7l-2.3,2.5l5,7.6c1.8,2.8,2.6,3.6,3.8,3.8v0.6H344
		l-5.9-9.2l-2.4,0v6.7C335.7,641.4,336,641.7,338,642z"/>
	<path class="st1" d="M361.7,643.1c-2.4,0-4.2-1-5-2.4v8.2c0,1.5,0.3,1.8,2.6,2.1v0.7h-8.8V651c2.1-0.3,2.3-0.6,2.3-1.9v-22.6
		c0-1.3-0.3-1.7-2.3-2v-0.7l6.2-0.2v3.5c1.1-2.1,3.5-3.6,6.3-3.6c4.1,0,7.9,3.4,7.9,9.6C370.8,639.1,366.8,643.1,361.7,643.1z
		 M361.2,625.2c-2.1,0-3.6,0.9-4.5,2.5v12c0.6,1.3,2.3,2.2,4.1,2.2c3.7,0,6-3.4,6-8.4C366.8,628.4,364.5,625.2,361.2,625.2z"/>
	<path class="st1" d="M383.1,623.5c4.9,0,7.7,3.2,7.7,7.8c0,0.4,0,0.8-0.1,1h-12.6c0.1,5.3,3,9,7.4,9c2.2,0,3.9-0.8,4.9-1.9v0.7
		c-1.2,1.8-3.8,3.1-7,3.1c-5.4,0-9.3-3.9-9.3-9.8C374.2,627.6,377.6,623.5,383.1,623.5z M378.1,631.5l9-0.1c0-0.3,0-0.5,0-0.9
		c0-3.5-1.3-6.2-4.1-6.2C380,624.4,378.2,627,378.1,631.5z"/>
	<path class="st1" d="M411.3,630.1h-0.6c-1.3-4.6-1.8-5.3-5.1-5.4l-1.2-0.1v15.3c0,1.5,0.3,1.8,2.6,2.1v0.7h-9V642
		c2.3-0.3,2.6-0.6,2.6-2.1v-15.3l-1.2,0.1c-3.3,0.2-3.8,0.9-5.1,5.4h-0.6l0.1-6.3h17.5L411.3,630.1z"/>
	<path class="st1" d="M422.8,642.7h-9.3V642c2-0.3,2.4-0.6,2.4-2v-13.6c0-1.3-0.3-1.7-2.4-2v-0.7h8.8v0.7c-2.3,0.3-2.6,0.6-2.6,2.1
		v4.7h2.7c6,0,8.5,2,8.5,5.5C431,640.4,427.7,642.7,422.8,642.7z M419.7,632.2v9.7l2.2-0.1c3.1-0.1,5.1-1.8,5.1-4.7
		c0-2.9-1.6-4.8-5.1-4.9L419.7,632.2z M438,640.3c0,1.1,0.3,1.4,2.5,1.7v0.7h-8.8V642c2.1-0.3,2.5-0.6,2.5-1.7v-14.2
		c0-1.1-0.3-1.4-2.5-1.7v-0.7h8.8v0.7c-2.2,0.3-2.5,0.6-2.5,1.7V640.3z"/>
	<path class="st1" d="M443.7,646.8c1.5-0.4,2.7-1.5,2.7-2.9c0-1.4-1.2-2.4-2.7-2.5c0-1.7,0.9-3.1,2.5-3.1c1.6,0,2.6,1.4,2.6,3.5
		c0,3-2.4,5.2-4.9,5.7L443.7,646.8z"/>
	<path class="st1" d="M462.8,626.2c0-1.2-0.4-1.6-2.5-1.8v-0.7h8.8v0.7c-2.1,0.2-2.4,0.5-2.4,1.7v3c0,3.3,1.4,4.7,4.1,4.7
		c1.4,0,3-0.4,3.9-0.9v-6.9c0-1.2-0.3-1.5-2.5-1.7v-0.7h8.9v0.7c-2.2,0.2-2.5,0.5-2.5,1.8v14c0,1.2,0.4,1.5,2.5,1.8v0.7h-9.3V642
		c2.5-0.2,2.9-0.5,2.9-1.8v-6.5c-1.3,0.8-3.4,1.4-5.5,1.4c-3.8,0-6.4-1.9-6.4-6.1V626.2z"/>
	<path class="st1" d="M500.7,630.1h-0.6c-1.3-4.6-1.8-5.3-5.1-5.4l-1.2-0.1v15.3c0,1.5,0.3,1.8,2.6,2.1v0.7h-9V642
		c2.3-0.3,2.6-0.6,2.6-2.1v-15.3l-1.2,0.1c-3.3,0.2-3.8,0.9-5.1,5.4h-0.6l0.1-6.3h17.5L500.7,630.1z"/>
	<path class="st1" d="M503.5,633.3c0-5.8,4.3-9.8,9.7-9.8c5.4,0,9.6,3.8,9.6,9.7c0,5.8-4.3,9.8-9.7,9.8
		C507.8,643.1,503.5,639.2,503.5,633.3z M518.6,633.4c0-5.4-2.2-9-5.5-9c-3.4,0-5.4,3.4-5.4,8.7c0,5.4,2.2,9,5.5,9
		C516.6,642.1,518.6,638.7,518.6,633.4z"/>
	<path class="st1" d="M536.1,643.1c-6.2,0-9.6-4.7-9.6-11.8c0-6.2,1.5-10.2,3.9-12.5c2.1-2.1,4.6-3.1,8.8-3.6
		c4.1-0.4,5.2-0.7,5.5-1.8h0.7c-0.3,3.5-1.8,4.6-6.7,5.2l-2.4,0.3c-6.6,0.8-8.6,4.3-8.6,8.7c0,0.8,0,1.6,0.1,2.4
		c1.2-3.6,4.2-6.3,8.6-6.3c5.4,0,9.5,3.7,9.5,9.6C546,639.1,541.3,643.1,536.1,643.1z M536.3,624.6c-3.6,0-5.5,3.4-5.5,8.7
		c0,5.1,2,8.8,5.5,8.8c3.6,0,5.5-3.4,5.5-8.6C541.8,628.3,539.8,624.6,536.3,624.6z"/>
	<path class="st1" d="M568.7,643.1c-2.4,0-4.2-1-5-2.4v8.2c0,1.5,0.3,1.8,2.6,2.1v0.7h-8.8V651c2.1-0.3,2.3-0.6,2.3-1.9v-22.6
		c0-1.3-0.3-1.7-2.3-2v-0.7l6.2-0.2v3.5c1.1-2.1,3.5-3.6,6.3-3.6c4.1,0,7.9,3.4,7.9,9.6C577.7,639.1,573.8,643.1,568.7,643.1z
		 M568.1,625.2c-2.1,0-3.6,0.9-4.5,2.5v12c0.6,1.3,2.3,2.2,4.1,2.2c3.7,0,6-3.4,6-8.4C573.7,628.4,571.4,625.2,568.1,625.2z"/>
	<path class="st1" d="M581,638.4c0-2.9,2.1-4.6,7.4-5.8l4-0.9v-2.1c0-3.7-1.9-5.1-4.8-5.1c-1.5,0-2.9,0.4-3.9,1.2h0.1
		c1,0,1.9,0.9,1.9,2c0,1.1-0.9,2-2.1,2c-1.1,0-2-0.9-2-2c0-2.4,3.2-4.2,7.4-4.2c4.3,0,7.2,1.8,7.2,5.8v10c0,1.7,0.9,2.4,2.1,2.4
		c0.3,0,0.6-0.1,0.9-0.1v0.6c-0.6,0.4-1.7,0.8-3,0.8c-1.9,0-3.3-1-3.7-2.8c-0.9,1.6-3.2,2.9-6,2.9C583.4,643.1,581,641.2,581,638.4z
		 M588.6,641.4c1.7,0,3-0.6,3.8-1.9v-7l-2.1,0.5c-4.1,0.9-5.4,2.4-5.4,4.7S586.5,641.4,588.6,641.4z"/>
	<path class="st1" d="M611.7,637.6c0-2.9-1.7-4.2-4.8-4.2H605v-0.8h1.9c2.9,0,4.3-1.7,4.3-4.2c0-2.4-1.3-3.9-3.8-3.9
		c-2.6,0-4.4,1.8-5.2,5.3h-0.6l0.2-4.7c1.1-0.8,3-1.5,5.8-1.5c4.9,0,7.4,1.7,7.4,4.5c0,2.6-2.3,4.2-5.4,4.8c3.5,0.3,6.1,1.8,6.1,4.7
		c0,3.3-3.7,5.6-8.2,5.6c-2.8,0-4.9-0.7-6.2-1.6l-0.2-4.7h0.6c0.9,3.7,3,5.4,5.6,5.4S611.7,640.3,611.7,637.6z"/>
	<path class="st1" d="M629.4,643.1c-2.4,0-4.2-1-5-2.4v8.2c0,1.5,0.3,1.8,2.6,2.1v0.7h-8.8V651c2.1-0.3,2.3-0.6,2.3-1.9v-22.6
		c0-1.3-0.3-1.7-2.3-2v-0.7l6.2-0.2v3.5c1.1-2.1,3.5-3.6,6.3-3.6c4.1,0,7.9,3.4,7.9,9.6C638.4,639.1,634.5,643.1,629.4,643.1z
		 M628.8,625.2c-2.1,0-3.6,0.9-4.5,2.5v12c0.6,1.3,2.3,2.2,4.1,2.2c3.7,0,6-3.4,6-8.4C634.4,628.4,632.1,625.2,628.8,625.2z"/>
	<path class="st1" d="M641.7,638.4c0-2.9,2.1-4.6,7.4-5.8l4-0.9v-2.1c0-3.7-1.9-5.1-4.8-5.1c-1.5,0-2.9,0.4-3.9,1.2h0.1
		c1,0,1.9,0.9,1.9,2c0,1.1-0.9,2-2.1,2c-1.1,0-2-0.9-2-2c0-2.4,3.2-4.2,7.4-4.2c4.3,0,7.2,1.8,7.2,5.8v10c0,1.7,0.9,2.4,2.1,2.4
		c0.3,0,0.6-0.1,0.9-0.1v0.6c-0.6,0.4-1.7,0.8-3,0.8c-1.9,0-3.3-1-3.7-2.8c-0.9,1.6-3.2,2.9-6,2.9
		C644.1,643.1,641.7,641.2,641.7,638.4z M649.3,641.4c1.7,0,3-0.6,3.8-1.9v-7l-2.1,0.5c-4.1,0.9-5.4,2.4-5.4,4.7
		S647.3,641.4,649.3,641.4z"/>
	<path class="st1" d="M671.5,643.1c-6.2,0-9.6-4.7-9.6-11.8c0-6.2,1.5-10.2,3.9-12.5c2.1-2.1,4.6-3.1,8.8-3.6
		c4.1-0.4,5.2-0.7,5.5-1.8h0.7c-0.3,3.5-1.8,4.6-6.7,5.2l-2.4,0.3c-6.6,0.8-8.6,4.3-8.6,8.7c0,0.8,0,1.6,0.1,2.4
		c1.2-3.6,4.2-6.3,8.6-6.3c5.4,0,9.5,3.7,9.5,9.6C681.4,639.1,676.7,643.1,671.5,643.1z M671.7,624.6c-3.6,0-5.5,3.4-5.5,8.7
		c0,5.1,2,8.8,5.5,8.8c3.6,0,5.5-3.4,5.5-8.6C677.2,628.3,675.2,624.6,671.7,624.6z"/>
	<path class="st1" d="M684.8,633.3c0-5.8,4.3-9.8,9.7-9.8c5.4,0,9.6,3.8,9.6,9.7c0,5.8-4.3,9.8-9.7,9.8
		C689,643.1,684.8,639.2,684.8,633.3z M699.9,633.4c0-5.4-2.2-9-5.5-9c-3.4,0-5.4,3.4-5.4,8.7c0,5.4,2.2,9,5.5,9
		C697.9,642.1,699.9,638.7,699.9,633.4z"/>
	<path class="st1" d="M724.7,630.1h-0.6c-1.3-4.6-1.8-5.3-5.1-5.4l-1.2-0.1v15.3c0,1.5,0.3,1.8,2.6,2.1v0.7h-9V642
		c2.3-0.3,2.6-0.6,2.6-2.1v-15.3l-1.2,0.1c-3.3,0.2-3.8,0.9-5.1,5.4h-0.6l0.1-6.3h17.5L724.7,630.1z"/>
	<path class="st1" d="M728.9,626.2c0-1.2-0.4-1.6-2.5-1.8v-0.7h8.8v0.7c-2.1,0.2-2.4,0.5-2.4,1.7v3c0,3.3,1.4,4.7,4.1,4.7
		c1.4,0,3-0.4,3.9-0.9v-6.9c0-1.2-0.3-1.5-2.5-1.7v-0.7h8.9v0.7c-2.2,0.2-2.5,0.5-2.5,1.8v14c0,1.2,0.4,1.5,2.5,1.8v0.7h-9.3V642
		c2.5-0.2,2.9-0.5,2.9-1.8v-6.5c-1.3,0.8-3.4,1.4-5.5,1.4c-3.8,0-6.4-1.9-6.4-6.1V626.2z"/>
	<path class="st1" d="M757.9,642v0.7h-8.4V642c2-0.3,2.4-0.6,2.4-2v-13.6c0-1.3-0.3-1.7-2.4-2v-0.7h8.4v0.7c-2,0.3-2.2,0.6-2.2,1.9
		v11.9l8.8-11.2v-0.7c0-1.3-0.3-1.6-2.2-1.9v-0.7h8.4v0.7c-2.1,0.3-2.4,0.6-2.4,2V640c0,1.3,0.3,1.7,2.4,2v0.7h-8.4V642
		c2-0.3,2.2-0.6,2.2-1.9v-11.9l-8.8,11.2v0.7C755.7,641.4,755.9,641.7,757.9,642z"/>
	<path class="st1" d="M781.5,642v0.7h-8.4V642c2-0.3,2.4-0.6,2.4-2v-13.6c0-1.3-0.3-1.7-2.4-2v-0.7h8.4v0.7c-2,0.3-2.2,0.6-2.2,1.9
		v6.3l2.3,0l4.1-5.2c1.6-1.9,1.5-2.6-0.7-3v-0.7h6.9v0.7c-2,0.4-2.8,0.9-5.5,3.7l-2.3,2.5l5,7.6c1.8,2.8,2.6,3.6,3.8,3.8v0.6h-5.4
		l-5.9-9.2l-2.4,0v6.7C779.3,641.4,779.5,641.7,781.5,642z"/>
	<path class="st1" d="M792.2,624.5v-0.7h9.1v0.7c-2.3,0.3-2.7,0.9-1.7,3.4l3.8,10.2l3.7-10.1c1-2.7,0.6-3.2-1.7-3.6v-0.7h6.3v0.7
		c-1.7,0.3-2.2,0.8-3.4,3.8l-4.2,10.4l-1.7,4.1l-3.1,8.9h-3.2v-0.1c1.7-2,4-5.9,5.4-8.9l-6.2-15.2
		C794.4,625.2,793.8,624.8,792.2,624.5z"/>
	<path class="st1" d="M378.7,690.7v-0.6c1.2-0.3,2-1.1,3.9-3.8l4.9-7.5l-2.4-2.6c-2.7-2.8-3.6-3.3-5.5-3.8v-0.7h7v0.7
		c-2.2,0.4-2.3,1.1-0.8,3l4.1,5.1l2.1,0.1v-6.3c0-1.3-0.2-1.6-2.2-1.9v-0.7h8.1v0.7c-2,0.3-2.2,0.6-2.2,1.9v6.3l2.1-0.1l4.1-5.1
		c1.6-1.9,1.4-2.6-0.7-3v-0.7h7v0.7c-2,0.4-2.9,0.9-5.5,3.8l-2.3,2.5l5,7.6c1.8,2.8,2.6,3.5,3.9,3.8v0.6h-5.4l-6-9.2l-2.2,0v6.7
		c0,1.2,0.2,1.6,2.2,1.9v0.7h-8.1V690c2-0.3,2.2-0.6,2.2-1.9v-6.7l-2.2,0l-6,9.2H378.7z"/>
	<path class="st1" d="M418.9,690v0.7h-8.4V690c2-0.3,2.4-0.6,2.4-2v-13.6c0-1.3-0.3-1.7-2.4-2v-0.7h8.4v0.7c-2,0.3-2.2,0.6-2.2,1.9
		v11.9l8.8-11.2v-0.7c0-1.3-0.3-1.6-2.2-1.9v-0.7h8.4v0.7c-2.1,0.3-2.4,0.6-2.4,2V688c0,1.3,0.3,1.7,2.4,2v0.7h-8.4V690
		c2-0.3,2.2-0.6,2.2-1.9v-11.9l-8.8,11.2v0.7C416.7,689.4,416.9,689.7,418.9,690z"/>
	<path class="st1" d="M435.4,686.5c1,0,1.8,0.7,2.1,1.6c0.9-2,1.2-5.5,1.3-10.8l0.1-2.5c0-1.6-0.5-2.1-2.8-2.3v-0.7h16.7v0.7
		c-2.1,0.3-2.4,0.6-2.4,2V688c0,1.3,0.3,1.7,2.4,2v0.7h-8.4V690c2-0.3,2.2-0.6,2.2-1.9v-15.5h-6.5l-0.2,4.8
		c-0.3,9-1.2,13.6-4.4,13.6c-1.4,0-2.3-0.9-2.3-2.3C433.2,687.5,434.1,686.5,435.4,686.5z"/>
	<path class="st1" d="M455.7,681.3c0-5.8,4.3-9.8,9.7-9.8c5.4,0,9.6,3.8,9.6,9.7c0,5.8-4.3,9.8-9.7,9.8
		C459.9,691.1,455.7,687.2,455.7,681.3z M470.8,681.4c0-5.4-2.2-9-5.5-9c-3.4,0-5.4,3.4-5.4,8.7c0,5.4,2.2,9,5.5,9
		C468.8,690.1,470.8,686.7,470.8,681.4z"/>
	<path class="st1" d="M478.4,681.2c0-5.6,4.1-9.8,9.7-9.8c4.2,0,6.2,2.1,6.2,4.3c0,1.2-0.9,2.1-2,2.1c-1.2,0-2-0.9-2-2
		c0-1.2,0.9-2,1.9-2c0.1,0,0.3,0,0.4,0c-0.8-0.8-2.1-1.2-3.6-1.2c-4,0-6.5,3.2-6.5,7.9c0,5.5,3.2,8.8,7.2,8.8c2.2,0,3.8-0.8,4.9-1.9
		v0.7c-1.2,1.8-3.8,3.1-6.9,3.1C482.3,691.1,478.4,687.1,478.4,681.2z"/>
	<path class="st1" d="M506,690.7h-9.3V690c2-0.3,2.4-0.6,2.4-2v-13.6c0-1.3-0.3-1.7-2.4-2v-0.7h8.8v0.7c-2.3,0.3-2.6,0.6-2.6,2.1
		v4.7h2.7c6,0,8.5,2,8.5,5.5C514.3,688.4,510.9,690.7,506,690.7z M503,680.2v9.7l2.2-0.1c3.1-0.1,5.1-1.8,5.1-4.7
		c0-2.9-1.6-4.8-5.1-4.9L503,680.2z"/>
	<path class="st1" d="M526.5,686.5c1,0,1.8,0.7,2.1,1.6c0.9-2,1.2-5.5,1.3-10.8l0.1-2.5c0-1.6-0.5-2.1-2.8-2.3v-0.7h16.7v0.7
		c-2.1,0.3-2.4,0.6-2.4,2V688c0,1.3,0.3,1.7,2.4,2v0.7h-8.4V690c2-0.3,2.2-0.6,2.2-1.9v-15.5h-6.5l-0.2,4.8
		c-0.3,9-1.2,13.6-4.4,13.6c-1.4,0-2.3-0.9-2.3-2.3C524.2,687.5,525.1,686.5,526.5,686.5z"/>
	<path class="st1" d="M555.6,671.5c4.9,0,7.7,3.2,7.7,7.8c0,0.4,0,0.8-0.1,1h-12.6c0.1,5.3,3,9,7.4,9c2.2,0,3.9-0.8,4.9-1.9v0.7
		c-1.2,1.8-3.8,3.1-7,3.1c-5.4,0-9.3-3.9-9.3-9.8C546.7,675.6,550.1,671.5,555.6,671.5z M550.6,679.5l9-0.1c0-0.3,0-0.5,0-0.9
		c0-3.5-1.3-6.2-4.1-6.2C552.5,672.4,550.7,675,550.6,679.5z"/>
	<path class="st1" d="M580.7,678.1h-0.6c-1.3-4.6-2-5.3-5.2-5.4l-2.6-0.1v15.3c0,1.5,0.3,1.8,2.6,2.1v0.7H566V690
		c2-0.3,2.4-0.6,2.4-2v-13.6c0-1.3-0.3-1.7-2.4-2v-0.7h14.5L580.7,678.1z"/>
	<path class="st1" d="M584.8,674.2c0-1.2-0.4-1.6-2.5-1.8v-0.7h8.8v0.7c-2.1,0.2-2.4,0.5-2.4,1.7v3c0,3.3,1.4,4.7,4.1,4.7
		c1.4,0,3-0.4,3.9-0.9v-6.9c0-1.2-0.3-1.5-2.5-1.7v-0.7h8.9v0.7c-2.2,0.2-2.5,0.5-2.5,1.8v14c0,1.2,0.4,1.5,2.5,1.8v0.7h-9.3V690
		c2.5-0.2,2.9-0.5,2.9-1.8v-6.5c-1.3,0.8-3.4,1.4-5.5,1.4c-3.8,0-6.4-1.9-6.4-6.1V674.2z"/>
	<path class="st1" d="M614.8,671.5c4.9,0,7.7,3.2,7.7,7.8c0,0.4,0,0.8-0.1,1h-12.6c0.1,5.3,3,9,7.4,9c2.2,0,3.9-0.8,4.9-1.9v0.7
		c-1.2,1.8-3.8,3.1-7,3.1c-5.4,0-9.3-3.9-9.3-9.8C605.9,675.6,609.3,671.5,614.8,671.5z M609.8,679.5l9-0.1c0-0.3,0-0.5,0-0.9
		c0-3.5-1.3-6.2-4.1-6.2C611.7,672.4,609.9,675,609.8,679.5z"/>
</g>
</svg>
