<?xml version="1.0" encoding="utf-8"?>
<!-- Generator: Adobe Illustrator 23.1.1, SVG Export Plug-In . SVG Version: 6.00 Build 0)  -->
<svg version="1.1" id="Слой_1" xmlns="http://www.w3.org/2000/svg" xmlns:xlink="http://www.w3.org/1999/xlink" x="0px" y="0px"
	 viewBox="0 0 1000 1000" style="enable-background:new 0 0 1000 1000;" xml:space="preserve">
<style type="text/css">
	.st0{fill:#113357;}
	.st1{font-family:'NewYorkExtraLarge-Black';}
	.st2{font-size:40px;}
	.st3{fill:#FFFFFF;}
</style>
<g>
	<path class="st0" d="M228.1,638c1.4,0,2.5,1.2,2.5,2.6c0,0.4-0.1,0.7-0.2,1.1c1.3-0.9,2.4-2.8,3.9-5.7l-9.4-17.9
		c-1.2-2.2-1.7-2.6-3.9-3v-0.7h10.7v0.7c-3.3,0.3-3.3,0.7-2,3.3l6.9,13.4l6.3-13.2c1.3-2.8,1.1-3.1-2.2-3.5v-0.7h7.7v0.7
		c-2.3,0.4-2.9,0.8-4.3,3.5l-8.5,16.9c-2.6,5.1-4.3,7.5-7.2,7.5c-1.6,0-2.7-1.1-2.7-2.6C225.6,639.1,226.7,638,228.1,638z"/>
	<path class="st0" d="M258.1,638.6l6-14.8h6v0.7c-2,0.3-2.3,0.6-2.3,2l0.4,13.6c0,1.3,0.4,1.7,2.4,2v0.7h-8.4V642
		c2-0.3,2.3-0.6,2.3-2l-0.4-13.8l-6.7,16.5h-1.3l-6.8-16.5l-0.1,13.4c0,1.6,0.2,2.1,2.3,2.4v0.7h-5.7V642c2.1-0.4,2.2-0.8,2.3-2.5
		l0.4-12.5c0.1-1.7-0.3-2.3-2.3-2.6v-0.7h6.1L258.1,638.6z"/>
	<path class="st0" d="M282.2,623.5c4.9,0,7.7,3.2,7.7,7.8c0,0.4,0,0.8-0.1,1h-12.6c0.1,5.3,3,9,7.4,9c2.2,0,3.9-0.8,4.9-1.9v0.7
		c-1.2,1.8-3.8,3.1-7,3.1c-5.4,0-9.3-3.9-9.3-9.8C273.3,627.6,276.7,623.5,282.2,623.5z M277.2,631.5l9-0.1c0-0.3,0-0.5,0-0.9
		c0-3.5-1.3-6.2-4.1-6.2C279.1,624.4,277.3,627,277.2,631.5z"/>
	<path class="st0" d="M301.1,642v0.7h-8.4V642c2-0.3,2.4-0.6,2.4-2v-13.6c0-1.3-0.3-1.7-2.4-2v-0.7h8.4v0.7c-2,0.3-2.2,0.6-2.2,1.9
		v6.3h3.6c0.3-5.4,4.4-9.2,9.6-9.2c5.4,0,9.5,3.8,9.5,9.7c0,5.8-4.2,9.8-9.6,9.8c-5.4,0-9.4-3.8-9.5-9.6h-3.6v6.7
		C298.8,641.4,299.1,641.7,301.1,642z M317.2,633.4c0-5.3-2-9-5.4-9c-3.4,0-5.2,3.4-5.2,8.7s2,9,5.4,9
		C315.4,642.1,317.2,638.7,317.2,633.4z"/>
	<path class="st0" d="M341.5,642v0.7h-8.4V642c2-0.3,2.4-0.6,2.4-2v-13.6c0-1.3-0.3-1.7-2.4-2v-0.7h8.4v0.7c-2,0.3-2.2,0.6-2.2,1.9
		v11.9l8.8-11.2v-0.7c0-1.3-0.3-1.6-2.2-1.9v-0.7h8.4v0.7c-2.1,0.3-2.4,0.6-2.4,2V640c0,1.3,0.3,1.7,2.4,2v0.7h-8.4V642
		c2-0.3,2.2-0.6,2.2-1.9v-11.9l-8.8,11.2v0.7C339.3,641.4,339.6,641.7,341.5,642z"/>
	<path class="st0" d="M366.9,638.5c1,0,1.8,0.7,2.1,1.6c0.9-2,1.2-5.5,1.3-10.8l0.1-2.5c0-1.6-0.5-2.1-2.8-2.3v-0.7h16.7v0.7
		c-2.1,0.3-2.4,0.6-2.4,2V640c0,1.3,0.3,1.7,2.4,2v0.7h-8.4V642c2-0.3,2.2-0.6,2.2-1.9v-15.5h-6.5l-0.2,4.8
		c-0.3,9-1.2,13.6-4.4,13.6c-1.4,0-2.3-0.9-2.3-2.3C364.6,639.5,365.5,638.5,366.9,638.5z"/>
	<path class="st0" d="M395,642v0.7h-8.4V642c2-0.3,2.4-0.6,2.4-2v-13.6c0-1.3-0.3-1.7-2.4-2v-0.7h8.4v0.7c-2,0.3-2.2,0.6-2.2,1.9
		v6.3h3.6c0.3-5.4,4.4-9.2,9.6-9.2c5.4,0,9.5,3.8,9.5,9.7c0,5.8-4.2,9.8-9.6,9.8c-5.4,0-9.4-3.8-9.5-9.6h-3.6v6.7
		C392.8,641.4,393,641.7,395,642z M411.2,633.4c0-5.3-2-9-5.4-9c-3.4,0-5.2,3.4-5.2,8.7s2,9,5.4,9
		C409.3,642.1,411.2,638.7,411.2,633.4z"/>
	<path class="st0" d="M428.6,643.1c-6.2,0-9.6-4.7-9.6-11.8c0-6.2,1.5-10.2,3.9-12.5c2.1-2.1,4.6-3.1,8.8-3.6
		c4.1-0.4,5.2-0.7,5.5-1.8h0.7c-0.3,3.5-1.8,4.6-6.7,5.2l-2.4,0.3c-6.6,0.8-8.6,4.3-8.6,8.7c0,0.8,0,1.6,0.1,2.4
		c1.2-3.6,4.2-6.3,8.6-6.3c5.4,0,9.5,3.7,9.5,9.6C438.5,639.1,433.9,643.1,428.6,643.1z M428.8,624.6c-3.6,0-5.5,3.4-5.5,8.7
		c0,5.1,2,8.8,5.5,8.8c3.6,0,5.5-3.4,5.5-8.6C434.3,628.3,432.3,624.6,428.8,624.6z"/>
	<path class="st0" d="M441.9,638.5c1,0,1.8,0.7,2.1,1.6c0.9-2,1.2-5.5,1.3-10.8l0.1-2.5c0-1.6-0.5-2.1-2.8-2.3v-0.7h16.7v0.7
		c-2.1,0.3-2.4,0.6-2.4,2V640c0,1.3,0.3,1.7,2.4,2v0.7h-8.4V642c2-0.3,2.2-0.6,2.2-1.9v-15.5h-6.5l-0.2,4.8
		c-0.3,9-1.2,13.6-4.4,13.6c-1.4,0-2.3-0.9-2.3-2.3C439.7,639.5,440.6,638.5,441.9,638.5z"/>
	<path class="st0" d="M470.1,642v0.7h-8.4V642c2-0.3,2.4-0.6,2.4-2v-13.6c0-1.3-0.3-1.7-2.4-2v-0.7h8.4v0.7c-2,0.3-2.2,0.6-2.2,1.9
		v6.3h3.6c0.3-5.4,4.4-9.2,9.6-9.2c5.4,0,9.5,3.8,9.5,9.7c0,5.8-4.2,9.8-9.6,9.8c-5.4,0-9.4-3.8-9.5-9.6h-3.6v6.7
		C467.8,641.4,468.1,641.7,470.1,642z M486.2,633.4c0-5.3-2-9-5.4-9c-3.4,0-5.2,3.4-5.2,8.7s2,9,5.4,9
		C484.4,642.1,486.2,638.7,486.2,633.4z"/>
	<path class="st0" d="M511.8,642.7h-9.7V642c2-0.3,2.4-0.6,2.4-2v-13.6c0-1.3-0.3-1.7-2.4-2v-0.7h9.8c4.8,0,7.2,1.7,7.2,4.3
		c0,2.5-2.5,4-5.9,4.6c4.1,0.2,6.9,1.7,6.9,4.8S516.8,642.7,511.8,642.7z M511,624.7l-2.7-0.1v7.9l2.5,0c3-0.1,4.4-1.6,4.4-3.9
		C515.3,626.1,513.8,624.7,511,624.7z M510.9,633.3l-2.5,0v8.7l2.5-0.1c3.2-0.1,5.2-1.7,5.2-4.4C516.1,634.5,514,633.3,510.9,633.3z
		"/>
	<path class="st0" d="M532,623.5c4.9,0,7.7,3.2,7.7,7.8c0,0.4,0,0.8-0.1,1H527c0.1,5.3,3,9,7.4,9c2.2,0,3.9-0.8,4.9-1.9v0.7
		c-1.2,1.8-3.8,3.1-7,3.1c-5.4,0-9.3-3.9-9.3-9.8C523.1,627.6,526.5,623.5,532,623.5z M527,631.5l9-0.1c0-0.3,0-0.5,0-0.9
		c0-3.5-1.3-6.2-4.1-6.2C529,624.4,527.1,627,527,631.5z"/>
	<path class="st0" d="M553.5,643.1c-2.4,0-4.2-1-5-2.4v8.2c0,1.5,0.3,1.8,2.6,2.1v0.7h-8.8V651c2.1-0.3,2.3-0.6,2.3-1.9v-22.6
		c0-1.3-0.3-1.7-2.3-2v-0.7l6.2-0.2v3.5c1.1-2.1,3.5-3.6,6.3-3.6c4.1,0,7.9,3.4,7.9,9.6C562.5,639.1,558.6,643.1,553.5,643.1z
		 M552.9,625.2c-2.1,0-3.6,0.9-4.5,2.5v12c0.6,1.3,2.3,2.2,4.1,2.2c3.7,0,6-3.4,6-8.4C558.5,628.4,556.2,625.2,552.9,625.2z"/>
	<path class="st0" d="M565.9,633.2c0-5.6,4.1-9.8,9.7-9.8c4.2,0,6.2,2.1,6.2,4.3c0,1.2-0.9,2.1-2,2.1c-1.2,0-2-0.9-2-2
		c0-1.2,0.9-2,1.9-2c0.1,0,0.3,0,0.4,0c-0.8-0.8-2.1-1.2-3.6-1.2c-4,0-6.5,3.2-6.5,7.9c0,5.5,3.2,8.8,7.2,8.8c2.2,0,3.8-0.8,4.9-1.9
		v0.7c-1.2,1.8-3.8,3.1-6.9,3.1C569.8,643.1,565.9,639.1,565.9,633.2z"/>
	<path class="st0" d="M602.1,630.1h-0.6c-1.3-4.6-1.8-5.3-5.1-5.4l-1.2-0.1v15.3c0,1.5,0.3,1.8,2.6,2.1v0.7h-9V642
		c2.3-0.3,2.6-0.6,2.6-2.1v-15.3l-1.2,0.1c-3.3,0.2-3.8,0.9-5.1,5.4h-0.6l0.1-6.3h17.5L602.1,630.1z"/>
	<path class="st0" d="M604.8,638.4c0-2.9,2.1-4.6,7.4-5.8l4-0.9v-2.1c0-3.7-1.9-5.1-4.8-5.1c-1.5,0-2.9,0.4-3.9,1.2h0.1
		c1,0,1.9,0.9,1.9,2c0,1.1-0.9,2-2.1,2c-1.1,0-2-0.9-2-2c0-2.4,3.2-4.2,7.4-4.2c4.3,0,7.2,1.8,7.2,5.8v10c0,1.7,0.9,2.4,2.1,2.4
		c0.3,0,0.6-0.1,0.9-0.1v0.6c-0.6,0.4-1.7,0.8-3,0.8c-1.9,0-3.3-1-3.7-2.8c-0.9,1.6-3.2,2.9-6,2.9
		C607.1,643.1,604.8,641.2,604.8,638.4z M612.3,641.4c1.7,0,3-0.6,3.8-1.9v-7l-2.1,0.5c-4.1,0.9-5.4,2.4-5.4,4.7
		S610.3,641.4,612.3,641.4z"/>
	<path class="st0" d="M640.9,630.1h-0.6c-1.3-4.6-1.8-5.3-5.1-5.4l-1.2-0.1v15.3c0,1.5,0.3,1.8,2.6,2.1v0.7h-9V642
		c2.3-0.3,2.6-0.6,2.6-2.1v-15.3l-1.2,0.1c-3.3,0.2-3.8,0.9-5.1,5.4h-0.6l0.1-6.3h17.5L640.9,630.1z"/>
	<path class="st0" d="M652.4,642.7h-9.3V642c2-0.3,2.4-0.6,2.4-2v-13.6c0-1.3-0.3-1.7-2.4-2v-0.7h8.8v0.7c-2.3,0.3-2.6,0.6-2.6,2.1
		v4.7h2.7c6,0,8.5,2,8.5,5.5C660.6,640.4,657.3,642.7,652.4,642.7z M649.4,632.2v9.7l2.2-0.1c3.1-0.1,5.1-1.8,5.1-4.7
		c0-2.9-1.6-4.8-5.1-4.9L649.4,632.2z"/>
	<path class="st0" d="M672,633.2c0-5.6,4.1-9.8,9.7-9.8c4.2,0,6.2,2.1,6.2,4.3c0,1.2-0.9,2.1-2,2.1c-1.2,0-2-0.9-2-2
		c0-1.2,0.9-2,1.9-2c0.1,0,0.3,0,0.4,0c-0.8-0.8-2.1-1.2-3.6-1.2c-4,0-6.5,3.2-6.5,7.9c0,5.5,3.2,8.8,7.2,8.8c2.2,0,3.8-0.8,4.9-1.9
		v0.7c-1.2,1.8-3.8,3.1-6.9,3.1C675.9,643.1,672,639.1,672,633.2z"/>
	<path class="st0" d="M690.9,638.4c0-2.9,2.1-4.6,7.4-5.8l4-0.9v-2.1c0-3.7-1.9-5.1-4.8-5.1c-1.5,0-2.9,0.4-3.9,1.2h0.1
		c1,0,1.9,0.9,1.9,2c0,1.1-0.9,2-2.1,2c-1.1,0-2-0.9-2-2c0-2.4,3.2-4.2,7.4-4.2c4.3,0,7.2,1.8,7.2,5.8v10c0,1.7,0.9,2.4,2.1,2.4
		c0.3,0,0.6-0.1,0.9-0.1v0.6c-0.6,0.4-1.7,0.8-3,0.8c-1.9,0-3.3-1-3.7-2.8c-0.9,1.6-3.2,2.9-6,2.9
		C693.2,643.1,690.9,641.2,690.9,638.4z M698.4,641.4c1.7,0,3-0.6,3.8-1.9v-7l-2.1,0.5c-4.1,0.9-5.4,2.4-5.4,4.7
		S696.4,641.4,698.4,641.4z"/>
	<path class="st0" d="M718.7,642v0.7h-8.4V642c2-0.3,2.4-0.6,2.4-2v-13.6c0-1.3-0.3-1.7-2.4-2v-0.7h8.4v0.7c-2,0.3-2.2,0.6-2.2,1.9
		v11.9l8.8-11.2v-0.7c0-1.3-0.3-1.6-2.2-1.9v-0.7h8.4v0.7c-2.1,0.3-2.4,0.6-2.4,2V640c0,1.3,0.3,1.7,2.4,2v0.7h-8.4V642
		c2-0.3,2.2-0.6,2.2-1.9v-11.9l-8.8,11.2v0.7C716.5,641.4,716.7,641.7,718.7,642z M715.7,616.5c0-1.2,0.8-2,1.9-2s1.8,0.8,1.8,1.8
		c0,1-0.8,1.8-1.7,1.8c-0.3,0-0.5-0.1-0.7-0.2c0.6,1.1,2,2,4,2s3.3-0.9,4-2c-0.2,0.1-0.5,0.2-0.7,0.2c-0.9,0-1.7-0.8-1.7-1.8
		c0-1,0.7-1.8,1.8-1.8s1.9,0.8,1.9,2c0,2.1-1.8,4.3-5.2,4.3S715.7,618.6,715.7,616.5z"/>
	<path class="st0" d="M751.2,630.1h-0.6c-1.3-4.6-1.8-5.3-5.1-5.4l-1.2-0.1v15.3c0,1.5,0.3,1.8,2.6,2.1v0.7h-9V642
		c2.3-0.3,2.6-0.6,2.6-2.1v-15.3l-1.2,0.1c-3.3,0.2-3.8,0.9-5.1,5.4h-0.6l0.1-6.3H751L751.2,630.1z"/>
	<path class="st0" d="M762.7,642.7h-9.3V642c2-0.3,2.4-0.6,2.4-2v-13.6c0-1.3-0.3-1.7-2.4-2v-0.7h8.8v0.7c-2.3,0.3-2.6,0.6-2.6,2.1
		v4.7h2.7c6,0,8.5,2,8.5,5.5C770.9,640.4,767.6,642.7,762.7,642.7z M759.7,632.2v9.7l2.2-0.1c3.1-0.1,5.1-1.8,5.1-4.7
		c0-2.9-1.6-4.8-5.1-4.9L759.7,632.2z M778,640.3c0,1.1,0.3,1.4,2.5,1.7v0.7h-8.8V642c2.1-0.3,2.5-0.6,2.5-1.7v-14.2
		c0-1.1-0.3-1.4-2.5-1.7v-0.7h8.8v0.7c-2.2,0.3-2.5,0.6-2.5,1.7V640.3z"/>
</g>
<text transform="matrix(1 0 0 1 381.0114 480.9999)" class="st0 st1 st2">HTML / CSS</text>
<path class="st0" d="M501.3,249.8c-55.6,0-69.5,13.9-69.5,69.5s13.9,69.5,69.5,69.5s69.5-13.9,69.5-69.5S556.9,249.8,501.3,249.8z"
	/>
<g>
	<path class="st3" d="M467.7,321.5v-5.9l24.7-9.1v6l-17,6.1l17,6.1v6L467.7,321.5z"/>
	<path class="st3" d="M510.2,330.6v-6l17-6.1l-17-6.1v-6l24.7,9.1v5.9L510.2,330.6z"/>
</g>
</svg>
