<?xml version="1.0" encoding="utf-8"?>
<!-- Generator: Adobe Illustrator 23.1.1, SVG Export Plug-In . SVG Version: 6.00 Build 0)  -->
<svg version="1.1" id="Слой_1" xmlns="http://www.w3.org/2000/svg" xmlns:xlink="http://www.w3.org/1999/xlink" x="0px" y="0px"
	 viewBox="0 0 1000 1000" style="enable-background:new 0 0 1000 1000;" xml:space="preserve">
<style type="text/css">
	.st0{enable-background:new    ;}
	.st1{fill:#113357;}
	.st2{fill:#FFFFFF;}
</style>
<title>soft</title>
<g class="st0">
	<path class="st1" d="M309.6,642.1v0.7h-10.2v-0.7c2.5-0.3,3-1.2,2-4l-1.9-5.4H290l-1.6,4.6c-1.2,3.6-0.9,4.4,1.9,4.8v0.7h-7.4v-0.7
		c2.1-0.3,2.7-1,4.1-4.9l8.4-22.7h1.7l8.7,23.7C306.9,641.1,307.6,641.8,309.6,642.1z M299.1,631.7l-4.4-12.6l-4.3,12.6H299.1z"/>
</g>
<g class="st0">
	<path class="st1" d="M318.7,623.6c1.4,0,2.7,0.3,3.7,0.7l6.4-0.4v1.3l-5.4-0.3c2,0.9,3.2,2.7,3.2,4.9c0,3.9-3.8,6.4-7.9,6.4
		c-0.7,0-1.4-0.1-2.2-0.2c-1.7,0.4-2.6,1.2-2.6,2.3c0,1.3,1.2,2,3.5,2h3.4c4.7,0,7.2,1.8,7.2,5.3c0,4.2-4.4,6.9-9.2,6.9
		c-5.2,0-8.8-1.9-8.8-4.8c0-2.2,2-3.8,6.1-4.3c-2.9,0-5-1.3-5-3.5c0-2.1,1.9-3.5,4.8-4c-2.9-0.7-5.1-2.7-5.1-5.8
		C310.7,626.1,314.4,623.6,318.7,623.6z M318.8,651.4c3.6,0,6.1-1.7,6.1-4.5c0-2.2-1.4-3.5-4.7-3.5h-3.6c-2.4,0.3-3.5,1.8-3.5,3.7
		C313.2,649.6,315.3,651.4,318.8,651.4z M318.7,635.4c2.5,0,4-2.1,4-5.4c0-3.3-1.5-5.6-4.2-5.6c-2.6,0-4,2.1-4,5.4
		C314.6,633.1,316.2,635.4,318.7,635.4z"/>
	<path class="st1" d="M336.3,640.1c0,1.3,0.3,1.7,2.4,2v0.7h-8.6v-0.7c2-0.3,2.4-0.6,2.4-2v-13.2c0-1-0.1-1.2-1.2-1.6l-1.2-0.4v-0.6
		l6.2-0.7L336.3,640.1L336.3,640.1z M331.7,618c0-1.2,1-2.2,2.3-2.2s2.3,1,2.3,2.2s-1,2.2-2.3,2.2S331.7,619.3,331.7,618z"/>
	<path class="st1" d="M346.6,640.1c0,1.3,0.3,1.7,2.4,2v0.7h-8.6v-0.7c2-0.3,2.4-0.6,2.4-2v-23c0-1-0.1-1.2-1.2-1.6l-1.2-0.4v-0.6
		l6.2-0.7L346.6,640.1L346.6,640.1z"/>
	<path class="st1" d="M360.4,623.6c4.9,0,7.7,3.2,7.7,7.8c0,0.4,0,0.8-0.1,1h-12.6c0.1,5.3,3,9,7.4,9c2.2,0,3.9-0.8,4.9-1.9v0.7
		c-1.2,1.8-3.8,3.1-7,3.1c-5.4,0-9.3-3.9-9.3-9.8C351.5,627.7,355,623.6,360.4,623.6z M355.5,631.6l9-0.1c0-0.3,0-0.5,0-0.9
		c0-3.5-1.3-6.2-4.1-6.2C357.4,624.5,355.5,627.1,355.5,631.6z"/>
	<path class="st1" d="M389,611.9h1.5l-9.7,36.3h-1.5L389,611.9z"/>
	<path class="st1" d="M402.2,641.1l-0.3-6.3h0.6c1.1,5.1,4.5,7.5,8.5,7.5c3.5,0,5.9-2.1,5.9-5.5c0-2.9-1.8-4.8-5.6-6.2l-2.2-0.8
		c-4.5-1.6-7-4.3-7-8.1c0-4.8,4.2-7.5,9.4-7.5c3.6,0,6.2,0.9,7.3,1.8l0.3,6h-0.6c-1-4.5-3.5-6.8-7.1-6.8c-3.8,0-5.8,2-5.8,4.9
		s2.1,4.6,5.6,5.9l2.2,0.8c4.7,1.7,7.1,4.4,7.1,8.3c0,5-4.4,8.2-9.6,8.2C406.9,643.2,403.8,642.3,402.2,641.1z"/>
	<path class="st1" d="M423.9,633.3c0-5.6,4.1-9.8,9.7-9.8c4.2,0,6.2,2.1,6.2,4.3c0,1.2-0.9,2.1-2,2.1c-1.2,0-2-0.9-2-2
		c0-1.2,0.9-2,1.9-2c0.1,0,0.3,0,0.4,0c-0.8-0.8-2.1-1.2-3.6-1.2c-4,0-6.5,3.2-6.5,7.9c0,5.5,3.2,8.8,7.2,8.8c2.2,0,3.8-0.8,4.9-1.9
		v0.7c-1.2,1.8-3.8,3.1-6.9,3.1C427.8,643.2,423.9,639.2,423.9,633.3z"/>
	<path class="st1" d="M448.3,627.9c2.2-2.8,3.8-4.2,5.4-4.2c1.4,0,2,0.9,2,1.9c0,0.5-0.2,1.1-0.4,1.3c-0.4-0.1-1.1-0.2-1.9-0.2
		c-2,0-4,0.7-5,1.7V640c0,1.5,0.3,1.8,2.6,2.1v0.7h-8.8v-0.7c2.1-0.3,2.4-0.6,2.4-1.9v-13.3c0-1-0.1-1.2-1.2-1.6l-1.2-0.4v-0.6
		l6.2-0.7v4.3H448.3z"/>
	<path class="st1" d="M463.1,636.4c0,3.3,1.6,5,4.4,5c2,0,3.4-0.9,4.3-2.3V627c0-1-0.1-1.2-1.2-1.6l-1.2-0.4v-0.6l6.2-0.7v16
		c0,1.1,0.1,1.3,1.2,1.6l1.1,0.3v0.6l-6.2,0.7v-3.3c-1.1,2.1-3.3,3.5-6.2,3.5c-3.7,0-6.3-1.9-6.3-6v-10.2c0-1-0.1-1.2-1.2-1.6
		l-1.2-0.4v-0.6l6.2-0.7v12.8H463.1z"/>
	<path class="st1" d="M485.9,627c1.1-2,3.3-3.5,6.2-3.5s5.1,1.2,5.8,3.5c1.1-2.1,3.5-3.5,6.3-3.5c3.7,0,6.2,1.9,6.2,6v10.6
		c0,1.3,0.3,1.7,2.4,2v0.7h-8.4v-0.7c2-0.3,2.2-0.6,2.2-1.9v-10c0-3.3-1.5-4.9-4.2-4.9c-2,0-3.5,0.8-4.3,2.1
		c0.1,0.5,0.2,1.1,0.2,1.7v11c0,1.3,0.2,1.6,2.2,1.9v0.7h-8.3V642c2-0.3,2.2-0.6,2.2-1.9v-10c0-3.3-1.5-4.9-4.2-4.9
		c-2.1,0-3.4,0.9-4.2,2.3v12.6c0,1.3,0.2,1.6,2.2,1.9v0.7h-8.4V642c2-0.3,2.4-0.6,2.4-2v-13.2c0-1-0.1-1.2-1.2-1.6l-1.2-0.4v-0.6
		l6.2-0.7v3.5H485.9z"/>
	<path class="st1" d="M523.8,632.5v-1.4h9.7v1.4H523.8z"/>
	<path class="st1" d="M553.5,642.1v0.7H545v-0.7c2-0.3,2.4-0.6,2.4-2v-13.6c0-1.3-0.3-1.7-2.4-2v-0.7h8.4v0.7
		c-2,0.3-2.2,0.6-2.2,1.9v6.3h8.7v-6.3c0-1.3-0.3-1.6-2.2-1.9v-0.7h8.4v0.7c-2.1,0.3-2.4,0.6-2.4,2v13.6c0,1.3,0.3,1.7,2.4,2v0.7
		h-8.4v-0.7c2-0.3,2.2-0.6,2.2-1.9v-6.7h-8.7v6.7C551.2,641.5,551.5,641.8,553.5,642.1z"/>
	<path class="st1" d="M568.9,638.5c0-2.9,2.1-4.6,7.4-5.8l4-0.9v-2.1c0-3.7-1.9-5.1-4.8-5.1c-1.5,0-2.9,0.4-3.9,1.2h0.1
		c1,0,1.9,0.9,1.9,2s-0.9,2-2.1,2c-1.1,0-2-0.9-2-2c0-2.4,3.2-4.2,7.4-4.2c4.3,0,7.2,1.8,7.2,5.8v10c0,1.7,0.9,2.4,2.1,2.4
		c0.3,0,0.6-0.1,0.9-0.1v0.6c-0.6,0.4-1.7,0.8-3,0.8c-1.9,0-3.3-1-3.7-2.8c-0.9,1.6-3.2,2.9-6,2.9
		C571.2,643.2,568.9,641.3,568.9,638.5z M576.5,641.5c1.7,0,3-0.6,3.8-1.9v-7l-2.1,0.5c-4.1,0.9-5.4,2.4-5.4,4.7
		S574.4,641.5,576.5,641.5z"/>
	<path class="st1" d="M620.2,642.1v0.7h-31.9v-0.7c2-0.3,2.4-0.6,2.4-2v-13.6c0-1.3-0.3-1.7-2.4-2v-0.7h8.4v0.7
		c-2,0.3-2.2,0.6-2.2,1.9V642h7.8v-15.5c0-1.3-0.2-1.6-2.2-1.9v-0.7h8.3v0.7c-2,0.3-2.2,0.6-2.2,1.9V642h7.8v-15.5
		c0-1.3-0.2-1.6-2.2-1.9v-0.7h8.4v0.7c-2,0.3-2.4,0.6-2.4,2v13.6C617.8,641.5,618.1,641.8,620.2,642.1z"/>
	<path class="st1" d="M631.9,623.6c4.9,0,7.7,3.2,7.7,7.8c0,0.4,0,0.8-0.1,1h-12.6c0.1,5.3,3,9,7.4,9c2.2,0,3.9-0.8,4.9-1.9v0.7
		c-1.2,1.8-3.8,3.1-7,3.1c-5.4,0-9.3-3.9-9.3-9.8C623,627.7,626.4,623.6,631.9,623.6z M626.9,631.6l9-0.1c0-0.3,0-0.5,0-0.9
		c0-3.5-1.3-6.2-4.1-6.2C628.8,624.5,627,627.1,626.9,631.6z"/>
	<path class="st1" d="M660.8,642.8h-9.7v-0.7c2-0.3,2.4-0.6,2.4-2v-13.6c0-1.3-0.3-1.7-2.4-2v-0.7h9.8c4.8,0,7.2,1.7,7.2,4.3
		c0,2.5-2.5,4-5.9,4.6c4.1,0.2,6.9,1.7,6.9,4.8S665.8,642.8,660.8,642.8z M660,624.8l-2.7-0.1v7.9h2.5c3-0.1,4.4-1.6,4.4-3.9
		C664.3,626.2,662.8,624.8,660,624.8z M659.9,633.4h-2.5v8.7l2.5-0.1c3.2-0.1,5.2-1.7,5.2-4.4C665.1,634.6,663,633.4,659.9,633.4z"
		/>
	<path class="st1" d="M672.1,633.3c0-5.6,4.1-9.8,9.7-9.8c4.2,0,6.2,2.1,6.2,4.3c0,1.2-0.9,2.1-2,2.1c-1.2,0-2-0.9-2-2
		c0-1.2,0.9-2,1.9-2c0.1,0,0.3,0,0.4,0c-0.8-0.8-2.1-1.2-3.6-1.2c-4,0-6.5,3.2-6.5,7.9c0,5.5,3.2,8.8,7.2,8.8c2.2,0,3.8-0.8,4.9-1.9
		v0.7c-1.2,1.8-3.8,3.1-6.9,3.1C676,643.2,672.1,639.2,672.1,633.3z"/>
	<path class="st1" d="M699.9,623.6c4.9,0,7.7,3.2,7.7,7.8c0,0.4,0,0.8-0.1,1H695c0.1,5.3,3,9,7.4,9c2.2,0,3.9-0.8,4.9-1.9v0.7
		c-1.2,1.8-3.8,3.1-7,3.1c-5.4,0-9.3-3.9-9.3-9.8C691.1,627.7,694.5,623.6,699.9,623.6z M694,618c0-1.1,0.9-2,2.1-2s2.1,0.9,2.1,2
		s-0.9,2-2.1,2S694,619.1,694,618z M695,631.6l9-0.1c0-0.3,0-0.5,0-0.9c0-3.5-1.3-6.2-4.1-6.2C696.9,624.5,695.1,627.1,695,631.6z
		 M701.8,618c0-1.1,0.9-2,2.1-2s2.1,0.9,2.1,2s-0.9,2-2.1,2S701.8,619.1,701.8,618z"/>
	<path class="st1" d="M712.8,640.7c0-1.3,1.1-2.4,2.4-2.4c1.3,0,2.4,1.1,2.4,2.4s-1.1,2.4-2.4,2.4
		C713.8,643.1,712.8,642,712.8,640.7z M717.4,617.1c0,1.9-0.4,4.8-0.9,8.7l-1.1,8.7h-0.6l-1-8.7c-0.5-3.8-0.9-6.7-0.9-8.6
		c0-1.7,0.8-2.8,2.2-2.8S717.4,615.4,717.4,617.1z"/>
</g>
<g class="st0">
	<path class="st1" d="M462.7,488.8l-0.5-1.1c3.8-2.5,5.1-5.4,5.1-13v-17.9c0-1.8-0.4-2.3-2.5-2.8v-1.2h14.5v1.2
		c-2,0.5-2.5,1-2.5,2.8V475C476.8,482.3,472,485.8,462.7,488.8z"/>
</g>
<g class="st0">
	<path class="st1" d="M491.4,477.4c0,1.5,0.4,1.9,2.1,2.3v1.2h-13.1v-1.2c1.8-0.4,2.1-0.8,2.1-2.3v-11.6c0-1.5-0.2-1.8-1.3-2.2
		l-0.9-0.3v-1.2l11-1.4V477.4z M482.4,455.1c0-2.3,1.9-3.9,4.2-3.9c2.3,0,4.2,1.6,4.2,3.9c0,2.3-1.9,3.9-4.2,3.9
		C484.2,459,482.4,457.3,482.4,455.1z"/>
</g>
<g class="st0">
	<path class="st1" d="M506,467.5c1.5-4.9,3.2-6.8,5.5-6.8c2.1,0,3.2,1.9,3.2,4.3c0,1.2-0.2,2.2-0.5,2.9c-0.7-0.3-2.2-0.6-3.7-0.6
		c-1.9,0-3.8,0.4-4.5,0.9l0,8.9c0,1.6,0.4,2.1,2.4,2.5v1.2h-13.4v-1.2c1.8-0.4,2.1-0.8,2.1-2.3v-11.6c0-1.5-0.2-1.8-1.3-2.2
		l-0.9-0.3v-1.2l10.9-1.4L506,467.5z"/>
</g>
<g class="st0">
	<path class="st1" d="M516.3,476.6c0-3,2.3-5.2,8.9-6.4l3.7-0.7v-2c0-3.5-1.6-4.9-4.6-4.9c-0.6,0-1.2,0.1-1.8,0.2
		c1.2,0.5,2.1,1.7,2.1,3.2c0,2-1.6,3.5-3.7,3.5c-2.1,0-3.7-1.4-3.7-3.4c0-2.9,3.5-5.5,10-5.5c6.7,0,10.4,2.3,10.4,7.3v8.8
		c0,1.5,0.7,2.2,1.7,2.2c0.3,0,0.5,0,0.7-0.1v1.2c-1,0.7-2.9,1.2-5,1.2c-2.7,0-5.5-1.2-5.9-3.6c-0.6,2.3-3.4,3.7-6.9,3.7
		C518.6,481.3,516.3,479.5,516.3,476.6z M526.9,478.2c1,0,1.8-0.5,2-1.4v-5.9l-0.7,0.1c-2.4,0.6-3.4,2.1-3.4,4.3
		C524.9,477.2,525.8,478.2,526.9,478.2z"/>
</g>
<path class="st1" d="M502,389.1c0,0-40.4,0.9-52.6-12.1s-15.6-29.5-15.6-57s3.4-44.1,15.6-57.1s52.6-12,52.6-12s40.4-0.9,52.6,12
	s15.6,29.5,15.6,57.1s-3.4,44.1-15.6,57.1S502,389.1,502,389.1z"/>
<g>
	<path class="st2" d="M480.8,276.6c-3.6,0-6.5,2.9-6.5,6.5s2.9,6.5,6.5,6.5s6.5-2.9,6.5-6.5l0,0
		C487.3,279.5,484.4,276.6,480.8,276.6"/>
	<path class="st2" d="M523.2,276.6c-3.6,0-6.5,2.9-6.5,6.5s2.9,6.5,6.5,6.5s6.5-2.9,6.5-6.5l0,0
		C529.7,279.5,526.8,276.6,523.2,276.6C523.3,276.6,523.3,276.6,523.2,276.6"/>
	<path class="st2" d="M502,270.7c-3.6,0-6.5,2.9-6.5,6.4s2.9,6.5,6.4,6.5s6.5-2.9,6.5-6.4l0,0C508.5,273.6,505.6,270.7,502,270.7
		L502,270.7"/>
	<path class="st2" d="M538.5,294.6c-0.4-0.3-0.8-0.4-1.2-0.4c-0.2,0-0.5,0-0.7,0.1c-4.2,1.6-8.5,2.9-12.9,3.9
		c-0.8,0.2-1.5,0.8-1.8,1.5c-3,8.1-10.5,15.8-18.4,23.9c-0.4,0.4-0.9,0.7-1.5,0.7s-1.1-0.3-1.5-0.7c-7.9-8.1-15.5-15.7-18.4-23.8
		c-0.3-0.8-1-1.4-1.8-1.5c-4.4-1-8.7-2.3-12.9-3.9c-0.2-0.1-0.5-0.1-0.7-0.1c-0.4,0-0.9,0.1-1.2,0.4c-0.6,0.4-0.9,1.1-0.8,1.8
		c0.7,6.7,3.3,13.3,8.1,20.2c4.5,6.5,10.4,12.5,16.1,18.3c10.5,10.7,20.4,20.8,21.2,32.5c0.1,1.1,0.9,1.9,2,1.9h12.3
		c1.1,0,2-0.9,2-2v-0.1c-0.4-7.8-3.3-15.7-9-24c-1.2-1.7-2.5-3.4-3.8-5.1c-0.5-0.6-0.4-1.4,0.1-1.9l1.2-1.3
		c5.7-5.8,11.6-11.8,16.1-18.3c4.8-6.9,7.5-13.4,8.1-20.2C539.3,295.7,539,295,538.5,294.6"/>
	<path class="st2" d="M488.8,344c-0.4-0.4-0.9-0.6-1.4-0.6c-0.7,0-1.3,0.4-1.7,1c-5.2,7.9-7.9,15.3-8.2,22.8
		c-0.1,1.1,0.8,2.1,1.9,2.1h0.1h12.3c1.1,0,1.9-0.8,2-1.9c0.3-3.9,1.5-7.6,3.4-11c0.5-1,0.4-2.2-0.2-3.1
		C494.4,350.1,491.7,347,488.8,344"/>
	<path class="st2" d="M502,300.7c3.9,0,6.1-0.2,6.9-0.2c1,0,1.9,0.8,1.9,1.9c0,0.3,0,0.5-0.1,0.8c-1.7,3.9-4.1,7.5-7.2,10.5
		c-0.4,0.4-0.9,0.6-1.4,0.6l0,0c-0.5,0-1-0.2-1.4-0.6c-3.1-3-5.5-6.6-7.2-10.5c-0.1-0.2-0.1-0.5-0.1-0.8c0-1,0.8-1.9,1.9-1.9
		C495.9,300.4,498.1,300.7,502,300.7L502,300.7"/>
</g>
</svg>
