<?xml version="1.0" encoding="utf-8"?>
<!-- Generator: Adobe Illustrator 23.1.1, SVG Export Plug-In . SVG Version: 6.00 Build 0)  -->
<svg version="1.1" id="Слой_1" xmlns="http://www.w3.org/2000/svg" xmlns:xlink="http://www.w3.org/1999/xlink" x="0px" y="0px"
	 viewBox="0 0 1000 1000" style="enable-background:new 0 0 1000 1000;" xml:space="preserve">
<style type="text/css">
	.st0{enable-background:new    ;}
	.st1{fill:#113357;}
	.st2{fill:#FFD031;}
	.st3{fill:#050039;}
</style>
<title>soft</title>
<g class="st0">
	<path class="st1" d="M172.8,642.1v0.7h-9.6v-0.7c2.2-0.4,2.7-0.7,2.7-2.4v-24.3h-13.9v24.3c0,1.7,0.4,2,2.7,2.4v0.7h-9.6v-0.7
		c2.4-0.4,2.8-0.8,2.8-2.5v-21.9c0-1.7-0.4-2.1-2.8-2.5v-0.7h27.9v0.7c-2.4,0.4-2.8,0.8-2.8,2.5v21.9
		C170,641.4,170.4,641.8,172.8,642.1z"/>
	<path class="st1" d="M186,643.2c-2.4,0-4.2-1-5-2.4v8.2c0,1.5,0.3,1.8,2.6,2.1v0.7h-8.8v-0.7c2.1-0.3,2.3-0.6,2.3-1.9v-22.6
		c0-1.3-0.3-1.7-2.3-2v-0.7l6.2-0.2v3.5c1.1-2.1,3.5-3.6,6.3-3.6c4.1,0,7.9,3.4,7.9,9.6C195.1,639.2,191.1,643.2,186,643.2z
		 M185.5,625.3c-2.1,0-3.6,0.9-4.5,2.5v12c0.6,1.3,2.3,2.2,4.1,2.2c3.7,0,6-3.4,6-8.4C191.1,628.5,188.8,625.3,185.5,625.3z"/>
	<path class="st1" d="M198.5,633.4c0-5.8,4.3-9.8,9.7-9.8c5.4,0,9.6,3.8,9.6,9.7c0,5.8-4.3,9.8-9.7,9.8
		C202.8,643.2,198.5,639.3,198.5,633.4z M213.6,633.5c0-5.4-2.2-9-5.5-9c-3.4,0-5.4,3.4-5.4,8.7c0,5.4,2.2,9,5.5,9
		C211.6,642.2,213.6,638.8,213.6,633.5z"/>
	<path class="st1" d="M230.1,623.6c4.9,0,7.7,3.2,7.7,7.8c0,0.4,0,0.8-0.1,1h-12.6c0.1,5.3,3,9,7.4,9c2.2,0,3.9-0.8,4.9-1.9v0.7
		c-1.2,1.8-3.8,3.1-7,3.1c-5.4,0-9.3-3.9-9.3-9.8C221.2,627.7,224.7,623.6,230.1,623.6z M225.1,631.6l9-0.1c0-0.3,0-0.5,0-0.9
		c0-3.5-1.3-6.2-4.1-6.2C227.1,624.5,225.2,627.1,225.1,631.6z"/>
	<path class="st1" d="M249,642.1v0.7h-8.4v-0.7c2-0.3,2.4-0.6,2.4-2v-13.6c0-1.3-0.3-1.7-2.4-2v-0.7h8.4v0.7c-2,0.3-2.2,0.6-2.2,1.9
		v6.3l2.3,0l4.1-5.2c1.6-1.9,1.5-2.6-0.7-3v-0.7h6.9v0.7c-2,0.4-2.8,0.9-5.5,3.7l-2.3,2.5l5,7.6c1.8,2.8,2.6,3.6,3.8,3.8v0.6h-5.4
		l-5.9-9.2l-2.4,0v6.7C246.8,641.5,247,641.8,249,642.1z"/>
	<path class="st1" d="M279.5,630.2h-0.6c-1.3-4.6-1.8-5.3-5.1-5.4l-1.2-0.1V640c0,1.5,0.3,1.8,2.6,2.1v0.7h-9v-0.7
		c2.3-0.3,2.6-0.6,2.6-2.1v-15.3l-1.2,0.1c-3.3,0.2-3.8,0.9-5.1,5.4h-0.6l0.1-6.3h17.5L279.5,630.2z"/>
	<path class="st1" d="M290.2,642.1v0.7h-8.4v-0.7c2-0.3,2.4-0.6,2.4-2v-13.6c0-1.3-0.3-1.7-2.4-2v-0.7h8.4v0.7
		c-2,0.3-2.2,0.6-2.2,1.9v11.9l8.8-11.2v-0.7c0-1.3-0.3-1.6-2.2-1.9v-0.7h8.4v0.7c-2.1,0.3-2.4,0.6-2.4,2v13.6c0,1.3,0.3,1.7,2.4,2
		v0.7h-8.4v-0.7c2-0.3,2.2-0.6,2.2-1.9v-11.9l-8.8,11.2v0.7C287.9,641.5,288.2,641.8,290.2,642.1z"/>
</g>
<g class="st0">
	<path class="st1" d="M316.3,643.2c-2.4,0-4.2-1-5-2.4v8.2c0,1.5,0.3,1.8,2.6,2.1v0.7h-8.8v-0.7c2.1-0.3,2.3-0.6,2.3-1.9v-22.6
		c0-1.3-0.3-1.7-2.3-2v-0.7l6.2-0.2v3.5c1.1-2.1,3.5-3.6,6.3-3.6c4.1,0,7.9,3.4,7.9,9.6C325.4,639.2,321.4,643.2,316.3,643.2z
		 M315.8,625.3c-2.1,0-3.6,0.9-4.5,2.5v12c0.6,1.3,2.3,2.2,4.1,2.2c3.7,0,6-3.4,6-8.4C321.4,628.5,319.1,625.3,315.8,625.3z"/>
</g>
<g class="st0">
	<path class="st1" d="M326.1,624.6v-0.7h9.1v0.7c-2.3,0.3-2.7,0.9-1.7,3.4l3.8,10.2l3.7-10.1c1-2.7,0.6-3.2-1.7-3.6v-0.7h6.3v0.7
		c-1.7,0.3-2.2,0.8-3.4,3.8l-4.2,10.4l-1.7,4.1l-3.1,8.9H330v-0.1c1.7-2,4-5.9,5.4-8.9l-6.2-15.2
		C328.3,625.3,327.7,624.9,326.1,624.6z"/>
</g>
<g class="st0">
	<path class="st1" d="M355.1,642.1v0.7h-8.4v-0.7c2-0.3,2.4-0.6,2.4-2v-13.6c0-1.3-0.3-1.7-2.4-2v-0.7h8.4v0.7
		c-2,0.3-2.2,0.6-2.2,1.9v6.3h3.6c0.3-5.4,4.4-9.2,9.6-9.2c5.4,0,9.5,3.8,9.5,9.7c0,5.8-4.2,9.8-9.6,9.8c-5.4,0-9.4-3.8-9.5-9.6
		h-3.6v6.7C352.8,641.5,353.1,641.8,355.1,642.1z M371.2,633.5c0-5.3-2-9-5.4-9c-3.4,0-5.2,3.4-5.2,8.7s2,9,5.4,9
		C369.4,642.2,371.2,638.8,371.2,633.5z"/>
</g>
<g class="st0">
	<path class="st1" d="M378.1,646.9c1.5-0.4,2.7-1.5,2.7-2.9c0-1.4-1.2-2.4-2.7-2.5c0-1.7,0.9-3.1,2.5-3.1c1.6,0,2.6,1.4,2.6,3.5
		c0,3-2.4,5.2-4.9,5.7L378.1,646.9z"/>
	<path class="st1" d="M416.1,642.1v0.7h-8.4v-0.7c2-0.3,2.2-0.6,2.2-1.9v-15.5h-8.5v15.5c0,1.3,0.2,1.6,2.2,1.9v0.7h-8.4v-0.7
		c2-0.3,2.4-0.6,2.4-2v-13.6c0-1.3-0.3-1.7-2.4-2v-0.7h20.9v0.7c-2.1,0.3-2.4,0.6-2.4,2v13.6C413.7,641.5,414,641.8,416.1,642.1z"/>
	<path class="st1" d="M429.4,643.2c-2.4,0-4.2-1-5-2.4v8.2c0,1.5,0.3,1.8,2.6,2.1v0.7h-8.8v-0.7c2.1-0.3,2.3-0.6,2.3-1.9v-22.6
		c0-1.3-0.3-1.7-2.3-2v-0.7l6.2-0.2v3.5c1.1-2.1,3.5-3.6,6.3-3.6c4.1,0,7.9,3.4,7.9,9.6C438.5,639.2,434.5,643.2,429.4,643.2z
		 M428.9,625.3c-2.1,0-3.6,0.9-4.5,2.5v12c0.6,1.3,2.3,2.2,4.1,2.2c3.7,0,6-3.4,6-8.4C434.5,628.5,432.1,625.3,428.9,625.3z"/>
	<path class="st1" d="M441.9,633.4c0-5.8,4.3-9.8,9.7-9.8c5.4,0,9.6,3.8,9.6,9.7c0,5.8-4.3,9.8-9.7,9.8
		C446.1,643.2,441.9,639.3,441.9,633.4z M457,633.5c0-5.4-2.2-9-5.5-9c-3.4,0-5.4,3.4-5.4,8.7c0,5.4,2.2,9,5.5,9
		C455,642.2,457,638.8,457,633.5z"/>
	<path class="st1" d="M475.1,643.2c-2.4,0-4.2-1-5-2.4v8.2c0,1.5,0.3,1.8,2.6,2.1v0.7h-8.8v-0.7c2.1-0.3,2.3-0.6,2.3-1.9v-22.6
		c0-1.3-0.3-1.7-2.3-2v-0.7l6.2-0.2v3.5c1.1-2.1,3.5-3.6,6.3-3.6c4.1,0,7.9,3.4,7.9,9.6C484.2,639.2,480.2,643.2,475.1,643.2z
		 M474.5,625.3c-2.1,0-3.6,0.9-4.5,2.5v12c0.6,1.3,2.3,2.2,4.1,2.2c3.7,0,6-3.4,6-8.4C480.2,628.5,477.8,625.3,474.5,625.3z"/>
	<path class="st1" d="M487.5,638.5c0-2.9,2.1-4.6,7.4-5.8l4-0.9v-2.1c0-3.7-1.9-5.1-4.8-5.1c-1.5,0-2.9,0.4-3.9,1.2h0.1
		c1,0,1.9,0.9,1.9,2c0,1.1-0.9,2-2.1,2c-1.1,0-2-0.9-2-2c0-2.4,3.2-4.2,7.4-4.2c4.3,0,7.2,1.8,7.2,5.8v10c0,1.7,0.9,2.4,2.1,2.4
		c0.3,0,0.6-0.1,0.9-0.1v0.6c-0.6,0.4-1.7,0.8-3,0.8c-1.9,0-3.3-1-3.7-2.8c-0.9,1.6-3.2,2.9-6,2.9
		C489.8,643.2,487.5,641.3,487.5,638.5z M495.1,641.5c1.7,0,3-0.6,3.8-1.9v-7l-2.1,0.5c-4.1,0.9-5.4,2.4-5.4,4.7
		S493,641.5,495.1,641.5z"/>
	<path class="st1" d="M517.3,643.2c-6.2,0-9.6-4.7-9.6-11.8c0-6.2,1.5-10.2,3.9-12.5c2.1-2.1,4.6-3.1,8.8-3.6
		c4.1-0.4,5.2-0.7,5.5-1.8h0.7c-0.3,3.5-1.8,4.6-6.7,5.2l-2.4,0.3c-6.6,0.8-8.6,4.3-8.6,8.7c0,0.8,0,1.6,0.1,2.4
		c1.2-3.6,4.2-6.3,8.6-6.3c5.4,0,9.5,3.7,9.5,9.6C527.1,639.2,522.5,643.2,517.3,643.2z M517.5,624.7c-3.6,0-5.5,3.4-5.5,8.7
		c0,5.1,2,8.8,5.5,8.8c3.6,0,5.5-3.4,5.5-8.6C522.9,628.4,520.9,624.7,517.5,624.7z"/>
</g>
<g class="st0">
	<path class="st1" d="M530.5,638.5c0-2.9,2.1-4.6,7.4-5.8l4-0.9v-2.1c0-3.7-1.9-5.1-4.8-5.1c-1.5,0-2.9,0.4-3.9,1.2h0.1
		c1,0,1.9,0.9,1.9,2c0,1.1-0.9,2-2.1,2c-1.1,0-2-0.9-2-2c0-2.4,3.2-4.2,7.4-4.2c4.3,0,7.2,1.8,7.2,5.8v10c0,1.7,0.9,2.4,2.1,2.4
		c0.3,0,0.6-0.1,0.9-0.1v0.6c-0.6,0.4-1.7,0.8-3,0.8c-1.9,0-3.3-1-3.7-2.8c-0.9,1.6-3.2,2.9-6,2.9
		C532.8,643.2,530.5,641.3,530.5,638.5z M538,641.5c1.7,0,3-0.6,3.8-1.9v-7l-2.1,0.5c-4.1,0.9-5.4,2.4-5.4,4.7S536,641.5,538,641.5z
		"/>
</g>
<g class="st0">
	<path class="st1" d="M566.6,630.2H566c-1.3-4.6-1.8-5.3-5.1-5.4l-1.2-0.1V640c0,1.5,0.3,1.8,2.6,2.1v0.7h-9v-0.7
		c2.3-0.3,2.6-0.6,2.6-2.1v-15.3l-1.2,0.1c-3.3,0.2-3.8,0.9-5.1,5.4h-0.6l0.1-6.3h17.5L566.6,630.2z"/>
	<path class="st1" d="M578.1,642.8h-9.3v-0.7c2-0.3,2.4-0.6,2.4-2v-13.6c0-1.3-0.3-1.7-2.4-2v-0.7h8.8v0.7c-2.3,0.3-2.6,0.6-2.6,2.1
		v4.7h2.7c6,0,8.5,2,8.5,5.5C586.4,640.5,583,642.8,578.1,642.8z M575.1,632.3v9.7l2.2-0.1c3.1-0.1,5.1-1.8,5.1-4.7
		c0-2.9-1.6-4.8-5.1-4.9L575.1,632.3z M593.4,640.4c0,1.1,0.3,1.4,2.5,1.7v0.7h-8.8v-0.7c2.1-0.3,2.5-0.6,2.5-1.7v-14.2
		c0-1.1-0.3-1.4-2.5-1.7v-0.7h8.8v0.7c-2.2,0.3-2.5,0.6-2.5,1.7V640.4z"/>
	<path class="st1" d="M607.9,642.8h-9.7v-0.7c2-0.3,2.4-0.6,2.4-2v-13.6c0-1.3-0.3-1.7-2.4-2v-0.7h9.8c4.8,0,7.2,1.7,7.2,4.3
		c0,2.5-2.5,4-5.9,4.6c4.1,0.2,6.9,1.7,6.9,4.8S612.9,642.8,607.9,642.8z M607.1,624.8l-2.7-0.1v7.9l2.5,0c3-0.1,4.4-1.6,4.4-3.9
		C611.4,626.2,609.9,624.8,607.1,624.8z M607,633.4l-2.5,0v8.7l2.5-0.1c3.2-0.1,5.2-1.7,5.2-4.4C612.2,634.6,610.1,633.4,607,633.4z
		"/>
	<path class="st1" d="M619.1,638.5c0-2.9,2.1-4.6,7.4-5.8l4-0.9v-2.1c0-3.7-1.9-5.1-4.8-5.1c-1.5,0-2.9,0.4-3.9,1.2h0.1
		c1,0,1.9,0.9,1.9,2c0,1.1-0.9,2-2.1,2c-1.1,0-2-0.9-2-2c0-2.4,3.2-4.2,7.4-4.2c4.3,0,7.2,1.8,7.2,5.8v10c0,1.7,0.9,2.4,2.1,2.4
		c0.3,0,0.6-0.1,0.9-0.1v0.6c-0.6,0.4-1.7,0.8-3,0.8c-1.9,0-3.3-1-3.7-2.8c-0.9,1.6-3.2,2.9-6,2.9
		C621.5,643.2,619.1,641.3,619.1,638.5z M626.7,641.5c1.7,0,3-0.6,3.8-1.9v-7l-2.1,0.5c-4.1,0.9-5.4,2.4-5.4,4.7
		S624.6,641.5,626.7,641.5z"/>
	<path class="st1" d="M647,642.1v0.7h-8.4v-0.7c2-0.3,2.4-0.6,2.4-2v-13.6c0-1.3-0.3-1.7-2.4-2v-0.7h8.4v0.7c-2,0.3-2.2,0.6-2.2,1.9
		v6.3h3.6c0.3-5.4,4.4-9.2,9.6-9.2c5.4,0,9.5,3.8,9.5,9.7c0,5.8-4.2,9.8-9.6,9.8c-5.4,0-9.4-3.8-9.5-9.6h-3.6v6.7
		C644.7,641.5,645,641.8,647,642.1z M663.1,633.5c0-5.3-2-9-5.4-9c-3.4,0-5.2,3.4-5.2,8.7s2,9,5.4,9
		C661.3,642.2,663.1,638.8,663.1,633.5z"/>
	<path class="st1" d="M693.7,630.2h-0.6c-1.3-4.6-2-5.3-5.2-5.4l-2.6-0.1V640c0,1.5,0.3,1.8,2.6,2.1v0.7H679v-0.7
		c2-0.3,2.4-0.6,2.4-2v-13.6c0-1.3-0.3-1.7-2.4-2v-0.7h14.5L693.7,630.2z"/>
	<path class="st1" d="M704.3,642.1v0.7h-8.4v-0.7c2-0.3,2.4-0.6,2.4-2v-13.6c0-1.3-0.3-1.7-2.4-2v-0.7h8.4v0.7
		c-2,0.3-2.2,0.6-2.2,1.9v11.9l8.8-11.2v-0.7c0-1.3-0.3-1.6-2.2-1.9v-0.7h8.4v0.7c-2.1,0.3-2.4,0.6-2.4,2v13.6c0,1.3,0.3,1.7,2.4,2
		v0.7h-8.4v-0.7c2-0.3,2.2-0.6,2.2-1.9v-11.9l-8.8,11.2v0.7C702,641.5,702.3,641.8,704.3,642.1z"/>
	<path class="st1" d="M740.3,642.1v0.7h-8.4v-0.7c2-0.3,2.2-0.6,2.2-1.9v-15.5h-8.5v15.5c0,1.3,0.2,1.6,2.2,1.9v0.7h-8.4v-0.7
		c2-0.3,2.4-0.6,2.4-2v-13.6c0-1.3-0.3-1.7-2.4-2v-0.7h20.9v0.7c-2.1,0.3-2.4,0.6-2.4,2v13.6C737.9,641.5,738.2,641.8,740.3,642.1z"
		/>
	<path class="st1" d="M743.2,633.4c0-5.8,4.3-9.8,9.7-9.8c5.4,0,9.6,3.8,9.6,9.7c0,5.8-4.3,9.8-9.7,9.8
		C747.4,643.2,743.2,639.3,743.2,633.4z M758.3,633.5c0-5.4-2.2-9-5.5-9c-3.4,0-5.4,3.4-5.4,8.7c0,5.4,2.2,9,5.5,9
		C756.3,642.2,758.3,638.8,758.3,633.5z"/>
	<path class="st1" d="M783.1,630.2h-0.6c-1.3-4.6-1.8-5.3-5.1-5.4l-1.2-0.1V640c0,1.5,0.3,1.8,2.6,2.1v0.7h-9v-0.7
		c2.3-0.3,2.6-0.6,2.6-2.1v-15.3l-1.2,0.1c-3.3,0.2-3.8,0.9-5.1,5.4h-0.6l0.1-6.3h17.5L783.1,630.2z"/>
	<path class="st1" d="M794.8,623.6c4.9,0,7.7,3.2,7.7,7.8c0,0.4,0,0.8-0.1,1h-12.6c0.1,5.3,3,9,7.4,9c2.2,0,3.9-0.8,4.9-1.9v0.7
		c-1.2,1.8-3.8,3.1-7,3.1c-5.4,0-9.3-3.9-9.3-9.8C785.9,627.7,789.3,623.6,794.8,623.6z M789.8,631.6l9-0.1c0-0.3,0-0.5,0-0.9
		c0-3.5-1.3-6.2-4.1-6.2C791.7,624.5,789.9,627.1,789.8,631.6z"/>
	<path class="st1" d="M816.5,637.7c0-2.9-1.7-4.2-4.8-4.2h-1.9v-0.8h1.9c2.9,0,4.3-1.7,4.3-4.2c0-2.4-1.3-3.9-3.8-3.9
		c-2.6,0-4.4,1.8-5.2,5.3h-0.6l0.2-4.7c1.1-0.8,3-1.5,5.8-1.5c4.9,0,7.4,1.7,7.4,4.5c0,2.6-2.3,4.2-5.4,4.8c3.5,0.3,6.1,1.8,6.1,4.7
		c0,3.3-3.7,5.6-8.2,5.6c-2.8,0-4.9-0.7-6.2-1.6l-0.2-4.7h0.6c0.9,3.7,3,5.4,5.6,5.4S816.5,640.4,816.5,637.7z"/>
	<path class="st1" d="M832.4,642.8h-9.3v-0.7c2-0.3,2.4-0.6,2.4-2v-13.6c0-1.3-0.3-1.7-2.4-2v-0.7h8.8v0.7c-2.3,0.3-2.6,0.6-2.6,2.1
		v4.7h2.7c6,0,8.5,2,8.5,5.5C840.6,640.5,837.3,642.8,832.4,642.8z M829.3,632.3v9.7l2.2-0.1c3.1-0.1,5.1-1.8,5.1-4.7
		c0-2.9-1.6-4.8-5.1-4.9L829.3,632.3z M847.6,640.4c0,1.1,0.3,1.4,2.5,1.7v0.7h-8.8v-0.7c2.1-0.3,2.5-0.6,2.5-1.7v-14.2
		c0-1.1-0.3-1.4-2.5-1.7v-0.7h8.8v0.7c-2.2,0.3-2.5,0.6-2.5,1.7V640.4z"/>
	<path class="st1" d="M853.3,646.9c1.5-0.4,2.7-1.5,2.7-2.9c0-1.4-1.2-2.4-2.7-2.5c0-1.7,0.9-3.1,2.5-3.1c1.6,0,2.6,1.4,2.6,3.5
		c0,3-2.4,5.2-4.9,5.7L853.3,646.9z"/>
</g>
<g class="st0">
	<path class="st1" d="M236.6,681.3c0-5.6,4.1-9.8,9.7-9.8c4.2,0,6.2,2.1,6.2,4.3c0,1.2-0.9,2.1-2,2.1c-1.2,0-2-0.9-2-2
		c0-1.2,0.9-2,1.9-2c0.1,0,0.3,0,0.4,0c-0.8-0.8-2.1-1.2-3.6-1.2c-4,0-6.5,3.2-6.5,7.9c0,5.5,3.2,8.8,7.2,8.8c2.2,0,3.8-0.8,4.9-1.9
		v0.7c-1.2,1.8-3.8,3.1-6.9,3.1C240.5,691.2,236.6,687.2,236.6,681.3z"/>
	<path class="st1" d="M276.5,696.7h-0.7c-1.4-5-1.9-5.9-5.3-5.9h-15.4v-0.7c2-0.3,2.4-0.6,2.4-2v-13.6c0-1.3-0.3-1.7-2.4-2v-0.7h8.4
		v0.7c-2,0.3-2.2,0.6-2.2,1.9V690h8.4v-15.5c0-1.3-0.2-1.6-2.2-1.9v-0.7h8.4v0.7c-2.1,0.3-2.3,0.6-2.3,2V690h2.9L276.5,696.7z"/>
	<path class="st1" d="M287.7,671.6c4.9,0,7.7,3.2,7.7,7.8c0,0.4,0,0.8-0.1,1h-12.6c0.1,5.3,3,9,7.4,9c2.2,0,3.9-0.8,4.9-1.9v0.7
		c-1.2,1.8-3.8,3.1-7,3.1c-5.4,0-9.3-3.9-9.3-9.8C278.9,675.7,282.3,671.6,287.7,671.6z M282.8,679.6l9-0.1c0-0.3,0-0.5,0-0.9
		c0-3.5-1.3-6.2-4.1-6.2C284.7,672.5,282.9,675.1,282.8,679.6z"/>
	<path class="st1" d="M306.6,690.1v0.7h-8.4v-0.7c2-0.3,2.4-0.6,2.4-2v-13.6c0-1.3-0.3-1.7-2.4-2v-0.7h8.4v0.7
		c-2,0.3-2.2,0.6-2.2,1.9v6.3h8.7v-6.3c0-1.3-0.3-1.6-2.2-1.9v-0.7h8.4v0.7c-2.1,0.3-2.4,0.6-2.4,2v13.6c0,1.3,0.3,1.7,2.4,2v0.7
		h-8.4v-0.7c2-0.3,2.2-0.6,2.2-1.9v-6.7h-8.7v6.7C304.4,689.5,304.6,689.8,306.6,690.1z"/>
	<path class="st1" d="M322,686.5c0-2.9,2.1-4.6,7.4-5.8l4-0.9v-2.1c0-3.7-1.9-5.1-4.8-5.1c-1.5,0-2.9,0.4-3.9,1.2h0.1
		c1,0,1.9,0.9,1.9,2c0,1.1-0.9,2-2.1,2c-1.1,0-2-0.9-2-2c0-2.4,3.2-4.2,7.4-4.2c4.3,0,7.2,1.8,7.2,5.8v10c0,1.7,0.9,2.4,2.1,2.4
		c0.3,0,0.6-0.1,0.9-0.1v0.6c-0.6,0.4-1.7,0.8-3,0.8c-1.9,0-3.3-1-3.7-2.8c-0.9,1.6-3.2,2.9-6,2.9C324.4,691.2,322,689.3,322,686.5z
		 M329.6,689.5c1.7,0,3-0.6,3.8-1.9v-7l-2.1,0.5c-4.1,0.9-5.4,2.4-5.4,4.7S327.5,689.5,329.6,689.5z"/>
	<path class="st1" d="M352.5,691.2c-2.4,0-4.2-1-5-2.4v8.2c0,1.5,0.3,1.8,2.6,2.1v0.7h-8.8v-0.7c2.1-0.3,2.3-0.6,2.3-1.9v-22.6
		c0-1.3-0.3-1.7-2.3-2v-0.7l6.2-0.2v3.5c1.1-2.1,3.5-3.6,6.3-3.6c4.1,0,7.9,3.4,7.9,9.6C361.5,687.2,357.6,691.2,352.5,691.2z
		 M351.9,673.3c-2.1,0-3.6,0.9-4.5,2.5v12c0.6,1.3,2.3,2.2,4.1,2.2c3.7,0,6-3.4,6-8.4C357.5,676.5,355.2,673.3,351.9,673.3z"/>
	<path class="st1" d="M372.8,690.1v0.7h-8.4v-0.7c2-0.3,2.4-0.6,2.4-2v-13.6c0-1.3-0.3-1.7-2.4-2v-0.7h8.4v0.7
		c-2,0.3-2.2,0.6-2.2,1.9v11.9l8.8-11.2v-0.7c0-1.3-0.3-1.6-2.2-1.9v-0.7h8.4v0.7c-2.1,0.3-2.4,0.6-2.4,2v13.6c0,1.3,0.3,1.7,2.4,2
		v0.7h-8.4v-0.7c2-0.3,2.2-0.6,2.2-1.9v-11.9l-8.8,11.2v0.7C370.6,689.5,370.8,689.8,372.8,690.1z"/>
	<path class="st1" d="M396.4,690.1v0.7H388v-0.7c2-0.3,2.4-0.6,2.4-2v-13.6c0-1.3-0.3-1.7-2.4-2v-0.7h8.4v0.7
		c-2,0.3-2.2,0.6-2.2,1.9v11.9l8.8-11.2v-0.7c0-1.3-0.3-1.6-2.2-1.9v-0.7h8.4v0.7c-2.1,0.3-2.4,0.6-2.4,2v13.6c0,1.3,0.3,1.7,2.4,2
		v0.7h-8.4v-0.7c2-0.3,2.2-0.6,2.2-1.9v-11.9l-8.8,11.2v0.7C394.2,689.5,394.4,689.8,396.4,690.1z"/>
	<path class="st1" d="M428.8,690.1v0.7h-8.4v-0.7c2-0.3,2.4-0.6,2.4-2v-13.6c0-1.3-0.3-1.7-2.4-2v-0.7h8.4v0.7
		c-2,0.3-2.2,0.6-2.2,1.9v11.9l8.8-11.2v-0.7c0-1.3-0.3-1.6-2.2-1.9v-0.7h8.4v0.7c-2.1,0.3-2.4,0.6-2.4,2v13.6c0,1.3,0.3,1.7,2.4,2
		v0.7h-8.4v-0.7c2-0.3,2.2-0.6,2.2-1.9v-11.9l-8.8,11.2v0.7C426.5,689.5,426.8,689.8,428.8,690.1z"/>
	<path class="st1" d="M458.3,684.4c0,3.3,1.6,5,4.4,5c2,0,3.4-0.9,4.3-2.3v-12.1c0-1-0.1-1.2-1.2-1.6l-1.2-0.4v-0.6l6.2-0.7v16
		c0,1.1,0.1,1.3,1.2,1.6l1.1,0.3v0.6L467,691v-3.3c-1.1,2.1-3.3,3.5-6.2,3.5c-3.7,0-6.3-1.9-6.3-6v-10.2c0-1-0.1-1.2-1.2-1.6
		l-1.2-0.4v-0.6l6.2-0.7V684.4z"/>
	<path class="st1" d="M483,671.6c2.7,0,4.7,0.6,5.6,1.2l0.1,4.8h-0.6c-0.6-3.3-2.6-5.1-5.1-5.1c-2.5,0-3.9,1.3-3.9,3.1
		c0,1.8,1.4,2.7,3.8,3.5l1.5,0.5c3.4,1.1,5.3,2.9,5.3,5.9c0,3.5-3.6,5.6-7.2,5.6c-2.8,0-5.2-0.6-6.5-1.5l-0.2-5.2h0.6
		c0.8,3.8,3.4,5.8,6.1,5.8c2.5,0,4-1.4,4-3.3c0-1.9-1.1-2.9-3.7-3.8l-1.5-0.5c-3.4-1.1-5.4-2.8-5.4-5.6
		C475.9,673.5,479,671.6,483,671.6z"/>
	<path class="st1" d="M501.8,671.6c4.9,0,7.7,3.2,7.7,7.8c0,0.4,0,0.8-0.1,1h-12.6c0.1,5.3,3,9,7.4,9c2.2,0,3.9-0.8,4.9-1.9v0.7
		c-1.2,1.8-3.8,3.1-7,3.1c-5.4,0-9.3-3.9-9.3-9.8C493,675.7,496.4,671.6,501.8,671.6z M496.9,679.6l9-0.1c0-0.3,0-0.5,0-0.9
		c0-3.5-1.3-6.2-4.1-6.2C498.8,672.5,497,675.1,496.9,679.6z"/>
	<path class="st1" d="M518.2,675.9c2.2-2.8,3.8-4.2,5.4-4.2c1.4,0,2,0.9,2,1.9c0,0.5-0.2,1.1-0.4,1.3c-0.4-0.1-1.1-0.2-1.9-0.2
		c-2,0-4,0.7-5,1.7V688c0,1.5,0.3,1.8,2.6,2.1v0.7h-8.8v-0.7c2.1-0.3,2.4-0.6,2.4-1.9v-13.3c0-1-0.1-1.2-1.2-1.6l-1.2-0.4v-0.6
		l6.2-0.7V675.9z"/>
</g>
<g class="st0">
	<path class="st1" d="M544.9,690.1v0.7h-8.8v-0.7c2.1-0.3,2.4-0.6,2.4-1.9v-15h-2.4v-0.5l2.4-0.8v-3.6c0-4.3,2.5-6.6,5.8-6.6
		c2.5,0,3.8,1.2,3.8,2.8c0,1-0.8,1.8-1.7,1.8c-1,0-1.8-0.8-1.8-1.8c0-0.9,0.6-1.5,1.3-1.7c-0.3-0.1-0.7-0.2-1-0.2
		c-1.7,0-2.6,1.3-2.6,4.4v5l5-0.2v1.3l-5-0.2v15C542.3,689.5,542.6,689.8,544.9,690.1z"/>
</g>
<g class="st0">
	<path class="st1" d="M555.2,688.1c0,1.3,0.3,1.7,2.4,2v0.7H549v-0.7c2-0.3,2.4-0.6,2.4-2v-23c0-1-0.1-1.2-1.2-1.6l-1.2-0.4v-0.6
		l6.2-0.7V688.1z"/>
</g>
<g class="st0">
	<path class="st1" d="M560.1,681.4c0-5.8,4.3-9.8,9.7-9.8c5.4,0,9.6,3.8,9.6,9.7c0,5.8-4.3,9.8-9.7,9.8
		C564.3,691.2,560.1,687.3,560.1,681.4z M575.2,681.5c0-5.4-2.2-9-5.5-9c-3.4,0-5.4,3.4-5.4,8.7c0,5.4,2.2,9,5.5,9
		C573.2,690.2,575.2,686.8,575.2,681.5z"/>
</g>
<g class="st0">
	<path class="st1" d="M580.2,672.6v-0.7h8.8v0.7c-2.1,0.3-2.4,0.9-1.6,3.4l3.3,10.1l3.5-10.1c0.9-2.6,0.6-3.1-1.5-3.4v-0.7h8.3v0.7
		c-2,0.3-2.4,0.9-1.5,3.4l3.5,10.1l3.3-10c0.9-2.7,0.5-3.3-1.6-3.6v-0.7h6.1v0.7c-1.6,0.3-2.2,0.8-3.3,3.8l-5.4,14.5H601l-5.4-15.2
		l-5.7,15.2h-1.2l-5.4-15.2C582.5,673.3,581.8,672.9,580.2,672.6z"/>
	<path class="st1" d="M641.7,690.1v0.7h-8.4v-0.7c2-0.3,2.2-0.6,2.2-1.9v-15.5H627v15.5c0,1.3,0.2,1.6,2.2,1.9v0.7h-8.4v-0.7
		c2-0.3,2.4-0.6,2.4-2v-13.6c0-1.3-0.3-1.7-2.4-2v-0.7h20.9v0.7c-2.1,0.3-2.4,0.6-2.4,2v13.6C639.3,689.5,639.5,689.8,641.7,690.1z"
		/>
	<path class="st1" d="M655,691.2c-2.4,0-4.2-1-5-2.4v8.2c0,1.5,0.3,1.8,2.6,2.1v0.7h-8.8v-0.7c2.1-0.3,2.3-0.6,2.3-1.9v-22.6
		c0-1.3-0.3-1.7-2.3-2v-0.7l6.2-0.2v3.5c1.1-2.1,3.5-3.6,6.3-3.6c4.1,0,7.9,3.4,7.9,9.6C664.1,687.2,660.1,691.2,655,691.2z
		 M654.4,673.3c-2.1,0-3.6,0.9-4.5,2.5v12c0.6,1.3,2.3,2.2,4.1,2.2c3.7,0,6-3.4,6-8.4C660,676.5,657.7,673.3,654.4,673.3z"/>
	<path class="st1" d="M667.5,681.4c0-5.8,4.3-9.8,9.7-9.8c5.4,0,9.6,3.8,9.6,9.7c0,5.8-4.3,9.8-9.7,9.8
		C671.7,691.2,667.5,687.3,667.5,681.4z M682.6,681.5c0-5.4-2.2-9-5.5-9c-3.4,0-5.4,3.4-5.4,8.7c0,5.4,2.2,9,5.5,9
		C680.6,690.2,682.6,686.8,682.6,681.5z"/>
	<path class="st1" d="M699.1,671.6c4.9,0,7.7,3.2,7.7,7.8c0,0.4,0,0.8-0.1,1h-12.6c0.1,5.3,3,9,7.4,9c2.2,0,3.9-0.8,4.9-1.9v0.7
		c-1.2,1.8-3.8,3.1-7,3.1c-5.4,0-9.3-3.9-9.3-9.8C690.2,675.7,693.6,671.6,699.1,671.6z M694.1,679.6l9-0.1c0-0.3,0-0.5,0-0.9
		c0-3.5-1.3-6.2-4.1-6.2C696,672.5,694.2,675.1,694.1,679.6z"/>
	<path class="st1" d="M717.9,690.1v0.7h-8.4v-0.7c2-0.3,2.4-0.6,2.4-2v-13.6c0-1.3-0.3-1.7-2.4-2v-0.7h8.4v0.7
		c-2,0.3-2.2,0.6-2.2,1.9v6.3l2.3,0l4.1-5.2c1.6-1.9,1.5-2.6-0.7-3v-0.7h6.9v0.7c-2,0.4-2.8,0.9-5.5,3.7l-2.3,2.5l5,7.6
		c1.8,2.8,2.6,3.6,3.8,3.8v0.6H724l-5.9-9.2l-2.4,0v6.7C715.7,689.5,716,689.8,717.9,690.1z"/>
</g>
<g class="st0">
	<path class="st1" d="M748.4,678.2h-0.6c-1.3-4.6-1.8-5.3-5.1-5.4l-1.2-0.1V688c0,1.5,0.3,1.8,2.6,2.1v0.7h-9v-0.7
		c2.3-0.3,2.6-0.6,2.6-2.1v-15.3l-1.2,0.1c-3.3,0.2-3.8,0.9-5.1,5.4h-0.6l0.1-6.3h17.5L748.4,678.2z"/>
</g>
<g class="st0">
	<path class="st1" d="M751.1,686.5c0-2.9,2.1-4.6,7.4-5.8l4-0.9v-2.1c0-3.7-1.9-5.1-4.8-5.1c-1.5,0-2.9,0.4-3.9,1.2h0.1
		c1,0,1.9,0.9,1.9,2c0,1.1-0.9,2-2.1,2c-1.1,0-2-0.9-2-2c0-2.4,3.2-4.2,7.4-4.2c4.3,0,7.2,1.8,7.2,5.8v10c0,1.7,0.9,2.4,2.1,2.4
		c0.3,0,0.6-0.1,0.9-0.1v0.6c-0.6,0.4-1.7,0.8-3,0.8c-1.9,0-3.3-1-3.7-2.8c-0.9,1.6-3.2,2.9-6,2.9
		C753.5,691.2,751.1,689.3,751.1,686.5z M758.7,689.5c1.7,0,3-0.6,3.8-1.9v-7l-2.1,0.5c-4.1,0.9-5.4,2.4-5.4,4.7
		S756.6,689.5,758.7,689.5z"/>
</g>
<g class="st0">
	<path class="st1" d="M471.4,470.4l4.6-17.7l12.9,0v1.2c-2.1,0.4-2.6,1-2.6,2.8l0.6,20.2c0.1,1.8,0.5,2.4,2.7,2.8v1.2h-14.6v-1.2
		c2-0.4,2.6-1,2.5-2.7l-0.5-20.3l-4.6,15.2l-2.3,9h-5.3l-7.3-24.3l0.1,19c0,3,0.4,3.6,2.6,4.1v1.2h-7.5v-1.2c2-0.4,2.4-1.1,2.6-4.1
		l0.6-18.6c0.1-1.8-0.5-2.7-2.5-3v-1.2h12.9L471.4,470.4z"/>
	<path class="st1" d="M501.8,477.4c0,1.5,0.4,1.9,2.1,2.3v1.2h-13.1v-1.2c1.8-0.4,2.1-0.8,2.1-2.3v-11.6c0-1.5-0.2-1.8-1.3-2.2
		l-0.9-0.3v-1.2l11-1.4V477.4z M492.8,455.1c0-2.3,1.9-3.9,4.2-3.9c2.3,0,4.2,1.6,4.2,3.9c0,2.3-1.9,3.9-4.2,3.9
		C494.6,459,492.8,457.3,492.8,455.1z"/>
</g>
<g class="st0">
	<path class="st1" d="M516.4,467.5c1.5-4.9,3.2-6.8,5.5-6.8c2.1,0,3.2,1.9,3.2,4.3c0,1.2-0.2,2.2-0.5,2.9c-0.7-0.3-2.2-0.6-3.7-0.6
		c-1.9,0-3.8,0.4-4.5,0.9l0,8.9c0,1.6,0.4,2.1,2.4,2.5v1.2h-13.4v-1.2c1.8-0.4,2.1-0.8,2.1-2.3v-11.6c0-1.5-0.2-1.8-1.3-2.2
		l-0.9-0.3v-1.2l10.9-1.4L516.4,467.5z"/>
</g>
<g class="st0">
	<path class="st1" d="M526.5,471.1c0-6.2,5.1-10.4,12.1-10.4s12.1,3.9,12.1,10.3c0,6.2-5.1,10.5-12.2,10.5S526.5,477.4,526.5,471.1z
		 M541.5,471.1c0-5.8-1-8.9-3-8.9c-2,0-2.8,3.1-2.8,8.6c0,5.8,1,8.9,3,8.9C540.7,479.7,541.5,476.6,541.5,471.1z"/>
</g>
<path class="st2" d="M502,389.1c0,0-40.4,0.9-52.6-12.1s-15.6-29.5-15.6-57s3.4-44.1,15.6-57.1s52.6-12,52.6-12s40.4-0.9,52.6,12
	s15.6,29.5,15.6,57.1s-3.4,44.1-15.6,57.1S502,389.1,502,389.1z"/>
<polygon class="st3" points="463.2,281.2 474.5,281.2 495.9,301.5 485.7,281.3 497,281.3 518.3,296.7 508.3,281.3 519.5,281.3 
	540.9,293 519.5,358.6 508.3,358.6 518.2,298.9 497,358.8 485.8,358.8 495.6,303.9 474.5,358.7 463.1,358.7 473.3,307.4 "/>
</svg>
