<?xml version="1.0" encoding="utf-8"?>
<!-- Generator: Adobe Illustrator 23.1.1, SVG Export Plug-In . SVG Version: 6.00 Build 0)  -->
<svg version="1.1" id="Слой_1" xmlns="http://www.w3.org/2000/svg" xmlns:xlink="http://www.w3.org/1999/xlink" x="0px" y="0px"
	 viewBox="0 0 1000 1000" style="enable-background:new 0 0 1000 1000;" xml:space="preserve">
<style type="text/css">
	.st0{fill:#113357;}
	.st1{enable-background:new    ;}
	.st2{fill:url(#path-5_1_);}
	.st3{fill:url(#SVGID_1_);}
	.st4{fill:#F7F7F7;}
</style>
<title>soft</title>
<g>
	<path class="st0" d="M172.2,642.1v0.7h-9.6v-0.7c2.4-0.3,2.8-0.8,2.8-2.5v-21.9c0-1.7-0.4-2.1-2.8-2.5v-0.7h9.6v0.7
		c-2.2,0.3-2.6,0.7-2.6,2.3v10.1h2.8l7.3-8.7c2.1-2.5,2.1-3.5-0.6-3.8v-0.7h7.8v0.7c-2,0.5-3.5,1.5-6.1,4.3l-5.4,5.8l7,11.3
		c2.6,4.2,3.6,5,5,5.4v0.6h-6l-8.9-14.3h-2.8v11.3C169.5,641.4,169.9,641.8,172.2,642.1z"/>
	<path class="st0" d="M188.4,633.4c-0.2-5.3,3.9-9.7,9.2-9.8c0.2,0,0.4,0,0.5,0c5.2-0.2,9.5,3.9,9.6,9.1c0,0.2,0,0.5,0,0.7
		c0.2,5.3-4,9.7-9.2,9.8c-0.2,0-0.3,0-0.5,0c-5.2,0.2-9.5-3.9-9.6-9.1C188.3,633.9,188.3,633.6,188.4,633.4z M203.5,633.5
		c0-5.4-2.2-9-5.5-9s-5.4,3.4-5.4,8.7c0,5.4,2.2,9,5.5,9S203.5,638.8,203.5,633.5z"/>
	<path class="st0" d="M225.2,630.2h-0.6c-1.3-4.6-2-5.3-5.2-5.4l-2.6-0.1V640c0,1.5,0.3,1.8,2.6,2.2v0.7h-8.8v-0.7
		c2-0.3,2.4-0.7,2.4-2v-13.6c0-1.3-0.3-1.7-2.4-2v-0.7h14.5L225.2,630.2z"/>
	<path class="st0" d="M245.6,648.7H245c-1.5-5.1-1.9-5.9-5.3-5.9h-7.9c-3.4,0-3.8,0.8-5.4,5.9h-0.7l0.2-6.7h2.1
		c1.3-1.7,2.6-5.7,2.7-13.2v-1.5c0-2.1-0.6-2.5-2.8-2.8v-0.7h17.3v0.7c-2.3,0.3-2.6,0.6-2.6,2.1V642h2.8L245.6,648.7z M238.8,642
		v-17.2h-7l-0.1,4.1c-0.1,7.9-1.5,11.5-2.6,13.2H238.8z"/>
	<path class="st0" d="M248,638.5c0-2.9,2.1-4.6,7.4-5.8l4-0.9v-2c0-3.7-1.9-5.1-4.8-5.1c-1.4,0-2.8,0.4-3.9,1.2h0.1
		c1.1,0,2,1,1.9,2.1s-1,2-2.1,1.9c-1.1,0-2-0.9-2-2c0-2.4,3.2-4.2,7.4-4.2s7.2,1.8,7.2,5.8v10c0,1.7,0.9,2.5,2.1,2.5
		c0.3,0,0.6,0,0.9-0.1v0.6c-0.9,0.6-1.9,0.8-3,0.8c-1.8,0.2-3.3-1.1-3.6-2.8c-0.9,1.6-3.2,2.9-6,2.9
		C250.3,643.2,248,641.3,248,638.5z M255.6,641.5c1.5,0.1,3-0.6,3.8-1.9v-7l-2.1,0.5c-4.1,0.9-5.4,2.4-5.4,4.7
		c-0.2,1.9,1.3,3.6,3.2,3.8C255.2,641.5,255.4,641.5,255.6,641.5L255.6,641.5z"/>
	<path class="st0" d="M293.9,630.2h-0.6c-1.3-4.6-1.8-5.3-5.1-5.5H287V640c0,1.5,0.3,1.8,2.6,2.2v0.7h-9v-0.7
		c2.3-0.3,2.6-0.7,2.6-2.2v-15.3h-1.2c-3.3,0.2-3.8,0.9-5.1,5.5h-0.6l0.1-6.3h17.5L293.9,630.2z"/>
	<path class="st0" d="M305.3,623.9h9.3v0.7c-2,0.3-2.4,0.6-2.4,2v13.6c0,1.3,0.3,1.7,2.4,2v0.7h-8.4v-0.7c2-0.3,2.2-0.6,2.2-1.9
		v-5.8h-2.5l-5.6,8.4h-4.7v-0.6c1.1-0.3,1.9-1,4.1-4.2l2.6-3.8c-2.9-0.4-4.9-2.1-4.9-4.9C297.3,625.9,300.4,623.9,305.3,623.9z
		 M306.3,633.6h2.1v-9l-2.2,0.1c-2.9,0.1-4.9,1.5-4.9,4.4S303,633.6,306.3,633.6L306.3,633.6z"/>
	<path class="st0" d="M315.9,642.8v-0.6c1.2-0.3,2-1.1,3.9-3.8l4.9-7.5l-2.4-2.6c-2.7-2.8-3.6-3.3-5.5-3.8v-0.7h7v0.7
		c-2.2,0.4-2.4,1.1-0.8,3l4.1,5.1l2.1,0.1v-6.3c0-1.3-0.2-1.6-2.2-1.8v-0.7h8.1v0.7c-2,0.3-2.2,0.6-2.2,1.8v6.3l2.1-0.1l4.1-5.1
		c1.6-1.9,1.4-2.6-0.7-3v-0.7h7v0.7c-2,0.4-2.9,0.9-5.5,3.8l-2.3,2.5l5,7.6c1.8,2.8,2.6,3.5,3.9,3.8v0.6h-5.4l-6-9.2h-2.2v6.7
		c0,1.2,0.2,1.6,2.2,1.9v0.7H327v-0.7c2-0.3,2.2-0.6,2.2-1.9v-6.7H327l-6,9.2H315.9z"/>
	<path class="st0" d="M356.3,623.6c4.9,0,7.7,3.2,7.7,7.8c0,0.3,0,0.7-0.1,1h-12.6c0.1,5.3,3,9,7.4,9c1.8,0.1,3.6-0.6,4.9-1.9v0.7
		c-1.2,1.8-3.8,3.1-7,3.1c-5.4,0-9.3-3.9-9.3-9.8C347.4,627.7,350.9,623.6,356.3,623.6z M351.3,631.6l9-0.1c0-0.2,0-0.5,0-0.9
		c0-3.5-1.3-6.2-4.1-6.2C353.3,624.5,351.4,627.1,351.3,631.6L351.3,631.6z"/>
	<path class="st0" d="M367.6,638.6c1,0,1.8,0.6,2.1,1.6c0.9-2,1.2-5.5,1.3-10.8l0.1-2.5c0-1.6-0.5-2.1-2.8-2.3v-0.7h16.7v0.7
		c-2.1,0.3-2.4,0.6-2.4,2v13.6c0,1.3,0.3,1.7,2.4,2v0.7h-8.4v-0.7c2-0.3,2.2-0.6,2.2-1.9v-15.5h-6.5l-0.1,4.8
		c-0.3,9-1.2,13.6-4.4,13.6c-1.2,0.1-2.2-0.8-2.3-2c0-0.1,0-0.2,0-0.3c0-1.2,0.9-2.2,2.1-2.2C367.5,638.6,367.5,638.6,367.6,638.6z"
		/>
	<path class="st0" d="M387.8,633.4c-0.2-5.3,3.9-9.7,9.2-9.8c0.2,0,0.4,0,0.5,0c5.2-0.2,9.5,3.9,9.6,9.1c0,0.2,0,0.5,0,0.7
		c0.2,5.3-4,9.7-9.2,9.8c-0.2,0-0.3,0-0.5,0c-5.2,0.1-9.5-3.9-9.6-9.1C387.8,633.8,387.8,633.6,387.8,633.4z M402.9,633.5
		c0-5.4-2.2-9-5.5-9s-5.4,3.4-5.4,8.7c0,5.4,2.2,9,5.5,9S402.9,638.8,402.9,633.5z"/>
	<path class="st0" d="M419.3,633.4c-0.2-5.3,3.9-9.7,9.2-9.8c0.2,0,0.4,0,0.5,0c5.2-0.2,9.5,3.9,9.6,9.1c0,0.2,0,0.5,0,0.7
		c0.2,5.3-4,9.7-9.2,9.8c-0.2,0-0.3,0-0.5,0c-5.2,0.1-9.5-3.9-9.6-9.1C419.3,633.8,419.3,633.6,419.3,633.4z M434.4,633.5
		c0-5.4-2.2-9-5.5-9s-5.4,3.4-5.4,8.7c0,5.4,2.2,9,5.5,9S434.5,638.8,434.4,633.5L434.4,633.5z"/>
	<path class="st0" d="M451.9,643.2c-6.2,0-9.6-4.7-9.6-11.8c0-6.2,1.5-10.2,4-12.5c2.1-2,4.6-3.1,8.8-3.6s5.2-0.7,5.5-1.8h0.7
		c-0.3,3.5-1.8,4.7-6.7,5.2l-2.4,0.3c-6.6,0.8-8.6,4.3-8.6,8.7c0,0.8,0,1.6,0.1,2.4c1.1-3.8,4.6-6.4,8.5-6.3c5.5,0,9.5,3.7,9.5,9.5
		c0.1,5.4-4.3,9.8-9.6,9.8C452.1,643.2,452,643.2,451.9,643.2z M452.1,624.7c-3.6,0-5.5,3.4-5.5,8.7c0,5.1,2,8.8,5.5,8.8
		s5.5-3.4,5.5-8.6S455.6,624.7,452.1,624.7L452.1,624.7z"/>
	<path class="st0" d="M477.7,642.8h-9.5v-0.7c2.3-0.3,2.6-0.7,2.6-2.2v-15.3h-0.9c-3,0.2-3.4,0.9-4.7,5.5h-0.6l0.1-6.3h12.5v0.7
		c-2.3,0.3-2.6,0.6-2.6,2.1v4.7h2.8c6,0,8.5,2,8.5,5.5S482.6,642.8,477.7,642.8z M474.6,632.3v9.7l2.2-0.1c3.1-0.1,5.1-1.8,5.1-4.7
		s-1.6-4.8-5.1-4.9L474.6,632.3z"/>
	<path class="st0" d="M497,623.9h9.3v0.7c-2,0.3-2.3,0.6-2.3,2v13.6c0,1.3,0.3,1.7,2.3,2v0.7h-8.4v-0.7c2-0.3,2.2-0.6,2.2-1.9v-5.8
		h-2.5l-5.7,8.3h-4.7v-0.6c1.1-0.3,1.9-1,4.1-4.2l2.6-3.8c-2.9-0.4-4.9-2.1-4.9-4.9C489.1,625.9,492.2,623.9,497,623.9z M498,633.6
		h2.1v-9l-2.2,0.1c-2.9,0.1-4.9,1.5-4.9,4.4S494.7,633.6,498,633.6L498,633.6z"/>
	<path class="st0" d="M509.2,633.3c-0.2-5.2,3.9-9.6,9.1-9.8c0.2,0,0.4,0,0.5,0c4.2,0,6.2,2,6.2,4.3c0,1.1-0.8,2-1.9,2.1
		c0,0-0.1,0-0.1,0c-1.1,0-2-0.9-2-2c0-1.1,0.9-2,1.9-2c0.1,0,0.3,0,0.4,0c-1-0.9-2.3-1.3-3.6-1.2c-4,0-6.5,3.2-6.5,7.9
		c0,5.5,3.2,8.8,7.2,8.8c1.8,0.1,3.6-0.6,4.9-1.9v0.7c-1.2,1.8-3.8,3.1-6.9,3.1C513.1,643.2,509.2,639.2,509.2,633.3z"/>
	<path class="st0" d="M536,642.1v0.7h-8.4v-0.7c2-0.3,2.4-0.7,2.4-2v-13.6c0-1.3-0.3-1.7-2.4-2v-0.7h8.4v0.7c-2,0.3-2.2,0.6-2.2,1.8
		v6.3h8.7v-6.3c0-1.3-0.3-1.6-2.2-1.8v-0.7h8.4v0.7c-2.1,0.3-2.4,0.6-2.4,2v13.6c0,1.3,0.3,1.7,2.4,2v0.7h-8.4v-0.7
		c2-0.3,2.2-0.6,2.2-1.9v-6.7h-8.7v6.7C533.8,641.5,534,641.8,536,642.1z"/>
	<path class="st0" d="M559.4,642.1v0.7H551v-0.7c2-0.3,2.4-0.7,2.4-2v-13.6c0-1.3-0.3-1.7-2.4-2v-0.7h8.4v0.7
		c-2,0.3-2.2,0.6-2.2,1.8v11.9l8.8-11.2v-0.7c0-1.3-0.2-1.6-2.2-1.8v-0.7h8.4v0.7c-2.1,0.3-2.4,0.6-2.4,2v13.6c0,1.3,0.3,1.7,2.4,2
		v0.7h-8.4v-0.7c2-0.3,2.2-0.6,2.2-1.9v-11.9l-8.8,11.2v0.7C557.2,641.5,557.4,641.8,559.4,642.1z"/>
	<path class="st0" d="M591.9,630.2h-0.6c-1.3-4.6-1.8-5.3-5.1-5.5h-1.2V640c0,1.5,0.3,1.8,2.6,2.2v0.7h-9v-0.7
		c2.3-0.3,2.6-0.7,2.6-2.2v-15.3h-1.2c-3.3,0.2-3.8,0.9-5.1,5.5h-0.6l0.1-6.3h17.5L591.9,630.2z"/>
	<path class="st0" d="M603.4,642.8h-9.2v-0.7c2-0.3,2.4-0.7,2.4-2v-13.6c0-1.3-0.3-1.7-2.4-2v-0.7h8.8v0.7c-2.3,0.3-2.6,0.6-2.6,2.1
		v4.7h2.7c6,0,8.5,2,8.5,5.5S608.3,642.8,603.4,642.8z M600.4,632.3v9.7l2.2-0.1c3.1-0.1,5.1-1.8,5.1-4.7s-1.6-4.8-5.1-4.9
		L600.4,632.3z"/>
	<path class="st0" d="M630.9,642.1v0.7h-8.4v-0.7c2-0.3,2.4-0.7,2.4-2v-13.6c0-1.3-0.3-1.7-2.4-2v-0.7h8.4v0.7
		c-2,0.3-2.2,0.6-2.2,1.8v6.3h8.7v-6.3c0-1.3-0.2-1.6-2.2-1.8v-0.7h8.4v0.7c-2.1,0.3-2.4,0.6-2.4,2v13.6c0,1.3,0.3,1.7,2.4,2v0.7
		h-8.4v-0.7c2-0.3,2.2-0.6,2.2-1.9v-6.7h-8.7v6.7C628.7,641.5,628.9,641.8,630.9,642.1z"/>
	<path class="st0" d="M646.3,638.5c0-2.9,2.1-4.6,7.4-5.8l4-0.9v-2c0-3.7-1.9-5.1-4.8-5.1c-1.4,0-2.8,0.4-3.9,1.2h0.1
		c1.1,0,2,1,1.9,2.1s-1,2-2.1,1.9c-1.1,0-2-0.9-2-2c0-2.4,3.2-4.2,7.4-4.2s7.2,1.8,7.2,5.8v10c0,1.7,0.9,2.5,2.1,2.5
		c0.3,0,0.6,0,0.9-0.1v0.6c-0.9,0.6-1.9,0.8-3,0.8c-1.8,0.2-3.3-1.1-3.7-2.8c-0.9,1.6-3.2,2.9-6,2.9
		C648.7,643.2,646.3,641.3,646.3,638.5z M653.9,641.5c1.5,0.1,3-0.6,3.8-1.9v-7l-2.1,0.5c-4.1,0.9-5.4,2.4-5.4,4.7
		c-0.2,1.9,1.3,3.6,3.2,3.8C653.6,641.5,653.7,641.5,653.9,641.5L653.9,641.5z"/>
	<path class="st0" d="M695.4,642.1v0.7H687v-0.7c2-0.3,2.2-0.6,2.2-1.9v-15.5h-8.5v15.5c0,1.3,0.2,1.6,2.2,1.9v0.7h-8.4v-0.7
		c2-0.3,2.4-0.7,2.4-2v-13.6c0-1.3-0.3-1.7-2.4-2v-0.7h20.9v0.7c-2.1,0.3-2.4,0.6-2.4,2v13.6C693.1,641.5,693.3,641.8,695.4,642.1z"
		/>
	<path class="st0" d="M698.2,638.5c0-2.9,2.1-4.6,7.4-5.8l4-0.9v-2c0-3.7-1.9-5.1-4.8-5.1c-1.4,0-2.8,0.4-3.9,1.2h0.1
		c1.1,0,2,1,1.9,2.1s-1,2-2.1,1.9c-1.1,0-2-0.9-2-2c0-2.4,3.2-4.2,7.4-4.2s7.2,1.8,7.2,5.8v10c0,1.7,0.9,2.5,2.1,2.5
		c0.3,0,0.6,0,0.9-0.1v0.6c-0.9,0.6-1.9,0.8-3,0.8c-1.8,0.2-3.4-1.1-3.7-2.8c-0.9,1.6-3.2,2.9-6,2.9
		C700.5,643.2,698.2,641.3,698.2,638.5z M705.8,641.5c1.5,0.1,3-0.6,3.8-1.9v-7l-2.1,0.5c-4.1,0.9-5.4,2.4-5.4,4.7
		c-0.2,1.9,1.3,3.6,3.2,3.8C705.5,641.5,705.6,641.5,705.8,641.5L705.8,641.5z"/>
	<path class="st0" d="M719,638.6c1,0,1.8,0.6,2.1,1.6c0.9-2,1.2-5.5,1.3-10.8l0.1-2.5c0-1.6-0.5-2.1-2.8-2.3v-0.7h16.7v0.7
		c-2.1,0.3-2.4,0.6-2.4,2v13.6c0,1.3,0.3,1.7,2.4,2v0.7H728v-0.7c2-0.3,2.2-0.6,2.2-1.9v-15.5h-6.5l-0.2,4.8
		c-0.3,9-1.2,13.6-4.4,13.6c-1.2,0.1-2.3-0.8-2.4-2.1c-0.1-1.2,0.8-2.3,2.1-2.4C718.8,638.6,718.9,638.6,719,638.6L719,638.6z"/>
	<path class="st0" d="M747.9,642.8h-9.3v-0.7c2-0.3,2.4-0.7,2.4-2v-13.6c0-1.3-0.3-1.7-2.4-2v-0.7h8.8v0.7c-2.3,0.3-2.6,0.6-2.6,2.1
		v4.7h2.7c6,0,8.5,2,8.5,5.5S752.8,642.8,747.9,642.8z M744.9,632.3v9.7l2.2-0.1c3.1-0.1,5.1-1.8,5.1-4.7s-1.6-4.8-5.1-4.9
		L744.9,632.3z"/>
	<path class="st0" d="M779.7,648.7h-0.7c-1.4-5-1.8-5.9-5.3-5.9h-15.5v-0.7c2-0.3,2.4-0.7,2.4-2v-13.6c0-1.3-0.3-1.7-2.4-2v-0.7h8.4
		v0.7c-2,0.3-2.2,0.6-2.2,1.8V642h8.4v-15.6c0-1.3-0.2-1.6-2.2-1.8v-0.7h8.4v0.7c-2.1,0.3-2.3,0.6-2.3,2V642h2.8L779.7,648.7z"/>
	<path class="st0" d="M782,638.5c0-2.9,2.1-4.6,7.4-5.8l4-0.9v-2c0-3.7-1.9-5.1-4.8-5.1c-1.4,0-2.8,0.4-3.9,1.2h0.1
		c1.1,0,2,1,1.9,2.1s-1,2-2.1,1.9c-1.1,0-2-0.9-2-2c0-2.4,3.2-4.2,7.4-4.2s7.2,1.8,7.2,5.8v10c0,1.7,0.9,2.5,2.1,2.5
		c0.3,0,0.6,0,0.9-0.1v0.6c-0.9,0.6-1.9,0.8-3,0.8c-1.8,0.2-3.4-1.1-3.7-2.8c-0.9,1.6-3.2,2.9-6,2.9
		C784.3,643.2,782,641.3,782,638.5z M789.6,641.5c1.5,0.1,3-0.6,3.8-1.9v-7l-2.1,0.5c-4.1,0.9-5.4,2.4-5.4,4.7
		c-0.2,1.9,1.3,3.6,3.2,3.8C789.2,641.5,789.4,641.5,789.6,641.5L789.6,641.5z"/>
	<path class="st0" d="M819.6,642.1v0.7h-8.9v-0.7c2.4-0.2,2.6-0.8,1.3-2.8l-3.4-4.9l-3.2,4.8c-1.3,2-0.8,2.5,1.2,2.8v0.7h-6.5v-0.7
		c1.9-0.5,2.5-1,4.1-3.2l3.8-5.2l-4.7-6.8c-1.1-1.6-1.8-2.2-3.1-2.4v-0.7h8.8v0.7c-2.4,0.2-2.6,0.8-1.4,2.7l3.2,4.7l3.2-4.8
		c1.2-1.9,0.9-2.3-1.3-2.6v-0.7h6.4v0.7c-1.8,0.4-2.4,0.9-3.9,3l-3.8,5.1l4.8,7C817.6,641.3,818.3,641.9,819.6,642.1z"/>
	<path class="st0" d="M829.1,611.9h0.9c5.1,3.3,9.2,10.2,9.2,18.2s-4.1,14.9-9.2,18.2h-0.8c3.9-4,6.5-10.6,6.5-18.2
		S833,615.9,829.1,611.9z"/>
</g>
<g class="st1">
	<path class="st0" d="M418.8,469.8h-2.9v6.8c0,2,0.5,2.7,2.7,3.1v1.2h-14.7v-1.2c2-0.5,2.5-1,2.5-2.8v-20.2c0-1.8-0.5-2.3-2.5-2.8
		v-1.2h14.9c8.6,0,13.4,2.8,13.4,8.2C432.2,466.7,426.4,469.8,418.8,469.8z M416.9,454.2l-1-0.1v14.2l1-0.1c3.4-0.2,5.4-2.9,5.4-7
		C422.3,457.3,420.6,454.4,416.9,454.2z"/>
	<path class="st0" d="M445.2,467.5c1.5-4.9,3.2-6.8,5.5-6.8c2.1,0,3.2,1.9,3.2,4.3c0,1.2-0.2,2.2-0.5,2.9c-0.7-0.3-2.2-0.6-3.7-0.6
		c-1.9,0-3.8,0.4-4.5,0.9l0,8.9c0,1.6,0.4,2.1,2.4,2.5v1.2h-13.4v-1.2c1.8-0.4,2.1-0.8,2.1-2.3v-11.6c0-1.5-0.2-1.8-1.3-2.2
		l-0.9-0.3v-1.2l10.9-1.4L445.2,467.5z"/>
	<path class="st0" d="M466.5,477.4c0,1.5,0.4,1.9,2.1,2.3v1.2h-13.1v-1.2c1.8-0.4,2.1-0.8,2.1-2.3v-11.6c0-1.5-0.2-1.8-1.3-2.2
		l-0.9-0.3v-1.2l11-1.4V477.4z M457.5,455.1c0-2.3,1.9-3.9,4.2-3.9c2.3,0,4.2,1.6,4.2,3.9c0,2.3-1.9,3.9-4.2,3.9
		C459.3,459,457.5,457.3,457.5,455.1z"/>
	<path class="st0" d="M481.1,464.6c0.9-2.4,3.4-4,7.2-4c4.1,0,6.9,2.1,6.9,6.5v10.2c0,1.5,0.4,1.9,2.1,2.3v1.2h-12.7v-1.2
		c1.4-0.3,1.7-0.7,1.7-2.2v-10.4c0-2-1-3-2.7-3c-1.2,0-2.1,0.6-2.5,1.4v12c0,1.5,0.3,1.9,1.7,2.2v1.2h-12.7v-1.2
		c1.8-0.4,2.1-0.8,2.1-2.3v-11.6c0-1.5-0.2-1.8-1.3-2.2l-0.9-0.3v-1.2l10.9-1.4V464.6z"/>
	<path class="st0" d="M499.1,471.1c0-6.3,5-10.4,11.8-10.4c5.2,0,8.5,2.4,8.5,5.8c0,2.2-1.7,3.8-3.7,3.8c-2.1,0-3.7-1.6-3.7-3.6
		c0-1.8,1.3-3.3,3.1-3.6c-0.5-0.2-1.1-0.3-1.6-0.3c-3.1,0-5.3,2.5-5.3,6.8c0,5.2,3.1,8.1,6.9,8.1c1.6,0,3.4-0.5,4.3-1.3v1.2
		c-1.7,2.3-5,3.7-8.8,3.7C504.3,481.3,499.1,477.6,499.1,471.1z"/>
	<path class="st0" d="M532,477.4c0,1.5,0.4,1.9,2.1,2.3v1.2H521v-1.2c1.8-0.4,2.1-0.8,2.1-2.3v-11.6c0-1.5-0.2-1.8-1.3-2.2l-0.9-0.3
		v-1.2l11-1.4V477.4z M523,455.1c0-2.3,1.9-3.9,4.2-3.9c2.3,0,4.2,1.6,4.2,3.9c0,2.3-1.9,3.9-4.2,3.9C524.9,459,523,457.3,523,455.1
		z"/>
	<path class="st0" d="M551.8,481.3c-2.3,0-4.6-1-5.3-2.5v7.3c0,1.6,0.4,2.1,2.4,2.5v1.2h-13.4v-1.2c1.8-0.4,2.1-0.8,2.1-2.3v-20.6
		c0-1.5-0.2-1.8-1.3-2.2l-0.9-0.3v-1.2l10.9-1.4v3.9c0.8-2.3,3-3.9,6.3-3.9c4.6,0,8,3.8,8,10.1C560.8,477.8,556.5,481.3,551.8,481.3
		z M548.5,464.1c-1,0-1.7,0.6-2,1.4v12c0.3,0.6,1,1.2,2,1.2c2,0,3.2-2.6,3.2-7.2C551.7,466.9,550.5,464.1,548.5,464.1z"/>
	<path class="st0" d="M573.8,477.4c0,1.5,0.4,1.9,2.1,2.3v1.2h-13.1v-1.2c1.8-0.4,2.1-0.8,2.1-2.3v-21c0-1.5-0.2-1.8-1.3-2.2
		l-0.9-0.3v-1.2l11-1.4V477.4z"/>
	<path class="st0" d="M589,460.6c5.9,0,9.5,3.4,9.5,8.6c0,0.6-0.1,1.2-0.1,1.6h-11.7c0.8,4.7,3.7,7,7.3,7c1.7,0,3.2-0.6,4.2-1.5
		l0,1.2c-1.6,2.5-5,3.8-9.1,3.8c-6.2,0-11.4-3.8-11.4-10.3C577.7,464.8,582.3,460.6,589,460.6z M586.6,469.4l4.5-0.1
		c0-0.4,0-1,0-1.8c0-3.5-0.6-5.3-2-5.3c-1.7,0-2.5,2.1-2.5,5.7C586.5,468.4,586.6,468.9,586.6,469.4z"/>
</g>
<g>
	<g id="Combined-Shape">
		
			<linearGradient id="path-5_1_" gradientUnits="userSpaceOnUse" x1="-1722.2639" y1="529.1481" x2="-1722.2639" y2="661.8682" gradientTransform="matrix(138.75 0 0 185 239465.25 -394076.1875)">
			<stop  offset="0" style="stop-color:#590BA5"/>
			<stop  offset="1" style="stop-color:#B558CC"/>
		</linearGradient>
		<path id="path-5" class="st2" d="M552.6,305.6L552.6,305.6L552.6,305.6L552.6,305.6v0.8c-1.4,27.1-23.7,49.3-50.3,49.7h-0.8
			c-9-0.2-16.1-7.7-15.8-16.6c0.2-8.7,7.2-15.6,15.8-15.8c9.5,0,18.2-8.6,18.7-18.9v-0.4c0-10.1-8.2-18.2-18.3-18.3h-0.8
			c-10.6,0-19.2,8.6-19.2,19.2c0,0,0,0,0,0l0,0v69.4c0,8.9-7.2,16.2-16.1,16.2c-3.8,0-7.4-1.3-10.4-3.7c4.6-2.2,6.5-7.8,4.3-12.4
			c-1.5-3.2-4.8-5.2-8.3-5.2c-0.6,0-1.2,0.1-1.9,0.2v-64.4c0-28.5,23.1-51.7,51.6-51.7c0,0,0,0,0,0h0.5c27.9,0,50.6,22.4,50.9,50.3
			v0.9l0,0v0.4v-0.5L552.6,305.6z"/>
		
			<linearGradient id="SVGID_1_" gradientUnits="userSpaceOnUse" x1="501.135" y1="605.2698" x2="501.135" y2="737.9998" gradientTransform="matrix(1 0 0 -1 0 997.8898)">
			<stop  offset="0" style="stop-color:#590BA5"/>
			<stop  offset="1" style="stop-color:#B558CC"/>
		</linearGradient>
		<path class="st3" d="M552.6,305.6L552.6,305.6L552.6,305.6L552.6,305.6v0.8c-1.4,27.1-23.7,49.3-50.3,49.7h-0.8
			c-9-0.2-16.1-7.7-15.8-16.6c0.2-8.7,7.2-15.6,15.8-15.8c9.5,0,18.2-8.6,18.7-18.9v-0.4c0-10.1-8.2-18.2-18.3-18.3h-0.8
			c-10.6,0-19.2,8.6-19.2,19.2c0,0,0,0,0,0l0,0v69.4c0,8.9-7.2,16.2-16.1,16.2c-3.8,0-7.4-1.3-10.4-3.7c4.6-2.2,6.5-7.8,4.3-12.4
			c-1.5-3.2-4.8-5.2-8.3-5.2c-0.6,0-1.2,0.1-1.9,0.2v-64.4c0-28.5,23.1-51.7,51.6-51.7c0,0,0,0,0,0h0.5c27.9,0,50.6,22.4,50.9,50.3
			v0.9l0,0v0.4v-0.5L552.6,305.6z"/>
	</g>
	<g id="Oval-2-Copy">
		<circle id="path-7" cx="501.6" cy="339.9" r="10.2"/>
		<circle class="st4" cx="501.6" cy="339.9" r="10.2"/>
	</g>
</g>
</svg>
