<?xml version="1.0" encoding="utf-8"?>
<!-- Generator: Adobe Illustrator 23.1.1, SVG Export Plug-In . SVG Version: 6.00 Build 0)  -->
<svg version="1.1" id="Слой_1" xmlns="http://www.w3.org/2000/svg" xmlns:xlink="http://www.w3.org/1999/xlink" x="0px" y="0px"
	 viewBox="0 0 1000 1000" style="enable-background:new 0 0 1000 1000;" xml:space="preserve">
<style type="text/css">
	.st0{enable-background:new    ;}
	.st1{fill:#113357;}
	.st2{fill:#FDB300;}
	.st3{fill:#EB6C00;}
	.st4{fill:#FDAD00;}
	.st5{fill:#FDD231;}
	.st6{fill:#FEEEB7;}
</style>
<title>sketch</title>
<g class="st0">
	<path class="st1" d="M293.1,642.1v0.7h-9.6v-0.7c2.2-0.4,2.7-0.7,2.7-2.4v-24.3h-13.9v24.3c0,1.7,0.4,2,2.7,2.4v0.7h-9.6v-0.7
		c2.4-0.4,2.8-0.8,2.8-2.5v-21.9c0-1.7-0.4-2.1-2.8-2.5v-0.7h27.9v0.7c-2.4,0.4-2.8,0.8-2.8,2.5v21.9
		C290.4,641.4,290.8,641.8,293.1,642.1z"/>
	<path class="st1" d="M306.4,643.2c-2.4,0-4.2-1-5-2.4v8.2c0,1.5,0.3,1.8,2.6,2.1v0.7h-8.8v-0.7c2.1-0.3,2.3-0.6,2.3-1.9v-22.6
		c0-1.3-0.3-1.7-2.3-2v-0.7l6.2-0.2v3.5c1.1-2.1,3.5-3.6,6.3-3.6c4.1,0,7.9,3.4,7.9,9.6C315.5,639.2,311.5,643.2,306.4,643.2z
		 M305.9,625.3c-2.1,0-3.6,0.9-4.5,2.5v12c0.6,1.3,2.3,2.2,4.1,2.2c3.7,0,6-3.4,6-8.4C311.5,628.5,309.1,625.3,305.9,625.3z"/>
	<path class="st1" d="M318.9,633.4c0-5.8,4.3-9.8,9.7-9.8c5.4,0,9.6,3.8,9.6,9.7c0,5.8-4.3,9.8-9.7,9.8
		C323.1,643.2,318.9,639.3,318.9,633.4z M334,633.5c0-5.4-2.2-9-5.5-9c-3.4,0-5.4,3.4-5.4,8.7c0,5.4,2.2,9,5.5,9
		C332,642.2,334,638.8,334,633.5z"/>
	<path class="st1" d="M350.5,623.6c4.9,0,7.7,3.2,7.7,7.8c0,0.4,0,0.8-0.1,1h-12.6c0.1,5.3,3,9,7.4,9c2.2,0,3.9-0.8,4.9-1.9v0.7
		c-1.2,1.8-3.8,3.1-7,3.1c-5.4,0-9.3-3.9-9.3-9.8C341.6,627.7,345.1,623.6,350.5,623.6z M345.5,631.6l9-0.1c0-0.3,0-0.5,0-0.9
		c0-3.5-1.3-6.2-4.1-6.2C347.5,624.5,345.6,627.1,345.5,631.6z"/>
	<path class="st1" d="M369.4,642.1v0.7h-8.4v-0.7c2-0.3,2.4-0.6,2.4-2v-13.6c0-1.3-0.3-1.7-2.4-2v-0.7h8.4v0.7
		c-2,0.3-2.2,0.6-2.2,1.9v6.3l2.3,0l4.1-5.2c1.6-1.9,1.5-2.6-0.7-3v-0.7h6.9v0.7c-2,0.4-2.8,0.9-5.5,3.7l-2.3,2.5l5,7.6
		c1.8,2.8,2.6,3.6,3.8,3.8v0.6h-5.4l-5.9-9.2l-2.4,0v6.7C367.1,641.5,367.4,641.8,369.4,642.1z"/>
	<path class="st1" d="M399.9,630.2h-0.6c-1.3-4.6-1.8-5.3-5.1-5.4l-1.2-0.1V640c0,1.5,0.3,1.8,2.6,2.1v0.7h-9v-0.7
		c2.3-0.3,2.6-0.6,2.6-2.1v-15.3l-1.2,0.1c-3.3,0.2-3.8,0.9-5.1,5.4h-0.6l0.1-6.3h17.5L399.9,630.2z"/>
	<path class="st1" d="M410.5,642.1v0.7h-8.4v-0.7c2-0.3,2.4-0.6,2.4-2v-13.6c0-1.3-0.3-1.7-2.4-2v-0.7h8.4v0.7
		c-2,0.3-2.2,0.6-2.2,1.9v11.9l8.8-11.2v-0.7c0-1.3-0.3-1.6-2.2-1.9v-0.7h8.4v0.7c-2.1,0.3-2.4,0.6-2.4,2v13.6c0,1.3,0.3,1.7,2.4,2
		v0.7h-8.4v-0.7c2-0.3,2.2-0.6,2.2-1.9v-11.9l-8.8,11.2v0.7C408.3,641.5,408.6,641.8,410.5,642.1z"/>
</g>
<g class="st0">
	<path class="st1" d="M436.7,643.2c-2.4,0-4.2-1-5-2.4v8.2c0,1.5,0.3,1.8,2.6,2.1v0.7h-8.8v-0.7c2.1-0.3,2.3-0.6,2.3-1.9v-22.6
		c0-1.3-0.3-1.7-2.3-2v-0.7l6.2-0.2v3.5c1.1-2.1,3.5-3.6,6.3-3.6c4.1,0,7.9,3.4,7.9,9.6C445.8,639.2,441.8,643.2,436.7,643.2z
		 M436.2,625.3c-2.1,0-3.6,0.9-4.5,2.5v12c0.6,1.3,2.3,2.2,4.1,2.2c3.7,0,6-3.4,6-8.4C441.8,628.5,439.4,625.3,436.2,625.3z"/>
</g>
<g class="st0">
	<path class="st1" d="M446.5,624.6v-0.7h9.1v0.7c-2.3,0.3-2.7,0.9-1.7,3.4l3.8,10.2l3.7-10.1c1-2.7,0.6-3.2-1.7-3.6v-0.7h6.3v0.7
		c-1.7,0.3-2.2,0.8-3.4,3.8l-4.2,10.4l-1.7,4.1l-3.1,8.9h-3.2v-0.1c1.7-2,4-5.9,5.4-8.9l-6.2-15.2
		C448.7,625.3,448.1,624.9,446.5,624.6z"/>
	<path class="st1" d="M475.4,642.1v0.7H467v-0.7c2-0.3,2.4-0.6,2.4-2v-13.6c0-1.3-0.3-1.7-2.4-2v-0.7h8.4v0.7
		c-2,0.3-2.2,0.6-2.2,1.9v6.3h3.6c0.3-5.4,4.4-9.2,9.6-9.2c5.4,0,9.5,3.8,9.5,9.7c0,5.8-4.2,9.8-9.6,9.8c-5.4,0-9.4-3.8-9.5-9.6
		h-3.6v6.7C473.2,641.5,473.5,641.8,475.4,642.1z M491.6,633.5c0-5.3-2-9-5.4-9c-3.4,0-5.2,3.4-5.2,8.7s2,9,5.4,9
		C489.8,642.2,491.6,638.8,491.6,633.5z"/>
	<path class="st1" d="M528.4,642.1v0.7H520v-0.7c2-0.3,2.2-0.6,2.2-1.9v-15.5h-8.5v15.5c0,1.3,0.2,1.6,2.2,1.9v0.7h-8.4v-0.7
		c2-0.3,2.4-0.6,2.4-2v-13.6c0-1.3-0.3-1.7-2.4-2v-0.7h20.9v0.7c-2.1,0.3-2.4,0.6-2.4,2v13.6C526,641.5,526.3,641.8,528.4,642.1z"/>
	<path class="st1" d="M541.7,643.2c-2.4,0-4.2-1-5-2.4v8.2c0,1.5,0.3,1.8,2.6,2.1v0.7h-8.8v-0.7c2.1-0.3,2.3-0.6,2.3-1.9v-22.6
		c0-1.3-0.3-1.7-2.3-2v-0.7l6.2-0.2v3.5c1.1-2.1,3.5-3.6,6.3-3.6c4.1,0,7.9,3.4,7.9,9.6C550.8,639.2,546.8,643.2,541.7,643.2z
		 M541.2,625.3c-2.1,0-3.6,0.9-4.5,2.5v12c0.6,1.3,2.3,2.2,4.1,2.2c3.7,0,6-3.4,6-8.4C546.8,628.5,544.5,625.3,541.2,625.3z"/>
	<path class="st1" d="M554.1,638.5c0-2.9,2.1-4.6,7.4-5.8l4-0.9v-2.1c0-3.7-1.9-5.1-4.8-5.1c-1.5,0-2.9,0.4-3.9,1.2h0.1
		c1,0,1.9,0.9,1.9,2c0,1.1-0.9,2-2.1,2c-1.1,0-2-0.9-2-2c0-2.4,3.2-4.2,7.4-4.2c4.3,0,7.2,1.8,7.2,5.8v10c0,1.7,0.9,2.4,2.1,2.4
		c0.3,0,0.6-0.1,0.9-0.1v0.6c-0.6,0.4-1.7,0.8-3,0.8c-1.9,0-3.3-1-3.7-2.8c-0.9,1.6-3.2,2.9-6,2.9
		C556.5,643.2,554.1,641.3,554.1,638.5z M561.7,641.5c1.7,0,3-0.6,3.8-1.9v-7l-2.1,0.5c-4.1,0.9-5.4,2.4-5.4,4.7
		S559.6,641.5,561.7,641.5z"/>
	<path class="st1" d="M583.2,642.8h-9.7v-0.7c2-0.3,2.4-0.6,2.4-2v-13.6c0-1.3-0.3-1.7-2.4-2v-0.7h9.8c4.8,0,7.2,1.7,7.2,4.3
		c0,2.5-2.5,4-5.9,4.6c4.1,0.2,6.9,1.7,6.9,4.8S588.2,642.8,583.2,642.8z M582.4,624.8l-2.7-0.1v7.9l2.5,0c3-0.1,4.4-1.6,4.4-3.9
		C586.7,626.2,585.2,624.8,582.4,624.8z M582.3,633.4l-2.5,0v8.7l2.5-0.1c3.2-0.1,5.2-1.7,5.2-4.4
		C587.5,634.6,585.4,633.4,582.3,633.4z"/>
	<path class="st1" d="M602.4,642.1v0.7H594v-0.7c2-0.3,2.4-0.6,2.4-2v-13.6c0-1.3-0.3-1.7-2.4-2v-0.7h8.4v0.7
		c-2,0.3-2.2,0.6-2.2,1.9v11.9l8.8-11.2v-0.7c0-1.3-0.3-1.6-2.2-1.9v-0.7h8.4v0.7c-2.1,0.3-2.4,0.6-2.4,2v13.6c0,1.3,0.3,1.7,2.4,2
		v0.7h-8.4v-0.7c2-0.3,2.2-0.6,2.2-1.9v-11.9l-8.8,11.2v0.7C600.2,641.5,600.4,641.8,602.4,642.1z"/>
	<path class="st1" d="M618.9,638.6c1,0,1.8,0.7,2.1,1.6c0.9-2,1.2-5.5,1.3-10.8l0.1-2.5c0-1.6-0.5-2.1-2.8-2.3v-0.7h16.7v0.7
		c-2.1,0.3-2.4,0.6-2.4,2v13.6c0,1.3,0.3,1.7,2.4,2v0.7h-8.4v-0.7c2-0.3,2.2-0.6,2.2-1.9v-15.5h-6.5l-0.2,4.8
		c-0.3,9-1.2,13.6-4.4,13.6c-1.4,0-2.3-0.9-2.3-2.3C616.7,639.6,617.6,638.6,618.9,638.6z"/>
</g>
<g class="st0">
	<path class="st1" d="M647.9,642.8h-9.3v-0.7c2-0.3,2.4-0.6,2.4-2v-13.6c0-1.3-0.3-1.7-2.4-2v-0.7h8.8v0.7c-2.3,0.3-2.6,0.6-2.6,2.1
		v4.7h2.7c6,0,8.5,2,8.5,5.5C656.1,640.5,652.8,642.8,647.9,642.8z M644.8,632.3v9.7l2.2-0.1c3.1-0.1,5.1-1.8,5.1-4.7
		c0-2.9-1.6-4.8-5.1-4.9L644.8,632.3z"/>
</g>
<g class="st0">
	<path class="st1" d="M666.5,642.1v0.7h-8.4v-0.7c2-0.3,2.4-0.6,2.4-2v-13.6c0-1.3-0.3-1.7-2.4-2v-0.7h8.4v0.7
		c-2,0.3-2.2,0.6-2.2,1.9v6.3h8.7v-6.3c0-1.3-0.3-1.6-2.2-1.9v-0.7h8.4v0.7c-2.1,0.3-2.4,0.6-2.4,2v13.6c0,1.3,0.3,1.7,2.4,2v0.7
		h-8.4v-0.7c2-0.3,2.2-0.6,2.2-1.9v-6.7h-8.7v6.7C664.3,641.5,664.5,641.8,666.5,642.1z"/>
	<path class="st1" d="M690.7,642.8h-9.3v-0.7c2-0.3,2.4-0.6,2.4-2v-13.6c0-1.3-0.3-1.7-2.4-2v-0.7h8.8v0.7c-2.3,0.3-2.6,0.6-2.6,2.1
		v4.7h2.7c6,0,8.5,2,8.5,5.5C699,640.5,695.6,642.8,690.7,642.8z M687.7,632.3v9.7l2.2-0.1c3.1-0.1,5.1-1.8,5.1-4.7
		c0-2.9-1.6-4.8-5.1-4.9L687.7,632.3z M706,640.4c0,1.1,0.3,1.4,2.5,1.7v0.7h-8.8v-0.7c2.1-0.3,2.5-0.6,2.5-1.7v-14.2
		c0-1.1-0.3-1.4-2.5-1.7v-0.7h8.8v0.7c-2.2,0.3-2.5,0.6-2.5,1.7V640.4z"/>
	<path class="st1" d="M720.2,623.6c4.9,0,7.7,3.2,7.7,7.8c0,0.4,0,0.8-0.1,1h-12.6c0.1,5.3,3,9,7.4,9c2.2,0,3.9-0.8,4.9-1.9v0.7
		c-1.2,1.8-3.8,3.1-7,3.1c-5.4,0-9.3-3.9-9.3-9.8C711.4,627.7,714.8,623.6,720.2,623.6z M715.3,631.6l9-0.1c0-0.3,0-0.5,0-0.9
		c0-3.5-1.3-6.2-4.1-6.2C717.2,624.5,715.4,627.1,715.3,631.6z"/>
</g>
<g class="st0">
	<path class="st1" d="M278.7,681.5L278.7,681.5l-7.6,0.2v-1.2l7.6,0.2c-0.2-4.7-2.1-8.1-5.7-8.1c-2.8,0-4.6,1.8-5.4,5.2h-0.6
		l0.2-4.7c1.1-0.8,3-1.5,6-1.5c5.7,0,9.8,3.8,9.8,9.8c0,5.5-4.4,9.8-9.7,9.8c-2.9,0-5.1-0.7-6.3-1.5l-0.3-4.7h0.6
		c0.9,3.7,3,5.3,5.8,5.3C276.7,690.2,278.7,686.9,278.7,681.5z"/>
	<path class="st1" d="M294.1,690.1v0.7h-8.4v-0.7c2-0.3,2.4-0.6,2.4-2v-13.6c0-1.3-0.3-1.7-2.4-2v-0.7h8.4v0.7
		c-2,0.3-2.2,0.6-2.2,1.9v6.3l2.3,0l4.1-5.2c1.6-1.9,1.5-2.6-0.7-3v-0.7h6.9v0.7c-2,0.4-2.8,0.9-5.5,3.7l-2.3,2.5l5,7.6
		c1.8,2.8,2.6,3.6,3.8,3.8v0.6h-5.4l-5.9-9.2l-2.4,0v6.7C291.9,689.5,292.1,689.8,294.1,690.1z"/>
	<path class="st1" d="M317.9,691.2c-2.4,0-4.2-1-5-2.4v8.2c0,1.5,0.3,1.8,2.6,2.1v0.7h-8.8v-0.7c2.1-0.3,2.3-0.6,2.3-1.9v-22.6
		c0-1.3-0.3-1.7-2.3-2v-0.7l6.2-0.2v3.5c1.1-2.1,3.5-3.6,6.3-3.6c4.1,0,7.9,3.4,7.9,9.6C327,687.2,323,691.2,317.9,691.2z
		 M317.3,673.3c-2.1,0-3.6,0.9-4.5,2.5v12c0.6,1.3,2.3,2.2,4.1,2.2c3.7,0,6-3.4,6-8.4C322.9,676.5,320.6,673.3,317.3,673.3z"/>
	<path class="st1" d="M330.3,686.5c0-2.9,2.1-4.6,7.4-5.8l4-0.9v-2.1c0-3.7-1.9-5.1-4.8-5.1c-1.5,0-2.9,0.4-3.9,1.2h0.1
		c1,0,1.9,0.9,1.9,2c0,1.1-0.9,2-2.1,2c-1.1,0-2-0.9-2-2c0-2.4,3.2-4.2,7.4-4.2c4.3,0,7.2,1.8,7.2,5.8v10c0,1.7,0.9,2.4,2.1,2.4
		c0.3,0,0.6-0.1,0.9-0.1v0.6c-0.6,0.4-1.7,0.8-3,0.8c-1.9,0-3.3-1-3.7-2.8c-0.9,1.6-3.2,2.9-6,2.9
		C332.6,691.2,330.3,689.3,330.3,686.5z M337.9,689.5c1.7,0,3-0.6,3.8-1.9v-7l-2.1,0.5c-4.1,0.9-5.4,2.4-5.4,4.7
		S335.8,689.5,337.9,689.5z"/>
	<path class="st1" d="M358.1,690.1v0.7h-8.4v-0.7c2-0.3,2.4-0.6,2.4-2v-13.6c0-1.3-0.3-1.7-2.4-2v-0.7h8.4v0.7
		c-2,0.3-2.2,0.6-2.2,1.9v6.3h8.7v-6.3c0-1.3-0.3-1.6-2.2-1.9v-0.7h8.4v0.7c-2.1,0.3-2.4,0.6-2.4,2v13.6c0,1.3,0.3,1.7,2.4,2v0.7
		h-8.4v-0.7c2-0.3,2.2-0.6,2.2-1.9v-6.7h-8.7v6.7C355.9,689.5,356.1,689.8,358.1,690.1z"/>
	<path class="st1" d="M382.3,690.8h-9.3v-0.7c2-0.3,2.4-0.6,2.4-2v-13.6c0-1.3-0.3-1.7-2.4-2v-0.7h8.8v0.7c-2.3,0.3-2.6,0.6-2.6,2.1
		v4.7h2.7c6,0,8.5,2,8.5,5.5C390.5,688.5,387.2,690.8,382.3,690.8z M379.3,680.3v9.7l2.2-0.1c3.1-0.1,5.1-1.8,5.1-4.7
		c0-2.9-1.6-4.8-5.1-4.9L379.3,680.3z M397.6,688.4c0,1.1,0.3,1.4,2.5,1.7v0.7h-8.8v-0.7c2.1-0.3,2.5-0.6,2.5-1.7v-14.2
		c0-1.1-0.3-1.4-2.5-1.7v-0.7h8.8v0.7c-2.2,0.3-2.5,0.6-2.5,1.7V688.4z"/>
	<path class="st1" d="M419.6,690.1v0.7h-8.4v-0.7c2-0.3,2.4-0.6,2.4-2v-13.6c0-1.3-0.3-1.7-2.4-2v-0.7h8.4v0.7
		c-2,0.3-2.2,0.6-2.2,1.9v11.9l8.8-11.2v-0.7c0-1.3-0.3-1.6-2.2-1.9v-0.7h8.4v0.7c-2.1,0.3-2.4,0.6-2.4,2v13.6c0,1.3,0.3,1.7,2.4,2
		v0.7H424v-0.7c2-0.3,2.2-0.6,2.2-1.9v-11.9l-8.8,11.2v0.7C417.4,689.5,417.7,689.8,419.6,690.1z"/>
	<path class="st1" d="M462.7,696.7H462c-1.5-5.1-1.9-5.9-5.3-5.9h-7.9c-3.4,0-3.8,0.8-5.4,5.9h-0.7l0.2-6.7h2.1
		c1.3-1.7,2.6-5.7,2.7-13.2l0-1.5c0-2.1-0.6-2.5-2.8-2.8v-0.7h17.3v0.7c-2.3,0.3-2.6,0.6-2.6,2.1V690h2.8L462.7,696.7z M455.9,690
		v-17.2h-7l-0.1,4.1c-0.1,7.9-1.5,11.5-2.6,13.2H455.9z"/>
	<path class="st1" d="M473,690.1v0.7h-8.4v-0.7c2-0.3,2.4-0.6,2.4-2v-13.6c0-1.3-0.3-1.7-2.4-2v-0.7h8.4v0.7c-2,0.3-2.2,0.6-2.2,1.9
		v11.9l8.8-11.2v-0.7c0-1.3-0.3-1.6-2.2-1.9v-0.7h8.4v0.7c-2.1,0.3-2.4,0.6-2.4,2v13.6c0,1.3,0.3,1.7,2.4,2v0.7h-8.4v-0.7
		c2-0.3,2.2-0.6,2.2-1.9v-11.9l-8.8,11.2v0.7C470.8,689.5,471,689.8,473,690.1z"/>
	<path class="st1" d="M499.4,685.7c0-2.9-1.7-4.2-4.8-4.2h-1.9v-0.8h1.9c2.9,0,4.3-1.7,4.3-4.2c0-2.4-1.3-3.9-3.8-3.9
		c-2.6,0-4.4,1.8-5.2,5.3h-0.6l0.2-4.7c1.1-0.8,3-1.5,5.8-1.5c4.9,0,7.4,1.7,7.4,4.5c0,2.6-2.3,4.2-5.4,4.8c3.5,0.3,6.1,1.8,6.1,4.7
		c0,3.3-3.7,5.6-8.2,5.6c-2.8,0-4.9-0.7-6.2-1.6l-0.2-4.7h0.6c0.9,3.7,3,5.4,5.6,5.4S499.4,688.4,499.4,685.7z"/>
	<path class="st1" d="M506.5,686.5c0-2.9,2.1-4.6,7.4-5.8l4-0.9v-2.1c0-3.7-1.9-5.1-4.8-5.1c-1.5,0-2.9,0.4-3.9,1.2h0.1
		c1,0,1.9,0.9,1.9,2c0,1.1-0.9,2-2.1,2c-1.1,0-2-0.9-2-2c0-2.4,3.2-4.2,7.4-4.2c4.3,0,7.2,1.8,7.2,5.8v10c0,1.7,0.9,2.4,2.1,2.4
		c0.3,0,0.6-0.1,0.9-0.1v0.6c-0.6,0.4-1.7,0.8-3,0.8c-1.9,0-3.3-1-3.7-2.8c-0.9,1.6-3.2,2.9-6,2.9
		C508.8,691.2,506.5,689.3,506.5,686.5z M514.1,689.5c1.7,0,3-0.6,3.8-1.9v-7l-2.1,0.5c-4.1,0.9-5.4,2.4-5.4,4.7
		S512,689.5,514.1,689.5z"/>
	<path class="st1" d="M534.3,690.1v0.7h-8.4v-0.7c2-0.3,2.4-0.6,2.4-2v-13.6c0-1.3-0.3-1.7-2.4-2v-0.7h8.4v0.7
		c-2,0.3-2.2,0.6-2.2,1.9v11.9l8.8-11.2v-0.7c0-1.3-0.3-1.6-2.2-1.9v-0.7h8.4v0.7c-2.1,0.3-2.4,0.6-2.4,2v13.6c0,1.3,0.3,1.7,2.4,2
		v0.7h-8.4v-0.7c2-0.3,2.2-0.6,2.2-1.9v-11.9l-8.8,11.2v0.7C532.1,689.5,532.3,689.8,534.3,690.1z M531.4,664.6c0-1.2,0.8-2,1.9-2
		s1.8,0.8,1.8,1.8c0,1-0.8,1.8-1.7,1.8c-0.3,0-0.5-0.1-0.7-0.2c0.6,1.1,2,2,4,2s3.3-0.9,4-2c-0.2,0.1-0.5,0.2-0.7,0.2
		c-0.9,0-1.7-0.8-1.7-1.8c0-1,0.7-1.8,1.8-1.8s1.9,0.8,1.9,2c0,2.1-1.8,4.3-5.2,4.3S531.4,666.7,531.4,664.6z"/>
	<path class="st1" d="M557.9,690.1v0.7h-8.4v-0.7c2-0.3,2.4-0.6,2.4-2v-13.6c0-1.3-0.3-1.7-2.4-2v-0.7h8.4v0.7
		c-2,0.3-2.2,0.6-2.2,1.9v6.3h8.7v-6.3c0-1.3-0.3-1.6-2.2-1.9v-0.7h8.4v0.7c-2.1,0.3-2.4,0.6-2.4,2v13.6c0,1.3,0.3,1.7,2.4,2v0.7
		h-8.4v-0.7c2-0.3,2.2-0.6,2.2-1.9v-6.7h-8.7v6.7C555.7,689.5,555.9,689.8,557.9,690.1z"/>
	<path class="st1" d="M582.2,681.3c0-5.6,4.1-9.8,9.7-9.8c4.2,0,6.2,2.1,6.2,4.3c0,1.2-0.9,2.1-2,2.1c-1.2,0-2-0.9-2-2
		c0-1.2,0.9-2,1.9-2c0.1,0,0.3,0,0.4,0c-0.8-0.8-2.1-1.2-3.6-1.2c-4,0-6.5,3.2-6.5,7.9c0,5.5,3.2,8.8,7.2,8.8c2.2,0,3.8-0.8,4.9-1.9
		v0.7c-1.2,1.8-3.8,3.1-6.9,3.1C586.1,691.2,582.2,687.2,582.2,681.3z"/>
	<path class="st1" d="M609,690.1v0.7h-8.4v-0.7c2-0.3,2.4-0.6,2.4-2v-13.6c0-1.3-0.3-1.7-2.4-2v-0.7h8.4v0.7c-2,0.3-2.2,0.6-2.2,1.9
		v11.9l8.8-11.2v-0.7c0-1.3-0.3-1.6-2.2-1.9v-0.7h8.4v0.7c-2.1,0.3-2.4,0.6-2.4,2v13.6c0,1.3,0.3,1.7,2.4,2v0.7h-8.4v-0.7
		c2-0.3,2.2-0.6,2.2-1.9v-11.9l-8.8,11.2v0.7C606.8,689.5,607.1,689.8,609,690.1z"/>
	<path class="st1" d="M624.7,681.3c0-5.6,4.1-9.8,9.7-9.8c4.2,0,6.2,2.1,6.2,4.3c0,1.2-0.9,2.1-2,2.1c-1.2,0-2-0.9-2-2
		c0-1.2,0.9-2,1.9-2c0.1,0,0.3,0,0.4,0c-0.8-0.8-2.1-1.2-3.6-1.2c-4,0-6.5,3.2-6.5,7.9c0,5.5,3.2,8.8,7.2,8.8c2.2,0,3.8-0.8,4.9-1.9
		v0.7c-1.2,1.8-3.8,3.1-6.9,3.1C628.6,691.2,624.7,687.2,624.7,681.3z"/>
	<path class="st1" d="M660.9,678.2h-0.6c-1.3-4.6-1.8-5.3-5.1-5.4l-1.2-0.1V688c0,1.5,0.3,1.8,2.6,2.1v0.7h-9v-0.7
		c2.3-0.3,2.6-0.6,2.6-2.1v-15.3l-1.2,0.1c-3.3,0.2-3.8,0.9-5.1,5.4H643l0.1-6.3h17.5L660.9,678.2z"/>
	<path class="st1" d="M672.5,671.6c4.9,0,7.7,3.2,7.7,7.8c0,0.4,0,0.8-0.1,1h-12.6c0.1,5.3,3,9,7.4,9c2.2,0,3.9-0.8,4.9-1.9v0.7
		c-1.2,1.8-3.8,3.1-7,3.1c-5.4,0-9.3-3.9-9.3-9.8C663.7,675.7,667.1,671.6,672.5,671.6z M667.6,679.6l9-0.1c0-0.3,0-0.5,0-0.9
		c0-3.5-1.3-6.2-4.1-6.2C669.5,672.5,667.7,675.1,667.6,679.6z"/>
	<path class="st1" d="M695.1,686.7l6-14.8h6v0.7c-2,0.3-2.3,0.6-2.3,2l0.4,13.6c0,1.3,0.4,1.7,2.4,2v0.7h-8.4v-0.7
		c2-0.3,2.3-0.6,2.3-2l-0.4-13.8l-6.7,16.5H693l-6.8-16.5l-0.1,13.4c0,1.6,0.2,2.1,2.3,2.4v0.7h-5.7v-0.7c2.1-0.4,2.2-0.8,2.3-2.5
		l0.4-12.5c0.1-1.7-0.3-2.3-2.3-2.6v-0.7h6.1L695.1,686.7z"/>
	<path class="st1" d="M718.9,690.8h-9.3v-0.7c2-0.3,2.4-0.6,2.4-2v-13.6c0-1.3-0.3-1.7-2.4-2v-0.7h8.8v0.7c-2.3,0.3-2.6,0.6-2.6,2.1
		v4.7h2.7c6,0,8.5,2,8.5,5.5C727.2,688.5,723.8,690.8,718.9,690.8z M715.9,680.3v9.7l2.2-0.1c3.1-0.1,5.1-1.8,5.1-4.7
		c0-2.9-1.6-4.8-5.1-4.9L715.9,680.3z M734.2,688.4c0,1.1,0.3,1.4,2.5,1.7v0.7h-8.8v-0.7c2.1-0.3,2.5-0.6,2.5-1.7v-14.2
		c0-1.1-0.3-1.4-2.5-1.7v-0.7h8.8v0.7c-2.2,0.3-2.5,0.6-2.5,1.7V688.4z"/>
</g>
<g class="st0">
	<path class="st1" d="M431.8,479.7l-0.3-8.9h1.2c1.1,5.4,4.8,9,8.8,9c2.9,0,4.7-1.6,4.7-3.8c0-2.1-1.2-3.5-4.4-4.5l-2.7-0.9
		c-5.2-1.7-8-4.7-8-9c0-5.8,4.8-9.3,13-9.3c3.8,0,6.9,0.6,8.7,1.7l0.1,7.6h-1.2c-0.9-4.4-3.7-7.6-7.3-7.6c-2.9,0-4.5,1.5-4.5,3.6
		c0,1.9,1.2,3.2,4.3,4.2l2.7,0.9c5.5,1.7,8,5,8,9.5c0,6.1-5.5,9.4-13,9.4C437.8,481.4,434,480.7,431.8,479.7z"/>
</g>
<g class="st0">
	<path class="st1" d="M469,472.1H468v5.4c0,1.5,0.3,1.9,1.7,2.2v1.2H457v-1.2c1.8-0.4,2.1-0.8,2.1-2.3v-21c0-1.5-0.2-1.8-1.3-2.2
		l-0.9-0.3v-1.2l11-1.4v19.3l0.9,0l4.8-4.7c1.9-1.8,1.9-3.1-0.6-3.6V461h9.2v1.3c-2.3,0.5-4,1.4-6.7,3.6l3.9,8.1
		c2.2,4.6,3,5.4,4,5.8v1.2h-10.3L469,472.1z"/>
</g>
<g class="st0">
	<path class="st1" d="M495.3,460.6c5.9,0,9.5,3.4,9.5,8.6c0,0.6-0.1,1.2-0.1,1.6H493c0.8,4.7,3.7,7,7.3,7c1.7,0,3.2-0.6,4.2-1.5
		l0,1.2c-1.6,2.5-5,3.8-9.1,3.8c-6.2,0-11.4-3.8-11.4-10.3C484,464.8,488.5,460.6,495.3,460.6z M492.8,469.4l4.5-0.1
		c0-0.4,0-1,0-1.8c0-3.5-0.6-5.3-2-5.3c-1.7,0-2.5,2.1-2.5,5.7C492.8,468.4,492.8,468.9,492.8,469.4z"/>
	<path class="st1" d="M508.6,463.3h-2v-1.2l9.6-6.8h1.1v6.1l4.3-0.4v2.2l-4.3-0.4v11.8c0,2.4,1,3.4,2.5,3.4c0.8,0,1.5-0.3,1.9-0.7
		v1.2c-1,1.4-3.5,2.7-6.4,2.7c-3.9,0-6.8-2-6.8-6.7V463.3z"/>
	<path class="st1" d="M523.1,471.1c0-6.3,5-10.4,11.8-10.4c5.2,0,8.5,2.4,8.5,5.8c0,2.2-1.7,3.8-3.7,3.8c-2.1,0-3.7-1.6-3.7-3.6
		c0-1.8,1.3-3.3,3.1-3.6c-0.5-0.2-1.1-0.3-1.6-0.3c-3.1,0-5.3,2.5-5.3,6.8c0,5.2,3.1,8.1,6.9,8.1c1.6,0,3.4-0.5,4.3-1.3v1.2
		c-1.7,2.3-5,3.7-8.8,3.7C528.3,481.3,523.1,477.6,523.1,471.1z"/>
	<path class="st1" d="M556,464.6c0.9-2.4,3.4-4,7.2-4c4.1,0,6.9,2.1,6.9,6.5v10.2c0,1.5,0.4,1.9,2.1,2.3v1.2h-12.7v-1.2
		c1.4-0.3,1.7-0.7,1.7-2.2v-10.4c0-2-1-3-2.7-3c-1.2,0-2.1,0.6-2.5,1.4v12c0,1.5,0.3,1.9,1.7,2.2v1.2h-12.7v-1.2
		c1.8-0.4,2.1-0.8,2.1-2.3v-21c0-1.5-0.2-1.8-1.3-2.2l-0.9-0.3v-1.2l11-1.4L556,464.6z"/>
</g>
<g>
	<polygon class="st2" points="501.2,249.2 455.2,254 419.5,301.9 501.2,397 583,301.9 547.3,254 	"/>
	<polygon class="st3" points="419.5,301.9 501.2,397 452.6,301.9 	"/>
	<polygon class="st3" points="549.9,301.9 501.2,397 583,301.9 	"/>
	<polygon class="st4" points="452.6,301.9 501.2,397 549.9,301.9 	"/>
	<polygon class="st5" points="455.2,254 452.6,301.9 501.2,249.2 	"/>
	<polygon class="st5" points="549.9,301.9 547.3,254 501.2,249.2 	"/>
	<polygon class="st4" points="549.9,301.9 583,301.9 547.3,254 	"/>
	<polygon class="st4" points="419.5,301.9 452.6,301.9 455.2,254 	"/>
	<polygon class="st6" points="501.2,249.2 452.6,301.9 549.9,301.9 	"/>
</g>
</svg>
