<?xml version="1.0" encoding="utf-8"?>
<!-- Generator: Adobe Illustrator 23.1.1, SVG Export Plug-In . SVG Version: 6.00 Build 0)  -->
<svg version="1.1" id="Слой_1" xmlns="http://www.w3.org/2000/svg" xmlns:xlink="http://www.w3.org/1999/xlink" x="0px" y="0px"
	 viewBox="0 0 1000 1000" style="enable-background:new 0 0 1000 1000;" xml:space="preserve">
<style type="text/css">
	.st0{enable-background:new    ;}
	.st1{fill:#113357;}
	.st2{fill-rule:evenodd;clip-rule:evenodd;fill:#F89920;}
	.st3{fill-rule:evenodd;clip-rule:evenodd;fill:#FFBE22;}
	.st4{fill-rule:evenodd;clip-rule:evenodd;fill:#F0670A;}
	.st5{fill-rule:evenodd;clip-rule:evenodd;fill:#FFD00E;}
	.st6{fill:#F0670A;}
	.st7{fill:#FFBE22;}
	.st8{fill:#FFD164;}
	.st9{fill:#F89920;}
	.st10{fill:#5A4650;}
	.st11{fill:#6E5A64;}
	.st12{fill:#AA7346;}
	.st13{fill:#84737B;}
</style>
<title>soft</title>
<g class="st0">
	<path class="st1" d="M206,649.2h-0.8c-1.3-5.3-2.6-6.4-7.4-6.4h-10.4c-4.7,0-6.2,0.9-7.5,6.4h-0.8l0.2-7.3h3
		c2.8-3.8,3.8-10.6,4-18.8l0.1-3.8c0.1-2.9-0.8-3.7-3.5-4v-0.7h22.3v0.7c-2.6,0.3-3,0.9-3,2.8v23.9h3.7L206,649.2z M198,615.5h-10.4
		l-0.2,7.6c-0.2,8.5-1.2,15-3.8,18.8H198V615.5z"/>
</g>
<g class="st0">
	<path class="st1" d="M206.6,624.6v-0.7h9.1v0.7c-2.3,0.3-2.7,0.9-1.7,3.4l3.8,10.2l3.7-10.1c1-2.7,0.6-3.2-1.7-3.6v-0.7h6.3v0.7
		c-1.7,0.3-2.2,0.8-3.4,3.8l-4.2,10.4l-1.7,4.1l-3.1,8.9h-3.2v-0.1c1.7-2,4-5.9,5.4-8.9l-6.2-15.2
		C208.8,625.3,208.2,624.9,206.6,624.6z"/>
	<path class="st1" d="M239.2,638.7l6-14.8h6v0.7c-2,0.3-2.3,0.6-2.3,2l0.4,13.6c0,1.3,0.4,1.7,2.4,2v0.7h-8.4v-0.7
		c2-0.3,2.3-0.6,2.3-2l-0.4-13.8l-6.7,16.5h-1.3l-6.8-16.5l-0.1,13.4c0,1.6,0.2,2.1,2.3,2.4v0.7h-5.7v-0.7c2.1-0.4,2.2-0.8,2.3-2.5
		l0.4-12.5c0.1-1.7-0.3-2.3-2.3-2.6v-0.7h6.1L239.2,638.7z"/>
	<path class="st1" d="M254.3,638.5c0-2.9,2.1-4.6,7.4-5.8l4-0.9v-2.1c0-3.7-1.9-5.1-4.8-5.1c-1.5,0-2.9,0.4-3.9,1.2h0.1
		c1,0,1.9,0.9,1.9,2c0,1.1-0.9,2-2.1,2c-1.1,0-2-0.9-2-2c0-2.4,3.2-4.2,7.4-4.2c4.3,0,7.2,1.8,7.2,5.8v10c0,1.7,0.9,2.4,2.1,2.4
		c0.3,0,0.6-0.1,0.9-0.1v0.6c-0.6,0.4-1.7,0.8-3,0.8c-1.9,0-3.3-1-3.7-2.8c-0.9,1.6-3.2,2.9-6,2.9
		C256.6,643.2,254.3,641.3,254.3,638.5z M261.9,641.5c1.7,0,3-0.6,3.8-1.9v-7l-2.1,0.5c-4.1,0.9-5.4,2.4-5.4,4.7
		S259.8,641.5,261.9,641.5z"/>
	<path class="st1" d="M282.1,642.1v0.7h-8.4v-0.7c2-0.3,2.4-0.6,2.4-2v-13.6c0-1.3-0.3-1.7-2.4-2v-0.7h8.4v0.7
		c-2,0.3-2.2,0.6-2.2,1.9v6.3h3.6c0.3-5.4,4.4-9.2,9.6-9.2c5.4,0,9.5,3.8,9.5,9.7c0,5.8-4.2,9.8-9.6,9.8c-5.4,0-9.4-3.8-9.5-9.6
		h-3.6v6.7C279.9,641.5,280.1,641.8,282.1,642.1z M298.3,633.5c0-5.3-2-9-5.4-9c-3.4,0-5.2,3.4-5.2,8.7s2,9,5.4,9
		C296.5,642.2,298.3,638.8,298.3,633.5z"/>
	<path class="st1" d="M314.7,633.4c0-5.8,4.3-9.8,9.7-9.8c5.4,0,9.6,3.8,9.6,9.7c0,5.8-4.3,9.8-9.7,9.8
		C319,643.2,314.7,639.3,314.7,633.4z M329.8,633.5c0-5.4-2.2-9-5.5-9c-3.4,0-5.4,3.4-5.4,8.7c0,5.4,2.2,9,5.5,9
		C327.8,642.2,329.8,638.8,329.8,633.5z"/>
	<path class="st1" d="M356.8,643.2c-2.4,0-4.2-1-5-2.4v8.2c0,1.5,0.3,1.8,2.6,2.1v0.7h-8.8v-0.7c2.1-0.3,2.3-0.6,2.3-1.9v-22.6
		c0-1.3-0.3-1.7-2.3-2v-0.7l6.2-0.2v3.5c1.1-2.1,3.5-3.6,6.3-3.6c4.1,0,7.9,3.4,7.9,9.6C365.8,639.2,361.9,643.2,356.8,643.2z
		 M356.2,625.3c-2.1,0-3.6,0.9-4.5,2.5v12c0.6,1.3,2.3,2.2,4.1,2.2c3.7,0,6-3.4,6-8.4C361.8,628.5,359.5,625.3,356.2,625.3z"/>
	<path class="st1" d="M369.1,638.5c0-2.9,2.1-4.6,7.4-5.8l4-0.9v-2.1c0-3.7-1.9-5.1-4.8-5.1c-1.5,0-2.9,0.4-3.9,1.2h0.1
		c1,0,1.9,0.9,1.9,2c0,1.1-0.9,2-2.1,2c-1.1,0-2-0.9-2-2c0-2.4,3.2-4.2,7.4-4.2c4.3,0,7.2,1.8,7.2,5.8v10c0,1.7,0.9,2.4,2.1,2.4
		c0.3,0,0.6-0.1,0.9-0.1v0.6c-0.6,0.4-1.7,0.8-3,0.8c-1.9,0-3.3-1-3.7-2.8c-0.9,1.6-3.2,2.9-6,2.9
		C371.5,643.2,369.1,641.3,369.1,638.5z M376.7,641.5c1.7,0,3-0.6,3.8-1.9v-7l-2.1,0.5c-4.1,0.9-5.4,2.4-5.4,4.7
		S374.6,641.5,376.7,641.5z"/>
	<path class="st1" d="M399.8,637.7c0-2.9-1.7-4.2-4.8-4.2h-1.9v-0.8h1.9c2.9,0,4.3-1.7,4.3-4.2c0-2.4-1.3-3.9-3.8-3.9
		c-2.6,0-4.4,1.8-5.2,5.3h-0.6l0.2-4.7c1.1-0.8,3-1.5,5.8-1.5c4.9,0,7.4,1.7,7.4,4.5c0,2.6-2.3,4.2-5.4,4.8c3.5,0.3,6.1,1.8,6.1,4.7
		c0,3.3-3.7,5.6-8.2,5.6c-2.8,0-4.9-0.7-6.2-1.6l-0.2-4.7h0.6c0.9,3.7,3,5.4,5.6,5.4S399.8,640.4,399.8,637.7z"/>
	<path class="st1" d="M417.5,643.2c-2.4,0-4.2-1-5-2.4v8.2c0,1.5,0.3,1.8,2.6,2.1v0.7h-8.8v-0.7c2.1-0.3,2.3-0.6,2.3-1.9v-22.6
		c0-1.3-0.3-1.7-2.3-2v-0.7l6.2-0.2v3.5c1.1-2.1,3.5-3.6,6.3-3.6c4.1,0,7.9,3.4,7.9,9.6C426.5,639.2,422.6,643.2,417.5,643.2z
		 M416.9,625.3c-2.1,0-3.6,0.9-4.5,2.5v12c0.6,1.3,2.3,2.2,4.1,2.2c3.7,0,6-3.4,6-8.4C422.5,628.5,420.2,625.3,416.9,625.3z"/>
	<path class="st1" d="M429.8,638.5c0-2.9,2.1-4.6,7.4-5.8l4-0.9v-2.1c0-3.7-1.9-5.1-4.8-5.1c-1.5,0-2.9,0.4-3.9,1.2h0.1
		c1,0,1.9,0.9,1.9,2c0,1.1-0.9,2-2.1,2c-1.1,0-2-0.9-2-2c0-2.4,3.2-4.2,7.4-4.2c4.3,0,7.2,1.8,7.2,5.8v10c0,1.7,0.9,2.4,2.1,2.4
		c0.3,0,0.6-0.1,0.9-0.1v0.6c-0.6,0.4-1.7,0.8-3,0.8c-1.9,0-3.3-1-3.7-2.8c-0.9,1.6-3.2,2.9-6,2.9
		C432.2,643.2,429.8,641.3,429.8,638.5z M437.4,641.5c1.7,0,3-0.6,3.8-1.9v-7l-2.1,0.5c-4.1,0.9-5.4,2.4-5.4,4.7
		S435.4,641.5,437.4,641.5z"/>
	<path class="st1" d="M459.6,643.2c-6.2,0-9.6-4.7-9.6-11.8c0-6.2,1.5-10.2,3.9-12.5c2.1-2.1,4.6-3.1,8.8-3.6
		c4.1-0.4,5.2-0.7,5.5-1.8h0.7c-0.3,3.5-1.8,4.6-6.7,5.2l-2.4,0.3c-6.6,0.8-8.6,4.3-8.6,8.7c0,0.8,0,1.6,0.1,2.4
		c1.2-3.6,4.2-6.3,8.6-6.3c5.4,0,9.5,3.7,9.5,9.6C469.5,639.2,464.8,643.2,459.6,643.2z M459.8,624.7c-3.6,0-5.5,3.4-5.5,8.7
		c0,5.1,2,8.8,5.5,8.8c3.6,0,5.5-3.4,5.5-8.6C465.3,628.4,463.3,624.7,459.8,624.7z"/>
	<path class="st1" d="M472.9,633.4c0-5.8,4.3-9.8,9.7-9.8c5.4,0,9.6,3.8,9.6,9.7c0,5.8-4.3,9.8-9.7,9.8
		C477.1,643.2,472.9,639.3,472.9,633.4z M488,633.5c0-5.4-2.2-9-5.5-9c-3.4,0-5.4,3.4-5.4,8.7c0,5.4,2.2,9,5.5,9
		C486,642.2,488,638.8,488,633.5z"/>
	<path class="st1" d="M512.8,630.2h-0.6c-1.3-4.6-1.8-5.3-5.1-5.4l-1.2-0.1V640c0,1.5,0.3,1.8,2.6,2.1v0.7h-9v-0.7
		c2.3-0.3,2.6-0.6,2.6-2.1v-15.3l-1.2,0.1c-3.3,0.2-3.8,0.9-5.1,5.4H495l0.1-6.3h17.5L512.8,630.2z"/>
	<path class="st1" d="M517,626.3c0-1.2-0.4-1.6-2.5-1.8v-0.7h8.8v0.7c-2.1,0.2-2.4,0.5-2.4,1.7v3c0,3.3,1.4,4.7,4.1,4.7
		c1.4,0,3-0.4,3.9-0.9v-6.9c0-1.2-0.3-1.5-2.5-1.7v-0.7h8.9v0.7c-2.2,0.2-2.5,0.5-2.5,1.8v14c0,1.2,0.4,1.5,2.5,1.8v0.7H526v-0.7
		c2.5-0.2,2.9-0.5,2.9-1.8v-6.5c-1.3,0.8-3.4,1.4-5.5,1.4c-3.8,0-6.4-1.9-6.4-6.1V626.3z"/>
	<path class="st1" d="M546,642.1v0.7h-8.4v-0.7c2-0.3,2.4-0.6,2.4-2v-13.6c0-1.3-0.3-1.7-2.4-2v-0.7h8.4v0.7c-2,0.3-2.2,0.6-2.2,1.9
		v11.9l8.8-11.2v-0.7c0-1.3-0.3-1.6-2.2-1.9v-0.7h8.4v0.7c-2.1,0.3-2.4,0.6-2.4,2v13.6c0,1.3,0.3,1.7,2.4,2v0.7h-8.4v-0.7
		c2-0.3,2.2-0.6,2.2-1.9v-11.9l-8.8,11.2v0.7C543.8,641.5,544,641.8,546,642.1z"/>
	<path class="st1" d="M569.6,642.1v0.7h-8.4v-0.7c2-0.3,2.4-0.6,2.4-2v-13.6c0-1.3-0.3-1.7-2.4-2v-0.7h8.4v0.7
		c-2,0.3-2.2,0.6-2.2,1.9v6.3l2.3,0l4.1-5.2c1.6-1.9,1.5-2.6-0.7-3v-0.7h6.9v0.7c-2,0.4-2.8,0.9-5.5,3.7l-2.3,2.5l5,7.6
		c1.8,2.8,2.6,3.6,3.8,3.8v0.6h-5.4l-5.9-9.2l-2.4,0v6.7C567.4,641.5,567.6,641.8,569.6,642.1z"/>
	<path class="st1" d="M582.8,638.5c0-2.9,2.1-4.6,7.4-5.8l4-0.9v-2.1c0-3.7-1.9-5.1-4.8-5.1c-1.5,0-2.9,0.4-3.9,1.2h0.1
		c1,0,1.9,0.9,1.9,2c0,1.1-0.9,2-2.1,2c-1.1,0-2-0.9-2-2c0-2.4,3.2-4.2,7.4-4.2c4.3,0,7.2,1.8,7.2,5.8v10c0,1.7,0.9,2.4,2.1,2.4
		c0.3,0,0.6-0.1,0.9-0.1v0.6c-0.6,0.4-1.7,0.8-3,0.8c-1.9,0-3.3-1-3.7-2.8c-0.9,1.6-3.2,2.9-6,2.9
		C585.2,643.2,582.8,641.3,582.8,638.5z M590.4,641.5c1.7,0,3-0.6,3.8-1.9v-7l-2.1,0.5c-4.1,0.9-5.4,2.4-5.4,4.7
		S588.3,641.5,590.4,641.5z"/>
	<path class="st1" d="M620.5,642.1v0.7h-8.9v-0.7c2.4-0.2,2.6-0.8,1.3-2.8l-3.4-4.9l-3.2,4.8c-1.3,2-0.8,2.5,1.2,2.8v0.7H601v-0.7
		c1.9-0.4,2.5-1,4.1-3.2l3.8-5.2l-4.7-6.8c-1.1-1.6-1.8-2.1-3.1-2.4v-0.7h8.8v0.7c-2.4,0.2-2.6,0.8-1.4,2.7l3.3,4.7l3.2-4.8
		c1.2-1.9,0.9-2.3-1.3-2.6v-0.7h6.4v0.7c-1.8,0.4-2.4,0.9-3.9,3l-3.8,5.1l4.8,7C618.4,641.3,619.1,641.9,620.5,642.1z"/>
	<path class="st1" d="M638.8,642.1v0.7h-8.4v-0.7c2-0.3,2.4-0.6,2.4-2v-13.6c0-1.3-0.3-1.7-2.4-2v-0.7h8.4v0.7
		c-2,0.3-2.2,0.6-2.2,1.9v11.9l8.8-11.2v-0.7c0-1.3-0.3-1.6-2.2-1.9v-0.7h8.4v0.7c-2.1,0.3-2.4,0.6-2.4,2v13.6c0,1.3,0.3,1.7,2.4,2
		v0.7h-8.4v-0.7c2-0.3,2.2-0.6,2.2-1.9v-11.9l-8.8,11.2v0.7C636.6,641.5,636.8,641.8,638.8,642.1z"/>
	<path class="st1" d="M677.4,630.2h-0.6c-1.3-4.6-2-5.3-5.2-5.4l-2.6-0.1V640c0,1.5,0.3,1.8,2.6,2.1v0.7h-8.8v-0.7
		c2-0.3,2.4-0.6,2.4-2v-13.6c0-1.3-0.3-1.7-2.4-2v-0.7h14.5L677.4,630.2z"/>
	<path class="st1" d="M680.1,633.4c0-5.8,4.3-9.8,9.7-9.8c5.4,0,9.6,3.8,9.6,9.7c0,5.8-4.3,9.8-9.7,9.8
		C684.4,643.2,680.1,639.3,680.1,633.4z M695.2,633.5c0-5.4-2.2-9-5.5-9c-3.4,0-5.4,3.4-5.4,8.7c0,5.4,2.2,9,5.5,9
		C693.2,642.2,695.2,638.8,695.2,633.5z"/>
	<path class="st1" d="M720,630.2h-0.6c-1.3-4.6-1.8-5.3-5.1-5.4l-1.2-0.1V640c0,1.5,0.3,1.8,2.6,2.1v0.7h-9v-0.7
		c2.3-0.3,2.6-0.6,2.6-2.1v-15.3l-1.2,0.1c-3.3,0.2-3.8,0.9-5.1,5.4h-0.6l0.1-6.3h17.5L720,630.2z"/>
	<path class="st1" d="M722.8,633.4c0-5.8,4.3-9.8,9.7-9.8c5.4,0,9.6,3.8,9.6,9.7c0,5.8-4.3,9.8-9.7,9.8
		C727.1,643.2,722.8,639.3,722.8,633.4z M738,633.5c0-5.4-2.2-9-5.5-9c-3.4,0-5.4,3.4-5.4,8.7c0,5.4,2.2,9,5.5,9
		C735.9,642.2,738,638.8,738,633.5z"/>
</g>
<g class="st0">
	<path class="st1" d="M754.7,642.8H745v-0.7c2-0.3,2.4-0.6,2.4-2v-13.6c0-1.3-0.3-1.7-2.4-2v-0.7h9.8c4.8,0,7.2,1.7,7.2,4.3
		c0,2.5-2.5,4-5.9,4.6c4.1,0.2,6.9,1.7,6.9,4.8S759.7,642.8,754.7,642.8z M753.9,624.8l-2.7-0.1v7.9l2.5,0c3-0.1,4.4-1.6,4.4-3.9
		C758.2,626.2,756.7,624.8,753.9,624.8z M753.8,633.4l-2.5,0v8.7l2.5-0.1c3.2-0.1,5.2-1.7,5.2-4.4
		C759,634.6,756.9,633.4,753.8,633.4z"/>
</g>
<g class="st0">
	<path class="st1" d="M766.4,638.6c1,0,1.8,0.7,2.1,1.6c0.9-2,1.2-5.5,1.3-10.8l0.1-2.5c0-1.6-0.5-2.1-2.8-2.3v-0.7h16.7v0.7
		c-2.1,0.3-2.4,0.6-2.4,2v13.6c0,1.3,0.3,1.7,2.4,2v0.7h-8.4v-0.7c2-0.3,2.2-0.6,2.2-1.9v-15.5h-6.5l-0.2,4.8
		c-0.3,9-1.2,13.6-4.4,13.6c-1.4,0-2.3-0.9-2.3-2.3C764.2,639.6,765.1,638.6,766.4,638.6z"/>
	<path class="st1" d="M794.6,642.1v0.7h-8.4v-0.7c2-0.3,2.4-0.6,2.4-2v-13.6c0-1.3-0.3-1.7-2.4-2v-0.7h8.4v0.7
		c-2,0.3-2.2,0.6-2.2,1.9v6.3h3.6c0.3-5.4,4.4-9.2,9.6-9.2c5.4,0,9.5,3.8,9.5,9.7c0,5.8-4.2,9.8-9.6,9.8c-5.4,0-9.4-3.8-9.5-9.6
		h-3.6v6.7C792.3,641.5,792.6,641.8,794.6,642.1z M810.7,633.5c0-5.3-2-9-5.4-9c-3.4,0-5.2,3.4-5.2,8.7s2,9,5.4,9
		C808.9,642.2,810.7,638.8,810.7,633.5z"/>
</g>
<g class="st0">
	<path class="st1" d="M367.6,681.3c0-5.6,4.1-9.8,9.7-9.8c4.2,0,6.2,2.1,6.2,4.3c0,1.2-0.9,2.1-2,2.1c-1.2,0-2-0.9-2-2
		c0-1.2,0.9-2,1.9-2c0.1,0,0.3,0,0.4,0c-0.8-0.8-2.1-1.2-3.6-1.2c-4,0-6.5,3.2-6.5,7.9c0,5.5,3.2,8.8,7.2,8.8c2.2,0,3.8-0.8,4.9-1.9
		v0.7c-1.2,1.8-3.8,3.1-6.9,3.1C371.5,691.2,367.6,687.2,367.6,681.3z"/>
</g>
<g class="st0">
	<path class="st1" d="M386.5,681.4c0-5.8,4.3-9.8,9.7-9.8c5.4,0,9.6,3.8,9.6,9.7c0,5.8-4.3,9.8-9.7,9.8
		C390.8,691.2,386.5,687.3,386.5,681.4z M401.6,681.5c0-5.4-2.2-9-5.5-9c-3.4,0-5.4,3.4-5.4,8.7c0,5.4,2.2,9,5.5,9
		C399.6,690.2,401.6,686.8,401.6,681.5z"/>
</g>
<g class="st0">
	<path class="st1" d="M410.6,674.3c0-1.2-0.4-1.6-2.5-1.8v-0.7h8.8v0.7c-2.1,0.2-2.4,0.5-2.4,1.7v3c0,3.3,1.4,4.7,4.1,4.7
		c1.4,0,3-0.4,3.9-0.9v-6.9c0-1.2-0.3-1.5-2.5-1.7v-0.7h8.9v0.7c-2.2,0.2-2.5,0.5-2.5,1.8v14c0,1.2,0.4,1.5,2.5,1.8v0.7h-9.3v-0.7
		c2.5-0.2,2.9-0.5,2.9-1.8v-6.5c-1.3,0.8-3.4,1.4-5.5,1.4c-3.8,0-6.4-1.9-6.4-6.1V674.3z"/>
	<path class="st1" d="M439.6,690.1v0.7h-8.4v-0.7c2-0.3,2.4-0.6,2.4-2v-13.6c0-1.3-0.3-1.7-2.4-2v-0.7h8.4v0.7
		c-2,0.3-2.2,0.6-2.2,1.9v6.3h8.7v-6.3c0-1.3-0.3-1.6-2.2-1.9v-0.7h8.4v0.7c-2.1,0.3-2.4,0.6-2.4,2v13.6c0,1.3,0.3,1.7,2.4,2v0.7
		h-8.4v-0.7c2-0.3,2.2-0.6,2.2-1.9v-6.7h-8.7v6.7C437.4,689.5,437.6,689.8,439.6,690.1z"/>
	<path class="st1" d="M463.8,690.8h-9.3v-0.7c2-0.3,2.4-0.6,2.4-2v-13.6c0-1.3-0.3-1.7-2.4-2v-0.7h8.8v0.7c-2.3,0.3-2.6,0.6-2.6,2.1
		v4.7h2.7c6,0,8.5,2,8.5,5.5C472.1,688.5,468.7,690.8,463.8,690.8z M460.8,680.3v9.7l2.2-0.1c3.1-0.1,5.1-1.8,5.1-4.7
		c0-2.9-1.6-4.8-5.1-4.9L460.8,680.3z M479.1,688.4c0,1.1,0.3,1.4,2.5,1.7v0.7h-8.8v-0.7c2.1-0.3,2.5-0.6,2.5-1.7v-14.2
		c0-1.1-0.3-1.4-2.5-1.7v-0.7h8.8v0.7c-2.2,0.3-2.5,0.6-2.5,1.7V688.4z"/>
	<path class="st1" d="M493.3,671.6c4.9,0,7.7,3.2,7.7,7.8c0,0.4,0,0.8-0.1,1h-12.6c0.1,5.3,3,9,7.4,9c2.2,0,3.9-0.8,4.9-1.9v0.7
		c-1.2,1.8-3.8,3.1-7,3.1c-5.4,0-9.3-3.9-9.3-9.8C484.5,675.7,487.9,671.6,493.3,671.6z M488.4,679.6l9-0.1c0-0.3,0-0.5,0-0.9
		c0-3.5-1.3-6.2-4.1-6.2C490.3,672.5,488.5,675.1,488.4,679.6z"/>
	<path class="st1" d="M513.1,686.5c0-2.9,2.1-4.6,7.4-5.8l4-0.9v-2.1c0-3.7-1.9-5.1-4.8-5.1c-1.5,0-2.9,0.4-3.9,1.2h0.1
		c1,0,1.9,0.9,1.9,2c0,1.1-0.9,2-2.1,2c-1.1,0-2-0.9-2-2c0-2.4,3.2-4.2,7.4-4.2c4.3,0,7.2,1.8,7.2,5.8v10c0,1.7,0.9,2.4,2.1,2.4
		c0.3,0,0.6-0.1,0.9-0.1v0.6c-0.6,0.4-1.7,0.8-3,0.8c-1.9,0-3.3-1-3.7-2.8c-0.9,1.6-3.2,2.9-6,2.9
		C515.4,691.2,513.1,689.3,513.1,686.5z M520.6,689.5c1.7,0,3-0.6,3.8-1.9v-7l-2.1,0.5c-4.1,0.9-5.4,2.4-5.4,4.7
		S518.6,689.5,520.6,689.5z"/>
	<path class="st1" d="M533,681.3c0-5.6,4.1-9.8,9.7-9.8c4.2,0,6.2,2.1,6.2,4.3c0,1.2-0.9,2.1-2,2.1c-1.2,0-2-0.9-2-2
		c0-1.2,0.9-2,1.9-2c0.1,0,0.3,0,0.4,0c-0.8-0.8-2.1-1.2-3.6-1.2c-4,0-6.5,3.2-6.5,7.9c0,5.5,3.2,8.8,7.2,8.8c2.2,0,3.8-0.8,4.9-1.9
		v0.7c-1.2,1.8-3.8,3.1-6.9,3.1C536.9,691.2,533,687.2,533,681.3z"/>
	<path class="st1" d="M551.9,681.3c0-5.6,4.1-9.8,9.7-9.8c4.2,0,6.2,2.1,6.2,4.3c0,1.2-0.9,2.1-2,2.1c-1.2,0-2-0.9-2-2
		c0-1.2,0.9-2,1.9-2c0.1,0,0.3,0,0.4,0c-0.8-0.8-2.1-1.2-3.6-1.2c-4,0-6.5,3.2-6.5,7.9c0,5.5,3.2,8.8,7.2,8.8c2.2,0,3.8-0.8,4.9-1.9
		v0.7c-1.2,1.8-3.8,3.1-6.9,3.1C555.8,691.2,551.9,687.2,551.9,681.3z"/>
	<path class="st1" d="M579.7,671.6c4.9,0,7.7,3.2,7.7,7.8c0,0.4,0,0.8-0.1,1h-12.6c0.1,5.3,3,9,7.4,9c2.2,0,3.9-0.8,4.9-1.9v0.7
		c-1.2,1.8-3.8,3.1-7,3.1c-5.4,0-9.3-3.9-9.3-9.8C570.8,675.7,574.3,671.6,579.7,671.6z M574.8,679.6l9-0.1c0-0.3,0-0.5,0-0.9
		c0-3.5-1.3-6.2-4.1-6.2C576.7,672.5,574.9,675.1,574.8,679.6z"/>
	<path class="st1" d="M607.9,678.2h-0.6c-1.3-4.6-1.8-5.3-5.1-5.4l-1.2-0.1V688c0,1.5,0.3,1.8,2.6,2.1v0.7h-9v-0.7
		c2.3-0.3,2.6-0.6,2.6-2.1v-15.3l-1.2,0.1c-3.3,0.2-3.8,0.9-5.1,5.4h-0.6l0.1-6.3h17.5L607.9,678.2z"/>
	<path class="st1" d="M619.4,690.8h-9.3v-0.7c2-0.3,2.4-0.6,2.4-2v-13.6c0-1.3-0.3-1.7-2.4-2v-0.7h8.8v0.7c-2.3,0.3-2.6,0.6-2.6,2.1
		v4.7h2.7c6,0,8.5,2,8.5,5.5C627.6,688.5,624.3,690.8,619.4,690.8z M616.4,680.3v9.7l2.2-0.1c3.1-0.1,5.1-1.8,5.1-4.7
		c0-2.9-1.6-4.8-5.1-4.9L616.4,680.3z M634.7,688.4c0,1.1,0.3,1.4,2.5,1.7v0.7h-8.8v-0.7c2.1-0.3,2.5-0.6,2.5-1.7v-14.2
		c0-1.1-0.3-1.4-2.5-1.7v-0.7h8.8v0.7c-2.2,0.3-2.5,0.6-2.5,1.7V688.4z"/>
</g>
<g class="st0">
	<path class="st1" d="M436.1,480.9v-1.2l13.5-25.6l-3.1,0.1c-5.7,0.3-7.6,2-8.8,7.1h-1.2l0.2-8.6H460v1.2l-13.5,25.6l3.1-0.1
		c5.8-0.3,7.8-1.9,9.2-7.7h1.2l-0.2,9.3H436.1z"/>
	<path class="st1" d="M473.8,460.6c5.9,0,9.5,3.4,9.5,8.6c0,0.6-0.1,1.2-0.1,1.6h-11.7c0.8,4.7,3.7,7,7.3,7c1.7,0,3.2-0.6,4.2-1.5
		l0,1.2c-1.6,2.5-5,3.8-9.1,3.8c-6.2,0-11.4-3.8-11.4-10.3C462.5,464.8,467.1,460.6,473.8,460.6z M471.4,469.4l4.5-0.1
		c0-0.4,0-1,0-1.8c0-3.5-0.6-5.3-2-5.3c-1.7,0-2.5,2.1-2.5,5.7C471.3,468.4,471.3,468.9,471.4,469.4z"/>
	<path class="st1" d="M501.3,481.3c-2.3,0-4.6-1-5.3-2.5v7.3c0,1.6,0.4,2.1,2.4,2.5v1.2H485v-1.2c1.8-0.4,2.1-0.8,2.1-2.3v-20.6
		c0-1.5-0.2-1.8-1.3-2.2l-0.9-0.3v-1.2l10.9-1.4v3.9c0.8-2.3,3-3.9,6.3-3.9c4.6,0,8,3.8,8,10.1C510.3,477.8,506,481.3,501.3,481.3z
		 M498,464.1c-1,0-1.7,0.6-2,1.4v12c0.3,0.6,1,1.2,2,1.2c2,0,3.2-2.6,3.2-7.2C501.2,466.9,500,464.1,498,464.1z"/>
	<path class="st1" d="M523.3,477.4c0,1.5,0.4,1.9,2.1,2.3v1.2h-13.1v-1.2c1.8-0.4,2.1-0.8,2.1-2.3v-21c0-1.5-0.2-1.8-1.3-2.2
		l-0.9-0.3v-1.2l11-1.4V477.4z"/>
	<path class="st1" d="M538,477.4c0,1.5,0.4,1.9,2.1,2.3v1.2H527v-1.2c1.8-0.4,2.1-0.8,2.1-2.3v-11.6c0-1.5-0.2-1.8-1.3-2.2l-0.9-0.3
		v-1.2l11-1.4V477.4z M529,455.1c0-2.3,1.9-3.9,4.2-3.9c2.3,0,4.2,1.6,4.2,3.9c0,2.3-1.9,3.9-4.2,3.9C530.8,459,529,457.3,529,455.1
		z"/>
	<path class="st1" d="M552.6,464.6c0.9-2.4,3.4-4,7.2-4c4.1,0,6.9,2.1,6.9,6.5v10.2c0,1.5,0.4,1.9,2.1,2.3v1.2h-12.7v-1.2
		c1.4-0.3,1.7-0.7,1.7-2.2v-10.4c0-2-1-3-2.7-3c-1.2,0-2.1,0.6-2.5,1.4v12c0,1.5,0.3,1.9,1.7,2.2v1.2h-12.7v-1.2
		c1.8-0.4,2.1-0.8,2.1-2.3v-11.6c0-1.5-0.2-1.8-1.3-2.2l-0.9-0.3v-1.2l10.9-1.4V464.6z"/>
</g>
<g>
	<g>
		<path class="st2" d="M439,346.5l-16.6-18.6l50.9-18.5l7.9,21.8L439,346.5z"/>
		<path class="st3" d="M438.9,346.1l-0.8,24.9l50.9-18.5l-7.9-21.8L438.9,346.1z"/>
		<path class="st4" d="M580.4,295.1c7.3,21-16.1,48.7-52.5,61.9s-72.1,7.1-80.1-13.7L580.4,295.1z"/>
		<path class="st5" d="M580.4,295.1c-7.9-20.8-43.7-27-80.1-13.7s-59.9,41-52.5,62L580.4,295.1z"/>
		<path class="st2" d="M580.3,295.1c4.5,14.1-20.9,36-57.2,49.2s-69.9,12.7-75.4-1L580.3,295.1z"/>
		<path class="st3" d="M580.4,295.1c-5.5-13.8-39.1-14.2-75.5-1s-61.8,35.2-57.1,49.3L580.4,295.1z"/>
	</g>
	<g>
		<path class="st6" d="M519.2,276c-3.5-12-7.4-18.6-11.9-18.5c-8.7,0.2-11.6,27.7-8.8,62.9c2.8,35.6,10.2,62.3,19.4,62
			c5.5-0.1,8.5-8.9,9.6-24.1c0-0.3-0.3-0.1-0.3-0.4c0,0,0-0.5-0.2-0.6l-1.2-0.1c-1,14.7-3.8,23.2-8,23.3
			c-7.5,0.2-14.8-26.2-17.5-60.4c-2.7-33.6,0.2-60.8,7-61c3.2-0.1,6.9,6,10.1,17L519.2,276L519.2,276z"/>
		<path class="st6" d="M476.2,267.4c-7.4,4.5,3.8,29.8,23.9,58.9c20.2,29.4,40,48.9,47.8,44.1c4.4-2.7,3.2-10.8-2.5-23.1
			c-0.1-0.3-0.4-0.5-0.7-0.5c-0.5-0.1-0.9,0.3-1,0.8c0,0.2,0,0.3,0.1,0.5c5.2,11.4,6.3,18.9,3.2,20.8c-6.4,3.9-25.9-15.3-45.4-43.6
			c-19.1-27.8-30.2-52.7-24.4-56.3c3.1-1.9,10.5,2.7,20.2,12.6c0.3,0.3,0.6,0.6,0.9,0.8c0.3,0.1,0.1-0.5,0.4-0.8
			c0.2-0.2,0.3-0.4,0.3-0.6c0-0.2-0.1-0.5-0.2-0.6C488.3,269.7,480.5,264.8,476.2,267.4L476.2,267.4z"/>
	</g>
</g>
<g>
	<circle class="st7" cx="674.5" cy="680.8" r="23.2"/>
	<g>
		<ellipse class="st8" cx="665.5" cy="680.1" rx="6.8" ry="6"/>
		<ellipse class="st8" cx="683.5" cy="680.1" rx="6.8" ry="6"/>
		<path class="st9" d="M677.8,700.7c-12.8,0-23.2-10.4-23.2-23.3c0-5.3,1.8-10.5,5.2-14.6c-10,8.1-11.5,22.7-3.4,32.7
			s22.7,11.5,32.7,3.4c1.2-1,2.4-2.2,3.4-3.4C688.4,698.9,683.2,700.7,677.8,700.7z"/>
	</g>
	<path class="st10" d="M672,678.3l-1.2-0.9c1.4-2,4.2-2.5,6.2-1c0.4,0.3,0.8,0.6,1,1l-1.2,0.9c-1-1.3-2.9-1.6-4.2-0.6
		C672.4,677.9,672.2,678.1,672,678.3L672,678.3z"/>
	<path class="st11" d="M665.5,672.6c-0.8,0-1.6,0.1-2.4,0.4c-0.6,0.2-1.3,0.3-2,0.3H658c-0.4,0-0.7,0.3-0.8,0.8v1.5
		c0,0.5,0.3,1,0.7,1.2l0.2,0.1c0.4,0.3,0.7,0.8,0.7,1.3c0,0.1,0,0.3,0,0.4c0,3.3,3,6,6.8,6s6.8-2.7,6.8-6S669.2,672.6,665.5,672.6z"
		/>
	<g>
		<path class="st12" d="M674.5,693.8c-3.8,0-7.5-1.8-9.8-4.9c-0.3-0.4-0.2-1,0.2-1.3s1-0.2,1.3,0.2c3.4,4.6,9.9,5.5,14.4,2.1
			c0.8-0.6,1.5-1.3,2.1-2.1c0.3-0.4,0.9-0.5,1.3-0.2s0.5,0.9,0.2,1.3C681.9,691.9,678.3,693.8,674.5,693.8z"/>
		<path class="st12" d="M667.7,671.2h-4.5c-0.5,0.1-1-0.3-1-0.8c-0.1-0.5,0.3-1,0.8-1c0.1,0,0.1,0,0.2,0h4.5c0.5-0.1,1,0.3,1,0.8
			c0.1,0.5-0.3,1-0.8,1C667.8,671.3,667.8,671.3,667.7,671.2z"/>
		<path class="st12" d="M685.7,671.2h-4.5c-0.5,0.1-1-0.3-1-0.8c-0.1-0.5,0.3-1,0.8-1c0.1,0,0.1,0,0.2,0h4.5c0.5-0.1,1,0.3,1,0.8
			c0.1,0.5-0.3,1-0.8,1C685.8,671.3,685.8,671.3,685.7,671.2z"/>
	</g>
	<path class="st10" d="M665.5,683.1c-2.9,0-5.2-2-5.2-4.5s2.4-4.5,5.2-4.5s5.2,2,5.2,4.5S668.3,683.1,665.5,683.1z"/>
	<path class="st13" d="M665.5,676.3c1.8,0,3.5,0.4,5.1,1.2c-1.1-2.8-4.3-4.2-7.1-3.1c-1.4,0.6-2.5,1.7-3.1,3.1
		C661.9,676.7,663.7,676.3,665.5,676.3z"/>
	<path class="st11" d="M676.7,678.6c0,3.3,3,6,6.7,6s6.8-2.7,6.8-6c0-0.1,0-0.2,0-0.4c0-0.5,0.2-1,0.7-1.3l0.2-0.1
		c0.4-0.3,0.7-0.7,0.7-1.2v-1.5c0-0.4-0.3-0.8-0.8-0.8h-3.1c-0.7,0-1.4-0.1-2-0.3c-0.8-0.3-1.6-0.4-2.4-0.4
		C679.7,672.6,676.7,675.3,676.7,678.6z"/>
	<path class="st10" d="M678.2,678.6c0-2.5,2.3-4.5,5.2-4.5s5.2,2,5.2,4.5s-2.3,4.5-5.2,4.5S678.2,681,678.2,678.6z"/>
	<path class="st13" d="M683.5,676.3c-1.8,0-3.5,0.4-5.1,1.2c1.1-2.8,4.3-4.2,7.1-3.1c1.4,0.6,2.5,1.7,3.1,3.1
		C687,676.7,685.2,676.3,683.5,676.3z"/>
</g>
</svg>
