<?xml version="1.0" encoding="UTF-8"?>
<svg width="60px" height="60px" viewBox="0 0 60 60" version="1.1" xmlns="http://www.w3.org/2000/svg" xmlns:xlink="http://www.w3.org/1999/xlink">
    <!-- Generator: Sketch 58 (84663) - https://sketch.com -->
    <title>Ic / OS / Android</title>
    <desc>Created with Sketch.</desc>
    <g id="Ic-/-OS-/-Android" stroke="none" stroke-width="1" fill="none" fill-rule="evenodd">
        <g id="Group-11">
            <path d="M60,49.6551724 C60,55.3448276 55.3448276,60 49.6551724,60 L10.3448276,60 C4.65517241,60 0,55.3448276 0,49.6551724 L0,10.3448276 C0,4.65517241 4.65517241,0 10.3448276,0 L49.6551724,0 C55.3448276,0 60,4.65517241 60,10.3448276 L60,49.6551724 Z" id="Fill-1" fill="#EBEFF0"></path>
            <path d="M38.8633461,33.9988202 C37.5849298,33.9988202 36.5031928,32.9081002 36.5031928,31.6190675 C36.5031928,30.3300347 37.5849298,29.2393147 38.8633461,29.2393147 C40.1417625,29.2393147 41.2234994,30.3300347 41.2234994,31.6190675 C41.2234994,32.9081002 40.1417625,33.9988202 38.8633461,33.9988202 M21.3588761,33.9988202 C20.0804598,33.9988202 18.9987229,32.9081002 18.9987229,31.6190675 C18.9987229,30.3300347 20.0804598,29.2393147 21.3588761,29.2393147 C22.6372925,29.2393147 23.7190294,30.3300347 23.7190294,31.6190675 C23.7190294,32.9081002 22.6372925,33.9988202 21.3588761,33.9988202 M39.7484036,25.1739038 L43.1902937,20.3152419 C43.2886335,20.2160855 43.091954,20.0177728 42.9936143,19.9186164 C42.7969349,19.8194601 42.6002554,19.7203037 42.5019157,19.8194601 L38.9616858,24.8764347 C36.6015326,23.884871 33.651341,23.3890892 30.1111111,23.2899328 C26.5708812,23.2899328 23.6206897,23.7857147 21.2605364,24.7772783 L17.8186462,19.7203037 C17.7203065,19.6211473 17.5236271,19.6211473 17.3269476,19.8194601 C17.1302682,19.9186164 17.0319285,20.2160855 17.1302682,20.2160855 L20.5721584,25.0747474 C10.6398467,29.5367838 10.3448276,40.3448276 10.3448276,40.3448276 L50.1724138,40.3448276 C49.9757344,40.3448276 49.5823755,29.5367838 39.7484036,25.1739038" id="Fill-3" fill="#103357"></path>
        </g>
    </g>
</svg>