<?xml version="1.0" encoding="UTF-8"?>
<svg width="60px" height="60px" viewBox="0 0 60 60" version="1.1" xmlns="http://www.w3.org/2000/svg" xmlns:xlink="http://www.w3.org/1999/xlink">
    <!-- Generator: Sketch 58 (84663) - https://sketch.com -->
    <title>Ic / OS / iOS</title>
    <desc>Created with Sketch.</desc>
    <defs>
        <polygon id="path-1" points="0 0 59.9997931 0 59.9997931 60 0 60"></polygon>
    </defs>
    <g id="Ic-/-OS-/-iOS" stroke="none" stroke-width="1" fill="none" fill-rule="evenodd">
        <g id="Group-8">
            <g id="Group-3">
                <mask id="mask-2" fill="white">
                    <use xlink:href="#path-1"></use>
                </mask>
                <g id="Clip-2"></g>
                <path d="M59.9997931,49.6551724 C59.9997931,55.3448276 55.3446207,60 49.6549655,60 L10.3446207,60 C4.65496552,60 -0.000206896552,55.3448276 -0.000206896552,49.6551724 L-0.000206896552,10.3448276 C-0.000206896552,4.65517241 4.65496552,0 10.3446207,0 L49.6549655,0 C55.3446207,0 59.9997931,4.65517241 59.9997931,10.3448276 L59.9997931,49.6551724 Z" id="Fill-1" fill="#EBEFF0" mask="url(#mask-2)"></path>
            </g>
            <path d="M29.4310345,18.207 C29.4310345,18.207 28.862069,15.6725172 31.0862069,12.7242414 C33.6206897,9.36217241 37.137931,9.36217241 37.137931,9.36217241 C37.137931,9.36217241 37.6551724,12.5173448 35.1724138,15.5173448 C32.4827586,18.7242414 29.4310345,18.207 29.4310345,18.207" id="Fill-4" fill="#103357"></path>
            <path d="M39.9829655,29.7413793 C39.9829655,24.5689655 44.1208966,22.4482759 44.1208966,22.4482759 C44.1208966,22.4482759 41.9996897,18.6206897 36.5686552,18.6206897 C33.414,18.6206897 31.0341724,20.3793103 29.6898621,20.3793103 C28.1898621,20.3793103 25.914,18.7241379 23.0174483,18.7241379 C18.5174483,18.7241379 13.8100345,22.7068966 13.8100345,30.362069 C13.8100345,38.1206897 19.4484828,47.7931034 23.8962414,47.7931034 C25.4479655,47.7931034 27.8795172,46.2413793 30.2588276,46.2413793 C32.6381379,46.2413793 34.3450345,47.7413793 36.6208966,47.7413793 C41.4824483,47.7413793 45.1031379,37.5517241 45.1031379,37.5517241 C45.1031379,37.5517241 39.9829655,35.5344828 39.9829655,29.7413793" id="Fill-6" fill="#103357"></path>
        </g>
    </g>
</svg>