<?xml version="1.0" encoding="UTF-8"?>
<svg width="60px" height="60px" viewBox="0 0 60 60" version="1.1" xmlns="http://www.w3.org/2000/svg" xmlns:xlink="http://www.w3.org/1999/xlink">
    <!-- Generator: Sketch 58 (84663) - https://sketch.com -->
    <title>Ic / OS / Linux</title>
    <desc>Created with Sketch.</desc>
    <defs>
        <polygon id="path-1" points="5.63848671e-06 0.0115736041 54.8481369 0.0115736041 54.8481369 59.6953458 5.63848671e-06 59.6953458"></polygon>
    </defs>
    <g id="Ic-/-OS-/-Linux" stroke="none" stroke-width="1" fill="none" fill-rule="evenodd">
        <g id="Group-12" transform="translate(2.000000, 0.000000)">
            <g id="Group-3" transform="translate(0.275229, 0.000000)">
                <mask id="mask-2" fill="white">
                    <use xlink:href="#path-1"></use>
                </mask>
                <g id="Clip-2"></g>
                <path d="M48.6921941,37.313269 C50.5065553,38.0439289 52.4746758,39.0493096 54.1352775,40.3589543 C54.4427964,40.6026091 54.9040746,40.3281929 54.8425709,39.9325584 C53.4279842,33.475401 47.2468556,25.2523553 39.6203885,21.2929645 C39.2821178,20.9274822 38.9745989,20.5924569 38.697832,20.3183452 C40.2354262,17.9122538 41.0042233,14.9883959 40.6659525,11.881797 C40.020163,5.72951269 35.0691097,0.765045685 28.8572293,0.0949949239 C20.8002358,-0.788253807 13.9425657,5.45540102 13.9425657,13.2828122 C13.9425657,15.9021015 14.7113628,18.3386497 16.0336938,20.3792589 C15.7569269,20.6838274 15.449408,20.9883959 15.1111373,21.3538782 C7.54617395,25.3437259 1.42654913,33.5061624 0.0119624827,39.9325584 C-0.080293168,40.3281929 0.380985085,40.6026091 0.719255804,40.3589543 C2.34910563,39.0797665 4.31722618,38.0746904 6.10083543,37.3437259 C6.07008354,37.4655533 6.07008354,37.6178376 6.03933166,37.7393604 C2.19534621,66.6733706 53.5817436,67.4960102 48.6921941,37.313269" id="Fill-1" fill="#103357" mask="url(#mask-2)"></path>
            </g>
            <path d="M27.7827019,24.7706422 C29.638286,24.7706422 32.792779,22.9866395 34.6174367,16.6956828 C34.8339215,15.9445238 34.4628047,15.1307682 33.7514975,14.8177853 C30.3805197,13.4093621 25.1848842,13.4093621 21.8448328,14.8177853 C21.1335256,15.1307682 20.7624087,15.9445238 20.9788936,16.6956828 C22.7726249,22.9866395 25.9271178,24.7706422 27.7827019,24.7706422" id="Fill-4" fill="#EBEFF0"></path>
            <path d="M16.5500521,58.4663446 C17.6655941,57.6599895 18.5022505,49.8788638 12.4597317,45.507619 C9.73285145,43.5235079 4.55797637,50.0338725 5.30167099,52.8240287 C6.35523837,56.8232526 14.3189683,60.1094366 16.5500521,58.4663446" id="Fill-6" fill="#EBEFF0"></path>
            <path d="M39.5969579,58.4663446 C38.4811226,57.6599895 37.6444786,49.8788638 43.6869079,45.507619 C46.4140577,43.5235079 51.5885463,50.0338725 50.8451726,52.8240287 C49.8226076,56.8232526 41.8589956,60.1094366 39.5969579,58.4663446" id="Fill-8" fill="#EBEFF0"></path>
            <path d="M31.0237731,23.1192661 C29.8346382,24.2495333 28.6150127,24.677202 27.7307843,24.677202 C26.8465558,24.677202 25.657116,24.2800811 24.4682861,23.1498138 C12.4854656,27.0599275 7.54598236,51.1926606 27.7914606,51.1926606 C48.09853,51.1926606 43.0980654,26.9377365 31.0237731,23.1192661" id="Fill-10" fill="#FFFFFF"></path>
        </g>
    </g>
</svg>