<?xml version="1.0" encoding="UTF-8"?>
<svg width="60px" height="60px" viewBox="0 0 60 60" version="1.1" xmlns="http://www.w3.org/2000/svg" xmlns:xlink="http://www.w3.org/1999/xlink">
    <!-- Generator: Sketch 58 (84663) - https://sketch.com -->
    <title>Ic / OS / Mac</title>
    <desc>Created with Sketch.</desc>
    <defs>
        <polygon id="path-1" points="0 48.8837074 59.9375119 48.8837074 59.9375119 0.443340463 0 0.443340463"></polygon>
    </defs>
    <g id="Ic-/-OS-/-Mac" stroke="none" stroke-width="1" fill="none" fill-rule="evenodd">
        <g id="Group-10" transform="translate(0.000000, 5.000000)">
            <path d="M32.3254094,40.4453232 C24.4702153,40.7309666 15.9485198,39.2551422 8.80743414,35.6845994 L10.2832585,33.3518448 C17.2339152,36.6367442 25.1843238,37.7317106 32.3254094,37.4460672 C32.3254094,37.6841034 32.6110529,32.6377362 33.0871252,29.8765164 L22.423104,29.8765164 C23.3752488,18.7364229 26.8029699,8.8341175 31.9445515,0.407636478 L9.52144749e-05,0.407636478 L9.52144749e-05,49.0622331 L33.5631976,49.0622331 C32.8014818,46.1105844 32.3254094,40.3025014 32.3254094,40.4453232" id="Fill-1" fill="#EBEFF0"></path>
            <path d="M35.5626064,37.2081262 C41.3706893,36.6368394 46.512271,35.1134078 49.6067414,33.1139038 L51.4634237,35.4466584 C47.1787723,37.969842 41.6087255,39.5884881 35.5626064,40.2073822 C35.7054281,43.2066381 36.1815004,46.0630724 36.9432162,49.0147211 L59.9375119,49.0147211 L59.9375119,0.360124455 L35.4673919,0.360124455 C30.2305958,8.31053311 27.278947,17.2130865 26.1839806,26.6393195 L37.1812524,26.6393195 C36.2291077,30.2098623 35.6578208,33.7327979 35.5626064,37.2081262" id="Fill-3" fill="#103357"></path>
            <mask id="mask-2" fill="white">
                <use xlink:href="#path-1"></use>
            </mask>
            <g id="Clip-6"></g>
            <polygon id="Fill-5" fill="#103357" mask="url(#mask-2)" points="14.4726002 14.9278439 17.6146778 14.9278439 17.6146778 7.73915104 14.4726002 7.73915104"></polygon>
            <polygon id="Fill-7" fill="#FFFFFF" mask="url(#mask-2)" points="40.4661518 14.9278439 43.5606222 14.9278439 43.5606222 7.73915104 40.4661518 7.73915104"></polygon>
            <path d="M49.6067414,33.1139038 L51.4634237,35.4466584 C47.1787723,37.969842 41.6087255,39.5884881 35.5626064,40.2073822 C35.6927193,43.173957 36.1499889,46.1263075 36.9732905,49.0333335 C36.6055046,48.9908257 34.9541284,48.9908257 33.5447793,49.1068887 C31.9867295,43.0631118 31.9788601,36.319714 33.08703,29.8290044 L22.4230088,29.8290044 C23.3972453,18.729668 26.7618649,8.87638249 31.8292062,0.455002248 C33.5779817,0.550458716 34.4036697,0.550458716 35.3949943,0.384761322 C30.2308648,8.37845522 27.2575186,17.226019 26.1839806,26.5917123 L37.1812524,26.5917123 C36.2291077,30.2098623 35.6578208,33.7327979 35.5626064,37.2081262 C41.3706893,36.6368394 46.512271,35.1134078 49.6067414,33.1139038 Z" id="Fill-8" fill="#FFFFFF" mask="url(#mask-2)"></path>
            <path d="M32.3254094,37.3985076 L32.3254094,40.3977635 C24.4702153,40.683407 15.9485198,39.2075826 8.80743414,35.6370398 L10.2832585,33.3042851 C17.2339152,36.5891845 25.2319311,37.7317582 32.3254094,37.3985076" id="Fill-9" fill="#103357" mask="url(#mask-2)"></path>
        </g>
    </g>
</svg>