<?xml version="1.0" encoding="UTF-8"?>
<svg width="60px" height="60px" viewBox="0 0 60 60" version="1.1" xmlns="http://www.w3.org/2000/svg" xmlns:xlink="http://www.w3.org/1999/xlink">
    <!-- Generator: Sketch 58 (84663) - https://sketch.com -->
    <title>Ic / OS / Win</title>
    <desc>Created with Sketch.</desc>
    <defs>
        <polygon id="path-1" points="0.164072727 0 32.6187273 0 32.6187273 28.6363636 0.164072727 28.6363636"></polygon>
    </defs>
    <g id="Ic-/-OS-/-Win" stroke="none" stroke-width="1" fill="none" fill-rule="evenodd">
        <g id="Group-10">
            <g id="Group-3" transform="translate(27.272727, 0.000000)">
                <mask id="mask-2" fill="white">
                    <use xlink:href="#path-1"></use>
                </mask>
                <g id="Clip-2"></g>
                <path d="M32.5640727,0 C21.7635273,1.52727273 10.9089818,3.05454545 0.164072727,4.69090909 L0.164072727,28.6363636 C10.9646182,28.5818182 21.7640727,28.4181818 32.6191636,28.4181818 C32.5640727,18.9278182 32.5640727,9.49145455 32.5640727,0" id="Fill-1" fill="#103357" mask="url(#mask-2)"></path>
            </g>
            <path d="M0.000109090909,8.50914545 L0.000109090909,28.8000545 C8.18192727,28.8000545 16.3092,28.6909636 24.4910182,28.6909636 L24.4910182,5.12787273 C16.3092,6.21878182 8.12738182,7.2546 0.000109090909,8.50914545" id="Fill-4" fill="#EBEFF0"></path>
            <path d="M0.000109090909,31.3095818 L0.000109090909,51.6550364 C8.18192727,52.7459455 16.3092,53.8368545 24.4370182,55.0368545 L24.4370182,31.3646727 C16.3092,31.4181273 8.12738182,31.3095818 0.000109090909,31.3095818" id="Fill-6" fill="#103357"></path>
            <path d="M27.3822545,31.6360909 C27.3822545,39.5451818 27.4368,47.5093636 27.4368,55.4184545 C38.2373455,56.8911818 49.0908,58.3633636 59.8368,59.9997273 L59.8368,31.6360909 L27.3822545,31.6360909 Z" id="Fill-8" fill="#EBEFF0"></path>
        </g>
    </g>
</svg>