<?xml version="1.0" encoding="utf-8"?>
<!-- Generator: Adobe Illustrator 23.1.1, SVG Export Plug-In . SVG Version: 6.00 Build 0)  -->
<svg version="1.1" id="Слой_1" xmlns="http://www.w3.org/2000/svg" xmlns:xlink="http://www.w3.org/1999/xlink" x="0px" y="0px"
	 viewBox="0 0 2000 2000" style="enable-background:new 0 0 2000 2000;" xml:space="preserve">
<style type="text/css">
	.st0{fill:#E80052;}
	.st1{clip-path:url(#SVGID_2_);}
	.st2{fill:#FFEC00;}
</style>
<path class="st0" d="M995.3-4h9.4c554.5,0,1003.9,449.5,1003.9,1003.9v0c0,554.5-449.5,1003.9-1003.9,1003.9h-9.4
	C440.9,2003.9-8.6,1554.4-8.6,1000v0C-8.6,445.5,440.9-4,995.3-4z"/>
<title>tsd2</title>
<g>
	<defs>
		<path id="SVGID_1_" d="M995.3-4h9.4c554.5,0,1003.9,449.5,1003.9,1003.9v0c0,554.5-449.5,1003.9-1003.9,1003.9h-9.4
			C440.9,2003.9-8.6,1554.4-8.6,1000v0C-8.6,445.5,440.9-4,995.3-4z"/>
	</defs>
	<clipPath id="SVGID_2_">
		<use xlink:href="#SVGID_1_"  style="overflow:visible;"/>
	</clipPath>
	<g class="st1">
		<polygon class="st2" points="1872.1,980.8 277.1,1444.8 277.1,1058.2 1872.1,594.3 		"/>
		<polygon class="st2" points="1287,895.8 -146.3,1306.7 -146.3,787.6 1287,376.7 		"/>
		<g>
			<g>
				<g>
					<polygon class="st2" points="1483.2,1387.1 72,1795.1 72,1492.7 1483.2,1084.8 					"/>
				</g>
			</g>
			<g>
				<g>
					<path d="M301.3,1655.4v-60.9l10.6-3.1c8.5-8.5,11.2-20.1,12.3-48.1l2.2-57.8l104.7-30.5v101.6l15.7-4.6v60.9l-36.4,10.6v-28.2
						l-72.9,21.2v28.2L301.3,1655.4z M390.9,1499.6l-29.2,8.5l-1.4,31.3c-0.8,18.5-2.6,28.2-8.3,38.4v1.9l38.9-11.3V1499.6z"/>
					<polygon points="548.8,1482.7 546.9,1483.3 504.1,1568.3 466.7,1579.1 466.7,1444.8 506,1433.3 506,1505.6 508,1505.1 
						550.8,1420.3 588.2,1409.4 588.2,1543.8 548.8,1555.2 					"/>
					<path d="M650.9,1441.8l16-4.7c8.4-2.4,14.2-8.6,14.2-14.9c0-7.4-6.1-10.7-15.3-8.1c-9.7,2.9-16.2,11.9-16.2,22.4l-37.7,11
						c1.1-30,21.4-53.6,54.9-63.4c31.8-9.3,53.8-0.5,53.8,21.4c0,14.3-10.9,28.7-26.8,35.5v2c17.5-3.7,30.2,5.2,30.2,21.1
						c0,25.9-22,48.5-57.2,58.7c-33.5,9.7-55.8-3.3-55.8-32.3l37.1-10.8c0,11.1,7.1,16.1,18.9,12.8c9.6-2.9,16.6-10.2,16.6-18
						c0-7.9-7-11.1-16.6-8.4l-15.9,4.6v-29.1H650.9z"/>
					<path d="M734.6,1501.1l40.7-146.2l52.3-15.2l40.3,122.6l-44.1,12.9l-5.8-23.7l-36.7,10.7l-6,27.1L734.6,1501.1z M799.1,1382.1
						l-10.8,48.9l23.4-6.8l-10.4-42.8L799.1,1382.1z"/>
					<path d="M968.5,1360.5l-1.9,0.6l-42.9,85l-37.4,10.9v-134.4l39.4-11.4v72.3l1.9-0.6l42.9-84.8l37.4-10.9v134.4l-39.4,11.4
						V1360.5z M933.9,1267.9c0,9.1,4.8,12.2,14.2,9.6c9.4-2.8,14.2-8.8,14.2-17.9l20.8-6.1c0,20.2-13.3,36.3-35,42.6
						c-21.7,6.3-35-2.1-35-22.2L933.9,1267.9z"/>
					<polygon points="1117.6,1389.7 1117.6,1338.8 1078.7,1350.1 1078.7,1401 1037.4,1413 1037.4,1278.7 1078.7,1266.6 
						1078.7,1317.4 1117.6,1306 1117.6,1255.3 1158.9,1243.3 1158.9,1377.7 					"/>
					<polygon points="1284.2,1341.1 1188.5,1369 1188.5,1234.7 1284.2,1206.9 1284.2,1238.6 1229.3,1254.6 1229.3,1275.7 
						1280.6,1260.8 1280.6,1289.6 1229.3,1304.5 1229.3,1325.3 1284.2,1309.4 					"/>
				</g>
				<path d="M1421.6,1216.2c0,26.2-16,53.3-50.1,63.2l-19.5,5.7v36.3l-41.2,12v-134.4l61.3-17.9
					C1406.1,1171.3,1421.6,1190.5,1421.6,1216.2 M1360.9,1215l-9.1,2.7v37.8l9.1-2.7c11.4-3.4,19-12.3,19-24.4
					C1379.9,1215.9,1372.3,1211.7,1360.9,1215"/>
			</g>
		</g>
		<g>
			<g>
				<polygon points="176.8,1088.5 176.8,855.3 98,878.2 98,802 350.5,728.6 350.5,804.8 271.9,827.6 271.9,1060.8 				"/>
				<path d="M525.3,992.2c-94.5,27.5-146.2-14.9-146.2-101.6v-30.4c0-88,51.6-160.1,146.2-187.6c94.7-27.5,146,15.3,146,102.6v30.4
					C671.3,892.5,620,964.7,525.3,992.2 M525.3,748.2c-30.4,8.8-48.8,37.9-48.8,82.4v32.2c0,44.7,18.4,62.8,48.8,54
					c30.2-8.8,48.6-37.7,48.6-82.4v-32.2C573.9,757.9,555.5,739.4,525.3,748.2"/>
				<polygon points="778.5,913.4 778.5,680.1 699.9,703.1 699.9,626.9 952.4,553.4 952.4,629.6 873.6,652.5 873.6,885.6 				"/>
				<path d="M436.4,1216.7c0,32.2,12,45.9,32.7,39.9c20.3-5.9,30.8-25.4,30.8-46.7l65.2-19v10.1c0,50.7-40.2,95.3-96.8,111.7
					c-66.4,19.3-102.6-11.9-102.6-75.9v-20.2c0-64.2,36.3-116.2,102.6-135.5c56.4-16.5,96.8,4.6,96.8,55.6v9.7l-65.2,19
					c0-21.4-10.5-34.5-30.8-28.7c-20.7,6.1-32.7,26.7-32.7,59.1V1216.7z"/>
				<path d="M583.8,1275.3l68-243.9l87.4-25.5l67.3,204.6l-73.6,21.4l-9.7-39.5l-61.2,17.8l-10.1,45.2L583.8,1275.3z M691.4,1076.8
					l-18.1,81.6l39-11.3l-17.4-71.3L691.4,1076.8z"/>
				<polygon points="836.7,1201.6 836.7,977.5 908.8,956.6 956.8,1042.6 959.1,1041.9 1007.2,927.9 1078.6,907.1 1078.6,1131.3 
					1016.8,1149.3 1016.8,1024.3 1013.6,1025.2 975.6,1118.8 939.4,1129.3 900.9,1058 897.6,1059 897.6,1183.9 				"/>
				<path d="M1229.4,1087.4L1128,1117V892.7l68.8-20v63.9l31.6-9.3c56.8-16.6,83.6,12.3,83.6,55.2
					C1312,1024.6,1286.1,1070.9,1229.4,1087.4 M1195.6,986.5v59.7l15.1-4.3c19.1-5.6,31.6-19.5,31.6-39.1
					c0-19.2-12.7-26.2-31.6-20.7L1195.6,986.5z M1325.8,1059.4V835.1l69-20.1v224.1L1325.8,1059.4z"/>
				<path d="M1581.2,863.9l-3.3,0.9l-71.4,141.8l-62.4,18.2v-224l65.7-19.1v120.8l3.3-0.9l71.4-141.5l62.4-18.2V966l-65.7,19.1
					V863.9z M1523.6,709.5c0,15.1,8,20.4,23.6,16c15.7-4.6,23.6-14.6,23.6-29.7l34.8-10.2c0,33.7-22.2,60.7-58.5,71.2
					s-58.5-3.5-58.5-37.1L1523.6,709.5z"/>
			</g>
		</g>
	</g>
</g>
</svg>
